<svg xmlns="http://www.w3.org/2000/svg" xmlns:xlink="http://www.w3.org/1999/xlink" xmlns:lucid="lucid" width="590" height="483"><g transform="translate(-106 -22)" lucid:page-tab-id="0_0"><path d="M160 445.67V79.9" stroke="#000" stroke-width="2" fill="none"/><path d="M160 64.9l4.64 14.27h-9.28z" stroke="#000" stroke-width="2"/><path d="M160 445h429.76" stroke="#000" stroke-width="2" fill="none"/><path d="M604.76 445l-14.26 4.64v-9.28z" stroke="#000" stroke-width="2"/><path d="M180 100l.32 47.65 1.74 35.76 2.54 27.85 2.98 22.33 3.24 18.35 3.4 15.4 3.48 13.2 3.55 11.44 3.6 10.1 3.65 9 3.7 8.17 3.8 7.48 3.87 6.95 4.02 6.52 4.2 6.2 4.44 6.02 4.8 5.95 5.28 6.03 6.08 6.37 7.55 7.27 12.08 10.65 2.34 1.97 3.22 2.6 3.37 2.5 3.56 2.4 3.77 2.33 4.02 2.26 4.34 2.2 4.7 2.14 5.17 2.1 5.75 2.05 6.47 2.02 7.42 1.97 8.7 1.92 10.55 1.87 13.32 1.8 18.12 1.65 28.67 1.4L540 424M540 424h3" stroke="#000" stroke-width="2" fill="none"/><path d="M200 103l.3 42.32 1.6 32.93 2.38 26.12 2.8 21.07 3.06 17.24 3.14 14.3 3.17 12 3.15 10.15 3.1 8.68 3.02 7.5 2.96 6.5 2.87 5.68 2.8 5 2.7 4.4 2.66 3.92 2.6 3.5 2.5 3.13 2.47 2.8 2.4 2.54 2.38 2.28 2.33 2.07 2.3 1.87 2.26 1.68 2.24 1.53 2.23 1.4 2.22 1.25 2.2 1.13 2.2 1 2.18.92 2.2.8 2.2.7 2.2.6 2.23.5 2.25.4 2.26.32 2.28.22 1.13.07 14.8.73 3.85-.03 3.23-.16 3.17-.3 3.43-.45 4.08-.73 5.4-1.2 8.47-2.25 19.04-5.98L580 260M309.23 352.12V143.34M400 324.74v-181.4M480 295.97V143.34" stroke="#000" stroke-width="2" fill="none"/><path d="M309.23 161.34l4.5 42.8 3.88 26.35 3.42 17.8 3 12.78 2.7 9.62 2.44 7.5 2.24 6 2.07 4.9 1.93 4.1 1.82 3.46 1.72 2.98 1.65 2.6 1.57 2.26 1.53 2 1.5 1.8 1.45 1.62 1.44 1.46 1.4 1.33 1.42 1.23 1.42 1.12 1.43 1.04 1.45.94 1.47.9 1.5.82 1.57.78 1.64.72 1.72.68 1.83.63 1.96.6 2.16.54 2.38.5 2.73.46 3.24.4 4.16.34 6.38.25 12.06.04M400 166.3l5.88 33.6 4.33 19.73 3.5 13.2 2.95 9.55 2.58 7.26 2.32 5.73 2.1 4.65 1.97 3.88 1.83 3.27 1.74 2.82 1.65 2.45 1.6 2.16 1.55 1.94 1.5 1.73 1.5 1.56 1.48 1.43 1.48 1.3 1.48 1.2 1.5 1.12 1.5 1.04 1.56.97 1.6.9 1.66.85 1.74.8 1.83.75 1.95.7 2.1.68 2.32.62 2.56.58 2.9.53 3.4.48 4.13.4 5.38.3 6.3.1M480 166.3l9.66 56.3 3.26 14.44 2.14 7.7 1.64 5 1.36 3.52 1.17 2.67 1.05 2.1.95 1.72.9 1.42.82 1.22.8 1.04.78.92.75.82.75.74.74.67.75.6.76.55.77.52.8.48.84.45.87.43.94.4 1.03.37 1.13.36 1.26.33 1.46.3 1.75.3 2.2.24 3.1.2 5.82.12 16.15-.17" stroke="#000" stroke-width="2" fill="none"/><path d="M540 414h140v20H540z" stroke="#000" stroke-opacity="0" stroke-width="2" fill="#fff" fill-opacity="0"/><use xlink:href="#a" transform="matrix(1,0,0,1,545,419) translate(4.574999999999996 14.4)"/><use xlink:href="#b" transform="matrix(1,0,0,1,545,419) translate(81.475 14.4)"/><path d="M500 300h140v20H500z" stroke="#000" stroke-opacity="0" stroke-width="2" fill="#fff" fill-opacity="0"/><use xlink:href="#c" transform="matrix(1,0,0,1,505,305) translate(15.549999999999997 14.4)"/><use xlink:href="#b" transform="matrix(1,0,0,1,505,305) translate(70.5 14.4)"/><path d="M240 260h60v20h-60z" stroke="#000" stroke-opacity="0" stroke-width="2" fill="#fff" fill-opacity="0"/><use xlink:href="#d" transform="matrix(1,0,0,1,245,265) translate(-6.475000000000001 14.4)"/><path d="M270 280l29.2 56.03M270 280l-1.4-2.66" stroke="#000" stroke-width="2" fill="none"/><path d="M306.15 349.33l-10.7-10.5 8.2-4.3z" stroke="#000" stroke-width="2"/><path d="M200 40h160v80H200z" stroke="#000" stroke-opacity="0" stroke-width="2" fill="#fff" fill-opacity="0"/><use xlink:href="#e" transform="matrix(1,0,0,1,205,45) translate(8.599999999999994 17)"/><use xlink:href="#f" transform="matrix(1,0,0,1,205,45) translate(92.55 17)"/><use xlink:href="#g" transform="matrix(1,0,0,1,205,45) translate(13.049999999999997 38.6)"/><use xlink:href="#h" transform="matrix(1,0,0,1,205,45) translate(49 38.6)"/><use xlink:href="#i" transform="matrix(1,0,0,1,205,45) translate(84 38.6)"/><use xlink:href="#j" transform="matrix(1,0,0,1,205,45) translate(104 38.6)"/><use xlink:href="#k" transform="matrix(1,0,0,1,205,45) translate(48.675 60.2)"/><path d="M280 120l19.54 31.18M280 120l-1.6-2.54" stroke="#000" stroke-width="2" fill="none"/><path d="M307.5 163.9l-11.5-9.64 7.86-4.92z" stroke="#000" stroke-width="2"/><g><path d="M120 390V150h22.2v240z" stroke="#000" stroke-opacity="0" stroke-width="2" fill="#fff" fill-opacity="0"/></g><g><use xlink:href="#l" transform="matrix(6.123233995736766e-17,-1,1,6.123233995736766e-17,125.00000000000003,385.00000000000006) translate(66.125 14.4)"/><use xlink:href="#m" transform="matrix(6.123233995736766e-17,-1,1,6.123233995736766e-17,125.00000000000003,385.00000000000006) translate(125.92500000000001 14.4)"/></g><path d="M260 460h240v22.2H260z" stroke="#000" stroke-opacity="0" stroke-width="2" fill="#fff" fill-opacity="0"/><g><use xlink:href="#n" transform="matrix(1,0,0,1,265,465) translate(95.4 14.4)"/></g><defs><path d="M33 0v-248h34V0H33" id="o"/><path d="M85-194c31 0 48 13 60 33l-1-100h32l1 261h-30c-2-10 0-23-3-31C134-8 116 4 85 4 32 4 16-35 15-94c0-66 23-100 70-100zm9 24c-40 0-46 34-46 75 0 40 6 74 45 74 42 0 51-32 51-76 0-42-9-74-50-73" id="p"/><path d="M100-194c63 0 86 42 84 106H49c0 40 14 67 53 68 26 1 43-12 49-29l28 8c-11 28-37 45-77 45C44 4 14-33 15-96c1-61 26-98 85-98zm52 81c6-60-76-77-97-28-3 7-6 17-6 28h103" id="q"/><path d="M141-36C126-15 110 5 73 4 37 3 15-17 15-53c-1-64 63-63 125-63 3-35-9-54-41-54-24 1-41 7-42 31l-33-3c5-37 33-52 76-52 45 0 72 20 72 64v82c-1 20 7 32 28 27v20c-31 9-61-2-59-35zM48-53c0 20 12 33 32 33 41-3 63-29 60-74-43 2-92-5-92 41" id="r"/><path d="M24 0v-261h32V0H24" id="s"/><path d="M24-231v-30h32v30H24zM24 0v-190h32V0H24" id="t"/><path d="M9 0v-24l116-142H16v-24h144v24L44-24h123V0H9" id="u"/><g id="a"><use transform="matrix(0.05,0,0,0.05,0,0)" xlink:href="#o"/><use transform="matrix(0.05,0,0,0.05,5,0)" xlink:href="#p"/><use transform="matrix(0.05,0,0,0.05,15,0)" xlink:href="#q"/><use transform="matrix(0.05,0,0,0.05,25,0)" xlink:href="#r"/><use transform="matrix(0.05,0,0,0.05,35,0)" xlink:href="#s"/><use transform="matrix(0.05,0,0,0.05,38.95,0)" xlink:href="#t"/><use transform="matrix(0.05,0,0,0.05,42.900000000000006,0)" xlink:href="#u"/><use transform="matrix(0.05,0,0,0.05,51.900000000000006,0)" xlink:href="#q"/><use transform="matrix(0.05,0,0,0.05,61.900000000000006,0)" xlink:href="#p"/></g><path d="M96-169c-40 0-48 33-48 73s9 75 48 75c24 0 41-14 43-38l32 2c-6 37-31 61-74 61-59 0-76-41-82-99-10-93 101-131 147-64 4 7 5 14 7 22l-32 3c-4-21-16-35-41-35" id="v"/><path d="M84 4C-5 8 30-112 23-190h32v120c0 31 7 50 39 49 72-2 45-101 50-169h31l1 190h-30c-1-10 1-25-2-33-11 22-28 36-60 37" id="w"/><path d="M114-163C36-179 61-72 57 0H25l-1-190h30c1 12-1 29 2 39 6-27 23-49 58-41v29" id="x"/><path d="M108 0H70L1-190h34L89-25l56-165h34" id="y"/><g id="b"><use transform="matrix(0.05,0,0,0.05,0,0)" xlink:href="#v"/><use transform="matrix(0.05,0,0,0.05,9,0)" xlink:href="#w"/><use transform="matrix(0.05,0,0,0.05,19,0)" xlink:href="#x"/><use transform="matrix(0.05,0,0,0.05,24.95,0)" xlink:href="#y"/><use transform="matrix(0.05,0,0,0.05,33.95,0)" xlink:href="#q"/></g><path d="M205 0l-28-72H64L36 0H1l101-248h38L239 0h-34zm-38-99l-47-123c-12 45-31 82-46 123h93" id="z"/><path d="M59-47c-2 24 18 29 38 22v24C64 9 27 4 27-40v-127H5v-23h24l9-43h21v43h35v23H59v120" id="A"/><g id="c"><use transform="matrix(0.05,0,0,0.05,0,0)" xlink:href="#z"/><use transform="matrix(0.05,0,0,0.05,12,0)" xlink:href="#v"/><use transform="matrix(0.05,0,0,0.05,21,0)" xlink:href="#A"/><use transform="matrix(0.05,0,0,0.05,26,0)" xlink:href="#w"/><use transform="matrix(0.05,0,0,0.05,36,0)" xlink:href="#r"/><use transform="matrix(0.05,0,0,0.05,46,0)" xlink:href="#s"/></g><path d="M212-179c-10-28-35-45-73-45-59 0-87 40-87 99 0 60 29 101 89 101 43 0 62-24 78-52l27 14C228-24 195 4 139 4 59 4 22-46 18-125c-6-104 99-153 187-111 19 9 31 26 39 46" id="B"/><path d="M106-169C34-169 62-67 57 0H25v-261h32l-1 103c12-21 28-36 61-36 89 0 53 116 60 194h-32v-121c2-32-8-49-39-48" id="C"/><path d="M117-194c89-4 53 116 60 194h-32v-121c0-31-8-49-39-48C34-167 62-67 57 0H25l-1-190h30c1 10-1 24 2 32 11-22 29-35 61-36" id="D"/><path d="M177-190C167-65 218 103 67 71c-23-6-38-20-44-43l32-5c15 47 100 32 89-28v-30C133-14 115 1 83 1 29 1 15-40 15-95c0-56 16-97 71-98 29-1 48 16 59 35 1-10 0-23 2-32h30zM94-22c36 0 50-32 50-73 0-42-14-75-50-75-39 0-46 34-46 75s6 73 46 73" id="E"/><g id="d"><use transform="matrix(0.05,0,0,0.05,0,0)" xlink:href="#B"/><use transform="matrix(0.05,0,0,0.05,12.950000000000001,0)" xlink:href="#C"/><use transform="matrix(0.05,0,0,0.05,22.950000000000003,0)" xlink:href="#r"/><use transform="matrix(0.05,0,0,0.05,32.95,0)" xlink:href="#D"/><use transform="matrix(0.05,0,0,0.05,42.95,0)" xlink:href="#E"/><use transform="matrix(0.05,0,0,0.05,52.95,0)" xlink:href="#q"/></g><path d="M135-143c-3-34-86-38-87 0 15 53 115 12 119 90S17 21 10-45l28-5c4 36 97 45 98 0-10-56-113-15-118-90-4-57 82-63 122-42 12 7 21 19 24 35" id="F"/><g id="e"><use transform="matrix(0.05,0,0,0.05,0,0)" xlink:href="#o"/><use transform="matrix(0.05,0,0,0.05,5,0)" xlink:href="#D"/><use transform="matrix(0.05,0,0,0.05,15,0)" xlink:href="#v"/><use transform="matrix(0.05,0,0,0.05,24,0)" xlink:href="#x"/><use transform="matrix(0.05,0,0,0.05,29.950000000000003,0)" xlink:href="#q"/><use transform="matrix(0.05,0,0,0.05,39.95,0)" xlink:href="#r"/><use transform="matrix(0.05,0,0,0.05,49.95,0)" xlink:href="#F"/><use transform="matrix(0.05,0,0,0.05,58.95,0)" xlink:href="#q"/><use transform="matrix(0.05,0,0,0.05,68.95,0)" xlink:href="#p"/></g><path d="M101-234c-31-9-42 10-38 44h38v23H63V0H32v-167H5v-23h27c-7-52 17-82 69-68v24" id="G"/><g id="f"><use transform="matrix(0.05,0,0,0.05,0,0)" xlink:href="#G"/><use transform="matrix(0.05,0,0,0.05,5,0)" xlink:href="#r"/><use transform="matrix(0.05,0,0,0.05,15,0)" xlink:href="#t"/><use transform="matrix(0.05,0,0,0.05,18.95,0)" xlink:href="#s"/><use transform="matrix(0.05,0,0,0.05,22.9,0)" xlink:href="#w"/><use transform="matrix(0.05,0,0,0.05,32.9,0)" xlink:href="#x"/><use transform="matrix(0.05,0,0,0.05,38.85,0)" xlink:href="#q"/></g><g id="g"><use transform="matrix(0.05,0,0,0.05,0,0)" xlink:href="#x"/><use transform="matrix(0.05,0,0,0.05,5.95,0)" xlink:href="#r"/><use transform="matrix(0.05,0,0,0.05,15.949999999999998,0)" xlink:href="#A"/><use transform="matrix(0.05,0,0,0.05,20.95,0)" xlink:href="#q"/></g><g id="h"><use transform="matrix(0.05,0,0,0.05,0,0)" xlink:href="#p"/><use transform="matrix(0.05,0,0,0.05,10,0)" xlink:href="#w"/><use transform="matrix(0.05,0,0,0.05,20,0)" xlink:href="#q"/></g><path d="M100-194c62-1 85 37 85 99 1 63-27 99-86 99S16-35 15-95c0-66 28-99 85-99zM99-20c44 1 53-31 53-75 0-43-8-75-51-75s-53 32-53 75 10 74 51 75" id="H"/><g id="i"><use transform="matrix(0.05,0,0,0.05,0,0)" xlink:href="#A"/><use transform="matrix(0.05,0,0,0.05,5,0)" xlink:href="#H"/></g><g id="j"><use transform="matrix(0.05,0,0,0.05,0,0)" xlink:href="#F"/><use transform="matrix(0.05,0,0,0.05,9,0)" xlink:href="#t"/><use transform="matrix(0.05,0,0,0.05,12.949999999999998,0)" xlink:href="#p"/><use transform="matrix(0.05,0,0,0.05,22.95,0)" xlink:href="#q"/></g><g id="k"><use transform="matrix(0.05,0,0,0.05,0,0)" xlink:href="#q"/><use transform="matrix(0.05,0,0,0.05,10,0)" xlink:href="#G"/><use transform="matrix(0.05,0,0,0.05,14.65,0)" xlink:href="#G"/><use transform="matrix(0.05,0,0,0.05,19.65,0)" xlink:href="#q"/><use transform="matrix(0.05,0,0,0.05,29.649999999999995,0)" xlink:href="#v"/><use transform="matrix(0.05,0,0,0.05,38.65,0)" xlink:href="#A"/><use transform="matrix(0.05,0,0,0.05,43.65,0)" xlink:href="#F"/></g><path d="M63-220v92h138v28H63V0H30v-248h175v28H63" id="I"/><g id="l"><use transform="matrix(0.05,0,0,0.05,0,0)" xlink:href="#I"/><use transform="matrix(0.05,0,0,0.05,10.950000000000001,0)" xlink:href="#r"/><use transform="matrix(0.05,0,0,0.05,20.950000000000003,0)" xlink:href="#t"/><use transform="matrix(0.05,0,0,0.05,24.900000000000002,0)" xlink:href="#s"/><use transform="matrix(0.05,0,0,0.05,28.85,0)" xlink:href="#w"/><use transform="matrix(0.05,0,0,0.05,38.85,0)" xlink:href="#x"/><use transform="matrix(0.05,0,0,0.05,44.800000000000004,0)" xlink:href="#q"/></g><path d="M233-177c-1 41-23 64-60 70L243 0h-38l-65-103H63V0H30v-248c88 3 205-21 203 71zM63-129c60-2 137 13 137-47 0-61-80-42-137-45v92" id="J"/><g id="m"><use transform="matrix(0.05,0,0,0.05,0,0)" xlink:href="#J"/><use transform="matrix(0.05,0,0,0.05,12.950000000000001,0)" xlink:href="#r"/><use transform="matrix(0.05,0,0,0.05,22.950000000000003,0)" xlink:href="#A"/><use transform="matrix(0.05,0,0,0.05,27.950000000000003,0)" xlink:href="#q"/></g><path d="M127-220V0H93v-220H8v-28h204v28h-85" id="K"/><path d="M210-169c-67 3-38 105-44 169h-31v-121c0-29-5-50-35-48C34-165 62-65 56 0H25l-1-190h30c1 10-1 24 2 32 10-44 99-50 107 0 11-21 27-35 58-36 85-2 47 119 55 194h-31v-121c0-29-5-49-35-48" id="L"/><g id="n"><use transform="matrix(0.05,0,0,0.05,0,0)" xlink:href="#K"/><use transform="matrix(0.05,0,0,0.05,10.3,0)" xlink:href="#t"/><use transform="matrix(0.05,0,0,0.05,14.25,0)" xlink:href="#L"/><use transform="matrix(0.05,0,0,0.05,29.200000000000003,0)" xlink:href="#q"/></g></defs></g></svg>