<svg xmlns="http://www.w3.org/2000/svg" xmlns:xlink="http://www.w3.org/1999/xlink" xmlns:lucid="lucid" width="1580" height="691"><g transform="translate(40 -220)" lucid:page-tab-id="8IN~4NQzsRxL"><path d="M-1696 0h3456v1360h-3456z" fill="#fff"/><path d="M110 250c0 5.52-4.48 10-10 10s-10-4.48-10-10 4.48-10 10-10 10 4.48 10 10z" stroke="#5e5e5e" stroke-width="3" fill="#fff"/><path d="M100 260v32.8c0 3.3 1.22 8.4 2.73 11.34L120 338m-20-39.2L80 338m0-68h40" stroke="#5e5e5e" stroke-width="3" fill="none"/><path d="M80 246c0-3.3 2.7-6 6-6h28c3.3 0 6 2.7 6 6v108c0 3.3-2.7 6-6 6H86c-3.3 0-6-2.7-6-6z" fill="none"/><use xlink:href="#a" transform="matrix(1,0,0,1,0,338) translate(74.16666666666667 17.77777777777778)"/><path d="M100 361v3m0 3.97v5.98m0 4v5.96m0 4v5.98m0 3.98v5.98m0 4v5.96m0 4v5.97m0 3.98v5.98m0 3.98v6m0 3.98v5.98m0 3.98v5.98m0 3.98v5.98m0 4v5.96m0 4v5.97m0 4v5.97m0 4v5.96m0 4v5.97m0 3.98v5.98m0 3.98v5.98m0 4v5.97m0 3.97v5.98m0 3.98v5.98m0 4v5.97m0 4v5.97m0 3.98v5.98m0 4v5.96m0 4v5.97m0 3.98v6m0 3.97v5.98m0 4v5.96m0 4v5.98m0 3.98v5.98m0 4v5.96m0 4v5.97m0 3.98v5.98m0 3.98v6m0 3.98v5.98m0 3.98v5.98m0 3.98v5.98m0 4v5.96m0 4v5.97m0 4v5.97m0 4v5.96m0 4v5.97m0 3.98v5.98m0 3.98v5.98m0 4v5.97m0 3.97v5.98m0 3.98v5.98m0 4v5.97m0 4v5.97m0 3.98v5.98m0 4v5.96m0 4v5.97m0 3.98v3M100 361.03V360M100 898.97V900" stroke="#5e5e5e" stroke-width="2" fill="none"/><path d="M400 286c0-3.3 2.7-6 6-6h148c3.3 0 6 2.7 6 6v38c0 3.3-2.7 6-6 6H406c-3.3 0-6-2.7-6-6z" stroke="#5e5e5e" stroke-width="3" fill="#fff"/><use xlink:href="#b" transform="matrix(1,0,0,1,400,280) translate(13.430925925925928 30.27777777777778)"/><path d="M480 332.5v2.98m0 3.98v5.96m0 3.98v5.96m0 3.97v5.97m0 3.97v5.97m0 3.97v5.97m0 3.98v5.96m0 4v5.95m0 3.98V415m0 3.97v5.96m0 3.97v5.97m0 3.97v5.97m0 3.98v5.96m0 3.98v5.96m0 3.98v5.96m0 3.98v5.96m0 3.98v5.96m0 3.97v5.97m0 3.97v5.98m0 3.97v5.96m0 4v5.95m0 3.98v5.96m0 3.97v5.96m0 3.98v5.97m0 3.97V574m0 3.98v5.97m0 3.97v5.97m0 3.96v5.96m0 3.98v5.96m0 3.98v5.96m0 3.98v5.96m0 3.97v5.98m0 3.97v5.97m0 3.97v5.96m0 3.97v5.96m0 3.97v5.96m0 3.98v5.97m0 3.98v5.96m0 4v5.95m0 3.97v5.97m0 3.96v5.97m0 3.97v5.96m0 3.98v5.96m0 3.98v5.96m0 3.98v5.96m0 3.98v5.96m0 3.97v5.96m0 3.97v5.97m0 3.97v5.96m0 3.98v5.97m0 3.98v5.96m0 4v5.95m0 3.98v5.96m0 3.96v5.97m0 3.97v5.97m0 3.97v5.96m0 3.98v5.96m0 3.98V899" stroke="#5e5e5e" stroke-width="2" fill="none"/><path d="M481 332.53h-2v-1.03h2z" fill="#5e5e5e"/><path d="M480 898.97V900" stroke="#5e5e5e" stroke-width="2" fill="none"/><path d="M814.5 286c0-3.3 2.7-6 6-6h148c3.3 0 6 2.7 6 6v38c0 3.3-2.7 6-6 6h-148c-3.3 0-6-2.7-6-6z" stroke="#5e5e5e" stroke-width="3" fill="#fff"/><use xlink:href="#c" transform="matrix(1,0,0,1,814.5,280) translate(46.14697530864198 30.27777777777778)"/><path d="M1360 286c0-3.3 2.7-6 6-6h148c3.3 0 6 2.7 6 6v38c0 3.3-2.7 6-6 6h-148c-3.3 0-6-2.7-6-6z" stroke="#5e5e5e" stroke-width="3" fill="#fff"/><use xlink:href="#d" transform="matrix(1,0,0,1,1360,280) translate(41.795123456790115 30.27777777777778)"/><path d="M894.5 332.5v2.98m0 3.98v5.96m0 3.98v5.96m0 3.97v5.97m0 3.97v5.97m0 3.97v5.97m0 3.98v5.96m0 4v5.95m0 3.98V415m0 3.97v5.96m0 3.97v5.97m0 3.97v5.97m0 3.98v5.96m0 3.98v5.96m0 3.98v5.96m0 3.98v5.96m0 3.98v5.96m0 3.97v5.97m0 3.97v5.98m0 3.97v5.96m0 4v5.95m0 3.98v5.96m0 3.97v5.96m0 3.98v5.97m0 3.97V574m0 3.98v5.97m0 3.97v5.97m0 3.96v5.96m0 3.98v5.96m0 3.98v5.96m0 3.98v5.96m0 3.97v5.98m0 3.97v5.97m0 3.97v5.96m0 3.97v5.96m0 3.97v5.96m0 3.98v5.97m0 3.98v5.96m0 4v5.95m0 3.97v5.97m0 3.96v5.97m0 3.97v5.96m0 3.98v5.96m0 3.98v5.96m0 3.98v5.96m0 3.98v5.96m0 3.97v5.96m0 3.97v5.97m0 3.97v5.96m0 3.98v5.97m0 3.98v5.96m0 4v5.95m0 3.98v5.96m0 3.96v5.97m0 3.97v5.97m0 3.97v5.96m0 3.98v5.96m0 3.98V899" stroke="#5e5e5e" stroke-width="2" fill="none"/><path d="M895.5 332.53h-2v-1.03h2z" fill="#5e5e5e"/><path d="M894.5 898.97V900M1440 332.5v2.98m0 3.98v5.96m0 3.98v5.96m0 3.97v5.97m0 3.97v5.97m0 3.97v5.97m0 3.98v5.96m0 4v5.95m0 3.98V415m0 3.97v5.96m0 3.97v5.97m0 3.97v5.97m0 3.98v5.96m0 3.98v5.96m0 3.98v5.96m0 3.98v5.96m0 3.98v5.96m0 3.97v5.97m0 3.97v5.98m0 3.97v5.96m0 4v5.95m0 3.98v5.96m0 3.97v5.96m0 3.98v5.97m0 3.97V574m0 3.98v5.97m0 3.97v5.97m0 3.96v5.96m0 3.98v5.96m0 3.98v5.96m0 3.98v5.96m0 3.97v5.98m0 3.97v5.97m0 3.97v5.96m0 3.97v5.96m0 3.97v5.96m0 3.98v5.97m0 3.98v5.96m0 4v5.95m0 3.97v5.97m0 3.96v5.97m0 3.97v5.96m0 3.98v5.96m0 3.98v5.96m0 3.98v5.96m0 3.98v5.96m0 3.97v5.96m0 3.97v5.97m0 3.97v5.96m0 3.98v5.97m0 3.98v5.96m0 4v5.95m0 3.98v5.96m0 3.96v5.97m0 3.97v5.97m0 3.97v5.96m0 3.98v5.96m0 3.98V899" stroke="#5e5e5e" stroke-width="2" fill="none"/><path d="M1441 332.53h-2v-1.03h2z" fill="#5e5e5e"/><path d="M1440 898.97V900" stroke="#5e5e5e" stroke-width="2" fill="none"/><path d="M460 406c0-3.3 2.7-6 6-6h28c3.3 0 6 2.7 6 6v468c0 3.3-2.7 6-6 6h-28c-3.3 0-6-2.7-6-6z" stroke="#5e5e5e" stroke-width="3" fill="#fff"/><path d="M440 417.33H101" stroke="#5e5e5e" stroke-width="2" fill="none"/><path d="M455.26 417.33L441 421.97v-9.27z" stroke="#5e5e5e" stroke-width="2" fill="#5e5e5e"/><path d="M101.03 417.33H100" stroke="#5e5e5e" stroke-width="2" fill="none"/><use xlink:href="#e" transform="matrix(1,0,0,1,207.16149382715898,392.00000000000017) translate(0 14.222222222222223)"/><path d="M457.5 477.33H101.05" stroke="#5e5e5e" stroke-width="2" fill="none"/><path d="M458.5 478.33h-1.03v-2h1.03z" fill="#5e5e5e"/><path d="M118.6 466.64l-18.1 10.7" stroke="#5e5e5e" stroke-width="2" fill="none"/><use xlink:href="#f" transform="matrix(1,0,0,1,199.62962962962962,451.99999999999994) translate(0 14.222222222222223)"/><use xlink:href="#g" transform="matrix(1,0,0,1,199.62962962962962,451.99999999999994) translate(43.35802469135803 14.222222222222223)"/><path d="M457.45 516H101M439.92 526.7L458 516M101.03 516H100" stroke="#5e5e5e" stroke-width="2" fill="none"/><use xlink:href="#h" transform="matrix(1,0,0,1,188.14814814814815,490.6666666666667) translate(0 14.222222222222223)"/><use xlink:href="#i" transform="matrix(1,0,0,1,188.14814814814815,490.6666666666667) translate(45.97530864197532 14.222222222222223)"/><use xlink:href="#j" transform="matrix(1,0,0,1,188.14814814814815,490.6666666666667) translate(109.97530864197533 14.222222222222223)"/><path d="M874.5 526c0-3.3 2.7-6 6-6h28c3.3 0 6 2.7 6 6v188c0 3.3-2.7 6-6 6h-28c-3.3 0-6-2.7-6-6z" stroke="#5e5e5e" stroke-width="3" fill="#fff"/><path d="M502.5 532h352" stroke="#5e5e5e" stroke-width="2" fill="none"/><path d="M502.53 533h-1.03v-2h1.03z" fill="#5e5e5e"/><path d="M869.76 532l-14.26 4.64v-9.28z" stroke="#5e5e5e" stroke-width="2" fill="#5e5e5e"/><use xlink:href="#k" transform="matrix(1,0,0,1,582.9043209876543,506.6666666666668) translate(0 14.222222222222223)"/><use xlink:href="#i" transform="matrix(1,0,0,1,582.9043209876543,506.6666666666668) translate(123.06172839506175 14.222222222222223)"/><use xlink:href="#l" transform="matrix(1,0,0,1,582.9043209876543,506.6666666666668) translate(187.06172839506178 14.222222222222223)"/><path d="M1234.5 546c0-3.3 2.7-6 6-6h148c3.3 0 6 2.7 6 6v68c0 3.3-2.7 6-6 6h-148c-3.3 0-6-2.7-6-6z" stroke="#5e5e5e" stroke-width="3" fill="#fff"/><use xlink:href="#m" transform="matrix(1,0,0,1,1234.5,540) translate(54.69635802469136 45.27777777777778)"/><path d="M1314.5 622.5v2.96m0 3.94v5.9m0 3.95v5.9m0 3.96v5.92m0 3.94v5.9m0 3.95v5.93m0 3.94v5.9m0 3.95v5.92m0 3.94v5.9m0 3.95v5.9m0 3.96v5.9m0 3.94v5.9m0 3.95v5.9m0 3.95v5.9m0 3.95v5.9m0 3.96v5.9m0 3.95v5.92m0 3.94v5.92m0 3.94v5.9m0 3.95v5.92m0 3.93v5.9m0 3.95v5.9m0 3.96v5.9m0 3.95v5.9m0 3.94V859" stroke="#5e5e5e" stroke-width="2" fill="none"/><path d="M1315.5 622.53h-2v-1.03h2z" fill="#5e5e5e"/><path d="M1314.5 858.97V860M917 573.33h297.5" stroke="#5e5e5e" stroke-width="2" fill="none"/><path d="M917.03 574.33H916v-2h1.03z" fill="#5e5e5e"/><path d="M1229.76 573.33l-14.26 4.64v-9.27z" stroke="#5e5e5e" stroke-width="2" fill="#5e5e5e"/><use xlink:href="#n" transform="matrix(1,0,0,1,985.9074074074074,547.9999999999999) translate(0 14.222222222222223)"/><use xlink:href="#i" transform="matrix(1,0,0,1,985.9074074074074,547.9999999999999) translate(91.55555555555557 14.222222222222223)"/><use xlink:href="#l" transform="matrix(1,0,0,1,985.9074074074074,547.9999999999999) translate(155.5555555555556 14.222222222222223)"/><path d="M1232 607.56h-2.97m-3.97 0h-5.95m-3.96 0h-5.95m-3.97 0h-5.95m-3.97 0h-5.94m-3.97 0h-5.96m-3.96 0h-5.95m-3.97 0h-5.95m-3.96 0h-5.95m-3.97 0h-5.95m-3.97 0h-5.94m-3.97 0h-5.96m-3.96 0h-5.95m-3.97 0h-5.95m-3.96 0h-5.95m-3.97 0h-5.95m-3.97 0h-5.94m-3.97 0h-5.96m-3.96 0h-5.95m-3.97 0h-5.95m-3.96 0h-5.95m-3.97 0h-5.95m-3.97 0h-5.94m-3.97 0h-5.96m-3.96 0h-5.95m-3.97 0h-5.95m-3.96 0h-5.95m-3.97 0h-5.95m-3.97 0h-5.94m-3.97 0h-5.96m-3.96 0h-2.98" stroke="#5e5e5e" stroke-width="2" fill="none"/><path d="M1233 608.56h-1.03v-2h1.03z" fill="#5e5e5e"/><path d="M919.24 607.56l14.26-4.64v9.27z" stroke="#5e5e5e" stroke-width="2" fill="#5e5e5e"/><use xlink:href="#o" transform="matrix(1,0,0,1,1053.3395061728395,582.2222222222223) translate(0 14.222222222222223)"/><path d="M917 660h483" stroke="#5e5e5e" stroke-width="2" fill="none"/><path d="M917.03 661H916v-2h1.03z" fill="#5e5e5e"/><path d="M1415.26 660l-14.26 4.64v-9.28z" stroke="#5e5e5e" stroke-width="2" fill="#5e5e5e"/><use xlink:href="#p" transform="matrix(1,0,0,1,1049.817901234568,634.6666666666666) translate(0 14.222222222222223)"/><use xlink:href="#q" transform="matrix(1,0,0,1,1049.817901234568,634.6666666666666) translate(72.88888888888889 14.222222222222223)"/><use xlink:href="#r" transform="matrix(1,0,0,1,1049.817901234568,634.6666666666666) translate(88.19753086419753 14.222222222222223)"/><path d="M872 692h-3.08m-4.1 0h-6.16m-4.1 0h-6.17m-4.1 0h-6.17m-4.1 0h-6.16m-4.1 0h-6.17m-4.1 0h-6.16m-4.1 0h-6.17m-4.1 0h-6.16m-4.1 0h-6.15m-4.1 0h-6.17m-4.1 0h-6.16m-4.1 0h-6.17m-4.1 0h-6.16m-4.12 0h-6.15m-4.1 0h-6.17m-4.1 0h-6.16m-4.1 0h-6.17m-4.1 0h-6.03m-3.94 0h-5.9m-3.93 0h-5.9m-3.94 0h-5.92m-3.93 0h-5.9m-3.94 0h-5.9m-3.93 0h-5.9m-3.94 0h-5.9m-3.93 0h-5.9m-3.94 0h-5.9m-3.94 0h-5.9m-3.94 0h-5.9m-3.94 0h-5.9m-3.93 0h-5.9m-3.93 0h-5.9m-3.94 0h-5.9m-3.94 0h-5.9m-3.95 0H520" stroke="#5e5e5e" stroke-width="2" fill="none"/><path d="M873 693h-1.03v-2H873z" fill="#5e5e5e"/><path d="M504.74 692l14.26-4.64v9.28z" stroke="#5e5e5e" stroke-width="2" fill="#5e5e5e"/><use xlink:href="#o" transform="matrix(1,0,0,1,666.0895061728395,666.6666666666667) translate(0 14.222222222222223)"/><path d="M457.5 730.67H101.05" stroke="#5e5e5e" stroke-width="2" fill="none"/><path d="M458.5 731.67h-1.03v-2h1.03z" fill="#5e5e5e"/><path d="M118.58 719.98l-18.07 10.7" stroke="#5e5e5e" stroke-width="2" fill="none"/><use xlink:href="#s" transform="matrix(1,0,0,1,233.18518518518516,705.3333333333334) translate(0 14.222222222222223)"/><path d="M457.5 772H101.05" stroke="#5e5e5e" stroke-width="2" fill="none"/><path d="M458.5 773h-1.03v-2h1.03z" fill="#5e5e5e"/><path d="M118.58 761.3L100.5 772" stroke="#5e5e5e" stroke-width="2" fill="none"/><use xlink:href="#t" transform="matrix(1,0,0,1,172.64197530864197,746.6666666666667) translate(0 14.222222222222223)"/><use xlink:href="#u" transform="matrix(1,0,0,1,172.64197530864197,746.6666666666667) translate(39.358024691358025 14.222222222222223)"/><use xlink:href="#v" transform="matrix(1,0,0,1,172.64197530864197,746.6666666666667) translate(87.70370370370371 14.222222222222223)"/><path d="M457.45 808H101M439.92 818.7L458 808M101.03 808H100" stroke="#5e5e5e" stroke-width="2" fill="none"/><g><use xlink:href="#w" transform="matrix(1,0,0,1,227.7540864197524,782.6666666666669) translate(0 14.222222222222223)"/></g><path d="M1420 646c0-3.3 2.7-6 6-6h28c3.3 0 6 2.7 6 6v28c0 3.3-2.7 6-6 6h-28c-3.3 0-6-2.7-6-6z" stroke="#5e5e5e" stroke-width="3" fill="#fff"/><path d="M-20 446c0-3.3 2.7-6 6-6h88c3.3 0 6 2.7 6 6v8c0 3.3-1.9 7.9-4.24 10.24l-1.52 1.52C71.9 468.1 67.3 470 64 470h-78c-3.3 0-6-2.7-6-6z" fill="#fff"/><path d="M80 440v20l-10 10h-90" stroke="#5e5e5e" stroke-width="3" fill="none"/><path d="M-20 446c0-3.3 2.7-6 6-6h1528c3.3 0 6 2.7 6 6v414c0 3.3-2.7 6-6 6H-14c-3.3 0-6-2.7-6-6z" stroke="#5e5e5e" stroke-width="3" fill="none"/><g><use xlink:href="#x" transform="matrix(1,0,0,1,-12,440) translate(0 19.444444444444443)"/></g><defs><path fill="#333" d="M212-179c-10-28-35-45-73-45-59 0-87 40-87 99 0 60 29 101 89 101 43 0 62-24 78-52l27 14C228-24 195 4 139 4 59 4 22-46 18-125c-6-104 99-153 187-111 19 9 31 26 39 46" id="y"/><path fill="#333" d="M24 0v-261h32V0H24" id="z"/><path fill="#333" d="M100-194c63 0 86 42 84 106H49c0 40 14 67 53 68 26 1 43-12 49-29l28 8c-11 28-37 45-77 45C44 4 14-33 15-96c1-61 26-98 85-98zm52 81c6-60-76-77-97-28-3 7-6 17-6 28h103" id="A"/><path fill="#333" d="M114-163C36-179 61-72 57 0H25l-1-190h30c1 12-1 29 2 39 6-27 23-49 58-41v29" id="B"/><path fill="#333" d="M143 0L79-87 56-68V0H24v-261h32v163l83-92h37l-77 82L181 0h-38" id="C"/><g id="a"><use transform="matrix(0.06172839506172839,0,0,0.06172839506172839,0,0)" xlink:href="#y"/><use transform="matrix(0.06172839506172839,0,0,0.06172839506172839,15.987654320987653,0)" xlink:href="#z"/><use transform="matrix(0.06172839506172839,0,0,0.06172839506172839,20.864197530864196,0)" xlink:href="#A"/><use transform="matrix(0.06172839506172839,0,0,0.06172839506172839,33.20987654320987,0)" xlink:href="#B"/><use transform="matrix(0.06172839506172839,0,0,0.06172839506172839,40.55555555555555,0)" xlink:href="#C"/></g><path fill="#333" d="M232-93c-1 65-40 97-104 97C67 4 28-28 28-90v-158h33c8 89-33 224 67 224 102 0 64-133 71-224h33v155" id="D"/><path fill="#333" d="M135-143c-3-34-86-38-87 0 15 53 115 12 119 90S17 21 10-45l28-5c4 36 97 45 98 0-10-56-113-15-118-90-4-57 82-63 122-42 12 7 21 19 24 35" id="E"/><path fill="#333" d="M33 0v-248h34V0H33" id="F"/><path fill="#333" d="M117-194c89-4 53 116 60 194h-32v-121c0-31-8-49-39-48C34-167 62-67 57 0H25l-1-190h30c1 10-1 24 2 32 11-22 29-35 61-36" id="G"/><path fill="#333" d="M59-47c-2 24 18 29 38 22v24C64 9 27 4 27-40v-127H5v-23h24l9-43h21v43h35v23H59v120" id="H"/><path fill="#333" d="M101-234c-31-9-42 10-38 44h38v23H63V0H32v-167H5v-23h27c-7-52 17-82 69-68v24" id="I"/><path fill="#333" d="M141-36C126-15 110 5 73 4 37 3 15-17 15-53c-1-64 63-63 125-63 3-35-9-54-41-54-24 1-41 7-42 31l-33-3c5-37 33-52 76-52 45 0 72 20 72 64v82c-1 20 7 32 28 27v20c-31 9-61-2-59-35zM48-53c0 20 12 33 32 33 41-3 63-29 60-74-43 2-92-5-92 41" id="J"/><path fill="#333" d="M96-169c-40 0-48 33-48 73s9 75 48 75c24 0 41-14 43-38l32 2c-6 37-31 61-74 61-59 0-76-41-82-99-10-93 101-131 147-64 4 7 5 14 7 22l-32 3c-4-21-16-35-41-35" id="K"/><g id="b"><use transform="matrix(0.06172839506172839,0,0,0.06172839506172839,0,0)" xlink:href="#D"/><use transform="matrix(0.06172839506172839,0,0,0.06172839506172839,15.987654320987653,0)" xlink:href="#E"/><use transform="matrix(0.06172839506172839,0,0,0.06172839506172839,27.098765432098766,0)" xlink:href="#A"/><use transform="matrix(0.06172839506172839,0,0,0.06172839506172839,39.44444444444444,0)" xlink:href="#B"/><use transform="matrix(0.06172839506172839,0,0,0.06172839506172839,46.79012345679012,0)" xlink:href="#F"/><use transform="matrix(0.06172839506172839,0,0,0.06172839506172839,52.96296296296296,0)" xlink:href="#G"/><use transform="matrix(0.06172839506172839,0,0,0.06172839506172839,65.30864197530865,0)" xlink:href="#H"/><use transform="matrix(0.06172839506172839,0,0,0.06172839506172839,71.48148148148148,0)" xlink:href="#A"/><use transform="matrix(0.06172839506172839,0,0,0.06172839506172839,83.82716049382717,0)" xlink:href="#B"/><use transform="matrix(0.06172839506172839,0,0,0.06172839506172839,91.17283950617285,0)" xlink:href="#I"/><use transform="matrix(0.06172839506172839,0,0,0.06172839506172839,97.34567901234568,0)" xlink:href="#J"/><use transform="matrix(0.06172839506172839,0,0,0.06172839506172839,109.69135802469137,0)" xlink:href="#K"/><use transform="matrix(0.06172839506172839,0,0,0.06172839506172839,120.80246913580248,0)" xlink:href="#A"/></g><path fill="#333" d="M30 0v-248h33v221h125V0H30" id="L"/><path fill="#333" d="M24-231v-30h32v30H24zM24 0v-190h32V0H24" id="M"/><path fill="#333" d="M115-194c53 0 69 39 70 98 0 66-23 100-70 100C84 3 66-7 56-30L54 0H23l1-261h32v101c10-23 28-34 59-34zm-8 174c40 0 45-34 45-75 0-40-5-75-45-74-42 0-51 32-51 76 0 43 10 73 51 73" id="N"/><path fill="#333" d="M179-190L93 31C79 59 56 82 12 73V49c39 6 53-20 64-50L1-190h34L92-34l54-156h33" id="O"/><g id="c"><use transform="matrix(0.06172839506172839,0,0,0.06172839506172839,0,0)" xlink:href="#L"/><use transform="matrix(0.06172839506172839,0,0,0.06172839506172839,12.345679012345679,0)" xlink:href="#M"/><use transform="matrix(0.06172839506172839,0,0,0.06172839506172839,17.22222222222222,0)" xlink:href="#N"/><use transform="matrix(0.06172839506172839,0,0,0.06172839506172839,29.5679012345679,0)" xlink:href="#B"/><use transform="matrix(0.06172839506172839,0,0,0.06172839506172839,36.913580246913575,0)" xlink:href="#J"/><use transform="matrix(0.06172839506172839,0,0,0.06172839506172839,49.25925925925925,0)" xlink:href="#B"/><use transform="matrix(0.06172839506172839,0,0,0.06172839506172839,56.60493827160493,0)" xlink:href="#O"/></g><path fill="#333" d="M100-194c62-1 85 37 85 99 1 63-27 99-86 99S16-35 15-95c0-66 28-99 85-99zM99-20c44 1 53-31 53-75 0-43-8-75-51-75s-53 32-53 75 10 74 51 75" id="P"/><path fill="#333" d="M177-190C167-65 218 103 67 71c-23-6-38-20-44-43l32-5c15 47 100 32 89-28v-30C133-14 115 1 83 1 29 1 15-40 15-95c0-56 16-97 71-98 29-1 48 16 59 35 1-10 0-23 2-32h30zM94-22c36 0 50-32 50-73 0-42-14-75-50-75-39 0-46 34-46 75s6 73 46 73" id="Q"/><g id="d"><use transform="matrix(0.06172839506172839,0,0,0.06172839506172839,0,0)" xlink:href="#y"/><use transform="matrix(0.06172839506172839,0,0,0.06172839506172839,15.987654320987653,0)" xlink:href="#J"/><use transform="matrix(0.06172839506172839,0,0,0.06172839506172839,28.333333333333332,0)" xlink:href="#H"/><use transform="matrix(0.06172839506172839,0,0,0.06172839506172839,34.50617283950617,0)" xlink:href="#J"/><use transform="matrix(0.06172839506172839,0,0,0.06172839506172839,46.85185185185185,0)" xlink:href="#z"/><use transform="matrix(0.06172839506172839,0,0,0.06172839506172839,51.72839506172839,0)" xlink:href="#P"/><use transform="matrix(0.06172839506172839,0,0,0.06172839506172839,64.07407407407408,0)" xlink:href="#Q"/></g><path fill="#333" d="M199 0l-22-63H83L61 0H9l90-248h61L250 0h-51zm-33-102l-36-108c-10 38-24 72-36 108h72" id="R"/><path fill="#333" d="M88-194c31-1 46 15 58 34l-1-101h50l1 261h-48c-2-10 0-23-3-31C134-8 116 4 84 4 32 4 16-41 15-95c0-56 19-97 73-99zm17 164c33 0 40-30 41-66 1-37-9-64-41-64s-38 30-39 65c0 43 13 65 39 65" id="S"/><path fill="#333" d="M182-130c37 4 62 22 62 59C244 23 116-4 24 0v-248c84 5 203-23 205 63 0 31-19 50-47 55zM76-148c40-3 101 13 101-30 0-44-60-28-101-31v61zm0 110c48-3 116 14 116-37 0-48-69-32-116-35v72" id="T"/><path fill="#333" d="M110-194c64 0 96 36 96 99 0 64-35 99-97 99-61 0-95-36-95-99 0-62 34-99 96-99zm-1 164c35 0 45-28 45-65 0-40-10-65-43-65-34 0-45 26-45 65 0 36 10 65 43 65" id="U"/><path fill="#333" d="M147 0L96-86 75-71V0H25v-261h50v150l67-79h53l-66 74L201 0h-54" id="V"/><path fill="#333" d="M137-138c1-29-70-34-71-4 15 46 118 7 119 86 1 83-164 76-172 9l43-7c4 19 20 25 44 25 33 8 57-30 24-41C81-84 22-81 20-136c-2-80 154-74 161-7" id="W"/><path fill="#333" d="M67-93c0 74 22 123 53 168H70C40 30 18-18 18-93s22-123 52-168h50c-32 44-53 94-53 168" id="X"/><path fill="#333" d="M102-93c0 74-22 123-52 168H0C30 29 54-18 53-93c0-74-22-123-53-168h50c30 45 52 94 52 168" id="Y"/><g id="e"><use transform="matrix(0.04938271604938272,0,0,0.04938271604938272,0,0)" xlink:href="#R"/><use transform="matrix(0.04938271604938272,0,0,0.04938271604938272,12.790123456790125,0)" xlink:href="#S"/><use transform="matrix(0.04938271604938272,0,0,0.04938271604938272,23.60493827160494,0)" xlink:href="#S"/><use transform="matrix(0.04938271604938272,0,0,0.04938271604938272,34.41975308641975,0)" xlink:href="#T"/><use transform="matrix(0.04938271604938272,0,0,0.04938271604938272,47.20987654320988,0)" xlink:href="#U"/><use transform="matrix(0.04938271604938272,0,0,0.04938271604938272,58.0246913580247,0)" xlink:href="#U"/><use transform="matrix(0.04938271604938272,0,0,0.04938271604938272,68.8395061728395,0)" xlink:href="#V"/><use transform="matrix(0.04938271604938272,0,0,0.04938271604938272,78.71604938271605,0)" xlink:href="#W"/><use transform="matrix(0.04938271604938272,0,0,0.04938271604938272,88.5925925925926,0)" xlink:href="#X"/><use transform="matrix(0.04938271604938272,0,0,0.04938271604938272,94.46913580246914,0)" xlink:href="#Y"/></g><path fill="#333" d="M24-248c120-7 223 5 221 122C244-46 201 0 124 0H24v-248zM76-40c74 7 117-18 117-86 0-67-45-88-117-82v168" id="Z"/><path fill="#333" d="M133-34C117-15 103 5 69 4 32 3 11-16 11-54c-1-60 55-63 116-61 1-26-3-47-28-47-18 1-26 9-28 27l-52-2c7-38 36-58 82-57s74 22 75 68l1 82c-1 14 12 18 25 15v27c-30 8-71 5-69-32zm-48 3c29 0 43-24 42-57-32 0-66-3-65 30 0 17 8 27 23 27" id="aa"/><path fill="#333" d="M115-3C79 11 28 4 28-45v-112H4v-33h27l15-45h31v45h36v33H77v99c-1 23 16 31 38 25v30" id="ab"/><g id="f"><use transform="matrix(0.04938271604938272,0,0,0.04938271604938272,0,0)" xlink:href="#Z"/><use transform="matrix(0.04938271604938272,0,0,0.04938271604938272,12.790123456790125,0)" xlink:href="#aa"/><use transform="matrix(0.04938271604938272,0,0,0.04938271604938272,22.66666666666667,0)" xlink:href="#ab"/><use transform="matrix(0.04938271604938272,0,0,0.04938271604938272,28.54320987654322,0)" xlink:href="#aa"/></g><path fill="#333" d="M135-150c-39-12-60 13-60 57V0H25l-1-190h47c2 13-1 29 3 40 6-28 27-53 61-41v41" id="ac"/><path fill="#333" d="M185-48c-13 30-37 53-82 52C43 2 14-33 14-96s30-98 90-98c62 0 83 45 84 108H66c0 31 8 55 39 56 18 0 30-7 34-22zm-45-69c5-46-57-63-70-21-2 6-4 13-4 21h74" id="ad"/><path fill="#333" d="M84 4C32 4 15-41 15-95c0-55 18-99 73-99 29 0 47 12 58 34l2-30h48l-1 265h-49V-32C136-9 114 4 84 4zm21-34c32 0 41-29 41-66 0-36-9-64-40-64-33 0-39 30-40 65 0 43 13 65 39 65" id="ae"/><path fill="#333" d="M85 4C-2 5 27-109 22-190h50c7 57-23 150 33 157 60-5 35-97 40-157h50l1 190h-47c-2-12 1-28-3-38-12 25-28 42-61 42" id="af"/><g id="g"><use transform="matrix(0.04938271604938272,0,0,0.04938271604938272,0,0)" xlink:href="#ac"/><use transform="matrix(0.04938271604938272,0,0,0.04938271604938272,6.913580246913581,0)" xlink:href="#ad"/><use transform="matrix(0.04938271604938272,0,0,0.04938271604938272,16.790123456790127,0)" xlink:href="#ae"/><use transform="matrix(0.04938271604938272,0,0,0.04938271604938272,27.604938271604947,0)" xlink:href="#af"/><use transform="matrix(0.04938271604938272,0,0,0.04938271604938272,38.41975308641976,0)" xlink:href="#ad"/><use transform="matrix(0.04938271604938272,0,0,0.04938271604938272,48.296296296296305,0)" xlink:href="#W"/><use transform="matrix(0.04938271604938272,0,0,0.04938271604938272,58.17283950617284,0)" xlink:href="#ab"/></g><path fill="#333" d="M136-208V0H84v-208H4v-40h212v40h-80" id="ag"/><path fill="#333" d="M25-224v-37h50v37H25zM25 0v-190h50V0H25" id="ah"/><path fill="#333" d="M25 0v-261h50V0H25" id="ai"/><path fill="#333" d="M76-54c-1 42 2 86-19 110H24C36 42 46 24 48 0H25v-54h51" id="aj"/><g id="h"><use transform="matrix(0.04938271604938272,0,0,0.04938271604938272,0,0)" xlink:href="#ag"/><use transform="matrix(0.04938271604938272,0,0,0.04938271604938272,10.469135802469136,0)" xlink:href="#ah"/><use transform="matrix(0.04938271604938272,0,0,0.04938271604938272,15.407407407407408,0)" xlink:href="#ab"/><use transform="matrix(0.04938271604938272,0,0,0.04938271604938272,21.283950617283953,0)" xlink:href="#ai"/><use transform="matrix(0.04938271604938272,0,0,0.04938271604938272,26.222222222222225,0)" xlink:href="#ad"/><use transform="matrix(0.04938271604938272,0,0,0.04938271604938272,36.09876543209877,0)" xlink:href="#aj"/></g><path fill="#333" d="M114-157C55-157 80-60 75 0H25v-261h50l-1 109c12-26 28-41 61-42 86-1 58 113 63 194h-50c-7-57 23-157-34-157" id="ak"/><g id="i"><use transform="matrix(0.04938271604938272,0,0,0.04938271604938272,0,0)" xlink:href="#aa"/><use transform="matrix(0.04938271604938272,0,0,0.04938271604938272,9.876543209876544,0)" xlink:href="#af"/><use transform="matrix(0.04938271604938272,0,0,0.04938271604938272,20.69135802469136,0)" xlink:href="#ab"/><use transform="matrix(0.04938271604938272,0,0,0.04938271604938272,26.567901234567902,0)" xlink:href="#ak"/><use transform="matrix(0.04938271604938272,0,0,0.04938271604938272,37.38271604938272,0)" xlink:href="#U"/><use transform="matrix(0.04938271604938272,0,0,0.04938271604938272,48.19753086419754,0)" xlink:href="#ac"/><use transform="matrix(0.04938271604938272,0,0,0.04938271604938272,54.12345679012347,0)" xlink:href="#aj"/></g><path fill="#333" d="M24 0v-248h52V0H24" id="al"/><g id="j"><use transform="matrix(0.04938271604938272,0,0,0.04938271604938272,0,0)" xlink:href="#al"/><use transform="matrix(0.04938271604938272,0,0,0.04938271604938272,4.938271604938272,0)" xlink:href="#Z"/></g><g id="k"><use transform="matrix(0.04938271604938272,0,0,0.04938271604938272,0,0)" xlink:href="#aa"/><use transform="matrix(0.04938271604938272,0,0,0.04938271604938272,9.876543209876544,0)" xlink:href="#S"/><use transform="matrix(0.04938271604938272,0,0,0.04938271604938272,20.69135802469136,0)" xlink:href="#S"/><use transform="matrix(0.04938271604938272,0,0,0.04938271604938272,31.506172839506174,0)" xlink:href="#T"/><use transform="matrix(0.04938271604938272,0,0,0.04938271604938272,44.296296296296305,0)" xlink:href="#U"/><use transform="matrix(0.04938271604938272,0,0,0.04938271604938272,55.111111111111114,0)" xlink:href="#U"/><use transform="matrix(0.04938271604938272,0,0,0.04938271604938272,65.92592592592594,0)" xlink:href="#V"/><use transform="matrix(0.04938271604938272,0,0,0.04938271604938272,75.80246913580248,0)" xlink:href="#X"/><use transform="matrix(0.04938271604938272,0,0,0.04938271604938272,81.67901234567903,0)" xlink:href="#ab"/><use transform="matrix(0.04938271604938272,0,0,0.04938271604938272,87.55555555555557,0)" xlink:href="#ah"/><use transform="matrix(0.04938271604938272,0,0,0.04938271604938272,92.49382716049385,0)" xlink:href="#ab"/><use transform="matrix(0.04938271604938272,0,0,0.04938271604938272,98.3703703703704,0)" xlink:href="#ai"/><use transform="matrix(0.04938271604938272,0,0,0.04938271604938272,103.30864197530865,0)" xlink:href="#ad"/><use transform="matrix(0.04938271604938272,0,0,0.04938271604938272,113.18518518518519,0)" xlink:href="#aj"/></g><g id="l"><use transform="matrix(0.04938271604938272,0,0,0.04938271604938272,0,0)" xlink:href="#ah"/><use transform="matrix(0.04938271604938272,0,0,0.04938271604938272,4.938271604938272,0)" xlink:href="#S"/><use transform="matrix(0.04938271604938272,0,0,0.04938271604938272,15.753086419753087,0)" xlink:href="#Y"/></g><path fill="#333" d="M160-131c35 5 61 23 61 61C221 17 115-2 30 0v-248c76 3 177-17 177 60 0 33-19 50-47 57zm-97-11c50-1 110 9 110-42 0-47-63-36-110-37v79zm0 115c55-2 124 14 124-45 0-56-70-42-124-44v89" id="am"/><g id="m"><use transform="matrix(0.06172839506172839,0,0,0.06172839506172839,0,0)" xlink:href="#am"/><use transform="matrix(0.06172839506172839,0,0,0.06172839506172839,14.814814814814813,0)" xlink:href="#P"/><use transform="matrix(0.06172839506172839,0,0,0.06172839506172839,27.160493827160494,0)" xlink:href="#P"/><use transform="matrix(0.06172839506172839,0,0,0.06172839506172839,39.50617283950617,0)" xlink:href="#C"/></g><g id="n"><use transform="matrix(0.04938271604938272,0,0,0.04938271604938272,0,0)" xlink:href="#T"/><use transform="matrix(0.04938271604938272,0,0,0.04938271604938272,12.790123456790125,0)" xlink:href="#U"/><use transform="matrix(0.04938271604938272,0,0,0.04938271604938272,23.60493827160494,0)" xlink:href="#U"/><use transform="matrix(0.04938271604938272,0,0,0.04938271604938272,34.41975308641975,0)" xlink:href="#V"/><use transform="matrix(0.04938271604938272,0,0,0.04938271604938272,44.2962962962963,0)" xlink:href="#X"/><use transform="matrix(0.04938271604938272,0,0,0.04938271604938272,50.17283950617284,0)" xlink:href="#ab"/><use transform="matrix(0.04938271604938272,0,0,0.04938271604938272,56.04938271604939,0)" xlink:href="#ah"/><use transform="matrix(0.04938271604938272,0,0,0.04938271604938272,60.98765432098766,0)" xlink:href="#ab"/><use transform="matrix(0.04938271604938272,0,0,0.04938271604938272,66.8641975308642,0)" xlink:href="#ai"/><use transform="matrix(0.04938271604938272,0,0,0.04938271604938272,71.80246913580248,0)" xlink:href="#ad"/><use transform="matrix(0.04938271604938272,0,0,0.04938271604938272,81.67901234567903,0)" xlink:href="#aj"/></g><path fill="#333" d="M135-194c52 0 70 43 70 98 0 56-19 99-73 100-30 1-46-15-58-35L72 0H24l1-261h50v104c11-23 29-37 60-37zM114-30c31 0 40-27 40-66 0-37-7-63-39-63s-41 28-41 65c0 36 8 64 40 64" id="an"/><g id="o"><use transform="matrix(0.04938271604938272,0,0,0.04938271604938272,0,0)" xlink:href="#an"/><use transform="matrix(0.04938271604938272,0,0,0.04938271604938272,10.814814814814815,0)" xlink:href="#U"/><use transform="matrix(0.04938271604938272,0,0,0.04938271604938272,21.62962962962963,0)" xlink:href="#U"/><use transform="matrix(0.04938271604938272,0,0,0.04938271604938272,32.44444444444444,0)" xlink:href="#V"/></g><path fill="#333" d="M135-194c87-1 58 113 63 194h-50c-7-57 23-157-34-157-59 0-34 97-39 157H25l-1-190h47c2 12-1 28 3 38 12-26 28-41 61-42" id="ao"/><g id="p"><use transform="matrix(0.04938271604938272,0,0,0.04938271604938272,0,0)" xlink:href="#an"/><use transform="matrix(0.04938271604938272,0,0,0.04938271604938272,10.814814814814815,0)" xlink:href="#U"/><use transform="matrix(0.04938271604938272,0,0,0.04938271604938272,21.62962962962963,0)" xlink:href="#U"/><use transform="matrix(0.04938271604938272,0,0,0.04938271604938272,32.44444444444444,0)" xlink:href="#ai"/><use transform="matrix(0.04938271604938272,0,0,0.04938271604938272,37.382716049382715,0)" xlink:href="#ad"/><use transform="matrix(0.04938271604938272,0,0,0.04938271604938272,47.25925925925926,0)" xlink:href="#aa"/><use transform="matrix(0.04938271604938272,0,0,0.04938271604938272,57.135802469135804,0)" xlink:href="#ao"/></g><path fill="#333" d="M15-148v-39h180v39H15zm0 97v-39h180v39H15" id="ap"/><use transform="matrix(0.04938271604938272,0,0,0.04938271604938272,0,0)" xlink:href="#ap" id="q"/><g id="r"><use transform="matrix(0.04938271604938272,0,0,0.04938271604938272,0,0)" xlink:href="#ah"/><use transform="matrix(0.04938271604938272,0,0,0.04938271604938272,4.938271604938272,0)" xlink:href="#ao"/><use transform="matrix(0.04938271604938272,0,0,0.04938271604938272,15.753086419753087,0)" xlink:href="#W"/><use transform="matrix(0.04938271604938272,0,0,0.04938271604938272,25.629629629629633,0)" xlink:href="#ad"/><use transform="matrix(0.04938271604938272,0,0,0.04938271604938272,35.50617283950618,0)" xlink:href="#ac"/><use transform="matrix(0.04938271604938272,0,0,0.04938271604938272,42.41975308641976,0)" xlink:href="#ab"/><use transform="matrix(0.04938271604938272,0,0,0.04938271604938272,48.296296296296305,0)" xlink:href="#T"/><use transform="matrix(0.04938271604938272,0,0,0.04938271604938272,61.08641975308644,0)" xlink:href="#U"/><use transform="matrix(0.04938271604938272,0,0,0.04938271604938272,71.90123456790124,0)" xlink:href="#U"/><use transform="matrix(0.04938271604938272,0,0,0.04938271604938272,82.71604938271605,0)" xlink:href="#V"/><use transform="matrix(0.04938271604938272,0,0,0.04938271604938272,92.5925925925926,0)" xlink:href="#X"/><use transform="matrix(0.04938271604938272,0,0,0.04938271604938272,98.46913580246914,0)" xlink:href="#an"/><use transform="matrix(0.04938271604938272,0,0,0.04938271604938272,109.28395061728396,0)" xlink:href="#U"/><use transform="matrix(0.04938271604938272,0,0,0.04938271604938272,120.09876543209876,0)" xlink:href="#U"/><use transform="matrix(0.04938271604938272,0,0,0.04938271604938272,130.91358024691357,0)" xlink:href="#V"/><use transform="matrix(0.04938271604938272,0,0,0.04938271604938272,140.79012345679013,0)" xlink:href="#Y"/></g><g id="s"><use transform="matrix(0.04938271604938272,0,0,0.04938271604938272,0,0)" xlink:href="#ac"/><use transform="matrix(0.04938271604938272,0,0,0.04938271604938272,6.913580246913581,0)" xlink:href="#ad"/><use transform="matrix(0.04938271604938272,0,0,0.04938271604938272,16.790123456790127,0)" xlink:href="#W"/><use transform="matrix(0.04938271604938272,0,0,0.04938271604938272,26.666666666666668,0)" xlink:href="#af"/><use transform="matrix(0.04938271604938272,0,0,0.04938271604938272,37.48148148148149,0)" xlink:href="#ai"/><use transform="matrix(0.04938271604938272,0,0,0.04938271604938272,42.41975308641976,0)" xlink:href="#ab"/></g><g id="t"><use transform="matrix(0.04938271604938272,0,0,0.04938271604938272,0,0)" xlink:href="#R"/><use transform="matrix(0.04938271604938272,0,0,0.04938271604938272,12.790123456790125,0)" xlink:href="#S"/><use transform="matrix(0.04938271604938272,0,0,0.04938271604938272,23.60493827160494,0)" xlink:href="#S"/></g><path fill="#333" d="M220-157c-53 9-28 100-34 157h-49v-107c1-27-5-49-29-50C55-147 81-57 75 0H25l-1-190h47c2 12-1 28 3 38 10-53 101-56 108 0 13-22 24-43 59-42 82 1 51 116 57 194h-49v-107c-1-25-5-48-29-50" id="aq"/><g id="u"><use transform="matrix(0.04938271604938272,0,0,0.04938271604938272,0,0)" xlink:href="#aq"/><use transform="matrix(0.04938271604938272,0,0,0.04938271604938272,15.80246913580247,0)" xlink:href="#U"/><use transform="matrix(0.04938271604938272,0,0,0.04938271604938272,26.617283950617285,0)" xlink:href="#ac"/><use transform="matrix(0.04938271604938272,0,0,0.04938271604938272,33.53086419753087,0)" xlink:href="#ad"/></g><path fill="#333" d="M110-251c83-7 118 89 53 130-17 10-36 21-38 46H78c2-56 65-53 71-103 2-21-15-35-38-34-25 1-41 14-44 38l-50-2c6-48 39-70 93-75zM77 0v-47h51V0H77" id="ar"/><g id="v"><use transform="matrix(0.04938271604938272,0,0,0.04938271604938272,0,0)" xlink:href="#an"/><use transform="matrix(0.04938271604938272,0,0,0.04938271604938272,10.814814814814815,0)" xlink:href="#U"/><use transform="matrix(0.04938271604938272,0,0,0.04938271604938272,21.62962962962963,0)" xlink:href="#U"/><use transform="matrix(0.04938271604938272,0,0,0.04938271604938272,32.44444444444444,0)" xlink:href="#V"/><use transform="matrix(0.04938271604938272,0,0,0.04938271604938272,42.32098765432099,0)" xlink:href="#W"/><use transform="matrix(0.04938271604938272,0,0,0.04938271604938272,52.19753086419754,0)" xlink:href="#ar"/></g><path fill="#333" d="M146-102V0H94v-102L6-248h54l60 105 60-105h54" id="as"/><path fill="#333" d="M4 7l51-268h42L46 7H4" id="at"/><path fill="#333" d="M175 0L67-191c6 58 2 128 3 191H24v-248h59L193-55c-6-58-2-129-3-193h46V0h-61" id="au"/><g id="w"><use transform="matrix(0.04938271604938272,0,0,0.04938271604938272,0,0)" xlink:href="#as"/><use transform="matrix(0.04938271604938272,0,0,0.04938271604938272,10.864197530864198,0)" xlink:href="#ad"/><use transform="matrix(0.04938271604938272,0,0,0.04938271604938272,20.74074074074074,0)" xlink:href="#W"/><use transform="matrix(0.04938271604938272,0,0,0.04938271604938272,30.617283950617285,0)" xlink:href="#at"/><use transform="matrix(0.04938271604938272,0,0,0.04938271604938272,35.55555555555556,0)" xlink:href="#au"/><use transform="matrix(0.04938271604938272,0,0,0.04938271604938272,48.345679012345684,0)" xlink:href="#U"/></g><path fill="#333" d="M115-194c55 1 70 41 70 98S169 2 115 4C84 4 66-9 55-30l1 105H24l-1-265h31l2 30c10-21 28-34 59-34zm-8 174c40 0 45-34 45-75s-6-73-45-74c-42 0-51 32-51 76 0 43 10 73 51 73" id="av"/><g id="x"><use transform="matrix(0.06172839506172839,0,0,0.06172839506172839,0,0)" xlink:href="#L"/><use transform="matrix(0.06172839506172839,0,0,0.06172839506172839,12.345679012345679,0)" xlink:href="#P"/><use transform="matrix(0.06172839506172839,0,0,0.06172839506172839,24.691358024691358,0)" xlink:href="#P"/><use transform="matrix(0.06172839506172839,0,0,0.06172839506172839,37.03703703703704,0)" xlink:href="#av"/></g></defs></g></svg>