<svg xmlns="http://www.w3.org/2000/svg" xmlns:xlink="http://www.w3.org/1999/xlink" xmlns:lucid="lucid" width="1175" height="801"><g transform="translate(-100 -20)" lucid:page-tab-id="0_0"><path d="M0 0h1760v1360H0z" fill="#fff"/><path d="M120 206c0-3.3 2.7-6 6-6h148c3.3 0 6 2.7 6 6v48c0 3.3-2.7 6-6 6H126c-3.3 0-6-2.7-6-6z" stroke="#5e5e5e" stroke-width="3" fill="#fff"/><use xlink:href="#a" transform="matrix(1,0,0,1,128,208) translate(14.098765432098766 26.444444444444443)"/><path d="M120 326c0-3.3 2.7-6 6-6h148c3.3 0 6 2.7 6 6v48c0 3.3-2.7 6-6 6H126c-3.3 0-6-2.7-6-6z" stroke="#5e5e5e" stroke-width="3" fill="#fff"/><use xlink:href="#b" transform="matrix(1,0,0,1,128,328) translate(31.351851851851855 26.444444444444443)"/><path d="M620 46c0-3.3 2.7-6 6-6h148c3.3 0 6 2.7 6 6v48c0 3.3-2.7 6-6 6H626c-3.3 0-6-2.7-6-6z" stroke="#5e5e5e" stroke-width="3" fill="#fff"/><use xlink:href="#c" transform="matrix(1,0,0,1,628,48) translate(38.14197530864198 26.444444444444443)"/><path d="M980 206c0-3.3 2.7-6 6-6h148c3.3 0 6 2.7 6 6v48c0 3.3-2.7 6-6 6H986c-3.3 0-6-2.7-6-6z" stroke="#5e5e5e" stroke-width="3" fill="#fff"/><use xlink:href="#d" transform="matrix(1,0,0,1,988,208) translate(33.79012345679012 26.444444444444443)"/><path d="M782.5 70H1054c3.3 0 6 2.7 6 6v121.5" stroke="#5e5e5e" stroke-width="2" fill="none"/><path d="M782.53 71h-1.03v-2h1.03zM1061 198.5h-2v-1.03h2z" fill="#5e5e5e"/><use xlink:href="#e" transform="matrix(1,0,0,1,785.9836990497696,74.00000000000001) translate(0 14.4)"/><use xlink:href="#e" transform="matrix(1,0,0,1,1068,177.7) translate(0 14.4)"/><use xlink:href="#f" transform="matrix(1,0,0,1,879.925925925926,44.66666666666667) translate(0 14.222222222222223)"/><path d="M617.5 70H206c-3.3 0-6 2.7-6 6v121.5" stroke="#5e5e5e" stroke-width="2" fill="none"/><path d="M618.5 71h-1.03v-2h1.03zM201 198.5h-2v-1.03h2z" fill="#5e5e5e"/><use xlink:href="#e" transform="matrix(1,0,0,1,602.3808508308049,44.400000000000006) translate(0 14.4)"/><use xlink:href="#e" transform="matrix(1,0,0,1,208.00000000000003,172.8028482189647) translate(0 14.4)"/><use xlink:href="#f" transform="matrix(1,0,0,1,339.9259259259259,44.66666666666667) translate(0 14.222222222222223)"/><path d="M158.67 262.5v55" stroke="#5e5e5e" stroke-width="2" fill="none"/><path d="M159.67 262.53h-2v-1.03h2zM159.67 318.5h-2v-1.03h2z" fill="#5e5e5e"/><use xlink:href="#e" transform="matrix(1,0,0,1,166.66666666666663,264.44168804361703) translate(0 14.4)"/><use xlink:href="#g" transform="matrix(1,0,0,1,143.66666666666663,297.77621549405836) translate(0 14.4)"/><path d="M400 446c0-3.3 2.7-6 6-6h208c3.3 0 6 2.7 6 6v116c0 3.3-2.7 6-6 6H406c-3.3 0-6-2.7-6-6z" stroke="#5e5e5e" stroke-width="3" fill="#fff"/><path d="M400 482.67h220m-220 42.66h220" stroke="#5e5e5e" stroke-width="3" fill="none"/><use xlink:href="#h" transform="matrix(1,0,0,1,408,448) translate(79.22222222222223 17.944444444444443)"/><use xlink:href="#i" transform="matrix(1,0,0,1,412,490.6666666666667) translate(0 17.944444444444443)"/><use xlink:href="#j" transform="matrix(1,0,0,1,412,490.6666666666667) translate(62.901234567901234 17.944444444444443)"/><use xlink:href="#k" transform="matrix(1,0,0,1,412,490.6666666666667) translate(75.24691358024691 17.944444444444443)"/><path d="M865 346c0-3.3 2.7-6 6-6h378c3.3 0 6 2.7 6 6v116c0 3.3-2.7 6-6 6H871c-3.3 0-6-2.7-6-6z" stroke="#5e5e5e" stroke-width="3" fill="#fff"/><path d="M865 382.67h390m-390 42.66h390" stroke="#5e5e5e" stroke-width="3" fill="none"/><use xlink:href="#l" transform="matrix(1,0,0,1,873,348) translate(161.69135802469137 17.944444444444443)"/><use xlink:href="#m" transform="matrix(1,0,0,1,877,390.6666666666667) translate(0 17.944444444444443)"/><use xlink:href="#j" transform="matrix(1,0,0,1,877,390.6666666666667) translate(103.58024691358024 17.944444444444443)"/><use xlink:href="#k" transform="matrix(1,0,0,1,877,390.6666666666667) translate(115.92592592592592 17.944444444444443)"/><path d="M925 626c0-3.3 2.7-6 6-6h258c3.3 0 6 2.7 6 6v169c0 3.3-2.7 6-6 6H931c-3.3 0-6-2.7-6-6z" stroke="#5e5e5e" stroke-width="3" fill="#fff"/><path d="M925 662.67h270m-270 96h270" stroke="#5e5e5e" stroke-width="3" fill="none"/><use xlink:href="#n" transform="matrix(1,0,0,1,933,628) translate(69.46913580246914 17.944444444444443)"/><use xlink:href="#o" transform="matrix(1,0,0,1,937,670.6666666666666) translate(0 17.77777777777778)"/><use xlink:href="#p" transform="matrix(1,0,0,1,937,670.6666666666666) translate(19.1358024691358 17.77777777777778)"/><use xlink:href="#j" transform="matrix(1,0,0,1,937,670.6666666666666) translate(67.28395061728395 17.77777777777778)"/><use xlink:href="#q" transform="matrix(1,0,0,1,937,670.6666666666666) translate(79.62962962962963 17.77777777777778)"/><use xlink:href="#r" transform="matrix(1,0,0,1,937,670.6666666666666) translate(0 44.44444444444444)"/><use xlink:href="#s" transform="matrix(1,0,0,1,937,670.6666666666666) translate(19.1358024691358 44.44444444444444)"/><use xlink:href="#j" transform="matrix(1,0,0,1,937,670.6666666666666) translate(65.92592592592592 44.44444444444444)"/><use xlink:href="#q" transform="matrix(1,0,0,1,937,670.6666666666666) translate(78.27160493827161 44.44444444444444)"/><use xlink:href="#r" transform="matrix(1,0,0,1,937,670.6666666666666) translate(0 71.11111111111111)"/><use xlink:href="#t" transform="matrix(1,0,0,1,937,670.6666666666666) translate(19.1358024691358 71.11111111111111)"/><use xlink:href="#j" transform="matrix(1,0,0,1,937,670.6666666666666) translate(68.51851851851852 71.11111111111111)"/><use xlink:href="#k" transform="matrix(1,0,0,1,937,670.6666666666666) translate(80.8641975308642 71.11111111111111)"/><path d="M155.67 704.37l.7 2.64 1.8 1.8 2.63.7h761.7v2H160.53l-3.4-.92-2.54-2.53-.93-3.42V382.5h2z" fill="#5e5e5e"/><path d="M155.67 382.53h-2v-1.03h2zM923.5 711.5h-1.03v-2h1.03z" fill="#5e5e5e"/><use xlink:href="#e" transform="matrix(1,0,0,1,136.66666666666663,389.0895296813218) translate(0 14.4)"/><use xlink:href="#g" transform="matrix(1,0,0,1,907.1666666666666,684.9000000000001) translate(0 14.4)"/><path d="M244 382.5V498c0 3.3 2.7 6 6 6h147.5" stroke="#5e5e5e" stroke-width="2" fill="none"/><path d="M245 382.53h-2v-1.03h2zM398.5 505h-1.03v-2h1.03z" fill="#5e5e5e"/><use xlink:href="#e" transform="matrix(1,0,0,1,226,386.1843560093721) translate(0 14.4)"/><use xlink:href="#g" transform="matrix(1,0,0,1,383.1666666666667,478.3999999999999) translate(0 14.4)"/><path d="M510 437.5V410c0-3.3 2.7-6 6-6h346.5" stroke="#5e5e5e" stroke-width="2" fill="none"/><path d="M511 438.5h-2v-1.03h2zM863.5 405h-1.03v-2h1.03z" fill="#5e5e5e"/><use xlink:href="#g" transform="matrix(1,0,0,1,518,417.7) translate(0 14.4)"/><use xlink:href="#e" transform="matrix(1,0,0,1,841.6666666666667,378.4) translate(0 14.4)"/><path d="M938.67 337.5v-53c0-3.3-2.7-6-6-6H251.33c-3.3 0-6 2.7-6 6v33" stroke="#5e5e5e" stroke-width="2" fill="none"/><path d="M939.67 338.5h-2v-1.03h2zM246.33 318.5h-2v-1.03h2z" fill="#5e5e5e"/><use xlink:href="#u" transform="matrix(1,0,0,1,555.679012345679,253.1666666666667) translate(0 14.222222222222223)"/><use xlink:href="#v" transform="matrix(1,0,0,1,555.679012345679,253.1666666666667) translate(65.13580246913581 14.222222222222223)"/><use xlink:href="#g" transform="matrix(1,0,0,1,946.6666666666666,317.7) translate(0 14.4)"/><use xlink:href="#e" transform="matrix(1,0,0,1,253.33333333333331,296.59863773584175) translate(0 14.4)"/><path d="M1060 262.5v75" stroke="#5e5e5e" stroke-width="2" fill="none"/><path d="M1061 262.53h-2v-1.03h2zM1061 338.5h-2v-1.03h2z" fill="#5e5e5e"/><use xlink:href="#e" transform="matrix(1,0,0,1,1042,266.9185939446525) translate(0 14.4)"/><use xlink:href="#g" transform="matrix(1,0,0,1,1068,317.7) translate(0 14.4)"/><path d="M971.67 617.5h-2v-2.9h2zm0-6.75h-2v-5.8h2zm0-9.64h-2v-5.78h2zm0-9.64h-2v-5.78h2zm0-9.64h-2v-5.78h2zm0-9.64h-2v-5.8h2zm0-9.64h-2v-5.8h2zm0-12.67v3.02h-2v-2.77l-.7-2.57 1.93-.52zm-4.04-6.1l-.53 1.93-2.57-.7h-3.16v-2h3.43zM956.97 545h-6.6v-2h6.6zm-11 0h-6.6v-2h6.6zm-11 0h-6.6v-2h6.6zm-14.17-2h3.17v2h-3.44l-2.82-.76.53-1.94zm-4.44-2.56l-1.93.52-.62-2.3h2.08zm-.7-23.1h-2v-1.25h2zm0-5.06h-2v-5.72h2zm0-9.53h-2v-5.7h2zm0-9.52h-2v-5.72h2zm0-9.53h-2V478h2zm0-9.52h-2v-2.86h2z" fill="#5e5e5e"/><path d="M971.67 618.5h-2v-1.03h2zM925.7 488.17l-1.7 1.02-9.33-15.77-9.32 15.76-1.72-1.03 11.04-18.67z" fill="#5e5e5e"/><g><use xlink:href="#w" transform="matrix(1,0,0,1,887.037037037037,517.3333333333334) translate(0 14.222222222222223)"/></g><path d="M1015.67 617.5h-2v-2.92h2zm0-6.82h-2v-5.85h2zm0-9.75h-2v-5.84h2zm0-9.74h-2v-5.86h2zm0-9.76h-2v-5.85h2zm0-9.74h-2v-5.85h2zm0-29.24h-2v-5.85h2zm0-9.75h-2v-5.83h2zm0-9.73h-2v-5.85h2zm0-9.75h-2v-5.84h2zm0-9.74h-2v-5.85h2zm0-9.75h-2v-5.84h2zm0-9.74h-2v-5.86h2zm0-9.76h-2v-2.92h2z" fill="#5e5e5e"/><path d="M1015.67 618.5h-2v-1.03h2zM1025.7 488.17l-1.7 1.02-9.33-15.77-9.32 15.76-1.72-1.03 11.04-18.67z" fill="#5e5e5e"/><g><use xlink:href="#x" transform="matrix(1,0,0,1,984.1234567901234,544) translate(0 14.222222222222223)"/></g><path d="M1107.67 617.5h-2v-2.92h2zm0-6.82h-2v-5.85h2zm0-9.75h-2v-5.84h2zm0-9.74h-2v-5.86h2zm0-9.76h-2v-5.85h2zm0-9.74h-2v-5.85h2zm0-9.75h-2v-5.85h2zm0-9.74h-2v-5.84h2zm0-9.74h-2v-5.85h2zm0-29.24h-2v-5.84h2zm0-9.74h-2v-5.85h2zm0-9.75h-2v-5.84h2zm0-9.74h-2v-5.86h2zm0-9.76h-2v-2.92h2z" fill="#5e5e5e"/><path d="M1107.67 618.5h-2v-1.03h2zM1117.7 488.17l-1.7 1.02-9.33-15.77-9.32 15.76-1.72-1.03 11.04-18.67z" fill="#5e5e5e"/><g><use xlink:href="#y" transform="matrix(1,0,0,1,1057.8765432098767,513.3333333333334) translate(0 14.222222222222223)"/><use xlink:href="#z" transform="matrix(1,0,0,1,1057.8765432098767,513.3333333333334) translate(60.19753086419754 14.222222222222223)"/></g><path d="M1158.33 617.5h-2v-2.9h2zm0-6.75h-2v-5.8h2zm0-9.64h-2v-5.78h2zm.7-53.54l-.48 1.77h-2.07l.62-2.3zm7.5-2.56h-3.06l-2.57.7-.53-1.94 2.83-.76h3.33zm10.67 0h-6.4v-2h6.4zm10.67 0h-6.4v-2h6.4zm10.42-.76l-2.83.76h-3.34v-2h3.07l2.57-.7zm4.03-6.1l-.76 2.82-1.93-.52.7-2.57v-2.73h2zm0-6.8h-2v-5.72h2zm0-9.53h-2v-5.7h2zm0-9.52h-2v-5.72h2zm0-9.53h-2v-5.7h2zm0-9.52h-2v-5.72h2zm0-9.53h-2V478h2zm0-9.52h-2v-2.86h2z" fill="#5e5e5e"/><path d="M1158.33 618.5h-2v-1.03h2zM1212.37 488.17l-1.72 1.02-9.32-15.77-9.32 15.76-1.7-1.03 11.03-18.67z" fill="#5e5e5e"/><g><use xlink:href="#A" transform="matrix(1,0,0,1,1120.8148148148148,549.3333333333333) translate(0.005000000000002558 14.222222222222223)"/><use xlink:href="#B" transform="matrix(1,0,0,1,1120.8148148148148,549.3333333333333) translate(17.832160493827164 35.55555555555556)"/></g><defs><path fill="#333" d="M240 0l2-218c-23 76-54 145-80 218h-23L58-218 59 0H30v-248h44l77 211c21-75 51-140 76-211h43V0h-30" id="C"/><path fill="#333" d="M100-194c63 0 86 42 84 106H49c0 40 14 67 53 68 26 1 43-12 49-29l28 8c-11 28-37 45-77 45C44 4 14-33 15-96c1-61 26-98 85-98zm52 81c6-60-76-77-97-28-3 7-6 17-6 28h103" id="D"/><path fill="#333" d="M210-169c-67 3-38 105-44 169h-31v-121c0-29-5-50-35-48C34-165 62-65 56 0H25l-1-190h30c1 10-1 24 2 32 10-44 99-50 107 0 11-21 27-35 58-36 85-2 47 119 55 194h-31v-121c0-29-5-49-35-48" id="E"/><path fill="#333" d="M115-194c53 0 69 39 70 98 0 66-23 100-70 100C84 3 66-7 56-30L54 0H23l1-261h32v101c10-23 28-34 59-34zm-8 174c40 0 45-34 45-75 0-40-5-75-45-74-42 0-51 32-51 76 0 43 10 73 51 73" id="F"/><path fill="#333" d="M114-163C36-179 61-72 57 0H25l-1-190h30c1 12-1 29 2 39 6-27 23-49 58-41v29" id="G"/><path fill="#333" d="M30 0v-248h33v221h125V0H30" id="H"/><path fill="#333" d="M24-231v-30h32v30H24zM24 0v-190h32V0H24" id="I"/><path fill="#333" d="M135-143c-3-34-86-38-87 0 15 53 115 12 119 90S17 21 10-45l28-5c4 36 97 45 98 0-10-56-113-15-118-90-4-57 82-63 122-42 12 7 21 19 24 35" id="J"/><path fill="#333" d="M59-47c-2 24 18 29 38 22v24C64 9 27 4 27-40v-127H5v-23h24l9-43h21v43h35v23H59v120" id="K"/><g id="a"><use transform="matrix(0.06172839506172839,0,0,0.06172839506172839,0,0)" xlink:href="#C"/><use transform="matrix(0.06172839506172839,0,0,0.06172839506172839,18.456790123456788,0)" xlink:href="#D"/><use transform="matrix(0.06172839506172839,0,0,0.06172839506172839,30.80246913580247,0)" xlink:href="#E"/><use transform="matrix(0.06172839506172839,0,0,0.06172839506172839,49.25925925925925,0)" xlink:href="#F"/><use transform="matrix(0.06172839506172839,0,0,0.06172839506172839,61.60493827160493,0)" xlink:href="#D"/><use transform="matrix(0.06172839506172839,0,0,0.06172839506172839,73.9506172839506,0)" xlink:href="#G"/><use transform="matrix(0.06172839506172839,0,0,0.06172839506172839,81.29629629629629,0)" xlink:href="#H"/><use transform="matrix(0.06172839506172839,0,0,0.06172839506172839,93.64197530864197,0)" xlink:href="#I"/><use transform="matrix(0.06172839506172839,0,0,0.06172839506172839,98.51851851851852,0)" xlink:href="#J"/><use transform="matrix(0.06172839506172839,0,0,0.06172839506172839,109.62962962962963,0)" xlink:href="#K"/></g><g id="b"><use transform="matrix(0.06172839506172839,0,0,0.06172839506172839,0,0)" xlink:href="#C"/><use transform="matrix(0.06172839506172839,0,0,0.06172839506172839,18.456790123456788,0)" xlink:href="#D"/><use transform="matrix(0.06172839506172839,0,0,0.06172839506172839,30.80246913580247,0)" xlink:href="#E"/><use transform="matrix(0.06172839506172839,0,0,0.06172839506172839,49.25925925925925,0)" xlink:href="#F"/><use transform="matrix(0.06172839506172839,0,0,0.06172839506172839,61.60493827160493,0)" xlink:href="#D"/><use transform="matrix(0.06172839506172839,0,0,0.06172839506172839,73.9506172839506,0)" xlink:href="#G"/></g><path fill="#333" d="M141-36C126-15 110 5 73 4 37 3 15-17 15-53c-1-64 63-63 125-63 3-35-9-54-41-54-24 1-41 7-42 31l-33-3c5-37 33-52 76-52 45 0 72 20 72 64v82c-1 20 7 32 28 27v20c-31 9-61-2-59-35zM48-53c0 20 12 33 32 33 41-3 63-29 60-74-43 2-92-5-92 41" id="L"/><path fill="#333" d="M179-190L93 31C79 59 56 82 12 73V49c39 6 53-20 64-50L1-190h34L92-34l54-156h33" id="M"/><g id="c"><use transform="matrix(0.06172839506172839,0,0,0.06172839506172839,0,0)" xlink:href="#H"/><use transform="matrix(0.06172839506172839,0,0,0.06172839506172839,12.345679012345679,0)" xlink:href="#I"/><use transform="matrix(0.06172839506172839,0,0,0.06172839506172839,17.22222222222222,0)" xlink:href="#F"/><use transform="matrix(0.06172839506172839,0,0,0.06172839506172839,29.5679012345679,0)" xlink:href="#G"/><use transform="matrix(0.06172839506172839,0,0,0.06172839506172839,36.913580246913575,0)" xlink:href="#L"/><use transform="matrix(0.06172839506172839,0,0,0.06172839506172839,49.25925925925925,0)" xlink:href="#G"/><use transform="matrix(0.06172839506172839,0,0,0.06172839506172839,56.60493827160493,0)" xlink:href="#M"/></g><path fill="#333" d="M212-179c-10-28-35-45-73-45-59 0-87 40-87 99 0 60 29 101 89 101 43 0 62-24 78-52l27 14C228-24 195 4 139 4 59 4 22-46 18-125c-6-104 99-153 187-111 19 9 31 26 39 46" id="N"/><path fill="#333" d="M24 0v-261h32V0H24" id="O"/><path fill="#333" d="M100-194c62-1 85 37 85 99 1 63-27 99-86 99S16-35 15-95c0-66 28-99 85-99zM99-20c44 1 53-31 53-75 0-43-8-75-51-75s-53 32-53 75 10 74 51 75" id="P"/><path fill="#333" d="M177-190C167-65 218 103 67 71c-23-6-38-20-44-43l32-5c15 47 100 32 89-28v-30C133-14 115 1 83 1 29 1 15-40 15-95c0-56 16-97 71-98 29-1 48 16 59 35 1-10 0-23 2-32h30zM94-22c36 0 50-32 50-73 0-42-14-75-50-75-39 0-46 34-46 75s6 73 46 73" id="Q"/><g id="d"><use transform="matrix(0.06172839506172839,0,0,0.06172839506172839,0,0)" xlink:href="#N"/><use transform="matrix(0.06172839506172839,0,0,0.06172839506172839,15.987654320987653,0)" xlink:href="#L"/><use transform="matrix(0.06172839506172839,0,0,0.06172839506172839,28.333333333333332,0)" xlink:href="#K"/><use transform="matrix(0.06172839506172839,0,0,0.06172839506172839,34.50617283950617,0)" xlink:href="#L"/><use transform="matrix(0.06172839506172839,0,0,0.06172839506172839,46.85185185185185,0)" xlink:href="#O"/><use transform="matrix(0.06172839506172839,0,0,0.06172839506172839,51.72839506172839,0)" xlink:href="#P"/><use transform="matrix(0.06172839506172839,0,0,0.06172839506172839,64.07407407407408,0)" xlink:href="#Q"/></g><path d="M27 0v-27h64v-190l-56 39v-29l58-41h29v221h61V0H27" id="R"/><use transform="matrix(0.05,0,0,0.05,0,0)" xlink:href="#R" id="e"/><path fill="#333" d="M220-157c-53 9-28 100-34 157h-49v-107c1-27-5-49-29-50C55-147 81-57 75 0H25l-1-190h47c2 12-1 28 3 38 10-53 101-56 108 0 13-22 24-43 59-42 82 1 51 116 57 194h-49v-107c-1-25-5-48-29-50" id="S"/><path fill="#333" d="M133-34C117-15 103 5 69 4 32 3 11-16 11-54c-1-60 55-63 116-61 1-26-3-47-28-47-18 1-26 9-28 27l-52-2c7-38 36-58 82-57s74 22 75 68l1 82c-1 14 12 18 25 15v27c-30 8-71 5-69-32zm-48 3c29 0 43-24 42-57-32 0-66-3-65 30 0 17 8 27 23 27" id="T"/><path fill="#333" d="M25-224v-37h50v37H25zM25 0v-190h50V0H25" id="U"/><path fill="#333" d="M135-194c87-1 58 113 63 194h-50c-7-57 23-157-34-157-59 0-34 97-39 157H25l-1-190h47c2 12-1 28 3 38 12-26 28-41 61-42" id="V"/><path fill="#333" d="M115-3C79 11 28 4 28-45v-112H4v-33h27l15-45h31v45h36v33H77v99c-1 23 16 31 38 25v30" id="W"/><path fill="#333" d="M137-138c1-29-70-34-71-4 15 46 118 7 119 86 1 83-164 76-172 9l43-7c4 19 20 25 44 25 33 8 57-30 24-41C81-84 22-81 20-136c-2-80 154-74 161-7" id="X"/><g id="f"><use transform="matrix(0.04938271604938272,0,0,0.04938271604938272,0,0)" xlink:href="#S"/><use transform="matrix(0.04938271604938272,0,0,0.04938271604938272,15.80246913580247,0)" xlink:href="#T"/><use transform="matrix(0.04938271604938272,0,0,0.04938271604938272,25.679012345679016,0)" xlink:href="#U"/><use transform="matrix(0.04938271604938272,0,0,0.04938271604938272,30.617283950617285,0)" xlink:href="#V"/><use transform="matrix(0.04938271604938272,0,0,0.04938271604938272,41.4320987654321,0)" xlink:href="#W"/><use transform="matrix(0.04938271604938272,0,0,0.04938271604938272,47.308641975308646,0)" xlink:href="#T"/><use transform="matrix(0.04938271604938272,0,0,0.04938271604938272,57.18518518518519,0)" xlink:href="#U"/><use transform="matrix(0.04938271604938272,0,0,0.04938271604938272,62.12345679012346,0)" xlink:href="#V"/><use transform="matrix(0.04938271604938272,0,0,0.04938271604938272,72.93827160493828,0)" xlink:href="#X"/></g><path d="M80-196l47-18 7 23-49 13 32 44-20 13-27-46-27 45-21-12 33-44-49-13 8-23 47 19-2-53h23" id="Y"/><use transform="matrix(0.05,0,0,0.05,0,0)" xlink:href="#Y" id="g"/><path fill="#333" d="M197 0v-115H63V0H30v-248h33v105h134v-105h34V0h-34" id="Z"/><path fill="#333" d="M85-194c31 0 48 13 60 33l-1-100h32l1 261h-30c-2-10 0-23-3-31C134-8 116 4 85 4 32 4 16-35 15-94c0-66 23-100 70-100zm9 24c-40 0-46 34-46 75 0 40 6 74 45 74 42 0 51-32 51-76 0-42-9-74-50-73" id="aa"/><g id="h"><use transform="matrix(0.06172839506172839,0,0,0.06172839506172839,0,0)" xlink:href="#Z"/><use transform="matrix(0.06172839506172839,0,0,0.06172839506172839,15.987654320987653,0)" xlink:href="#P"/><use transform="matrix(0.06172839506172839,0,0,0.06172839506172839,28.333333333333332,0)" xlink:href="#O"/><use transform="matrix(0.06172839506172839,0,0,0.06172839506172839,33.20987654320987,0)" xlink:href="#aa"/></g><path fill="#333" d="M16-82v-28h88v28H16" id="ab"/><g id="i"><use transform="matrix(0.06172839506172839,0,0,0.06172839506172839,0,0)" xlink:href="#ab"/><use transform="matrix(0.06172839506172839,0,0,0.06172839506172839,13.518518518518519,0)" xlink:href="#aa"/><use transform="matrix(0.06172839506172839,0,0,0.06172839506172839,25.864197530864196,0)" xlink:href="#L"/><use transform="matrix(0.06172839506172839,0,0,0.06172839506172839,38.20987654320987,0)" xlink:href="#K"/><use transform="matrix(0.06172839506172839,0,0,0.06172839506172839,44.382716049382715,0)" xlink:href="#D"/></g><path fill="#333" d="M33-154v-36h34v36H33zM33 0v-36h34V0H33" id="ac"/><use transform="matrix(0.06172839506172839,0,0,0.06172839506172839,0,0)" xlink:href="#ac" id="j"/><path fill="#333" d="M30-248c118-7 216 8 213 122C240-48 200 0 122 0H30v-248zM63-27c89 8 146-16 146-99s-60-101-146-95v194" id="ad"/><g id="k"><use transform="matrix(0.06172839506172839,0,0,0.06172839506172839,0,0)" xlink:href="#ad"/><use transform="matrix(0.06172839506172839,0,0,0.06172839506172839,15.987654320987653,0)" xlink:href="#L"/><use transform="matrix(0.06172839506172839,0,0,0.06172839506172839,28.333333333333332,0)" xlink:href="#K"/><use transform="matrix(0.06172839506172839,0,0,0.06172839506172839,34.50617283950617,0)" xlink:href="#D"/></g><path fill="#333" d="M160-131c35 5 61 23 61 61C221 17 115-2 30 0v-248c76 3 177-17 177 60 0 33-19 50-47 57zm-97-11c50-1 110 9 110-42 0-47-63-36-110-37v79zm0 115c55-2 124 14 124-45 0-56-70-42-124-44v89" id="ae"/><path fill="#333" d="M143 0L79-87 56-68V0H24v-261h32v163l83-92h37l-77 82L181 0h-38" id="af"/><g id="l"><use transform="matrix(0.06172839506172839,0,0,0.06172839506172839,0,0)" xlink:href="#ae"/><use transform="matrix(0.06172839506172839,0,0,0.06172839506172839,14.814814814814813,0)" xlink:href="#P"/><use transform="matrix(0.06172839506172839,0,0,0.06172839506172839,27.160493827160494,0)" xlink:href="#P"/><use transform="matrix(0.06172839506172839,0,0,0.06172839506172839,39.50617283950617,0)" xlink:href="#af"/></g><path fill="#333" d="M84 4C-5 8 30-112 23-190h32v120c0 31 7 50 39 49 72-2 45-101 50-169h31l1 190h-30c-1-10 1-25-2-33-11 22-28 36-60 37" id="ag"/><g id="m"><use transform="matrix(0.06172839506172839,0,0,0.06172839506172839,0,0)" xlink:href="#ab"/><use transform="matrix(0.06172839506172839,0,0,0.06172839506172839,13.518518518518519,0)" xlink:href="#aa"/><use transform="matrix(0.06172839506172839,0,0,0.06172839506172839,25.864197530864196,0)" xlink:href="#ag"/><use transform="matrix(0.06172839506172839,0,0,0.06172839506172839,38.20987654320987,0)" xlink:href="#D"/><use transform="matrix(0.06172839506172839,0,0,0.06172839506172839,50.55555555555555,0)" xlink:href="#ad"/><use transform="matrix(0.06172839506172839,0,0,0.06172839506172839,66.5432098765432,0)" xlink:href="#L"/><use transform="matrix(0.06172839506172839,0,0,0.06172839506172839,78.88888888888889,0)" xlink:href="#K"/><use transform="matrix(0.06172839506172839,0,0,0.06172839506172839,85.06172839506172,0)" xlink:href="#D"/></g><path fill="#333" d="M127-220V0H93v-220H8v-28h204v28h-85" id="ah"/><path fill="#333" d="M117-194c89-4 53 116 60 194h-32v-121c0-31-8-49-39-48C34-167 62-67 57 0H25l-1-190h30c1 10-1 24 2 32 11-22 29-35 61-36" id="ai"/><path fill="#333" d="M96-169c-40 0-48 33-48 73s9 75 48 75c24 0 41-14 43-38l32 2c-6 37-31 61-74 61-59 0-76-41-82-99-10-93 101-131 147-64 4 7 5 14 7 22l-32 3c-4-21-16-35-41-35" id="aj"/><g id="n"><use transform="matrix(0.06172839506172839,0,0,0.06172839506172839,0,0)" xlink:href="#ah"/><use transform="matrix(0.06172839506172839,0,0,0.06172839506172839,12.716049382716047,0)" xlink:href="#G"/><use transform="matrix(0.06172839506172839,0,0,0.06172839506172839,20.061728395061728,0)" xlink:href="#L"/><use transform="matrix(0.06172839506172839,0,0,0.06172839506172839,32.407407407407405,0)" xlink:href="#ai"/><use transform="matrix(0.06172839506172839,0,0,0.06172839506172839,44.75308641975308,0)" xlink:href="#J"/><use transform="matrix(0.06172839506172839,0,0,0.06172839506172839,55.86419753086419,0)" xlink:href="#L"/><use transform="matrix(0.06172839506172839,0,0,0.06172839506172839,68.20987654320987,0)" xlink:href="#aj"/><use transform="matrix(0.06172839506172839,0,0,0.06172839506172839,79.32098765432099,0)" xlink:href="#K"/><use transform="matrix(0.06172839506172839,0,0,0.06172839506172839,85.49382716049382,0)" xlink:href="#I"/><use transform="matrix(0.06172839506172839,0,0,0.06172839506172839,90.37037037037037,0)" xlink:href="#P"/><use transform="matrix(0.06172839506172839,0,0,0.06172839506172839,102.71604938271605,0)" xlink:href="#ai"/></g><path fill="#333" d="M118-107v75H92v-75H18v-26h74v-75h26v75h74v26h-74" id="ak"/><use transform="matrix(0.06172839506172839,0,0,0.06172839506172839,0,0)" xlink:href="#ak" id="o"/><path fill="#333" d="M115-194c55 1 70 41 70 98S169 2 115 4C84 4 66-9 55-30l1 105H24l-1-265h31l2 30c10-21 28-34 59-34zm-8 174c40 0 45-34 45-75s-6-73-45-74c-42 0-51 32-51 76 0 43 10 73 51 73" id="al"/><g id="p"><use transform="matrix(0.06172839506172839,0,0,0.06172839506172839,0,0)" xlink:href="#K"/><use transform="matrix(0.06172839506172839,0,0,0.06172839506172839,6.172839506172839,0)" xlink:href="#M"/><use transform="matrix(0.06172839506172839,0,0,0.06172839506172839,17.28395061728395,0)" xlink:href="#al"/><use transform="matrix(0.06172839506172839,0,0,0.06172839506172839,29.629629629629626,0)" xlink:href="#D"/></g><path fill="#333" d="M185-189c-5-48-123-54-124 2 14 75 158 14 163 119 3 78-121 87-175 55-17-10-28-26-33-46l33-7c5 56 141 63 141-1 0-78-155-14-162-118-5-82 145-84 179-34 5 7 8 16 11 25" id="am"/><g id="q"><use transform="matrix(0.06172839506172839,0,0,0.06172839506172839,0,0)" xlink:href="#am"/><use transform="matrix(0.06172839506172839,0,0,0.06172839506172839,14.814814814814813,0)" xlink:href="#K"/><use transform="matrix(0.06172839506172839,0,0,0.06172839506172839,20.98765432098765,0)" xlink:href="#G"/><use transform="matrix(0.06172839506172839,0,0,0.06172839506172839,28.33333333333333,0)" xlink:href="#I"/><use transform="matrix(0.06172839506172839,0,0,0.06172839506172839,33.20987654320987,0)" xlink:href="#ai"/><use transform="matrix(0.06172839506172839,0,0,0.06172839506172839,45.55555555555555,0)" xlink:href="#Q"/></g><use transform="matrix(0.06172839506172839,0,0,0.06172839506172839,0,0)" xlink:href="#ak" id="r"/><g id="s"><use transform="matrix(0.06172839506172839,0,0,0.06172839506172839,0,0)" xlink:href="#K"/><use transform="matrix(0.06172839506172839,0,0,0.06172839506172839,6.172839506172839,0)" xlink:href="#I"/><use transform="matrix(0.06172839506172839,0,0,0.06172839506172839,11.049382716049383,0)" xlink:href="#K"/><use transform="matrix(0.06172839506172839,0,0,0.06172839506172839,17.22222222222222,0)" xlink:href="#O"/><use transform="matrix(0.06172839506172839,0,0,0.06172839506172839,22.098765432098766,0)" xlink:href="#D"/></g><g id="t"><use transform="matrix(0.06172839506172839,0,0,0.06172839506172839,0,0)" xlink:href="#aa"/><use transform="matrix(0.06172839506172839,0,0,0.06172839506172839,12.345679012345679,0)" xlink:href="#L"/><use transform="matrix(0.06172839506172839,0,0,0.06172839506172839,24.691358024691358,0)" xlink:href="#K"/><use transform="matrix(0.06172839506172839,0,0,0.06172839506172839,30.864197530864196,0)" xlink:href="#D"/></g><path fill="#333" d="M190-63c-7 42-38 67-86 67-59 0-84-38-90-98-12-110 154-137 174-36l-49 2c-2-19-15-32-35-32-30 0-35 28-38 64-6 74 65 87 74 30" id="an"/><path fill="#333" d="M114-157C55-157 80-60 75 0H25v-261h50l-1 109c12-26 28-41 61-42 86-1 58 113 63 194h-50c-7-57 23-157-34-157" id="ao"/><path fill="#333" d="M185-48c-13 30-37 53-82 52C43 2 14-33 14-96s30-98 90-98c62 0 83 45 84 108H66c0 31 8 55 39 56 18 0 30-7 34-22zm-45-69c5-46-57-63-70-21-2 6-4 13-4 21h74" id="ap"/><path fill="#333" d="M147 0L96-86 75-71V0H25v-261h50v150l67-79h53l-66 74L201 0h-54" id="aq"/><g id="u"><use transform="matrix(0.04938271604938272,0,0,0.04938271604938272,0,0)" xlink:href="#an"/><use transform="matrix(0.04938271604938272,0,0,0.04938271604938272,9.876543209876544,0)" xlink:href="#ao"/><use transform="matrix(0.04938271604938272,0,0,0.04938271604938272,20.69135802469136,0)" xlink:href="#ap"/><use transform="matrix(0.04938271604938272,0,0,0.04938271604938272,30.567901234567906,0)" xlink:href="#an"/><use transform="matrix(0.04938271604938272,0,0,0.04938271604938272,40.44444444444445,0)" xlink:href="#aq"/><use transform="matrix(0.04938271604938272,0,0,0.04938271604938272,50.320987654320994,0)" xlink:href="#X"/></g><path fill="#333" d="M110-194c64 0 96 36 96 99 0 64-35 99-97 99-61 0-95-36-95-99 0-62 34-99 96-99zm-1 164c35 0 45-28 45-65 0-40-10-65-43-65-34 0-45 26-45 65 0 36 10 65 43 65" id="ar"/><path fill="#333" d="M85 4C-2 5 27-109 22-190h50c7 57-23 150 33 157 60-5 35-97 40-157h50l1 190h-47c-2-12 1-28-3-38-12 25-28 42-61 42" id="as"/><g id="v"><use transform="matrix(0.04938271604938272,0,0,0.04938271604938272,0,0)" xlink:href="#ar"/><use transform="matrix(0.04938271604938272,0,0,0.04938271604938272,10.814814814814815,0)" xlink:href="#as"/><use transform="matrix(0.04938271604938272,0,0,0.04938271604938272,21.62962962962963,0)" xlink:href="#W"/></g><g id="w"><use transform="matrix(0.04938271604938272,0,0,0.04938271604938272,0,0)" xlink:href="#U"/><use transform="matrix(0.04938271604938272,0,0,0.04938271604938272,4.938271604938272,0)" xlink:href="#X"/><use transform="matrix(0.04938271604938272,0,0,0.04938271604938272,14.814814814814817,0)" xlink:href="#X"/><use transform="matrix(0.04938271604938272,0,0,0.04938271604938272,24.69135802469136,0)" xlink:href="#as"/><use transform="matrix(0.04938271604938272,0,0,0.04938271604938272,35.50617283950618,0)" xlink:href="#ap"/><use transform="matrix(0.04938271604938272,0,0,0.04938271604938272,45.38271604938272,0)" xlink:href="#X"/></g><path fill="#333" d="M135-150c-39-12-60 13-60 57V0H25l-1-190h47c2 13-1 29 3 40 6-28 27-53 61-41v41" id="at"/><g id="x"><use transform="matrix(0.04938271604938272,0,0,0.04938271604938272,0,0)" xlink:href="#at"/><use transform="matrix(0.04938271604938272,0,0,0.04938271604938272,6.913580246913581,0)" xlink:href="#ap"/><use transform="matrix(0.04938271604938272,0,0,0.04938271604938272,16.790123456790127,0)" xlink:href="#W"/><use transform="matrix(0.04938271604938272,0,0,0.04938271604938272,22.66666666666667,0)" xlink:href="#as"/><use transform="matrix(0.04938271604938272,0,0,0.04938271604938272,33.48148148148149,0)" xlink:href="#at"/><use transform="matrix(0.04938271604938272,0,0,0.04938271604938272,40.39506172839507,0)" xlink:href="#V"/><use transform="matrix(0.04938271604938272,0,0,0.04938271604938272,51.209876543209894,0)" xlink:href="#X"/></g><path fill="#333" d="M135-194c53 0 70 44 70 98 0 56-19 98-73 100-31 1-45-17-59-34 3 33 2 69 2 105H25l-1-265h48c2 10 0 23 3 31 11-24 29-35 60-35zM114-30c33 0 39-31 40-66 0-38-9-64-40-64-56 0-55 130 0 130" id="au"/><path fill="#333" d="M25 0v-261h50V0H25" id="av"/><g id="y"><use transform="matrix(0.04938271604938272,0,0,0.04938271604938272,0,0)" xlink:href="#au"/><use transform="matrix(0.04938271604938272,0,0,0.04938271604938272,10.814814814814815,0)" xlink:href="#av"/><use transform="matrix(0.04938271604938272,0,0,0.04938271604938272,15.753086419753087,0)" xlink:href="#T"/><use transform="matrix(0.04938271604938272,0,0,0.04938271604938272,25.629629629629633,0)" xlink:href="#an"/><use transform="matrix(0.04938271604938272,0,0,0.04938271604938272,35.50617283950618,0)" xlink:href="#ap"/><use transform="matrix(0.04938271604938272,0,0,0.04938271604938272,45.38271604938272,0)" xlink:href="#X"/></g><path fill="#333" d="M88-194c31-1 46 15 58 34l-1-101h50l1 261h-48c-2-10 0-23-3-31C134-8 116 4 84 4 32 4 16-41 15-95c0-56 19-97 73-99zm17 164c33 0 40-30 41-66 1-37-9-64-41-64s-38 30-39 65c0 43 13 65 39 65" id="aw"/><g id="z"><use transform="matrix(0.04938271604938272,0,0,0.04938271604938272,0,0)" xlink:href="#ao"/><use transform="matrix(0.04938271604938272,0,0,0.04938271604938272,10.814814814814815,0)" xlink:href="#ar"/><use transform="matrix(0.04938271604938272,0,0,0.04938271604938272,21.62962962962963,0)" xlink:href="#av"/><use transform="matrix(0.04938271604938272,0,0,0.04938271604938272,26.567901234567902,0)" xlink:href="#aw"/></g><path fill="#333" d="M128 0H69L1-190h53L99-40l48-150h52" id="ax"/><g id="A"><use transform="matrix(0.04938271604938272,0,0,0.04938271604938272,0,0)" xlink:href="#at"/><use transform="matrix(0.04938271604938272,0,0,0.04938271604938272,6.913580246913581,0)" xlink:href="#ap"/><use transform="matrix(0.04938271604938272,0,0,0.04938271604938272,16.790123456790127,0)" xlink:href="#S"/><use transform="matrix(0.04938271604938272,0,0,0.04938271604938272,32.592592592592595,0)" xlink:href="#ar"/><use transform="matrix(0.04938271604938272,0,0,0.04938271604938272,43.40740740740741,0)" xlink:href="#ax"/><use transform="matrix(0.04938271604938272,0,0,0.04938271604938272,53.283950617283956,0)" xlink:href="#ap"/><use transform="matrix(0.04938271604938272,0,0,0.04938271604938272,63.1604938271605,0)" xlink:href="#X"/></g><g id="B"><use transform="matrix(0.04938271604938272,0,0,0.04938271604938272,0,0)" xlink:href="#ao"/><use transform="matrix(0.04938271604938272,0,0,0.04938271604938272,10.814814814814815,0)" xlink:href="#ar"/><use transform="matrix(0.04938271604938272,0,0,0.04938271604938272,21.62962962962963,0)" xlink:href="#av"/><use transform="matrix(0.04938271604938272,0,0,0.04938271604938272,26.567901234567902,0)" xlink:href="#aw"/></g></defs></g></svg>