<svg xmlns="http://www.w3.org/2000/svg" xmlns:xlink="http://www.w3.org/1999/xlink" xmlns:lucid="lucid" width="1220" height="551"><g transform="translate(-80 -80)" lucid:page-tab-id="0_0"><path d="M660 240h130.98v31H660z" fill="none"/><use xlink:href="#a" transform="matrix(1,0,0,1,660,240) translate(6.333333333333329 19.944444444444443)"/><path d="M620 507.75h60v35.5h-60z" fill="none"/><use xlink:href="#b" transform="matrix(1,0,0,1,620,507.75) translate(10.89506172839506 22.444444444444443)"/><path d="M280 106c0-3.3 2.7-6 6-6h228c3.3 0 6 2.7 6 6v159c0 3.3-2.7 6-6 6H286c-3.3 0-6-2.7-6-6z" stroke="#fff" stroke-width="3"/><path d="M280 142.67h240m-240 64.16h240" stroke="#fff" stroke-width="3" fill="none"/><use xlink:href="#c" transform="matrix(1,0,0,1,288,108) translate(44.22222222222223 17.944444444444443)"/><path d="M880 106c0-3.3 2.7-6 6-6h228c3.3 0 6 2.7 6 6v159c0 3.3-2.7 6-6 6H886c-3.3 0-6-2.7-6-6z" stroke="#fff" stroke-width="3"/><path d="M880 142.67h240m-240 64.16h240" stroke="#fff" stroke-width="3" fill="none"/><use xlink:href="#d" transform="matrix(1,0,0,1,888,108) translate(64.09876543209876 17.944444444444443)"/><path d="M553 185.5h323.5" stroke="#ef8d22" stroke-width="4" fill="none"/><path d="M524.33 185.5l14.85-14.85 15.15 14.85-15.15 14.85z" stroke="#ef8d22" stroke-width="4" fill="#ef8d22"/><path d="M878.5 187.5h-2.05v-4h2.05" fill="#ef8d22"/><use xlink:href="#e" transform="matrix(1,0,0,1,531.4858951292936,206.49999999999997) translate(0 14.4)"/><use xlink:href="#e" transform="matrix(1,0,0,1,861.2390979699584,159.89999999999998) translate(0 14.4)"/><path d="M280 446c0-3.3 2.7-6 6-6h228c3.3 0 6 2.7 6 6v159c0 3.3-2.7 6-6 6H286c-3.3 0-6-2.7-6-6z" stroke="#fff" stroke-width="3"/><path d="M280 482.67h240m-240 64.16h240" stroke="#fff" stroke-width="3" fill="none"/><use xlink:href="#f" transform="matrix(1,0,0,1,288,448) translate(82.4320987654321 17.944444444444443)"/><path d="M400 304v132.5" stroke="#ef8d22" stroke-width="4" fill="none"/><path d="M400 275.33l14.85 14.85L400 305.33l-14.85-15.15z" stroke="#ef8d22" stroke-width="4" fill="#fff"/><path d="M402 438.5h-4v-2.05h4" fill="#ef8d22"/><use xlink:href="#g" transform="matrix(1,0,0,1,348,281.10073805542294) translate(0 14.4)"/><use xlink:href="#g" transform="matrix(1,0,0,1,408,415.04022883397107) translate(0 14.4)"/><path d="M619 525.5h-64.7" stroke="#c92d39" stroke-width="2" fill="none"/><path d="M620 526.5h-1.03v-2H620" fill="#c92d39"/><path d="M539.04 525.5l14.26-4.64v9.28z" stroke="#c92d39" stroke-width="2" fill="#c92d39"/><path d="M1220 167.75h60v35.5h-60z" fill="none"/><use xlink:href="#b" transform="matrix(1,0,0,1,1220,167.75) translate(11.39506172839506 22.444444444444443)"/><path d="M1219 185.5h-60.5" stroke="#c92d39" stroke-width="2" fill="none"/><path d="M1220 186.5h-1.03v-2h1.03" fill="#c92d39"/><path d="M1143.24 185.5l14.26-4.64v9.28z" stroke="#c92d39" stroke-width="2" fill="#c92d39"/><path d="M659 255.1l-16.92-.07-12.03-.63-8.73-.86-6.68-1-5.33-1.04-4.37-1.07-3.7-1.1-3.2-1.12-2.82-1.12-2.5-1.16-2.3-1.18-2.1-1.22-1.98-1.28-1.87-1.33-1.8-1.4-1.78-1.54-1.76-1.68-1.8-1.9-1.92-2.2-2.15-2.73-2.7-3.78-6.5-10.1" stroke="#c92d39" stroke-width="2" fill="none"/><path d="M660 254.1v2h-1.03v-2" fill="#c92d39"/><path d="M555.75 202.72l11.62 9.5-7.8 5z" stroke="#c92d39" stroke-width="2" fill="#c92d39"/><path d="M520 343h130.98v31H520z" fill="none"/><use xlink:href="#h" transform="matrix(1,0,0,1,520,343) translate(6.919753086419746 19.944444444444443)"/><path d="M519 358.1l-16.92-.07-12.03-.63-8.73-.86-6.68-1-5.33-1.04-4.37-1.07-3.7-1.1-3.2-1.12-2.82-1.12-2.5-1.16-2.3-1.18-2.1-1.22-1.98-1.28-1.87-1.33-1.8-1.4-1.78-1.54-1.76-1.68-1.8-1.9-1.92-2.2-2.15-2.73-2.7-3.78-6.5-10.1" stroke="#c92d39" stroke-width="2" fill="none"/><path d="M520 357.1v2h-1.03v-2" fill="#c92d39"/><path d="M415.75 305.72l11.62 9.5-7.8 5z" stroke="#c92d39" stroke-width="2" fill="#c92d39"/><path d="M100 167.75h80v35.5h-80z" fill="none"/><use xlink:href="#i" transform="matrix(1,0,0,1,100,167.75) translate(11.049382716049383 22.444444444444443)"/><path d="M181 185.5h58.4" stroke="#c92d39" stroke-width="2" fill="none"/><path d="M181.03 186.5H180v-2h1.03" fill="#c92d39"/><path d="M254.66 185.5l-14.26 4.64v-9.28z" stroke="#c92d39" stroke-width="2" fill="#c92d39"/><defs><path fill="#fff" d="M96-169c-40 0-48 33-48 73s9 75 48 75c24 0 41-14 43-38l32 2c-6 37-31 61-74 61-59 0-76-41-82-99-10-93 101-131 147-64 4 7 5 14 7 22l-32 3c-4-21-16-35-41-35" id="j"/><path fill="#fff" d="M100-194c62-1 85 37 85 99 1 63-27 99-86 99S16-35 15-95c0-66 28-99 85-99zM99-20c44 1 53-31 53-75 0-43-8-75-51-75s-53 32-53 75 10 74 51 75" id="k"/><path fill="#fff" d="M210-169c-67 3-38 105-44 169h-31v-121c0-29-5-50-35-48C34-165 62-65 56 0H25l-1-190h30c1 10-1 24 2 32 10-44 99-50 107 0 11-21 27-35 58-36 85-2 47 119 55 194h-31v-121c0-29-5-49-35-48" id="l"/><path fill="#fff" d="M115-194c55 1 70 41 70 98S169 2 115 4C84 4 66-9 55-30l1 105H24l-1-265h31l2 30c10-21 28-34 59-34zm-8 174c40 0 45-34 45-75s-6-73-45-74c-42 0-51 32-51 76 0 43 10 73 51 73" id="m"/><path fill="#fff" d="M135-143c-3-34-86-38-87 0 15 53 115 12 119 90S17 21 10-45l28-5c4 36 97 45 98 0-10-56-113-15-118-90-4-57 82-63 122-42 12 7 21 19 24 35" id="n"/><path fill="#fff" d="M24-231v-30h32v30H24zM24 0v-190h32V0H24" id="o"/><path fill="#fff" d="M59-47c-2 24 18 29 38 22v24C64 9 27 4 27-40v-127H5v-23h24l9-43h21v43h35v23H59v120" id="p"/><path fill="#fff" d="M117-194c89-4 53 116 60 194h-32v-121c0-31-8-49-39-48C34-167 62-67 57 0H25l-1-190h30c1 10-1 24 2 32 11-22 29-35 61-36" id="q"/><g id="a"><use transform="matrix(0.06172839506172839,0,0,0.06172839506172839,0,0)" xlink:href="#j"/><use transform="matrix(0.06172839506172839,0,0,0.06172839506172839,11.11111111111111,0)" xlink:href="#k"/><use transform="matrix(0.06172839506172839,0,0,0.06172839506172839,23.45679012345679,0)" xlink:href="#l"/><use transform="matrix(0.06172839506172839,0,0,0.06172839506172839,41.91358024691358,0)" xlink:href="#m"/><use transform="matrix(0.06172839506172839,0,0,0.06172839506172839,54.25925925925926,0)" xlink:href="#k"/><use transform="matrix(0.06172839506172839,0,0,0.06172839506172839,66.60493827160494,0)" xlink:href="#n"/><use transform="matrix(0.06172839506172839,0,0,0.06172839506172839,77.71604938271605,0)" xlink:href="#o"/><use transform="matrix(0.06172839506172839,0,0,0.06172839506172839,82.5925925925926,0)" xlink:href="#p"/><use transform="matrix(0.06172839506172839,0,0,0.06172839506172839,88.76543209876543,0)" xlink:href="#o"/><use transform="matrix(0.06172839506172839,0,0,0.06172839506172839,93.64197530864197,0)" xlink:href="#k"/><use transform="matrix(0.06172839506172839,0,0,0.06172839506172839,105.98765432098766,0)" xlink:href="#q"/></g><path fill="#fff" d="M141-36C126-15 110 5 73 4 37 3 15-17 15-53c-1-64 63-63 125-63 3-35-9-54-41-54-24 1-41 7-42 31l-33-3c5-37 33-52 76-52 45 0 72 20 72 64v82c-1 20 7 32 28 27v20c-31 9-61-2-59-35zM48-53c0 20 12 33 32 33 41-3 63-29 60-74-43 2-92-5-92 41" id="r"/><path fill="#fff" d="M114-163C36-179 61-72 57 0H25l-1-190h30c1 12-1 29 2 39 6-27 23-49 58-41v29" id="s"/><g id="b"><use transform="matrix(0.06172839506172839,0,0,0.06172839506172839,0,0)" xlink:href="#m"/><use transform="matrix(0.06172839506172839,0,0,0.06172839506172839,12.345679012345679,0)" xlink:href="#r"/><use transform="matrix(0.06172839506172839,0,0,0.06172839506172839,24.691358024691358,0)" xlink:href="#s"/><use transform="matrix(0.06172839506172839,0,0,0.06172839506172839,32.03703703703704,0)" xlink:href="#p"/></g><path fill="#fff" d="M240 0l2-218c-23 76-54 145-80 218h-23L58-218 59 0H30v-248h44l77 211c21-75 51-140 76-211h43V0h-30" id="t"/><path fill="#fff" d="M108 0H70L1-190h34L89-25l56-165h34" id="u"/><path fill="#fff" d="M100-194c63 0 86 42 84 106H49c0 40 14 67 53 68 26 1 43-12 49-29l28 8c-11 28-37 45-77 45C44 4 14-33 15-96c1-61 26-98 85-98zm52 81c6-60-76-77-97-28-3 7-6 17-6 28h103" id="v"/><path fill="#fff" d="M127-220V0H93v-220H8v-28h204v28h-85" id="w"/><path fill="#fff" d="M106-169C34-169 62-67 57 0H25v-261h32l-1 103c12-21 28-36 61-36 89 0 53 116 60 194h-32v-121c2-32-8-49-39-48" id="x"/><g id="c"><use transform="matrix(0.06172839506172839,0,0,0.06172839506172839,0,0)" xlink:href="#t"/><use transform="matrix(0.06172839506172839,0,0,0.06172839506172839,18.456790123456788,0)" xlink:href="#k"/><use transform="matrix(0.06172839506172839,0,0,0.06172839506172839,30.80246913580247,0)" xlink:href="#u"/><use transform="matrix(0.06172839506172839,0,0,0.06172839506172839,41.91358024691358,0)" xlink:href="#o"/><use transform="matrix(0.06172839506172839,0,0,0.06172839506172839,46.79012345679013,0)" xlink:href="#v"/><use transform="matrix(0.06172839506172839,0,0,0.06172839506172839,59.135802469135804,0)" xlink:href="#w"/><use transform="matrix(0.06172839506172839,0,0,0.06172839506172839,72.65432098765432,0)" xlink:href="#x"/><use transform="matrix(0.06172839506172839,0,0,0.06172839506172839,85,0)" xlink:href="#v"/><use transform="matrix(0.06172839506172839,0,0,0.06172839506172839,97.34567901234568,0)" xlink:href="#r"/><use transform="matrix(0.06172839506172839,0,0,0.06172839506172839,109.69135802469137,0)" xlink:href="#p"/><use transform="matrix(0.06172839506172839,0,0,0.06172839506172839,115.8641975308642,0)" xlink:href="#v"/><use transform="matrix(0.06172839506172839,0,0,0.06172839506172839,128.20987654320987,0)" xlink:href="#s"/></g><path fill="#fff" d="M160-131c35 5 61 23 61 61C221 17 115-2 30 0v-248c76 3 177-17 177 60 0 33-19 50-47 57zm-97-11c50-1 110 9 110-42 0-47-63-36-110-37v79zm0 115c55-2 124 14 124-45 0-56-70-42-124-44v89" id="y"/><path fill="#fff" d="M141 0L90-78 38 0H4l68-98-65-92h35l48 74 47-74h35l-64 92 68 98h-35" id="z"/><path fill="#fff" d="M140-251c81 0 123 46 123 126C263-46 219 4 140 4 59 4 17-45 17-125s42-126 123-126zm0 227c63 0 89-41 89-101s-29-99-89-99c-61 0-89 39-89 99S79-25 140-24" id="A"/><path fill="#fff" d="M101-234c-31-9-42 10-38 44h38v23H63V0H32v-167H5v-23h27c-7-52 17-82 69-68v24" id="B"/><g id="d"><use transform="matrix(0.06172839506172839,0,0,0.06172839506172839,0,0)" xlink:href="#y"/><use transform="matrix(0.06172839506172839,0,0,0.06172839506172839,14.814814814814813,0)" xlink:href="#k"/><use transform="matrix(0.06172839506172839,0,0,0.06172839506172839,27.160493827160494,0)" xlink:href="#z"/><use transform="matrix(0.06172839506172839,0,0,0.06172839506172839,38.27160493827161,0)" xlink:href="#A"/><use transform="matrix(0.06172839506172839,0,0,0.06172839506172839,55.55555555555556,0)" xlink:href="#B"/><use transform="matrix(0.06172839506172839,0,0,0.06172839506172839,61.2962962962963,0)" xlink:href="#B"/><use transform="matrix(0.06172839506172839,0,0,0.06172839506172839,67.46913580246914,0)" xlink:href="#o"/><use transform="matrix(0.06172839506172839,0,0,0.06172839506172839,72.34567901234568,0)" xlink:href="#j"/><use transform="matrix(0.06172839506172839,0,0,0.06172839506172839,83.4567901234568,0)" xlink:href="#v"/></g><path fill="#fff" d="M27 0v-27h64v-190l-56 39v-29l58-41h29v221h61V0H27" id="C"/><use transform="matrix(0.05,0,0,0.05,0,0)" xlink:href="#C" id="e"/><g id="f"><use transform="matrix(0.06172839506172839,0,0,0.06172839506172839,0,0)" xlink:href="#t"/><use transform="matrix(0.06172839506172839,0,0,0.06172839506172839,18.456790123456788,0)" xlink:href="#k"/><use transform="matrix(0.06172839506172839,0,0,0.06172839506172839,30.80246913580247,0)" xlink:href="#u"/><use transform="matrix(0.06172839506172839,0,0,0.06172839506172839,41.91358024691358,0)" xlink:href="#o"/><use transform="matrix(0.06172839506172839,0,0,0.06172839506172839,46.79012345679013,0)" xlink:href="#v"/></g><path fill="#fff" d="M101-251c68 0 85 55 85 127S166 4 100 4C33 4 14-52 14-124c0-73 17-127 87-127zm-1 229c47 0 54-49 54-102s-4-102-53-102c-51 0-55 48-55 102 0 53 5 102 54 102" id="D"/><path fill="#fff" d="M33 0v-38h34V0H33" id="E"/><path fill="#fff" d="M80-196l47-18 7 23-49 13 32 44-20 13-27-46-27 45-21-12 33-44-49-13 8-23 47 19-2-53h23" id="F"/><g id="g"><use transform="matrix(0.05,0,0,0.05,0,0)" xlink:href="#D"/><use transform="matrix(0.05,0,0,0.05,10,0)" xlink:href="#E"/><use transform="matrix(0.05,0,0,0.05,15,0)" xlink:href="#E"/><use transform="matrix(0.05,0,0,0.05,20,0)" xlink:href="#F"/></g><path fill="#fff" d="M177-190C167-65 218 103 67 71c-23-6-38-20-44-43l32-5c15 47 100 32 89-28v-30C133-14 115 1 83 1 29 1 15-40 15-95c0-56 16-97 71-98 29-1 48 16 59 35 1-10 0-23 2-32h30zM94-22c36 0 50-32 50-73 0-42-14-75-50-75-39 0-46 34-46 75s6 73 46 73" id="G"/><g id="h"><use transform="matrix(0.06172839506172839,0,0,0.06172839506172839,0,0)" xlink:href="#r"/><use transform="matrix(0.06172839506172839,0,0,0.06172839506172839,12.345679012345679,0)" xlink:href="#G"/><use transform="matrix(0.06172839506172839,0,0,0.06172839506172839,24.691358024691358,0)" xlink:href="#G"/><use transform="matrix(0.06172839506172839,0,0,0.06172839506172839,37.03703703703704,0)" xlink:href="#s"/><use transform="matrix(0.06172839506172839,0,0,0.06172839506172839,44.382716049382715,0)" xlink:href="#v"/><use transform="matrix(0.06172839506172839,0,0,0.06172839506172839,56.72839506172839,0)" xlink:href="#G"/><use transform="matrix(0.06172839506172839,0,0,0.06172839506172839,69.07407407407408,0)" xlink:href="#r"/><use transform="matrix(0.06172839506172839,0,0,0.06172839506172839,81.41975308641976,0)" xlink:href="#p"/><use transform="matrix(0.06172839506172839,0,0,0.06172839506172839,87.5925925925926,0)" xlink:href="#o"/><use transform="matrix(0.06172839506172839,0,0,0.06172839506172839,92.46913580246914,0)" xlink:href="#k"/><use transform="matrix(0.06172839506172839,0,0,0.06172839506172839,104.81481481481482,0)" xlink:href="#q"/></g><path fill="#fff" d="M206 0h-36l-40-164L89 0H53L-1-190h32L70-26l43-164h34l41 164 42-164h31" id="H"/><path fill="#fff" d="M24 0v-261h32V0H24" id="I"/><g id="i"><use transform="matrix(0.06172839506172839,0,0,0.06172839506172839,0,0)" xlink:href="#H"/><use transform="matrix(0.06172839506172839,0,0,0.06172839506172839,15.987654320987653,0)" xlink:href="#x"/><use transform="matrix(0.06172839506172839,0,0,0.06172839506172839,28.333333333333332,0)" xlink:href="#k"/><use transform="matrix(0.06172839506172839,0,0,0.06172839506172839,40.67901234567901,0)" xlink:href="#I"/><use transform="matrix(0.06172839506172839,0,0,0.06172839506172839,45.55555555555556,0)" xlink:href="#v"/></g></defs></g></svg>