<svg xmlns="http://www.w3.org/2000/svg" xmlns:xlink="http://www.w3.org/1999/xlink" xmlns:lucid="lucid" width="1680" height="909.67"><g transform="translate(-140 -140)" lucid:page-tab-id="z8ch3BGu2Z4W"><path d="M219.75 279.75c0 10.9-8.84 19.75-19.75 19.75-10.9 0-19.75-8.84-19.75-19.75 0-10.9 8.84-19.75 19.75-19.75 10.9 0 19.75 8.84 19.75 19.75z" stroke="#fff" stroke-width="3" fill-opacity="0"/><path d="M200 299.5v49.3c0 3.3 1.44 8.27 3.2 11.07L240 418m-40-63.2L160 418m0-98.75h80" stroke="#fff" stroke-width="3" fill="none"/><path d="M160 266c0-3.3 2.7-6 6-6h68c3.3 0 6 2.7 6 6v168c0 3.3-2.7 6-6 6h-68c-3.3 0-6-2.7-6-6z" fill="none"/><use xlink:href="#a" transform="matrix(1,0,0,1,80,418) translate(91.69753086419753 17.77777777777778)"/><path d="M400 166c0-3.3 2.7-6 6-6h148c3.3 0 6 2.7 6 6v68c0 3.3-2.7 6-6 6H406c-3.3 0-6-2.7-6-6z" stroke="#fff" stroke-width="3" fill-opacity="0"/><use xlink:href="#b" transform="matrix(1,0,0,1,400,160) translate(45.029999999999994 44.775)"/><path d="M660 346c0-3.3 2.7-6 6-6h148c3.3 0 6 2.7 6 6v68c0 3.3-2.7 6-6 6H666c-3.3 0-6-2.7-6-6z" stroke="#fff" stroke-width="3" fill-opacity="0"/><use xlink:href="#c" transform="matrix(1,0,0,1,660,340) translate(34.10499999999999 44.775)"/><path d="M840 166c0-3.3 2.7-6 6-6h148c3.3 0 6 2.7 6 6v68c0 3.3-2.7 6-6 6H846c-3.3 0-6-2.7-6-6z" stroke="#fff" stroke-width="3" fill-opacity="0"/><use xlink:href="#d" transform="matrix(1,0,0,1,840,160) translate(52.58 44.775)"/><path d="M1200 166c0-3.3 2.7-6 6-6h148c3.3 0 6 2.7 6 6v68c0 3.3-2.7 6-6 6h-148c-3.3 0-6-2.7-6-6z" stroke="#fff" stroke-width="3" fill-opacity="0"/><use xlink:href="#e" transform="matrix(1,0,0,1,1200,160) translate(25.554999999999993 44.775)"/><path d="M1420 526c0-3.3 2.7-6 6-6h148c3.3 0 6 2.7 6 6v68c0 3.3-2.7 6-6 6h-148c-3.3 0-6-2.7-6-6z" stroke="#fff" stroke-width="3" fill-opacity="0"/><use xlink:href="#f" transform="matrix(1,0,0,1,1420,520) translate(51.555 44.775)"/><path d="M1640 166c0-3.3 2.7-6 6-6h148c3.3 0 6 2.7 6 6v68c0 3.3-2.7 6-6 6h-148c-3.3 0-6-2.7-6-6z" stroke="#fff" stroke-width="3" fill-opacity="0"/><use xlink:href="#g" transform="matrix(1,0,0,1,1640,160) translate(49.05499999999999 44.775)"/><path d="M480 242.5v3m0 4v6.02m0 4v6m0 4.02v6m0 4v6.02m0 4v6.02m0 4v6m0 4.02v6m0 4v6.02m0 4v6.02m0 4v6m0 4.02v6m0 4v6.02m0 4v6.02m0 4v6m0 4.02v6m0 4v6.02m0 4v6.02m0 4v6m0 4.02v6m0 4v6.02m0 4v6m0 4.02v6m0 4.02v6m0 4v6.02m0 4v6m0 4.02v6m0 4v6.02m0 4v6.02m0 4v6m0 4.02v6m0 4v6.02m0 4V566m0 4v6m0 4.02v6m0 4v6.02m0 4v6.02m0 4v6m0 4.02v6m0 4v6.02m0 4v6.02m0 4v6m0 4.02v6m0 4v6.02m0 4v6m0 4.02v6m0 4v6.02m0 4v6.02m0 4v6m0 4.02v6m0 4v6.02m0 4v6.02m0 4v6m0 4.02v6m0 4v6.02m0 4v6.02m0 4v6m0 4.02v6m0 4v6.02m0 4v6.02m0 4v6m0 4.02v6m0 4v6.02m0 4v6m0 4.02v6m0 4.02v6m0 4v6.02m0 4v6m0 4.02v6m0 4v6.02m0 4v6.02m0 4v6m0 4.02v6m0 4v6.02m0 4v6.02m0 4v6m0 4.02v6m0 4v6.02m0 4v6.02m0 4v3" stroke="#fff" stroke-width="2" fill="none"/><path d="M481 242.53h-2v-1.03h2z" stroke="#fff" stroke-width=".05" fill="#fff"/><path d="M480 1033.64v1.03M740 422.5v3.02m0 4.04v6.04m0 4.04v6.05m0 4.02v6.05m0 4.03v6.05m0 4.03v6.05m0 4.03V486m0 4.04v6.05m0 4.02v6.05m0 4.03v6.05m0 4.03v6.05m0 4.03v6.05m0 4.04v6.05m0 4.02v6.05m0 4.03v6.05m0 4.03v6.05m0 4.03v6.05m0 4.05v6.04m0 4.03v6.04m0 4.04v6.05m0 4.04v6.04m0 4.03v6.05m0 4.03v6.05m0 4.03v6.05m0 4.03v6.06m0 4.03v6.04m0 4.03v6.05m0 4.03v6.05m0 4.03v6.05m0 4.03v6.06m0 4.03v6.04m0 4.03v6.05m0 4.03v6.05m0 4.03v6.05m0 4.03v6.06m0 4.04v6.04m0 4.04v6.04m0 4.04v6.04m0 4.04v6.05m0 4.02v6.05m0 4.03v6.05m0 4.03v6.05m0 4.03v6.05m0 4.04V859m0 4.02v6.05m0 4.03v6.05m0 4.03v6.05m0 4.03v6.05m0 4.04v6.05m0 4.02v6.05m0 4.03v6.05m0 4.03v6.05m0 4.03v6.05m0 4.05v6.04m0 4.03v6.04m0 4.04v6.05m0 4.04v6.04m0 4.03v6.05m0 4.03v6.05m0 4.03v6.05m0 4.03v3.03" stroke="#fff" stroke-width="2" fill="none"/><path d="M741 422.53h-2v-1.03h2z" stroke="#fff" stroke-width=".05" fill="#fff"/><path d="M740 1027.3v1.03M920 242.5v3m0 4v5.98m0 4v5.98m0 4v5.98m0 4v5.98m0 4v5.98m0 4v5.98m0 4v5.98m0 4v5.98m0 4v5.98m0 4v5.98m0 4v6m0 3.98v6m0 3.98v6m0 3.98v6m0 3.98v6m0 3.98v6m0 3.98v6m0 3.98v6m0 3.98v6m0 4v5.97m0 4v6m0 4v5.98m0 4v5.98m0 4v5.98m0 4V495m0 4V505m0 4v5.98m0 4v5.98m0 4v5.98m0 4v5.98m0 4v6m0 3.98v6m0 3.98v6m0 3.98v6m0 3.98v6m0 3.98v6m0 3.98v6m0 3.98v6m0 4v5.97m0 4v5.98m0 4v6m0 3.98v6m0 4v5.98m0 4v5.98m0 4v5.98m0 4v5.98m0 4v5.98m0 4v5.98m0 4v5.98m0 4v5.98m0 4v6m0 3.98v6m0 3.98v6m0 3.98v6m0 3.98v6m0 3.98v6m0 3.98v6m0 3.98v6m0 4v5.97m0 4v6m0 3.98v6m0 3.98v6m0 3.98v6m0 4v5.98m0 4v5.98m0 4v5.98m0 4v5.98m0 4v5.98m0 4v5.98m0 4v6m0 3.98v6m0 3.98v6m0 3.98v6m0 3.98v6m0 3.98v6m0 3.98v6m0 3.98v6m0 3.98v6m0 4v2.98" stroke="#fff" stroke-width="2" fill="none"/><path d="M921 242.53h-2v-1.03h2z" stroke="#fff" stroke-width=".05" fill="#fff"/><path d="M920 1030.97v1.03M1280 242.5v3m0 4v6.02m0 4v6m0 4.02v6m0 4v6.02m0 4v6.02m0 4v6m0 4.02v6m0 4v6.02m0 4v6.02m0 4v6m0 4.02v6m0 4v6.02m0 4v6.02m0 4v6m0 4.02v6m0 4v6.02m0 4v6.02m0 4v6m0 4.02v6m0 4v6.02m0 4v6m0 4.02v6m0 4.02v6m0 4v6.02m0 4v6m0 4.02v6m0 4v6.02m0 4v6.02m0 4v6m0 4.02v6m0 4v6.02m0 4V566m0 4v6m0 4.02v6m0 4v6.02m0 4v6.02m0 4v6m0 4.02v6m0 4v6.02m0 4v6.02m0 4v6m0 4.02v6m0 4v6.02m0 4v6m0 4.02v6m0 4v6.02m0 4v6.02m0 4v6m0 4.02v6m0 4v6.02m0 4v6.02m0 4v6m0 4.02v6m0 4v6.02m0 4v6.02m0 4v6m0 4.02v6m0 4v6.02m0 4v6.02m0 4v6m0 4.02v6m0 4v6.02m0 4v6m0 4.02v6m0 4.02v6m0 4v6.02m0 4v6m0 4.02v6m0 4v6.02m0 4v6.02m0 4v6m0 4.02v6m0 4v6.02m0 4v6.02m0 4v6m0 4.02v6m0 4v6.02m0 4v6.02m0 4v3" stroke="#fff" stroke-width="2" fill="none"/><path d="M1281 242.53h-2v-1.03h2z" stroke="#fff" stroke-width=".05" fill="#fff"/><path d="M1280 1033.64v1.03M1500 602.5v2.97m0 3.95v5.94m0 3.95v5.95m0 3.95v5.94m0 3.95v5.93m0 3.95v5.94m0 3.95v5.94m0 3.96v5.94m0 3.95v5.94m0 3.94v5.94m0 3.95v5.94m0 3.95v5.94m0 3.95v5.95m0 3.95v5.94m0 3.96v5.93m0 3.96v5.92m0 3.96v5.93m0 3.97v5.93m0 3.96v5.93m0 3.95v5.93m0 3.96v5.93m0 3.96v5.93m0 3.96v5.93m0 3.96v5.94m0 3.96v5.93m0 3.96v5.92m0 3.96v5.93m0 3.97v5.93m0 3.96v5.93m0 3.95v5.93m0 3.96v5.93m0 3.96v5.93m0 3.96v5.93m0 3.96v5.94m0 3.96v5.93m0 3.96v5.92m0 3.96v5.93m0 3.97v5.93m0 3.96v5.93m0 3.95v5.93m0 3.96v5.93m0 3.96v5.93m0 3.96v5.93m0 3.96v5.94m0 3.96v2.97" stroke="#fff" stroke-width="2" fill="none"/><path d="M1501 602.53h-2v-1.03h2z" stroke="#fff" stroke-width=".05" fill="#fff"/><path d="M1500 1037.64v1.03M1720 242.5v3m0 4.03v6.03m0 4.02v6.03m0 4.03v6.03m0 4.02v6.03m0 4.03v6.03m0 4.02v6.03m0 4.03v6.02m0 4.02v6.03m0 4.02v6.03m0 4.02V346m0 4.02v6.03m0 4.02v6.03m0 4.02v6.03m0 4v6.04m0 4v6.04m0 4.02v6.03m0 4v6.04m0 4.02v6.03m0 4v6.04m0 4.02v6.03m0 4v6.03m0 4.02v6.03m0 4.02v6.03m0 4.02v6.03m0 4.02v6.03m0 4.02v6.03m0 4.02v6.02m0 4.02v6.03m0 4.02v6.02m0 4.02v6.03m0 4.02V557m0 4.02v6.03m0 4.02v6.02m0 4.02v6.02m0 4.02v6.03m0 4.03v6.03m0 4.02v6.03m0 4.03v6.03m0 4.02v6.03m0 4.03v6.03m0 4v6.04m0 4.02v6.03m0 4.02v6.03m0 4.02v6.03m0 4.02v6.03m0 4.02v6.03m0 4.02v6.03m0 4v6.04m0 4.02v6.03m0 4v6.04m0 4.02V758m0 4v6.04m0 4.02v6.03m0 4v6.03m0 4.02v6.03m0 4.02v6.03m0 4.02v6.03m0 4.02v6.03m0 4.02v6.03m0 4.02v6.03m0 4.02v6.02m0 4.02v6.02m0 4.02v6.03m0 4.02v6.02m0 4.02v6.03m0 4.02v6.02m0 4.02v6.03m0 4.02v6m0 4.03v6.03m0 4.02v6.03m0 4.03v6.03m0 4.02V969m0 4.03v6.03m0 4.02v6.03m0 4.02v6.03m0 4.02v6.03m0 4.02v6.03m0 4.02v6.03m0 4.02v3" stroke="#fff" stroke-width="2" fill="none"/><path d="M1721 242.53h-2v-1.03h2z" stroke="#fff" stroke-width=".05" fill="#fff"/><path d="M1720 1036.3v1.03" stroke="#fff" stroke-width="2" fill="none"/><path d="M460 296c0-3.3 2.7-6 6-6h28c3.3 0 6 2.7 6 6v338c0 3.3-2.7 6-6 6h-28c-3.3 0-6-2.7-6-6z" stroke="#fff" stroke-width="3" fill="#4c535d"/><path d="M241 318.67h199" stroke="#fff" stroke-width="2" fill="none"/><path d="M241.03 319.67H240v-1.92h-3v-.08h4.03z" stroke="#fff" stroke-width=".05" fill="#fff"/><path d="M455.26 318.67L441 323.3v-9.27z" stroke="#fff" stroke-width="2" fill="#fff"/><use xlink:href="#h" transform="matrix(1,0,0,1,290.14814814814815,293.3333333333333) translate(0 14.222222222222223)"/><use xlink:href="#i" transform="matrix(1,0,0,1,290.14814814814815,293.3333333333333) translate(45.333333333333336 14.222222222222223)"/><path d="M502.5 353.33H640" stroke="#fff" stroke-width="2" fill="none"/><path d="M502.53 354.33h-1.03v-2h1.03z" stroke="#fff" stroke-width=".05" fill="#fff"/><path d="M655.26 353.33L641 357.97v-9.27z" stroke="#fff" stroke-width="2" fill="#fff"/><use xlink:href="#j" transform="matrix(1,0,0,1,525.8271604938271,327.9999999999999) translate(0 14.222222222222223)"/><path d="M657.5 406.67h-2.95m-3.92 0h-5.9m-3.93 0h-5.9m-3.92 0h-5.9m-3.92 0h-5.9m-3.92 0h-5.9m-3.92 0h-5.9m-3.92 0h-5.9m-3.92 0h-5.9m-3.93 0h-5.9m-3.92 0h-5.9m-3.92 0h-5.88m-3.93 0h-5.9m-3.93 0h-5.9m-3.92 0H520" stroke="#fff" stroke-width="2" fill="none"/><path d="M658.5 407.67h-1.03v-2h1.03z" stroke="#fff" stroke-width=".05" fill="#fff"/><path d="M504.74 406.67l14.26-4.64v9.27z" stroke="#fff" stroke-width="2" fill="#fff"/><use xlink:href="#k" transform="matrix(1,0,0,1,531.7037037037037,410.6666666666667) translate(0 14.222222222222223)"/><path d="M502.5 468H880" stroke="#fff" stroke-width="2" fill="none"/><path d="M502.53 469h-1.03v-2h1.03z" stroke="#fff" stroke-width=".05" fill="#fff"/><path d="M895.26 468L881 472.64v-9.28z" stroke="#fff" stroke-width="2" fill="#fff"/><use xlink:href="#l" transform="matrix(1,0,0,1,500.74611708482666,442.66666666666663) translate(0 14.222222222222223)"/><path d="M900 466c0-3.3 2.7-6 6-6h28c3.3 0 6 2.7 6 6v508c0 3.3-2.7 6-6 6h-28c-3.3 0-6-2.7-6-6z" stroke="#fff" stroke-width="3" fill="#4c535d"/><path d="M1700 486c0-3.3 2.7-6 6-6h28c3.3 0 6 2.7 6 6v128c0 3.3-2.7 6-6 6h-28c-3.3 0-6-2.7-6-6z" stroke="#fff" stroke-width="3" fill-opacity="0"/><path d="M942.5 493.33H1680" stroke="#fff" stroke-width="2" fill="none"/><path d="M942.53 494.33h-1.03v-2h1.03z" stroke="#fff" stroke-width=".05" fill="#fff"/><path d="M1695.26 493.33l-14.26 4.64v-9.27z" stroke="#fff" stroke-width="2" fill="#fff"/><use xlink:href="#m" transform="matrix(1,0,0,1,1238.7407407407406,467.9999999999999) translate(0 14.222222222222223)"/><path d="M1697.5 533.33H1600" stroke="#fff" stroke-width="2" fill="none"/><path d="M1698.5 534.33h-1.03v-2h1.03z" stroke="#fff" stroke-width=".05" fill="#fff"/><path d="M1584.74 533.33l14.26-4.63v9.27z" stroke="#fff" stroke-width="2" fill="#fff"/><path d="M1697.77 615.18h-2.98m-3.98 0h-5.96m-3.97 0h-5.97m-3.97 0H1665m-3.96 0h-5.96m-3.97 0h-5.95m-3.97 0h-5.95m-3.97 0h-5.96m-3.97 0h-5.96m-3.97 0h-5.95m-3.98 0h-5.95m-3.97 0h-5.96m-3.98 0h-5.96m-3.97 0h-5.96m-3.97 0h-5.96m-3.96 0h-5.96m-3.97 0h-5.94m-3.97 0h-5.97m-3.97 0h-5.96m-3.97 0h-5.95m-3.98 0h-5.95m-3.97 0h-5.96m-3.97 0h-5.96m-3.98 0h-5.95m-3.97 0h-5.96m-3.97 0h-5.96m-3.96 0h-5.95m-3.98 0h-5.96m-3.97 0h-5.97m-3.97 0h-5.95m-3.96 0h-5.96m-3.97 0h-5.95m-3.97 0h-5.95m-3.98 0h-5.95m-3.97 0h-5.96m-3.97 0h-5.96m-3.97 0h-5.95m-3.97 0h-5.96m-3.98 0h-2.98l-.3.12-.1.3-.13.28-.28.12h-3m-4 0h-6m-3.98 0h-6m-4 0h-6m-4 0h-5.98m-4 0h-6m-4 0h-6m-3.98 0h-6m-4 0h-6m-4 0h-5.98m-4 0h-6m-4 0h-6m-4 0h-5.98m-4 0h-6m-4 0h-6m-3.98 0h-6m-4 0h-6m-4 0h-5.98m-4 0h-6m-4 0h-6m-3.98 0h-6m-4 0h-6m-4 0h-5.98m-4 0h-6m-4 0h-6m-4 0h-5.98m-4 0h-6m-4 0h-6m-3.98 0h-6m-4 0h-6m-4 0h-5.98m-4 0h-6m-4 0h-6m-3.98 0h-6m-4 0h-6m-4 0H967m-4 0h-3" stroke="#fff" stroke-width="2" fill="none"/><path d="M1698.5 614.2l.54 1.98h-1.3v-2h.76z" stroke="#fff" stroke-width=".05" fill="#fff"/><path d="M944.74 616l14.26-4.64v9.28z" stroke="#fff" stroke-width="2" fill="#fff"/><use xlink:href="#n" transform="matrix(1,0,0,1,1186.9104058552546,590.6666666666669) translate(0 14.222222222222223)"/><path d="M360 666c0-3.3 2.7-6 6-6h88c3.3 0 6 2.7 6 6v8c0 3.3-1.9 7.9-4.24 10.24l-1.52 1.52C451.9 688.1 447.3 690 444 690h-78c-3.3 0-6-2.7-6-6z" fill-opacity="0"/><path d="M460 660v20l-10 10h-90" stroke="#fff" stroke-width="3" fill="none"/><path d="M360 666c0-3.3 2.7-6 6-6h1408c3.3 0 6 2.7 6 6v328c0 3.3-2.7 6-6 6H366c-3.3 0-6-2.7-6-6z" stroke="#fff" stroke-width="3" fill="none"/><use xlink:href="#o" transform="matrix(1,0,0,1,368,660) translate(0 19.444444444444443)"/><path d="M720 826c0-3.3 2.7-6 6-6h28c3.3 0 6 2.7 6 6v118c0 3.3-2.7 6-6 6h-28c-3.3 0-6-2.7-6-6zM1260 756c0-3.3 2.7-6 6-6h28c3.3 0 6 2.7 6 6v98c0 3.3-2.7 6-6 6h-28c-3.3 0-6-2.7-6-6zM1480 686c0-3.3 2.7-6 6-6h28c3.3 0 6 2.7 6 6v278c0 3.3-2.7 6-6 6h-28c-3.3 0-6-2.7-6-6z" stroke="#fff" stroke-width="3" fill="#4c535d"/><path d="M942.5 701.33H1460" stroke="#fff" stroke-width="2" fill="none"/><path d="M942.53 702.33h-1.03v-2h1.03z" stroke="#fff" stroke-width=".05" fill="#fff"/><path d="M1475.26 701.33l-14.26 4.64v-9.27z" stroke="#fff" stroke-width="2" fill="#fff"/><use xlink:href="#p" transform="matrix(1,0,0,1,1143.2592592592594,676.0000000000001) translate(0 14.222222222222223)"/><use xlink:href="#q" transform="matrix(1,0,0,1,1143.2592592592594,676.0000000000001) translate(41.4320987654321 14.222222222222223)"/><use xlink:href="#r" transform="matrix(1,0,0,1,1143.2592592592594,676.0000000000001) translate(56.74074074074075 14.222222222222223)"/><path d="M942.5 760H1240" stroke="#fff" stroke-width="2" fill="none"/><path d="M942.53 761h-1.03v-2h1.03z" stroke="#fff" stroke-width=".05" fill="#fff"/><path d="M1255.26 760l-14.26 4.64v-9.28z" stroke="#fff" stroke-width="2" fill="#fff"/><use xlink:href="#s" transform="matrix(1,0,0,1,1017.7283950617284,734.6666666666667) translate(0 14.222222222222223)"/><path d="M1257.5 845.33H780" stroke="#fff" stroke-width="2" fill="none"/><path d="M1258.5 846.33h-1.03v-2h1.03z" stroke="#fff" stroke-width=".05" fill="#fff"/><path d="M764.74 845.33L779 840.7v9.27z" stroke="#fff" stroke-width="2" fill="#fff"/><use xlink:href="#t" transform="matrix(1,0,0,1,970.6172839506173,849.3333333333334) translate(0 14.222222222222223)"/><path d="M717.5 937.33h-479" stroke="#fff" stroke-width="2" fill="none"/><path d="M718.5 938.33h-1.03v-2h1.03z" stroke="#fff" stroke-width=".05" fill="#fff"/><path d="M223.24 937.33l14.26-4.63v9.27z" stroke="#fff" stroke-width="2" fill="#fff"/><g><use xlink:href="#u" transform="matrix(1,0,0,1,403.85185185185185,941.3333333333334) translate(0 14.222222222222223)"/></g><defs><path fill="#fff" d="M212-179c-10-28-35-45-73-45-59 0-87 40-87 99 0 60 29 101 89 101 43 0 62-24 78-52l27 14C228-24 195 4 139 4 59 4 22-46 18-125c-6-104 99-153 187-111 19 9 31 26 39 46" id="v"/><path fill="#fff" d="M24 0v-261h32V0H24" id="w"/><path fill="#fff" d="M24-231v-30h32v30H24zM24 0v-190h32V0H24" id="x"/><path fill="#fff" d="M100-194c63 0 86 42 84 106H49c0 40 14 67 53 68 26 1 43-12 49-29l28 8c-11 28-37 45-77 45C44 4 14-33 15-96c1-61 26-98 85-98zm52 81c6-60-76-77-97-28-3 7-6 17-6 28h103" id="y"/><path fill="#fff" d="M117-194c89-4 53 116 60 194h-32v-121c0-31-8-49-39-48C34-167 62-67 57 0H25l-1-190h30c1 10-1 24 2 32 11-22 29-35 61-36" id="z"/><path fill="#fff" d="M59-47c-2 24 18 29 38 22v24C64 9 27 4 27-40v-127H5v-23h24l9-43h21v43h35v23H59v120" id="A"/><g id="a"><use transform="matrix(0.06172839506172839,0,0,0.06172839506172839,0,0)" xlink:href="#v"/><use transform="matrix(0.06172839506172839,0,0,0.06172839506172839,15.987654320987653,0)" xlink:href="#w"/><use transform="matrix(0.06172839506172839,0,0,0.06172839506172839,20.864197530864196,0)" xlink:href="#x"/><use transform="matrix(0.06172839506172839,0,0,0.06172839506172839,25.74074074074074,0)" xlink:href="#y"/><use transform="matrix(0.06172839506172839,0,0,0.06172839506172839,38.08641975308642,0)" xlink:href="#z"/><use transform="matrix(0.06172839506172839,0,0,0.06172839506172839,50.432098765432094,0)" xlink:href="#A"/></g><path fill="#fff" d="M33 0v-248h34V0H33" id="B"/><path fill="#fff" d="M114-163C36-179 61-72 57 0H25l-1-190h30c1 12-1 29 2 39 6-27 23-49 58-41v29" id="C"/><path fill="#fff" d="M101-234c-31-9-42 10-38 44h38v23H63V0H32v-167H5v-23h27c-7-52 17-82 69-68v24" id="D"/><path fill="#fff" d="M141-36C126-15 110 5 73 4 37 3 15-17 15-53c-1-64 63-63 125-63 3-35-9-54-41-54-24 1-41 7-42 31l-33-3c5-37 33-52 76-52 45 0 72 20 72 64v82c-1 20 7 32 28 27v20c-31 9-61-2-59-35zM48-53c0 20 12 33 32 33 41-3 63-29 60-74-43 2-92-5-92 41" id="E"/><path fill="#fff" d="M96-169c-40 0-48 33-48 73s9 75 48 75c24 0 41-14 43-38l32 2c-6 37-31 61-74 61-59 0-76-41-82-99-10-93 101-131 147-64 4 7 5 14 7 22l-32 3c-4-21-16-35-41-35" id="F"/><g id="b"><use transform="matrix(0.05,0,0,0.05,0,0)" xlink:href="#B"/><use transform="matrix(0.05,0,0,0.05,5,0)" xlink:href="#z"/><use transform="matrix(0.05,0,0,0.05,15,0)" xlink:href="#A"/><use transform="matrix(0.05,0,0,0.05,20,0)" xlink:href="#y"/><use transform="matrix(0.05,0,0,0.05,30,0)" xlink:href="#C"/><use transform="matrix(0.05,0,0,0.05,35.95,0)" xlink:href="#D"/><use transform="matrix(0.05,0,0,0.05,40.95,0)" xlink:href="#E"/><use transform="matrix(0.05,0,0,0.05,50.95,0)" xlink:href="#F"/><use transform="matrix(0.05,0,0,0.05,59.95,0)" xlink:href="#y"/><path fill="#fff" d="M-.9 1.25h71.75v1.32H-.9z"/></g><path fill="#fff" d="M210-169c-67 3-38 105-44 169h-31v-121c0-29-5-50-35-48C34-165 62-65 56 0H25l-1-190h30c1 10-1 24 2 32 10-44 99-50 107 0 11-21 27-35 58-36 85-2 47 119 55 194h-31v-121c0-29-5-49-35-48" id="G"/><path fill="#fff" d="M63-220v92h138v28H63V0H30v-248h175v28H63" id="H"/><path fill="#fff" d="M100-194c62-1 85 37 85 99 1 63-27 99-86 99S16-35 15-95c0-66 28-99 85-99zM99-20c44 1 53-31 53-75 0-43-8-75-51-75s-53 32-53 75 10 74 51 75" id="I"/><g id="c"><use transform="matrix(0.05,0,0,0.05,0,0)" xlink:href="#B"/><use transform="matrix(0.05,0,0,0.05,5,0)" xlink:href="#A"/><use transform="matrix(0.05,0,0,0.05,10,0)" xlink:href="#y"/><use transform="matrix(0.05,0,0,0.05,20,0)" xlink:href="#G"/><use transform="matrix(0.05,0,0,0.05,34.95,0)" xlink:href="#H"/><use transform="matrix(0.05,0,0,0.05,45.900000000000006,0)" xlink:href="#I"/><use transform="matrix(0.05,0,0,0.05,55.900000000000006,0)" xlink:href="#C"/><use transform="matrix(0.05,0,0,0.05,61.85,0)" xlink:href="#G"/><use transform="matrix(0.05,0,0,0.05,76.80000000000001,0)" xlink:href="#E"/><use transform="matrix(0.05,0,0,0.05,86.80000000000001,0)" xlink:href="#A"/><path fill="#fff" d="M-.9 1.25h93.6v1.32H-.9z"/></g><path fill="#fff" d="M30 0v-248h33v221h125V0H30" id="J"/><path fill="#fff" d="M115-194c53 0 69 39 70 98 0 66-23 100-70 100C84 3 66-7 56-30L54 0H23l1-261h32v101c10-23 28-34 59-34zm-8 174c40 0 45-34 45-75 0-40-5-75-45-74-42 0-51 32-51 76 0 43 10 73 51 73" id="K"/><path fill="#fff" d="M179-190L93 31C79 59 56 82 12 73V49c39 6 53-20 64-50L1-190h34L92-34l54-156h33" id="L"/><g id="d"><use transform="matrix(0.05,0,0,0.05,0,0)" xlink:href="#J"/><use transform="matrix(0.05,0,0,0.05,10,0)" xlink:href="#x"/><use transform="matrix(0.05,0,0,0.05,13.949999999999998,0)" xlink:href="#K"/><use transform="matrix(0.05,0,0,0.05,23.95,0)" xlink:href="#C"/><use transform="matrix(0.05,0,0,0.05,29.899999999999995,0)" xlink:href="#E"/><use transform="matrix(0.05,0,0,0.05,39.9,0)" xlink:href="#C"/><use transform="matrix(0.05,0,0,0.05,45.85,0)" xlink:href="#L"/><path fill="#fff" d="M-.9 1.25h56.65v1.32H-.9z"/></g><g id="e"><use transform="matrix(0.05,0,0,0.05,0,0)" xlink:href="#J"/><use transform="matrix(0.05,0,0,0.05,10,0)" xlink:href="#I"/><use transform="matrix(0.05,0,0,0.05,20,0)" xlink:href="#E"/><use transform="matrix(0.05,0,0,0.05,30,0)" xlink:href="#z"/><use transform="matrix(0.05,0,0,0.05,40,0)" xlink:href="#E"/><use transform="matrix(0.05,0,0,0.05,50,0)" xlink:href="#K"/><use transform="matrix(0.05,0,0,0.05,60,0)" xlink:href="#w"/><use transform="matrix(0.05,0,0,0.05,63.95,0)" xlink:href="#y"/><use transform="matrix(0.05,0,0,0.05,73.95,0)" xlink:href="#B"/><use transform="matrix(0.05,0,0,0.05,78.95,0)" xlink:href="#A"/><use transform="matrix(0.05,0,0,0.05,83.95,0)" xlink:href="#y"/><use transform="matrix(0.05,0,0,0.05,93.95,0)" xlink:href="#G"/><path fill="#fff" d="M-.9 1.25h110.7v1.32H-.9z"/></g><g id="f"><use transform="matrix(0.05,0,0,0.05,0,0)" xlink:href="#B"/><use transform="matrix(0.05,0,0,0.05,5,0)" xlink:href="#A"/><use transform="matrix(0.05,0,0,0.05,10,0)" xlink:href="#y"/><use transform="matrix(0.05,0,0,0.05,20,0)" xlink:href="#C"/><use transform="matrix(0.05,0,0,0.05,25.950000000000003,0)" xlink:href="#E"/><use transform="matrix(0.05,0,0,0.05,35.95,0)" xlink:href="#A"/><use transform="matrix(0.05,0,0,0.05,40.95,0)" xlink:href="#I"/><use transform="matrix(0.05,0,0,0.05,50.95,0)" xlink:href="#C"/><path fill="#fff" d="M-.9 1.25h58.7v1.32H-.9z"/></g><path fill="#fff" d="M177-190C167-65 218 103 67 71c-23-6-38-20-44-43l32-5c15 47 100 32 89-28v-30C133-14 115 1 83 1 29 1 15-40 15-95c0-56 16-97 71-98 29-1 48 16 59 35 1-10 0-23 2-32h30zM94-22c36 0 50-32 50-73 0-42-14-75-50-75-39 0-46 34-46 75s6 73 46 73" id="M"/><g id="g"><use transform="matrix(0.05,0,0,0.05,0,0)" xlink:href="#v"/><use transform="matrix(0.05,0,0,0.05,12.950000000000001,0)" xlink:href="#E"/><use transform="matrix(0.05,0,0,0.05,22.950000000000003,0)" xlink:href="#A"/><use transform="matrix(0.05,0,0,0.05,27.950000000000003,0)" xlink:href="#E"/><use transform="matrix(0.05,0,0,0.05,37.95,0)" xlink:href="#w"/><use transform="matrix(0.05,0,0,0.05,41.900000000000006,0)" xlink:href="#I"/><use transform="matrix(0.05,0,0,0.05,51.900000000000006,0)" xlink:href="#M"/><path fill="#fff" d="M-.9 1.25h63.7v1.32H-.9z"/></g><path fill="#fff" d="M24-248c93 1 206-16 204 79-1 75-69 88-152 82V0H24v-248zm52 121c47 0 100 7 100-41 0-47-54-39-100-39v80" id="N"/><path fill="#fff" d="M135-150c-39-12-60 13-60 57V0H25l-1-190h47c2 13-1 29 3 40 6-28 27-53 61-41v41" id="O"/><path fill="#fff" d="M25-224v-37h50v37H25zM25 0v-190h50V0H25" id="P"/><path fill="#fff" d="M135-194c87-1 58 113 63 194h-50c-7-57 23-157-34-157-59 0-34 97-39 157H25l-1-190h47c2 12-1 28 3 38 12-26 28-41 61-42" id="Q"/><path fill="#fff" d="M115-3C79 11 28 4 28-45v-112H4v-33h27l15-45h31v45h36v33H77v99c-1 23 16 31 38 25v30" id="R"/><g id="h"><use transform="matrix(0.04938271604938272,0,0,0.04938271604938272,0,0)" xlink:href="#N"/><use transform="matrix(0.04938271604938272,0,0,0.04938271604938272,11.851851851851853,0)" xlink:href="#O"/><use transform="matrix(0.04938271604938272,0,0,0.04938271604938272,18.765432098765434,0)" xlink:href="#P"/><use transform="matrix(0.04938271604938272,0,0,0.04938271604938272,23.703703703703706,0)" xlink:href="#Q"/><use transform="matrix(0.04938271604938272,0,0,0.04938271604938272,34.51851851851852,0)" xlink:href="#R"/></g><path fill="#fff" d="M24 0v-248h52V0H24" id="S"/><path fill="#fff" d="M185-48c-13 30-37 53-82 52C43 2 14-33 14-96s30-98 90-98c62 0 83 45 84 108H66c0 31 8 55 39 56 18 0 30-7 34-22zm-45-69c5-46-57-63-70-21-2 6-4 13-4 21h74" id="T"/><path fill="#fff" d="M220-157c-53 9-28 100-34 157h-49v-107c1-27-5-49-29-50C55-147 81-57 75 0H25l-1-190h47c2 12-1 28 3 38 10-53 101-56 108 0 13-22 24-43 59-42 82 1 51 116 57 194h-49v-107c-1-25-5-48-29-50" id="U"/><path fill="#fff" d="M137-138c1-29-70-34-71-4 15 46 118 7 119 86 1 83-164 76-172 9l43-7c4 19 20 25 44 25 33 8 57-30 24-41C81-84 22-81 20-136c-2-80 154-74 161-7" id="V"/><g id="i"><use transform="matrix(0.04938271604938272,0,0,0.04938271604938272,0,0)" xlink:href="#S"/><use transform="matrix(0.04938271604938272,0,0,0.04938271604938272,4.938271604938272,0)" xlink:href="#R"/><use transform="matrix(0.04938271604938272,0,0,0.04938271604938272,10.814814814814817,0)" xlink:href="#T"/><use transform="matrix(0.04938271604938272,0,0,0.04938271604938272,20.69135802469136,0)" xlink:href="#U"/><use transform="matrix(0.04938271604938272,0,0,0.04938271604938272,36.49382716049383,0)" xlink:href="#V"/></g><path fill="#fff" d="M76-208v77h127v40H76V0H24v-248h183v40H76" id="W"/><path fill="#fff" d="M110-194c64 0 96 36 96 99 0 64-35 99-97 99-61 0-95-36-95-99 0-62 34-99 96-99zm-1 164c35 0 45-28 45-65 0-40-10-65-43-65-34 0-45 26-45 65 0 36 10 65 43 65" id="X"/><path fill="#fff" d="M133-34C117-15 103 5 69 4 32 3 11-16 11-54c-1-60 55-63 116-61 1-26-3-47-28-47-18 1-26 9-28 27l-52-2c7-38 36-58 82-57s74 22 75 68l1 82c-1 14 12 18 25 15v27c-30 8-71 5-69-32zm-48 3c29 0 43-24 42-57-32 0-66-3-65 30 0 17 8 27 23 27" id="Y"/><path fill="#fff" d="M67-93c0 74 22 123 53 168H70C40 30 18-18 18-93s22-123 52-168h50c-32 44-53 94-53 168" id="Z"/><path fill="#fff" d="M102-93c0 74-22 123-52 168H0C30 29 54-18 53-93c0-74-22-123-53-168h50c30 45 52 94 52 168" id="aa"/><g id="j"><use transform="matrix(0.04938271604938272,0,0,0.04938271604938272,0,0)" xlink:href="#S"/><use transform="matrix(0.04938271604938272,0,0,0.04938271604938272,4.938271604938272,0)" xlink:href="#R"/><use transform="matrix(0.04938271604938272,0,0,0.04938271604938272,10.814814814814817,0)" xlink:href="#T"/><use transform="matrix(0.04938271604938272,0,0,0.04938271604938272,20.69135802469136,0)" xlink:href="#U"/><use transform="matrix(0.04938271604938272,0,0,0.04938271604938272,36.49382716049383,0)" xlink:href="#W"/><use transform="matrix(0.04938271604938272,0,0,0.04938271604938272,47.308641975308646,0)" xlink:href="#X"/><use transform="matrix(0.04938271604938272,0,0,0.04938271604938272,58.12345679012346,0)" xlink:href="#O"/><use transform="matrix(0.04938271604938272,0,0,0.04938271604938272,65.03703703703704,0)" xlink:href="#U"/><use transform="matrix(0.04938271604938272,0,0,0.04938271604938272,80.8395061728395,0)" xlink:href="#Y"/><use transform="matrix(0.04938271604938272,0,0,0.04938271604938272,90.71604938271605,0)" xlink:href="#R"/><use transform="matrix(0.04938271604938272,0,0,0.04938271604938272,96.5925925925926,0)" xlink:href="#Z"/><use transform="matrix(0.04938271604938272,0,0,0.04938271604938272,102.46913580246914,0)" xlink:href="#aa"/></g><g id="k"><use transform="matrix(0.04938271604938272,0,0,0.04938271604938272,0,0)" xlink:href="#S"/><use transform="matrix(0.04938271604938272,0,0,0.04938271604938272,4.938271604938272,0)" xlink:href="#R"/><use transform="matrix(0.04938271604938272,0,0,0.04938271604938272,10.814814814814817,0)" xlink:href="#T"/><use transform="matrix(0.04938271604938272,0,0,0.04938271604938272,20.69135802469136,0)" xlink:href="#U"/><use transform="matrix(0.04938271604938272,0,0,0.04938271604938272,36.49382716049383,0)" xlink:href="#W"/><use transform="matrix(0.04938271604938272,0,0,0.04938271604938272,47.308641975308646,0)" xlink:href="#X"/><use transform="matrix(0.04938271604938272,0,0,0.04938271604938272,58.12345679012346,0)" xlink:href="#O"/><use transform="matrix(0.04938271604938272,0,0,0.04938271604938272,65.03703703703704,0)" xlink:href="#U"/><use transform="matrix(0.04938271604938272,0,0,0.04938271604938272,80.8395061728395,0)" xlink:href="#Y"/><use transform="matrix(0.04938271604938272,0,0,0.04938271604938272,90.71604938271605,0)" xlink:href="#R"/></g><path fill="#fff" d="M190-63c-7 42-38 67-86 67-59 0-84-38-90-98-12-110 154-137 174-36l-49 2c-2-19-15-32-35-32-30 0-35 28-38 64-6 74 65 87 74 30" id="ab"/><g id="l"><use transform="matrix(0.04938271604938272,0,0,0.04938271604938272,0,0)" xlink:href="#N"/><use transform="matrix(0.04938271604938272,0,0,0.04938271604938272,11.851851851851853,0)" xlink:href="#O"/><use transform="matrix(0.04938271604938272,0,0,0.04938271604938272,18.765432098765434,0)" xlink:href="#X"/><use transform="matrix(0.04938271604938272,0,0,0.04938271604938272,29.58024691358025,0)" xlink:href="#ab"/><use transform="matrix(0.04938271604938272,0,0,0.04938271604938272,39.45679012345679,0)" xlink:href="#T"/><use transform="matrix(0.04938271604938272,0,0,0.04938271604938272,49.333333333333336,0)" xlink:href="#V"/><use transform="matrix(0.04938271604938272,0,0,0.04938271604938272,59.20987654320988,0)" xlink:href="#V"/><use transform="matrix(0.04938271604938272,0,0,0.04938271604938272,69.08641975308643,0)" xlink:href="#S"/><use transform="matrix(0.04938271604938272,0,0,0.04938271604938272,74.02469135802471,0)" xlink:href="#R"/><use transform="matrix(0.04938271604938272,0,0,0.04938271604938272,79.90123456790126,0)" xlink:href="#T"/><use transform="matrix(0.04938271604938272,0,0,0.04938271604938272,89.7777777777778,0)" xlink:href="#U"/><use transform="matrix(0.04938271604938272,0,0,0.04938271604938272,105.58024691358028,0)" xlink:href="#V"/><use transform="matrix(0.04938271604938272,0,0,0.04938271604938272,115.45679012345683,0)" xlink:href="#Z"/><use transform="matrix(0.04938271604938272,0,0,0.04938271604938272,121.33333333333337,0)" xlink:href="#S"/><use transform="matrix(0.04938271604938272,0,0,0.04938271604938272,126.27160493827162,0)" xlink:href="#R"/><use transform="matrix(0.04938271604938272,0,0,0.04938271604938272,132.14814814814815,0)" xlink:href="#T"/><use transform="matrix(0.04938271604938272,0,0,0.04938271604938272,142.0246913580247,0)" xlink:href="#U"/><use transform="matrix(0.04938271604938272,0,0,0.04938271604938272,157.8271604938272,0)" xlink:href="#W"/><use transform="matrix(0.04938271604938272,0,0,0.04938271604938272,168.641975308642,0)" xlink:href="#X"/><use transform="matrix(0.04938271604938272,0,0,0.04938271604938272,179.4567901234568,0)" xlink:href="#O"/><use transform="matrix(0.04938271604938272,0,0,0.04938271604938272,186.37037037037038,0)" xlink:href="#U"/><use transform="matrix(0.04938271604938272,0,0,0.04938271604938272,202.17283950617286,0)" xlink:href="#Y"/><use transform="matrix(0.04938271604938272,0,0,0.04938271604938272,212.0493827160494,0)" xlink:href="#R"/><use transform="matrix(0.04938271604938272,0,0,0.04938271604938272,217.92592592592595,0)" xlink:href="#aa"/></g><path fill="#fff" d="M195-6C206 82 75 100 31 46c-4-6-6-13-8-21l49-6c3 16 16 24 34 25 40 0 42-37 40-79-11 22-30 35-61 35-53 0-70-43-70-97 0-56 18-96 73-97 30 0 46 14 59 34l2-30h47zm-90-29c32 0 41-27 41-63 0-35-9-62-40-62-32 0-39 29-40 63 0 36 9 62 39 62" id="ac"/><path fill="#fff" d="M24 0v-248h52v208h133V0H24" id="ad"/><path fill="#fff" d="M135-194c52 0 70 43 70 98 0 56-19 99-73 100-30 1-46-15-58-35L72 0H24l1-261h50v104c11-23 29-37 60-37zM114-30c31 0 40-27 40-66 0-37-7-63-39-63s-41 28-41 65c0 36 8 64 40 64" id="ae"/><path fill="#fff" d="M25 0v-261h50V0H25" id="af"/><g id="m"><use transform="matrix(0.04938271604938272,0,0,0.04938271604938272,0,0)" xlink:href="#ac"/><use transform="matrix(0.04938271604938272,0,0,0.04938271604938272,10.814814814814815,0)" xlink:href="#T"/><use transform="matrix(0.04938271604938272,0,0,0.04938271604938272,20.69135802469136,0)" xlink:href="#R"/><use transform="matrix(0.04938271604938272,0,0,0.04938271604938272,26.567901234567902,0)" xlink:href="#ad"/><use transform="matrix(0.04938271604938272,0,0,0.04938271604938272,37.38271604938272,0)" xlink:href="#X"/><use transform="matrix(0.04938271604938272,0,0,0.04938271604938272,48.19753086419754,0)" xlink:href="#Y"/><use transform="matrix(0.04938271604938272,0,0,0.04938271604938272,58.074074074074076,0)" xlink:href="#Q"/><use transform="matrix(0.04938271604938272,0,0,0.04938271604938272,68.8888888888889,0)" xlink:href="#Y"/><use transform="matrix(0.04938271604938272,0,0,0.04938271604938272,78.76543209876544,0)" xlink:href="#ae"/><use transform="matrix(0.04938271604938272,0,0,0.04938271604938272,89.58024691358025,0)" xlink:href="#af"/><use transform="matrix(0.04938271604938272,0,0,0.04938271604938272,94.51851851851853,0)" xlink:href="#T"/><use transform="matrix(0.04938271604938272,0,0,0.04938271604938272,104.39506172839508,0)" xlink:href="#S"/><use transform="matrix(0.04938271604938272,0,0,0.04938271604938272,109.33333333333334,0)" xlink:href="#R"/><use transform="matrix(0.04938271604938272,0,0,0.04938271604938272,115.20987654320989,0)" xlink:href="#T"/><use transform="matrix(0.04938271604938272,0,0,0.04938271604938272,125.08641975308643,0)" xlink:href="#U"/><use transform="matrix(0.04938271604938272,0,0,0.04938271604938272,140.8888888888889,0)" xlink:href="#V"/><use transform="matrix(0.04938271604938272,0,0,0.04938271604938272,150.76543209876547,0)" xlink:href="#Z"/><use transform="matrix(0.04938271604938272,0,0,0.04938271604938272,156.641975308642,0)" xlink:href="#aa"/></g><g id="n"><use transform="matrix(0.04938271604938272,0,0,0.04938271604938272,0,0)" xlink:href="#S"/><use transform="matrix(0.04938271604938272,0,0,0.04938271604938272,4.938271604938272,0)" xlink:href="#R"/><use transform="matrix(0.04938271604938272,0,0,0.04938271604938272,10.814814814814817,0)" xlink:href="#T"/><use transform="matrix(0.04938271604938272,0,0,0.04938271604938272,20.69135802469136,0)" xlink:href="#O"/><use transform="matrix(0.04938271604938272,0,0,0.04938271604938272,27.604938271604947,0)" xlink:href="#Y"/><use transform="matrix(0.04938271604938272,0,0,0.04938271604938272,37.48148148148149,0)" xlink:href="#R"/><use transform="matrix(0.04938271604938272,0,0,0.04938271604938272,43.35802469135803,0)" xlink:href="#X"/><use transform="matrix(0.04938271604938272,0,0,0.04938271604938272,54.17283950617284,0)" xlink:href="#O"/></g><path fill="#fff" d="M115-194c55 1 70 41 70 98S169 2 115 4C84 4 66-9 55-30l1 105H24l-1-265h31l2 30c10-21 28-34 59-34zm-8 174c40 0 45-34 45-75s-6-73-45-74c-42 0-51 32-51 76 0 43 10 73 51 73" id="ag"/><g id="o"><use transform="matrix(0.06172839506172839,0,0,0.06172839506172839,0,0)" xlink:href="#J"/><use transform="matrix(0.06172839506172839,0,0,0.06172839506172839,12.345679012345679,0)" xlink:href="#I"/><use transform="matrix(0.06172839506172839,0,0,0.06172839506172839,24.691358024691358,0)" xlink:href="#I"/><use transform="matrix(0.06172839506172839,0,0,0.06172839506172839,37.03703703703704,0)" xlink:href="#ag"/></g><g id="p"><use transform="matrix(0.04938271604938272,0,0,0.04938271604938272,0,0)" xlink:href="#P"/><use transform="matrix(0.04938271604938272,0,0,0.04938271604938272,4.938271604938272,0)" xlink:href="#R"/><use transform="matrix(0.04938271604938272,0,0,0.04938271604938272,10.814814814814817,0)" xlink:href="#T"/><use transform="matrix(0.04938271604938272,0,0,0.04938271604938272,20.69135802469136,0)" xlink:href="#U"/></g><path fill="#fff" d="M15-148v-39h180v39H15zm0 97v-39h180v39H15" id="ah"/><use transform="matrix(0.04938271604938272,0,0,0.04938271604938272,0,0)" xlink:href="#ah" id="q"/><path fill="#fff" d="M175 0L67-191c6 58 2 128 3 191H24v-248h59L193-55c-6-58-2-129-3-193h46V0h-61" id="ai"/><path fill="#fff" d="M144 0l-44-69L55 0H2l70-98-66-92h53l41 62 40-62h54l-67 91 71 99h-54" id="aj"/><g id="r"><use transform="matrix(0.04938271604938272,0,0,0.04938271604938272,0,0)" xlink:href="#ac"/><use transform="matrix(0.04938271604938272,0,0,0.04938271604938272,10.814814814814815,0)" xlink:href="#T"/><use transform="matrix(0.04938271604938272,0,0,0.04938271604938272,20.69135802469136,0)" xlink:href="#R"/><use transform="matrix(0.04938271604938272,0,0,0.04938271604938272,26.567901234567902,0)" xlink:href="#ai"/><use transform="matrix(0.04938271604938272,0,0,0.04938271604938272,39.35802469135803,0)" xlink:href="#T"/><use transform="matrix(0.04938271604938272,0,0,0.04938271604938272,49.23456790123458,0)" xlink:href="#aj"/><use transform="matrix(0.04938271604938272,0,0,0.04938271604938272,59.111111111111114,0)" xlink:href="#R"/><use transform="matrix(0.04938271604938272,0,0,0.04938271604938272,64.98765432098766,0)" xlink:href="#Z"/><use transform="matrix(0.04938271604938272,0,0,0.04938271604938272,70.8641975308642,0)" xlink:href="#aa"/></g><path fill="#fff" d="M135-194c53 0 70 44 70 98 0 56-19 98-73 100-31 1-45-17-59-34 3 33 2 69 2 105H25l-1-265h48c2 10 0 23 3 31 11-24 29-35 60-35zM114-30c33 0 39-31 40-66 0-38-9-64-40-64-56 0-55 130 0 130" id="ak"/><g id="s"><use transform="matrix(0.04938271604938272,0,0,0.04938271604938272,0,0)" xlink:href="#Y"/><use transform="matrix(0.04938271604938272,0,0,0.04938271604938272,9.876543209876544,0)" xlink:href="#ab"/><use transform="matrix(0.04938271604938272,0,0,0.04938271604938272,19.75308641975309,0)" xlink:href="#ab"/><use transform="matrix(0.04938271604938272,0,0,0.04938271604938272,29.629629629629633,0)" xlink:href="#T"/><use transform="matrix(0.04938271604938272,0,0,0.04938271604938272,39.50617283950618,0)" xlink:href="#ak"/><use transform="matrix(0.04938271604938272,0,0,0.04938271604938272,50.320987654320994,0)" xlink:href="#R"/><use transform="matrix(0.04938271604938272,0,0,0.04938271604938272,56.19753086419754,0)" xlink:href="#Z"/><use transform="matrix(0.04938271604938272,0,0,0.04938271604938272,62.074074074074076,0)" xlink:href="#P"/><use transform="matrix(0.04938271604938272,0,0,0.04938271604938272,67.01234567901236,0)" xlink:href="#R"/><use transform="matrix(0.04938271604938272,0,0,0.04938271604938272,72.8888888888889,0)" xlink:href="#T"/><use transform="matrix(0.04938271604938272,0,0,0.04938271604938272,82.76543209876544,0)" xlink:href="#U"/><use transform="matrix(0.04938271604938272,0,0,0.04938271604938272,98.56790123456791,0)" xlink:href="#W"/><use transform="matrix(0.04938271604938272,0,0,0.04938271604938272,109.38271604938272,0)" xlink:href="#X"/><use transform="matrix(0.04938271604938272,0,0,0.04938271604938272,120.19753086419755,0)" xlink:href="#O"/><use transform="matrix(0.04938271604938272,0,0,0.04938271604938272,127.11111111111113,0)" xlink:href="#U"/><use transform="matrix(0.04938271604938272,0,0,0.04938271604938272,142.9135802469136,0)" xlink:href="#Y"/><use transform="matrix(0.04938271604938272,0,0,0.04938271604938272,152.79012345679013,0)" xlink:href="#R"/><use transform="matrix(0.04938271604938272,0,0,0.04938271604938272,158.66666666666666,0)" xlink:href="#aa"/></g><path fill="#fff" d="M128 0H69L1-190h53L99-40l48-150h52" id="al"/><path fill="#fff" d="M114-157C55-157 80-60 75 0H25v-261h50l-1 109c12-26 28-41 61-42 86-1 58 113 63 194h-50c-7-57 23-157-34-157" id="am"/><g id="t"><use transform="matrix(0.04938271604938272,0,0,0.04938271604938272,0,0)" xlink:href="#al"/><use transform="matrix(0.04938271604938272,0,0,0.04938271604938272,9.876543209876544,0)" xlink:href="#P"/><use transform="matrix(0.04938271604938272,0,0,0.04938271604938272,14.814814814814817,0)" xlink:href="#V"/><use transform="matrix(0.04938271604938272,0,0,0.04938271604938272,24.69135802469136,0)" xlink:href="#P"/><use transform="matrix(0.04938271604938272,0,0,0.04938271604938272,29.629629629629633,0)" xlink:href="#R"/><use transform="matrix(0.04938271604938272,0,0,0.04938271604938272,35.50617283950618,0)" xlink:href="#Z"/><use transform="matrix(0.04938271604938272,0,0,0.04938271604938272,41.38271604938272,0)" xlink:href="#R"/><use transform="matrix(0.04938271604938272,0,0,0.04938271604938272,47.25925925925927,0)" xlink:href="#am"/><use transform="matrix(0.04938271604938272,0,0,0.04938271604938272,58.074074074074076,0)" xlink:href="#P"/><use transform="matrix(0.04938271604938272,0,0,0.04938271604938272,63.01234567901235,0)" xlink:href="#V"/><use transform="matrix(0.04938271604938272,0,0,0.04938271604938272,72.8888888888889,0)" xlink:href="#aa"/></g><path fill="#fff" d="M85 4C-2 5 27-109 22-190h50c7 57-23 150 33 157 60-5 35-97 40-157h50l1 190h-47c-2-12 1-28-3-38-12 25-28 42-61 42" id="an"/><g id="u"><use transform="matrix(0.04938271604938272,0,0,0.04938271604938272,0,0)" xlink:href="#O"/><use transform="matrix(0.04938271604938272,0,0,0.04938271604938272,6.913580246913581,0)" xlink:href="#T"/><use transform="matrix(0.04938271604938272,0,0,0.04938271604938272,16.790123456790127,0)" xlink:href="#V"/><use transform="matrix(0.04938271604938272,0,0,0.04938271604938272,26.666666666666668,0)" xlink:href="#an"/><use transform="matrix(0.04938271604938272,0,0,0.04938271604938272,37.48148148148149,0)" xlink:href="#af"/><use transform="matrix(0.04938271604938272,0,0,0.04938271604938272,42.41975308641976,0)" xlink:href="#R"/></g></defs></g></svg>