<svg version="1.1" xmlns="http://www.w3.org/2000/svg" xmlns:xlink="http://www.w3.org/1999/xlink" width="520.27978515625" height="239"><defs/><g><g transform="translate(-134,-83) scale(1,1)"><rect fill="#ffffff" stroke="none" x="336" y="96" width="90.29443359375" height="57"/></g><g transform="translate(-134,-83) scale(1,1)"><path fill="none" stroke="#000000" d="M 336 96 L 426.29443359375 96 L 426.29443359375 153 L 336 153 L 336 96 Z Z" stroke-miterlimit="10"/></g><g transform="translate(-134,-83) scale(1,1)"><path fill="none" stroke="#000000" d="M 336 121 L 426.29443359375 121" stroke-miterlimit="10"/></g><g transform="translate(-134,-83) scale(1,1)"><path fill="none" stroke="#000000" d="M 336 144 L 426.29443359375 144" stroke-miterlimit="10"/></g><g transform="translate(-134,-83) scale(1,1)"><g><path fill="none" stroke="none"/><text fill="#000000" stroke="none" font-family="Arial" font-size="13px" font-style="normal" font-weight="bold" text-decoration="none" x="369.22314453125" y="115.5">Cue</text></g></g><g transform="translate(-134,-83) scale(1,1)"><g><path fill="none" stroke="none"/><text fill="#000000" stroke="none" font-family="Arial" font-size="13px" font-style="normal" font-weight="normal" text-decoration="none" x="341" y="138.5">-name: String</text></g></g><g transform="translate(-134,-83) scale(1,1)"><rect fill="#ffffff" stroke="none" x="520" y="96" width="124.27978515625" height="102"/></g><g transform="translate(-134,-83) scale(1,1)"><path fill="none" stroke="#000000" d="M 520 96 L 644.27978515625 96 L 644.27978515625 198 L 520 198 L 520 96 Z Z" stroke-miterlimit="10"/></g><g transform="translate(-134,-83) scale(1,1)"><path fill="none" stroke="#000000" d="M 520 121 L 644.27978515625 121" stroke-miterlimit="10"/></g><g transform="translate(-134,-83) scale(1,1)"><path fill="none" stroke="#000000" d="M 520 189 L 644.27978515625 189" stroke-miterlimit="10"/></g><g transform="translate(-134,-83) scale(1,1)"><g><path fill="none" stroke="none"/><text fill="#000000" stroke="none" font-family="Arial" font-size="13px" font-style="normal" font-weight="bold" text-decoration="none" x="556.84765625" y="115.5">CueRole</text></g></g><g transform="translate(-134,-83) scale(1,1)"><g><path fill="none" stroke="none"/><text fill="#000000" stroke="none" font-family="Arial" font-size="13px" font-style="normal" font-weight="normal" text-decoration="none" x="525" y="138.5">-name: String</text></g></g><g transform="translate(-134,-83) scale(1,1)"><g><path fill="none" stroke="none"/><text fill="#000000" stroke="none" font-family="Arial" font-size="13px" font-style="normal" font-weight="normal" text-decoration="none" x="525" y="153.5">-content: String</text></g></g><g transform="translate(-134,-83) scale(1,1)"><g><path fill="none" stroke="none"/><text fill="#000000" stroke="none" font-family="Arial" font-size="13px" font-style="normal" font-weight="normal" text-decoration="none" x="525" y="168.5">-definition: String</text></g></g><g transform="translate(-134,-83) scale(1,1)"><g><path fill="none" stroke="none"/><text fill="#000000" stroke="none" font-family="Arial" font-size="13px" font-style="normal" font-weight="normal" text-decoration="none" x="525" y="183.5">-disregard: boolean</text></g></g><g transform="translate(-134,-83) scale(1,1)"><path fill="none" stroke="#000000" d="M 520 112 L 426 112" stroke-miterlimit="10"/></g><g transform="translate(-134,-83) scale(1,1)"><path fill="#000000" stroke="none" d="M 436.16267485762415 107.79048224398402 L 426 112 L 436.16267485762415 116.20951775601598 L 448 112"/></g><g transform="translate(-134,-83) scale(1,1)"><path fill="none" stroke="#000000" d="M 436.16267485762415 107.79048224398402 L 426 112 L 436.16267485762415 116.20951775601598 L 448 112 L 436.16267485762415 107.79048224398402" stroke-miterlimit="10"/></g><g transform="translate(-134,-83) scale(1,1)"><g><path fill="none" stroke="none"/><text fill="#000000" stroke="none" font-family="Arial" font-size="13px" font-style="normal" font-weight="normal" text-decoration="none" x="478.13134765625" y="132.5">-roles</text></g></g><g transform="translate(-134,-83) scale(1,1)"><g><path fill="none" stroke="none"/><text fill="#000000" stroke="none" font-family="Arial" font-size="13px" font-style="normal" font-weight="normal" text-decoration="none" x="488.5" y="105.5">1..*</text></g></g><g transform="translate(-134,-83) scale(1,1)"><rect fill="#ffffff" stroke="none" x="144" y="96" width="90.29443359375" height="57"/></g><g transform="translate(-134,-83) scale(1,1)"><path fill="none" stroke="#000000" d="M 144 96 L 234.29443359375 96 L 234.29443359375 153 L 144 153 L 144 96 Z Z" stroke-miterlimit="10"/></g><g transform="translate(-134,-83) scale(1,1)"><path fill="none" stroke="#000000" d="M 144 121 L 234.29443359375 121" stroke-miterlimit="10"/></g><g transform="translate(-134,-83) scale(1,1)"><path fill="none" stroke="#000000" d="M 144 144 L 234.29443359375 144" stroke-miterlimit="10"/></g><g transform="translate(-134,-83) scale(1,1)"><g><path fill="none" stroke="none"/><text fill="#000000" stroke="none" font-family="Arial" font-size="13px" font-style="normal" font-weight="bold" text-decoration="none" x="156.266357421875" y="115.5">CuePattern</text></g></g><g transform="translate(-134,-83) scale(1,1)"><g><path fill="none" stroke="none"/><text fill="#000000" stroke="none" font-family="Arial" font-size="13px" font-style="normal" font-weight="normal" text-decoration="none" x="149" y="138.5">-name: String</text></g></g><g transform="translate(-134,-83) scale(1,1)"><path fill="none" stroke="#000000" d="M 336 112 L 234 112" stroke-miterlimit="10"/></g><g transform="translate(-134,-83) scale(1,1)"><path fill="#000000" stroke="none" d="M 244.16267485762415 107.79048224398402 L 234 112 L 244.16267485762415 116.20951775601598 L 256 112"/></g><g transform="translate(-134,-83) scale(1,1)"><path fill="none" stroke="#000000" d="M 244.16267485762415 107.79048224398402 L 234 112 L 244.16267485762415 116.20951775601598 L 256 112 L 244.16267485762415 107.79048224398402" stroke-miterlimit="10"/></g><g transform="translate(-134,-83) scale(1,1)"><g><path fill="none" stroke="none"/><text fill="#000000" stroke="none" font-family="Arial" font-size="13px" font-style="normal" font-weight="normal" text-decoration="none" x="294.13134765625" y="132.5">-cues</text></g></g><g transform="translate(-134,-83) scale(1,1)"><g><path fill="none" stroke="none"/><text fill="#000000" stroke="none" font-family="Arial" font-size="13px" font-style="normal" font-weight="normal" text-decoration="none" x="304.5" y="105.5">1..*</text></g></g><g transform="translate(-134,-83) scale(1,1)"><rect fill="#ffffff" stroke="none" x="536" y="265" width="95.72802734375" height="47"/></g><g transform="translate(-134,-83) scale(1,1)"><path fill="none" stroke="#000000" d="M 536 265 L 631.72802734375 265 L 631.72802734375 312 L 536 312 L 536 265 Z Z" stroke-miterlimit="10"/></g><g transform="translate(-134,-83) scale(1,1)"><path fill="none" stroke="#000000" d="M 536 303 L 631.72802734375 303" stroke-miterlimit="10"/></g><g transform="translate(-134,-83) scale(1,1)"><g><path fill="none" stroke="none"/><text fill="#000000" stroke="none" font-family="Arial" font-size="13px" font-style="normal" font-weight="normal" text-decoration="none" x="540.5" y="282.5">«enumeration»</text></g></g><g transform="translate(-134,-83) scale(1,1)"><g><path fill="none" stroke="none"/><text fill="#000000" stroke="none" font-family="Arial" font-size="13px" font-style="normal" font-weight="bold" text-decoration="none" x="553.15087890625" y="297.5">EventType</text></g></g><g transform="translate(-134,-83) scale(1,1)"><path fill="none" stroke="#000000" d="M 582 198 L 582 265" stroke-miterlimit="10"/></g><g transform="translate(-134,-83) scale(1,1)"><path fill="none" stroke="#000000" d="M 577.790482243984 254.83732514237585 L 582 265 L 586.209517756016 254.83732514237585" stroke-miterlimit="10"/></g><g transform="translate(-134,-83) scale(1,1)"><g><path fill="none" stroke="none"/><text fill="#000000" stroke="none" font-family="Arial" font-size="13px" font-style="normal" font-weight="normal" text-decoration="none" x="592.13134765625" y="254.5">-event</text></g></g><g transform="translate(-134,-83) scale(1,1)"><g><path fill="none" stroke="none"/><text fill="#000000" stroke="none" font-family="Arial" font-size="13px" font-style="normal" font-weight="normal" text-decoration="none" x="550.5" y="253.5">0..1</text></g></g><g transform="translate(-134,-83) scale(1,1)"><rect fill="#ffffff" stroke="none" x="320" y="240" width="115.58349609375" height="72"/></g><g transform="translate(-134,-83) scale(1,1)"><path fill="none" stroke="#000000" d="M 320 240 L 435.58349609375 240 L 435.58349609375 312 L 320 312 L 320 240 Z Z" stroke-miterlimit="10"/></g><g transform="translate(-134,-83) scale(1,1)"><path fill="none" stroke="#000000" d="M 320 265 L 435.58349609375 265" stroke-miterlimit="10"/></g><g transform="translate(-134,-83) scale(1,1)"><path fill="none" stroke="#000000" d="M 320 303 L 435.58349609375 303" stroke-miterlimit="10"/></g><g transform="translate(-134,-83) scale(1,1)"><g><path fill="none" stroke="none"/><text fill="#000000" stroke="none" font-family="Arial" font-size="13px" font-style="normal" font-weight="bold" text-decoration="none" x="331.904541015625" y="259.5">GeneratorEvent</text></g></g><g transform="translate(-134,-83) scale(1,1)"><g><path fill="none" stroke="none"/><text fill="#000000" stroke="none" font-family="Arial" font-size="13px" font-style="normal" font-weight="normal" text-decoration="none" x="325" y="282.5">-key: String</text></g></g><g transform="translate(-134,-83) scale(1,1)"><g><path fill="none" stroke="none"/><text fill="#000000" stroke="none" font-family="Arial" font-size="13px" font-style="normal" font-weight="normal" text-decoration="none" x="325" y="297.5">-ownerKey: String</text></g></g><g transform="translate(-134,-83) scale(1,1)"><path fill="none" stroke="#000000" d="M 436 291 L 536 291" stroke-miterlimit="10"/></g><g transform="translate(-134,-83) scale(1,1)"><path fill="none" stroke="#000000" d="M 525.8373251423759 295.209517756016 L 536 291 L 525.8373251423758 286.790482243984" stroke-miterlimit="10"/></g><g transform="translate(-134,-83) scale(1,1)"><g><path fill="none" stroke="none"/><text fill="#000000" stroke="none" font-family="Arial" font-size="13px" font-style="normal" font-weight="normal" text-decoration="none" x="495.13134765625" y="282.5">-type</text></g></g><g transform="translate(-134,-83) scale(1,1)"><path fill="none" stroke="#000000" d="M 436 248 L 536 248 L 536 198" stroke-miterlimit="10"/></g><g transform="translate(-134,-83) scale(1,1)"><path fill="none" stroke="#000000" d="M 540.209517756016 208.16267485762415 L 536 198 L 531.790482243984 208.16267485762415" stroke-miterlimit="10"/></g><g transform="translate(-134,-83) scale(1,1)"><g><path fill="none" stroke="none"/><text fill="#000000" stroke="none" font-family="Arial" font-size="13px" font-style="normal" font-weight="normal" text-decoration="none" x="505.13134765625" y="214.5">-role</text></g></g></g></svg>