<svg xmlns="http://www.w3.org/2000/svg" xmlns:xlink="http://www.w3.org/1999/xlink" xmlns:lucid="lucid" width="1212.5" height="309"><g transform="translate(-80 -272)" lucid:page-tab-id="F64qepHYZeBo"><path d="M0 0h1760v1360H0z" fill="#fff"/><path d="M100 299c0-3.3 2.7-6 6-6h148c3.3 0 6 2.7 6 6v48c0 3.3-2.7 6-6 6H106c-3.3 0-6-2.7-6-6z" fill="none"/><use xlink:href="#a" transform="matrix(1,0,0,1,100,293) translate(18.33333333333333 34.44444444444444)"/><use xlink:href="#b" transform="matrix(1,0,0,1,100,293) translate(73.88888888888889 34.44444444444444)"/><path d="M400 359c0-3.3 2.7-6 6-6h148c3.3 0 6 2.7 6 6v48c0 3.3-2.7 6-6 6H406c-3.3 0-6-2.7-6-6z" stroke="#5e5e5e" stroke-width="3" fill="#ccc"/><path d="M360 368c0-3.3 2.7-6 6-6h108c3.3 0 6 2.7 6 6v28c0 3.3-2.7 6-6 6H366c-3.3 0-6-2.7-6-6z" stroke="#5e5e5e" stroke-width="3" fill="#fff"/><use xlink:href="#c" transform="matrix(1,0,0,1,365,367) translate(30.95679012345679 19.71527777777778)"/><path d="M700 359c0-3.3 2.7-6 6-6h148c3.3 0 6 2.7 6 6v48c0 3.3-2.7 6-6 6H706c-3.3 0-6-2.7-6-6z" stroke="#5e5e5e" stroke-width="3" fill="#b2b2b2"/><path d="M660 368c0-3.3 2.7-6 6-6h108c3.3 0 6 2.7 6 6v28c0 3.3-2.7 6-6 6H666c-3.3 0-6-2.7-6-6z" stroke="#5e5e5e" stroke-width="3" fill="#fff"/><use xlink:href="#d" transform="matrix(1,0,0,1,665,367) translate(26.851851851851855 19.71527777777778)"/><path d="M1040 358c0-3.3 2.7-6 6-6h148c3.3 0 6 2.7 6 6v48c0 3.3-2.7 6-6 6h-148c-3.3 0-6-2.7-6-6z" stroke="#5e5e5e" stroke-width="3" fill="#ccc"/><path d="M1000 367c0-3.3 2.7-6 6-6h108c3.3 0 6 2.7 6 6v28c0 3.3-2.7 6-6 6h-108c-3.3 0-6-2.7-6-6z" stroke="#5e5e5e" stroke-width="3" fill="#fff"/><use xlink:href="#c" transform="matrix(1,0,0,1,1005,366) translate(30.95679012345679 19.71527777777778)"/><path d="M400 507c0-3.3 2.7-6 6-6h148c3.3 0 6 2.7 6 6v48c0 3.3-2.7 6-6 6H406c-3.3 0-6-2.7-6-6zM700 507c0-3.3 2.7-6 6-6h148c3.3 0 6 2.7 6 6v48c0 3.3-2.7 6-6 6H706c-3.3 0-6-2.7-6-6z" stroke="#5e5e5e" stroke-width="3" fill="#ccc"/><path d="M780 515c0-3.3 2.7-6 6-6h108c3.3 0 6 2.7 6 6v28c0 3.3-2.7 6-6 6H786c-3.3 0-6-2.7-6-6z" stroke="#5e5e5e" stroke-width="3" fill="#fff"/><use xlink:href="#d" transform="matrix(1,0,0,1,785,514) translate(26.851851851851855 19.71527777777778)"/><path d="M1040 506c0-3.3 2.7-6 6-6h148c3.3 0 6 2.7 6 6v48c0 3.3-2.7 6-6 6h-148c-3.3 0-6-2.7-6-6z" stroke="#5e5e5e" stroke-width="3" fill="#b2b2b2"/><path d="M1120 515c0-3.3 2.7-6 6-6h108c3.3 0 6 2.7 6 6v28c0 3.3-2.7 6-6 6h-108c-3.3 0-6-2.7-6-6z" stroke="#5e5e5e" stroke-width="3" fill="#fff"/><use xlink:href="#c" transform="matrix(1,0,0,1,1125,514) translate(30.95679012345679 19.71527777777778)"/><path d="M100 359c0-3.3 2.7-6 6-6h148c3.3 0 6 2.7 6 6v48c0 3.3-2.7 6-6 6H106c-3.3 0-6-2.7-6-6z" stroke="#5e5e5e" stroke-width="3" fill="#ccc"/><path d="M262.5 383H340" stroke="#5e5e5e" stroke-width="2" fill="none"/><path d="M262.53 384h-1.03v-2h1.03z" fill="#5e5e5e"/><path d="M355.26 383L341 387.64v-9.28z" stroke="#5e5e5e" stroke-width="2" fill="#5e5e5e"/><path d="M562.5 383H640" stroke="#5e5e5e" stroke-width="2" fill="none"/><path d="M562.53 384h-1.03v-2h1.03z" fill="#5e5e5e"/><path d="M655.26 383L641 387.64v-9.28z" stroke="#5e5e5e" stroke-width="2" fill="#5e5e5e"/><path d="M862.5 383H980" stroke="#5e5e5e" stroke-width="2" fill="none"/><path d="M862.53 384h-1.03v-2h1.03z" fill="#5e5e5e"/><path d="M995.26 383L981 387.64v-9.28z" stroke="#5e5e5e" stroke-width="2" fill="#5e5e5e"/><path d="M1202.5 382h73c3.3 0 6 2.7 6 6v135c0 3.3-2.7 6-6 6H1260" stroke="#5e5e5e" stroke-width="2" fill="none"/><path d="M1202.53 383h-1.03v-2h1.03z" fill="#5e5e5e"/><path d="M1244.74 529l14.26-4.64v9.28z" stroke="#5e5e5e" stroke-width="2" fill="#5e5e5e"/><path d="M1037.5 530H920" stroke="#5e5e5e" stroke-width="2" fill="none"/><path d="M1038.5 531h-1.03v-2h1.03z" fill="#5e5e5e"/><path d="M904.74 530l14.26-4.64v9.28z" stroke="#5e5e5e" stroke-width="2" fill="#5e5e5e"/><path d="M697.5 531H580" stroke="#5e5e5e" stroke-width="2" fill="none"/><path d="M698.5 532h-1.03v-2h1.03z" fill="#5e5e5e"/><path d="M564.74 531l14.26-4.64v9.28z" stroke="#5e5e5e" stroke-width="2" fill="#5e5e5e"/><path d="M400 299c0-3.3 2.7-6 6-6h148c3.3 0 6 2.7 6 6v48c0 3.3-2.7 6-6 6H406c-3.3 0-6-2.7-6-6z" fill="none"/><use xlink:href="#e" transform="matrix(1,0,0,1,400,293) translate(46.17283950617284 34.44444444444444)"/><use xlink:href="#f" transform="matrix(1,0,0,1,400,293) translate(101.48148148148148 34.44444444444444)"/><path d="M700 298c0-3.3 2.7-6 6-6h148c3.3 0 6 2.7 6 6v48c0 3.3-2.7 6-6 6H706c-3.3 0-6-2.7-6-6z" fill="none"/><use xlink:href="#g" transform="matrix(1,0,0,1,700,292) translate(48.54938271604939 34.44444444444444)"/><use xlink:href="#f" transform="matrix(1,0,0,1,700,292) translate(99.10493827160494 34.44444444444444)"/><path d="M1040 298c0-3.3 2.7-6 6-6h148c3.3 0 6 2.7 6 6v48c0 3.3-2.7 6-6 6h-148c-3.3 0-6-2.7-6-6z" fill="none"/><use xlink:href="#e" transform="matrix(1,0,0,1,1040,292) translate(46.17283950617284 34.44444444444444)"/><use xlink:href="#h" transform="matrix(1,0,0,1,1040,292) translate(101.48148148148148 34.44444444444444)"/><path d="M1040 447c0-3.3 2.7-6 6-6h148c3.3 0 6 2.7 6 6v48c0 3.3-2.7 6-6 6h-148c-3.3 0-6-2.7-6-6z" fill="none"/><use xlink:href="#g" transform="matrix(1,0,0,1,1040,441) translate(36.88271604938272 34.44444444444444)"/><use xlink:href="#i" transform="matrix(1,0,0,1,1040,441) translate(87.43827160493828 34.44444444444444)"/><path d="M700 447c0-3.3 2.7-6 6-6h148c3.3 0 6 2.7 6 6v48c0 3.3-2.7 6-6 6H706c-3.3 0-6-2.7-6-6z" fill="none"/><g><use xlink:href="#e" transform="matrix(1,0,0,1,700,441) translate(44.351851851851855 34.44444444444444)"/><use xlink:href="#j" transform="matrix(1,0,0,1,700,441) translate(99.6604938271605 34.44444444444444)"/></g><path d="M400 447c0-3.3 2.7-6 6-6h148c3.3 0 6 2.7 6 6v48c0 3.3-2.7 6-6 6H406c-3.3 0-6-2.7-6-6z" fill="none"/><g><use xlink:href="#k" transform="matrix(1,0,0,1,400,441) translate(9.691358024691368 34.44444444444444)"/><use xlink:href="#b" transform="matrix(1,0,0,1,400,441) translate(82.53086419753086 34.44444444444444)"/></g><defs><path fill="#333" d="M33 0v-248h34V0H33" id="l"/><path fill="#333" d="M117-194c89-4 53 116 60 194h-32v-121c0-31-8-49-39-48C34-167 62-67 57 0H25l-1-190h30c1 10-1 24 2 32 11-22 29-35 61-36" id="m"/><path fill="#333" d="M115-194c55 1 70 41 70 98S169 2 115 4C84 4 66-9 55-30l1 105H24l-1-265h31l2 30c10-21 28-34 59-34zm-8 174c40 0 45-34 45-75s-6-73-45-74c-42 0-51 32-51 76 0 43 10 73 51 73" id="n"/><path fill="#333" d="M84 4C-5 8 30-112 23-190h32v120c0 31 7 50 39 49 72-2 45-101 50-169h31l1 190h-30c-1-10 1-25-2-33-11 22-28 36-60 37" id="o"/><path fill="#333" d="M59-47c-2 24 18 29 38 22v24C64 9 27 4 27-40v-127H5v-23h24l9-43h21v43h35v23H59v120" id="p"/><g id="a"><use transform="matrix(0.06172839506172839,0,0,0.06172839506172839,0,0)" xlink:href="#l"/><use transform="matrix(0.06172839506172839,0,0,0.06172839506172839,6.172839506172839,0)" xlink:href="#m"/><use transform="matrix(0.06172839506172839,0,0,0.06172839506172839,18.51851851851852,0)" xlink:href="#n"/><use transform="matrix(0.06172839506172839,0,0,0.06172839506172839,30.864197530864196,0)" xlink:href="#o"/><use transform="matrix(0.06172839506172839,0,0,0.06172839506172839,43.20987654320987,0)" xlink:href="#p"/></g><path fill="#333" d="M30-248c118-7 216 8 213 122C240-48 200 0 122 0H30v-248zM63-27c89 8 146-16 146-99s-60-101-146-95v194" id="q"/><path fill="#333" d="M100-194c63 0 86 42 84 106H49c0 40 14 67 53 68 26 1 43-12 49-29l28 8c-11 28-37 45-77 45C44 4 14-33 15-96c1-61 26-98 85-98zm52 81c6-60-76-77-97-28-3 7-6 17-6 28h103" id="r"/><path fill="#333" d="M108 0H70L1-190h34L89-25l56-165h34" id="s"/><path fill="#333" d="M24-231v-30h32v30H24zM24 0v-190h32V0H24" id="t"/><path fill="#333" d="M96-169c-40 0-48 33-48 73s9 75 48 75c24 0 41-14 43-38l32 2c-6 37-31 61-74 61-59 0-76-41-82-99-10-93 101-131 147-64 4 7 5 14 7 22l-32 3c-4-21-16-35-41-35" id="u"/><g id="b"><use transform="matrix(0.06172839506172839,0,0,0.06172839506172839,0,0)" xlink:href="#q"/><use transform="matrix(0.06172839506172839,0,0,0.06172839506172839,15.987654320987653,0)" xlink:href="#r"/><use transform="matrix(0.06172839506172839,0,0,0.06172839506172839,28.333333333333332,0)" xlink:href="#s"/><use transform="matrix(0.06172839506172839,0,0,0.06172839506172839,39.44444444444444,0)" xlink:href="#t"/><use transform="matrix(0.06172839506172839,0,0,0.06172839506172839,44.32098765432099,0)" xlink:href="#u"/><use transform="matrix(0.06172839506172839,0,0,0.06172839506172839,55.4320987654321,0)" xlink:href="#r"/></g><g id="c"><use transform="matrix(0.06172839506172839,0,0,0.06172839506172839,0,0)" xlink:href="#t"/><use transform="matrix(0.06172839506172839,0,0,0.06172839506172839,4.876543209876543,0)" xlink:href="#m"/><use transform="matrix(0.06172839506172839,0,0,0.06172839506172839,17.22222222222222,0)" xlink:href="#n"/><use transform="matrix(0.06172839506172839,0,0,0.06172839506172839,29.5679012345679,0)" xlink:href="#o"/><use transform="matrix(0.06172839506172839,0,0,0.06172839506172839,41.913580246913575,0)" xlink:href="#p"/></g><path fill="#333" d="M115-194c53 0 69 39 70 98 0 66-23 100-70 100C84 3 66-7 56-30L54 0H23l1-261h32v101c10-23 28-34 59-34zm-8 174c40 0 45-34 45-75 0-40-5-75-45-74-42 0-51 32-51 76 0 43 10 73 51 73" id="v"/><path fill="#333" d="M101-234c-31-9-42 10-38 44h38v23H63V0H32v-167H5v-23h27c-7-52 17-82 69-68v24" id="w"/><path fill="#333" d="M114-163C36-179 61-72 57 0H25l-1-190h30c1 12-1 29 2 39 6-27 23-49 58-41v29" id="x"/><g id="d"><use transform="matrix(0.06172839506172839,0,0,0.06172839506172839,0,0)" xlink:href="#v"/><use transform="matrix(0.06172839506172839,0,0,0.06172839506172839,12.345679012345679,0)" xlink:href="#o"/><use transform="matrix(0.06172839506172839,0,0,0.06172839506172839,24.691358024691358,0)" xlink:href="#w"/><use transform="matrix(0.06172839506172839,0,0,0.06172839506172839,30.432098765432098,0)" xlink:href="#w"/><use transform="matrix(0.06172839506172839,0,0,0.06172839506172839,36.60493827160494,0)" xlink:href="#r"/><use transform="matrix(0.06172839506172839,0,0,0.06172839506172839,48.95061728395061,0)" xlink:href="#x"/></g><path fill="#333" d="M63-220v92h138v28H63V0H30v-248h175v28H63" id="y"/><path fill="#333" d="M24 0v-261h32V0H24" id="z"/><g id="e"><use transform="matrix(0.06172839506172839,0,0,0.06172839506172839,0,0)" xlink:href="#y"/><use transform="matrix(0.06172839506172839,0,0,0.06172839506172839,13.518518518518517,0)" xlink:href="#t"/><use transform="matrix(0.06172839506172839,0,0,0.06172839506172839,18.39506172839506,0)" xlink:href="#z"/><use transform="matrix(0.06172839506172839,0,0,0.06172839506172839,23.2716049382716,0)" xlink:href="#p"/><use transform="matrix(0.06172839506172839,0,0,0.06172839506172839,29.44444444444444,0)" xlink:href="#r"/><use transform="matrix(0.06172839506172839,0,0,0.06172839506172839,41.79012345679012,0)" xlink:href="#x"/></g><path fill="#333" d="M27 0v-27h64v-190l-56 39v-29l58-41h29v221h61V0H27" id="A"/><use transform="matrix(0.06172839506172839,0,0,0.06172839506172839,0,0)" xlink:href="#A" id="f"/><path fill="#333" d="M30-248c87 1 191-15 191 75 0 78-77 80-158 76V0H30v-248zm33 125c57 0 124 11 124-50 0-59-68-47-124-48v98" id="B"/><g id="g"><use transform="matrix(0.06172839506172839,0,0,0.06172839506172839,0,0)" xlink:href="#B"/><use transform="matrix(0.06172839506172839,0,0,0.06172839506172839,14.814814814814813,0)" xlink:href="#t"/><use transform="matrix(0.06172839506172839,0,0,0.06172839506172839,19.691358024691354,0)" xlink:href="#n"/><use transform="matrix(0.06172839506172839,0,0,0.06172839506172839,32.03703703703703,0)" xlink:href="#r"/></g><path fill="#333" d="M101-251c82-7 93 87 43 132L82-64C71-53 59-42 53-27h129V0H18c2-99 128-94 128-182 0-28-16-43-45-43s-46 15-49 41l-32-3c6-41 34-60 81-64" id="C"/><use transform="matrix(0.06172839506172839,0,0,0.06172839506172839,0,0)" xlink:href="#C" id="h"/><path fill="#333" d="M190 0L58-211 59 0H30v-248h39L202-35l-2-213h31V0h-41" id="D"/><path fill="#333" d="M16-82v-28h88v28H16" id="E"/><g id="i"><use transform="matrix(0.06172839506172839,0,0,0.06172839506172839,0,0)" xlink:href="#D"/><use transform="matrix(0.06172839506172839,0,0,0.06172839506172839,15.987654320987653,0)" xlink:href="#E"/><use transform="matrix(0.06172839506172839,0,0,0.06172839506172839,23.333333333333332,0)" xlink:href="#A"/></g><use transform="matrix(0.06172839506172839,0,0,0.06172839506172839,0,0)" xlink:href="#D" id="j"/><path fill="#333" d="M140-251c81 0 123 46 123 126C263-46 219 4 140 4 59 4 17-45 17-125s42-126 123-126zm0 227c63 0 89-41 89-101s-29-99-89-99c-61 0-89 39-89 99S79-25 140-24" id="F"/><g id="k"><use transform="matrix(0.06172839506172839,0,0,0.06172839506172839,0,0)" xlink:href="#F"/><use transform="matrix(0.06172839506172839,0,0,0.06172839506172839,17.28395061728395,0)" xlink:href="#o"/><use transform="matrix(0.06172839506172839,0,0,0.06172839506172839,29.629629629629626,0)" xlink:href="#p"/><use transform="matrix(0.06172839506172839,0,0,0.06172839506172839,35.80246913580247,0)" xlink:href="#n"/><use transform="matrix(0.06172839506172839,0,0,0.06172839506172839,48.148148148148145,0)" xlink:href="#o"/><use transform="matrix(0.06172839506172839,0,0,0.06172839506172839,60.49382716049382,0)" xlink:href="#p"/></g></defs></g></svg>