<svg version="1.1" xmlns="http://www.w3.org/2000/svg" xmlns:xlink="http://www.w3.org/1999/xlink" width="957" height="628"><defs/><g><g transform="translate(-62,-6) scale(1,1)"><rect fill="#ffffff" stroke="none" x="72" y="16" width="218.16162109375" height="85"/></g><g transform="translate(-62,-6) scale(1,1)"><path fill="none" stroke="#000000" d="M 72 16 L 290.16162109375 16 L 290.16162109375 101 L 72 101 L 72 16 Z Z" stroke-miterlimit="10"/></g><g transform="translate(-62,-6) scale(1,1)"><path fill="none" stroke="#000000" d="M 72 41 L 290.16162109375 41" stroke-miterlimit="10"/></g><g transform="translate(-62,-6) scale(1,1)"><path fill="none" stroke="#000000" d="M 72 79 L 290.16162109375 79" stroke-miterlimit="10"/></g><g transform="translate(-62,-6) scale(1,1)"><g><path fill="none" stroke="none"/><text fill="#000000" stroke="none" font-family="Arial" font-size="13px" font-style="normal" font-weight="bold" text-decoration="none" x="129.4140625" y="35.5">DetectionStrategy</text></g></g><g transform="translate(-62,-6) scale(1,1)"><g><path fill="none" stroke="none"/><text fill="#000000" stroke="none" font-family="Arial" font-size="13px" font-style="normal" font-weight="normal" text-decoration="none" x="77" y="58.5">-name: String</text></g></g><g transform="translate(-62,-6) scale(1,1)"><g><path fill="none" stroke="none"/><text fill="#000000" stroke="none" font-family="Arial" font-size="13px" font-style="normal" font-weight="normal" text-decoration="none" x="77" y="73.5">-description: String</text></g></g><g transform="translate(-62,-6) scale(1,1)"><g><path fill="none" stroke="none"/><text fill="#000000" stroke="none" font-family="Arial" font-size="13px" font-style="normal" font-weight="normal" text-decoration="none" x="77" y="96.5">+detect(sys: System): Measurable[*]</text></g></g><g transform="translate(-62,-6) scale(1,1)"><rect fill="#ffffff" stroke="none" x="392" y="80" width="138.00341796875" height="70"/></g><g transform="translate(-62,-6) scale(1,1)"><path fill="none" stroke="#000000" d="M 392 80 L 530.00341796875 80 L 530.00341796875 150 L 392 150 L 392 80 Z Z" stroke-miterlimit="10"/></g><g transform="translate(-62,-6) scale(1,1)"><path fill="none" stroke="#000000" d="M 392 105 L 530.00341796875 105" stroke-miterlimit="10"/></g><g transform="translate(-62,-6) scale(1,1)"><path fill="none" stroke="#000000" d="M 392 128 L 530.00341796875 128" stroke-miterlimit="10"/></g><g transform="translate(-62,-6) scale(1,1)"><g><path fill="none" stroke="none"/><text fill="#000000" stroke="none" font-family="Arial" font-size="13px" font-style="italic" font-weight="bold" text-decoration="none" x="446.5576171875" y="99.5">Filter</text></g></g><g transform="translate(-62,-6) scale(1,1)"><g><path fill="none" stroke="none"/><text fill="#000000" stroke="none" font-family="Arial" font-size="13px" font-style="normal" font-weight="normal" text-decoration="none" x="397" y="122.5">#description: String</text></g></g><g transform="translate(-62,-6) scale(1,1)"><g><path fill="none" stroke="none"/><text fill="#000000" stroke="none" font-family="Arial" font-size="13px" font-style="italic" font-weight="normal" text-decoration="none" x="397" y="145.5">+filter(): Measurable[*]</text></g></g><g transform="translate(-62,-6) scale(1,1)"><rect fill="#ffffff" stroke="none" x="360" y="384" width="136.8671875" height="240"/></g><g transform="translate(-62,-6) scale(1,1)"><path fill="none" stroke="#000000" d="M 360 384 L 496.8671875 384 L 496.8671875 624 L 360 624 L 360 384 Z Z" stroke-miterlimit="10"/></g><g transform="translate(-62,-6) scale(1,1)"><path fill="none" stroke="#000000" d="M 360 422 L 496.8671875 422" stroke-miterlimit="10"/></g><g transform="translate(-62,-6) scale(1,1)"><g><path fill="none" stroke="none"/><text fill="#000000" stroke="none" font-family="Arial" font-size="13px" font-style="normal" font-weight="normal" text-decoration="none" x="385.069580078125" y="401.5">«enumeration»</text></g></g><g transform="translate(-62,-6) scale(1,1)"><g><path fill="none" stroke="none"/><text fill="#000000" stroke="none" font-family="Arial" font-size="13px" font-style="normal" font-weight="bold" text-decoration="none" x="369.1845703125" y="416.5">SemanticThresholds</text></g></g><g transform="translate(-62,-6) scale(1,1)"><g><path fill="none" stroke="none"/><text fill="#000000" stroke="none" font-family="Arial" font-size="13px" font-style="normal" font-weight="normal" text-decoration="none" x="365" y="439.5">NONE</text></g></g><g transform="translate(-62,-6) scale(1,1)"><g><path fill="none" stroke="none"/><text fill="#000000" stroke="none" font-family="Arial" font-size="13px" font-style="normal" font-weight="normal" text-decoration="none" x="365" y="454.5">ONE</text></g></g><g transform="translate(-62,-6) scale(1,1)"><g><path fill="none" stroke="none"/><text fill="#000000" stroke="none" font-family="Arial" font-size="13px" font-style="normal" font-weight="normal" text-decoration="none" x="365" y="469.5">SHALLOW</text></g></g><g transform="translate(-62,-6) scale(1,1)"><g><path fill="none" stroke="none"/><text fill="#000000" stroke="none" font-family="Arial" font-size="13px" font-style="normal" font-weight="normal" text-decoration="none" x="365" y="484.5">TWO</text></g></g><g transform="translate(-62,-6) scale(1,1)"><g><path fill="none" stroke="none"/><text fill="#000000" stroke="none" font-family="Arial" font-size="13px" font-style="normal" font-weight="normal" text-decoration="none" x="365" y="499.5">THREE</text></g></g><g transform="translate(-62,-6) scale(1,1)"><g><path fill="none" stroke="none"/><text fill="#000000" stroke="none" font-family="Arial" font-size="13px" font-style="normal" font-weight="normal" text-decoration="none" x="365" y="514.5">FEW</text></g></g><g transform="translate(-62,-6) scale(1,1)"><g><path fill="none" stroke="none"/><text fill="#000000" stroke="none" font-family="Arial" font-size="13px" font-style="normal" font-weight="normal" text-decoration="none" x="365" y="529.5">SEVERAL</text></g></g><g transform="translate(-62,-6) scale(1,1)"><g><path fill="none" stroke="none"/><text fill="#000000" stroke="none" font-family="Arial" font-size="13px" font-style="normal" font-weight="normal" text-decoration="none" x="365" y="544.5">SHORT_MEM_CAP</text></g></g><g transform="translate(-62,-6) scale(1,1)"><g><path fill="none" stroke="none"/><text fill="#000000" stroke="none" font-family="Arial" font-size="13px" font-style="normal" font-weight="normal" text-decoration="none" x="365" y="559.5">ONE_QUARTER</text></g></g><g transform="translate(-62,-6) scale(1,1)"><g><path fill="none" stroke="none"/><text fill="#000000" stroke="none" font-family="Arial" font-size="13px" font-style="normal" font-weight="normal" text-decoration="none" x="365" y="574.5">ONE_THIRD</text></g></g><g transform="translate(-62,-6) scale(1,1)"><g><path fill="none" stroke="none"/><text fill="#000000" stroke="none" font-family="Arial" font-size="13px" font-style="normal" font-weight="normal" text-decoration="none" x="365" y="589.5">HALF</text></g></g><g transform="translate(-62,-6) scale(1,1)"><g><path fill="none" stroke="none"/><text fill="#000000" stroke="none" font-family="Arial" font-size="13px" font-style="normal" font-weight="normal" text-decoration="none" x="365" y="604.5">TWO_THIRDS</text></g></g><g transform="translate(-62,-6) scale(1,1)"><g><path fill="none" stroke="none"/><text fill="#000000" stroke="none" font-family="Arial" font-size="13px" font-style="normal" font-weight="normal" text-decoration="none" x="365" y="619.5">THREE_QUARTERS</text></g></g><g transform="translate(-62,-6) scale(1,1)"><rect fill="#ffffff" stroke="none" x="584" y="488" width="125.34619140625" height="135"/></g><g transform="translate(-62,-6) scale(1,1)"><path fill="none" stroke="#000000" d="M 584 488 L 709.34619140625 488 L 709.34619140625 623 L 584 623 L 584 488 Z Z" stroke-miterlimit="10"/></g><g transform="translate(-62,-6) scale(1,1)"><path fill="none" stroke="#000000" d="M 584 526 L 709.34619140625 526" stroke-miterlimit="10"/></g><g transform="translate(-62,-6) scale(1,1)"><g><path fill="none" stroke="none"/><text fill="#000000" stroke="none" font-family="Arial" font-size="13px" font-style="normal" font-weight="normal" text-decoration="none" x="603.30908203125" y="505.5">«enumeration»</text></g></g><g transform="translate(-62,-6) scale(1,1)"><g><path fill="none" stroke="none"/><text fill="#000000" stroke="none" font-family="Arial" font-size="13px" font-style="normal" font-weight="bold" text-decoration="none" x="602.956787109375" y="520.5">StatThresholds</text></g></g><g transform="translate(-62,-6) scale(1,1)"><g><path fill="none" stroke="none"/><text fill="#000000" stroke="none" font-family="Arial" font-size="13px" font-style="normal" font-weight="normal" text-decoration="none" x="589" y="543.5">VERY_HIGH</text></g></g><g transform="translate(-62,-6) scale(1,1)"><g><path fill="none" stroke="none"/><text fill="#000000" stroke="none" font-family="Arial" font-size="13px" font-style="normal" font-weight="normal" text-decoration="none" x="589" y="558.5">HIGH</text></g></g><g transform="translate(-62,-6) scale(1,1)"><g><path fill="none" stroke="none"/><text fill="#000000" stroke="none" font-family="Arial" font-size="13px" font-style="normal" font-weight="normal" text-decoration="none" x="589" y="573.5">AVERAGE</text></g></g><g transform="translate(-62,-6) scale(1,1)"><g><path fill="none" stroke="none"/><text fill="#000000" stroke="none" font-family="Arial" font-size="13px" font-style="normal" font-weight="normal" text-decoration="none" x="589" y="588.5">STDDEV</text></g></g><g transform="translate(-62,-6) scale(1,1)"><g><path fill="none" stroke="none"/><text fill="#000000" stroke="none" font-family="Arial" font-size="13px" font-style="normal" font-weight="normal" text-decoration="none" x="589" y="603.5">LOW</text></g></g><g transform="translate(-62,-6) scale(1,1)"><g><path fill="none" stroke="none"/><text fill="#000000" stroke="none" font-family="Arial" font-size="13px" font-style="normal" font-weight="normal" text-decoration="none" x="589" y="618.5">VERY_LOW</text></g></g><g transform="translate(-62,-6) scale(1,1)"><rect fill="#ffffff" stroke="none" x="808" y="80" width="125.34619140625" height="135"/></g><g transform="translate(-62,-6) scale(1,1)"><path fill="none" stroke="#000000" d="M 808 80 L 933.34619140625 80 L 933.34619140625 215 L 808 215 L 808 80 Z Z" stroke-miterlimit="10"/></g><g transform="translate(-62,-6) scale(1,1)"><path fill="none" stroke="#000000" d="M 808 118 L 933.34619140625 118" stroke-miterlimit="10"/></g><g transform="translate(-62,-6) scale(1,1)"><g><path fill="none" stroke="none"/><text fill="#000000" stroke="none" font-family="Arial" font-size="13px" font-style="normal" font-weight="normal" text-decoration="none" x="827.30908203125" y="97.5">«enumeration»</text></g></g><g transform="translate(-62,-6) scale(1,1)"><g><path fill="none" stroke="none"/><text fill="#000000" stroke="none" font-family="Arial" font-size="13px" font-style="normal" font-weight="bold" text-decoration="none" x="856.581298828125" y="112.5">Type</text></g></g><g transform="translate(-62,-6) scale(1,1)"><g><path fill="none" stroke="none"/><text fill="#000000" stroke="none" font-family="Arial" font-size="13px" font-style="normal" font-weight="normal" text-decoration="none" x="813" y="135.5">CLASS</text></g></g><g transform="translate(-62,-6) scale(1,1)"><g><path fill="none" stroke="none"/><text fill="#000000" stroke="none" font-family="Arial" font-size="13px" font-style="normal" font-weight="normal" text-decoration="none" x="813" y="150.5">METHOD</text></g></g><g transform="translate(-62,-6) scale(1,1)"><g><path fill="none" stroke="none"/><text fill="#000000" stroke="none" font-family="Arial" font-size="13px" font-style="normal" font-weight="normal" text-decoration="none" x="813" y="165.5">NAMESPACE</text></g></g><g transform="translate(-62,-6) scale(1,1)"><g><path fill="none" stroke="none"/><text fill="#000000" stroke="none" font-family="Arial" font-size="13px" font-style="normal" font-weight="normal" text-decoration="none" x="813" y="180.5">PROJECT</text></g></g><g transform="translate(-62,-6) scale(1,1)"><g><path fill="none" stroke="none"/><text fill="#000000" stroke="none" font-family="Arial" font-size="13px" font-style="normal" font-weight="normal" text-decoration="none" x="813" y="195.5">PATTERN</text></g></g><g transform="translate(-62,-6) scale(1,1)"><g><path fill="none" stroke="none"/><text fill="#000000" stroke="none" font-family="Arial" font-size="13px" font-style="normal" font-weight="normal" text-decoration="none" x="813" y="210.5">FIELD</text></g></g><g transform="translate(-62,-6) scale(1,1)"><rect fill="#ffffff" stroke="none" x="131" y="216" width="107.95361328125" height="44"/></g><g transform="translate(-62,-6) scale(1,1)"><path fill="none" stroke="#000000" d="M 131 216 L 238.95361328125 216 L 238.95361328125 260 L 131 260 L 131 216 Z Z" stroke-miterlimit="10"/></g><g transform="translate(-62,-6) scale(1,1)"><g><path fill="none" stroke="none"/><text fill="#000000" stroke="none" font-family="Arial" font-size="13px" font-style="normal" font-weight="bold" text-decoration="none" x="139.464111328125" y="235.5">CompositeFilter</text></g></g><g transform="translate(-62,-6) scale(1,1)"><rect fill="#ffffff" stroke="none" x="680" y="208" width="116.33251953125" height="72"/></g><g transform="translate(-62,-6) scale(1,1)"><path fill="none" stroke="#000000" d="M 680 208 L 796.33251953125 208 L 796.33251953125 280 L 680 280 L 680 208 Z Z" stroke-miterlimit="10"/></g><g transform="translate(-62,-6) scale(1,1)"><path fill="none" stroke="#000000" d="M 680 233 L 796.33251953125 233" stroke-miterlimit="10"/></g><g transform="translate(-62,-6) scale(1,1)"><path fill="none" stroke="#000000" d="M 680 271 L 796.33251953125 271" stroke-miterlimit="10"/></g><g transform="translate(-62,-6) scale(1,1)"><g><path fill="none" stroke="none"/><text fill="#000000" stroke="none" font-family="Arial" font-size="13px" font-style="normal" font-weight="bold" text-decoration="none" x="698.794921875" y="227.5">MarginalFilter</text></g></g><g transform="translate(-62,-6) scale(1,1)"><g><path fill="none" stroke="none"/><text fill="#000000" stroke="none" font-family="Arial" font-size="13px" font-style="normal" font-weight="normal" text-decoration="none" x="685" y="250.5">#metric: String</text></g></g><g transform="translate(-62,-6) scale(1,1)"><g><path fill="none" stroke="none"/><text fill="#000000" stroke="none" font-family="Arial" font-size="13px" font-style="normal" font-weight="normal" text-decoration="none" x="685" y="265.5">#threshold: double</text></g></g><g transform="translate(-62,-6) scale(1,1)"><rect fill="#ffffff" stroke="none" x="200" y="304" width="87.025390625" height="44"/></g><g transform="translate(-62,-6) scale(1,1)"><path fill="none" stroke="#000000" d="M 200 304 L 287.025390625 304 L 287.025390625 348 L 200 348 L 200 304 Z Z" stroke-miterlimit="10"/></g><g transform="translate(-62,-6) scale(1,1)"><g><path fill="none" stroke="none"/><text fill="#000000" stroke="none" font-family="Arial" font-size="13px" font-style="normal" font-weight="bold" text-decoration="none" x="207.753173828125" y="323.5">IntervalFilter</text></g></g><g transform="translate(-62,-6) scale(1,1)"><rect fill="#ffffff" stroke="none" x="80" y="304" width="100.025390625" height="44"/></g><g transform="translate(-62,-6) scale(1,1)"><path fill="none" stroke="#000000" d="M 80 304 L 180.025390625 304 L 180.025390625 348 L 80 348 L 80 304 Z Z" stroke-miterlimit="10"/></g><g transform="translate(-62,-6) scale(1,1)"><g><path fill="none" stroke="none"/><text fill="#000000" stroke="none" font-family="Arial" font-size="13px" font-style="normal" font-weight="bold" text-decoration="none" x="88.841796875" y="323.5">HistoricalFilter</text></g></g><g transform="translate(-62,-6) scale(1,1)"><path fill="none" stroke="#000000" d="M 128 304 L 128 288 L 184 288 L 184 260" stroke-miterlimit="10"/></g><g transform="translate(-62,-6) scale(1,1)"><path fill="#FFFFFF" stroke="none" d="M 192.41903551203197 280.3253497152483 L 184 260 L 175.58096448796803 280.3253497152483"/></g><g transform="translate(-62,-6) scale(1,1)"><path fill="none" stroke="#000000" d="M 192.41903551203197 280.3253497152483 L 184 260 L 175.58096448796803 280.3253497152483 L 192.41903551203197 280.3253497152483" stroke-miterlimit="10"/></g><g transform="translate(-62,-6) scale(1,1)"><path fill="none" stroke="#000000" d="M 240 304 L 240 288 L 184 288 L 184 260" stroke-miterlimit="10"/></g><g transform="translate(-62,-6) scale(1,1)"><path fill="#FFFFFF" stroke="none" d="M 192.41903551203197 280.3253497152483 L 184 260 L 175.58096448796803 280.3253497152483"/></g><g transform="translate(-62,-6) scale(1,1)"><path fill="none" stroke="#000000" d="M 192.41903551203197 280.3253497152483 L 184 260 L 175.58096448796803 280.3253497152483 L 192.41903551203197 280.3253497152483" stroke-miterlimit="10"/></g><g transform="translate(-62,-6) scale(1,1)"><path fill="none" stroke="#000000" d="M 208 216 L 208 184 L 457 184 L 457 150" stroke-miterlimit="10"/></g><g transform="translate(-62,-6) scale(1,1)"><path fill="#FFFFFF" stroke="none" d="M 465.419035512032 170.3253497152483 L 457 150 L 448.580964487968 170.3253497152483"/></g><g transform="translate(-62,-6) scale(1,1)"><path fill="none" stroke="#000000" d="M 465.419035512032 170.3253497152483 L 457 150 L 448.580964487968 170.3253497152483 L 465.419035512032 170.3253497152483" stroke-miterlimit="10"/></g><g transform="translate(-62,-6) scale(1,1)"><path fill="none" stroke="#000000" d="M 736 208 L 736 184 L 457 184 L 457 150" stroke-miterlimit="10"/></g><g transform="translate(-62,-6) scale(1,1)"><path fill="#FFFFFF" stroke="none" d="M 465.419035512032 170.3253497152483 L 457 150 L 448.580964487968 170.3253497152483"/></g><g transform="translate(-62,-6) scale(1,1)"><path fill="none" stroke="#000000" d="M 465.419035512032 170.3253497152483 L 457 150 L 448.580964487968 170.3253497152483 L 465.419035512032 170.3253497152483" stroke-miterlimit="10"/></g><g transform="translate(-62,-6) scale(1,1)"><path fill="none" stroke="#000000" d="M 408 216 L 408 184 L 457 184 L 457 150" stroke-miterlimit="10"/></g><g transform="translate(-62,-6) scale(1,1)"><path fill="#FFFFFF" stroke="none" d="M 465.419035512032 170.3253497152483 L 457 150 L 448.580964487968 170.3253497152483"/></g><g transform="translate(-62,-6) scale(1,1)"><path fill="none" stroke="#000000" d="M 465.419035512032 170.3253497152483 L 457 150 L 448.580964487968 170.3253497152483 L 465.419035512032 170.3253497152483" stroke-miterlimit="10"/></g><g transform="translate(-62,-6) scale(1,1)"><rect fill="#ffffff" stroke="none" x="616" y="328" width="102.1962890625" height="44"/></g><g transform="translate(-62,-6) scale(1,1)"><path fill="none" stroke="#000000" d="M 616 328 L 718.1962890625 328 L 718.1962890625 372 L 616 372 L 616 328 Z Z" stroke-miterlimit="10"/></g><g transform="translate(-62,-6) scale(1,1)"><g><path fill="none" stroke="none"/><text fill="#000000" stroke="none" font-family="Arial" font-size="13px" font-style="normal" font-weight="bold" text-decoration="none" x="624.838623046875" y="347.5">StatisticalFilter</text></g></g><g transform="translate(-62,-6) scale(1,1)"><rect fill="#ffffff" stroke="none" x="752" y="328" width="109.42626953125" height="44"/></g><g transform="translate(-62,-6) scale(1,1)"><path fill="none" stroke="#000000" d="M 752 328 L 861.42626953125 328 L 861.42626953125 372 L 752 372 L 752 328 Z Z" stroke-miterlimit="10"/></g><g transform="translate(-62,-6) scale(1,1)"><g><path fill="none" stroke="none"/><text fill="#000000" stroke="none" font-family="Arial" font-size="13px" font-style="italic" font-weight="bold" text-decoration="none" x="760.114990234375" y="347.5">SemanticalFilter</text></g></g><g transform="translate(-62,-6) scale(1,1)"><rect fill="#ffffff" stroke="none" x="632" y="424" width="159.287109375" height="44"/></g><g transform="translate(-62,-6) scale(1,1)"><path fill="none" stroke="#000000" d="M 632 424 L 791.287109375 424 L 791.287109375 468 L 632 468 L 632 424 Z Z" stroke-miterlimit="10"/></g><g transform="translate(-62,-6) scale(1,1)"><g><path fill="none" stroke="none"/><text fill="#000000" stroke="none" font-family="Arial" font-size="13px" font-style="normal" font-weight="bold" text-decoration="none" x="641.562255859375" y="443.5">RelativeSemanticalFilter</text></g></g><g transform="translate(-62,-6) scale(1,1)"><rect fill="#ffffff" stroke="none" x="824" y="424" width="165.0380859375" height="44"/></g><g transform="translate(-62,-6) scale(1,1)"><path fill="none" stroke="#000000" d="M 824 424 L 989.0380859375 424 L 989.0380859375 468 L 824 468 L 824 424 Z Z" stroke-miterlimit="10"/></g><g transform="translate(-62,-6) scale(1,1)"><g><path fill="none" stroke="none"/><text fill="#000000" stroke="none" font-family="Arial" font-size="13px" font-style="normal" font-weight="bold" text-decoration="none" x="834.62548828125" y="443.5">AbsoluteSemanticalFilter</text></g></g><g transform="translate(-62,-6) scale(1,1)"><path fill="none" stroke="#000000" d="M 712 424 L 712 408 L 808 408 L 808 372" stroke-miterlimit="10"/></g><g transform="translate(-62,-6) scale(1,1)"><path fill="#FFFFFF" stroke="none" d="M 816.419035512032 392.3253497152483 L 808 372 L 799.580964487968 392.3253497152483"/></g><g transform="translate(-62,-6) scale(1,1)"><path fill="none" stroke="#000000" d="M 816.419035512032 392.3253497152483 L 808 372 L 799.580964487968 392.3253497152483 L 816.419035512032 392.3253497152483" stroke-miterlimit="10"/></g><g transform="translate(-62,-6) scale(1,1)"><path fill="none" stroke="#000000" d="M 904 424 L 904 408 L 808 408 L 808 372" stroke-miterlimit="10"/></g><g transform="translate(-62,-6) scale(1,1)"><path fill="#FFFFFF" stroke="none" d="M 816.419035512032 392.3253497152483 L 808 372 L 799.580964487968 392.3253497152483"/></g><g transform="translate(-62,-6) scale(1,1)"><path fill="none" stroke="#000000" d="M 816.419035512032 392.3253497152483 L 808 372 L 799.580964487968 392.3253497152483 L 816.419035512032 392.3253497152483" stroke-miterlimit="10"/></g><g transform="translate(-62,-6) scale(1,1)"><path fill="none" stroke="#000000" d="M 664 328 L 664 312 L 736 312 L 736 280" stroke-miterlimit="10"/></g><g transform="translate(-62,-6) scale(1,1)"><path fill="#FFFFFF" stroke="none" d="M 744.419035512032 300.3253497152483 L 736 280 L 727.580964487968 300.3253497152483"/></g><g transform="translate(-62,-6) scale(1,1)"><path fill="none" stroke="#000000" d="M 744.419035512032 300.3253497152483 L 736 280 L 727.580964487968 300.3253497152483 L 744.419035512032 300.3253497152483" stroke-miterlimit="10"/></g><g transform="translate(-62,-6) scale(1,1)"><path fill="none" stroke="#000000" d="M 808 328 L 808 312 L 736 312 L 736 280" stroke-miterlimit="10"/></g><g transform="translate(-62,-6) scale(1,1)"><path fill="#FFFFFF" stroke="none" d="M 744.419035512032 300.3253497152483 L 736 280 L 727.580964487968 300.3253497152483"/></g><g transform="translate(-62,-6) scale(1,1)"><path fill="none" stroke="#000000" d="M 744.419035512032 300.3253497152483 L 736 280 L 727.580964487968 300.3253497152483 L 744.419035512032 300.3253497152483" stroke-miterlimit="10"/></g><g transform="translate(-62,-6) scale(1,1)"><path fill="none" stroke="#000000" d="M 290 32 L 888 32 L 888 80" stroke-miterlimit="10"/></g><g transform="translate(-62,-6) scale(1,1)"><path fill="none" stroke="#000000" d="M 883.790482243984 69.83732514237585 L 888 80 L 892.209517756016 69.83732514237585" stroke-miterlimit="10"/></g><g transform="translate(-62,-6) scale(1,1)"><g><path fill="none" stroke="none"/><text fill="#000000" stroke="none" font-family="Arial" font-size="13px" font-style="normal" font-weight="normal" text-decoration="none" x="891.13134765625" y="61.5">-type</text></g></g><g transform="translate(-62,-6) scale(1,1)"><g><path fill="none" stroke="none"/><text fill="#000000" stroke="none" font-family="Arial" font-size="13px" font-style="normal" font-weight="normal" text-decoration="none" x="871.5" y="71.5">1</text></g></g><g transform="translate(-62,-6) scale(1,1)"><path fill="none" stroke="#000000" d="M 290 88 L 392 88" stroke-miterlimit="10"/></g><g transform="translate(-62,-6) scale(1,1)"><path fill="none" stroke="#000000" d="M 381.83732514237585 92.20951775601598 L 392 88 L 381.83732514237585 83.79048224398402" stroke-miterlimit="10"/></g><g transform="translate(-62,-6) scale(1,1)"><g><path fill="none" stroke="none"/><text fill="#000000" stroke="none" font-family="Arial" font-size="13px" font-style="normal" font-weight="normal" text-decoration="none" x="351.13134765625" y="79.5">-filter</text></g></g><g transform="translate(-62,-6) scale(1,1)"><g><path fill="none" stroke="none"/><text fill="#000000" stroke="none" font-family="Arial" font-size="13px" font-style="normal" font-weight="normal" text-decoration="none" x="366.5" y="106.5">1</text></g></g><g transform="translate(-62,-6) scale(1,1)"><path fill="none" stroke="#000000" d="M 392 136 L 160 136 L 160 216" stroke-miterlimit="10"/></g><g transform="translate(-62,-6) scale(1,1)"><path fill="#000000" stroke="none" d="M 155.790482243984 205.83732514237585 L 160 216 L 164.209517756016 205.83732514237585 L 160 194"/></g><g transform="translate(-62,-6) scale(1,1)"><path fill="none" stroke="#000000" d="M 155.790482243984 205.83732514237585 L 160 216 L 164.209517756016 205.83732514237585 L 160 194 L 155.790482243984 205.83732514237585" stroke-miterlimit="10"/></g><g transform="translate(-62,-6) scale(1,1)"><path fill="none" stroke="#000000" d="M 381.83732514237585 140.209517756016 L 392 136 L 381.83732514237585 131.790482243984" stroke-miterlimit="10"/></g><g transform="translate(-62,-6) scale(1,1)"><g><path fill="none" stroke="none"/><text fill="#000000" stroke="none" font-family="Arial" font-size="13px" font-style="normal" font-weight="normal" text-decoration="none" x="347.13134765625" y="131.5">-filters</text></g></g><g transform="translate(-62,-6) scale(1,1)"><g><path fill="none" stroke="none"/><text fill="#000000" stroke="none" font-family="Arial" font-size="13px" font-style="normal" font-weight="normal" text-decoration="none" x="359.5" y="156.5">0..*</text></g></g><g transform="translate(-62,-6) scale(1,1)"><rect fill="#ffffff" stroke="none" x="512" y="384" width="79.0654296875" height="48"/></g><g transform="translate(-62,-6) scale(1,1)"><path fill="none" stroke="#000000" d="M 512 384 L 591.0654296875 384 L 591.0654296875 432 L 512 432 L 512 384 Z Z" stroke-miterlimit="10"/></g><g transform="translate(-62,-6) scale(1,1)"><g><path fill="none" stroke="none"/><text fill="#000000" stroke="none" font-family="Arial" font-size="13px" font-style="normal" font-weight="normal" text-decoration="none" x="519.372314453125" y="401.5">«interface»</text></g></g><g transform="translate(-62,-6) scale(1,1)"><g><path fill="none" stroke="none"/><text fill="#000000" stroke="none" font-family="Arial" font-size="13px" font-style="normal" font-weight="bold" text-decoration="none" x="519.378662109375" y="416.5">Thresholds</text></g></g><g transform="translate(-62,-6) scale(1,1)"><path fill="none" stroke="#000000" d="M 497 472 L 539 472 L 539 432" stroke-miterlimit="10" stroke-dasharray="3"/></g><g transform="translate(-62,-6) scale(1,1)"><path fill="#FFFFFF" stroke="none" d="M 547.419035512032 452.3253497152483 L 539 432 L 530.580964487968 452.3253497152483"/></g><g transform="translate(-62,-6) scale(1,1)"><path fill="none" stroke="#000000" d="M 547.419035512032 452.3253497152483 L 539 432 L 530.580964487968 452.3253497152483 L 547.419035512032 452.3253497152483" stroke-miterlimit="10"/></g><g transform="translate(-62,-6) scale(1,1)"><path fill="none" stroke="#000000" d="M 608 488 L 608 472 L 568 472 L 568 432" stroke-miterlimit="10" stroke-dasharray="3"/></g><g transform="translate(-62,-6) scale(1,1)"><path fill="#FFFFFF" stroke="none" d="M 576.419035512032 452.3253497152483 L 568 432 L 559.580964487968 452.3253497152483"/></g><g transform="translate(-62,-6) scale(1,1)"><path fill="none" stroke="#000000" d="M 576.419035512032 452.3253497152483 L 568 432 L 559.580964487968 452.3253497152483 L 576.419035512032 452.3253497152483" stroke-miterlimit="10"/></g><g transform="translate(-62,-6) scale(1,1)"><path fill="none" stroke="#000000" d="M 704 280 L 704 296 L 552 296 L 552 384" stroke-miterlimit="10"/></g><g transform="translate(-62,-6) scale(1,1)"><path fill="none" stroke="#000000" d="M 547.790482243984 373.83732514237585 L 552 384 L 556.209517756016 373.83732514237585" stroke-miterlimit="10"/></g><g transform="translate(-62,-6) scale(1,1)"><g><path fill="none" stroke="none"/><text fill="#000000" stroke="none" font-family="Arial" font-size="13px" font-style="normal" font-weight="normal" text-decoration="none" x="478.680908203125" y="380.5">#threshold</text></g></g><g transform="translate(-62,-6) scale(1,1)"><g><path fill="none" stroke="none"/><text fill="#000000" stroke="none" font-family="Arial" font-size="13px" font-style="normal" font-weight="normal" text-decoration="none" x="559.5" y="380.5">1</text></g></g><g transform="translate(-62,-6) scale(1,1)"><rect fill="#ffffff" stroke="none" x="744" y="496" width="125.34619140625" height="105"/></g><g transform="translate(-62,-6) scale(1,1)"><path fill="none" stroke="#000000" d="M 744 496 L 869.34619140625 496 L 869.34619140625 601 L 744 601 L 744 496 Z Z" stroke-miterlimit="10"/></g><g transform="translate(-62,-6) scale(1,1)"><path fill="none" stroke="#000000" d="M 744 534 L 869.34619140625 534" stroke-miterlimit="10"/></g><g transform="translate(-62,-6) scale(1,1)"><g><path fill="none" stroke="none"/><text fill="#000000" stroke="none" font-family="Arial" font-size="13px" font-style="normal" font-weight="normal" text-decoration="none" x="763.30908203125" y="513.5">«enumeration»</text></g></g><g transform="translate(-62,-6) scale(1,1)"><g><path fill="none" stroke="none"/><text fill="#000000" stroke="none" font-family="Arial" font-size="13px" font-style="normal" font-weight="bold" text-decoration="none" x="781.025390625" y="528.5">Direction</text></g></g><g transform="translate(-62,-6) scale(1,1)"><g><path fill="none" stroke="none"/><text fill="#000000" stroke="none" font-family="Arial" font-size="13px" font-style="normal" font-weight="normal" text-decoration="none" x="749" y="551.5">HigherThan</text></g></g><g transform="translate(-62,-6) scale(1,1)"><g><path fill="none" stroke="none"/><text fill="#000000" stroke="none" font-family="Arial" font-size="13px" font-style="normal" font-weight="normal" text-decoration="none" x="749" y="566.5">LowerThan</text></g></g><g transform="translate(-62,-6) scale(1,1)"><g><path fill="none" stroke="none"/><text fill="#000000" stroke="none" font-family="Arial" font-size="13px" font-style="normal" font-weight="normal" text-decoration="none" x="749" y="581.5">TopValues</text></g></g><g transform="translate(-62,-6) scale(1,1)"><g><path fill="none" stroke="none"/><text fill="#000000" stroke="none" font-family="Arial" font-size="13px" font-style="normal" font-weight="normal" text-decoration="none" x="749" y="596.5">BottomValues</text></g></g><g transform="translate(-62,-6) scale(1,1)"><path fill="none" stroke="#000000" d="M 768 280 L 768 296 L 1008 296 L 1008 520 L 869 520" stroke-miterlimit="10"/></g><g transform="translate(-62,-6) scale(1,1)"><path fill="none" stroke="#000000" d="M 879.1626748576241 515.790482243984 L 869 520 L 879.1626748576241 524.209517756016" stroke-miterlimit="10"/></g><g transform="translate(-62,-6) scale(1,1)"><g><path fill="none" stroke="none"/><text fill="#000000" stroke="none" font-family="Arial" font-size="13px" font-style="normal" font-weight="normal" text-decoration="none" x="878.680908203125" y="539.5">#direction</text></g></g><g transform="translate(-62,-6) scale(1,1)"><g><path fill="none" stroke="none"/><text fill="#000000" stroke="none" font-family="Arial" font-size="13px" font-style="normal" font-weight="normal" text-decoration="none" x="886.5" y="513.5">1</text></g></g><g transform="translate(-62,-6) scale(1,1)"><rect fill="#ffffff" stroke="none" x="352" y="216" width="112.27001953125" height="44"/></g><g transform="translate(-62,-6) scale(1,1)"><path fill="none" stroke="#000000" d="M 352 216 L 464.27001953125 216 L 464.27001953125 260 L 352 260 L 352 216 Z Z" stroke-miterlimit="10"/></g><g transform="translate(-62,-6) scale(1,1)"><g><path fill="none" stroke="none"/><text fill="#000000" stroke="none" font-family="Arial" font-size="13px" font-style="normal" font-weight="bold" text-decoration="none" x="361.168701171875" y="235.5">ConditionalFilter</text></g></g><g transform="translate(-62,-6) scale(1,1)"><path fill="none" stroke="#000000" d="M 530 142 L 808 142" stroke-miterlimit="10"/></g><g transform="translate(-62,-6) scale(1,1)"><path fill="none" stroke="#000000" d="M 797.8373251423759 146.209517756016 L 808 142 L 797.8373251423758 137.790482243984" stroke-miterlimit="10"/></g><g transform="translate(-62,-6) scale(1,1)"><rect fill="#ffffff" stroke="none" x="312" y="296" width="198.6806640625" height="60"/></g><g transform="translate(-62,-6) scale(1,1)"><path fill="none" stroke="#000000" d="M 312 296 L 510.6806640625 296 L 510.6806640625 356 L 312 356 L 312 296 Z Z" stroke-miterlimit="10"/></g><g transform="translate(-62,-6) scale(1,1)"><path fill="none" stroke="#000000" d="M 312 334 L 510.6806640625 334" stroke-miterlimit="10"/></g><g transform="translate(-62,-6) scale(1,1)"><g><path fill="none" stroke="none"/><text fill="#000000" stroke="none" font-family="Arial" font-size="13px" font-style="normal" font-weight="normal" text-decoration="none" x="379.179931640625" y="313.5">«interface»</text></g></g><g transform="translate(-62,-6) scale(1,1)"><g><path fill="none" stroke="none"/><text fill="#000000" stroke="none" font-family="Arial" font-size="13px" font-style="normal" font-weight="bold" text-decoration="none" x="383.877197265625" y="328.5">Condition</text></g></g><g transform="translate(-62,-6) scale(1,1)"><g><path fill="none" stroke="none"/><text fill="#000000" stroke="none" font-family="Arial" font-size="13px" font-style="normal" font-weight="normal" text-decoration="none" x="317" y="351.5">+check(m: Measurable): boolean</text></g></g><g transform="translate(-62,-6) scale(1,1)"><path fill="none" stroke="#000000" d="M 408 260 L 408 296" stroke-miterlimit="10"/></g><g transform="translate(-62,-6) scale(1,1)"><path fill="none" stroke="#000000" d="M 403.790482243984 285.83732514237585 L 408 296 L 412.209517756016 285.83732514237585" stroke-miterlimit="10"/></g><g transform="translate(-62,-6) scale(1,1)"><rect fill="#C0C0C0" stroke="none" x="143" y="391" width="125.34619140625" height="90" opacity="0.2"/></g><g transform="translate(-62,-6) scale(1,1)"><rect fill="#ffffff" stroke="none" x="136" y="384" width="125.34619140625" height="90"/></g><g transform="translate(-62,-6) scale(1,1)"><path fill="none" stroke="#000000" d="M 136 384 L 261.34619140625 384 L 261.34619140625 474 L 136 474 L 136 384 Z Z" stroke-miterlimit="10"/></g><g transform="translate(-62,-6) scale(1,1)"><path fill="none" stroke="#000000" d="M 136 422 L 261.34619140625 422" stroke-miterlimit="10"/></g><g transform="translate(-62,-6) scale(1,1)"><g><path fill="none" stroke="none"/><text fill="#000000" stroke="none" font-family="Arial" font-size="13px" font-style="normal" font-weight="normal" text-decoration="none" x="155.30908203125" y="401.5">«enumeration»</text></g></g><g transform="translate(-62,-6) scale(1,1)"><g><path fill="none" stroke="none"/><text fill="#000000" stroke="none" font-family="Arial" font-size="13px" font-style="normal" font-weight="bold" text-decoration="none" x="173.022216796875" y="416.5">Operator</text></g></g><g transform="translate(-62,-6) scale(1,1)"><g><path fill="none" stroke="none"/><text fill="#000000" stroke="none" font-family="Arial" font-size="13px" font-style="normal" font-weight="normal" text-decoration="none" x="141" y="439.5">Union</text></g></g><g transform="translate(-62,-6) scale(1,1)"><g><path fill="none" stroke="none"/><text fill="#000000" stroke="none" font-family="Arial" font-size="13px" font-style="normal" font-weight="normal" text-decoration="none" x="141" y="454.5">Intersect</text></g></g><g transform="translate(-62,-6) scale(1,1)"><g><path fill="none" stroke="none"/><text fill="#000000" stroke="none" font-family="Arial" font-size="13px" font-style="normal" font-weight="normal" text-decoration="none" x="141" y="469.5">Difference</text></g></g><g transform="translate(-62,-6) scale(1,1)"><path fill="none" stroke="#000000" d="M 239 240 L 304 240 L 304 429 L 261 429" stroke-miterlimit="10"/></g><g transform="translate(-62,-6) scale(1,1)"><path fill="none" stroke="#000000" d="M 271.16267485762415 424.790482243984 L 261 429 L 271.16267485762415 433.209517756016" stroke-miterlimit="10"/></g><g transform="translate(-62,-6) scale(1,1)"><g><path fill="none" stroke="none"/><text fill="#000000" stroke="none" font-family="Arial" font-size="13px" font-style="normal" font-weight="normal" text-decoration="none" x="262.680908203125" y="451.5">#operator</text></g></g><g transform="translate(-62,-6) scale(1,1)"><g><path fill="none" stroke="none"/><text fill="#000000" stroke="none" font-family="Arial" font-size="13px" font-style="normal" font-weight="normal" text-decoration="none" x="271.5" y="420.5">1</text></g></g></g></svg>