<svg version="1.1" xmlns="http://www.w3.org/2000/svg" xmlns:xlink="http://www.w3.org/1999/xlink" width="838.32080078125" height="312"><defs/><g><g transform="translate(-261,-38) scale(1,1)"><rect fill="#ffffff" stroke="none" x="271" y="200" width="124.55908203125" height="44"/></g><g transform="translate(-261,-38) scale(1,1)"><path fill="none" stroke="#000000" d="M 271 200 L 395.55908203125 200 L 395.55908203125 244 L 271 244 L 271 200 Z Z" stroke-miterlimit="10"/></g><g transform="translate(-261,-38) scale(1,1)"><g><path fill="none" stroke="none"/><text fill="#000000" stroke="none" font-family="Arial" font-size="13px" font-style="normal" font-weight="bold" text-decoration="none" x="280.892333984375" y="219.5">InjectionController</text></g></g><g transform="translate(-261,-38) scale(1,1)"><rect fill="#ffffff" stroke="none" x="746" y="48" width="116.6435546875" height="48"/></g><g transform="translate(-261,-38) scale(1,1)"><path fill="none" stroke="#000000" d="M 746 48 L 862.6435546875 48 L 862.6435546875 96 L 746 96 L 746 48 Z Z" stroke-miterlimit="10"/></g><g transform="translate(-261,-38) scale(1,1)"><g><path fill="none" stroke="none"/><text fill="#000000" stroke="none" font-family="Arial" font-size="13px" font-style="normal" font-weight="normal" text-decoration="none" x="772.161376953125" y="65.5">«interface»</text></g></g><g transform="translate(-261,-38) scale(1,1)"><g><path fill="none" stroke="none"/><text fill="#000000" stroke="none" font-family="Arial" font-size="13px" font-style="normal" font-weight="bold" text-decoration="none" x="754.35302734375" y="80.5">SourceTransform</text></g></g><g transform="translate(-261,-38) scale(1,1)"><rect fill="#ffffff" stroke="none" x="904" y="48" width="128.90087890625" height="48"/></g><g transform="translate(-261,-38) scale(1,1)"><path fill="none" stroke="#000000" d="M 904 48 L 1032.90087890625 48 L 1032.90087890625 96 L 904 96 L 904 48 Z Z" stroke-miterlimit="10"/></g><g transform="translate(-261,-38) scale(1,1)"><g><path fill="none" stroke="none"/><text fill="#000000" stroke="none" font-family="Arial" font-size="13px" font-style="normal" font-weight="normal" text-decoration="none" x="936.2900390625" y="65.5">«interface»</text></g></g><g transform="translate(-261,-38) scale(1,1)"><g><path fill="none" stroke="none"/><text fill="#000000" stroke="none" font-family="Arial" font-size="13px" font-style="normal" font-weight="bold" text-decoration="none" x="911.727783203125" y="80.5">DataModelMediator</text></g></g><g transform="translate(-261,-38) scale(1,1)"><rect fill="#ffffff" stroke="none" x="720" y="201" width="169.8623046875" height="44"/></g><g transform="translate(-261,-38) scale(1,1)"><path fill="none" stroke="#000000" d="M 720 201 L 889.8623046875 201 L 889.8623046875 245 L 720 245 L 720 201 Z Z" stroke-miterlimit="10"/></g><g transform="translate(-261,-38) scale(1,1)"><g><path fill="none" stroke="none"/><text fill="#000000" stroke="none" font-family="Arial" font-size="13px" font-style="italic" font-weight="bold" text-decoration="none" x="731.36181640625" y="220.5">AbstractSourceTransform</text></g></g><g transform="translate(-261,-38) scale(1,1)"><path fill="none" stroke="#000000" d="M 804 200 L 804 97" stroke-miterlimit="10"/></g><g transform="translate(-261,-38) scale(1,1)"><path fill="#FFFFFF" stroke="none" d="M 812.419035512032 117.32534971524831 L 804 97 L 795.580964487968 117.32534971524831"/></g><g transform="translate(-261,-38) scale(1,1)"><path fill="none" stroke="#000000" d="M 812.419035512032 117.32534971524831 L 804 97 L 795.580964487968 117.32534971524831 L 812.419035512032 117.32534971524831" stroke-miterlimit="10"/></g><g transform="translate(-261,-38) scale(1,1)"><rect fill="#ffffff" stroke="none" x="616" y="296" width="151.33349609375" height="44"/></g><g transform="translate(-261,-38) scale(1,1)"><path fill="none" stroke="#000000" d="M 616 296 L 767.33349609375 296 L 767.33349609375 340 L 616 340 L 616 296 Z Z" stroke-miterlimit="10"/></g><g transform="translate(-261,-38) scale(1,1)"><g><path fill="none" stroke="none"/><text fill="#000000" stroke="none" font-family="Arial" font-size="13px" font-style="normal" font-weight="bold" text-decoration="none" x="625.803466796875" y="315.5">BasicSourceTransform</text></g></g><g transform="translate(-261,-38) scale(1,1)"><path fill="none" stroke="#000000" d="M 688 296 L 688 280 L 800 280 L 800 245" stroke-miterlimit="10"/></g><g transform="translate(-261,-38) scale(1,1)"><path fill="#FFFFFF" stroke="none" d="M 808.419035512032 265.3253497152483 L 800 245 L 791.580964487968 265.3253497152483"/></g><g transform="translate(-261,-38) scale(1,1)"><path fill="none" stroke="#000000" d="M 808.419035512032 265.3253497152483 L 800 245 L 791.580964487968 265.3253497152483 L 808.419035512032 265.3253497152483" stroke-miterlimit="10"/></g><g transform="translate(-261,-38) scale(1,1)"><rect fill="#ffffff" stroke="none" x="824" y="296" width="183.814453125" height="44"/></g><g transform="translate(-261,-38) scale(1,1)"><path fill="none" stroke="#000000" d="M 824 296 L 1007.814453125 296 L 1007.814453125 340 L 824 340 L 824 296 Z Z" stroke-miterlimit="10"/></g><g transform="translate(-261,-38) scale(1,1)"><g><path fill="none" stroke="none"/><text fill="#000000" stroke="none" font-family="Arial" font-size="13px" font-style="normal" font-weight="bold" text-decoration="none" x="834.869873046875" y="315.5">CompositeSourceTransform</text></g></g><g transform="translate(-261,-38) scale(1,1)"><path fill="none" stroke="#000000" d="M 912 296 L 912 280 L 800 280 L 800 245" stroke-miterlimit="10"/></g><g transform="translate(-261,-38) scale(1,1)"><path fill="#FFFFFF" stroke="none" d="M 808.419035512032 265.3253497152483 L 800 245 L 791.580964487968 265.3253497152483"/></g><g transform="translate(-261,-38) scale(1,1)"><path fill="none" stroke="#000000" d="M 808.419035512032 265.3253497152483 L 800 245 L 791.580964487968 265.3253497152483 L 808.419035512032 265.3253497152483" stroke-miterlimit="10"/></g><g transform="translate(-261,-38) scale(1,1)"><rect fill="#ffffff" stroke="none" x="1016" y="199" width="73.32080078125" height="48"/></g><g transform="translate(-261,-38) scale(1,1)"><path fill="none" stroke="#000000" d="M 1016 199 L 1089.32080078125 199 L 1089.32080078125 247 L 1016 247 L 1016 199 Z Z" stroke-miterlimit="10"/></g><g transform="translate(-261,-38) scale(1,1)"><g><path fill="none" stroke="none"/><text fill="#000000" stroke="none" font-family="Arial" font-size="13px" font-style="normal" font-weight="normal" text-decoration="none" x="1020.5" y="216.5">«interface»</text></g></g><g transform="translate(-261,-38) scale(1,1)"><g><path fill="none" stroke="none"/><text fill="#000000" stroke="none" font-family="Arial" font-size="13px" font-style="normal" font-weight="bold" text-decoration="none" x="1025.197265625" y="231.5">Condition</text></g></g><g transform="translate(-261,-38) scale(1,1)"><path fill="none" stroke="#000000" d="M 1015 223 L 891 223" stroke-miterlimit="10"/></g><g transform="translate(-261,-38) scale(1,1)"><path fill="#000000" stroke="none" d="M 901.1626748576241 218.790482243984 L 891 223 L 901.1626748576241 227.209517756016 L 913 223"/></g><g transform="translate(-261,-38) scale(1,1)"><path fill="none" stroke="#000000" d="M 901.1626748576241 218.790482243984 L 891 223 L 901.1626748576241 227.209517756016 L 913 223 L 901.1626748576241 218.790482243984" stroke-miterlimit="10"/></g><g transform="translate(-261,-38) scale(1,1)"><g><path fill="none" stroke="none"/><text fill="#000000" stroke="none" font-family="Arial" font-size="13px" font-style="normal" font-weight="normal" text-decoration="none" x="952.13134765625" y="236.5">-conditions</text></g></g><g transform="translate(-261,-38) scale(1,1)"><g><path fill="none" stroke="none"/><text fill="#000000" stroke="none" font-family="Arial" font-size="13px" font-style="normal" font-weight="normal" text-decoration="none" x="999.5" y="219.5">*</text></g></g><g transform="translate(-261,-38) scale(1,1)"><path fill="none" stroke="#000000" d="M 890 208 L 968 208 L 968 96" stroke-miterlimit="10"/></g><g transform="translate(-261,-38) scale(1,1)"><path fill="none" stroke="#000000" d="M 972.209517756016 106.16267485762415 L 968 96 L 963.790482243984 106.16267485762415" stroke-miterlimit="10"/></g><g transform="translate(-261,-38) scale(1,1)"><g><path fill="none" stroke="none"/><text fill="#000000" stroke="none" font-family="Arial" font-size="13px" font-style="normal" font-weight="normal" text-decoration="none" x="974.2958984375" y="164.5">Injected</text></g></g><g transform="translate(-261,-38) scale(1,1)"><g><path fill="none" stroke="none"/><text fill="#000000" stroke="none" font-family="Arial" font-size="13px" font-style="normal" font-weight="normal" text-decoration="none" x="978.2958984375" y="115.5">mediator</text></g></g><g transform="translate(-261,-38) scale(1,1)"><rect fill="#ffffff" stroke="none" x="480" y="200" width="110.83544921875" height="44"/></g><g transform="translate(-261,-38) scale(1,1)"><path fill="none" stroke="#000000" d="M 480 200 L 590.83544921875 200 L 590.83544921875 244 L 480 244 L 480 200 Z Z" stroke-miterlimit="10"/></g><g transform="translate(-261,-38) scale(1,1)"><g><path fill="none" stroke="none"/><text fill="#000000" stroke="none" font-family="Arial" font-size="13px" font-style="normal" font-weight="bold" text-decoration="none" x="488.806884765625" y="219.5">InjectionContext</text></g></g><g transform="translate(-261,-38) scale(1,1)"><path fill="none" stroke="#000000" d="M 720 223 L 591 223" stroke-miterlimit="10"/></g><g transform="translate(-261,-38) scale(1,1)"><path fill="none" stroke="#000000" d="M 601.1626748576241 218.790482243984 L 591 223 L 601.1626748576241 227.209517756016" stroke-miterlimit="10"/></g><g transform="translate(-261,-38) scale(1,1)"><g><path fill="none" stroke="none"/><text fill="#000000" stroke="none" font-family="Arial" font-size="13px" font-style="normal" font-weight="normal" text-decoration="none" x="607.680908203125" y="220.5">#context</text></g></g><g transform="translate(-261,-38) scale(1,1)"><g><path fill="none" stroke="none"/><text fill="#000000" stroke="none" font-family="Arial" font-size="13px" font-style="normal" font-weight="normal" text-decoration="none" x="599.5" y="216.5">1</text></g></g><g transform="translate(-261,-38) scale(1,1)"><path fill="none" stroke="#000000" d="M 480 222 L 396 222" stroke-miterlimit="10"/></g><g transform="translate(-261,-38) scale(1,1)"><path fill="none" stroke="#000000" d="M 406.16267485762415 217.790482243984 L 396 222 L 406.16267485762415 226.209517756016" stroke-miterlimit="10"/></g><g transform="translate(-261,-38) scale(1,1)"><g><path fill="none" stroke="none"/><text fill="#000000" stroke="none" font-family="Arial" font-size="13px" font-style="normal" font-weight="normal" text-decoration="none" x="401.13134765625" y="241.5">-controller</text></g></g><g transform="translate(-261,-38) scale(1,1)"><g><path fill="none" stroke="none"/><text fill="#000000" stroke="none" font-family="Arial" font-size="13px" font-style="normal" font-weight="normal" text-decoration="none" x="399.5" y="215.5">1</text></g></g><g transform="translate(-261,-38) scale(1,1)"><rect fill="#ffffff" stroke="none" x="274" y="112" width="118.814453125" height="44"/></g><g transform="translate(-261,-38) scale(1,1)"><path fill="none" stroke="#000000" d="M 274 112 L 392.814453125 112 L 392.814453125 156 L 274 156 L 274 112 Z Z" stroke-miterlimit="10"/></g><g transform="translate(-261,-38) scale(1,1)"><g><path fill="none" stroke="none"/><text fill="#000000" stroke="none" font-family="Arial" font-size="13px" font-style="normal" font-weight="bold" text-decoration="none" x="282.718017578125" y="131.5">TransformInvoker</text></g></g><g transform="translate(-261,-38) scale(1,1)"><path fill="none" stroke="#000000" d="M 333 199 L 333 157" stroke-miterlimit="10"/></g><g transform="translate(-261,-38) scale(1,1)"><path fill="none" stroke="#000000" d="M 337.209517756016 167.16267485762415 L 333 157 L 328.790482243984 167.16267485762415" stroke-miterlimit="10"/></g><g transform="translate(-261,-38) scale(1,1)"><g><path fill="none" stroke="none"/><text fill="#000000" stroke="none" font-family="Arial" font-size="13px" font-style="normal" font-weight="normal" text-decoration="none" x="280.13134765625" y="171.5">-invoker</text></g></g><g transform="translate(-261,-38) scale(1,1)"><g><path fill="none" stroke="none"/><text fill="#000000" stroke="none" font-family="Arial" font-size="13px" font-style="normal" font-weight="normal" text-decoration="none" x="341.5" y="171.5">1</text></g></g><g transform="translate(-261,-38) scale(1,1)"><rect fill="#ffffff" stroke="none" x="283" y="296" width="100.01904296875" height="44"/></g><g transform="translate(-261,-38) scale(1,1)"><path fill="none" stroke="#000000" d="M 283 296 L 383.01904296875 296 L 383.01904296875 340 L 283 340 L 283 296 Z Z" stroke-miterlimit="10"/></g><g transform="translate(-261,-38) scale(1,1)"><g><path fill="none" stroke="none"/><text fill="#000000" stroke="none" font-family="Arial" font-size="13px" font-style="normal" font-weight="bold" text-decoration="none" x="290.740478515625" y="315.5">FileOperations</text></g></g><g transform="translate(-261,-38) scale(1,1)"><path fill="none" stroke="#000000" d="M 333 295 L 333 245" stroke-miterlimit="10"/></g><g transform="translate(-261,-38) scale(1,1)"><path fill="#FFFFFF" stroke="none" d="M 337.209517756016 255.16267485762415 L 333 245 L 328.790482243984 255.16267485762415 L 333 267"/></g><g transform="translate(-261,-38) scale(1,1)"><path fill="none" stroke="#000000" d="M 337.209517756016 255.16267485762415 L 333 245 L 328.790482243984 255.16267485762415 L 333 267 L 337.209517756016 255.16267485762415" stroke-miterlimit="10"/></g><g transform="translate(-261,-38) scale(1,1)"><path fill="none" stroke="#000000" d="M 328.790482243984 284.83732514237585 L 333 295 L 337.209517756016 284.83732514237585" stroke-miterlimit="10"/></g><g transform="translate(-261,-38) scale(1,1)"><g><path fill="none" stroke="none"/><text fill="#000000" stroke="none" font-family="Arial" font-size="13px" font-style="normal" font-weight="normal" text-decoration="none" x="295.13134765625" y="292.5">-files</text></g></g><g transform="translate(-261,-38) scale(1,1)"><g><path fill="none" stroke="none"/><text fill="#000000" stroke="none" font-family="Arial" font-size="13px" font-style="normal" font-weight="normal" text-decoration="none" x="342.5" y="292.5">*</text></g></g><g transform="translate(-261,-38) scale(1,1)"><path fill="none" stroke="#000000" d="M 720 240 L 600 240 L 600 304 L 383 304" stroke-miterlimit="10"/></g><g transform="translate(-261,-38) scale(1,1)"><path fill="none" stroke="#000000" d="M 393.16267485762415 299.790482243984 L 383 304 L 393.16267485762415 308.209517756016" stroke-miterlimit="10"/></g><g transform="translate(-261,-38) scale(1,1)"><g><path fill="none" stroke="none"/><text fill="#000000" stroke="none" font-family="Arial" font-size="13px" font-style="normal" font-weight="normal" text-decoration="none" x="398.680908203125" y="300.5">#fileOps</text></g></g><g transform="translate(-261,-38) scale(1,1)"><g><path fill="none" stroke="none"/><text fill="#000000" stroke="none" font-family="Arial" font-size="13px" font-style="normal" font-weight="normal" text-decoration="none" x="383.5" y="297.5">1</text></g></g><g transform="translate(-261,-38) scale(1,1)"><path fill="none" stroke="#000000" d="M 616 328 L 383 328" stroke-miterlimit="10" stroke-dasharray="3"/></g><g transform="translate(-261,-38) scale(1,1)"><path fill="none" stroke="#000000" d="M 393.16267485762415 323.790482243984 L 383 328 L 393.16267485762415 332.209517756016" stroke-miterlimit="10"/></g><g transform="translate(-261,-38) scale(1,1)"><path fill="none" stroke="#000000" d="M 536 200 L 536 136 L 393 136" stroke-miterlimit="10"/></g><g transform="translate(-261,-38) scale(1,1)"><path fill="none" stroke="#000000" d="M 403.16267485762415 131.790482243984 L 393 136 L 403.16267485762415 140.209517756016" stroke-miterlimit="10"/></g><g transform="translate(-261,-38) scale(1,1)"><g><path fill="none" stroke="none"/><text fill="#000000" stroke="none" font-family="Arial" font-size="13px" font-style="normal" font-weight="normal" text-decoration="none" x="395.13134765625" y="156.5">-invoker</text></g></g><g transform="translate(-261,-38) scale(1,1)"><g><path fill="none" stroke="none"/><text fill="#000000" stroke="none" font-family="Arial" font-size="13px" font-style="normal" font-weight="normal" text-decoration="none" x="410.5" y="129.5">1</text></g></g><g transform="translate(-261,-38) scale(1,1)"><path fill="none" stroke="#000000" d="M 746 72 L 333 72 L 333 112" stroke-miterlimit="10"/></g><g transform="translate(-261,-38) scale(1,1)"><path fill="#000000" stroke="none" d="M 328.790482243984 101.83732514237585 L 333 112 L 337.209517756016 101.83732514237585 L 333 90"/></g><g transform="translate(-261,-38) scale(1,1)"><path fill="none" stroke="#000000" d="M 328.790482243984 101.83732514237585 L 333 112 L 337.209517756016 101.83732514237585 L 333 90 L 328.790482243984 101.83732514237585" stroke-miterlimit="10"/></g><g transform="translate(-261,-38) scale(1,1)"><path fill="none" stroke="#000000" d="M 735.8373251423759 76.20951775601598 L 746 72 L 735.8373251423758 67.79048224398402" stroke-miterlimit="10"/></g><g transform="translate(-261,-38) scale(1,1)"><g><path fill="none" stroke="none"/><text fill="#000000" stroke="none" font-family="Arial" font-size="13px" font-style="normal" font-weight="normal" text-decoration="none" x="672.13134765625" y="92.5">-transforms</text></g></g><g transform="translate(-261,-38) scale(1,1)"><g><path fill="none" stroke="none"/><text fill="#000000" stroke="none" font-family="Arial" font-size="13px" font-style="normal" font-weight="normal" text-decoration="none" x="714.5" y="65.5">1..*</text></g></g><g transform="translate(-261,-38) scale(1,1)"><path fill="none" stroke="#000000" d="M 890 240 L 952 240 L 952 296" stroke-miterlimit="10"/></g><g transform="translate(-261,-38) scale(1,1)"><path fill="#FFFFFF" stroke="none" d="M 947.790482243984 285.83732514237585 L 952 296 L 956.209517756016 285.83732514237585 L 952 274"/></g><g transform="translate(-261,-38) scale(1,1)"><path fill="none" stroke="#000000" d="M 947.790482243984 285.83732514237585 L 952 296 L 956.209517756016 285.83732514237585 L 952 274 L 947.790482243984 285.83732514237585" stroke-miterlimit="10"/></g><g transform="translate(-261,-38) scale(1,1)"><path fill="none" stroke="#000000" d="M 900.1626748576241 235.790482243984 L 890 240 L 900.1626748576241 244.209517756016" stroke-miterlimit="10"/></g><g transform="translate(-261,-38) scale(1,1)"><g><path fill="none" stroke="none"/><text fill="#000000" stroke="none" font-family="Arial" font-size="13px" font-style="normal" font-weight="normal" text-decoration="none" x="897.13134765625" y="259.5">-children</text></g></g><g transform="translate(-261,-38) scale(1,1)"><g><path fill="none" stroke="none"/><text fill="#000000" stroke="none" font-family="Arial" font-size="13px" font-style="normal" font-weight="normal" text-decoration="none" x="887.5" y="259.5">*</text></g></g></g></svg>