<svg version="1.1" xmlns="http://www.w3.org/2000/svg" xmlns:xlink="http://www.w3.org/1999/xlink" width="619.72802734375" height="548"><defs/><g><g transform="translate(-198,-86) scale(1,1)"><rect fill="#ffffff" stroke="none" x="256" y="96" width="124.55908203125" height="44"/></g><g transform="translate(-198,-86) scale(1,1)"><path fill="none" stroke="#000000" d="M 256 96 L 380.55908203125 96 L 380.55908203125 140 L 256 140 L 256 96 Z Z" stroke-miterlimit="10"/></g><g transform="translate(-198,-86) scale(1,1)"><g><path fill="none" stroke="none"/><text fill="#000000" stroke="none" font-family="Arial" font-size="13px" font-style="normal" font-weight="bold" text-decoration="none" x="265.892333984375" y="115.5">InjectionController</text></g></g><g transform="translate(-198,-86) scale(1,1)"><rect fill="#ffffff" stroke="none" x="400" y="216" width="93.525390625" height="44"/></g><g transform="translate(-198,-86) scale(1,1)"><path fill="none" stroke="#000000" d="M 400 216 L 493.525390625 216 L 493.525390625 260 L 400 260 L 400 216 Z Z" stroke-miterlimit="10"/></g><g transform="translate(-198,-86) scale(1,1)"><g><path fill="none" stroke="none"/><text fill="#000000" stroke="none" font-family="Arial" font-size="13px" font-style="normal" font-weight="bold" text-decoration="none" x="407.753173828125" y="235.5">GrimeInjector</text></g></g><g transform="translate(-198,-86) scale(1,1)"><rect fill="#ffffff" stroke="none" x="712" y="216" width="80.50634765625" height="44"/></g><g transform="translate(-198,-86) scale(1,1)"><path fill="none" stroke="#000000" d="M 712 216 L 792.50634765625 216 L 792.50634765625 260 L 712 260 L 712 216 Z Z" stroke-miterlimit="10"/></g><g transform="translate(-198,-86) scale(1,1)"><g><path fill="none" stroke="none"/><text fill="#000000" stroke="none" font-family="Arial" font-size="13px" font-style="normal" font-weight="bold" text-decoration="none" x="719.740478515625" y="235.5">NullInjector</text></g></g><g transform="translate(-198,-86) scale(1,1)"><rect fill="#ffffff" stroke="none" x="224" y="313" width="128.21533203125" height="44"/></g><g transform="translate(-198,-86) scale(1,1)"><path fill="none" stroke="#000000" d="M 224 313 L 352.21533203125 313 L 352.21533203125 357 L 224 357 L 224 313 Z Z" stroke-miterlimit="10"/></g><g transform="translate(-198,-86) scale(1,1)"><g><path fill="none" stroke="none"/><text fill="#000000" stroke="none" font-family="Arial" font-size="13px" font-style="normal" font-weight="bold" text-decoration="none" x="232.844970703125" y="332.5">ClassGrimeInjector</text></g></g><g transform="translate(-198,-86) scale(1,1)"><rect fill="#ffffff" stroke="none" x="392" y="313" width="116.63720703125" height="44"/></g><g transform="translate(-198,-86) scale(1,1)"><path fill="none" stroke="#000000" d="M 392 313 L 508.63720703125 313 L 508.63720703125 357 L 392 357 L 392 313 Z Z" stroke-miterlimit="10"/></g><g transform="translate(-198,-86) scale(1,1)"><g><path fill="none" stroke="none"/><text fill="#000000" stroke="none" font-family="Arial" font-size="13px" font-style="normal" font-weight="bold" text-decoration="none" x="400.4736328125" y="332.5">OrgGrimeInjector</text></g></g><g transform="translate(-198,-86) scale(1,1)"><rect fill="#ffffff" stroke="none" x="544" y="313" width="144.078125" height="44"/></g><g transform="translate(-198,-86) scale(1,1)"><path fill="none" stroke="#000000" d="M 544 313 L 688.078125 313 L 688.078125 357 L 544 357 L 544 313 Z Z" stroke-miterlimit="10"/></g><g transform="translate(-198,-86) scale(1,1)"><g><path fill="none" stroke="none"/><text fill="#000000" stroke="none" font-family="Arial" font-size="13px" font-style="normal" font-weight="bold" text-decoration="none" x="553.54638671875" y="332.5">ModularGrimeInjector</text></g></g><g transform="translate(-198,-86) scale(1,1)"><rect fill="#ffffff" stroke="none" x="712" y="312" width="95.72802734375" height="48"/></g><g transform="translate(-198,-86) scale(1,1)"><path fill="none" stroke="#000000" d="M 712 312 L 807.72802734375 312 L 807.72802734375 360 L 712 360 L 712 312 Z Z" stroke-miterlimit="10"/></g><g transform="translate(-198,-86) scale(1,1)"><g><path fill="none" stroke="none"/><text fill="#000000" stroke="none" font-family="Arial" font-size="13px" font-style="normal" font-weight="normal" text-decoration="none" x="716.5" y="329.5">«enumeration»</text></g></g><g transform="translate(-198,-86) scale(1,1)"><g><path fill="none" stroke="none"/><text fill="#000000" stroke="none" font-family="Arial" font-size="13px" font-style="normal" font-weight="bold" text-decoration="none" x="721.924072265625" y="344.5">RelationType</text></g></g><g transform="translate(-198,-86) scale(1,1)"><path fill="none" stroke="#000000" d="M 689 336 L 711 336" stroke-miterlimit="10" stroke-dasharray="3"/></g><g transform="translate(-198,-86) scale(1,1)"><path fill="none" stroke="#000000" d="M 700.8373251423759 340.209517756016 L 711 336 L 700.8373251423758 331.790482243984" stroke-miterlimit="10"/></g><g transform="translate(-198,-86) scale(1,1)"><path fill="none" stroke="#000000" d="M 448 313 L 448 260" stroke-miterlimit="10"/></g><g transform="translate(-198,-86) scale(1,1)"><path fill="#FFFFFF" stroke="none" d="M 456.419035512032 280.3253497152483 L 448 260 L 439.580964487968 280.3253497152483"/></g><g transform="translate(-198,-86) scale(1,1)"><path fill="none" stroke="#000000" d="M 456.419035512032 280.3253497152483 L 448 260 L 439.580964487968 280.3253497152483 L 456.419035512032 280.3253497152483" stroke-miterlimit="10"/></g><g transform="translate(-198,-86) scale(1,1)"><path fill="none" stroke="#000000" d="M 288 313 L 288 296 L 448 296 L 448 260" stroke-miterlimit="10"/></g><g transform="translate(-198,-86) scale(1,1)"><path fill="#FFFFFF" stroke="none" d="M 456.419035512032 280.3253497152483 L 448 260 L 439.580964487968 280.3253497152483"/></g><g transform="translate(-198,-86) scale(1,1)"><path fill="none" stroke="#000000" d="M 456.419035512032 280.3253497152483 L 448 260 L 439.580964487968 280.3253497152483 L 456.419035512032 280.3253497152483" stroke-miterlimit="10"/></g><g transform="translate(-198,-86) scale(1,1)"><path fill="none" stroke="#000000" d="M 616 313 L 616 296 L 448 296 L 448 260" stroke-miterlimit="10"/></g><g transform="translate(-198,-86) scale(1,1)"><path fill="#FFFFFF" stroke="none" d="M 456.419035512032 280.3253497152483 L 448 260 L 439.580964487968 280.3253497152483"/></g><g transform="translate(-198,-86) scale(1,1)"><path fill="none" stroke="#000000" d="M 456.419035512032 280.3253497152483 L 448 260 L 439.580964487968 280.3253497152483 L 456.419035512032 280.3253497152483" stroke-miterlimit="10"/></g><g transform="translate(-198,-86) scale(1,1)"><rect fill="#ffffff" stroke="none" x="560" y="96" width="100.025390625" height="48"/></g><g transform="translate(-198,-86) scale(1,1)"><path fill="none" stroke="#000000" d="M 560 96 L 660.025390625 96 L 660.025390625 144 L 560 144 L 560 96 Z Z" stroke-miterlimit="10"/></g><g transform="translate(-198,-86) scale(1,1)"><g><path fill="none" stroke="none"/><text fill="#000000" stroke="none" font-family="Arial" font-size="13px" font-style="normal" font-weight="normal" text-decoration="none" x="577.852294921875" y="113.5">«interface»</text></g></g><g transform="translate(-198,-86) scale(1,1)"><g><path fill="none" stroke="none"/><text fill="#000000" stroke="none" font-family="Arial" font-size="13px" font-style="normal" font-weight="bold" text-decoration="none" x="568.102294921875" y="128.5">SourceInjector</text></g></g><g transform="translate(-198,-86) scale(1,1)"><path fill="none" stroke="#000000" d="M 446 216 L 446 192 L 575 192 L 575 144" stroke-miterlimit="10" stroke-dasharray="3"/></g><g transform="translate(-198,-86) scale(1,1)"><path fill="#FFFFFF" stroke="none" d="M 583.419035512032 164.3253497152483 L 575 144 L 566.580964487968 164.3253497152483"/></g><g transform="translate(-198,-86) scale(1,1)"><path fill="none" stroke="#000000" d="M 583.419035512032 164.3253497152483 L 575 144 L 566.580964487968 164.3253497152483 L 583.419035512032 164.3253497152483" stroke-miterlimit="10"/></g><g transform="translate(-198,-86) scale(1,1)"><path fill="none" stroke="#000000" d="M 752 216 L 752 192 L 640 192 L 640 144" stroke-miterlimit="10" stroke-dasharray="3"/></g><g transform="translate(-198,-86) scale(1,1)"><path fill="#FFFFFF" stroke="none" d="M 648.419035512032 164.3253497152483 L 640 144 L 631.580964487968 164.3253497152483"/></g><g transform="translate(-198,-86) scale(1,1)"><path fill="none" stroke="#000000" d="M 648.419035512032 164.3253497152483 L 640 144 L 631.580964487968 164.3253497152483 L 648.419035512032 164.3253497152483" stroke-miterlimit="10"/></g><g transform="translate(-198,-86) scale(1,1)"><path fill="none" stroke="#000000" d="M 381 120 L 560 120" stroke-miterlimit="10"/></g><g transform="translate(-198,-86) scale(1,1)"><path fill="none" stroke="#000000" d="M 549.8373251423759 124.20951775601598 L 560 120 L 549.8373251423758 115.79048224398402" stroke-miterlimit="10"/></g><g transform="translate(-198,-86) scale(1,1)"><g><path fill="none" stroke="none"/><text fill="#000000" stroke="none" font-family="Arial" font-size="13px" font-style="normal" font-weight="normal" text-decoration="none" x="500.38134765625" y="110.5">-injector</text></g></g><g transform="translate(-198,-86) scale(1,1)"><g><path fill="none" stroke="none"/><text fill="#000000" stroke="none" font-family="Arial" font-size="13px" font-style="normal" font-weight="normal" text-decoration="none" x="534.5" y="138.5">1</text></g></g><g transform="translate(-198,-86) scale(1,1)"><rect fill="#ffffff" stroke="none" x="376" y="496" width="140.4853515625" height="44"/></g><g transform="translate(-198,-86) scale(1,1)"><path fill="none" stroke="#000000" d="M 376 496 L 516.4853515625 496 L 516.4853515625 540 L 376 540 L 376 496 Z Z" stroke-miterlimit="10"/></g><g transform="translate(-198,-86) scale(1,1)"><g><path fill="none" stroke="none"/><text fill="#000000" stroke="none" font-family="Arial" font-size="13px" font-style="normal" font-weight="bold" text-decoration="none" x="385.562255859375" y="515.5">GrimeInjectorFactory</text></g></g><g transform="translate(-198,-86) scale(1,1)"><rect fill="#ffffff" stroke="none" x="272" y="400" width="169.39892578125" height="44"/></g><g transform="translate(-198,-86) scale(1,1)"><path fill="none" stroke="#000000" d="M 272 400 L 441.39892578125 400 L 441.39892578125 444 L 272 444 L 272 400 Z Z" stroke-miterlimit="10"/></g><g transform="translate(-198,-86) scale(1,1)"><g><path fill="none" stroke="none"/><text fill="#000000" stroke="none" font-family="Arial" font-size="13px" font-style="normal" font-weight="bold" text-decoration="none" x="281.55908203125" y="419.5">PackageOrgGrimeInjector</text></g></g><g transform="translate(-198,-86) scale(1,1)"><rect fill="#ffffff" stroke="none" x="456" y="400" width="167.18994140625" height="44"/></g><g transform="translate(-198,-86) scale(1,1)"><path fill="none" stroke="#000000" d="M 456 400 L 623.18994140625 400 L 623.18994140625 444 L 456 444 L 456 400 Z Z" stroke-miterlimit="10"/></g><g transform="translate(-198,-86) scale(1,1)"><g><path fill="none" stroke="none"/><text fill="#000000" stroke="none" font-family="Arial" font-size="13px" font-style="normal" font-weight="bold" text-decoration="none" x="466.266845703125" y="419.5">ModularOrgGrimeInjector</text></g></g><g transform="translate(-198,-86) scale(1,1)"><path fill="none" stroke="#000000" d="M 376 504 L 256 504 L 256 357" stroke-miterlimit="10" stroke-dasharray="3"/></g><g transform="translate(-198,-86) scale(1,1)"><path fill="none" stroke="#000000" d="M 260.209517756016 367.16267485762415 L 256 357 L 251.790482243984 367.16267485762415" stroke-miterlimit="10"/></g><g transform="translate(-198,-86) scale(1,1)"><path fill="none" stroke="#000000" d="M 400 496 L 400 444" stroke-miterlimit="10" stroke-dasharray="3"/></g><g transform="translate(-198,-86) scale(1,1)"><path fill="none" stroke="#000000" d="M 404.209517756016 454.16267485762415 L 400 444 L 395.790482243984 454.16267485762415" stroke-miterlimit="10"/></g><g transform="translate(-198,-86) scale(1,1)"><path fill="none" stroke="#000000" d="M 496 496 L 496 444" stroke-miterlimit="10" stroke-dasharray="3"/></g><g transform="translate(-198,-86) scale(1,1)"><path fill="none" stroke="#000000" d="M 500.209517756016 454.16267485762415 L 496 444 L 491.790482243984 454.16267485762415" stroke-miterlimit="10"/></g><g transform="translate(-198,-86) scale(1,1)"><path fill="none" stroke="#000000" d="M 516 504 L 648 504 L 648 357" stroke-miterlimit="10" stroke-dasharray="3"/></g><g transform="translate(-198,-86) scale(1,1)"><path fill="none" stroke="#000000" d="M 652.209517756016 367.16267485762415 L 648 357 L 643.790482243984 367.16267485762415" stroke-miterlimit="10"/></g><g transform="translate(-198,-86) scale(1,1)"><rect fill="#ffffff" stroke="none" x="392" y="576" width="106.29052734375" height="48"/></g><g transform="translate(-198,-86) scale(1,1)"><path fill="none" stroke="#000000" d="M 392 576 L 498.29052734375 576 L 498.29052734375 624 L 392 624 L 392 576 Z Z" stroke-miterlimit="10"/></g><g transform="translate(-198,-86) scale(1,1)"><g><path fill="none" stroke="none"/><text fill="#000000" stroke="none" font-family="Arial" font-size="13px" font-style="normal" font-weight="normal" text-decoration="none" x="412.98486328125" y="593.5">«interface»</text></g></g><g transform="translate(-198,-86) scale(1,1)"><g><path fill="none" stroke="none"/><text fill="#000000" stroke="none" font-family="Arial" font-size="13px" font-style="normal" font-weight="bold" text-decoration="none" x="399.27392578125" y="608.5">OrgGrimeTypes</text></g></g><g transform="translate(-198,-86) scale(1,1)"><rect fill="#ffffff" stroke="none" x="536" y="576" width="133.7314453125" height="48"/></g><g transform="translate(-198,-86) scale(1,1)"><path fill="none" stroke="#000000" d="M 536 576 L 669.7314453125 576 L 669.7314453125 624 L 536 624 L 536 576 Z Z" stroke-miterlimit="10"/></g><g transform="translate(-198,-86) scale(1,1)"><g><path fill="none" stroke="none"/><text fill="#000000" stroke="none" font-family="Arial" font-size="13px" font-style="normal" font-weight="normal" text-decoration="none" x="570.705322265625" y="593.5">«interface»</text></g></g><g transform="translate(-198,-86) scale(1,1)"><g><path fill="none" stroke="none"/><text fill="#000000" stroke="none" font-family="Arial" font-size="13px" font-style="normal" font-weight="bold" text-decoration="none" x="544.3466796875" y="608.5">ModularGrimeTypes</text></g></g><g transform="translate(-198,-86) scale(1,1)"><rect fill="#ffffff" stroke="none" x="232" y="576" width="117.86865234375" height="48"/></g><g transform="translate(-198,-86) scale(1,1)"><path fill="none" stroke="#000000" d="M 232 576 L 349.86865234375 576 L 349.86865234375 624 L 232 624 L 232 576 Z Z" stroke-miterlimit="10"/></g><g transform="translate(-198,-86) scale(1,1)"><g><path fill="none" stroke="none"/><text fill="#000000" stroke="none" font-family="Arial" font-size="13px" font-style="normal" font-weight="normal" text-decoration="none" x="258.77392578125" y="593.5">«interface»</text></g></g><g transform="translate(-198,-86) scale(1,1)"><g><path fill="none" stroke="none"/><text fill="#000000" stroke="none" font-family="Arial" font-size="13px" font-style="normal" font-weight="bold" text-decoration="none" x="239.645263671875" y="608.5">ClassGrimeTypes</text></g></g><g transform="translate(-198,-86) scale(1,1)"><path fill="none" stroke="#000000" d="M 376 528 L 288 528 L 288 576" stroke-miterlimit="10" stroke-dasharray="3"/></g><g transform="translate(-198,-86) scale(1,1)"><path fill="none" stroke="#000000" d="M 283.790482243984 565.8373251423759 L 288 576 L 292.209517756016 565.8373251423759" stroke-miterlimit="10"/></g><g transform="translate(-198,-86) scale(1,1)"><path fill="none" stroke="#000000" d="M 446 540 L 446 576" stroke-miterlimit="10" stroke-dasharray="3"/></g><g transform="translate(-198,-86) scale(1,1)"><path fill="none" stroke="#000000" d="M 441.790482243984 565.8373251423759 L 446 576 L 450.209517756016 565.8373251423759" stroke-miterlimit="10"/></g><g transform="translate(-198,-86) scale(1,1)"><path fill="none" stroke="#000000" d="M 516 528 L 600 528 L 600 576" stroke-miterlimit="10" stroke-dasharray="3"/></g><g transform="translate(-198,-86) scale(1,1)"><path fill="none" stroke="#000000" d="M 595.790482243984 565.8373251423759 L 600 576 L 604.209517756016 565.8373251423759" stroke-miterlimit="10"/></g><g transform="translate(-198,-86) scale(1,1)"><path fill="none" stroke="#000000" d="M 360 400 L 360 384 L 448 384 L 448 357" stroke-miterlimit="10"/></g><g transform="translate(-198,-86) scale(1,1)"><path fill="#FFFFFF" stroke="none" d="M 456.419035512032 377.3253497152483 L 448 357 L 439.580964487968 377.3253497152483"/></g><g transform="translate(-198,-86) scale(1,1)"><path fill="none" stroke="#000000" d="M 456.419035512032 377.3253497152483 L 448 357 L 439.580964487968 377.3253497152483 L 456.419035512032 377.3253497152483" stroke-miterlimit="10"/></g><g transform="translate(-198,-86) scale(1,1)"><path fill="none" stroke="#000000" d="M 544 400 L 544 384 L 448 384 L 448 357" stroke-miterlimit="10"/></g><g transform="translate(-198,-86) scale(1,1)"><path fill="#FFFFFF" stroke="none" d="M 456.419035512032 377.3253497152483 L 448 357 L 439.580964487968 377.3253497152483"/></g><g transform="translate(-198,-86) scale(1,1)"><path fill="none" stroke="#000000" d="M 456.419035512032 377.3253497152483 L 448 357 L 439.580964487968 377.3253497152483 L 456.419035512032 377.3253497152483" stroke-miterlimit="10"/></g><g transform="translate(-198,-86) scale(1,1)"><path fill="none" stroke="#000000" d="M 256 120 L 208 120 L 208 518 L 376 518" stroke-miterlimit="10" stroke-dasharray="3"/></g><g transform="translate(-198,-86) scale(1,1)"><path fill="none" stroke="#000000" d="M 365.83732514237585 522.209517756016 L 376 518 L 365.83732514237585 513.790482243984" stroke-miterlimit="10"/></g></g></svg>