<svg version="1.1" xmlns="http://www.w3.org/2000/svg" xmlns:xlink="http://www.w3.org/1999/xlink" width="529" height="516"><defs/><g><g transform="translate(-341,-46) scale(1,1)"><rect fill="#ffffff" stroke="none" x="736" y="224" width="124" height="135"/></g><g transform="translate(-341,-46) scale(1,1)"><path fill="none" stroke="#000000" d="M 736 224 L 860 224 L 860 359 L 736 359 L 736 224 Z Z" stroke-miterlimit="10"/></g><g transform="translate(-341,-46) scale(1,1)"><path fill="none" stroke="#000000" d="M 736 262 L 860 262" stroke-miterlimit="10"/></g><g transform="translate(-341,-46) scale(1,1)"><g><path fill="none" stroke="none"/><text fill="#000000" stroke="none" font-family="Arial" font-size="13px" font-style="normal" font-weight="normal" text-decoration="none" x="754.635986328125" y="241.5">«enumeration»</text></g></g><g transform="translate(-341,-46) scale(1,1)"><g><path fill="none" stroke="none"/><text fill="#000000" stroke="none" font-family="Arial" font-size="13px" font-style="normal" font-weight="bold" text-decoration="none" x="773.793212890625" y="256.5">RefType</text></g></g><g transform="translate(-341,-46) scale(1,1)"><g><path fill="none" stroke="none"/><text fill="#000000" stroke="none" font-family="Arial" font-size="13px" font-style="normal" font-weight="normal" text-decoration="none" x="741" y="279.5">TYPE</text></g></g><g transform="translate(-341,-46) scale(1,1)"><g><path fill="none" stroke="none"/><text fill="#000000" stroke="none" font-family="Arial" font-size="13px" font-style="normal" font-weight="normal" text-decoration="none" x="741" y="294.5">METHOD</text></g></g><g transform="translate(-341,-46) scale(1,1)"><g><path fill="none" stroke="none"/><text fill="#000000" stroke="none" font-family="Arial" font-size="13px" font-style="normal" font-weight="normal" text-decoration="none" x="741" y="309.5">INITIALIZER</text></g></g><g transform="translate(-341,-46) scale(1,1)"><g><path fill="none" stroke="none"/><text fill="#000000" stroke="none" font-family="Arial" font-size="13px" font-style="normal" font-weight="normal" text-decoration="none" x="741" y="324.5">CONSTRUCTOR</text></g></g><g transform="translate(-341,-46) scale(1,1)"><g><path fill="none" stroke="none"/><text fill="#000000" stroke="none" font-family="Arial" font-size="13px" font-style="normal" font-weight="normal" text-decoration="none" x="741" y="339.5">FIELD</text></g></g><g transform="translate(-341,-46) scale(1,1)"><g><path fill="none" stroke="none"/><text fill="#000000" stroke="none" font-family="Arial" font-size="13px" font-style="normal" font-weight="normal" text-decoration="none" x="741" y="354.5">LITERAL</text></g></g><g transform="translate(-341,-46) scale(1,1)"><path fill="none" stroke="#000000" d="M 800 480 L 800 359" stroke-miterlimit="10"/></g><g transform="translate(-341,-46) scale(1,1)"><path fill="none" stroke="#000000" d="M 804.209517756016 369.16267485762415 L 800 359 L 795.790482243984 369.16267485762415" stroke-miterlimit="10"/></g><g transform="translate(-341,-46) scale(1,1)"><g><path fill="none" stroke="none"/><text fill="#000000" stroke="none" font-family="Arial" font-size="13px" font-style="normal" font-weight="normal" text-decoration="none" x="807.385009765625" y="475.5">1</text></g></g><g transform="translate(-341,-46) scale(1,1)"><g><path fill="none" stroke="none"/><text fill="#000000" stroke="none" font-family="Arial" font-size="13px" font-style="normal" font-weight="normal" text-decoration="none" x="744.658203125" y="380.5">-refType</text></g></g><g transform="translate(-341,-46) scale(1,1)"><g><path fill="none" stroke="none"/><text fill="#000000" stroke="none" font-family="Arial" font-size="13px" font-style="normal" font-weight="normal" text-decoration="none" x="807.5" y="377.5">1</text></g></g><g transform="translate(-341,-46) scale(1,1)"><rect fill="#ffffff" stroke="none" x="744" y="480" width="110" height="72"/></g><g transform="translate(-341,-46) scale(1,1)"><path fill="none" stroke="#000000" d="M 744 480 L 854 480 L 854 552 L 744 552 L 744 480 Z Z" stroke-miterlimit="10"/></g><g transform="translate(-341,-46) scale(1,1)"><path fill="none" stroke="#000000" d="M 744 505 L 854 505" stroke-miterlimit="10"/></g><g transform="translate(-341,-46) scale(1,1)"><path fill="none" stroke="#000000" d="M 744 528 L 854 528" stroke-miterlimit="10"/></g><g transform="translate(-341,-46) scale(1,1)"><g><path fill="none" stroke="none"/><text fill="#000000" stroke="none" font-family="Arial" font-size="13px" font-style="normal" font-weight="bold" text-decoration="none" x="769.010498046875" y="499.5">Reference</text></g></g><g transform="translate(-341,-46) scale(1,1)"><g><path fill="none" stroke="none"/><text fill="#000000" stroke="none" font-family="Arial" font-size="13px" font-style="normal" font-weight="normal" text-decoration="none" x="749" y="522.5">-refKey: String</text></g></g><g transform="translate(-341,-46) scale(1,1)"><rect fill="#ffffff" stroke="none" x="568" y="480" width="86" height="44"/></g><g transform="translate(-341,-46) scale(1,1)"><path fill="none" stroke="#000000" d="M 568 480 L 654 480 L 654 524 L 568 524 L 568 480 Z Z" stroke-miterlimit="10"/></g><g transform="translate(-341,-46) scale(1,1)"><path fill="none" stroke="#000000" d="M 568 505 L 654 505" stroke-miterlimit="10"/></g><g transform="translate(-341,-46) scale(1,1)"><path fill="none" stroke="#000000" d="M 568 515 L 654 515" stroke-miterlimit="10"/></g><g transform="translate(-341,-46) scale(1,1)"><g><path fill="none" stroke="none"/><text fill="#000000" stroke="none" font-family="Arial" font-size="13px" font-style="normal" font-weight="bold" text-decoration="none" x="575.9482421875" y="499.5">RoleBinding</text></g></g><g transform="translate(-341,-46) scale(1,1)"><rect fill="#ffffff" stroke="none" x="368" y="480" width="103" height="72"/></g><g transform="translate(-341,-46) scale(1,1)"><path fill="none" stroke="#000000" d="M 368 480 L 471 480 L 471 552 L 368 552 L 368 480 Z Z" stroke-miterlimit="10"/></g><g transform="translate(-341,-46) scale(1,1)"><path fill="none" stroke="#000000" d="M 368 505 L 471 505" stroke-miterlimit="10"/></g><g transform="translate(-341,-46) scale(1,1)"><path fill="none" stroke="#000000" d="M 368 543 L 471 543" stroke-miterlimit="10"/></g><g transform="translate(-341,-46) scale(1,1)"><g><path fill="none" stroke="none"/><text fill="#000000" stroke="none" font-family="Arial" font-size="13px" font-style="normal" font-weight="bold" text-decoration="none" x="406.1318359375" y="499.5">Role</text></g></g><g transform="translate(-341,-46) scale(1,1)"><g><path fill="none" stroke="none"/><text fill="#000000" stroke="none" font-family="Arial" font-size="13px" font-style="normal" font-weight="normal" text-decoration="none" x="373" y="522.5">-roleKey: String</text></g></g><g transform="translate(-341,-46) scale(1,1)"><g><path fill="none" stroke="none"/><text fill="#000000" stroke="none" font-family="Arial" font-size="13px" font-style="normal" font-weight="normal" text-decoration="none" x="373" y="537.5">-name: String</text></g></g><g transform="translate(-341,-46) scale(1,1)"><rect fill="#ffffff" stroke="none" x="360" y="360" width="122" height="72"/></g><g transform="translate(-341,-46) scale(1,1)"><path fill="none" stroke="#000000" d="M 360 360 L 482 360 L 482 432 L 360 432 L 360 360 Z Z" stroke-miterlimit="10"/></g><g transform="translate(-341,-46) scale(1,1)"><path fill="none" stroke="#000000" d="M 360 385 L 482 385" stroke-miterlimit="10"/></g><g transform="translate(-341,-46) scale(1,1)"><path fill="none" stroke="#000000" d="M 360 423 L 482 423" stroke-miterlimit="10"/></g><g transform="translate(-341,-46) scale(1,1)"><g><path fill="none" stroke="none"/><text fill="#000000" stroke="none" font-family="Arial" font-size="13px" font-style="normal" font-weight="bold" text-decoration="none" x="400.043212890625" y="379.5">Pattern</text></g></g><g transform="translate(-341,-46) scale(1,1)"><g><path fill="none" stroke="none"/><text fill="#000000" stroke="none" font-family="Arial" font-size="13px" font-style="normal" font-weight="normal" text-decoration="none" x="365" y="402.5">-patternKey: String</text></g></g><g transform="translate(-341,-46) scale(1,1)"><g><path fill="none" stroke="none"/><text fill="#000000" stroke="none" font-family="Arial" font-size="13px" font-style="normal" font-weight="normal" text-decoration="none" x="365" y="417.5">-name: String</text></g></g><g transform="translate(-341,-46) scale(1,1)"><path fill="none" stroke="#000000" d="M 568 500 L 471 500" stroke-miterlimit="10"/></g><g transform="translate(-341,-46) scale(1,1)"><path fill="none" stroke="#000000" d="M 481.16267485762415 495.790482243984 L 471 500 L 481.16267485762415 504.209517756016" stroke-miterlimit="10"/></g><g transform="translate(-341,-46) scale(1,1)"><g><path fill="none" stroke="none"/><text fill="#000000" stroke="none" font-family="Arial" font-size="13px" font-style="normal" font-weight="normal" text-decoration="none" x="542.5" y="493.5">1</text></g></g><g transform="translate(-341,-46) scale(1,1)"><g><path fill="none" stroke="none"/><text fill="#000000" stroke="none" font-family="Arial" font-size="13px" font-style="normal" font-weight="normal" text-decoration="none" x="482.996826171875" y="520.5">-role</text></g></g><g transform="translate(-341,-46) scale(1,1)"><g><path fill="none" stroke="none"/><text fill="#000000" stroke="none" font-family="Arial" font-size="13px" font-style="normal" font-weight="normal" text-decoration="none" x="488.5" y="493.5">1</text></g></g><g transform="translate(-341,-46) scale(1,1)"><path fill="none" stroke="#000000" d="M 424 480 L 424 432" stroke-miterlimit="10"/></g><g transform="translate(-341,-46) scale(1,1)"><path fill="#000000" stroke="none" d="M 428.209517756016 442.16267485762415 L 424 432 L 419.790482243984 442.16267485762415 L 424 454"/></g><g transform="translate(-341,-46) scale(1,1)"><path fill="none" stroke="#000000" d="M 428.209517756016 442.16267485762415 L 424 432 L 419.790482243984 442.16267485762415 L 424 454 L 428.209517756016 442.16267485762415" stroke-miterlimit="10"/></g><g transform="translate(-341,-46) scale(1,1)"><g><path fill="none" stroke="none"/><text fill="#000000" stroke="none" font-family="Arial" font-size="13px" font-style="normal" font-weight="normal" text-decoration="none" x="381.246826171875" y="473.5">-roles</text></g></g><g transform="translate(-341,-46) scale(1,1)"><g><path fill="none" stroke="none"/><text fill="#000000" stroke="none" font-family="Arial" font-size="13px" font-style="normal" font-weight="normal" text-decoration="none" x="433.220458984375" y="474.5">*</text></g></g><g transform="translate(-341,-46) scale(1,1)"><g><path fill="none" stroke="none"/><text fill="#000000" stroke="none" font-family="Arial" font-size="13px" font-style="normal" font-weight="normal" text-decoration="none" x="364.09912109375" y="447.5">-pattern</text></g></g><g transform="translate(-341,-46) scale(1,1)"><g><path fill="none" stroke="none"/><text fill="#000000" stroke="none" font-family="Arial" font-size="13px" font-style="normal" font-weight="normal" text-decoration="none" x="432.5" y="447.5">1</text></g></g><g transform="translate(-341,-46) scale(1,1)"><path fill="none" stroke="#000000" d="M 627 480 L 627 417" stroke-miterlimit="10"/></g><g transform="translate(-341,-46) scale(1,1)"><path fill="#000000" stroke="none" d="M 631.209517756016 427.16267485762415 L 627 417 L 622.790482243984 427.16267485762415 L 627 439"/></g><g transform="translate(-341,-46) scale(1,1)"><path fill="none" stroke="#000000" d="M 631.209517756016 427.16267485762415 L 627 417 L 622.790482243984 427.16267485762415 L 627 439 L 631.209517756016 427.16267485762415" stroke-miterlimit="10"/></g><g transform="translate(-341,-46) scale(1,1)"><g><path fill="none" stroke="none"/><text fill="#000000" stroke="none" font-family="Arial" font-size="13px" font-style="normal" font-weight="normal" text-decoration="none" x="567.122314453125" y="476.5">-bindings</text></g></g><g transform="translate(-341,-46) scale(1,1)"><g><path fill="none" stroke="none"/><text fill="#000000" stroke="none" font-family="Arial" font-size="13px" font-style="normal" font-weight="normal" text-decoration="none" x="631.220458984375" y="476.5">*</text></g></g><g transform="translate(-341,-46) scale(1,1)"><g><path fill="none" stroke="none"/><text fill="#000000" stroke="none" font-family="Arial" font-size="13px" font-style="normal" font-weight="normal" text-decoration="none" x="560.62548828125" y="435.5">-instance</text></g></g><g transform="translate(-341,-46) scale(1,1)"><g><path fill="none" stroke="none"/><text fill="#000000" stroke="none" font-family="Arial" font-size="13px" font-style="normal" font-weight="normal" text-decoration="none" x="635.5" y="435.5">1</text></g></g><g transform="translate(-341,-46) scale(1,1)"><rect fill="#ffffff" stroke="none" x="560" y="360" width="106.53173828125" height="57"/></g><g transform="translate(-341,-46) scale(1,1)"><path fill="none" stroke="#000000" d="M 560 360 L 666.53173828125 360 L 666.53173828125 417 L 560 417 L 560 360 Z Z" stroke-miterlimit="10"/></g><g transform="translate(-341,-46) scale(1,1)"><path fill="none" stroke="#000000" d="M 560 385 L 666.53173828125 385" stroke-miterlimit="10"/></g><g transform="translate(-341,-46) scale(1,1)"><path fill="none" stroke="#000000" d="M 560 408 L 666.53173828125 408" stroke-miterlimit="10"/></g><g transform="translate(-341,-46) scale(1,1)"><g><path fill="none" stroke="none"/><text fill="#000000" stroke="none" font-family="Arial" font-size="13px" font-style="normal" font-weight="bold" text-decoration="none" x="567.7373046875" y="379.5">PatternInstance</text></g></g><g transform="translate(-341,-46) scale(1,1)"><g><path fill="none" stroke="none"/><text fill="#000000" stroke="none" font-family="Arial" font-size="13px" font-style="normal" font-weight="normal" text-decoration="none" x="565" y="402.5">-instKey: String</text></g></g><g transform="translate(-341,-46) scale(1,1)"><path fill="none" stroke="#000000" d="M 616 360 L 616 304" stroke-miterlimit="10"/></g><g transform="translate(-341,-46) scale(1,1)"><path fill="#FFFFFF" stroke="none" d="M 620.209517756016 314.16267485762415 L 616 304 L 611.790482243984 314.16267485762415 L 616 326"/></g><g transform="translate(-341,-46) scale(1,1)"><path fill="none" stroke="#000000" d="M 620.209517756016 314.16267485762415 L 616 304 L 611.790482243984 314.16267485762415 L 616 326 L 620.209517756016 314.16267485762415" stroke-miterlimit="10"/></g><g transform="translate(-341,-46) scale(1,1)"><path fill="none" stroke="#000000" d="M 611.790482243984 349.83732514237585 L 616 360 L 620.209517756016 349.83732514237585" stroke-miterlimit="10"/></g><g transform="translate(-341,-46) scale(1,1)"><g><path fill="none" stroke="none"/><text fill="#000000" stroke="none" font-family="Arial" font-size="13px" font-style="normal" font-weight="normal" text-decoration="none" x="558.34912109375" y="356.5">-patterns</text></g></g><g transform="translate(-341,-46) scale(1,1)"><g><path fill="none" stroke="none"/><text fill="#000000" stroke="none" font-family="Arial" font-size="13px" font-style="normal" font-weight="normal" text-decoration="none" x="627.470458984375" y="356.5">*</text></g></g><g transform="translate(-341,-46) scale(1,1)"><g><path fill="none" stroke="none"/><text fill="#000000" stroke="none" font-family="Arial" font-size="13px" font-style="normal" font-weight="normal" text-decoration="none" x="597.5" y="324.5">1</text></g></g><g transform="translate(-341,-46) scale(1,1)"><rect fill="#ffffff" stroke="none" x="552" y="232" width="114" height="72"/></g><g transform="translate(-341,-46) scale(1,1)"><path fill="none" stroke="#000000" d="M 552 232 L 666 232 L 666 304 L 552 304 L 552 232 Z Z" stroke-miterlimit="10"/></g><g transform="translate(-341,-46) scale(1,1)"><path fill="none" stroke="#000000" d="M 552 257 L 666 257" stroke-miterlimit="10"/></g><g transform="translate(-341,-46) scale(1,1)"><path fill="none" stroke="#000000" d="M 552 295 L 666 295" stroke-miterlimit="10"/></g><g transform="translate(-341,-46) scale(1,1)"><g><path fill="none" stroke="none"/><text fill="#000000" stroke="none" font-family="Arial" font-size="13px" font-style="normal" font-weight="bold" text-decoration="none" x="571.06005859375" y="251.5">PatternChain</text></g></g><g transform="translate(-341,-46) scale(1,1)"><g><path fill="none" stroke="none"/><text fill="#000000" stroke="none" font-family="Arial" font-size="13px" font-style="normal" font-weight="normal" text-decoration="none" x="557" y="274.5">-chainKey: String</text></g></g><g transform="translate(-341,-46) scale(1,1)"><g><path fill="none" stroke="none"/><text fill="#000000" stroke="none" font-family="Arial" font-size="13px" font-style="normal" font-weight="normal" text-decoration="none" x="557" y="289.5">-sysName: String</text></g></g><g transform="translate(-341,-46) scale(1,1)"><rect fill="#ffffff" stroke="none" x="360" y="232" width="121.68994140625" height="72"/></g><g transform="translate(-341,-46) scale(1,1)"><path fill="none" stroke="#000000" d="M 360 232 L 481.68994140625 232 L 481.68994140625 304 L 360 304 L 360 232 Z Z" stroke-miterlimit="10"/></g><g transform="translate(-341,-46) scale(1,1)"><path fill="none" stroke="#000000" d="M 360 257 L 481.68994140625 257" stroke-miterlimit="10"/></g><g transform="translate(-341,-46) scale(1,1)"><path fill="none" stroke="#000000" d="M 360 295 L 481.68994140625 295" stroke-miterlimit="10"/></g><g transform="translate(-341,-46) scale(1,1)"><g><path fill="none" stroke="none"/><text fill="#000000" stroke="none" font-family="Arial" font-size="13px" font-style="normal" font-weight="bold" text-decoration="none" x="368.819580078125" y="251.5">PatternRepository</text></g></g><g transform="translate(-341,-46) scale(1,1)"><g><path fill="none" stroke="none"/><text fill="#000000" stroke="none" font-family="Arial" font-size="13px" font-style="normal" font-weight="normal" text-decoration="none" x="365" y="274.5">-repoKey: String</text></g></g><g transform="translate(-341,-46) scale(1,1)"><g><path fill="none" stroke="none"/><text fill="#000000" stroke="none" font-family="Arial" font-size="13px" font-style="normal" font-weight="normal" text-decoration="none" x="365" y="289.5">-name: String</text></g></g><g transform="translate(-341,-46) scale(1,1)"><path fill="none" stroke="#000000" d="M 424 360 L 424 304" stroke-miterlimit="10"/></g><g transform="translate(-341,-46) scale(1,1)"><path fill="#000000" stroke="none" d="M 428.209517756016 314.16267485762415 L 424 304 L 419.790482243984 314.16267485762415 L 424 326"/></g><g transform="translate(-341,-46) scale(1,1)"><path fill="none" stroke="#000000" d="M 428.209517756016 314.16267485762415 L 424 304 L 419.790482243984 314.16267485762415 L 424 326 L 428.209517756016 314.16267485762415" stroke-miterlimit="10"/></g><g transform="translate(-341,-46) scale(1,1)"><g><path fill="none" stroke="none"/><text fill="#000000" stroke="none" font-family="Arial" font-size="13px" font-style="normal" font-weight="normal" text-decoration="none" x="432.34912109375" y="355.5">-patterns</text></g></g><g transform="translate(-341,-46) scale(1,1)"><g><path fill="none" stroke="none"/><text fill="#000000" stroke="none" font-family="Arial" font-size="13px" font-style="normal" font-weight="normal" text-decoration="none" x="415.220458984375" y="355.5">*</text></g></g><g transform="translate(-341,-46) scale(1,1)"><g><path fill="none" stroke="none"/><text fill="#000000" stroke="none" font-family="Arial" font-size="13px" font-style="normal" font-weight="normal" text-decoration="none" x="352.29638671875" y="322.5">-repository</text></g></g><g transform="translate(-341,-46) scale(1,1)"><g><path fill="none" stroke="none"/><text fill="#000000" stroke="none" font-family="Arial" font-size="13px" font-style="normal" font-weight="normal" text-decoration="none" x="437.5" y="321.5">1</text></g></g><g transform="translate(-341,-46) scale(1,1)"><path fill="none" stroke="#000000" d="M 576 232 L 576 184 L 456 184" stroke-miterlimit="10"/></g><g transform="translate(-341,-46) scale(1,1)"><path fill="#000000" stroke="none" d="M 466.16267485762415 179.790482243984 L 456 184 L 466.16267485762415 188.209517756016 L 478 184"/></g><g transform="translate(-341,-46) scale(1,1)"><path fill="none" stroke="#000000" d="M 466.16267485762415 179.790482243984 L 456 184 L 466.16267485762415 188.209517756016 L 478 184 L 466.16267485762415 179.790482243984" stroke-miterlimit="10"/></g><g transform="translate(-341,-46) scale(1,1)"><g><path fill="none" stroke="none"/><text fill="#000000" stroke="none" font-family="Arial" font-size="13px" font-style="normal" font-weight="normal" text-decoration="none" x="486.5" y="228.5">-patternChains</text></g></g><g transform="translate(-341,-46) scale(1,1)"><g><path fill="none" stroke="none"/><text fill="#000000" stroke="none" font-family="Arial" font-size="13px" font-style="normal" font-weight="normal" text-decoration="none" x="638.220458984375" y="227.5">*</text></g></g><g transform="translate(-341,-46) scale(1,1)"><g><path fill="none" stroke="none"/><text fill="#000000" stroke="none" font-family="Arial" font-size="13px" font-style="normal" font-weight="normal" text-decoration="none" x="458.25" y="204.5">-system</text></g></g><g transform="translate(-341,-46) scale(1,1)"><g><path fill="none" stroke="none"/><text fill="#000000" stroke="none" font-family="Arial" font-size="13px" font-style="normal" font-weight="normal" text-decoration="none" x="463.5" y="174.5">1</text></g></g><g transform="translate(-341,-46) scale(1,1)"><rect fill="#ffffff" stroke="none" x="360" y="120" width="96" height="102"/></g><g transform="translate(-341,-46) scale(1,1)"><path fill="none" stroke="#000000" d="M 360 120 L 456 120 L 456 222 L 360 222 L 360 120 Z Z" stroke-miterlimit="10"/></g><g transform="translate(-341,-46) scale(1,1)"><path fill="none" stroke="#000000" d="M 360 145 L 456 145" stroke-miterlimit="10"/></g><g transform="translate(-341,-46) scale(1,1)"><path fill="none" stroke="#000000" d="M 360 213 L 456 213" stroke-miterlimit="10"/></g><g transform="translate(-341,-46) scale(1,1)"><g><path fill="none" stroke="none"/><text fill="#000000" stroke="none" font-family="Arial" font-size="13px" font-style="normal" font-weight="bold" text-decoration="none" x="386.3291015625" y="139.5">System</text></g></g><g transform="translate(-341,-46) scale(1,1)"><g><path fill="none" stroke="none"/><text fill="#000000" stroke="none" font-family="Arial" font-size="13px" font-style="normal" font-weight="normal" text-decoration="none" x="365" y="162.5">-name</text></g></g><g transform="translate(-341,-46) scale(1,1)"><g><path fill="none" stroke="none"/><text fill="#000000" stroke="none" font-family="Arial" font-size="13px" font-style="normal" font-weight="normal" text-decoration="none" x="365" y="177.5">-version</text></g></g><g transform="translate(-341,-46) scale(1,1)"><g><path fill="none" stroke="none"/><text fill="#000000" stroke="none" font-family="Arial" font-size="13px" font-style="normal" font-weight="normal" text-decoration="none" x="365" y="192.5">-language</text></g></g><g transform="translate(-341,-46) scale(1,1)"><g><path fill="none" stroke="none"/><text fill="#000000" stroke="none" font-family="Arial" font-size="13px" font-style="normal" font-weight="normal" text-decoration="none" x="365" y="207.5">-sysKey</text></g></g><g transform="translate(-341,-46) scale(1,1)"><path fill="none" stroke="#000000" d="M 384 120 L 384 56 L 808 56 L 808 112" stroke-miterlimit="10" stroke-dasharray="3"/></g><g transform="translate(-341,-46) scale(1,1)"><path fill="#FFFFFF" stroke="none" d="M 799.580964487968 91.67465028475169 L 808 112 L 816.419035512032 91.67465028475169"/></g><g transform="translate(-341,-46) scale(1,1)"><path fill="none" stroke="#000000" d="M 799.580964487968 91.67465028475169 L 808 112 L 816.419035512032 91.67465028475169 L 799.580964487968 91.67465028475169" stroke-miterlimit="10"/></g><g transform="translate(-341,-46) scale(1,1)"><rect fill="#ffffff" stroke="none" x="760" y="112" width="87.76171875" height="48"/></g><g transform="translate(-341,-46) scale(1,1)"><path fill="none" stroke="#000000" d="M 760 112 L 847.76171875 112 L 847.76171875 160 L 760 160 L 760 112 Z Z" stroke-miterlimit="10"/></g><g transform="translate(-341,-46) scale(1,1)"><g><path fill="none" stroke="none"/><text fill="#000000" stroke="none" font-family="Arial" font-size="13px" font-style="normal" font-weight="normal" text-decoration="none" x="771.720458984375" y="129.5">«interface»</text></g></g><g transform="translate(-341,-46) scale(1,1)"><g><path fill="none" stroke="none"/><text fill="#000000" stroke="none" font-family="Arial" font-size="13px" font-style="normal" font-weight="bold" text-decoration="none" x="766.302734375" y="144.5">Measureable</text></g></g><g transform="translate(-341,-46) scale(1,1)"><path fill="none" stroke="#000000" d="M 654 504 L 744 504" stroke-miterlimit="10"/></g><g transform="translate(-341,-46) scale(1,1)"><path fill="none" stroke="#000000" d="M 733.8373251423759 508.209517756016 L 744 504 L 733.8373251423758 499.790482243984" stroke-miterlimit="10"/></g><g transform="translate(-341,-46) scale(1,1)"><g><path fill="none" stroke="none"/><text fill="#000000" stroke="none" font-family="Arial" font-size="13px" font-style="normal" font-weight="normal" text-decoration="none" x="659.5" y="497.5">1</text></g></g><g transform="translate(-341,-46) scale(1,1)"><g><path fill="none" stroke="none"/><text fill="#000000" stroke="none" font-family="Arial" font-size="13px" font-style="normal" font-weight="normal" text-decoration="none" x="713.25" y="493.5">-ref</text></g></g><g transform="translate(-341,-46) scale(1,1)"><g><path fill="none" stroke="none"/><text fill="#000000" stroke="none" font-family="Arial" font-size="13px" font-style="normal" font-weight="normal" text-decoration="none" x="729.5" y="522.5">1</text></g></g><g transform="translate(-341,-46) scale(1,1)"><path fill="none" stroke="#000000" d="M 667 392 L 720 392 L 720 200 L 808 200 L 808 160" stroke-miterlimit="10" stroke-dasharray="3"/></g><g transform="translate(-341,-46) scale(1,1)"><path fill="#FFFFFF" stroke="none" d="M 816.419035512032 180.3253497152483 L 808 160 L 799.580964487968 180.3253497152483"/></g><g transform="translate(-341,-46) scale(1,1)"><path fill="none" stroke="#000000" d="M 816.419035512032 180.3253497152483 L 808 160 L 799.580964487968 180.3253497152483 L 816.419035512032 180.3253497152483" stroke-miterlimit="10"/></g><g transform="translate(-341,-46) scale(1,1)"><path fill="none" stroke="#000000" d="M 648 232 L 648 174" stroke-miterlimit="10"/></g><g transform="translate(-341,-46) scale(1,1)"><path fill="#FFFFFF" stroke="none" d="M 652.209517756016 184.16267485762415 L 648 174 L 643.790482243984 184.16267485762415 L 648 196"/></g><g transform="translate(-341,-46) scale(1,1)"><path fill="none" stroke="#000000" d="M 652.209517756016 184.16267485762415 L 648 174 L 643.790482243984 184.16267485762415 L 648 196 L 652.209517756016 184.16267485762415" stroke-miterlimit="10"/></g><g transform="translate(-341,-46) scale(1,1)"><g><path fill="none" stroke="none"/><text fill="#000000" stroke="none" font-family="Arial" font-size="13px" font-style="normal" font-weight="normal" text-decoration="none" x="656.34912109375" y="227.5">-patterns</text></g></g><g transform="translate(-341,-46) scale(1,1)"><g><path fill="none" stroke="none"/><text fill="#000000" stroke="none" font-family="Arial" font-size="13px" font-style="normal" font-weight="normal" text-decoration="none" x="582.220458984375" y="228.5">*</text></g></g><g transform="translate(-341,-46) scale(1,1)"><g><path fill="none" stroke="none"/><text fill="#000000" stroke="none" font-family="Arial" font-size="13px" font-style="normal" font-weight="normal" text-decoration="none" x="658.325927734375" y="188.5">-project</text></g></g><g transform="translate(-341,-46) scale(1,1)"><g><path fill="none" stroke="none"/><text fill="#000000" stroke="none" font-family="Arial" font-size="13px" font-style="normal" font-weight="normal" text-decoration="none" x="631.5" y="192.5">1</text></g></g><g transform="translate(-341,-46) scale(1,1)"><rect fill="#ffffff" stroke="none" x="544" y="72" width="127" height="102"/></g><g transform="translate(-341,-46) scale(1,1)"><path fill="none" stroke="#000000" d="M 544 72 L 671 72 L 671 174 L 544 174 L 544 72 Z Z" stroke-miterlimit="10"/></g><g transform="translate(-341,-46) scale(1,1)"><path fill="none" stroke="#000000" d="M 544 97 L 671 97" stroke-miterlimit="10"/></g><g transform="translate(-341,-46) scale(1,1)"><path fill="none" stroke="#000000" d="M 544 165 L 671 165" stroke-miterlimit="10"/></g><g transform="translate(-341,-46) scale(1,1)"><g><path fill="none" stroke="none"/><text fill="#000000" stroke="none" font-family="Arial" font-size="13px" font-style="normal" font-weight="bold" text-decoration="none" x="587.27001953125" y="91.5">Project</text></g></g><g transform="translate(-341,-46) scale(1,1)"><g><path fill="none" stroke="none"/><text fill="#000000" stroke="none" font-family="Arial" font-size="13px" font-style="normal" font-weight="normal" text-decoration="none" x="549" y="114.5">-projKey: String</text></g></g><g transform="translate(-341,-46) scale(1,1)"><g><path fill="none" stroke="none"/><text fill="#000000" stroke="none" font-family="Arial" font-size="13px" font-style="normal" font-weight="normal" text-decoration="none" x="549" y="129.5">-name: String</text></g></g><g transform="translate(-341,-46) scale(1,1)"><g><path fill="none" stroke="none"/><text fill="#000000" stroke="none" font-family="Arial" font-size="13px" font-style="normal" font-weight="normal" text-decoration="none" x="549" y="144.5">-languages: String[*]</text></g></g><g transform="translate(-341,-46) scale(1,1)"><g><path fill="none" stroke="none"/><text fill="#000000" stroke="none" font-family="Arial" font-size="13px" font-style="normal" font-weight="normal" text-decoration="none" x="549" y="159.5">-version: String</text></g></g><g transform="translate(-341,-46) scale(1,1)"><path fill="none" stroke="#000000" d="M 544 136 L 456 136" stroke-miterlimit="10"/></g><g transform="translate(-341,-46) scale(1,1)"><path fill="#000000" stroke="none" d="M 466.16267485762415 131.790482243984 L 456 136 L 466.16267485762415 140.209517756016 L 478 136"/></g><g transform="translate(-341,-46) scale(1,1)"><path fill="none" stroke="#000000" d="M 466.16267485762415 131.790482243984 L 456 136 L 466.16267485762415 140.209517756016 L 478 136 L 466.16267485762415 131.790482243984" stroke-miterlimit="10"/></g><g transform="translate(-341,-46) scale(1,1)"><g><path fill="none" stroke="none"/><text fill="#000000" stroke="none" font-family="Arial" font-size="13px" font-style="normal" font-weight="normal" text-decoration="none" x="486.575927734375" y="129.5">-projects</text></g></g><g transform="translate(-341,-46) scale(1,1)"><g><path fill="none" stroke="none"/><text fill="#000000" stroke="none" font-family="Arial" font-size="13px" font-style="normal" font-weight="normal" text-decoration="none" x="518.74365234375" y="156.5">1..*</text></g></g><g transform="translate(-341,-46) scale(1,1)"><g><path fill="none" stroke="none"/><text fill="#000000" stroke="none" font-family="Arial" font-size="13px" font-style="normal" font-weight="normal" text-decoration="none" x="458.25" y="155.5">-system</text></g></g><g transform="translate(-341,-46) scale(1,1)"><g><path fill="none" stroke="none"/><text fill="#000000" stroke="none" font-family="Arial" font-size="13px" font-style="normal" font-weight="normal" text-decoration="none" x="461.5" y="128.5">1</text></g></g><g transform="translate(-341,-46) scale(1,1)"><path fill="none" stroke="#000000" d="M 671 132 L 760 132" stroke-miterlimit="10" stroke-dasharray="3"/></g><g transform="translate(-341,-46) scale(1,1)"><path fill="#FFFFFF" stroke="none" d="M 739.6746502847517 140.41903551203197 L 760 132 L 739.6746502847517 123.58096448796803"/></g><g transform="translate(-341,-46) scale(1,1)"><path fill="none" stroke="#000000" d="M 739.6746502847517 140.41903551203197 L 760 132 L 739.6746502847517 123.58096448796803 L 739.6746502847517 140.41903551203197" stroke-miterlimit="10"/></g></g></svg>