<svg version="1.1" xmlns="http://www.w3.org/2000/svg" xmlns:xlink="http://www.w3.org/1999/xlink" width="1068" height="340"><defs/><g><g transform="translate(-119,-406) scale(1,1)"><rect fill="#C0C0C0" stroke="none" x="1022" y="443" width="50" height="44" opacity="0.2"/></g><g transform="translate(-119,-406) scale(1,1)"><rect fill="#ffffff" stroke="none" x="1015" y="436" width="50" height="44"/></g><g transform="translate(-119,-406) scale(1,1)"><path fill="none" stroke="#000000" d="M 1015 436 L 1065 436 L 1065 480 L 1015 480 L 1015 436 Z Z" stroke-miterlimit="10"/></g><g transform="translate(-119,-406) scale(1,1)"><path fill="none" stroke="#000000" d="M 1015 461 L 1065 461" stroke-miterlimit="10"/></g><g transform="translate(-119,-406) scale(1,1)"><path fill="none" stroke="#000000" d="M 1015 471 L 1065 471" stroke-miterlimit="10"/></g><g transform="translate(-119,-406) scale(1,1)"><g><path fill="none" stroke="none"/><text fill="#000000" stroke="none" font-family="Arial" font-size="13px" font-style="italic" font-weight="bold" text-decoration="none" x="1026.031982421875" y="455.5">Type</text></g></g><g transform="translate(-119,-406) scale(1,1)"><rect fill="#C0C0C0" stroke="none" x="974" y="539" width="67.53173828125" height="44" opacity="0.2"/></g><g transform="translate(-119,-406) scale(1,1)"><rect fill="#ffffff" stroke="none" x="967" y="532" width="67.53173828125" height="44"/></g><g transform="translate(-119,-406) scale(1,1)"><path fill="none" stroke="#000000" d="M 967 532 L 1034.53173828125 532 L 1034.53173828125 576 L 967 576 L 967 532 Z Z" stroke-miterlimit="10"/></g><g transform="translate(-119,-406) scale(1,1)"><path fill="none" stroke="#000000" d="M 967 557 L 1034.53173828125 557" stroke-miterlimit="10"/></g><g transform="translate(-119,-406) scale(1,1)"><path fill="none" stroke="#000000" d="M 967 567 L 1034.53173828125 567" stroke-miterlimit="10"/></g><g transform="translate(-119,-406) scale(1,1)"><g><path fill="none" stroke="none"/><text fill="#000000" stroke="none" font-family="Arial" font-size="13px" font-style="normal" font-weight="bold" text-decoration="none" x="974.0390625" y="551.5">Classifier</text></g></g><g transform="translate(-119,-406) scale(1,1)"><rect fill="#C0C0C0" stroke="none" x="942" y="619" width="50" height="44" opacity="0.2"/></g><g transform="translate(-119,-406) scale(1,1)"><rect fill="#ffffff" stroke="none" x="935" y="612" width="50" height="44"/></g><g transform="translate(-119,-406) scale(1,1)"><path fill="none" stroke="#000000" d="M 935 612 L 985 612 L 985 656 L 935 656 L 935 612 Z Z" stroke-miterlimit="10"/></g><g transform="translate(-119,-406) scale(1,1)"><path fill="none" stroke="#000000" d="M 935 637 L 985 637" stroke-miterlimit="10"/></g><g transform="translate(-119,-406) scale(1,1)"><path fill="none" stroke="#000000" d="M 935 647 L 985 647" stroke-miterlimit="10"/></g><g transform="translate(-119,-406) scale(1,1)"><g><path fill="none" stroke="none"/><text fill="#000000" stroke="none" font-family="Arial" font-size="13px" font-style="normal" font-weight="bold" text-decoration="none" x="943.746826171875" y="631.5">Class</text></g></g><g transform="translate(-119,-406) scale(1,1)"><rect fill="#C0C0C0" stroke="none" x="1014" y="619" width="63.18994140625" height="44" opacity="0.2"/></g><g transform="translate(-119,-406) scale(1,1)"><rect fill="#ffffff" stroke="none" x="1007" y="612" width="63.18994140625" height="44"/></g><g transform="translate(-119,-406) scale(1,1)"><path fill="none" stroke="#000000" d="M 1007 612 L 1070.18994140625 612 L 1070.18994140625 656 L 1007 656 L 1007 612 Z Z" stroke-miterlimit="10"/></g><g transform="translate(-119,-406) scale(1,1)"><path fill="none" stroke="#000000" d="M 1007 637 L 1070.18994140625 637" stroke-miterlimit="10"/></g><g transform="translate(-119,-406) scale(1,1)"><path fill="none" stroke="#000000" d="M 1007 647 L 1070.18994140625 647" stroke-miterlimit="10"/></g><g transform="translate(-119,-406) scale(1,1)"><g><path fill="none" stroke="none"/><text fill="#000000" stroke="none" font-family="Arial" font-size="13px" font-style="normal" font-weight="bold" text-decoration="none" x="1013.302734375" y="631.5">Interface</text></g></g><g transform="translate(-119,-406) scale(1,1)"><rect fill="#C0C0C0" stroke="none" x="942" y="699" width="50" height="44" opacity="0.2"/></g><g transform="translate(-119,-406) scale(1,1)"><rect fill="#ffffff" stroke="none" x="935" y="692" width="50" height="44"/></g><g transform="translate(-119,-406) scale(1,1)"><path fill="none" stroke="#000000" d="M 935 692 L 985 692 L 985 736 L 935 736 L 935 692 Z Z" stroke-miterlimit="10"/></g><g transform="translate(-119,-406) scale(1,1)"><path fill="none" stroke="#000000" d="M 935 717 L 985 717" stroke-miterlimit="10"/></g><g transform="translate(-119,-406) scale(1,1)"><path fill="none" stroke="#000000" d="M 935 727 L 985 727" stroke-miterlimit="10"/></g><g transform="translate(-119,-406) scale(1,1)"><g><path fill="none" stroke="none"/><text fill="#000000" stroke="none" font-family="Arial" font-size="13px" font-style="normal" font-weight="bold" text-decoration="none" x="943.02001953125" y="711.5">Enum</text></g></g><g transform="translate(-119,-406) scale(1,1)"><rect fill="#C0C0C0" stroke="none" x="1054" y="539" width="67.49365234375" height="44" opacity="0.2"/></g><g transform="translate(-119,-406) scale(1,1)"><rect fill="#ffffff" stroke="none" x="1047" y="532" width="67.49365234375" height="44"/></g><g transform="translate(-119,-406) scale(1,1)"><path fill="none" stroke="#000000" d="M 1047 532 L 1114.49365234375 532 L 1114.49365234375 576 L 1047 576 L 1047 532 Z Z" stroke-miterlimit="10"/></g><g transform="translate(-119,-406) scale(1,1)"><path fill="none" stroke="#000000" d="M 1047 557 L 1114.49365234375 557" stroke-miterlimit="10"/></g><g transform="translate(-119,-406) scale(1,1)"><path fill="none" stroke="#000000" d="M 1047 567 L 1114.49365234375 567" stroke-miterlimit="10"/></g><g transform="translate(-119,-406) scale(1,1)"><g><path fill="none" stroke="none"/><text fill="#000000" stroke="none" font-family="Arial" font-size="13px" font-style="normal" font-weight="bold" text-decoration="none" x="1053.648681640625" y="551.5">Unknown</text></g></g><g transform="translate(-119,-406) scale(1,1)"><rect fill="#C0C0C0" stroke="none" x="1134" y="539" width="50" height="44" opacity="0.2"/></g><g transform="translate(-119,-406) scale(1,1)"><rect fill="#ffffff" stroke="none" x="1127" y="532" width="50" height="44"/></g><g transform="translate(-119,-406) scale(1,1)"><path fill="none" stroke="#000000" d="M 1127 532 L 1177 532 L 1177 576 L 1127 576 L 1127 532 Z Z" stroke-miterlimit="10"/></g><g transform="translate(-119,-406) scale(1,1)"><path fill="none" stroke="#000000" d="M 1127 557 L 1177 557" stroke-miterlimit="10"/></g><g transform="translate(-119,-406) scale(1,1)"><path fill="none" stroke="#000000" d="M 1127 567 L 1177 567" stroke-miterlimit="10"/></g><g transform="translate(-119,-406) scale(1,1)"><g><path fill="none" stroke="none"/><text fill="#000000" stroke="none" font-family="Arial" font-size="13px" font-style="normal" font-weight="bold" text-decoration="none" x="1135.023193359375" y="551.5">Struct</text></g></g><g transform="translate(-119,-406) scale(1,1)"><rect fill="#C0C0C0" stroke="none" x="910" y="539" width="50" height="44" opacity="0.2"/></g><g transform="translate(-119,-406) scale(1,1)"><rect fill="#ffffff" stroke="none" x="903" y="532" width="50" height="44"/></g><g transform="translate(-119,-406) scale(1,1)"><path fill="none" stroke="#000000" d="M 903 532 L 953 532 L 953 576 L 903 576 L 903 532 Z Z" stroke-miterlimit="10"/></g><g transform="translate(-119,-406) scale(1,1)"><path fill="none" stroke="#000000" d="M 903 557 L 953 557" stroke-miterlimit="10"/></g><g transform="translate(-119,-406) scale(1,1)"><path fill="none" stroke="#000000" d="M 903 567 L 953 567" stroke-miterlimit="10"/></g><g transform="translate(-119,-406) scale(1,1)"><g><path fill="none" stroke="none"/><text fill="#000000" stroke="none" font-family="Arial" font-size="13px" font-style="normal" font-weight="bold" text-decoration="none" x="911.023193359375" y="551.5">Struct</text></g></g><g transform="translate(-119,-406) scale(1,1)"><path fill="none" stroke="#000000" d="M 927 531 L 927 516 L 1039 516 L 1040 481" stroke-miterlimit="10"/></g><g transform="translate(-119,-406) scale(1,1)"><path fill="#FFFFFF" stroke="none" d="M 1047.8351138811756 501.5575044805786 L 1040 481 L 1031.0039113342582 501.0766129792381"/></g><g transform="translate(-119,-406) scale(1,1)"><path fill="none" stroke="#000000" d="M 1047.8351138811756 501.5575044805786 L 1040 481 L 1031.0039113342582 501.0766129792381 L 1047.8351138811756 501.5575044805786" stroke-miterlimit="10"/></g><g transform="translate(-119,-406) scale(1,1)"><path fill="none" stroke="#000000" d="M 999 531 L 999 516 L 1039 516 L 1040 481" stroke-miterlimit="10"/></g><g transform="translate(-119,-406) scale(1,1)"><path fill="#FFFFFF" stroke="none" d="M 1047.8351138811756 501.5575044805786 L 1040 481 L 1031.0039113342582 501.0766129792381"/></g><g transform="translate(-119,-406) scale(1,1)"><path fill="none" stroke="#000000" d="M 1047.8351138811756 501.5575044805786 L 1040 481 L 1031.0039113342582 501.0766129792381 L 1047.8351138811756 501.5575044805786" stroke-miterlimit="10"/></g><g transform="translate(-119,-406) scale(1,1)"><path fill="none" stroke="#000000" d="M 1079 531 L 1079 516 L 1039 516 L 1040 481" stroke-miterlimit="10"/></g><g transform="translate(-119,-406) scale(1,1)"><path fill="#FFFFFF" stroke="none" d="M 1047.8351138811756 501.5575044805786 L 1040 481 L 1031.0039113342582 501.0766129792381"/></g><g transform="translate(-119,-406) scale(1,1)"><path fill="none" stroke="#000000" d="M 1047.8351138811756 501.5575044805786 L 1040 481 L 1031.0039113342582 501.0766129792381 L 1047.8351138811756 501.5575044805786" stroke-miterlimit="10"/></g><g transform="translate(-119,-406) scale(1,1)"><path fill="none" stroke="#000000" d="M 1151 531 L 1151 516 L 1039 516 L 1040 481" stroke-miterlimit="10"/></g><g transform="translate(-119,-406) scale(1,1)"><path fill="#FFFFFF" stroke="none" d="M 1047.8351138811756 501.5575044805786 L 1040 481 L 1031.0039113342582 501.0766129792381"/></g><g transform="translate(-119,-406) scale(1,1)"><path fill="none" stroke="#000000" d="M 1047.8351138811756 501.5575044805786 L 1040 481 L 1031.0039113342582 501.0766129792381 L 1047.8351138811756 501.5575044805786" stroke-miterlimit="10"/></g><g transform="translate(-119,-406) scale(1,1)"><path fill="none" stroke="#000000" d="M 959 611 L 959 604 L 999 604 L 1000 577" stroke-miterlimit="10"/></g><g transform="translate(-119,-406) scale(1,1)"><path fill="#FFFFFF" stroke="none" d="M 1007.6609921297774 597.6230259561368 L 1000 577 L 990.8344579834119 596.9998209877529"/></g><g transform="translate(-119,-406) scale(1,1)"><path fill="none" stroke="#000000" d="M 1007.6609921297774 597.6230259561368 L 1000 577 L 990.8344579834119 596.9998209877529 L 1007.6609921297774 597.6230259561368" stroke-miterlimit="10"/></g><g transform="translate(-119,-406) scale(1,1)"><path fill="none" stroke="#000000" d="M 1039 611 L 1039 604 L 999 604 L 1000 577" stroke-miterlimit="10"/></g><g transform="translate(-119,-406) scale(1,1)"><path fill="#FFFFFF" stroke="none" d="M 1007.6609921297774 597.6230259561368 L 1000 577 L 990.8344579834119 596.9998209877529"/></g><g transform="translate(-119,-406) scale(1,1)"><path fill="none" stroke="#000000" d="M 1007.6609921297774 597.6230259561368 L 1000 577 L 990.8344579834119 596.9998209877529 L 1007.6609921297774 597.6230259561368" stroke-miterlimit="10"/></g><g transform="translate(-119,-406) scale(1,1)"><path fill="none" stroke="#000000" d="M 960 691 L 960 657" stroke-miterlimit="10"/></g><g transform="translate(-119,-406) scale(1,1)"><path fill="#FFFFFF" stroke="none" d="M 968.419035512032 677.3253497152483 L 960 657 L 951.580964487968 677.3253497152483"/></g><g transform="translate(-119,-406) scale(1,1)"><path fill="none" stroke="#000000" d="M 968.419035512032 677.3253497152483 L 960 657 L 951.580964487968 677.3253497152483 L 968.419035512032 677.3253497152483" stroke-miterlimit="10"/></g><g transform="translate(-119,-406) scale(1,1)"><rect fill="#ffffff" stroke="none" x="249" y="529" width="125" height="57"/></g><g transform="translate(-119,-406) scale(1,1)"><path fill="none" stroke="#000000" d="M 249 529 L 374 529 L 374 586 L 249 586 L 249 529 Z Z" stroke-miterlimit="10"/></g><g transform="translate(-119,-406) scale(1,1)"><path fill="none" stroke="#000000" d="M 249 554 L 374 554" stroke-miterlimit="10"/></g><g transform="translate(-119,-406) scale(1,1)"><path fill="none" stroke="#000000" d="M 249 577 L 374 577" stroke-miterlimit="10"/></g><g transform="translate(-119,-406) scale(1,1)"><g><path fill="none" stroke="none"/><text fill="#000000" stroke="none" font-family="Arial" font-size="13px" font-style="normal" font-weight="bold" text-decoration="none" x="271.763671875" y="548.5">ArrayTypeRef</text></g></g><g transform="translate(-119,-406) scale(1,1)"><g><path fill="none" stroke="none"/><text fill="#000000" stroke="none" font-family="Arial" font-size="13px" font-style="normal" font-weight="normal" text-decoration="none" x="254" y="571.5">-dimensions: String</text></g></g><g transform="translate(-119,-406) scale(1,1)"><rect fill="#ffffff" stroke="none" x="385" y="529" width="118" height="72"/></g><g transform="translate(-119,-406) scale(1,1)"><path fill="none" stroke="#000000" d="M 385 529 L 503 529 L 503 601 L 385 601 L 385 529 Z Z" stroke-miterlimit="10"/></g><g transform="translate(-119,-406) scale(1,1)"><path fill="none" stroke="#000000" d="M 385 554 L 503 554" stroke-miterlimit="10"/></g><g transform="translate(-119,-406) scale(1,1)"><path fill="none" stroke="#000000" d="M 385 592 L 503 592" stroke-miterlimit="10"/></g><g transform="translate(-119,-406) scale(1,1)"><g><path fill="none" stroke="none"/><text fill="#000000" stroke="none" font-family="Arial" font-size="13px" font-style="normal" font-weight="bold" text-decoration="none" x="419.793212890625" y="548.5">TypeRef</text></g></g><g transform="translate(-119,-406) scale(1,1)"><g><path fill="none" stroke="none"/><text fill="#000000" stroke="none" font-family="Arial" font-size="13px" font-style="normal" font-weight="normal" text-decoration="none" x="390" y="571.5">-type: String</text></g></g><g transform="translate(-119,-406) scale(1,1)"><g><path fill="none" stroke="none"/><text fill="#000000" stroke="none" font-family="Arial" font-size="13px" font-style="normal" font-weight="normal" text-decoration="none" x="390" y="586.5">-typeName: String</text></g></g><g transform="translate(-119,-406) scale(1,1)"><rect fill="#ffffff" stroke="none" x="129" y="529" width="110" height="57"/></g><g transform="translate(-119,-406) scale(1,1)"><path fill="none" stroke="#000000" d="M 129 529 L 239 529 L 239 586 L 129 586 L 129 529 Z Z" stroke-miterlimit="10"/></g><g transform="translate(-119,-406) scale(1,1)"><path fill="none" stroke="#000000" d="M 129 554 L 239 554" stroke-miterlimit="10"/></g><g transform="translate(-119,-406) scale(1,1)"><path fill="none" stroke="#000000" d="M 129 577 L 239 577" stroke-miterlimit="10"/></g><g transform="translate(-119,-406) scale(1,1)"><g><path fill="none" stroke="none"/><text fill="#000000" stroke="none" font-family="Arial" font-size="13px" font-style="normal" font-weight="bold" text-decoration="none" x="136.06884765625" y="548.5">TypeVarTypeRef</text></g></g><g transform="translate(-119,-406) scale(1,1)"><g><path fill="none" stroke="none"/><text fill="#000000" stroke="none" font-family="Arial" font-size="13px" font-style="normal" font-weight="normal" text-decoration="none" x="134" y="571.5">-typeVar: String</text></g></g><g transform="translate(-119,-406) scale(1,1)"><rect fill="#ffffff" stroke="none" x="513" y="529" width="116.2626953125" height="44"/></g><g transform="translate(-119,-406) scale(1,1)"><path fill="none" stroke="#000000" d="M 513 529 L 629.2626953125 529 L 629.2626953125 573 L 513 573 L 513 529 Z Z" stroke-miterlimit="10"/></g><g transform="translate(-119,-406) scale(1,1)"><path fill="none" stroke="#000000" d="M 513 554 L 629.2626953125 554" stroke-miterlimit="10"/></g><g transform="translate(-119,-406) scale(1,1)"><path fill="none" stroke="#000000" d="M 513 564 L 629.2626953125 564" stroke-miterlimit="10"/></g><g transform="translate(-119,-406) scale(1,1)"><g><path fill="none" stroke="none"/><text fill="#000000" stroke="none" font-family="Arial" font-size="13px" font-style="normal" font-weight="bold" text-decoration="none" x="520.19775390625" y="548.5">WildCardTypeRef</text></g></g><g transform="translate(-119,-406) scale(1,1)"><rect fill="#ffffff" stroke="none" x="384" y="416" width="125" height="72"/></g><g transform="translate(-119,-406) scale(1,1)"><path fill="none" stroke="#000000" d="M 384 416 L 509 416 L 509 488 L 384 488 L 384 416 Z Z" stroke-miterlimit="10"/></g><g transform="translate(-119,-406) scale(1,1)"><path fill="none" stroke="#000000" d="M 384 441 L 509 441" stroke-miterlimit="10"/></g><g transform="translate(-119,-406) scale(1,1)"><path fill="none" stroke="#000000" d="M 384 479 L 509 479" stroke-miterlimit="10"/></g><g transform="translate(-119,-406) scale(1,1)"><g><path fill="none" stroke="none"/><text fill="#000000" stroke="none" font-family="Arial" font-size="13px" font-style="normal" font-weight="bold" text-decoration="none" x="422.293212890625" y="435.5">TypeRef</text></g></g><g transform="translate(-119,-406) scale(1,1)"><g><path fill="none" stroke="none"/><text fill="#000000" stroke="none" font-family="Arial" font-size="13px" font-style="normal" font-weight="normal" text-decoration="none" x="389" y="458.5">+dimensions: String</text></g></g><g transform="translate(-119,-406) scale(1,1)"><g><path fill="none" stroke="none"/><text fill="#000000" stroke="none" font-family="Arial" font-size="13px" font-style="normal" font-weight="normal" text-decoration="none" x="389" y="473.5">+typeName: String</text></g></g><g transform="translate(-119,-406) scale(1,1)"><path fill="none" stroke="#000000" d="M 296 529 L 296 504 L 440 504 L 440 488" stroke-miterlimit="10"/></g><g transform="translate(-119,-406) scale(1,1)"><path fill="#FFFFFF" stroke="none" d="M 448.419035512032 508.3253497152483 L 440 488 L 431.580964487968 508.3253497152483"/></g><g transform="translate(-119,-406) scale(1,1)"><path fill="none" stroke="#000000" d="M 448.419035512032 508.3253497152483 L 440 488 L 431.580964487968 508.3253497152483 L 448.419035512032 508.3253497152483" stroke-miterlimit="10"/></g><g transform="translate(-119,-406) scale(1,1)"><path fill="none" stroke="#000000" d="M 440 529 L 440 488" stroke-miterlimit="10"/></g><g transform="translate(-119,-406) scale(1,1)"><path fill="#FFFFFF" stroke="none" d="M 448.419035512032 508.3253497152483 L 440 488 L 431.580964487968 508.3253497152483"/></g><g transform="translate(-119,-406) scale(1,1)"><path fill="none" stroke="#000000" d="M 448.419035512032 508.3253497152483 L 440 488 L 431.580964487968 508.3253497152483 L 448.419035512032 508.3253497152483" stroke-miterlimit="10"/></g><g transform="translate(-119,-406) scale(1,1)"><path fill="none" stroke="#000000" d="M 184 529 L 184 504 L 440 504 L 440 488" stroke-miterlimit="10"/></g><g transform="translate(-119,-406) scale(1,1)"><path fill="#FFFFFF" stroke="none" d="M 448.419035512032 508.3253497152483 L 440 488 L 431.580964487968 508.3253497152483"/></g><g transform="translate(-119,-406) scale(1,1)"><path fill="none" stroke="#000000" d="M 448.419035512032 508.3253497152483 L 440 488 L 431.580964487968 508.3253497152483 L 448.419035512032 508.3253497152483" stroke-miterlimit="10"/></g><g transform="translate(-119,-406) scale(1,1)"><path fill="none" stroke="#000000" d="M 571 529 L 571 504 L 440 504 L 440 488" stroke-miterlimit="10"/></g><g transform="translate(-119,-406) scale(1,1)"><path fill="#FFFFFF" stroke="none" d="M 448.419035512032 508.3253497152483 L 440 488 L 431.580964487968 508.3253497152483"/></g><g transform="translate(-119,-406) scale(1,1)"><path fill="none" stroke="#000000" d="M 448.419035512032 508.3253497152483 L 440 488 L 431.580964487968 508.3253497152483 L 448.419035512032 508.3253497152483" stroke-miterlimit="10"/></g><g transform="translate(-119,-406) scale(1,1)"><path fill="none" stroke="#000000" d="M 256 529 L 256 448 L 384 448" stroke-miterlimit="10"/></g><g transform="translate(-119,-406) scale(1,1)"><path fill="none" stroke="#000000" d="M 373.83732514237585 452.209517756016 L 384 448 L 373.83732514237585 443.790482243984" stroke-miterlimit="10"/></g><g transform="translate(-119,-406) scale(1,1)"><g><path fill="none" stroke="none"/><text fill="#000000" stroke="none" font-family="Arial" font-size="13px" font-style="normal" font-weight="normal" text-decoration="none" x="352.25" y="467.5">-ref</text></g></g><g transform="translate(-119,-406) scale(1,1)"><rect fill="#ffffff" stroke="none" x="640" y="528" width="115" height="57"/></g><g transform="translate(-119,-406) scale(1,1)"><path fill="none" stroke="#000000" d="M 640 528 L 755 528 L 755 585 L 640 585 L 640 528 Z Z" stroke-miterlimit="10"/></g><g transform="translate(-119,-406) scale(1,1)"><path fill="none" stroke="#000000" d="M 640 553 L 755 553" stroke-miterlimit="10"/></g><g transform="translate(-119,-406) scale(1,1)"><path fill="none" stroke="#000000" d="M 640 576 L 755 576" stroke-miterlimit="10"/></g><g transform="translate(-119,-406) scale(1,1)"><g><path fill="none" stroke="none"/><text fill="#000000" stroke="none" font-family="Arial" font-size="13px" font-style="normal" font-weight="bold" text-decoration="none" x="648.37548828125" y="547.5">PrimitiveTypeRef</text></g></g><g transform="translate(-119,-406) scale(1,1)"><g><path fill="none" stroke="none"/><text fill="#000000" stroke="none" font-family="Arial" font-size="13px" font-style="normal" font-weight="normal" text-decoration="none" x="645" y="570.5">-refKey: String</text></g></g><g transform="translate(-119,-406) scale(1,1)"><path fill="none" stroke="#000000" d="M 704 528 L 704 504 L 440 504 L 440 488" stroke-miterlimit="10"/></g><g transform="translate(-119,-406) scale(1,1)"><path fill="#FFFFFF" stroke="none" d="M 448.419035512032 508.3253497152483 L 440 488 L 431.580964487968 508.3253497152483"/></g><g transform="translate(-119,-406) scale(1,1)"><path fill="none" stroke="#000000" d="M 448.419035512032 508.3253497152483 L 440 488 L 431.580964487968 508.3253497152483 L 448.419035512032 508.3253497152483" stroke-miterlimit="10"/></g><g transform="translate(-119,-406) scale(1,1)"><path fill="none" stroke="#000000" d="M 472 488 L 472 529" stroke-miterlimit="10"/></g><g transform="translate(-119,-406) scale(1,1)"><path fill="#000000" stroke="none" d="M 467.790482243984 518.8373251423759 L 472 529 L 476.209517756016 518.8373251423759 L 472 507"/></g><g transform="translate(-119,-406) scale(1,1)"><path fill="none" stroke="#000000" d="M 467.790482243984 518.8373251423759 L 472 529 L 476.209517756016 518.8373251423759 L 472 507 L 467.790482243984 518.8373251423759" stroke-miterlimit="10"/></g><g transform="translate(-119,-406) scale(1,1)"><path fill="none" stroke="#000000" d="M 476.209517756016 498.16267485762415 L 472 488 L 467.790482243984 498.16267485762415" stroke-miterlimit="10"/></g><g transform="translate(-119,-406) scale(1,1)"><g><path fill="none" stroke="none"/><text fill="#000000" stroke="none" font-family="Arial" font-size="13px" font-style="normal" font-weight="normal" text-decoration="none" x="479.6845703125" y="504.5">-typeArgs</text></g></g><g transform="translate(-119,-406) scale(1,1)"><path fill="none" stroke="#000000" d="M 384 424 L 160 424 L 160 529" stroke-miterlimit="10"/></g><g transform="translate(-119,-406) scale(1,1)"><path fill="#000000" stroke="none" d="M 155.790482243984 518.8373251423759 L 160 529 L 164.209517756016 518.8373251423759 L 160 507"/></g><g transform="translate(-119,-406) scale(1,1)"><path fill="none" stroke="#000000" d="M 155.790482243984 518.8373251423759 L 160 529 L 164.209517756016 518.8373251423759 L 160 507 L 155.790482243984 518.8373251423759" stroke-miterlimit="10"/></g><g transform="translate(-119,-406) scale(1,1)"><path fill="none" stroke="#000000" d="M 373.83732514237585 428.209517756016 L 384 424 L 373.83732514237585 419.790482243984" stroke-miterlimit="10"/></g><g transform="translate(-119,-406) scale(1,1)"><g><path fill="none" stroke="none"/><text fill="#000000" stroke="none" font-family="Arial" font-size="13px" font-style="normal" font-weight="normal" text-decoration="none" x="334.010498046875" y="444.5">-bounds</text></g></g><g transform="translate(-119,-406) scale(1,1)"><path fill="none" stroke="#000000" d="M 509 424 L 608 424 L 608 529" stroke-miterlimit="10"/></g><g transform="translate(-119,-406) scale(1,1)"><path fill="#000000" stroke="none" d="M 603.790482243984 518.8373251423759 L 608 529 L 612.209517756016 518.8373251423759 L 608 507"/></g><g transform="translate(-119,-406) scale(1,1)"><path fill="none" stroke="#000000" d="M 603.790482243984 518.8373251423759 L 608 529 L 612.209517756016 518.8373251423759 L 608 507 L 603.790482243984 518.8373251423759" stroke-miterlimit="10"/></g><g transform="translate(-119,-406) scale(1,1)"><path fill="none" stroke="#000000" d="M 519.1626748576241 419.790482243984 L 509 424 L 519.1626748576241 428.209517756016" stroke-miterlimit="10"/></g><g transform="translate(-119,-406) scale(1,1)"><g><path fill="none" stroke="none"/><text fill="#000000" stroke="none" font-family="Arial" font-size="13px" font-style="normal" font-weight="normal" text-decoration="none" x="511.010498046875" y="443.5">-bounds</text></g></g></g></svg>