<svg version="1.1" xmlns="http://www.w3.org/2000/svg" xmlns:xlink="http://www.w3.org/1999/xlink" width="613" height="435"><defs/><g><g transform="translate(-505,-222) scale(1,1)"><rect fill="#ffffff" stroke="none" x="522" y="352" width="96" height="102"/></g><g transform="translate(-505,-222) scale(1,1)"><path fill="none" stroke="#000000" d="M 522 352 L 618 352 L 618 454 L 522 454 L 522 352 Z Z" stroke-miterlimit="10"/></g><g transform="translate(-505,-222) scale(1,1)"><path fill="none" stroke="#000000" d="M 522 377 L 618 377" stroke-miterlimit="10"/></g><g transform="translate(-505,-222) scale(1,1)"><path fill="none" stroke="#000000" d="M 522 445 L 618 445" stroke-miterlimit="10"/></g><g transform="translate(-505,-222) scale(1,1)"><g><path fill="none" stroke="none"/><text fill="#000000" stroke="none" font-family="Arial" font-size="13px" font-style="normal" font-weight="bold" text-decoration="none" x="548.3291015625" y="371.5">System</text></g></g><g transform="translate(-505,-222) scale(1,1)"><g><path fill="none" stroke="none"/><text fill="#000000" stroke="none" font-family="Arial" font-size="13px" font-style="normal" font-weight="normal" text-decoration="none" x="527" y="394.5">-name</text></g></g><g transform="translate(-505,-222) scale(1,1)"><g><path fill="none" stroke="none"/><text fill="#000000" stroke="none" font-family="Arial" font-size="13px" font-style="normal" font-weight="normal" text-decoration="none" x="527" y="409.5">-version</text></g></g><g transform="translate(-505,-222) scale(1,1)"><g><path fill="none" stroke="none"/><text fill="#000000" stroke="none" font-family="Arial" font-size="13px" font-style="normal" font-weight="normal" text-decoration="none" x="527" y="424.5">-language</text></g></g><g transform="translate(-505,-222) scale(1,1)"><g><path fill="none" stroke="none"/><text fill="#000000" stroke="none" font-family="Arial" font-size="13px" font-style="normal" font-weight="normal" text-decoration="none" x="527" y="439.5">-sysKey</text></g></g><g transform="translate(-505,-222) scale(1,1)"><path fill="none" stroke="#000000" d="M 560 352 L 560 320 L 784 320 L 784 280" stroke-miterlimit="10" stroke-dasharray="3"/></g><g transform="translate(-505,-222) scale(1,1)"><path fill="#FFFFFF" stroke="none" d="M 792.419035512032 300.3253497152483 L 784 280 L 775.580964487968 300.3253497152483"/></g><g transform="translate(-505,-222) scale(1,1)"><path fill="none" stroke="#000000" d="M 792.419035512032 300.3253497152483 L 784 280 L 775.580964487968 300.3253497152483 L 792.419035512032 300.3253497152483" stroke-miterlimit="10"/></g><g transform="translate(-505,-222) scale(1,1)"><path fill="none" stroke="#000000" d="M 745 403 L 618 403" stroke-miterlimit="10"/></g><g transform="translate(-505,-222) scale(1,1)"><path fill="#000000" stroke="none" d="M 628.1626748576241 398.790482243984 L 618 403 L 628.1626748576241 407.209517756016 L 640 403"/></g><g transform="translate(-505,-222) scale(1,1)"><path fill="none" stroke="#000000" d="M 628.1626748576241 398.790482243984 L 618 403 L 628.1626748576241 407.209517756016 L 640 403 L 628.1626748576241 398.790482243984" stroke-miterlimit="10"/></g><g transform="translate(-505,-222) scale(1,1)"><g><path fill="none" stroke="none"/><text fill="#000000" stroke="none" font-family="Arial" font-size="13px" font-style="normal" font-weight="normal" text-decoration="none" x="709.575927734375" y="441.5">-projects</text></g></g><g transform="translate(-505,-222) scale(1,1)"><g><path fill="none" stroke="none"/><text fill="#000000" stroke="none" font-family="Arial" font-size="13px" font-style="normal" font-weight="normal" text-decoration="none" x="724.74365234375" y="397.5">1..*</text></g></g><g transform="translate(-505,-222) scale(1,1)"><g><path fill="none" stroke="none"/><text fill="#000000" stroke="none" font-family="Arial" font-size="13px" font-style="normal" font-weight="normal" text-decoration="none" x="620.25" y="422.5">-system</text></g></g><g transform="translate(-505,-222) scale(1,1)"><g><path fill="none" stroke="none"/><text fill="#000000" stroke="none" font-family="Arial" font-size="13px" font-style="normal" font-weight="normal" text-decoration="none" x="623.5" y="395.5">1</text></g></g><g transform="translate(-505,-222) scale(1,1)"><path fill="none" stroke="#000000" d="M 808 528 L 808 461" stroke-miterlimit="10"/></g><g transform="translate(-505,-222) scale(1,1)"><path fill="#000000" stroke="none" d="M 812.209517756016 471.16267485762415 L 808 461 L 803.790482243984 471.16267485762415 L 808 483"/></g><g transform="translate(-505,-222) scale(1,1)"><path fill="none" stroke="#000000" d="M 812.209517756016 471.16267485762415 L 808 461 L 803.790482243984 471.16267485762415 L 808 483 L 812.209517756016 471.16267485762415" stroke-miterlimit="10"/></g><g transform="translate(-505,-222) scale(1,1)"><path fill="none" stroke="#000000" d="M 803.790482243984 517.8373251423759 L 808 528 L 812.209517756016 517.8373251423759" stroke-miterlimit="10"/></g><g transform="translate(-505,-222) scale(1,1)"><g><path fill="none" stroke="none"/><text fill="#000000" stroke="none" font-family="Arial" font-size="13px" font-style="normal" font-weight="normal" text-decoration="none" x="817.266845703125" y="524.5">-relations</text></g></g><g transform="translate(-505,-222) scale(1,1)"><g><path fill="none" stroke="none"/><text fill="#000000" stroke="none" font-family="Arial" font-size="13px" font-style="normal" font-weight="normal" text-decoration="none" x="817.220458984375" y="512.5">*</text></g></g><g transform="translate(-505,-222) scale(1,1)"><g><path fill="none" stroke="none"/><text fill="#000000" stroke="none" font-family="Arial" font-size="13px" font-style="normal" font-weight="normal" text-decoration="none" x="792.5" y="476.5">1</text></g></g><g transform="translate(-505,-222) scale(1,1)"><rect fill="#ffffff" stroke="none" x="760" y="528" width="96" height="57"/></g><g transform="translate(-505,-222) scale(1,1)"><path fill="none" stroke="#000000" d="M 760 528 L 856 528 L 856 585 L 760 585 L 760 528 Z Z" stroke-miterlimit="10"/></g><g transform="translate(-505,-222) scale(1,1)"><path fill="none" stroke="#000000" d="M 760 553 L 856 553" stroke-miterlimit="10"/></g><g transform="translate(-505,-222) scale(1,1)"><path fill="none" stroke="#000000" d="M 760 576 L 856 576" stroke-miterlimit="10"/></g><g transform="translate(-505,-222) scale(1,1)"><g><path fill="none" stroke="none"/><text fill="#000000" stroke="none" font-family="Arial" font-size="13px" font-style="normal" font-weight="bold" text-decoration="none" x="784.15185546875" y="547.5">Relation</text></g></g><g transform="translate(-505,-222) scale(1,1)"><g><path fill="none" stroke="none"/><text fill="#000000" stroke="none" font-family="Arial" font-size="13px" font-style="normal" font-weight="normal" text-decoration="none" x="765" y="570.5">-relKey: String</text></g></g><g transform="translate(-505,-222) scale(1,1)"><rect fill="#ffffff" stroke="none" x="515" y="520" width="110" height="72"/></g><g transform="translate(-505,-222) scale(1,1)"><path fill="none" stroke="#000000" d="M 515 520 L 625 520 L 625 592 L 515 592 L 515 520 Z Z" stroke-miterlimit="10"/></g><g transform="translate(-505,-222) scale(1,1)"><path fill="none" stroke="#000000" d="M 515 545 L 625 545" stroke-miterlimit="10"/></g><g transform="translate(-505,-222) scale(1,1)"><path fill="none" stroke="#000000" d="M 515 568 L 625 568" stroke-miterlimit="10"/></g><g transform="translate(-505,-222) scale(1,1)"><g><path fill="none" stroke="none"/><text fill="#000000" stroke="none" font-family="Arial" font-size="13px" font-style="normal" font-weight="bold" text-decoration="none" x="540.010498046875" y="539.5">Reference</text></g></g><g transform="translate(-505,-222) scale(1,1)"><g><path fill="none" stroke="none"/><text fill="#000000" stroke="none" font-family="Arial" font-size="13px" font-style="normal" font-weight="normal" text-decoration="none" x="520" y="562.5">-refKey: String</text></g></g><g transform="translate(-505,-222) scale(1,1)"><path fill="none" stroke="#000000" d="M 760 552 L 625 552" stroke-miterlimit="10"/></g><g transform="translate(-505,-222) scale(1,1)"><path fill="none" stroke="#000000" d="M 635.1626748576241 547.790482243984 L 625 552 L 635.1626748576241 556.209517756016" stroke-miterlimit="10"/></g><g transform="translate(-505,-222) scale(1,1)"><g><path fill="none" stroke="none"/><text fill="#000000" stroke="none" font-family="Arial" font-size="13px" font-style="normal" font-weight="normal" text-decoration="none" x="744.5" y="567.5">1</text></g></g><g transform="translate(-505,-222) scale(1,1)"><g><path fill="none" stroke="none"/><text fill="#000000" stroke="none" font-family="Arial" font-size="13px" font-style="normal" font-weight="normal" text-decoration="none" x="641.5" y="568.5">2</text></g></g><g transform="translate(-505,-222) scale(1,1)"><rect fill="#ffffff" stroke="none" x="745" y="359" width="127" height="102"/></g><g transform="translate(-505,-222) scale(1,1)"><path fill="none" stroke="#000000" d="M 745 359 L 872 359 L 872 461 L 745 461 L 745 359 Z Z" stroke-miterlimit="10"/></g><g transform="translate(-505,-222) scale(1,1)"><path fill="none" stroke="#000000" d="M 745 384 L 872 384" stroke-miterlimit="10"/></g><g transform="translate(-505,-222) scale(1,1)"><path fill="none" stroke="#000000" d="M 745 452 L 872 452" stroke-miterlimit="10"/></g><g transform="translate(-505,-222) scale(1,1)"><g><path fill="none" stroke="none"/><text fill="#000000" stroke="none" font-family="Arial" font-size="13px" font-style="normal" font-weight="bold" text-decoration="none" x="788.27001953125" y="378.5">Project</text></g></g><g transform="translate(-505,-222) scale(1,1)"><g><path fill="none" stroke="none"/><text fill="#000000" stroke="none" font-family="Arial" font-size="13px" font-style="normal" font-weight="normal" text-decoration="none" x="750" y="401.5">-projKey: String</text></g></g><g transform="translate(-505,-222) scale(1,1)"><g><path fill="none" stroke="none"/><text fill="#000000" stroke="none" font-family="Arial" font-size="13px" font-style="normal" font-weight="normal" text-decoration="none" x="750" y="416.5">-name: String</text></g></g><g transform="translate(-505,-222) scale(1,1)"><g><path fill="none" stroke="none"/><text fill="#000000" stroke="none" font-family="Arial" font-size="13px" font-style="normal" font-weight="normal" text-decoration="none" x="750" y="431.5">-languages: String[*]</text></g></g><g transform="translate(-505,-222) scale(1,1)"><g><path fill="none" stroke="none"/><text fill="#000000" stroke="none" font-family="Arial" font-size="13px" font-style="normal" font-weight="normal" text-decoration="none" x="750" y="446.5">-version: String</text></g></g><g transform="translate(-505,-222) scale(1,1)"><path fill="none" stroke="#000000" d="M 808 359 L 808 280" stroke-miterlimit="10" stroke-dasharray="3"/></g><g transform="translate(-505,-222) scale(1,1)"><path fill="#FFFFFF" stroke="none" d="M 816.419035512032 300.3253497152483 L 808 280 L 799.580964487968 300.3253497152483"/></g><g transform="translate(-505,-222) scale(1,1)"><path fill="none" stroke="#000000" d="M 816.419035512032 300.3253497152483 L 808 280 L 799.580964487968 300.3253497152483 L 816.419035512032 300.3253497152483" stroke-miterlimit="10"/></g><g transform="translate(-505,-222) scale(1,1)"><rect fill="#ffffff" stroke="none" x="765" y="232" width="87.76171875" height="48"/></g><g transform="translate(-505,-222) scale(1,1)"><path fill="none" stroke="#000000" d="M 765 232 L 852.76171875 232 L 852.76171875 280 L 765 280 L 765 232 Z Z" stroke-miterlimit="10"/></g><g transform="translate(-505,-222) scale(1,1)"><g><path fill="none" stroke="none"/><text fill="#000000" stroke="none" font-family="Arial" font-size="13px" font-style="normal" font-weight="normal" text-decoration="none" x="776.720458984375" y="249.5">«interface»</text></g></g><g transform="translate(-505,-222) scale(1,1)"><g><path fill="none" stroke="none"/><text fill="#000000" stroke="none" font-family="Arial" font-size="13px" font-style="normal" font-weight="bold" text-decoration="none" x="771.302734375" y="264.5">Measureable</text></g></g><g transform="translate(-505,-222) scale(1,1)"><rect fill="#ffffff" stroke="none" x="995" y="351" width="103" height="102"/></g><g transform="translate(-505,-222) scale(1,1)"><path fill="none" stroke="#000000" d="M 995 351 L 1098 351 L 1098 453 L 995 453 L 995 351 Z Z" stroke-miterlimit="10"/></g><g transform="translate(-505,-222) scale(1,1)"><path fill="none" stroke="#000000" d="M 995 376 L 1098 376" stroke-miterlimit="10"/></g><g transform="translate(-505,-222) scale(1,1)"><path fill="none" stroke="#000000" d="M 995 444 L 1098 444" stroke-miterlimit="10"/></g><g transform="translate(-505,-222) scale(1,1)"><g><path fill="none" stroke="none"/><text fill="#000000" stroke="none" font-family="Arial" font-size="13px" font-style="normal" font-weight="bold" text-decoration="none" x="1032.055908203125" y="370.5">SCM</text></g></g><g transform="translate(-505,-222) scale(1,1)"><g><path fill="none" stroke="none"/><text fill="#000000" stroke="none" font-family="Arial" font-size="13px" font-style="normal" font-weight="normal" text-decoration="none" x="1000" y="393.5">-scmKey: String</text></g></g><g transform="translate(-505,-222) scale(1,1)"><g><path fill="none" stroke="none"/><text fill="#000000" stroke="none" font-family="Arial" font-size="13px" font-style="normal" font-weight="normal" text-decoration="none" x="1000" y="408.5">-tag: String</text></g></g><g transform="translate(-505,-222) scale(1,1)"><g><path fill="none" stroke="none"/><text fill="#000000" stroke="none" font-family="Arial" font-size="13px" font-style="normal" font-weight="normal" text-decoration="none" x="1000" y="423.5">-branch: String</text></g></g><g transform="translate(-505,-222) scale(1,1)"><g><path fill="none" stroke="none"/><text fill="#000000" stroke="none" font-family="Arial" font-size="13px" font-style="normal" font-weight="normal" text-decoration="none" x="1000" y="438.5">-url: String</text></g></g><g transform="translate(-505,-222) scale(1,1)"><path fill="none" stroke="#000000" d="M 872 400 L 995 400" stroke-miterlimit="10"/></g><g transform="translate(-505,-222) scale(1,1)"><g><path fill="none" stroke="none"/><text fill="#000000" stroke="none" font-family="Arial" font-size="13px" font-style="normal" font-weight="normal" text-decoration="none" x="877.325927734375" y="419.5">-project</text></g></g><g transform="translate(-505,-222) scale(1,1)"><g><path fill="none" stroke="none"/><text fill="#000000" stroke="none" font-family="Arial" font-size="13px" font-style="normal" font-weight="normal" text-decoration="none" x="878.5" y="393.5">1</text></g></g><g transform="translate(-505,-222) scale(1,1)"><g><path fill="none" stroke="none"/><text fill="#000000" stroke="none" font-family="Arial" font-size="13px" font-style="normal" font-weight="normal" text-decoration="none" x="964.9208984375" y="395.5">-scm</text></g></g><g transform="translate(-505,-222) scale(1,1)"><g><path fill="none" stroke="none"/><text fill="#000000" stroke="none" font-family="Arial" font-size="13px" font-style="normal" font-weight="normal" text-decoration="none" x="981.5" y="419.5">1</text></g></g><g transform="translate(-505,-222) scale(1,1)"><path fill="none" stroke="#000000" d="M 1048 453 L 1048 527" stroke-miterlimit="10"/></g><g transform="translate(-505,-222) scale(1,1)"><path fill="none" stroke="#000000" d="M 1043.7904822439841 516.8373251423759 L 1048 527 L 1052.2095177560159 516.8373251423759" stroke-miterlimit="10"/></g><g transform="translate(-505,-222) scale(1,1)"><g><path fill="none" stroke="none"/><text fill="#000000" stroke="none" font-family="Arial" font-size="13px" font-style="normal" font-weight="normal" text-decoration="none" x="1031.5" y="480.5">1</text></g></g><g transform="translate(-505,-222) scale(1,1)"><g><path fill="none" stroke="none"/><text fill="#000000" stroke="none" font-family="Arial" font-size="13px" font-style="normal" font-weight="normal" text-decoration="none" x="1053.549560546875" y="523.5">-type</text></g></g><g transform="translate(-505,-222) scale(1,1)"><g><path fill="none" stroke="none"/><text fill="#000000" stroke="none" font-family="Arial" font-size="13px" font-style="normal" font-weight="normal" text-decoration="none" x="1031.5" y="522.5">1</text></g></g><g transform="translate(-505,-222) scale(1,1)"><rect fill="#ffffff" stroke="none" x="984" y="527" width="124" height="120"/></g><g transform="translate(-505,-222) scale(1,1)"><path fill="none" stroke="#000000" d="M 984 527 L 1108 527 L 1108 647 L 984 647 L 984 527 Z Z" stroke-miterlimit="10"/></g><g transform="translate(-505,-222) scale(1,1)"><path fill="none" stroke="#000000" d="M 984 565 L 1108 565" stroke-miterlimit="10"/></g><g transform="translate(-505,-222) scale(1,1)"><g><path fill="none" stroke="none"/><text fill="#000000" stroke="none" font-family="Arial" font-size="13px" font-style="normal" font-weight="normal" text-decoration="none" x="1002.635986328125" y="544.5">«enumeration»</text></g></g><g transform="translate(-505,-222) scale(1,1)"><g><path fill="none" stroke="none"/><text fill="#000000" stroke="none" font-family="Arial" font-size="13px" font-style="normal" font-weight="bold" text-decoration="none" x="1017.464111328125" y="559.5">SCMType</text></g></g><g transform="translate(-505,-222) scale(1,1)"><g><path fill="none" stroke="none"/><text fill="#000000" stroke="none" font-family="Arial" font-size="13px" font-style="normal" font-weight="normal" text-decoration="none" x="989" y="582.5">GIT</text></g></g><g transform="translate(-505,-222) scale(1,1)"><g><path fill="none" stroke="none"/><text fill="#000000" stroke="none" font-family="Arial" font-size="13px" font-style="normal" font-weight="normal" text-decoration="none" x="989" y="597.5">SVN</text></g></g><g transform="translate(-505,-222) scale(1,1)"><g><path fill="none" stroke="none"/><text fill="#000000" stroke="none" font-family="Arial" font-size="13px" font-style="normal" font-weight="normal" text-decoration="none" x="989" y="612.5">HG</text></g></g><g transform="translate(-505,-222) scale(1,1)"><g><path fill="none" stroke="none"/><text fill="#000000" stroke="none" font-family="Arial" font-size="13px" font-style="normal" font-weight="normal" text-decoration="none" x="989" y="627.5">BAZAAR</text></g></g><g transform="translate(-505,-222) scale(1,1)"><g><path fill="none" stroke="none"/><text fill="#000000" stroke="none" font-family="Arial" font-size="13px" font-style="normal" font-weight="normal" text-decoration="none" x="989" y="642.5">CVS</text></g></g></g></svg>