<svg version="1.1" xmlns="http://www.w3.org/2000/svg" xmlns:xlink="http://www.w3.org/1999/xlink" width="901.32080078125" height="336"><defs/><g><g transform="translate(-230,-126) scale(1,1)"><rect fill="#ffffff" stroke="none" x="240" y="200" width="119" height="44"/></g><g transform="translate(-230,-126) scale(1,1)"><path fill="none" stroke="#000000" d="M 240 200 L 359 200 L 359 244 L 240 244 L 240 200 Z Z" stroke-miterlimit="10"/></g><g transform="translate(-230,-126) scale(1,1)"><path fill="none" stroke="#000000" d="M 240 225 L 359 225" stroke-miterlimit="10"/></g><g transform="translate(-230,-126) scale(1,1)"><path fill="none" stroke="#000000" d="M 240 235 L 359 235" stroke-miterlimit="10"/></g><g transform="translate(-230,-126) scale(1,1)"><g><path fill="none" stroke="none"/><text fill="#000000" stroke="none" font-family="Arial" font-size="13px" font-style="normal" font-weight="bold" text-decoration="none" x="248.810791015625" y="219.5">TransformInvoker</text></g></g><g transform="translate(-230,-126) scale(1,1)"><rect fill="#ffffff" stroke="none" x="768" y="136" width="117" height="48"/></g><g transform="translate(-230,-126) scale(1,1)"><path fill="none" stroke="#000000" d="M 768 136 L 885 136 L 885 184 L 768 184 L 768 136 Z Z" stroke-miterlimit="10"/></g><g transform="translate(-230,-126) scale(1,1)"><g><path fill="none" stroke="none"/><text fill="#000000" stroke="none" font-family="Arial" font-size="13px" font-style="normal" font-weight="normal" text-decoration="none" x="794.339599609375" y="153.5">«interface»</text></g></g><g transform="translate(-230,-126) scale(1,1)"><g><path fill="none" stroke="none"/><text fill="#000000" stroke="none" font-family="Arial" font-size="13px" font-style="normal" font-weight="bold" text-decoration="none" x="776.53125" y="168.5">SourceTransform</text></g></g><g transform="translate(-230,-126) scale(1,1)"><rect fill="#ffffff" stroke="none" x="488" y="288" width="110.83544921875" height="44"/></g><g transform="translate(-230,-126) scale(1,1)"><path fill="none" stroke="#000000" d="M 488 288 L 598.83544921875 288 L 598.83544921875 332 L 488 332 L 488 288 Z Z" stroke-miterlimit="10"/></g><g transform="translate(-230,-126) scale(1,1)"><path fill="none" stroke="#000000" d="M 488 313 L 598.83544921875 313" stroke-miterlimit="10"/></g><g transform="translate(-230,-126) scale(1,1)"><path fill="none" stroke="#000000" d="M 488 323 L 598.83544921875 323" stroke-miterlimit="10"/></g><g transform="translate(-230,-126) scale(1,1)"><g><path fill="none" stroke="none"/><text fill="#000000" stroke="none" font-family="Arial" font-size="13px" font-style="normal" font-weight="bold" text-decoration="none" x="496.806884765625" y="307.5">InjectionContext</text></g></g><g transform="translate(-230,-126) scale(1,1)"><rect fill="#ffffff" stroke="none" x="664" y="408" width="151.33349609375" height="44"/></g><g transform="translate(-230,-126) scale(1,1)"><path fill="none" stroke="#000000" d="M 664 408 L 815.33349609375 408 L 815.33349609375 452 L 664 452 L 664 408 Z Z" stroke-miterlimit="10"/></g><g transform="translate(-230,-126) scale(1,1)"><path fill="none" stroke="#000000" d="M 664 433 L 815.33349609375 433" stroke-miterlimit="10"/></g><g transform="translate(-230,-126) scale(1,1)"><path fill="none" stroke="#000000" d="M 664 443 L 815.33349609375 443" stroke-miterlimit="10"/></g><g transform="translate(-230,-126) scale(1,1)"><g><path fill="none" stroke="none"/><text fill="#000000" stroke="none" font-family="Arial" font-size="13px" font-style="normal" font-weight="bold" text-decoration="none" x="673.803466796875" y="427.5">BasicSourceTransform</text></g></g><g transform="translate(-230,-126) scale(1,1)"><rect fill="#ffffff" stroke="none" x="744" y="288" width="169.3798828125" height="44"/></g><g transform="translate(-230,-126) scale(1,1)"><path fill="none" stroke="#000000" d="M 744 288 L 913.3798828125 288 L 913.3798828125 332 L 744 332 L 744 288 Z Z" stroke-miterlimit="10"/></g><g transform="translate(-230,-126) scale(1,1)"><path fill="none" stroke="#000000" d="M 744 313 L 913.3798828125 313" stroke-miterlimit="10"/></g><g transform="translate(-230,-126) scale(1,1)"><path fill="none" stroke="#000000" d="M 744 323 L 913.3798828125 323" stroke-miterlimit="10"/></g><g transform="translate(-230,-126) scale(1,1)"><g><path fill="none" stroke="none"/><text fill="#000000" stroke="none" font-family="Arial" font-size="13px" font-style="normal" font-weight="bold" text-decoration="none" x="754.87939453125" y="307.5">AbstractSourceTransform</text></g></g><g transform="translate(-230,-126) scale(1,1)"><rect fill="#ffffff" stroke="none" x="1048" y="280" width="73.32080078125" height="48"/></g><g transform="translate(-230,-126) scale(1,1)"><path fill="none" stroke="#000000" d="M 1048 280 L 1121.32080078125 280 L 1121.32080078125 328 L 1048 328 L 1048 280 Z Z" stroke-miterlimit="10"/></g><g transform="translate(-230,-126) scale(1,1)"><g><path fill="none" stroke="none"/><text fill="#000000" stroke="none" font-family="Arial" font-size="13px" font-style="normal" font-weight="normal" text-decoration="none" x="1052.5" y="297.5">«interface»</text></g></g><g transform="translate(-230,-126) scale(1,1)"><g><path fill="none" stroke="none"/><text fill="#000000" stroke="none" font-family="Arial" font-size="13px" font-style="normal" font-weight="bold" text-decoration="none" x="1057.197265625" y="312.5">Condition</text></g></g><g transform="translate(-230,-126) scale(1,1)"><rect fill="#ffffff" stroke="none" x="832" y="408" width="184" height="44"/></g><g transform="translate(-230,-126) scale(1,1)"><path fill="none" stroke="#000000" d="M 832 408 L 1016 408 L 1016 452 L 832 452 L 832 408 Z Z" stroke-miterlimit="10"/></g><g transform="translate(-230,-126) scale(1,1)"><path fill="none" stroke="#000000" d="M 832 433 L 1016 433" stroke-miterlimit="10"/></g><g transform="translate(-230,-126) scale(1,1)"><path fill="none" stroke="#000000" d="M 832 443 L 1016 443" stroke-miterlimit="10"/></g><g transform="translate(-230,-126) scale(1,1)"><g><path fill="none" stroke="none"/><text fill="#000000" stroke="none" font-family="Arial" font-size="13px" font-style="normal" font-weight="bold" text-decoration="none" x="842.962646484375" y="427.5">CompositeSourceTransform</text></g></g><g transform="translate(-230,-126) scale(1,1)"><rect fill="#ffffff" stroke="none" x="248" y="408" width="108" height="44"/></g><g transform="translate(-230,-126) scale(1,1)"><path fill="none" stroke="#000000" d="M 248 408 L 356 408 L 356 452 L 248 452 L 248 408 Z Z" stroke-miterlimit="10"/></g><g transform="translate(-230,-126) scale(1,1)"><path fill="none" stroke="#000000" d="M 248 433 L 356 433" stroke-miterlimit="10"/></g><g transform="translate(-230,-126) scale(1,1)"><path fill="none" stroke="#000000" d="M 248 443 L 356 443" stroke-miterlimit="10"/></g><g transform="translate(-230,-126) scale(1,1)"><g><path fill="none" stroke="none"/><text fill="#000000" stroke="none" font-family="Arial" font-size="13px" font-style="normal" font-weight="bold" text-decoration="none" x="259.73095703125" y="427.5">FileOperations</text></g></g><g transform="translate(-230,-126) scale(1,1)"><path fill="none" stroke="#000000" d="M 826 288 L 826 184" stroke-miterlimit="10" stroke-dasharray="3"/></g><g transform="translate(-230,-126) scale(1,1)"><path fill="#FFFFFF" stroke="none" d="M 834.419035512032 204.3253497152483 L 826 184 L 817.580964487968 204.3253497152483"/></g><g transform="translate(-230,-126) scale(1,1)"><path fill="none" stroke="#000000" d="M 834.419035512032 204.3253497152483 L 826 184 L 817.580964487968 204.3253497152483 L 834.419035512032 204.3253497152483" stroke-miterlimit="10"/></g><g transform="translate(-230,-126) scale(1,1)"><path fill="none" stroke="#000000" d="M 736 408 L 736 368 L 824 368 L 824 332" stroke-miterlimit="10"/></g><g transform="translate(-230,-126) scale(1,1)"><path fill="#FFFFFF" stroke="none" d="M 832.419035512032 352.3253497152483 L 824 332 L 815.580964487968 352.3253497152483"/></g><g transform="translate(-230,-126) scale(1,1)"><path fill="none" stroke="#000000" d="M 832.419035512032 352.3253497152483 L 824 332 L 815.580964487968 352.3253497152483 L 832.419035512032 352.3253497152483" stroke-miterlimit="10"/></g><g transform="translate(-230,-126) scale(1,1)"><path fill="none" stroke="#000000" d="M 928 408 L 928 368 L 824 368 L 824 332" stroke-miterlimit="10"/></g><g transform="translate(-230,-126) scale(1,1)"><path fill="#FFFFFF" stroke="none" d="M 832.419035512032 352.3253497152483 L 824 332 L 815.580964487968 352.3253497152483"/></g><g transform="translate(-230,-126) scale(1,1)"><path fill="none" stroke="#000000" d="M 832.419035512032 352.3253497152483 L 824 332 L 815.580964487968 352.3253497152483 L 832.419035512032 352.3253497152483" stroke-miterlimit="10"/></g><g transform="translate(-230,-126) scale(1,1)"><path fill="none" stroke="#000000" d="M 913 320 L 968 320 L 968 408" stroke-miterlimit="10"/></g><g transform="translate(-230,-126) scale(1,1)"><path fill="#FFFFFF" stroke="none" d="M 963.790482243984 397.83732514237585 L 968 408 L 972.209517756016 397.83732514237585 L 968 386"/></g><g transform="translate(-230,-126) scale(1,1)"><path fill="none" stroke="#000000" d="M 963.790482243984 397.83732514237585 L 968 408 L 972.209517756016 397.83732514237585 L 968 386 L 963.790482243984 397.83732514237585" stroke-miterlimit="10"/></g><g transform="translate(-230,-126) scale(1,1)"><path fill="none" stroke="#000000" d="M 923.1626748576241 315.790482243984 L 913 320 L 923.1626748576241 324.209517756016" stroke-miterlimit="10"/></g><g transform="translate(-230,-126) scale(1,1)"><path fill="none" stroke="#000000" d="M 744 310 L 599 310" stroke-miterlimit="10"/></g><g transform="translate(-230,-126) scale(1,1)"><path fill="none" stroke="#000000" d="M 609.1626748576241 305.790482243984 L 599 310 L 609.1626748576241 314.209517756016" stroke-miterlimit="10"/></g><g transform="translate(-230,-126) scale(1,1)"><rect fill="#ffffff" stroke="none" x="240" y="288" width="125" height="44"/></g><g transform="translate(-230,-126) scale(1,1)"><path fill="none" stroke="#000000" d="M 240 288 L 365 288 L 365 332 L 240 332 L 240 288 Z Z" stroke-miterlimit="10"/></g><g transform="translate(-230,-126) scale(1,1)"><path fill="none" stroke="#000000" d="M 240 313 L 365 313" stroke-miterlimit="10"/></g><g transform="translate(-230,-126) scale(1,1)"><path fill="none" stroke="#000000" d="M 240 323 L 365 323" stroke-miterlimit="10"/></g><g transform="translate(-230,-126) scale(1,1)"><g><path fill="none" stroke="none"/><text fill="#000000" stroke="none" font-family="Arial" font-size="13px" font-style="normal" font-weight="bold" text-decoration="none" x="250.11279296875" y="307.5">InjectionController</text></g></g><g transform="translate(-230,-126) scale(1,1)"><path fill="none" stroke="#000000" d="M 744 328 L 640 328 L 640 416 L 356 416" stroke-miterlimit="10"/></g><g transform="translate(-230,-126) scale(1,1)"><path fill="none" stroke="#000000" d="M 366.16267485762415 411.790482243984 L 356 416 L 366.16267485762415 420.209517756016" stroke-miterlimit="10"/></g><g transform="translate(-230,-126) scale(1,1)"><path fill="none" stroke="#000000" d="M 302 408 L 302 332" stroke-miterlimit="10"/></g><g transform="translate(-230,-126) scale(1,1)"><path fill="#FFFFFF" stroke="none" d="M 306.209517756016 342.16267485762415 L 302 332 L 297.790482243984 342.16267485762415 L 302 354"/></g><g transform="translate(-230,-126) scale(1,1)"><path fill="none" stroke="#000000" d="M 306.209517756016 342.16267485762415 L 302 332 L 297.790482243984 342.16267485762415 L 302 354 L 306.209517756016 342.16267485762415" stroke-miterlimit="10"/></g><g transform="translate(-230,-126) scale(1,1)"><path fill="none" stroke="#000000" d="M 297.790482243984 397.83732514237585 L 302 408 L 306.209517756016 397.83732514237585" stroke-miterlimit="10"/></g><g transform="translate(-230,-126) scale(1,1)"><path fill="none" stroke="#000000" d="M 768 160 L 299 160 L 299 200" stroke-miterlimit="10"/></g><g transform="translate(-230,-126) scale(1,1)"><path fill="#000000" stroke="none" d="M 294.790482243984 189.83732514237585 L 299 200 L 303.209517756016 189.83732514237585 L 299 178"/></g><g transform="translate(-230,-126) scale(1,1)"><path fill="none" stroke="#000000" d="M 294.790482243984 189.83732514237585 L 299 200 L 303.209517756016 189.83732514237585 L 299 178 L 294.790482243984 189.83732514237585" stroke-miterlimit="10"/></g><g transform="translate(-230,-126) scale(1,1)"><path fill="none" stroke="#000000" d="M 664 440 L 356 440" stroke-miterlimit="10" stroke-dasharray="3"/></g><g transform="translate(-230,-126) scale(1,1)"><path fill="none" stroke="#000000" d="M 366.16267485762415 435.790482243984 L 356 440 L 366.16267485762415 444.209517756016" stroke-miterlimit="10"/></g><g transform="translate(-230,-126) scale(1,1)"><rect fill="#ffffff" stroke="none" x="904" y="136" width="128.90087890625" height="48"/></g><g transform="translate(-230,-126) scale(1,1)"><path fill="none" stroke="#000000" d="M 904 136 L 1032.90087890625 136 L 1032.90087890625 184 L 904 184 L 904 136 Z Z" stroke-miterlimit="10"/></g><g transform="translate(-230,-126) scale(1,1)"><g><path fill="none" stroke="none"/><text fill="#000000" stroke="none" font-family="Arial" font-size="13px" font-style="normal" font-weight="normal" text-decoration="none" x="936.2900390625" y="153.5">«interface»</text></g></g><g transform="translate(-230,-126) scale(1,1)"><g><path fill="none" stroke="none"/><text fill="#000000" stroke="none" font-family="Arial" font-size="13px" font-style="normal" font-weight="bold" text-decoration="none" x="911.727783203125" y="168.5">DataModelMediator</text></g></g><g transform="translate(-230,-126) scale(1,1)"><path fill="none" stroke="#000000" d="M 913 296 L 968 296 L 968 184" stroke-miterlimit="10"/></g><g transform="translate(-230,-126) scale(1,1)"><path fill="none" stroke="#000000" d="M 972.209517756016 194.16267485762415 L 968 184 L 963.790482243984 194.16267485762415" stroke-miterlimit="10"/></g><g transform="translate(-230,-126) scale(1,1)"><g><path fill="none" stroke="none"/><text fill="#000000" stroke="none" font-family="Arial" font-size="13px" font-style="normal" font-weight="normal" text-decoration="none" x="975.734130859375" y="252.5">Injected</text></g></g><g transform="translate(-230,-126) scale(1,1)"><path fill="none" stroke="#000000" d="M 304 244 L 304 288" stroke-miterlimit="10"/></g><g transform="translate(-230,-126) scale(1,1)"><path fill="none" stroke="#000000" d="M 299.790482243984 277.83732514237585 L 304 288 L 308.209517756016 277.83732514237585" stroke-miterlimit="10"/></g><g transform="translate(-230,-126) scale(1,1)"><path fill="none" stroke="#000000" d="M 544 288 L 544 216 L 359 216" stroke-miterlimit="10"/></g><g transform="translate(-230,-126) scale(1,1)"><path fill="none" stroke="#000000" d="M 369.16267485762415 211.790482243984 L 359 216 L 369.16267485762415 220.209517756016" stroke-miterlimit="10"/></g><g transform="translate(-230,-126) scale(1,1)"><path fill="none" stroke="#000000" d="M 488 310 L 365 310" stroke-miterlimit="10"/></g><g transform="translate(-230,-126) scale(1,1)"><path fill="none" stroke="#000000" d="M 375.16267485762415 305.790482243984 L 365 310 L 375.16267485762415 314.209517756016" stroke-miterlimit="10"/></g><g transform="translate(-230,-126) scale(1,1)"><path fill="none" stroke="#000000" d="M 1048 308 L 913 308" stroke-miterlimit="10"/></g><g transform="translate(-230,-126) scale(1,1)"><path fill="#FFFFFF" stroke="none" d="M 923.1626748576241 303.790482243984 L 913 308 L 923.1626748576241 312.209517756016 L 935 308"/></g><g transform="translate(-230,-126) scale(1,1)"><path fill="none" stroke="#000000" d="M 923.1626748576241 303.790482243984 L 913 308 L 923.1626748576241 312.209517756016 L 935 308 L 923.1626748576241 303.790482243984" stroke-miterlimit="10"/></g></g></svg>