<svg version="1.1" xmlns="http://www.w3.org/2000/svg" xmlns:xlink="http://www.w3.org/1999/xlink" width="1068.90087890625" height="716"><defs/><g><g transform="translate(-142,-214) scale(1,1)"><rect fill="#ffffff" stroke="none" x="696" y="224" width="122" height="87"/></g><g transform="translate(-142,-214) scale(1,1)"><path fill="none" stroke="#000000" d="M 696 224 L 818 224 L 818 311 L 696 311 L 696 224 Z Z" stroke-miterlimit="10"/></g><g transform="translate(-142,-214) scale(1,1)"><path fill="none" stroke="#000000" d="M 696 249 L 818 249" stroke-miterlimit="10"/></g><g transform="translate(-142,-214) scale(1,1)"><path fill="none" stroke="#000000" d="M 696 302 L 818 302" stroke-miterlimit="10"/></g><g transform="translate(-142,-214) scale(1,1)"><g><path fill="none" stroke="none"/><text fill="#000000" stroke="none" font-family="Arial" font-size="13px" font-style="normal" font-weight="bold" text-decoration="none" x="739.305908203125" y="243.5">Metric</text></g></g><g transform="translate(-142,-214) scale(1,1)"><g><path fill="none" stroke="none"/><text fill="#000000" stroke="none" font-family="Arial" font-size="13px" font-style="normal" font-weight="normal" text-decoration="none" x="701" y="266.5">-metricKey: String</text></g></g><g transform="translate(-142,-214) scale(1,1)"><g><path fill="none" stroke="none"/><text fill="#000000" stroke="none" font-family="Arial" font-size="13px" font-style="normal" font-weight="normal" text-decoration="none" x="701" y="281.5">-name: String</text></g></g><g transform="translate(-142,-214) scale(1,1)"><g><path fill="none" stroke="none"/><text fill="#000000" stroke="none" font-family="Arial" font-size="13px" font-style="normal" font-weight="normal" text-decoration="none" x="701" y="296.5">-description: String</text></g></g><g transform="translate(-142,-214) scale(1,1)"><rect fill="#ffffff" stroke="none" x="832" y="226" width="87.76171875" height="48"/></g><g transform="translate(-142,-214) scale(1,1)"><path fill="none" stroke="#000000" d="M 832 226 L 919.76171875 226 L 919.76171875 274 L 832 274 L 832 226 Z Z" stroke-miterlimit="10"/></g><g transform="translate(-142,-214) scale(1,1)"><g><path fill="none" stroke="none"/><text fill="#000000" stroke="none" font-family="Arial" font-size="13px" font-style="normal" font-weight="normal" text-decoration="none" x="843.720458984375" y="243.5">«interface»</text></g></g><g transform="translate(-142,-214) scale(1,1)"><g><path fill="none" stroke="none"/><text fill="#000000" stroke="none" font-family="Arial" font-size="13px" font-style="normal" font-weight="bold" text-decoration="none" x="838.302734375" y="258.5">Measureable</text></g></g><g transform="translate(-142,-214) scale(1,1)"><rect fill="#ffffff" stroke="none" x="936" y="224" width="132" height="72"/></g><g transform="translate(-142,-214) scale(1,1)"><path fill="none" stroke="#000000" d="M 936 224 L 1068 224 L 1068 296 L 936 296 L 936 224 Z Z" stroke-miterlimit="10"/></g><g transform="translate(-142,-214) scale(1,1)"><path fill="none" stroke="#000000" d="M 936 249 L 1068 249" stroke-miterlimit="10"/></g><g transform="translate(-142,-214) scale(1,1)"><path fill="none" stroke="#000000" d="M 936 287 L 1068 287" stroke-miterlimit="10"/></g><g transform="translate(-142,-214) scale(1,1)"><g><path fill="none" stroke="none"/><text fill="#000000" stroke="none" font-family="Arial" font-size="13px" font-style="normal" font-weight="bold" text-decoration="none" x="976.7109375" y="243.5">Measure</text></g></g><g transform="translate(-142,-214) scale(1,1)"><g><path fill="none" stroke="none"/><text fill="#000000" stroke="none" font-family="Arial" font-size="13px" font-style="normal" font-weight="normal" text-decoration="none" x="941" y="266.5">-measureKey: String</text></g></g><g transform="translate(-142,-214) scale(1,1)"><g><path fill="none" stroke="none"/><text fill="#000000" stroke="none" font-family="Arial" font-size="13px" font-style="normal" font-weight="normal" text-decoration="none" x="941" y="281.5">-value: double</text></g></g><g transform="translate(-142,-214) scale(1,1)"><rect fill="#ffffff" stroke="none" x="656" y="353" width="323.716796875" height="87"/></g><g transform="translate(-142,-214) scale(1,1)"><path fill="none" stroke="#000000" d="M 656 353 L 979.716796875 353 L 979.716796875 440 L 656 440 L 656 353 Z Z" stroke-miterlimit="10"/></g><g transform="translate(-142,-214) scale(1,1)"><path fill="none" stroke="#000000" d="M 656 378 L 979.716796875 378" stroke-miterlimit="10"/></g><g transform="translate(-142,-214) scale(1,1)"><path fill="none" stroke="#000000" d="M 656 388 L 979.716796875 388" stroke-miterlimit="10"/></g><g transform="translate(-142,-214) scale(1,1)"><g><path fill="none" stroke="none"/><text fill="#000000" stroke="none" font-family="Arial" font-size="13px" font-style="italic" font-weight="bold" text-decoration="none" x="776.322509765625" y="372.5">AbstractMetric</text></g></g><g transform="translate(-142,-214) scale(1,1)"><g><path fill="none" stroke="none"/><text fill="#000000" stroke="none" font-family="Arial" font-size="13px" font-style="normal" font-weight="normal" text-decoration="none" x="661" y="405.5">+getMetric(node: Measureable, handle: String): double</text></g></g><g transform="translate(-142,-214) scale(1,1)"><g><path fill="none" stroke="none"/><text fill="#000000" stroke="none" font-family="Arial" font-size="13px" font-style="normal" font-weight="normal" text-decoration="none" x="661" y="420.5">+toMetric(repo: MetricRepository): Metric</text></g></g><g transform="translate(-142,-214) scale(1,1)"><g><path fill="none" stroke="none"/><text fill="#000000" stroke="none" font-family="Arial" font-size="13px" font-style="italic" font-weight="normal" text-decoration="none" x="661" y="435.5">+measure(node: Measureable): Measure</text></g></g><g transform="translate(-142,-214) scale(1,1)"><rect fill="#ffffff" stroke="none" x="1072" y="372" width="128.90087890625" height="48"/></g><g transform="translate(-142,-214) scale(1,1)"><path fill="none" stroke="#000000" d="M 1072 372 L 1200.90087890625 372 L 1200.90087890625 420 L 1072 420 L 1072 372 Z Z" stroke-miterlimit="10"/></g><g transform="translate(-142,-214) scale(1,1)"><g><path fill="none" stroke="none"/><text fill="#000000" stroke="none" font-family="Arial" font-size="13px" font-style="normal" font-weight="normal" text-decoration="none" x="1104.2900390625" y="389.5">«interface»</text></g></g><g transform="translate(-142,-214) scale(1,1)"><g><path fill="none" stroke="none"/><text fill="#000000" stroke="none" font-family="Arial" font-size="13px" font-style="normal" font-weight="bold" text-decoration="none" x="1079.727783203125" y="404.5">DataModelMediator</text></g></g><g transform="translate(-142,-214) scale(1,1)"><rect fill="#ffffff" stroke="none" x="698" y="488" width="239.166015625" height="57"/></g><g transform="translate(-142,-214) scale(1,1)"><path fill="none" stroke="#000000" d="M 698 488 L 937.166015625 488 L 937.166015625 545 L 698 545 L 698 488 Z Z" stroke-miterlimit="10"/></g><g transform="translate(-142,-214) scale(1,1)"><path fill="none" stroke="#000000" d="M 698 513 L 937.166015625 513" stroke-miterlimit="10"/></g><g transform="translate(-142,-214) scale(1,1)"><path fill="none" stroke="#000000" d="M 698 523 L 937.166015625 523" stroke-miterlimit="10"/></g><g transform="translate(-142,-214) scale(1,1)"><g><path fill="none" stroke="none"/><text fill="#000000" stroke="none" font-family="Arial" font-size="13px" font-style="italic" font-weight="bold" text-decoration="none" x="755.4521484375" y="507.5">AbstractSourceMetric</text></g></g><g transform="translate(-142,-214) scale(1,1)"><g><path fill="none" stroke="none"/><text fill="#000000" stroke="none" font-family="Arial" font-size="13px" font-style="normal" font-weight="normal" text-decoration="none" x="703" y="540.5">+getLines(node: Measureable): String[*]</text></g></g><g transform="translate(-142,-214) scale(1,1)"><path fill="none" stroke="#000000" d="M 817 487 L 817 441" stroke-miterlimit="10"/></g><g transform="translate(-142,-214) scale(1,1)"><path fill="#FFFFFF" stroke="none" d="M 825.419035512032 461.3253497152483 L 817 441 L 808.580964487968 461.3253497152483"/></g><g transform="translate(-142,-214) scale(1,1)"><path fill="none" stroke="#000000" d="M 825.419035512032 461.3253497152483 L 817 441 L 808.580964487968 461.3253497152483 L 825.419035512032 461.3253497152483" stroke-miterlimit="10"/></g><g transform="translate(-142,-214) scale(1,1)"><rect fill="#ffffff" stroke="none" x="695" y="600" width="244.9296875" height="145"/></g><g transform="translate(-142,-214) scale(1,1)"><path fill="none" stroke="#000000" d="M 695 600 L 939.9296875 600 L 939.9296875 745 L 695 745 L 695 600 Z Z" stroke-miterlimit="10"/></g><g transform="translate(-142,-214) scale(1,1)"><path fill="none" stroke="#000000" d="M 695 625 L 939.9296875 625" stroke-miterlimit="10"/></g><g transform="translate(-142,-214) scale(1,1)"><path fill="none" stroke="#000000" d="M 695 693 L 939.9296875 693" stroke-miterlimit="10"/></g><g transform="translate(-142,-214) scale(1,1)"><g><path fill="none" stroke="none"/><text fill="#000000" stroke="none" font-family="Arial" font-size="13px" font-style="italic" font-weight="bold" text-decoration="none" x="764.728515625" y="619.5">AbstactLOCMetric</text></g></g><g transform="translate(-142,-214) scale(1,1)"><g><path fill="none" stroke="none"/><text fill="#000000" stroke="none" font-family="Arial" font-size="13px" font-style="normal" font-weight="normal" text-decoration="none" x="700" y="642.5">-lineCommentStart: String</text></g></g><g transform="translate(-142,-214) scale(1,1)"><g><path fill="none" stroke="none"/><text fill="#000000" stroke="none" font-family="Arial" font-size="13px" font-style="normal" font-weight="normal" text-decoration="none" x="700" y="657.5">-blockCommentStart: String</text></g></g><g transform="translate(-142,-214) scale(1,1)"><g><path fill="none" stroke="none"/><text fill="#000000" stroke="none" font-family="Arial" font-size="13px" font-style="normal" font-weight="normal" text-decoration="none" x="700" y="672.5">-blockCommentEnd: String</text></g></g><g transform="translate(-142,-214) scale(1,1)"><g><path fill="none" stroke="none"/><text fill="#000000" stroke="none" font-family="Arial" font-size="13px" font-style="normal" font-weight="normal" text-decoration="none" x="700" y="687.5">-commentStartExcept: String[*]</text></g></g><g transform="translate(-142,-214) scale(1,1)"><g><path fill="none" stroke="none"/><text fill="#000000" stroke="none" font-family="Arial" font-size="13px" font-style="normal" font-weight="normal" text-decoration="none" x="700" y="710.5">+measure(node: Measureable): Measure</text></g></g><g transform="translate(-142,-214) scale(1,1)"><g><path fill="none" stroke="none"/><text fill="#000000" stroke="none" font-family="Arial" font-size="13px" font-style="normal" font-weight="normal" text-decoration="none" x="700" y="725.5">+count(lines: String[*]): int</text></g></g><g transform="translate(-142,-214) scale(1,1)"><g><path fill="none" stroke="none"/><text fill="#000000" stroke="none" font-family="Arial" font-size="13px" font-style="normal" font-weight="normal" text-decoration="none" x="700" y="740.5">+loadProfile(profile: LoCProfile)</text></g></g><g transform="translate(-142,-214) scale(1,1)"><rect fill="#ffffff" stroke="none" x="1090" y="650" width="74.7236328125" height="44"/></g><g transform="translate(-142,-214) scale(1,1)"><path fill="none" stroke="#000000" d="M 1090 650 L 1164.7236328125 650 L 1164.7236328125 694 L 1090 694 L 1090 650 Z Z" stroke-miterlimit="10"/></g><g transform="translate(-142,-214) scale(1,1)"><path fill="none" stroke="#000000" d="M 1090 675 L 1164.7236328125 675" stroke-miterlimit="10"/></g><g transform="translate(-142,-214) scale(1,1)"><path fill="none" stroke="#000000" d="M 1090 685 L 1164.7236328125 685" stroke-miterlimit="10"/></g><g transform="translate(-142,-214) scale(1,1)"><g><path fill="none" stroke="none"/><text fill="#000000" stroke="none" font-family="Arial" font-size="13px" font-style="normal" font-weight="bold" text-decoration="none" x="1097.013671875" y="669.5">LoCProfile</text></g></g><g transform="translate(-142,-214) scale(1,1)"><rect fill="#ffffff" stroke="none" x="1063" y="768" width="128.18359375" height="44"/></g><g transform="translate(-142,-214) scale(1,1)"><path fill="none" stroke="#000000" d="M 1063 768 L 1191.18359375 768 L 1191.18359375 812 L 1063 812 L 1063 768 Z Z" stroke-miterlimit="10"/></g><g transform="translate(-142,-214) scale(1,1)"><path fill="none" stroke="#000000" d="M 1063 793 L 1191.18359375 793" stroke-miterlimit="10"/></g><g transform="translate(-142,-214) scale(1,1)"><path fill="none" stroke="#000000" d="M 1063 803 L 1191.18359375 803" stroke-miterlimit="10"/></g><g transform="translate(-142,-214) scale(1,1)"><g><path fill="none" stroke="none"/><text fill="#000000" stroke="none" font-family="Arial" font-size="13px" font-style="normal" font-weight="bold" text-decoration="none" x="1071.089599609375" y="787.5">LoCProfileManager</text></g></g><g transform="translate(-142,-214) scale(1,1)"><rect fill="#ffffff" stroke="none" x="1080" y="440" width="108.34716796875" height="177"/></g><g transform="translate(-142,-214) scale(1,1)"><path fill="none" stroke="#000000" d="M 1080 440 L 1188.34716796875 440 L 1188.34716796875 617 L 1080 617 L 1080 440 Z Z" stroke-miterlimit="10"/></g><g transform="translate(-142,-214) scale(1,1)"><path fill="none" stroke="#000000" d="M 1080 465 L 1188.34716796875 465" stroke-miterlimit="10"/></g><g transform="translate(-142,-214) scale(1,1)"><path fill="none" stroke="#000000" d="M 1080 475 L 1188.34716796875 475" stroke-miterlimit="10"/></g><g transform="translate(-142,-214) scale(1,1)"><g><path fill="none" stroke="none"/><text fill="#000000" stroke="none" font-family="Arial" font-size="13px" font-style="normal" font-weight="bold" text-decoration="none" x="1099.11865234375" y="459.5">Aggregation</text></g></g><g transform="translate(-142,-214) scale(1,1)"><g><path fill="none" stroke="none"/><text fill="#000000" stroke="none" font-family="Arial" font-size="13px" font-style="normal" font-weight="normal" text-decoration="none" x="1085" y="492.5">+average(vals)</text><path fill="none" stroke="#000000" d="M 1085 492.5 L 1171.34716796875 492.5" stroke-miterlimit="10"/></g></g><g transform="translate(-142,-214) scale(1,1)"><g><path fill="none" stroke="none"/><text fill="#000000" stroke="none" font-family="Arial" font-size="13px" font-style="normal" font-weight="normal" text-decoration="none" x="1085" y="507.5">+count(vals)</text><path fill="none" stroke="#000000" d="M 1085 507.5 L 1156.169921875 507.5" stroke-miterlimit="10"/></g></g><g transform="translate(-142,-214) scale(1,1)"><g><path fill="none" stroke="none"/><text fill="#000000" stroke="none" font-family="Arial" font-size="13px" font-style="normal" font-weight="normal" text-decoration="none" x="1085" y="522.5">+max(vals)</text><path fill="none" stroke="#000000" d="M 1085 522.5 L 1148.92724609375 522.5" stroke-miterlimit="10"/></g></g><g transform="translate(-142,-214) scale(1,1)"><g><path fill="none" stroke="none"/><text fill="#000000" stroke="none" font-family="Arial" font-size="13px" font-style="normal" font-weight="normal" text-decoration="none" x="1085" y="537.5">+min(vals)</text><path fill="none" stroke="#000000" d="M 1085 537.5 L 1145.3154296875 537.5" stroke-miterlimit="10"/></g></g><g transform="translate(-142,-214) scale(1,1)"><g><path fill="none" stroke="none"/><text fill="#000000" stroke="none" font-family="Arial" font-size="13px" font-style="normal" font-weight="normal" text-decoration="none" x="1085" y="552.5">+median(vals)</text><path fill="none" stroke="#000000" d="M 1085 552.5 L 1167.00537109375 552.5" stroke-miterlimit="10"/></g></g><g transform="translate(-142,-214) scale(1,1)"><g><path fill="none" stroke="none"/><text fill="#000000" stroke="none" font-family="Arial" font-size="13px" font-style="normal" font-weight="normal" text-decoration="none" x="1085" y="567.5">+range(vals)</text><path fill="none" stroke="#000000" d="M 1085 567.5 L 1157.6171875 567.5" stroke-miterlimit="10"/></g></g><g transform="translate(-142,-214) scale(1,1)"><g><path fill="none" stroke="none"/><text fill="#000000" stroke="none" font-family="Arial" font-size="13px" font-style="normal" font-weight="normal" text-decoration="none" x="1085" y="582.5">+randselect(vals)</text><path fill="none" stroke="#000000" d="M 1085 582.5 L 1184.34716796875 582.5" stroke-miterlimit="10"/></g></g><g transform="translate(-142,-214) scale(1,1)"><g><path fill="none" stroke="none"/><text fill="#000000" stroke="none" font-family="Arial" font-size="13px" font-style="normal" font-weight="normal" text-decoration="none" x="1085" y="597.5">+variance(vals)</text><path fill="none" stroke="#000000" d="M 1085 597.5 L 1173.50537109375 597.5" stroke-miterlimit="10"/></g></g><g transform="translate(-142,-214) scale(1,1)"><g><path fill="none" stroke="none"/><text fill="#000000" stroke="none" font-family="Arial" font-size="13px" font-style="normal" font-weight="normal" text-decoration="none" x="1085" y="612.5">+stddev(vals)</text><path fill="none" stroke="#000000" d="M 1085 612.5 L 1162.669921875 612.5" stroke-miterlimit="10"/></g></g><g transform="translate(-142,-214) scale(1,1)"><rect fill="#ffffff" stroke="none" x="424" y="680" width="125.34619140625" height="240"/></g><g transform="translate(-142,-214) scale(1,1)"><path fill="none" stroke="#000000" d="M 424 680 L 549.34619140625 680 L 549.34619140625 920 L 424 920 L 424 680 Z Z" stroke-miterlimit="10"/></g><g transform="translate(-142,-214) scale(1,1)"><path fill="none" stroke="#000000" d="M 424 718 L 549.34619140625 718" stroke-miterlimit="10"/></g><g transform="translate(-142,-214) scale(1,1)"><g><path fill="none" stroke="none"/><text fill="#000000" stroke="none" font-family="Arial" font-size="13px" font-style="normal" font-weight="normal" text-decoration="none" x="443.30908203125" y="697.5">«enumeration»</text></g></g><g transform="translate(-142,-214) scale(1,1)"><g><path fill="none" stroke="none"/><text fill="#000000" stroke="none" font-family="Arial" font-size="13px" font-style="normal" font-weight="bold" text-decoration="none" x="442.6044921875" y="712.5">MetricCategory</text></g></g><g transform="translate(-142,-214) scale(1,1)"><g><path fill="none" stroke="none"/><text fill="#000000" stroke="none" font-family="Arial" font-size="13px" font-style="normal" font-weight="normal" text-decoration="none" x="429" y="735.5">Cohesion</text></g></g><g transform="translate(-142,-214) scale(1,1)"><g><path fill="none" stroke="none"/><text fill="#000000" stroke="none" font-family="Arial" font-size="13px" font-style="normal" font-weight="normal" text-decoration="none" x="429" y="750.5">Coupling</text></g></g><g transform="translate(-142,-214) scale(1,1)"><g><path fill="none" stroke="none"/><text fill="#000000" stroke="none" font-family="Arial" font-size="13px" font-style="normal" font-weight="normal" text-decoration="none" x="429" y="765.5">Complexity</text></g></g><g transform="translate(-142,-214) scale(1,1)"><g><path fill="none" stroke="none"/><text fill="#000000" stroke="none" font-family="Arial" font-size="13px" font-style="normal" font-weight="normal" text-decoration="none" x="429" y="780.5">Size</text></g></g><g transform="translate(-142,-214) scale(1,1)"><g><path fill="none" stroke="none"/><text fill="#000000" stroke="none" font-family="Arial" font-size="13px" font-style="normal" font-weight="normal" text-decoration="none" x="429" y="795.5">Effort</text></g></g><g transform="translate(-142,-214) scale(1,1)"><g><path fill="none" stroke="none"/><text fill="#000000" stroke="none" font-family="Arial" font-size="13px" font-style="normal" font-weight="normal" text-decoration="none" x="429" y="810.5">Reuse</text></g></g><g transform="translate(-142,-214) scale(1,1)"><g><path fill="none" stroke="none"/><text fill="#000000" stroke="none" font-family="Arial" font-size="13px" font-style="normal" font-weight="normal" text-decoration="none" x="429" y="825.5">Inheritance</text></g></g><g transform="translate(-142,-214) scale(1,1)"><g><path fill="none" stroke="none"/><text fill="#000000" stroke="none" font-family="Arial" font-size="13px" font-style="normal" font-weight="normal" text-decoration="none" x="429" y="840.5">Polymorphism</text></g></g><g transform="translate(-142,-214) scale(1,1)"><g><path fill="none" stroke="none"/><text fill="#000000" stroke="none" font-family="Arial" font-size="13px" font-style="normal" font-weight="normal" text-decoration="none" x="429" y="855.5">Duplication</text></g></g><g transform="translate(-142,-214) scale(1,1)"><g><path fill="none" stroke="none"/><text fill="#000000" stroke="none" font-family="Arial" font-size="13px" font-style="normal" font-weight="normal" text-decoration="none" x="429" y="870.5">Volume</text></g></g><g transform="translate(-142,-214) scale(1,1)"><g><path fill="none" stroke="none"/><text fill="#000000" stroke="none" font-family="Arial" font-size="13px" font-style="normal" font-weight="normal" text-decoration="none" x="429" y="885.5">Encapsulation</text></g></g><g transform="translate(-142,-214) scale(1,1)"><g><path fill="none" stroke="none"/><text fill="#000000" stroke="none" font-family="Arial" font-size="13px" font-style="normal" font-weight="normal" text-decoration="none" x="429" y="900.5">BasicProperty</text></g></g><g transform="translate(-142,-214) scale(1,1)"><g><path fill="none" stroke="none"/><text fill="#000000" stroke="none" font-family="Arial" font-size="13px" font-style="normal" font-weight="normal" text-decoration="none" x="429" y="915.5">Documentation</text></g></g><g transform="translate(-142,-214) scale(1,1)"><rect fill="#ffffff" stroke="none" x="288" y="680" width="125.34619140625" height="180"/></g><g transform="translate(-142,-214) scale(1,1)"><path fill="none" stroke="#000000" d="M 288 680 L 413.34619140625 680 L 413.34619140625 860 L 288 860 L 288 680 Z Z" stroke-miterlimit="10"/></g><g transform="translate(-142,-214) scale(1,1)"><path fill="none" stroke="#000000" d="M 288 718 L 413.34619140625 718" stroke-miterlimit="10"/></g><g transform="translate(-142,-214) scale(1,1)"><g><path fill="none" stroke="none"/><text fill="#000000" stroke="none" font-family="Arial" font-size="13px" font-style="normal" font-weight="normal" text-decoration="none" x="307.30908203125" y="697.5">«enumeration»</text></g></g><g transform="translate(-142,-214) scale(1,1)"><g><path fill="none" stroke="none"/><text fill="#000000" stroke="none" font-family="Arial" font-size="13px" font-style="normal" font-weight="bold" text-decoration="none" x="314.548583984375" y="712.5">MetricScope</text></g></g><g transform="translate(-142,-214) scale(1,1)"><g><path fill="none" stroke="none"/><text fill="#000000" stroke="none" font-family="Arial" font-size="13px" font-style="normal" font-weight="normal" text-decoration="none" x="293" y="735.5">ALL</text></g></g><g transform="translate(-142,-214) scale(1,1)"><g><path fill="none" stroke="none"/><text fill="#000000" stroke="none" font-family="Arial" font-size="13px" font-style="normal" font-weight="normal" text-decoration="none" x="293" y="750.5">TYPE</text></g></g><g transform="translate(-142,-214) scale(1,1)"><g><path fill="none" stroke="none"/><text fill="#000000" stroke="none" font-family="Arial" font-size="13px" font-style="normal" font-weight="normal" text-decoration="none" x="293" y="765.5">METHOD</text></g></g><g transform="translate(-142,-214) scale(1,1)"><g><path fill="none" stroke="none"/><text fill="#000000" stroke="none" font-family="Arial" font-size="13px" font-style="normal" font-weight="normal" text-decoration="none" x="293" y="780.5">PROJECT</text></g></g><g transform="translate(-142,-214) scale(1,1)"><g><path fill="none" stroke="none"/><text fill="#000000" stroke="none" font-family="Arial" font-size="13px" font-style="normal" font-weight="normal" text-decoration="none" x="293" y="795.5">STRUCTURAL</text></g></g><g transform="translate(-142,-214) scale(1,1)"><g><path fill="none" stroke="none"/><text fill="#000000" stroke="none" font-family="Arial" font-size="13px" font-style="normal" font-weight="normal" text-decoration="none" x="293" y="810.5">CLASS</text></g></g><g transform="translate(-142,-214) scale(1,1)"><g><path fill="none" stroke="none"/><text fill="#000000" stroke="none" font-family="Arial" font-size="13px" font-style="normal" font-weight="normal" text-decoration="none" x="293" y="825.5">FILE</text></g></g><g transform="translate(-142,-214) scale(1,1)"><g><path fill="none" stroke="none"/><text fill="#000000" stroke="none" font-family="Arial" font-size="13px" font-style="normal" font-weight="normal" text-decoration="none" x="293" y="840.5">NAMESPACE</text></g></g><g transform="translate(-142,-214) scale(1,1)"><g><path fill="none" stroke="none"/><text fill="#000000" stroke="none" font-family="Arial" font-size="13px" font-style="normal" font-weight="normal" text-decoration="none" x="293" y="855.5">MODULE</text></g></g><g transform="translate(-142,-214) scale(1,1)"><rect fill="#ffffff" stroke="none" x="560" y="680" width="125.34619140625" height="105"/></g><g transform="translate(-142,-214) scale(1,1)"><path fill="none" stroke="#000000" d="M 560 680 L 685.34619140625 680 L 685.34619140625 785 L 560 785 L 560 680 Z Z" stroke-miterlimit="10"/></g><g transform="translate(-142,-214) scale(1,1)"><path fill="none" stroke="#000000" d="M 560 718 L 685.34619140625 718" stroke-miterlimit="10"/></g><g transform="translate(-142,-214) scale(1,1)"><g><path fill="none" stroke="none"/><text fill="#000000" stroke="none" font-family="Arial" font-size="13px" font-style="normal" font-weight="normal" text-decoration="none" x="579.30908203125" y="697.5">«enumeration»</text></g></g><g transform="translate(-142,-214) scale(1,1)"><g><path fill="none" stroke="none"/><text fill="#000000" stroke="none" font-family="Arial" font-size="13px" font-style="normal" font-weight="bold" text-decoration="none" x="590.88720703125" y="712.5">MetricType</text></g></g><g transform="translate(-142,-214) scale(1,1)"><g><path fill="none" stroke="none"/><text fill="#000000" stroke="none" font-family="Arial" font-size="13px" font-style="normal" font-weight="normal" text-decoration="none" x="565" y="735.5">FlowGraph</text></g></g><g transform="translate(-142,-214) scale(1,1)"><g><path fill="none" stroke="none"/><text fill="#000000" stroke="none" font-family="Arial" font-size="13px" font-style="normal" font-weight="normal" text-decoration="none" x="565" y="750.5">Model</text></g></g><g transform="translate(-142,-214) scale(1,1)"><g><path fill="none" stroke="none"/><text fill="#000000" stroke="none" font-family="Arial" font-size="13px" font-style="normal" font-weight="normal" text-decoration="none" x="565" y="765.5">SourceCode</text></g></g><g transform="translate(-142,-214) scale(1,1)"><g><path fill="none" stroke="none"/><text fill="#000000" stroke="none" font-family="Arial" font-size="13px" font-style="normal" font-weight="normal" text-decoration="none" x="565" y="780.5">Derived</text></g></g><g transform="translate(-142,-214) scale(1,1)"><path fill="none" stroke="#000000" d="M 817 599 L 817 546" stroke-miterlimit="10"/></g><g transform="translate(-142,-214) scale(1,1)"><path fill="#FFFFFF" stroke="none" d="M 825.419035512032 566.3253497152483 L 817 546 L 808.580964487968 566.3253497152483"/></g><g transform="translate(-142,-214) scale(1,1)"><path fill="none" stroke="#000000" d="M 825.419035512032 566.3253497152483 L 817 546 L 808.580964487968 566.3253497152483 L 825.419035512032 566.3253497152483" stroke-miterlimit="10"/></g><g transform="translate(-142,-214) scale(1,1)"><path fill="none" stroke="#000000" d="M 941 672 L 1089 672" stroke-miterlimit="10" stroke-dasharray="3"/></g><g transform="translate(-142,-214) scale(1,1)"><path fill="none" stroke="#000000" d="M 1078.837325142376 676.209517756016 L 1089 672 L 1078.837325142376 667.790482243984" stroke-miterlimit="10"/></g><g transform="translate(-142,-214) scale(1,1)"><path fill="none" stroke="#000000" d="M 1127 695 L 1127 767" stroke-miterlimit="10"/></g><g transform="translate(-142,-214) scale(1,1)"><path fill="#FFFFFF" stroke="none" d="M 1122.7904822439841 756.8373251423759 L 1127 767 L 1131.2095177560159 756.8373251423759 L 1127 745"/></g><g transform="translate(-142,-214) scale(1,1)"><path fill="none" stroke="#000000" d="M 1122.7904822439841 756.8373251423759 L 1127 767 L 1131.2095177560159 756.8373251423759 L 1127 745 L 1122.7904822439841 756.8373251423759" stroke-miterlimit="10"/></g><g transform="translate(-142,-214) scale(1,1)"><path fill="none" stroke="#000000" d="M 981 396 L 1071 396" stroke-miterlimit="10"/></g><g transform="translate(-142,-214) scale(1,1)"><path fill="none" stroke="#000000" d="M 1060.837325142376 400.209517756016 L 1071 396 L 1060.837325142376 391.790482243984" stroke-miterlimit="10"/></g><g transform="translate(-142,-214) scale(1,1)"><path fill="none" stroke="#000000" d="M 864 353 L 864 274" stroke-miterlimit="10" stroke-dasharray="3"/></g><g transform="translate(-142,-214) scale(1,1)"><path fill="none" stroke="#000000" d="M 868.209517756016 284.16267485762415 L 864 274 L 859.790482243984 284.16267485762415" stroke-miterlimit="10"/></g><g transform="translate(-142,-214) scale(1,1)"><rect fill="#ffffff" stroke="none" x="336" y="488" width="170.4716796875" height="135"/></g><g transform="translate(-142,-214) scale(1,1)"><path fill="none" stroke="#000000" d="M 336 488 L 506.4716796875 488 L 506.4716796875 623 L 336 623 L 336 488 Z Z" stroke-miterlimit="10"/></g><g transform="translate(-142,-214) scale(1,1)"><path fill="none" stroke="#000000" d="M 336 526 L 506.4716796875 526" stroke-miterlimit="10"/></g><g transform="translate(-142,-214) scale(1,1)"><g><path fill="none" stroke="none"/><text fill="#000000" stroke="none" font-family="Arial" font-size="13px" font-style="normal" font-weight="normal" text-decoration="none" x="389.075439453125" y="505.5">«interface»</text></g></g><g transform="translate(-142,-214) scale(1,1)"><g><path fill="none" stroke="none"/><text fill="#000000" stroke="none" font-family="Arial" font-size="13px" font-style="normal" font-weight="bold" text-decoration="none" x="373.917236328125" y="520.5">MetricProperties</text></g></g><g transform="translate(-142,-214) scale(1,1)"><g><path fill="none" stroke="none"/><text fill="#000000" stroke="none" font-family="Arial" font-size="13px" font-style="normal" font-weight="normal" text-decoration="none" x="341" y="543.5">+type(): MetricType</text></g></g><g transform="translate(-142,-214) scale(1,1)"><g><path fill="none" stroke="none"/><text fill="#000000" stroke="none" font-family="Arial" font-size="13px" font-style="normal" font-weight="normal" text-decoration="none" x="341" y="558.5">+scope(): MetricScope</text></g></g><g transform="translate(-142,-214) scale(1,1)"><g><path fill="none" stroke="none"/><text fill="#000000" stroke="none" font-family="Arial" font-size="13px" font-style="normal" font-weight="normal" text-decoration="none" x="341" y="573.5">+scale(): MetricScale</text></g></g><g transform="translate(-142,-214) scale(1,1)"><g><path fill="none" stroke="none"/><text fill="#000000" stroke="none" font-family="Arial" font-size="13px" font-style="normal" font-weight="normal" text-decoration="none" x="341" y="588.5">+category(): MetricCategory</text></g></g><g transform="translate(-142,-214) scale(1,1)"><g><path fill="none" stroke="none"/><text fill="#000000" stroke="none" font-family="Arial" font-size="13px" font-style="normal" font-weight="normal" text-decoration="none" x="341" y="603.5">+aggregation(): String[*]</text></g></g><g transform="translate(-142,-214) scale(1,1)"><g><path fill="none" stroke="none"/><text fill="#000000" stroke="none" font-family="Arial" font-size="13px" font-style="normal" font-weight="normal" text-decoration="none" x="341" y="618.5">+range(): String</text></g></g><g transform="translate(-142,-214) scale(1,1)"><rect fill="#ffffff" stroke="none" x="152" y="680" width="125.34619140625" height="120"/></g><g transform="translate(-142,-214) scale(1,1)"><path fill="none" stroke="#000000" d="M 152 680 L 277.34619140625 680 L 277.34619140625 800 L 152 800 L 152 680 Z Z" stroke-miterlimit="10"/></g><g transform="translate(-142,-214) scale(1,1)"><path fill="none" stroke="#000000" d="M 152 718 L 277.34619140625 718" stroke-miterlimit="10"/></g><g transform="translate(-142,-214) scale(1,1)"><g><path fill="none" stroke="none"/><text fill="#000000" stroke="none" font-family="Arial" font-size="13px" font-style="normal" font-weight="normal" text-decoration="none" x="171.30908203125" y="697.5">«enumeration»</text></g></g><g transform="translate(-142,-214) scale(1,1)"><g><path fill="none" stroke="none"/><text fill="#000000" stroke="none" font-family="Arial" font-size="13px" font-style="normal" font-weight="bold" text-decoration="none" x="180.719482421875" y="712.5">MetricScale</text></g></g><g transform="translate(-142,-214) scale(1,1)"><g><path fill="none" stroke="none"/><text fill="#000000" stroke="none" font-family="Arial" font-size="13px" font-style="normal" font-weight="normal" text-decoration="none" x="157" y="735.5">Nominal</text></g></g><g transform="translate(-142,-214) scale(1,1)"><g><path fill="none" stroke="none"/><text fill="#000000" stroke="none" font-family="Arial" font-size="13px" font-style="normal" font-weight="normal" text-decoration="none" x="157" y="750.5">Ordinal</text></g></g><g transform="translate(-142,-214) scale(1,1)"><g><path fill="none" stroke="none"/><text fill="#000000" stroke="none" font-family="Arial" font-size="13px" font-style="normal" font-weight="normal" text-decoration="none" x="157" y="765.5">Interval</text></g></g><g transform="translate(-142,-214) scale(1,1)"><g><path fill="none" stroke="none"/><text fill="#000000" stroke="none" font-family="Arial" font-size="13px" font-style="normal" font-weight="normal" text-decoration="none" x="157" y="780.5">Ratio</text></g></g><g transform="translate(-142,-214) scale(1,1)"><g><path fill="none" stroke="none"/><text fill="#000000" stroke="none" font-family="Arial" font-size="13px" font-style="normal" font-weight="normal" text-decoration="none" x="157" y="795.5">Absolute</text></g></g><g transform="translate(-142,-214) scale(1,1)"><path fill="none" stroke="#000000" d="M 384 623 L 384 680" stroke-miterlimit="10" stroke-dasharray="3"/></g><g transform="translate(-142,-214) scale(1,1)"><path fill="none" stroke="#000000" d="M 379.790482243984 669.8373251423759 L 384 680 L 388.209517756016 669.8373251423759" stroke-miterlimit="10"/></g><g transform="translate(-142,-214) scale(1,1)"><path fill="none" stroke="#000000" d="M 360 623 L 360 648 L 216 648 L 216 680" stroke-miterlimit="10" stroke-dasharray="3"/></g><g transform="translate(-142,-214) scale(1,1)"><path fill="none" stroke="#000000" d="M 211.790482243984 669.8373251423759 L 216 680 L 220.209517756016 669.8373251423759" stroke-miterlimit="10"/></g><g transform="translate(-142,-214) scale(1,1)"><path fill="none" stroke="#000000" d="M 456 623 L 456 680" stroke-miterlimit="10" stroke-dasharray="3"/></g><g transform="translate(-142,-214) scale(1,1)"><path fill="none" stroke="#000000" d="M 451.790482243984 669.8373251423759 L 456 680 L 460.209517756016 669.8373251423759" stroke-miterlimit="10"/></g><g transform="translate(-142,-214) scale(1,1)"><path fill="none" stroke="#000000" d="M 480 623 L 480 648 L 624 648 L 624 680" stroke-miterlimit="10" stroke-dasharray="3"/></g><g transform="translate(-142,-214) scale(1,1)"><path fill="none" stroke="#000000" d="M 619.790482243984 669.8373251423759 L 624 680 L 628.209517756016 669.8373251423759" stroke-miterlimit="10"/></g><g transform="translate(-142,-214) scale(1,1)"><rect fill="#ffffff" stroke="none" x="328" y="344" width="184.9189453125" height="105"/></g><g transform="translate(-142,-214) scale(1,1)"><path fill="none" stroke="#000000" d="M 328 344 L 512.9189453125 344 L 512.9189453125 449 L 328 449 L 328 344 Z Z" stroke-miterlimit="10"/></g><g transform="translate(-142,-214) scale(1,1)"><path fill="none" stroke="#000000" d="M 328 382 L 512.9189453125 382" stroke-miterlimit="10"/></g><g transform="translate(-142,-214) scale(1,1)"><g><path fill="none" stroke="none"/><text fill="#000000" stroke="none" font-family="Arial" font-size="13px" font-style="normal" font-weight="normal" text-decoration="none" x="388.299072265625" y="361.5">«interface»</text></g></g><g transform="translate(-142,-214) scale(1,1)"><g><path fill="none" stroke="none"/><text fill="#000000" stroke="none" font-family="Arial" font-size="13px" font-style="normal" font-weight="bold" text-decoration="none" x="375.667236328125" y="376.5">MetricDefinition</text></g></g><g transform="translate(-142,-214) scale(1,1)"><g><path fill="none" stroke="none"/><text fill="#000000" stroke="none" font-family="Arial" font-size="13px" font-style="normal" font-weight="normal" text-decoration="none" x="333" y="399.5">+name(): String</text></g></g><g transform="translate(-142,-214) scale(1,1)"><g><path fill="none" stroke="none"/><text fill="#000000" stroke="none" font-family="Arial" font-size="13px" font-style="normal" font-weight="normal" text-decoration="none" x="333" y="414.5">+description(): String</text></g></g><g transform="translate(-142,-214) scale(1,1)"><g><path fill="none" stroke="none"/><text fill="#000000" stroke="none" font-family="Arial" font-size="13px" font-style="normal" font-weight="normal" text-decoration="none" x="333" y="429.5">+primaryHandle(): String</text></g></g><g transform="translate(-142,-214) scale(1,1)"><g><path fill="none" stroke="none"/><text fill="#000000" stroke="none" font-family="Arial" font-size="13px" font-style="normal" font-weight="normal" text-decoration="none" x="333" y="444.5">+properties(): MetricProperties</text></g></g><g transform="translate(-142,-214) scale(1,1)"><path fill="none" stroke="#000000" d="M 420 449 L 420 488" stroke-miterlimit="10" stroke-dasharray="3"/></g><g transform="translate(-142,-214) scale(1,1)"><path fill="none" stroke="#000000" d="M 415.790482243984 477.83732514237585 L 420 488 L 424.209517756016 477.83732514237585" stroke-miterlimit="10"/></g><g transform="translate(-142,-214) scale(1,1)"><path fill="none" stroke="#000000" d="M 655 396 L 514 396" stroke-miterlimit="10"/></g><g transform="translate(-142,-214) scale(1,1)"><path fill="none" stroke="#000000" d="M 524.1626748576241 391.790482243984 L 514 396 L 524.1626748576241 400.209517756016" stroke-miterlimit="10"/></g><g transform="translate(-142,-214) scale(1,1)"><rect fill="#ffffff" stroke="none" x="568" y="224" width="115.18994140625" height="72"/></g><g transform="translate(-142,-214) scale(1,1)"><path fill="none" stroke="#000000" d="M 568 224 L 683.18994140625 224 L 683.18994140625 296 L 568 296 L 568 224 Z Z" stroke-miterlimit="10"/></g><g transform="translate(-142,-214) scale(1,1)"><path fill="none" stroke="#000000" d="M 568 249 L 683.18994140625 249" stroke-miterlimit="10"/></g><g transform="translate(-142,-214) scale(1,1)"><path fill="none" stroke="#000000" d="M 568 287 L 683.18994140625 287" stroke-miterlimit="10"/></g><g transform="translate(-142,-214) scale(1,1)"><g><path fill="none" stroke="none"/><text fill="#000000" stroke="none" font-family="Arial" font-size="13px" font-style="normal" font-weight="bold" text-decoration="none" x="576.832275390625" y="243.5">MetricRepository</text></g></g><g transform="translate(-142,-214) scale(1,1)"><g><path fill="none" stroke="none"/><text fill="#000000" stroke="none" font-family="Arial" font-size="13px" font-style="normal" font-weight="normal" text-decoration="none" x="573" y="266.5">-repoKey: String</text></g></g><g transform="translate(-142,-214) scale(1,1)"><g><path fill="none" stroke="none"/><text fill="#000000" stroke="none" font-family="Arial" font-size="13px" font-style="normal" font-weight="normal" text-decoration="none" x="573" y="281.5">-name: String</text></g></g><g transform="translate(-142,-214) scale(1,1)"><path fill="none" stroke="#000000" d="M 752 353 L 752 311" stroke-miterlimit="10" stroke-dasharray="3"/></g><g transform="translate(-142,-214) scale(1,1)"><path fill="none" stroke="#000000" d="M 756.209517756016 321.16267485762415 L 752 311 L 747.790482243984 321.16267485762415" stroke-miterlimit="10"/></g><g transform="translate(-142,-214) scale(1,1)"><path fill="none" stroke="#000000" d="M 664 353 L 664 296" stroke-miterlimit="10" stroke-dasharray="3"/></g><g transform="translate(-142,-214) scale(1,1)"><path fill="none" stroke="#000000" d="M 668.209517756016 306.16267485762415 L 664 296 L 659.790482243984 306.16267485762415" stroke-miterlimit="10"/></g><g transform="translate(-142,-214) scale(1,1)"><path fill="none" stroke="#000000" d="M 960 353 L 960 296" stroke-miterlimit="10" stroke-dasharray="3"/></g><g transform="translate(-142,-214) scale(1,1)"><path fill="none" stroke="#000000" d="M 964.209517756016 306.16267485762415 L 960 296 L 955.790482243984 306.16267485762415" stroke-miterlimit="10"/></g></g></svg>