<svg version="1.1" xmlns="http://www.w3.org/2000/svg" xmlns:xlink="http://www.w3.org/1999/xlink" width="597" height="532"><defs/><g><g transform="translate(-158,-158) scale(1,1)"><rect fill="#ffffff" stroke="none" x="504" y="168" width="100.025390625" height="48"/></g><g transform="translate(-158,-158) scale(1,1)"><path fill="none" stroke="#000000" d="M 504 168 L 604.025390625 168 L 604.025390625 216 L 504 216 L 504 168 Z Z" stroke-miterlimit="10"/></g><g transform="translate(-158,-158) scale(1,1)"><g><path fill="none" stroke="none"/><text fill="#000000" stroke="none" font-family="Arial" font-size="13px" font-style="normal" font-weight="normal" text-decoration="none" x="521.852294921875" y="185.5">«interface»</text></g></g><g transform="translate(-158,-158) scale(1,1)"><g><path fill="none" stroke="none"/><text fill="#000000" stroke="none" font-family="Arial" font-size="13px" font-style="normal" font-weight="bold" text-decoration="none" x="512.102294921875" y="200.5">SourceInjector</text></g></g><g transform="translate(-158,-158) scale(1,1)"><rect fill="#ffffff" stroke="none" x="376" y="264" width="94" height="44"/></g><g transform="translate(-158,-158) scale(1,1)"><path fill="none" stroke="#000000" d="M 376 264 L 470 264 L 470 308 L 376 308 L 376 264 Z Z" stroke-miterlimit="10"/></g><g transform="translate(-158,-158) scale(1,1)"><path fill="none" stroke="#000000" d="M 376 289 L 470 289" stroke-miterlimit="10"/></g><g transform="translate(-158,-158) scale(1,1)"><path fill="none" stroke="#000000" d="M 376 299 L 470 299" stroke-miterlimit="10"/></g><g transform="translate(-158,-158) scale(1,1)"><g><path fill="none" stroke="none"/><text fill="#000000" stroke="none" font-family="Arial" font-size="13px" font-style="italic" font-weight="bold" text-decoration="none" x="383.990478515625" y="283.5">GrimeInjector</text></g></g><g transform="translate(-158,-158) scale(1,1)"><rect fill="#ffffff" stroke="none" x="184" y="352" width="128.21533203125" height="44"/></g><g transform="translate(-158,-158) scale(1,1)"><path fill="none" stroke="#000000" d="M 184 352 L 312.21533203125 352 L 312.21533203125 396 L 184 396 L 184 352 Z Z" stroke-miterlimit="10"/></g><g transform="translate(-158,-158) scale(1,1)"><path fill="none" stroke="#000000" d="M 184 377 L 312.21533203125 377" stroke-miterlimit="10"/></g><g transform="translate(-158,-158) scale(1,1)"><path fill="none" stroke="#000000" d="M 184 387 L 312.21533203125 387" stroke-miterlimit="10"/></g><g transform="translate(-158,-158) scale(1,1)"><g><path fill="none" stroke="none"/><text fill="#000000" stroke="none" font-family="Arial" font-size="13px" font-style="normal" font-weight="bold" text-decoration="none" x="192.844970703125" y="371.5">ClassGrimeInjector</text></g></g><g transform="translate(-158,-158) scale(1,1)"><rect fill="#ffffff" stroke="none" x="632" y="448" width="96" height="47"/></g><g transform="translate(-158,-158) scale(1,1)"><path fill="none" stroke="#000000" d="M 632 448 L 728 448 L 728 495 L 632 495 L 632 448 Z Z" stroke-miterlimit="10"/></g><g transform="translate(-158,-158) scale(1,1)"><path fill="none" stroke="#000000" d="M 632 486 L 728 486" stroke-miterlimit="10"/></g><g transform="translate(-158,-158) scale(1,1)"><g><path fill="none" stroke="none"/><text fill="#000000" stroke="none" font-family="Arial" font-size="13px" font-style="normal" font-weight="normal" text-decoration="none" x="636.635986328125" y="465.5">«enumeration»</text></g></g><g transform="translate(-158,-158) scale(1,1)"><g><path fill="none" stroke="none"/><text fill="#000000" stroke="none" font-family="Arial" font-size="13px" font-style="normal" font-weight="bold" text-decoration="none" x="642.06005859375" y="480.5">RelationType</text></g></g><g transform="translate(-158,-158) scale(1,1)"><rect fill="#ffffff" stroke="none" x="640" y="264" width="81" height="44"/></g><g transform="translate(-158,-158) scale(1,1)"><path fill="none" stroke="#000000" d="M 640 264 L 721 264 L 721 308 L 640 308 L 640 264 Z Z" stroke-miterlimit="10"/></g><g transform="translate(-158,-158) scale(1,1)"><path fill="none" stroke="#000000" d="M 640 289 L 721 289" stroke-miterlimit="10"/></g><g transform="translate(-158,-158) scale(1,1)"><path fill="none" stroke="#000000" d="M 640 299 L 721 299" stroke-miterlimit="10"/></g><g transform="translate(-158,-158) scale(1,1)"><g><path fill="none" stroke="none"/><text fill="#000000" stroke="none" font-family="Arial" font-size="13px" font-style="normal" font-weight="bold" text-decoration="none" x="647.9873046875" y="283.5">NullInjector</text></g></g><g transform="translate(-158,-158) scale(1,1)"><rect fill="#ffffff" stroke="none" x="360" y="352" width="117" height="44"/></g><g transform="translate(-158,-158) scale(1,1)"><path fill="none" stroke="#000000" d="M 360 352 L 477 352 L 477 396 L 360 396 L 360 352 Z Z" stroke-miterlimit="10"/></g><g transform="translate(-158,-158) scale(1,1)"><path fill="none" stroke="#000000" d="M 360 377 L 477 377" stroke-miterlimit="10"/></g><g transform="translate(-158,-158) scale(1,1)"><path fill="none" stroke="#000000" d="M 360 387 L 477 387" stroke-miterlimit="10"/></g><g transform="translate(-158,-158) scale(1,1)"><g><path fill="none" stroke="none"/><text fill="#000000" stroke="none" font-family="Arial" font-size="13px" font-style="italic" font-weight="bold" text-decoration="none" x="368.655029296875" y="371.5">OrgGrimeInjector</text></g></g><g transform="translate(-158,-158) scale(1,1)"><rect fill="#ffffff" stroke="none" x="520" y="352" width="145" height="44"/></g><g transform="translate(-158,-158) scale(1,1)"><path fill="none" stroke="#000000" d="M 520 352 L 665 352 L 665 396 L 520 396 L 520 352 Z Z" stroke-miterlimit="10"/></g><g transform="translate(-158,-158) scale(1,1)"><path fill="none" stroke="#000000" d="M 520 377 L 665 377" stroke-miterlimit="10"/></g><g transform="translate(-158,-158) scale(1,1)"><path fill="none" stroke="#000000" d="M 520 387 L 665 387" stroke-miterlimit="10"/></g><g transform="translate(-158,-158) scale(1,1)"><g><path fill="none" stroke="none"/><text fill="#000000" stroke="none" font-family="Arial" font-size="13px" font-style="normal" font-weight="bold" text-decoration="none" x="530.00732421875" y="371.5">ModularGrimeInjector</text></g></g><g transform="translate(-158,-158) scale(1,1)"><path fill="none" stroke="#000000" d="M 424 264 L 424 248 L 529 248 L 529 216" stroke-miterlimit="10" stroke-dasharray="3"/></g><g transform="translate(-158,-158) scale(1,1)"><path fill="#FFFFFF" stroke="none" d="M 537.419035512032 236.3253497152483 L 529 216 L 520.580964487968 236.3253497152483"/></g><g transform="translate(-158,-158) scale(1,1)"><path fill="none" stroke="#000000" d="M 537.419035512032 236.3253497152483 L 529 216 L 520.580964487968 236.3253497152483 L 537.419035512032 236.3253497152483" stroke-miterlimit="10"/></g><g transform="translate(-158,-158) scale(1,1)"><path fill="none" stroke="#000000" d="M 680 264 L 680 248 L 578 248 L 578 216" stroke-miterlimit="10" stroke-dasharray="3"/></g><g transform="translate(-158,-158) scale(1,1)"><path fill="#FFFFFF" stroke="none" d="M 586.419035512032 236.3253497152483 L 578 216 L 569.580964487968 236.3253497152483"/></g><g transform="translate(-158,-158) scale(1,1)"><path fill="none" stroke="#000000" d="M 586.419035512032 236.3253497152483 L 578 216 L 569.580964487968 236.3253497152483 L 586.419035512032 236.3253497152483" stroke-miterlimit="10"/></g><g transform="translate(-158,-158) scale(1,1)"><path fill="none" stroke="#000000" d="M 416 352 L 416 308" stroke-miterlimit="10"/></g><g transform="translate(-158,-158) scale(1,1)"><path fill="#FFFFFF" stroke="none" d="M 424.419035512032 328.3253497152483 L 416 308 L 407.580964487968 328.3253497152483"/></g><g transform="translate(-158,-158) scale(1,1)"><path fill="none" stroke="#000000" d="M 424.419035512032 328.3253497152483 L 416 308 L 407.580964487968 328.3253497152483 L 424.419035512032 328.3253497152483" stroke-miterlimit="10"/></g><g transform="translate(-158,-158) scale(1,1)"><path fill="none" stroke="#000000" d="M 248 352 L 248 336 L 416 336 L 416 308" stroke-miterlimit="10"/></g><g transform="translate(-158,-158) scale(1,1)"><path fill="#FFFFFF" stroke="none" d="M 424.419035512032 328.3253497152483 L 416 308 L 407.580964487968 328.3253497152483"/></g><g transform="translate(-158,-158) scale(1,1)"><path fill="none" stroke="#000000" d="M 424.419035512032 328.3253497152483 L 416 308 L 407.580964487968 328.3253497152483 L 424.419035512032 328.3253497152483" stroke-miterlimit="10"/></g><g transform="translate(-158,-158) scale(1,1)"><path fill="none" stroke="#000000" d="M 592 352 L 592 336 L 416 336 L 416 308" stroke-miterlimit="10"/></g><g transform="translate(-158,-158) scale(1,1)"><path fill="#FFFFFF" stroke="none" d="M 424.419035512032 328.3253497152483 L 416 308 L 407.580964487968 328.3253497152483"/></g><g transform="translate(-158,-158) scale(1,1)"><path fill="none" stroke="#000000" d="M 424.419035512032 328.3253497152483 L 416 308 L 407.580964487968 328.3253497152483 L 424.419035512032 328.3253497152483" stroke-miterlimit="10"/></g><g transform="translate(-158,-158) scale(1,1)"><path fill="none" stroke="#000000" d="M 665 384 L 688 384 L 688 448" stroke-miterlimit="10" stroke-dasharray="3"/></g><g transform="translate(-158,-158) scale(1,1)"><path fill="none" stroke="#000000" d="M 683.790482243984 437.83732514237585 L 688 448 L 692.209517756016 437.83732514237585" stroke-miterlimit="10"/></g><g transform="translate(-158,-158) scale(1,1)"><rect fill="#ffffff" stroke="none" x="344" y="544" width="140.4853515625" height="44"/></g><g transform="translate(-158,-158) scale(1,1)"><path fill="none" stroke="#000000" d="M 344 544 L 484.4853515625 544 L 484.4853515625 588 L 344 588 L 344 544 Z Z" stroke-miterlimit="10"/></g><g transform="translate(-158,-158) scale(1,1)"><path fill="none" stroke="#000000" d="M 344 569 L 484.4853515625 569" stroke-miterlimit="10"/></g><g transform="translate(-158,-158) scale(1,1)"><path fill="none" stroke="#000000" d="M 344 579 L 484.4853515625 579" stroke-miterlimit="10"/></g><g transform="translate(-158,-158) scale(1,1)"><g><path fill="none" stroke="none"/><text fill="#000000" stroke="none" font-family="Arial" font-size="13px" font-style="normal" font-weight="bold" text-decoration="none" x="353.562255859375" y="563.5">GrimeInjectorFactory</text></g></g><g transform="translate(-158,-158) scale(1,1)"><path fill="none" stroke="#000000" d="M 344 560 L 224 560 L 224 396" stroke-miterlimit="10" stroke-dasharray="3"/></g><g transform="translate(-158,-158) scale(1,1)"><path fill="none" stroke="#000000" d="M 228.209517756016 406.16267485762415 L 224 396 L 219.790482243984 406.16267485762415" stroke-miterlimit="10"/></g><g transform="translate(-158,-158) scale(1,1)"><rect fill="#ffffff" stroke="none" x="424" y="448" width="168" height="44"/></g><g transform="translate(-158,-158) scale(1,1)"><path fill="none" stroke="#000000" d="M 424 448 L 592 448 L 592 492 L 424 492 L 424 448 Z Z" stroke-miterlimit="10"/></g><g transform="translate(-158,-158) scale(1,1)"><path fill="none" stroke="#000000" d="M 424 473 L 592 473" stroke-miterlimit="10"/></g><g transform="translate(-158,-158) scale(1,1)"><path fill="none" stroke="#000000" d="M 424 483 L 592 483" stroke-miterlimit="10"/></g><g transform="translate(-158,-158) scale(1,1)"><g><path fill="none" stroke="none"/><text fill="#000000" stroke="none" font-family="Arial" font-size="13px" font-style="normal" font-weight="bold" text-decoration="none" x="434.671875" y="467.5">ModularOrgGrimeInjector</text></g></g><g transform="translate(-158,-158) scale(1,1)"><rect fill="#ffffff" stroke="none" x="240" y="448" width="169.39892578125" height="44"/></g><g transform="translate(-158,-158) scale(1,1)"><path fill="none" stroke="#000000" d="M 240 448 L 409.39892578125 448 L 409.39892578125 492 L 240 492 L 240 448 Z Z" stroke-miterlimit="10"/></g><g transform="translate(-158,-158) scale(1,1)"><path fill="none" stroke="#000000" d="M 240 473 L 409.39892578125 473" stroke-miterlimit="10"/></g><g transform="translate(-158,-158) scale(1,1)"><path fill="none" stroke="#000000" d="M 240 483 L 409.39892578125 483" stroke-miterlimit="10"/></g><g transform="translate(-158,-158) scale(1,1)"><g><path fill="none" stroke="none"/><text fill="#000000" stroke="none" font-family="Arial" font-size="13px" font-style="normal" font-weight="bold" text-decoration="none" x="249.55908203125" y="467.5">PackageOrgGrimeInjector</text></g></g><g transform="translate(-158,-158) scale(1,1)"><path fill="none" stroke="#000000" d="M 592 471 L 632 471" stroke-miterlimit="10" stroke-dasharray="3"/></g><g transform="translate(-158,-158) scale(1,1)"><path fill="none" stroke="#000000" d="M 621.8373251423759 475.209517756016 L 632 471 L 621.8373251423758 466.790482243984" stroke-miterlimit="10"/></g><g transform="translate(-158,-158) scale(1,1)"><path fill="none" stroke="#000000" d="M 376 544 L 376 492" stroke-miterlimit="10" stroke-dasharray="3"/></g><g transform="translate(-158,-158) scale(1,1)"><path fill="none" stroke="#000000" d="M 380.209517756016 502.16267485762415 L 376 492 L 371.790482243984 502.16267485762415" stroke-miterlimit="10"/></g><g transform="translate(-158,-158) scale(1,1)"><path fill="none" stroke="#000000" d="M 456 544 L 456 492" stroke-miterlimit="10" stroke-dasharray="3"/></g><g transform="translate(-158,-158) scale(1,1)"><path fill="none" stroke="#000000" d="M 460.209517756016 502.16267485762415 L 456 492 L 451.790482243984 502.16267485762415" stroke-miterlimit="10"/></g><g transform="translate(-158,-158) scale(1,1)"><path fill="none" stroke="#000000" d="M 484 568 L 744 568 L 744 368 L 665 368" stroke-miterlimit="10" stroke-dasharray="3"/></g><g transform="translate(-158,-158) scale(1,1)"><path fill="none" stroke="#000000" d="M 675.1626748576241 363.790482243984 L 665 368 L 675.1626748576241 372.209517756016" stroke-miterlimit="10"/></g><g transform="translate(-158,-158) scale(1,1)"><rect fill="#ffffff" stroke="none" x="360" y="632" width="107" height="48"/></g><g transform="translate(-158,-158) scale(1,1)"><path fill="none" stroke="#000000" d="M 360 632 L 467 632 L 467 680 L 360 680 L 360 632 Z Z" stroke-miterlimit="10"/></g><g transform="translate(-158,-158) scale(1,1)"><g><path fill="none" stroke="none"/><text fill="#000000" stroke="none" font-family="Arial" font-size="13px" font-style="normal" font-weight="normal" text-decoration="none" x="381.339599609375" y="649.5">«interface»</text></g></g><g transform="translate(-158,-158) scale(1,1)"><g><path fill="none" stroke="none"/><text fill="#000000" stroke="none" font-family="Arial" font-size="13px" font-style="normal" font-weight="bold" text-decoration="none" x="367.628662109375" y="664.5">OrgGrimeTypes</text></g></g><g transform="translate(-158,-158) scale(1,1)"><rect fill="#ffffff" stroke="none" x="520" y="632" width="135" height="48"/></g><g transform="translate(-158,-158) scale(1,1)"><path fill="none" stroke="#000000" d="M 520 632 L 655 632 L 655 680 L 520 680 L 520 632 Z Z" stroke-miterlimit="10"/></g><g transform="translate(-158,-158) scale(1,1)"><g><path fill="none" stroke="none"/><text fill="#000000" stroke="none" font-family="Arial" font-size="13px" font-style="normal" font-weight="normal" text-decoration="none" x="555.339599609375" y="649.5">«interface»</text></g></g><g transform="translate(-158,-158) scale(1,1)"><g><path fill="none" stroke="none"/><text fill="#000000" stroke="none" font-family="Arial" font-size="13px" font-style="normal" font-weight="bold" text-decoration="none" x="528.98095703125" y="664.5">ModularGrimeTypes</text></g></g><g transform="translate(-158,-158) scale(1,1)"><rect fill="#ffffff" stroke="none" x="192" y="632" width="118" height="48"/></g><g transform="translate(-158,-158) scale(1,1)"><path fill="none" stroke="#000000" d="M 192 632 L 310 632 L 310 680 L 192 680 L 192 632 Z Z" stroke-miterlimit="10"/></g><g transform="translate(-158,-158) scale(1,1)"><g><path fill="none" stroke="none"/><text fill="#000000" stroke="none" font-family="Arial" font-size="13px" font-style="normal" font-weight="normal" text-decoration="none" x="218.839599609375" y="649.5">«interface»</text></g></g><g transform="translate(-158,-158) scale(1,1)"><g><path fill="none" stroke="none"/><text fill="#000000" stroke="none" font-family="Arial" font-size="13px" font-style="normal" font-weight="bold" text-decoration="none" x="199.7109375" y="664.5">ClassGrimeTypes</text></g></g><g transform="translate(-158,-158) scale(1,1)"><path fill="none" stroke="#000000" d="M 374 588 L 374 608 L 248 608 L 248 632" stroke-miterlimit="10" stroke-dasharray="3"/></g><g transform="translate(-158,-158) scale(1,1)"><path fill="none" stroke="#000000" d="M 243.790482243984 621.8373251423759 L 248 632 L 252.209517756016 621.8373251423759" stroke-miterlimit="10"/></g><g transform="translate(-158,-158) scale(1,1)"><path fill="none" stroke="#000000" d="M 414 588 L 414 632" stroke-miterlimit="10" stroke-dasharray="3"/></g><g transform="translate(-158,-158) scale(1,1)"><path fill="none" stroke="#000000" d="M 409.790482243984 621.8373251423759 L 414 632 L 418.209517756016 621.8373251423759" stroke-miterlimit="10"/></g><g transform="translate(-158,-158) scale(1,1)"><path fill="none" stroke="#000000" d="M 456 588 L 456 608 L 592 608 L 592 632" stroke-miterlimit="10" stroke-dasharray="3"/></g><g transform="translate(-158,-158) scale(1,1)"><path fill="none" stroke="#000000" d="M 587.790482243984 621.8373251423759 L 592 632 L 596.209517756016 621.8373251423759" stroke-miterlimit="10"/></g><g transform="translate(-158,-158) scale(1,1)"><path fill="none" stroke="#000000" d="M 320 448 L 320 432 L 416 432 L 416 396" stroke-miterlimit="10"/></g><g transform="translate(-158,-158) scale(1,1)"><path fill="#FFFFFF" stroke="none" d="M 424.419035512032 416.3253497152483 L 416 396 L 407.580964487968 416.3253497152483"/></g><g transform="translate(-158,-158) scale(1,1)"><path fill="none" stroke="#000000" d="M 424.419035512032 416.3253497152483 L 416 396 L 407.580964487968 416.3253497152483 L 424.419035512032 416.3253497152483" stroke-miterlimit="10"/></g><g transform="translate(-158,-158) scale(1,1)"><path fill="none" stroke="#000000" d="M 504 448 L 504 432 L 416 432 L 416 396" stroke-miterlimit="10"/></g><g transform="translate(-158,-158) scale(1,1)"><path fill="#FFFFFF" stroke="none" d="M 424.419035512032 416.3253497152483 L 416 396 L 407.580964487968 416.3253497152483"/></g><g transform="translate(-158,-158) scale(1,1)"><path fill="none" stroke="#000000" d="M 424.419035512032 416.3253497152483 L 416 396 L 407.580964487968 416.3253497152483 L 424.419035512032 416.3253497152483" stroke-miterlimit="10"/></g><g transform="translate(-158,-158) scale(1,1)"><rect fill="#ffffff" stroke="none" x="272" y="168" width="125" height="44"/></g><g transform="translate(-158,-158) scale(1,1)"><path fill="none" stroke="#000000" d="M 272 168 L 397 168 L 397 212 L 272 212 L 272 168 Z Z" stroke-miterlimit="10"/></g><g transform="translate(-158,-158) scale(1,1)"><path fill="none" stroke="#000000" d="M 272 193 L 397 193" stroke-miterlimit="10"/></g><g transform="translate(-158,-158) scale(1,1)"><path fill="none" stroke="#000000" d="M 272 203 L 397 203" stroke-miterlimit="10"/></g><g transform="translate(-158,-158) scale(1,1)"><g><path fill="none" stroke="none"/><text fill="#000000" stroke="none" font-family="Arial" font-size="13px" font-style="normal" font-weight="bold" text-decoration="none" x="282.11279296875" y="187.5">InjectionController</text></g></g><g transform="translate(-158,-158) scale(1,1)"><path fill="none" stroke="#000000" d="M 397 192 L 504 192" stroke-miterlimit="10"/></g><g transform="translate(-158,-158) scale(1,1)"><path fill="none" stroke="#000000" d="M 493.83732514237585 196.209517756016 L 504 192 L 493.83732514237585 187.790482243984" stroke-miterlimit="10"/></g><g transform="translate(-158,-158) scale(1,1)"><path fill="none" stroke="#000000" d="M 272 192 L 168 192 L 168 576 L 344 576" stroke-miterlimit="10" stroke-dasharray="3"/></g><g transform="translate(-158,-158) scale(1,1)"><path fill="none" stroke="#000000" d="M 333.83732514237585 580.209517756016 L 344 576 L 333.83732514237585 571.790482243984" stroke-miterlimit="10"/></g></g></svg>