<svg version="1.1" xmlns="http://www.w3.org/2000/svg" xmlns:xlink="http://www.w3.org/1999/xlink" width="719" height="548"><defs/><g><g transform="translate(-262,-414) scale(1,1)"><rect fill="#ffffff" stroke="none" x="626" y="592" width="110" height="72"/></g><g transform="translate(-262,-414) scale(1,1)"><path fill="none" stroke="#000000" d="M 626 592 L 736 592 L 736 664 L 626 664 L 626 592 Z Z" stroke-miterlimit="10"/></g><g transform="translate(-262,-414) scale(1,1)"><path fill="none" stroke="#000000" d="M 626 617 L 736 617" stroke-miterlimit="10"/></g><g transform="translate(-262,-414) scale(1,1)"><path fill="none" stroke="#000000" d="M 626 640 L 736 640" stroke-miterlimit="10"/></g><g transform="translate(-262,-414) scale(1,1)"><g><path fill="none" stroke="none"/><text fill="#000000" stroke="none" font-family="Arial" font-size="13px" font-style="normal" font-weight="bold" text-decoration="none" x="651.010498046875" y="611.5">Reference</text></g></g><g transform="translate(-262,-414) scale(1,1)"><g><path fill="none" stroke="none"/><text fill="#000000" stroke="none" font-family="Arial" font-size="13px" font-style="normal" font-weight="normal" text-decoration="none" x="631" y="634.5">-refKey: String</text></g></g><g transform="translate(-262,-414) scale(1,1)"><path fill="none" stroke="#000000" d="M 548 616 L 626 616" stroke-miterlimit="10"/></g><g transform="translate(-262,-414) scale(1,1)"><path fill="none" stroke="#000000" d="M 615.8373251423759 620.209517756016 L 626 616 L 615.8373251423758 611.790482243984" stroke-miterlimit="10"/></g><g transform="translate(-262,-414) scale(1,1)"><g><path fill="none" stroke="none"/><text fill="#000000" stroke="none" font-family="Arial" font-size="13px" font-style="normal" font-weight="normal" text-decoration="none" x="599.25" y="636.5">-ref</text></g></g><g transform="translate(-262,-414) scale(1,1)"><g><path fill="none" stroke="none"/><text fill="#000000" stroke="none" font-family="Arial" font-size="13px" font-style="normal" font-weight="normal" text-decoration="none" x="614.385009765625" y="610.5">1</text></g></g><g transform="translate(-262,-414) scale(1,1)"><rect fill="#ffffff" stroke="none" x="428" y="592" width="120" height="57"/></g><g transform="translate(-262,-414) scale(1,1)"><path fill="none" stroke="#000000" d="M 428 592 L 548 592 L 548 649 L 428 649 L 428 592 Z Z" stroke-miterlimit="10"/></g><g transform="translate(-262,-414) scale(1,1)"><path fill="none" stroke="#000000" d="M 428 617 L 548 617" stroke-miterlimit="10"/></g><g transform="translate(-262,-414) scale(1,1)"><path fill="none" stroke="#000000" d="M 428 640 L 548 640" stroke-miterlimit="10"/></g><g transform="translate(-262,-414) scale(1,1)"><g><path fill="none" stroke="none"/><text fill="#000000" stroke="none" font-family="Arial" font-size="13px" font-style="normal" font-weight="bold" text-decoration="none" x="466.681396484375" y="611.5">Finding</text></g></g><g transform="translate(-262,-414) scale(1,1)"><g><path fill="none" stroke="none"/><text fill="#000000" stroke="none" font-family="Arial" font-size="13px" font-style="normal" font-weight="normal" text-decoration="none" x="433" y="634.5">-findingKey: String</text></g></g><g transform="translate(-262,-414) scale(1,1)"><path fill="none" stroke="#000000" d="M 488 649 L 488 728" stroke-miterlimit="10"/></g><g transform="translate(-262,-414) scale(1,1)"><path fill="#FFFFFF" stroke="none" d="M 483.790482243984 717.8373251423759 L 488 728 L 492.209517756016 717.8373251423759 L 488 706"/></g><g transform="translate(-262,-414) scale(1,1)"><path fill="none" stroke="#000000" d="M 483.790482243984 717.8373251423759 L 488 728 L 492.209517756016 717.8373251423759 L 488 706 L 483.790482243984 717.8373251423759" stroke-miterlimit="10"/></g><g transform="translate(-262,-414) scale(1,1)"><g><path fill="none" stroke="none"/><text fill="#000000" stroke="none" font-family="Arial" font-size="13px" font-style="normal" font-weight="normal" text-decoration="none" x="433.431396484375" y="676.5">-findings</text></g></g><g transform="translate(-262,-414) scale(1,1)"><g><path fill="none" stroke="none"/><text fill="#000000" stroke="none" font-family="Arial" font-size="13px" font-style="normal" font-weight="normal" text-decoration="none" x="474.220458984375" y="668.5">*</text></g></g><g transform="translate(-262,-414) scale(1,1)"><g><path fill="none" stroke="none"/><text fill="#000000" stroke="none" font-family="Arial" font-size="13px" font-style="normal" font-weight="normal" text-decoration="none" x="447.996826171875" y="724.5">-rule</text></g></g><g transform="translate(-262,-414) scale(1,1)"><g><path fill="none" stroke="none"/><text fill="#000000" stroke="none" font-family="Arial" font-size="13px" font-style="normal" font-weight="normal" text-decoration="none" x="505.5" y="725.5">1</text></g></g><g transform="translate(-262,-414) scale(1,1)"><rect fill="#ffffff" stroke="none" x="428" y="728" width="122" height="87"/></g><g transform="translate(-262,-414) scale(1,1)"><path fill="none" stroke="#000000" d="M 428 728 L 550 728 L 550 815 L 428 815 L 428 728 Z Z" stroke-miterlimit="10"/></g><g transform="translate(-262,-414) scale(1,1)"><path fill="none" stroke="#000000" d="M 428 753 L 550 753" stroke-miterlimit="10"/></g><g transform="translate(-262,-414) scale(1,1)"><path fill="none" stroke="#000000" d="M 428 806 L 550 806" stroke-miterlimit="10"/></g><g transform="translate(-262,-414) scale(1,1)"><g><path fill="none" stroke="none"/><text fill="#000000" stroke="none" font-family="Arial" font-size="13px" font-style="normal" font-weight="bold" text-decoration="none" x="475.6318359375" y="747.5">Rule</text></g></g><g transform="translate(-262,-414) scale(1,1)"><g><path fill="none" stroke="none"/><text fill="#000000" stroke="none" font-family="Arial" font-size="13px" font-style="normal" font-weight="normal" text-decoration="none" x="433" y="770.5">-ruleKey: String</text></g></g><g transform="translate(-262,-414) scale(1,1)"><g><path fill="none" stroke="none"/><text fill="#000000" stroke="none" font-family="Arial" font-size="13px" font-style="normal" font-weight="normal" text-decoration="none" x="433" y="785.5">-name: String</text></g></g><g transform="translate(-262,-414) scale(1,1)"><g><path fill="none" stroke="none"/><text fill="#000000" stroke="none" font-family="Arial" font-size="13px" font-style="normal" font-weight="normal" text-decoration="none" x="433" y="800.5">-description: String</text></g></g><g transform="translate(-262,-414) scale(1,1)"><rect fill="#ffffff" stroke="none" x="272" y="592" width="124" height="120"/></g><g transform="translate(-262,-414) scale(1,1)"><path fill="none" stroke="#000000" d="M 272 592 L 396 592 L 396 712 L 272 712 L 272 592 Z Z" stroke-miterlimit="10"/></g><g transform="translate(-262,-414) scale(1,1)"><path fill="none" stroke="#000000" d="M 272 630 L 396 630" stroke-miterlimit="10"/></g><g transform="translate(-262,-414) scale(1,1)"><g><path fill="none" stroke="none"/><text fill="#000000" stroke="none" font-family="Arial" font-size="13px" font-style="normal" font-weight="normal" text-decoration="none" x="290.635986328125" y="609.5">«enumeration»</text></g></g><g transform="translate(-262,-414) scale(1,1)"><g><path fill="none" stroke="none"/><text fill="#000000" stroke="none" font-family="Arial" font-size="13px" font-style="normal" font-weight="bold" text-decoration="none" x="313.7763671875" y="624.5">Priority</text></g></g><g transform="translate(-262,-414) scale(1,1)"><g><path fill="none" stroke="none"/><text fill="#000000" stroke="none" font-family="Arial" font-size="13px" font-style="normal" font-weight="normal" text-decoration="none" x="277" y="647.5">VERY_HIGH</text></g></g><g transform="translate(-262,-414) scale(1,1)"><g><path fill="none" stroke="none"/><text fill="#000000" stroke="none" font-family="Arial" font-size="13px" font-style="normal" font-weight="normal" text-decoration="none" x="277" y="662.5">HIGH</text></g></g><g transform="translate(-262,-414) scale(1,1)"><g><path fill="none" stroke="none"/><text fill="#000000" stroke="none" font-family="Arial" font-size="13px" font-style="normal" font-weight="normal" text-decoration="none" x="277" y="677.5">MODERATE</text></g></g><g transform="translate(-262,-414) scale(1,1)"><g><path fill="none" stroke="none"/><text fill="#000000" stroke="none" font-family="Arial" font-size="13px" font-style="normal" font-weight="normal" text-decoration="none" x="277" y="692.5">LOW</text></g></g><g transform="translate(-262,-414) scale(1,1)"><g><path fill="none" stroke="none"/><text fill="#000000" stroke="none" font-family="Arial" font-size="13px" font-style="normal" font-weight="normal" text-decoration="none" x="277" y="707.5">VERY_LOW</text></g></g><g transform="translate(-262,-414) scale(1,1)"><path fill="none" stroke="#000000" d="M 428 752 L 336 752 L 336 712" stroke-miterlimit="10"/></g><g transform="translate(-262,-414) scale(1,1)"><path fill="none" stroke="#000000" d="M 340.209517756016 722.1626748576241 L 336 712 L 331.790482243984 722.1626748576241" stroke-miterlimit="10"/></g><g transform="translate(-262,-414) scale(1,1)"><g><path fill="none" stroke="none"/><text fill="#000000" stroke="none" font-family="Arial" font-size="13px" font-style="normal" font-weight="normal" text-decoration="none" x="416.5" y="745.5">1</text></g></g><g transform="translate(-262,-414) scale(1,1)"><g><path fill="none" stroke="none"/><text fill="#000000" stroke="none" font-family="Arial" font-size="13px" font-style="normal" font-weight="normal" text-decoration="none" x="288.332275390625" y="728.5">-priority</text></g></g><g transform="translate(-262,-414) scale(1,1)"><g><path fill="none" stroke="none"/><text fill="#000000" stroke="none" font-family="Arial" font-size="13px" font-style="normal" font-weight="normal" text-decoration="none" x="340.385009765625" y="728.5">1</text></g></g><g transform="translate(-262,-414) scale(1,1)"><path fill="none" stroke="#000000" d="M 488 815 L 488 880" stroke-miterlimit="10"/></g><g transform="translate(-262,-414) scale(1,1)"><path fill="#000000" stroke="none" d="M 483.790482243984 869.8373251423759 L 488 880 L 492.209517756016 869.8373251423759 L 488 858"/></g><g transform="translate(-262,-414) scale(1,1)"><path fill="none" stroke="#000000" d="M 483.790482243984 869.8373251423759 L 488 880 L 492.209517756016 869.8373251423759 L 488 858 L 483.790482243984 869.8373251423759" stroke-miterlimit="10"/></g><g transform="translate(-262,-414) scale(1,1)"><g><path fill="none" stroke="none"/><text fill="#000000" stroke="none" font-family="Arial" font-size="13px" font-style="normal" font-weight="normal" text-decoration="none" x="495.246826171875" y="828.5">-rules</text></g></g><g transform="translate(-262,-414) scale(1,1)"><g><path fill="none" stroke="none"/><text fill="#000000" stroke="none" font-family="Arial" font-size="13px" font-style="normal" font-weight="normal" text-decoration="none" x="473.220458984375" y="836.5">*</text></g></g><g transform="translate(-262,-414) scale(1,1)"><g><path fill="none" stroke="none"/><text fill="#000000" stroke="none" font-family="Arial" font-size="13px" font-style="normal" font-weight="normal" text-decoration="none" x="416.29638671875" y="876.5">-repository</text></g></g><g transform="translate(-262,-414) scale(1,1)"><g><path fill="none" stroke="none"/><text fill="#000000" stroke="none" font-family="Arial" font-size="13px" font-style="normal" font-weight="normal" text-decoration="none" x="495.5" y="876.5">1</text></g></g><g transform="translate(-262,-414) scale(1,1)"><rect fill="#ffffff" stroke="none" x="440" y="880" width="107" height="72"/></g><g transform="translate(-262,-414) scale(1,1)"><path fill="none" stroke="#000000" d="M 440 880 L 547 880 L 547 952 L 440 952 L 440 880 Z Z" stroke-miterlimit="10"/></g><g transform="translate(-262,-414) scale(1,1)"><path fill="none" stroke="#000000" d="M 440 905 L 547 905" stroke-miterlimit="10"/></g><g transform="translate(-262,-414) scale(1,1)"><path fill="none" stroke="#000000" d="M 440 943 L 547 943" stroke-miterlimit="10"/></g><g transform="translate(-262,-414) scale(1,1)"><g><path fill="none" stroke="none"/><text fill="#000000" stroke="none" font-family="Arial" font-size="13px" font-style="normal" font-weight="bold" text-decoration="none" x="449.063232421875" y="899.5">RuleRepository</text></g></g><g transform="translate(-262,-414) scale(1,1)"><g><path fill="none" stroke="none"/><text fill="#000000" stroke="none" font-family="Arial" font-size="13px" font-style="normal" font-weight="normal" text-decoration="none" x="445" y="922.5">-repoKey: String</text></g></g><g transform="translate(-262,-414) scale(1,1)"><g><path fill="none" stroke="none"/><text fill="#000000" stroke="none" font-family="Arial" font-size="13px" font-style="normal" font-weight="normal" text-decoration="none" x="445" y="937.5">-name: String</text></g></g><g transform="translate(-262,-414) scale(1,1)"><rect fill="#ffffff" stroke="none" x="280" y="768" width="73" height="57"/></g><g transform="translate(-262,-414) scale(1,1)"><path fill="none" stroke="#000000" d="M 280 768 L 353 768 L 353 825 L 280 825 L 280 768 Z Z" stroke-miterlimit="10"/></g><g transform="translate(-262,-414) scale(1,1)"><path fill="none" stroke="#000000" d="M 280 793 L 353 793" stroke-miterlimit="10"/></g><g transform="translate(-262,-414) scale(1,1)"><path fill="none" stroke="#000000" d="M 280 816 L 353 816" stroke-miterlimit="10"/></g><g transform="translate(-262,-414) scale(1,1)"><g><path fill="none" stroke="none"/><text fill="#000000" stroke="none" font-family="Arial" font-size="13px" font-style="normal" font-weight="bold" text-decoration="none" x="306.02001953125" y="787.5">Tag</text></g></g><g transform="translate(-262,-414) scale(1,1)"><g><path fill="none" stroke="none"/><text fill="#000000" stroke="none" font-family="Arial" font-size="13px" font-style="normal" font-weight="normal" text-decoration="none" x="285" y="810.5">-tag: String</text></g></g><g transform="translate(-262,-414) scale(1,1)"><path fill="none" stroke="#000000" d="M 353 784 L 428 784" stroke-miterlimit="10"/></g><g transform="translate(-262,-414) scale(1,1)"><path fill="#000000" stroke="none" d="M 417.83732514237585 788.209517756016 L 428 784 L 417.83732514237585 779.790482243984 L 406 784"/></g><g transform="translate(-262,-414) scale(1,1)"><path fill="none" stroke="#000000" d="M 417.83732514237585 788.209517756016 L 428 784 L 417.83732514237585 779.790482243984 L 406 784 L 417.83732514237585 788.209517756016" stroke-miterlimit="10"/></g><g transform="translate(-262,-414) scale(1,1)"><path fill="none" stroke="#000000" d="M 363.16267485762415 779.790482243984 L 353 784 L 363.16267485762415 788.209517756016" stroke-miterlimit="10"/></g><g transform="translate(-262,-414) scale(1,1)"><g><path fill="none" stroke="none"/><text fill="#000000" stroke="none" font-family="Arial" font-size="13px" font-style="normal" font-weight="normal" text-decoration="none" x="353.549560546875" y="775.5">-tags</text></g></g><g transform="translate(-262,-414) scale(1,1)"><g><path fill="none" stroke="none"/><text fill="#000000" stroke="none" font-family="Arial" font-size="13px" font-style="normal" font-weight="normal" text-decoration="none" x="363.220458984375" y="803.5">*</text></g></g><g transform="translate(-262,-414) scale(1,1)"><rect fill="#ffffff" stroke="none" x="836" y="876" width="115.18994140625" height="72"/></g><g transform="translate(-262,-414) scale(1,1)"><path fill="none" stroke="#000000" d="M 836 876 L 951.18994140625 876 L 951.18994140625 948 L 836 948 L 836 876 Z Z" stroke-miterlimit="10"/></g><g transform="translate(-262,-414) scale(1,1)"><path fill="none" stroke="#000000" d="M 836 901 L 951.18994140625 901" stroke-miterlimit="10"/></g><g transform="translate(-262,-414) scale(1,1)"><path fill="none" stroke="#000000" d="M 836 939 L 951.18994140625 939" stroke-miterlimit="10"/></g><g transform="translate(-262,-414) scale(1,1)"><g><path fill="none" stroke="none"/><text fill="#000000" stroke="none" font-family="Arial" font-size="13px" font-style="normal" font-weight="bold" text-decoration="none" x="844.832275390625" y="895.5">MetricRepository</text></g></g><g transform="translate(-262,-414) scale(1,1)"><g><path fill="none" stroke="none"/><text fill="#000000" stroke="none" font-family="Arial" font-size="13px" font-style="normal" font-weight="normal" text-decoration="none" x="841" y="918.5">-repoKey: String</text></g></g><g transform="translate(-262,-414) scale(1,1)"><g><path fill="none" stroke="none"/><text fill="#000000" stroke="none" font-family="Arial" font-size="13px" font-style="normal" font-weight="normal" text-decoration="none" x="841" y="933.5">-name: String</text></g></g><g transform="translate(-262,-414) scale(1,1)"><path fill="none" stroke="#000000" d="M 896 815 L 896 876" stroke-miterlimit="10"/></g><g transform="translate(-262,-414) scale(1,1)"><path fill="#000000" stroke="none" d="M 891.790482243984 865.8373251423759 L 896 876 L 900.209517756016 865.8373251423759 L 896 854"/></g><g transform="translate(-262,-414) scale(1,1)"><path fill="none" stroke="#000000" d="M 891.790482243984 865.8373251423759 L 896 876 L 900.209517756016 865.8373251423759 L 896 854 L 891.790482243984 865.8373251423759" stroke-miterlimit="10"/></g><g transform="translate(-262,-414) scale(1,1)"><g><path fill="none" stroke="none"/><text fill="#000000" stroke="none" font-family="Arial" font-size="13px" font-style="normal" font-weight="normal" text-decoration="none" x="901.891357421875" y="835.5">-metrics</text></g></g><g transform="translate(-262,-414) scale(1,1)"><g><path fill="none" stroke="none"/><text fill="#000000" stroke="none" font-family="Arial" font-size="13px" font-style="normal" font-weight="normal" text-decoration="none" x="880.220458984375" y="836.5">*</text></g></g><g transform="translate(-262,-414) scale(1,1)"><g><path fill="none" stroke="none"/><text fill="#000000" stroke="none" font-family="Arial" font-size="13px" font-style="normal" font-weight="normal" text-decoration="none" x="908.29638671875" y="871.5">-repository</text></g></g><g transform="translate(-262,-414) scale(1,1)"><g><path fill="none" stroke="none"/><text fill="#000000" stroke="none" font-family="Arial" font-size="13px" font-style="normal" font-weight="normal" text-decoration="none" x="879.5" y="871.5">1</text></g></g><g transform="translate(-262,-414) scale(1,1)"><rect fill="#ffffff" stroke="none" x="832" y="728" width="122" height="87"/></g><g transform="translate(-262,-414) scale(1,1)"><path fill="none" stroke="#000000" d="M 832 728 L 954 728 L 954 815 L 832 815 L 832 728 Z Z" stroke-miterlimit="10"/></g><g transform="translate(-262,-414) scale(1,1)"><path fill="none" stroke="#000000" d="M 832 753 L 954 753" stroke-miterlimit="10"/></g><g transform="translate(-262,-414) scale(1,1)"><path fill="none" stroke="#000000" d="M 832 806 L 954 806" stroke-miterlimit="10"/></g><g transform="translate(-262,-414) scale(1,1)"><g><path fill="none" stroke="none"/><text fill="#000000" stroke="none" font-family="Arial" font-size="13px" font-style="normal" font-weight="bold" text-decoration="none" x="875.305908203125" y="747.5">Metric</text></g></g><g transform="translate(-262,-414) scale(1,1)"><g><path fill="none" stroke="none"/><text fill="#000000" stroke="none" font-family="Arial" font-size="13px" font-style="normal" font-weight="normal" text-decoration="none" x="837" y="770.5">-metricKey: String</text></g></g><g transform="translate(-262,-414) scale(1,1)"><g><path fill="none" stroke="none"/><text fill="#000000" stroke="none" font-family="Arial" font-size="13px" font-style="normal" font-weight="normal" text-decoration="none" x="837" y="785.5">-name: String</text></g></g><g transform="translate(-262,-414) scale(1,1)"><g><path fill="none" stroke="none"/><text fill="#000000" stroke="none" font-family="Arial" font-size="13px" font-style="normal" font-weight="normal" text-decoration="none" x="837" y="800.5">-description: String</text></g></g><g transform="translate(-262,-414) scale(1,1)"><path fill="none" stroke="#000000" d="M 892 664 L 892 728" stroke-miterlimit="10"/></g><g transform="translate(-262,-414) scale(1,1)"><path fill="#FFFFFF" stroke="none" d="M 887.790482243984 717.8373251423759 L 892 728 L 896.209517756016 717.8373251423759 L 892 706"/></g><g transform="translate(-262,-414) scale(1,1)"><path fill="none" stroke="#000000" d="M 887.790482243984 717.8373251423759 L 892 728 L 896.209517756016 717.8373251423759 L 892 706 L 887.790482243984 717.8373251423759" stroke-miterlimit="10"/></g><g transform="translate(-262,-414) scale(1,1)"><g><path fill="none" stroke="none"/><text fill="#000000" stroke="none" font-family="Arial" font-size="13px" font-style="normal" font-weight="normal" text-decoration="none" x="824.29638671875" y="682.5">-measures</text></g></g><g transform="translate(-262,-414) scale(1,1)"><g><path fill="none" stroke="none"/><text fill="#000000" stroke="none" font-family="Arial" font-size="13px" font-style="normal" font-weight="normal" text-decoration="none" x="895.220458984375" y="683.5">*</text></g></g><g transform="translate(-262,-414) scale(1,1)"><g><path fill="none" stroke="none"/><text fill="#000000" stroke="none" font-family="Arial" font-size="13px" font-style="normal" font-weight="normal" text-decoration="none" x="907.641357421875" y="721.5">-metric</text></g></g><g transform="translate(-262,-414) scale(1,1)"><g><path fill="none" stroke="none"/><text fill="#000000" stroke="none" font-family="Arial" font-size="13px" font-style="normal" font-weight="normal" text-decoration="none" x="874.5" y="723.5">1</text></g></g><g transform="translate(-262,-414) scale(1,1)"><rect fill="#ffffff" stroke="none" x="827" y="592" width="132" height="72"/></g><g transform="translate(-262,-414) scale(1,1)"><path fill="none" stroke="#000000" d="M 827 592 L 959 592 L 959 664 L 827 664 L 827 592 Z Z" stroke-miterlimit="10"/></g><g transform="translate(-262,-414) scale(1,1)"><path fill="none" stroke="#000000" d="M 827 617 L 959 617" stroke-miterlimit="10"/></g><g transform="translate(-262,-414) scale(1,1)"><path fill="none" stroke="#000000" d="M 827 655 L 959 655" stroke-miterlimit="10"/></g><g transform="translate(-262,-414) scale(1,1)"><g><path fill="none" stroke="none"/><text fill="#000000" stroke="none" font-family="Arial" font-size="13px" font-style="normal" font-weight="bold" text-decoration="none" x="867.7109375" y="611.5">Measure</text></g></g><g transform="translate(-262,-414) scale(1,1)"><g><path fill="none" stroke="none"/><text fill="#000000" stroke="none" font-family="Arial" font-size="13px" font-style="normal" font-weight="normal" text-decoration="none" x="832" y="634.5">-measureKey: String</text></g></g><g transform="translate(-262,-414) scale(1,1)"><g><path fill="none" stroke="none"/><text fill="#000000" stroke="none" font-family="Arial" font-size="13px" font-style="normal" font-weight="normal" text-decoration="none" x="832" y="649.5">-value: double</text></g></g><g transform="translate(-262,-414) scale(1,1)"><path fill="none" stroke="#000000" d="M 827 616 L 736 616" stroke-miterlimit="10"/></g><g transform="translate(-262,-414) scale(1,1)"><path fill="none" stroke="#000000" d="M 746.1626748576241 611.790482243984 L 736 616 L 746.1626748576241 620.209517756016" stroke-miterlimit="10"/></g><g transform="translate(-262,-414) scale(1,1)"><g><path fill="none" stroke="none"/><text fill="#000000" stroke="none" font-family="Arial" font-size="13px" font-style="normal" font-weight="normal" text-decoration="none" x="742.25" y="612.5">-ref</text></g></g><g transform="translate(-262,-414) scale(1,1)"><g><path fill="none" stroke="none"/><text fill="#000000" stroke="none" font-family="Arial" font-size="13px" font-style="normal" font-weight="normal" text-decoration="none" x="740.5" y="634.5">1</text></g></g><g transform="translate(-262,-414) scale(1,1)"><rect fill="#ffffff" stroke="none" x="619" y="728" width="124" height="135"/></g><g transform="translate(-262,-414) scale(1,1)"><path fill="none" stroke="#000000" d="M 619 728 L 743 728 L 743 863 L 619 863 L 619 728 Z Z" stroke-miterlimit="10"/></g><g transform="translate(-262,-414) scale(1,1)"><path fill="none" stroke="#000000" d="M 619 766 L 743 766" stroke-miterlimit="10"/></g><g transform="translate(-262,-414) scale(1,1)"><g><path fill="none" stroke="none"/><text fill="#000000" stroke="none" font-family="Arial" font-size="13px" font-style="normal" font-weight="normal" text-decoration="none" x="637.635986328125" y="745.5">«enumeration»</text></g></g><g transform="translate(-262,-414) scale(1,1)"><g><path fill="none" stroke="none"/><text fill="#000000" stroke="none" font-family="Arial" font-size="13px" font-style="normal" font-weight="bold" text-decoration="none" x="656.793212890625" y="760.5">RefType</text></g></g><g transform="translate(-262,-414) scale(1,1)"><g><path fill="none" stroke="none"/><text fill="#000000" stroke="none" font-family="Arial" font-size="13px" font-style="normal" font-weight="normal" text-decoration="none" x="624" y="783.5">TYPE</text></g></g><g transform="translate(-262,-414) scale(1,1)"><g><path fill="none" stroke="none"/><text fill="#000000" stroke="none" font-family="Arial" font-size="13px" font-style="normal" font-weight="normal" text-decoration="none" x="624" y="798.5">METHOD</text></g></g><g transform="translate(-262,-414) scale(1,1)"><g><path fill="none" stroke="none"/><text fill="#000000" stroke="none" font-family="Arial" font-size="13px" font-style="normal" font-weight="normal" text-decoration="none" x="624" y="813.5">INITIALIZER</text></g></g><g transform="translate(-262,-414) scale(1,1)"><g><path fill="none" stroke="none"/><text fill="#000000" stroke="none" font-family="Arial" font-size="13px" font-style="normal" font-weight="normal" text-decoration="none" x="624" y="828.5">CONSTRUCTOR</text></g></g><g transform="translate(-262,-414) scale(1,1)"><g><path fill="none" stroke="none"/><text fill="#000000" stroke="none" font-family="Arial" font-size="13px" font-style="normal" font-weight="normal" text-decoration="none" x="624" y="843.5">FIELD</text></g></g><g transform="translate(-262,-414) scale(1,1)"><g><path fill="none" stroke="none"/><text fill="#000000" stroke="none" font-family="Arial" font-size="13px" font-style="normal" font-weight="normal" text-decoration="none" x="624" y="858.5">LITERAL</text></g></g><g transform="translate(-262,-414) scale(1,1)"><path fill="none" stroke="#000000" d="M 680 664 L 680 728" stroke-miterlimit="10"/></g><g transform="translate(-262,-414) scale(1,1)"><path fill="none" stroke="#000000" d="M 675.790482243984 717.8373251423759 L 680 728 L 684.209517756016 717.8373251423759" stroke-miterlimit="10"/></g><g transform="translate(-262,-414) scale(1,1)"><g><path fill="none" stroke="none"/><text fill="#000000" stroke="none" font-family="Arial" font-size="13px" font-style="normal" font-weight="normal" text-decoration="none" x="664.385009765625" y="680.5">1</text></g></g><g transform="translate(-262,-414) scale(1,1)"><g><path fill="none" stroke="none"/><text fill="#000000" stroke="none" font-family="Arial" font-size="13px" font-style="normal" font-weight="normal" text-decoration="none" x="624.658203125" y="723.5">-refType</text></g></g><g transform="translate(-262,-414) scale(1,1)"><g><path fill="none" stroke="none"/><text fill="#000000" stroke="none" font-family="Arial" font-size="13px" font-style="normal" font-weight="normal" text-decoration="none" x="687.5" y="724.5">1</text></g></g><g transform="translate(-262,-414) scale(1,1)"><path fill="none" stroke="#000000" d="M 894 592 L 894 475 L 745 475" stroke-miterlimit="10"/></g><g transform="translate(-262,-414) scale(1,1)"><path fill="#FFFFFF" stroke="none" d="M 755.1626748576241 470.790482243984 L 745 475 L 755.1626748576241 479.209517756016 L 767 475"/></g><g transform="translate(-262,-414) scale(1,1)"><path fill="none" stroke="#000000" d="M 755.1626748576241 470.790482243984 L 745 475 L 755.1626748576241 479.209517756016 L 767 475 L 755.1626748576241 470.790482243984" stroke-miterlimit="10"/></g><g transform="translate(-262,-414) scale(1,1)"><g><path fill="none" stroke="none"/><text fill="#000000" stroke="none" font-family="Arial" font-size="13px" font-style="normal" font-weight="normal" text-decoration="none" x="895.29638671875" y="586.5">-measures</text></g></g><g transform="translate(-262,-414) scale(1,1)"><g><path fill="none" stroke="none"/><text fill="#000000" stroke="none" font-family="Arial" font-size="13px" font-style="normal" font-weight="normal" text-decoration="none" x="903.220458984375" y="576.5">*</text></g></g><g transform="translate(-262,-414) scale(1,1)"><g><path fill="none" stroke="none"/><text fill="#000000" stroke="none" font-family="Arial" font-size="13px" font-style="normal" font-weight="normal" text-decoration="none" x="745.325927734375" y="466.5">-project</text></g></g><g transform="translate(-262,-414) scale(1,1)"><g><path fill="none" stroke="none"/><text fill="#000000" stroke="none" font-family="Arial" font-size="13px" font-style="normal" font-weight="normal" text-decoration="none" x="748.885009765625" y="491.5">1</text></g></g><g transform="translate(-262,-414) scale(1,1)"><rect fill="#ffffff" stroke="none" x="618" y="424" width="127" height="102"/></g><g transform="translate(-262,-414) scale(1,1)"><path fill="none" stroke="#000000" d="M 618 424 L 745 424 L 745 526 L 618 526 L 618 424 Z Z" stroke-miterlimit="10"/></g><g transform="translate(-262,-414) scale(1,1)"><path fill="none" stroke="#000000" d="M 618 449 L 745 449" stroke-miterlimit="10"/></g><g transform="translate(-262,-414) scale(1,1)"><path fill="none" stroke="#000000" d="M 618 517 L 745 517" stroke-miterlimit="10"/></g><g transform="translate(-262,-414) scale(1,1)"><g><path fill="none" stroke="none"/><text fill="#000000" stroke="none" font-family="Arial" font-size="13px" font-style="normal" font-weight="bold" text-decoration="none" x="661.27001953125" y="443.5">Project</text></g></g><g transform="translate(-262,-414) scale(1,1)"><g><path fill="none" stroke="none"/><text fill="#000000" stroke="none" font-family="Arial" font-size="13px" font-style="normal" font-weight="normal" text-decoration="none" x="623" y="466.5">-projKey: String</text></g></g><g transform="translate(-262,-414) scale(1,1)"><g><path fill="none" stroke="none"/><text fill="#000000" stroke="none" font-family="Arial" font-size="13px" font-style="normal" font-weight="normal" text-decoration="none" x="623" y="481.5">-name: String</text></g></g><g transform="translate(-262,-414) scale(1,1)"><g><path fill="none" stroke="none"/><text fill="#000000" stroke="none" font-family="Arial" font-size="13px" font-style="normal" font-weight="normal" text-decoration="none" x="623" y="496.5">-languages: String[*]</text></g></g><g transform="translate(-262,-414) scale(1,1)"><g><path fill="none" stroke="none"/><text fill="#000000" stroke="none" font-family="Arial" font-size="13px" font-style="normal" font-weight="normal" text-decoration="none" x="623" y="511.5">-version: String</text></g></g><g transform="translate(-262,-414) scale(1,1)"><path fill="none" stroke="#000000" d="M 480 592 L 480 475 L 618 475" stroke-miterlimit="10"/></g><g transform="translate(-262,-414) scale(1,1)"><path fill="#FFFFFF" stroke="none" d="M 607.8373251423759 479.209517756016 L 618 475 L 607.8373251423758 470.790482243984 L 596 475"/></g><g transform="translate(-262,-414) scale(1,1)"><path fill="none" stroke="#000000" d="M 607.8373251423759 479.209517756016 L 618 475 L 607.8373251423758 470.790482243984 L 596 475 L 607.8373251423759 479.209517756016" stroke-miterlimit="10"/></g><g transform="translate(-262,-414) scale(1,1)"><g><path fill="none" stroke="none"/><text fill="#000000" stroke="none" font-family="Arial" font-size="13px" font-style="normal" font-weight="normal" text-decoration="none" x="484.431396484375" y="568.5">-findings</text></g></g><g transform="translate(-262,-414) scale(1,1)"><g><path fill="none" stroke="none"/><text fill="#000000" stroke="none" font-family="Arial" font-size="13px" font-style="normal" font-weight="normal" text-decoration="none" x="490.470458984375" y="584.5">*</text></g></g><g transform="translate(-262,-414) scale(1,1)"><g><path fill="none" stroke="none"/><text fill="#000000" stroke="none" font-family="Arial" font-size="13px" font-style="normal" font-weight="normal" text-decoration="none" x="569.325927734375" y="467.5">-project</text></g></g><g transform="translate(-262,-414) scale(1,1)"><g><path fill="none" stroke="none"/><text fill="#000000" stroke="none" font-family="Arial" font-size="13px" font-style="normal" font-weight="normal" text-decoration="none" x="599.5" y="492.5">1</text></g></g></g></svg>