<svg version="1.1" xmlns="http://www.w3.org/2000/svg" xmlns:xlink="http://www.w3.org/1999/xlink" width="476" height="256"><defs/><g><g transform="translate(-118,-86) scale(1,1)"><rect fill="#ffffff" stroke="none" x="320" y="192" width="120" height="48"/></g><g transform="translate(-118,-86) scale(1,1)"><path fill="none" stroke="#000000" d="M 320 192 L 440 192 L 440 240 L 320 240 L 320 192 Z Z" stroke-miterlimit="10"/></g><g transform="translate(-118,-86) scale(1,1)"><g><path fill="none" stroke="none"/><text fill="#000000" stroke="none" font-family="Arial" font-size="13px" font-style="normal" font-weight="normal" text-decoration="none" x="347.839599609375" y="209.5">«interface»</text></g></g><g transform="translate(-118,-86) scale(1,1)"><g><path fill="none" stroke="none"/><text fill="#000000" stroke="none" font-family="Arial" font-size="13px" font-style="normal" font-weight="bold" text-decoration="none" x="352.536865234375" y="224.5">Condition</text></g></g><g transform="translate(-118,-86) scale(1,1)"><rect fill="#ffffff" stroke="none" x="488" y="192" width="93" height="44"/></g><g transform="translate(-118,-86) scale(1,1)"><path fill="none" stroke="#000000" d="M 488 192 L 581 192 L 581 236 L 488 236 L 488 192 Z Z" stroke-miterlimit="10"/></g><g transform="translate(-118,-86) scale(1,1)"><path fill="none" stroke="#000000" d="M 488 217 L 581 217" stroke-miterlimit="10"/></g><g transform="translate(-118,-86) scale(1,1)"><path fill="none" stroke="#000000" d="M 488 227 L 581 227" stroke-miterlimit="10"/></g><g transform="translate(-118,-86) scale(1,1)"><g><path fill="none" stroke="none"/><text fill="#000000" stroke="none" font-family="Arial" font-size="13px" font-style="normal" font-weight="bold" text-decoration="none" x="494.760498046875" y="211.5">TypeHasField</text></g></g><g transform="translate(-118,-86) scale(1,1)"><rect fill="#ffffff" stroke="none" x="128" y="192" width="136.61328125" height="44"/></g><g transform="translate(-118,-86) scale(1,1)"><path fill="none" stroke="#000000" d="M 128 192 L 264.61328125 192 L 264.61328125 236 L 128 236 L 128 192 Z Z" stroke-miterlimit="10"/></g><g transform="translate(-118,-86) scale(1,1)"><path fill="none" stroke="#000000" d="M 128 217 L 264.61328125 217" stroke-miterlimit="10"/></g><g transform="translate(-118,-86) scale(1,1)"><path fill="none" stroke="#000000" d="M 128 227 L 264.61328125 227" stroke-miterlimit="10"/></g><g transform="translate(-118,-86) scale(1,1)"><g><path fill="none" stroke="none"/><text fill="#000000" stroke="none" font-family="Arial" font-size="13px" font-style="normal" font-weight="bold" text-decoration="none" x="137.060791015625" y="211.5">TypeHasConstructor</text></g></g><g transform="translate(-118,-86) scale(1,1)"><rect fill="#ffffff" stroke="none" x="128" y="96" width="77" height="44"/></g><g transform="translate(-118,-86) scale(1,1)"><path fill="none" stroke="#000000" d="M 128 96 L 205 96 L 205 140 L 128 140 L 128 96 Z Z" stroke-miterlimit="10"/></g><g transform="translate(-118,-86) scale(1,1)"><path fill="none" stroke="#000000" d="M 128 121 L 205 121" stroke-miterlimit="10"/></g><g transform="translate(-118,-86) scale(1,1)"><path fill="none" stroke="#000000" d="M 128 131 L 205 131" stroke-miterlimit="10"/></g><g transform="translate(-118,-86) scale(1,1)"><g><path fill="none" stroke="none"/><text fill="#000000" stroke="none" font-family="Arial" font-size="13px" font-style="normal" font-weight="bold" text-decoration="none" x="135.07275390625" y="115.5">TypeExists</text></g></g><g transform="translate(-118,-86) scale(1,1)"><rect fill="#ffffff" stroke="none" x="320" y="96" width="119.56982421875" height="44"/></g><g transform="translate(-118,-86) scale(1,1)"><path fill="none" stroke="#000000" d="M 320 96 L 439.56982421875 96 L 439.56982421875 140 L 320 140 L 320 96 Z Z" stroke-miterlimit="10"/></g><g transform="translate(-118,-86) scale(1,1)"><path fill="none" stroke="#000000" d="M 320 121 L 439.56982421875 121" stroke-miterlimit="10"/></g><g transform="translate(-118,-86) scale(1,1)"><path fill="none" stroke="#000000" d="M 320 131 L 439.56982421875 131" stroke-miterlimit="10"/></g><g transform="translate(-118,-86) scale(1,1)"><g><path fill="none" stroke="none"/><text fill="#000000" stroke="none" font-family="Arial" font-size="13px" font-style="normal" font-weight="bold" text-decoration="none" x="327.765869140625" y="115.5">NamespaceExists</text></g></g><g transform="translate(-118,-86) scale(1,1)"><rect fill="#ffffff" stroke="none" x="488" y="96" width="96" height="44"/></g><g transform="translate(-118,-86) scale(1,1)"><path fill="none" stroke="#000000" d="M 488 96 L 584 96 L 584 140 L 488 140 L 488 96 Z Z" stroke-miterlimit="10"/></g><g transform="translate(-118,-86) scale(1,1)"><path fill="none" stroke="#000000" d="M 488 121 L 584 121" stroke-miterlimit="10"/></g><g transform="translate(-118,-86) scale(1,1)"><path fill="none" stroke="#000000" d="M 488 131 L 584 131" stroke-miterlimit="10"/></g><g transform="translate(-118,-86) scale(1,1)"><g><path fill="none" stroke="none"/><text fill="#000000" stroke="none" font-family="Arial" font-size="13px" font-style="normal" font-weight="bold" text-decoration="none" x="495.54638671875" y="115.5">FileHasImport</text></g></g><g transform="translate(-118,-86) scale(1,1)"><rect fill="#ffffff" stroke="none" x="128" y="288" width="129.67529296875" height="44"/></g><g transform="translate(-118,-86) scale(1,1)"><path fill="none" stroke="#000000" d="M 128 288 L 257.67529296875 288 L 257.67529296875 332 L 128 332 L 128 288 Z Z" stroke-miterlimit="10"/></g><g transform="translate(-118,-86) scale(1,1)"><path fill="none" stroke="#000000" d="M 128 313 L 257.67529296875 313" stroke-miterlimit="10"/></g><g transform="translate(-118,-86) scale(1,1)"><path fill="none" stroke="#000000" d="M 128 323 L 257.67529296875 323" stroke-miterlimit="10"/></g><g transform="translate(-118,-86) scale(1,1)"><g><path fill="none" stroke="none"/><text fill="#000000" stroke="none" font-family="Arial" font-size="13px" font-style="normal" font-weight="bold" text-decoration="none" x="136.114990234375" y="307.5">AlreadyGeneralizes</text></g></g><g transform="translate(-118,-86) scale(1,1)"><rect fill="#ffffff" stroke="none" x="272" y="288" width="108.7216796875" height="44"/></g><g transform="translate(-118,-86) scale(1,1)"><path fill="none" stroke="#000000" d="M 272 288 L 380.7216796875 288 L 380.7216796875 332 L 272 332 L 272 288 Z Z" stroke-miterlimit="10"/></g><g transform="translate(-118,-86) scale(1,1)"><path fill="none" stroke="#000000" d="M 272 313 L 380.7216796875 313" stroke-miterlimit="10"/></g><g transform="translate(-118,-86) scale(1,1)"><path fill="none" stroke="#000000" d="M 272 323 L 380.7216796875 323" stroke-miterlimit="10"/></g><g transform="translate(-118,-86) scale(1,1)"><g><path fill="none" stroke="none"/><text fill="#000000" stroke="none" font-family="Arial" font-size="13px" font-style="normal" font-weight="bold" text-decoration="none" x="279.39453125" y="307.5">AlreadyRealizes</text></g></g><g transform="translate(-118,-86) scale(1,1)"><rect fill="#ffffff" stroke="none" x="392" y="288" width="70" height="44"/></g><g transform="translate(-118,-86) scale(1,1)"><path fill="none" stroke="#000000" d="M 392 288 L 462 288 L 462 332 L 392 332 L 392 288 Z Z" stroke-miterlimit="10"/></g><g transform="translate(-118,-86) scale(1,1)"><path fill="none" stroke="#000000" d="M 392 313 L 462 313" stroke-miterlimit="10"/></g><g transform="translate(-118,-86) scale(1,1)"><path fill="none" stroke="#000000" d="M 392 323 L 462 323" stroke-miterlimit="10"/></g><g transform="translate(-118,-86) scale(1,1)"><g><path fill="none" stroke="none"/><text fill="#000000" stroke="none" font-family="Arial" font-size="13px" font-style="normal" font-weight="bold" text-decoration="none" x="399.19091796875" y="307.5">FileExists</text></g></g><g transform="translate(-118,-86) scale(1,1)"><rect fill="#ffffff" stroke="none" x="472" y="288" width="108.43603515625" height="44"/></g><g transform="translate(-118,-86) scale(1,1)"><path fill="none" stroke="#000000" d="M 472 288 L 580.43603515625 288 L 580.43603515625 332 L 472 332 L 472 288 Z Z" stroke-miterlimit="10"/></g><g transform="translate(-118,-86) scale(1,1)"><path fill="none" stroke="#000000" d="M 472 313 L 580.43603515625 313" stroke-miterlimit="10"/></g><g transform="translate(-118,-86) scale(1,1)"><path fill="none" stroke="#000000" d="M 472 323 L 580.43603515625 323" stroke-miterlimit="10"/></g><g transform="translate(-118,-86) scale(1,1)"><g><path fill="none" stroke="none"/><text fill="#000000" stroke="none" font-family="Arial" font-size="13px" font-style="normal" font-weight="bold" text-decoration="none" x="478.88671875" y="307.5">TypeHasMethod</text></g></g><g transform="translate(-118,-86) scale(1,1)"><path fill="none" stroke="#000000" d="M 168 140 L 168 160 L 336 160 L 336 192" stroke-miterlimit="10" stroke-dasharray="3"/></g><g transform="translate(-118,-86) scale(1,1)"><path fill="#FFFFFF" stroke="none" d="M 327.580964487968 171.6746502847517 L 336 192 L 344.419035512032 171.6746502847517"/></g><g transform="translate(-118,-86) scale(1,1)"><path fill="none" stroke="#000000" d="M 327.580964487968 171.6746502847517 L 336 192 L 344.419035512032 171.6746502847517 L 327.580964487968 171.6746502847517" stroke-miterlimit="10"/></g><g transform="translate(-118,-86) scale(1,1)"><path fill="none" stroke="#000000" d="M 265 216 L 320 216" stroke-miterlimit="10" stroke-dasharray="3"/></g><g transform="translate(-118,-86) scale(1,1)"><path fill="#FFFFFF" stroke="none" d="M 299.6746502847517 224.41903551203197 L 320 216 L 299.6746502847517 207.58096448796803"/></g><g transform="translate(-118,-86) scale(1,1)"><path fill="none" stroke="#000000" d="M 299.6746502847517 224.41903551203197 L 320 216 L 299.6746502847517 207.58096448796803 L 299.6746502847517 224.41903551203197" stroke-miterlimit="10"/></g><g transform="translate(-118,-86) scale(1,1)"><path fill="none" stroke="#000000" d="M 488 216 L 440 216" stroke-miterlimit="10" stroke-dasharray="3"/></g><g transform="translate(-118,-86) scale(1,1)"><path fill="#FFFFFF" stroke="none" d="M 460.3253497152483 207.58096448796803 L 440 216 L 460.3253497152483 224.41903551203197"/></g><g transform="translate(-118,-86) scale(1,1)"><path fill="none" stroke="#000000" d="M 460.3253497152483 207.58096448796803 L 440 216 L 460.3253497152483 224.41903551203197 L 460.3253497152483 207.58096448796803" stroke-miterlimit="10"/></g><g transform="translate(-118,-86) scale(1,1)"><path fill="none" stroke="#000000" d="M 384 140 L 384 192" stroke-miterlimit="10" stroke-dasharray="3"/></g><g transform="translate(-118,-86) scale(1,1)"><path fill="#FFFFFF" stroke="none" d="M 375.580964487968 171.6746502847517 L 384 192 L 392.419035512032 171.6746502847517"/></g><g transform="translate(-118,-86) scale(1,1)"><path fill="none" stroke="#000000" d="M 375.580964487968 171.6746502847517 L 384 192 L 392.419035512032 171.6746502847517 L 375.580964487968 171.6746502847517" stroke-miterlimit="10"/></g><g transform="translate(-118,-86) scale(1,1)"><path fill="none" stroke="#000000" d="M 536 140 L 536 160 L 424 160 L 424 192" stroke-miterlimit="10" stroke-dasharray="3"/></g><g transform="translate(-118,-86) scale(1,1)"><path fill="#FFFFFF" stroke="none" d="M 415.580964487968 171.6746502847517 L 424 192 L 432.419035512032 171.6746502847517"/></g><g transform="translate(-118,-86) scale(1,1)"><path fill="none" stroke="#000000" d="M 415.580964487968 171.6746502847517 L 424 192 L 432.419035512032 171.6746502847517 L 415.580964487968 171.6746502847517" stroke-miterlimit="10"/></g><g transform="translate(-118,-86) scale(1,1)"><path fill="none" stroke="#000000" d="M 192 288 L 192 272 L 336 272 L 336 240" stroke-miterlimit="10" stroke-dasharray="3"/></g><g transform="translate(-118,-86) scale(1,1)"><path fill="#FFFFFF" stroke="none" d="M 344.419035512032 260.3253497152483 L 336 240 L 327.580964487968 260.3253497152483"/></g><g transform="translate(-118,-86) scale(1,1)"><path fill="none" stroke="#000000" d="M 344.419035512032 260.3253497152483 L 336 240 L 327.580964487968 260.3253497152483 L 344.419035512032 260.3253497152483" stroke-miterlimit="10"/></g><g transform="translate(-118,-86) scale(1,1)"><path fill="none" stroke="#000000" d="M 366 288 L 366 240" stroke-miterlimit="10" stroke-dasharray="3"/></g><g transform="translate(-118,-86) scale(1,1)"><path fill="#FFFFFF" stroke="none" d="M 374.419035512032 260.3253497152483 L 366 240 L 357.580964487968 260.3253497152483"/></g><g transform="translate(-118,-86) scale(1,1)"><path fill="none" stroke="#000000" d="M 374.419035512032 260.3253497152483 L 366 240 L 357.580964487968 260.3253497152483 L 374.419035512032 260.3253497152483" stroke-miterlimit="10"/></g><g transform="translate(-118,-86) scale(1,1)"><path fill="none" stroke="#000000" d="M 400 288 L 400 240" stroke-miterlimit="10" stroke-dasharray="3"/></g><g transform="translate(-118,-86) scale(1,1)"><path fill="#FFFFFF" stroke="none" d="M 408.419035512032 260.3253497152483 L 400 240 L 391.580964487968 260.3253497152483"/></g><g transform="translate(-118,-86) scale(1,1)"><path fill="none" stroke="#000000" d="M 408.419035512032 260.3253497152483 L 400 240 L 391.580964487968 260.3253497152483 L 408.419035512032 260.3253497152483" stroke-miterlimit="10"/></g><g transform="translate(-118,-86) scale(1,1)"><path fill="none" stroke="#000000" d="M 528 288 L 528 272 L 424 272 L 424 240" stroke-miterlimit="10" stroke-dasharray="3"/></g><g transform="translate(-118,-86) scale(1,1)"><path fill="#FFFFFF" stroke="none" d="M 432.419035512032 260.3253497152483 L 424 240 L 415.580964487968 260.3253497152483"/></g><g transform="translate(-118,-86) scale(1,1)"><path fill="none" stroke="#000000" d="M 432.419035512032 260.3253497152483 L 424 240 L 415.580964487968 260.3253497152483 L 432.419035512032 260.3253497152483" stroke-miterlimit="10"/></g></g></svg>