<svg version="1.1" xmlns="http://www.w3.org/2000/svg" xmlns:xlink="http://www.w3.org/1999/xlink" width="919.15966796875" height="789"><defs/><g><g transform="translate(-6,-118) scale(1,1)"><rect fill="#ffffff" stroke="none" x="832" y="160" width="71.130859375" height="44"/></g><g transform="translate(-6,-118) scale(1,1)"><path fill="none" stroke="#000000" d="M 832 160 L 903.130859375 160 L 903.130859375 204 L 832 204 L 832 160 Z Z" stroke-miterlimit="10"/></g><g transform="translate(-6,-118) scale(1,1)"><g><path fill="none" stroke="none"/><text fill="#000000" stroke="none" font-family="Arial" font-size="13px" font-style="normal" font-weight="bold" text-decoration="none" x="838.299560546875" y="179.5">Generator</text></g></g><g transform="translate(-6,-118) scale(1,1)"><rect fill="#ffffff" stroke="none" x="168" y="160" width="179.4853515625" height="44"/></g><g transform="translate(-6,-118) scale(1,1)"><path fill="none" stroke="#000000" d="M 168 160 L 347.4853515625 160 L 347.4853515625 204 L 168 204 L 168 160 Z Z" stroke-miterlimit="10"/></g><g transform="translate(-6,-118) scale(1,1)"><g><path fill="none" stroke="none"/><text fill="#000000" stroke="none" font-family="Arial" font-size="13px" font-style="italic" font-weight="bold" text-decoration="none" x="179.35546875" y="179.5">AbstractDirStructGenerator</text></g></g><g transform="translate(-6,-118) scale(1,1)"><rect fill="#ffffff" stroke="none" x="47" y="336" width="146.26171875" height="44"/></g><g transform="translate(-6,-118) scale(1,1)"><path fill="none" stroke="#000000" d="M 47 336 L 193.26171875 336 L 193.26171875 380 L 47 380 L 47 336 Z Z" stroke-miterlimit="10"/></g><g transform="translate(-6,-118) scale(1,1)"><g><path fill="none" stroke="none"/><text fill="#000000" stroke="none" font-family="Arial" font-size="13px" font-style="italic" font-weight="bold" text-decoration="none" x="56.549560546875" y="355.5">AbstractFileGenerator</text></g></g><g transform="translate(-6,-118) scale(1,1)"><rect fill="#ffffff" stroke="none" x="343" y="336" width="168.65625" height="44"/></g><g transform="translate(-6,-118) scale(1,1)"><path fill="none" stroke="#000000" d="M 343 336 L 511.65625 336 L 511.65625 380 L 343 380 L 343 336 Z Z" stroke-miterlimit="10"/></g><g transform="translate(-6,-118) scale(1,1)"><g><path fill="none" stroke="none"/><text fill="#000000" stroke="none" font-family="Arial" font-size="13px" font-style="italic" font-weight="bold" text-decoration="none" x="353.263671875" y="355.5">AbstractPatternGenerator</text></g></g><g transform="translate(-6,-118) scale(1,1)"><rect fill="#ffffff" stroke="none" x="567" y="336" width="150.5908203125" height="44"/></g><g transform="translate(-6,-118) scale(1,1)"><path fill="none" stroke="#000000" d="M 567 336 L 717.5908203125 336 L 717.5908203125 380 L 567 380 L 567 336 Z Z" stroke-miterlimit="10"/></g><g transform="translate(-6,-118) scale(1,1)"><g><path fill="none" stroke="none"/><text fill="#000000" stroke="none" font-family="Arial" font-size="13px" font-style="italic" font-weight="bold" text-decoration="none" x="577.62548828125" y="355.5">AbstractSourceBuilder</text></g></g><g transform="translate(-6,-118) scale(1,1)"><rect fill="#ffffff" stroke="none" x="59" y="424" width="122.4453125" height="44"/></g><g transform="translate(-6,-118) scale(1,1)"><path fill="none" stroke="#000000" d="M 59 424 L 181.4453125 424 L 181.4453125 468 L 59 468 L 59 424 Z Z" stroke-miterlimit="10"/></g><g transform="translate(-6,-118) scale(1,1)"><g><path fill="none" stroke="none"/><text fill="#000000" stroke="none" font-family="Arial" font-size="13px" font-style="normal" font-weight="bold" text-decoration="none" x="66.753173828125" y="443.5">JavaFileGenerator</text></g></g><g transform="translate(-6,-118) scale(1,1)"><path fill="none" stroke="#000000" d="M 120 424 L 120 380" stroke-miterlimit="10"/></g><g transform="translate(-6,-118) scale(1,1)"><path fill="#FFFFFF" stroke="none" d="M 128.41903551203197 400.3253497152483 L 120 380 L 111.58096448796803 400.3253497152483"/></g><g transform="translate(-6,-118) scale(1,1)"><path fill="none" stroke="#000000" d="M 128.41903551203197 400.3253497152483 L 120 380 L 111.58096448796803 400.3253497152483 L 128.41903551203197 400.3253497152483" stroke-miterlimit="10"/></g><g transform="translate(-6,-118) scale(1,1)"><rect fill="#ffffff" stroke="none" x="48" y="256" width="196.8525390625" height="44"/></g><g transform="translate(-6,-118) scale(1,1)"><path fill="none" stroke="#000000" d="M 48 256 L 244.8525390625 256 L 244.8525390625 300 L 48 300 L 48 256 Z Z" stroke-miterlimit="10"/></g><g transform="translate(-6,-118) scale(1,1)"><g><path fill="none" stroke="none"/><text fill="#000000" stroke="none" font-family="Arial" font-size="13px" font-style="normal" font-weight="bold" text-decoration="none" x="58.641357421875" y="275.5">JavaGradleDirStructGenerator</text></g></g><g transform="translate(-6,-118) scale(1,1)"><rect fill="#ffffff" stroke="none" x="264" y="256" width="196.12890625" height="44"/></g><g transform="translate(-6,-118) scale(1,1)"><path fill="none" stroke="#000000" d="M 264 256 L 460.12890625 256 L 460.12890625 300 L 264 300 L 264 256 Z Z" stroke-miterlimit="10"/></g><g transform="translate(-6,-118) scale(1,1)"><g><path fill="none" stroke="none"/><text fill="#000000" stroke="none" font-family="Arial" font-size="13px" font-style="normal" font-weight="bold" text-decoration="none" x="274.279541015625" y="275.5">JavaMavenDirStructGenerator</text></g></g><g transform="translate(-6,-118) scale(1,1)"><path fill="none" stroke="#000000" d="M 144 256 L 144 240 L 256 240 L 256 204" stroke-miterlimit="10"/></g><g transform="translate(-6,-118) scale(1,1)"><path fill="#FFFFFF" stroke="none" d="M 264.419035512032 224.3253497152483 L 256 204 L 247.58096448796803 224.3253497152483"/></g><g transform="translate(-6,-118) scale(1,1)"><path fill="none" stroke="#000000" d="M 264.419035512032 224.3253497152483 L 256 204 L 247.58096448796803 224.3253497152483 L 264.419035512032 224.3253497152483" stroke-miterlimit="10"/></g><g transform="translate(-6,-118) scale(1,1)"><path fill="none" stroke="#000000" d="M 360 256 L 360 240 L 256 240 L 256 204" stroke-miterlimit="10"/></g><g transform="translate(-6,-118) scale(1,1)"><path fill="#FFFFFF" stroke="none" d="M 264.419035512032 224.3253497152483 L 256 204 L 247.58096448796803 224.3253497152483"/></g><g transform="translate(-6,-118) scale(1,1)"><path fill="none" stroke="#000000" d="M 264.419035512032 224.3253497152483 L 256 204 L 247.58096448796803 224.3253497152483 L 264.419035512032 224.3253497152483" stroke-miterlimit="10"/></g><g transform="translate(-6,-118) scale(1,1)"><rect fill="#ffffff" stroke="none" x="352" y="424" width="144.83984375" height="44"/></g><g transform="translate(-6,-118) scale(1,1)"><path fill="none" stroke="#000000" d="M 352 424 L 496.83984375 424 L 496.83984375 468 L 352 468 L 352 424 Z Z" stroke-miterlimit="10"/></g><g transform="translate(-6,-118) scale(1,1)"><g><path fill="none" stroke="none"/><text fill="#000000" stroke="none" font-family="Arial" font-size="13px" font-style="normal" font-weight="bold" text-decoration="none" x="360.46728515625" y="443.5">JavaPatternGenerator</text></g></g><g transform="translate(-6,-118) scale(1,1)"><path fill="none" stroke="#000000" d="M 427 424 L 427 380" stroke-miterlimit="10"/></g><g transform="translate(-6,-118) scale(1,1)"><path fill="#FFFFFF" stroke="none" d="M 435.419035512032 400.3253497152483 L 427 380 L 418.580964487968 400.3253497152483"/></g><g transform="translate(-6,-118) scale(1,1)"><path fill="none" stroke="#000000" d="M 435.419035512032 400.3253497152483 L 427 380 L 418.580964487968 400.3253497152483 L 435.419035512032 400.3253497152483" stroke-miterlimit="10"/></g><g transform="translate(-6,-118) scale(1,1)"><rect fill="#ffffff" stroke="none" x="579" y="424" width="126.7744140625" height="44"/></g><g transform="translate(-6,-118) scale(1,1)"><path fill="none" stroke="#000000" d="M 579 424 L 705.7744140625 424 L 705.7744140625 468 L 579 468 L 579 424 Z Z" stroke-miterlimit="10"/></g><g transform="translate(-6,-118) scale(1,1)"><g><path fill="none" stroke="none"/><text fill="#000000" stroke="none" font-family="Arial" font-size="13px" font-style="normal" font-weight="bold" text-decoration="none" x="587.8291015625" y="443.5">JavaSourceBuilder</text></g></g><g transform="translate(-6,-118) scale(1,1)"><path fill="none" stroke="#000000" d="M 642 424 L 642 380" stroke-miterlimit="10"/></g><g transform="translate(-6,-118) scale(1,1)"><path fill="#FFFFFF" stroke="none" d="M 650.419035512032 400.3253497152483 L 642 380 L 633.580964487968 400.3253497152483"/></g><g transform="translate(-6,-118) scale(1,1)"><path fill="none" stroke="#000000" d="M 650.419035512032 400.3253497152483 L 642 380 L 633.580964487968 400.3253497152483 L 650.419035512032 400.3253497152483" stroke-miterlimit="10"/></g><g transform="translate(-6,-118) scale(1,1)"><rect fill="#ffffff" stroke="none" x="567" y="160" width="162.84814453125" height="44"/></g><g transform="translate(-6,-118) scale(1,1)"><path fill="none" stroke="#000000" d="M 567 160 L 729.84814453125 160 L 729.84814453125 204 L 567 204 L 567 160 Z Z" stroke-miterlimit="10"/></g><g transform="translate(-6,-118) scale(1,1)"><g><path fill="none" stroke="none"/><text fill="#000000" stroke="none" font-family="Arial" font-size="13px" font-style="italic" font-weight="bold" text-decoration="none" x="577.59375" y="179.5">AbstractLanguagePlugin</text></g></g><g transform="translate(-6,-118) scale(1,1)"><path fill="none" stroke="#000000" d="M 567 182 L 347 182" stroke-miterlimit="10" stroke-dasharray="3"/></g><g transform="translate(-6,-118) scale(1,1)"><path fill="none" stroke="#000000" d="M 357.16267485762415 177.790482243984 L 347 182 L 357.16267485762415 186.209517756016" stroke-miterlimit="10"/></g><g transform="translate(-6,-118) scale(1,1)"><path fill="none" stroke="#000000" d="M 632 160 L 632 128 L 16 128 L 16 360 L 47 360" stroke-miterlimit="10" stroke-dasharray="3"/></g><g transform="translate(-6,-118) scale(1,1)"><path fill="none" stroke="#000000" d="M 36.837325142375846 364.209517756016 L 47 360 L 36.837325142375846 355.790482243984" stroke-miterlimit="10"/></g><g transform="translate(-6,-118) scale(1,1)"><path fill="none" stroke="#000000" d="M 567 192 L 488 192 L 488 336" stroke-miterlimit="10" stroke-dasharray="3"/></g><g transform="translate(-6,-118) scale(1,1)"><path fill="none" stroke="#000000" d="M 483.790482243984 325.83732514237585 L 488 336 L 492.209517756016 325.83732514237585" stroke-miterlimit="10"/></g><g transform="translate(-6,-118) scale(1,1)"><path fill="none" stroke="#000000" d="M 730 182 L 792 182 L 792 368 L 718 368" stroke-miterlimit="10" stroke-dasharray="3"/></g><g transform="translate(-6,-118) scale(1,1)"><path fill="none" stroke="#000000" d="M 728.1626748576241 363.790482243984 L 718 368 L 728.1626748576241 372.209517756016" stroke-miterlimit="10"/></g><g transform="translate(-6,-118) scale(1,1)"><rect fill="#ffffff" stroke="none" x="576" y="256" width="139.03173828125" height="44"/></g><g transform="translate(-6,-118) scale(1,1)"><path fill="none" stroke="#000000" d="M 576 256 L 715.03173828125 256 L 715.03173828125 300 L 576 300 L 576 256 Z Z" stroke-miterlimit="10"/></g><g transform="translate(-6,-118) scale(1,1)"><g><path fill="none" stroke="none"/><text fill="#000000" stroke="none" font-family="Arial" font-size="13px" font-style="normal" font-weight="bold" text-decoration="none" x="584.79736328125" y="275.5">JavaLanguagePlugin</text></g></g><g transform="translate(-6,-118) scale(1,1)"><path fill="none" stroke="#000000" d="M 647 256 L 647 204" stroke-miterlimit="10"/></g><g transform="translate(-6,-118) scale(1,1)"><path fill="#FFFFFF" stroke="none" d="M 655.419035512032 224.3253497152483 L 647 204 L 638.580964487968 224.3253497152483"/></g><g transform="translate(-6,-118) scale(1,1)"><path fill="none" stroke="#000000" d="M 655.419035512032 224.3253497152483 L 647 204 L 638.580964487968 224.3253497152483 L 655.419035512032 224.3253497152483" stroke-miterlimit="10"/></g><g transform="translate(-6,-118) scale(1,1)"><path fill="none" stroke="#000000" d="M 730 168 L 832 168" stroke-miterlimit="10"/></g><g transform="translate(-6,-118) scale(1,1)"><path fill="#FFFFFF" stroke="none" d="M 821.8373251423759 172.209517756016 L 832 168 L 821.8373251423758 163.790482243984 L 810 168"/></g><g transform="translate(-6,-118) scale(1,1)"><path fill="none" stroke="#000000" d="M 821.8373251423759 172.209517756016 L 832 168 L 821.8373251423758 163.790482243984 L 810 168 L 821.8373251423759 172.209517756016" stroke-miterlimit="10"/></g><g transform="translate(-6,-118) scale(1,1)"><rect fill="#ffffff" stroke="none" x="384" y="528" width="152.025390625" height="57"/></g><g transform="translate(-6,-118) scale(1,1)"><path fill="none" stroke="#000000" d="M 384 528 L 536.025390625 528 L 536.025390625 585 L 384 585 L 384 528 Z Z" stroke-miterlimit="10"/></g><g transform="translate(-6,-118) scale(1,1)"><path fill="none" stroke="#000000" d="M 384 553 L 536.025390625 553" stroke-miterlimit="10"/></g><g transform="translate(-6,-118) scale(1,1)"><path fill="none" stroke="#000000" d="M 384 563 L 536.025390625 563" stroke-miterlimit="10"/></g><g transform="translate(-6,-118) scale(1,1)"><g><path fill="none" stroke="none"/><text fill="#000000" stroke="none" font-family="Arial" font-size="13px" font-style="italic" font-weight="bold" text-decoration="none" x="395.7109375" y="547.5">AbstractArtifactBuilder</text></g></g><g transform="translate(-6,-118) scale(1,1)"><g><path fill="none" stroke="none"/><text fill="#000000" stroke="none" font-family="Arial" font-size="13px" font-style="italic" font-weight="normal" text-decoration="none" x="389" y="580.5">+build()</text></g></g><g transform="translate(-6,-118) scale(1,1)"><rect fill="#ffffff" stroke="none" x="16" y="528" width="283.18701171875" height="57"/></g><g transform="translate(-6,-118) scale(1,1)"><path fill="none" stroke="#000000" d="M 16 528 L 299.18701171875 528 L 299.18701171875 585 L 16 585 L 16 528 Z Z" stroke-miterlimit="10"/></g><g transform="translate(-6,-118) scale(1,1)"><path fill="none" stroke="#000000" d="M 16 553 L 299.18701171875 553" stroke-miterlimit="10"/></g><g transform="translate(-6,-118) scale(1,1)"><path fill="none" stroke="#000000" d="M 16 563 L 299.18701171875 563" stroke-miterlimit="10"/></g><g transform="translate(-6,-118) scale(1,1)"><g><path fill="none" stroke="none"/><text fill="#000000" stroke="none" font-family="Arial" font-size="13px" font-style="normal" font-weight="bold" text-decoration="none" x="95.462646484375" y="547.5">ArtifactBuilderFactory</text></g></g><g transform="translate(-6,-118) scale(1,1)"><g><path fill="none" stroke="none"/><text fill="#000000" stroke="none" font-family="Arial" font-size="13px" font-style="normal" font-weight="normal" text-decoration="none" x="21" y="580.5">+create(m: Measurable): AbstractArtifactBuilder</text></g></g><g transform="translate(-6,-118) scale(1,1)"><rect fill="#ffffff" stroke="none" x="560" y="808" width="97.8544921875" height="57"/></g><g transform="translate(-6,-118) scale(1,1)"><path fill="none" stroke="#000000" d="M 560 808 L 657.8544921875 808 L 657.8544921875 865 L 560 865 L 560 808 Z Z" stroke-miterlimit="10"/></g><g transform="translate(-6,-118) scale(1,1)"><path fill="none" stroke="#000000" d="M 560 833 L 657.8544921875 833" stroke-miterlimit="10"/></g><g transform="translate(-6,-118) scale(1,1)"><path fill="none" stroke="#000000" d="M 560 843 L 657.8544921875 843" stroke-miterlimit="10"/></g><g transform="translate(-6,-118) scale(1,1)"><g><path fill="none" stroke="none"/><text fill="#000000" stroke="none" font-family="Arial" font-size="13px" font-style="normal" font-weight="bold" text-decoration="none" x="568.464111328125" y="827.5">ProjectBuilder</text></g></g><g transform="translate(-6,-118) scale(1,1)"><g><path fill="none" stroke="none"/><text fill="#000000" stroke="none" font-family="Arial" font-size="13px" font-style="normal" font-weight="normal" text-decoration="none" x="565" y="860.5">+build()</text></g></g><g transform="translate(-6,-118) scale(1,1)"><rect fill="#ffffff" stroke="none" x="512" y="728" width="100.03173828125" height="57"/></g><g transform="translate(-6,-118) scale(1,1)"><path fill="none" stroke="#000000" d="M 512 728 L 612.03173828125 728 L 612.03173828125 785 L 512 785 L 512 728 Z Z" stroke-miterlimit="10"/></g><g transform="translate(-6,-118) scale(1,1)"><path fill="none" stroke="#000000" d="M 512 753 L 612.03173828125 753" stroke-miterlimit="10"/></g><g transform="translate(-6,-118) scale(1,1)"><path fill="none" stroke="#000000" d="M 512 763 L 612.03173828125 763" stroke-miterlimit="10"/></g><g transform="translate(-6,-118) scale(1,1)"><g><path fill="none" stroke="none"/><text fill="#000000" stroke="none" font-family="Arial" font-size="13px" font-style="normal" font-weight="bold" text-decoration="none" x="520.11181640625" y="747.5">SystemBuilder</text></g></g><g transform="translate(-6,-118) scale(1,1)"><g><path fill="none" stroke="none"/><text fill="#000000" stroke="none" font-family="Arial" font-size="13px" font-style="normal" font-weight="normal" text-decoration="none" x="517" y="780.5">+build()</text></g></g><g transform="translate(-6,-118) scale(1,1)"><rect fill="#ffffff" stroke="none" x="624" y="728" width="99.2763671875" height="57"/></g><g transform="translate(-6,-118) scale(1,1)"><path fill="none" stroke="#000000" d="M 624 728 L 723.2763671875 728 L 723.2763671875 785 L 624 785 L 624 728 Z Z" stroke-miterlimit="10"/></g><g transform="translate(-6,-118) scale(1,1)"><path fill="none" stroke="#000000" d="M 624 753 L 723.2763671875 753" stroke-miterlimit="10"/></g><g transform="translate(-6,-118) scale(1,1)"><path fill="none" stroke="#000000" d="M 624 763 L 723.2763671875 763" stroke-miterlimit="10"/></g><g transform="translate(-6,-118) scale(1,1)"><g><path fill="none" stroke="none"/><text fill="#000000" stroke="none" font-family="Arial" font-size="13px" font-style="normal" font-weight="bold" text-decoration="none" x="632.08642578125" y="747.5">ModuleBuilder</text></g></g><g transform="translate(-6,-118) scale(1,1)"><g><path fill="none" stroke="none"/><text fill="#000000" stroke="none" font-family="Arial" font-size="13px" font-style="normal" font-weight="normal" text-decoration="none" x="629" y="780.5">+build()</text></g></g><g transform="translate(-6,-118) scale(1,1)"><rect fill="#ffffff" stroke="none" x="672" y="808" width="126.05078125" height="57"/></g><g transform="translate(-6,-118) scale(1,1)"><path fill="none" stroke="#000000" d="M 672 808 L 798.05078125 808 L 798.05078125 865 L 672 865 L 672 808 Z Z" stroke-miterlimit="10"/></g><g transform="translate(-6,-118) scale(1,1)"><path fill="none" stroke="#000000" d="M 672 833 L 798.05078125 833" stroke-miterlimit="10"/></g><g transform="translate(-6,-118) scale(1,1)"><path fill="none" stroke="#000000" d="M 672 843 L 798.05078125 843" stroke-miterlimit="10"/></g><g transform="translate(-6,-118) scale(1,1)"><g><path fill="none" stroke="none"/><text fill="#000000" stroke="none" font-family="Arial" font-size="13px" font-style="normal" font-weight="bold" text-decoration="none" x="680.108642578125" y="827.5">NamespaceBuilder</text></g></g><g transform="translate(-6,-118) scale(1,1)"><g><path fill="none" stroke="none"/><text fill="#000000" stroke="none" font-family="Arial" font-size="13px" font-style="normal" font-weight="normal" text-decoration="none" x="677" y="860.5">+build()</text></g></g><g transform="translate(-6,-118) scale(1,1)"><rect fill="#ffffff" stroke="none" x="736" y="728" width="76.17724609375" height="57"/></g><g transform="translate(-6,-118) scale(1,1)"><path fill="none" stroke="#000000" d="M 736 728 L 812.17724609375 728 L 812.17724609375 785 L 736 785 L 736 728 Z Z" stroke-miterlimit="10"/></g><g transform="translate(-6,-118) scale(1,1)"><path fill="none" stroke="#000000" d="M 736 753 L 812.17724609375 753" stroke-miterlimit="10"/></g><g transform="translate(-6,-118) scale(1,1)"><path fill="none" stroke="#000000" d="M 736 763 L 812.17724609375 763" stroke-miterlimit="10"/></g><g transform="translate(-6,-118) scale(1,1)"><g><path fill="none" stroke="none"/><text fill="#000000" stroke="none" font-family="Arial" font-size="13px" font-style="normal" font-weight="bold" text-decoration="none" x="743.3818359375" y="747.5">FileBuilder</text></g></g><g transform="translate(-6,-118) scale(1,1)"><g><path fill="none" stroke="none"/><text fill="#000000" stroke="none" font-family="Arial" font-size="13px" font-style="normal" font-weight="normal" text-decoration="none" x="741" y="780.5">+build()</text></g></g><g transform="translate(-6,-118) scale(1,1)"><rect fill="#ffffff" stroke="none" x="832" y="728" width="83.15966796875" height="57"/></g><g transform="translate(-6,-118) scale(1,1)"><path fill="none" stroke="#000000" d="M 832 728 L 915.15966796875 728 L 915.15966796875 785 L 832 785 L 832 728 Z Z" stroke-miterlimit="10"/></g><g transform="translate(-6,-118) scale(1,1)"><path fill="none" stroke="#000000" d="M 832 753 L 915.15966796875 753" stroke-miterlimit="10"/></g><g transform="translate(-6,-118) scale(1,1)"><path fill="none" stroke="#000000" d="M 832 763 L 915.15966796875 763" stroke-miterlimit="10"/></g><g transform="translate(-6,-118) scale(1,1)"><g><path fill="none" stroke="none"/><text fill="#000000" stroke="none" font-family="Arial" font-size="13px" font-style="normal" font-weight="bold" text-decoration="none" x="839.2548828125" y="747.5">TypeBuilder</text></g></g><g transform="translate(-6,-118) scale(1,1)"><g><path fill="none" stroke="none"/><text fill="#000000" stroke="none" font-family="Arial" font-size="13px" font-style="normal" font-weight="normal" text-decoration="none" x="837" y="780.5">+build()</text></g></g><g transform="translate(-6,-118) scale(1,1)"><rect fill="#ffffff" stroke="none" x="113" y="632" width="104.36083984375" height="44"/></g><g transform="translate(-6,-118) scale(1,1)"><path fill="none" stroke="#000000" d="M 113 632 L 217.36083984375 632 L 217.36083984375 676 L 113 676 L 113 632 Z Z" stroke-miterlimit="10"/></g><g transform="translate(-6,-118) scale(1,1)"><g><path fill="none" stroke="none"/><text fill="#000000" stroke="none" font-family="Arial" font-size="13px" font-style="italic" font-weight="bold" text-decoration="none" x="121.108642578125" y="651.5">MemberBuilder</text></g></g><g transform="translate(-6,-118) scale(1,1)"><rect fill="#ffffff" stroke="none" x="376" y="728" width="121.68359375" height="57"/></g><g transform="translate(-6,-118) scale(1,1)"><path fill="none" stroke="#000000" d="M 376 728 L 497.68359375 728 L 497.68359375 785 L 376 785 L 376 728 Z Z" stroke-miterlimit="10"/></g><g transform="translate(-6,-118) scale(1,1)"><path fill="none" stroke="#000000" d="M 376 753 L 497.68359375 753" stroke-miterlimit="10"/></g><g transform="translate(-6,-118) scale(1,1)"><path fill="none" stroke="#000000" d="M 376 763 L 497.68359375 763" stroke-miterlimit="10"/></g><g transform="translate(-6,-118) scale(1,1)"><g><path fill="none" stroke="none"/><text fill="#000000" stroke="none" font-family="Arial" font-size="13px" font-style="normal" font-weight="bold" text-decoration="none" x="385.175048828125" y="747.5">PatternInstBuilder</text></g></g><g transform="translate(-6,-118) scale(1,1)"><g><path fill="none" stroke="none"/><text fill="#000000" stroke="none" font-family="Arial" font-size="13px" font-style="normal" font-weight="normal" text-decoration="none" x="381" y="780.5">+build()</text></g></g><g transform="translate(-6,-118) scale(1,1)"><rect fill="#ffffff" stroke="none" x="408" y="808" width="134.68359375" height="57"/></g><g transform="translate(-6,-118) scale(1,1)"><path fill="none" stroke="#000000" d="M 408 808 L 542.68359375 808 L 542.68359375 865 L 408 865 L 408 808 Z Z" stroke-miterlimit="10"/></g><g transform="translate(-6,-118) scale(1,1)"><path fill="none" stroke="#000000" d="M 408 833 L 542.68359375 833" stroke-miterlimit="10"/></g><g transform="translate(-6,-118) scale(1,1)"><path fill="none" stroke="#000000" d="M 408 843 L 542.68359375 843" stroke-miterlimit="10"/></g><g transform="translate(-6,-118) scale(1,1)"><g><path fill="none" stroke="none"/><text fill="#000000" stroke="none" font-family="Arial" font-size="13px" font-style="normal" font-weight="bold" text-decoration="none" x="417.168701171875" y="827.5">PatternChainBuilder</text></g></g><g transform="translate(-6,-118) scale(1,1)"><g><path fill="none" stroke="none"/><text fill="#000000" stroke="none" font-family="Arial" font-size="13px" font-style="normal" font-weight="normal" text-decoration="none" x="413" y="860.5">+build()</text></g></g><g transform="translate(-6,-118) scale(1,1)"><path fill="none" stroke="#000000" d="M 300 556 L 383 556" stroke-miterlimit="10" stroke-dasharray="3"/></g><g transform="translate(-6,-118) scale(1,1)"><path fill="none" stroke="#000000" d="M 372.83732514237585 560.209517756016 L 383 556 L 372.83732514237585 551.790482243984" stroke-miterlimit="10"/></g><g transform="translate(-6,-118) scale(1,1)"><rect fill="#ffffff" stroke="none" x="568" y="632" width="166.4599609375" height="44"/></g><g transform="translate(-6,-118) scale(1,1)"><path fill="none" stroke="#000000" d="M 568 632 L 734.4599609375 632 L 734.4599609375 676 L 568 676 L 568 632 Z Z" stroke-miterlimit="10"/></g><g transform="translate(-6,-118) scale(1,1)"><g><path fill="none" stroke="none"/><text fill="#000000" stroke="none" font-family="Arial" font-size="13px" font-style="italic" font-weight="bold" text-decoration="none" x="579.701416015625" y="651.5">CompositeArtifactBuilder</text></g></g><g transform="translate(-6,-118) scale(1,1)"><path fill="none" stroke="#000000" d="M 160 632 L 160 616 L 456 616 L 456 585" stroke-miterlimit="10"/></g><g transform="translate(-6,-118) scale(1,1)"><path fill="#FFFFFF" stroke="none" d="M 464.419035512032 605.3253497152483 L 456 585 L 447.580964487968 605.3253497152483"/></g><g transform="translate(-6,-118) scale(1,1)"><path fill="none" stroke="#000000" d="M 464.419035512032 605.3253497152483 L 456 585 L 447.580964487968 605.3253497152483 L 464.419035512032 605.3253497152483" stroke-miterlimit="10"/></g><g transform="translate(-6,-118) scale(1,1)"><path fill="none" stroke="#000000" d="M 624 632 L 624 616 L 456 616 L 456 585" stroke-miterlimit="10"/></g><g transform="translate(-6,-118) scale(1,1)"><path fill="#FFFFFF" stroke="none" d="M 464.419035512032 605.3253497152483 L 456 585 L 447.580964487968 605.3253497152483"/></g><g transform="translate(-6,-118) scale(1,1)"><path fill="none" stroke="#000000" d="M 464.419035512032 605.3253497152483 L 456 585 L 447.580964487968 605.3253497152483 L 464.419035512032 605.3253497152483" stroke-miterlimit="10"/></g><g transform="translate(-6,-118) scale(1,1)"><path fill="none" stroke="#000000" d="M 436 728 L 436 704 L 656 704 L 656 676" stroke-miterlimit="10"/></g><g transform="translate(-6,-118) scale(1,1)"><path fill="#FFFFFF" stroke="none" d="M 664.419035512032 696.3253497152483 L 656 676 L 647.580964487968 696.3253497152483"/></g><g transform="translate(-6,-118) scale(1,1)"><path fill="none" stroke="#000000" d="M 664.419035512032 696.3253497152483 L 656 676 L 647.580964487968 696.3253497152483 L 664.419035512032 696.3253497152483" stroke-miterlimit="10"/></g><g transform="translate(-6,-118) scale(1,1)"><path fill="none" stroke="#000000" d="M 560 728 L 560 704 L 656 704 L 656 676" stroke-miterlimit="10"/></g><g transform="translate(-6,-118) scale(1,1)"><path fill="#FFFFFF" stroke="none" d="M 664.419035512032 696.3253497152483 L 656 676 L 647.580964487968 696.3253497152483"/></g><g transform="translate(-6,-118) scale(1,1)"><path fill="none" stroke="#000000" d="M 664.419035512032 696.3253497152483 L 656 676 L 647.580964487968 696.3253497152483 L 664.419035512032 696.3253497152483" stroke-miterlimit="10"/></g><g transform="translate(-6,-118) scale(1,1)"><path fill="none" stroke="#000000" d="M 656 728 L 656 676" stroke-miterlimit="10"/></g><g transform="translate(-6,-118) scale(1,1)"><path fill="#FFFFFF" stroke="none" d="M 664.419035512032 696.3253497152483 L 656 676 L 647.580964487968 696.3253497152483"/></g><g transform="translate(-6,-118) scale(1,1)"><path fill="none" stroke="#000000" d="M 664.419035512032 696.3253497152483 L 656 676 L 647.580964487968 696.3253497152483 L 664.419035512032 696.3253497152483" stroke-miterlimit="10"/></g><g transform="translate(-6,-118) scale(1,1)"><path fill="none" stroke="#000000" d="M 768 728 L 768 704 L 656 704 L 656 676" stroke-miterlimit="10"/></g><g transform="translate(-6,-118) scale(1,1)"><path fill="#FFFFFF" stroke="none" d="M 664.419035512032 696.3253497152483 L 656 676 L 647.580964487968 696.3253497152483"/></g><g transform="translate(-6,-118) scale(1,1)"><path fill="none" stroke="#000000" d="M 664.419035512032 696.3253497152483 L 656 676 L 647.580964487968 696.3253497152483 L 664.419035512032 696.3253497152483" stroke-miterlimit="10"/></g><g transform="translate(-6,-118) scale(1,1)"><path fill="none" stroke="#000000" d="M 864 728 L 864 704 L 656 704 L 656 676" stroke-miterlimit="10"/></g><g transform="translate(-6,-118) scale(1,1)"><path fill="#FFFFFF" stroke="none" d="M 664.419035512032 696.3253497152483 L 656 676 L 647.580964487968 696.3253497152483"/></g><g transform="translate(-6,-118) scale(1,1)"><path fill="none" stroke="#000000" d="M 664.419035512032 696.3253497152483 L 656 676 L 647.580964487968 696.3253497152483 L 664.419035512032 696.3253497152483" stroke-miterlimit="10"/></g><g transform="translate(-6,-118) scale(1,1)"><path fill="none" stroke="#000000" d="M 504 808 L 504 704 L 656 704 L 656 676" stroke-miterlimit="10"/></g><g transform="translate(-6,-118) scale(1,1)"><path fill="#FFFFFF" stroke="none" d="M 664.419035512032 696.3253497152483 L 656 676 L 647.580964487968 696.3253497152483"/></g><g transform="translate(-6,-118) scale(1,1)"><path fill="none" stroke="#000000" d="M 664.419035512032 696.3253497152483 L 656 676 L 647.580964487968 696.3253497152483 L 664.419035512032 696.3253497152483" stroke-miterlimit="10"/></g><g transform="translate(-6,-118) scale(1,1)"><path fill="none" stroke="#000000" d="M 616 808 L 616 704 L 656 704 L 656 676" stroke-miterlimit="10"/></g><g transform="translate(-6,-118) scale(1,1)"><path fill="#FFFFFF" stroke="none" d="M 664.419035512032 696.3253497152483 L 656 676 L 647.580964487968 696.3253497152483"/></g><g transform="translate(-6,-118) scale(1,1)"><path fill="none" stroke="#000000" d="M 664.419035512032 696.3253497152483 L 656 676 L 647.580964487968 696.3253497152483 L 664.419035512032 696.3253497152483" stroke-miterlimit="10"/></g><g transform="translate(-6,-118) scale(1,1)"><path fill="none" stroke="#000000" d="M 728 808 L 728 704 L 656 704 L 656 676" stroke-miterlimit="10"/></g><g transform="translate(-6,-118) scale(1,1)"><path fill="#FFFFFF" stroke="none" d="M 664.419035512032 696.3253497152483 L 656 676 L 647.580964487968 696.3253497152483"/></g><g transform="translate(-6,-118) scale(1,1)"><path fill="none" stroke="#000000" d="M 664.419035512032 696.3253497152483 L 656 676 L 647.580964487968 696.3253497152483 L 664.419035512032 696.3253497152483" stroke-miterlimit="10"/></g><g transform="translate(-6,-118) scale(1,1)"><rect fill="#ffffff" stroke="none" x="16" y="728" width="84.1181640625" height="57"/></g><g transform="translate(-6,-118) scale(1,1)"><path fill="none" stroke="#000000" d="M 16 728 L 100.1181640625 728 L 100.1181640625 785 L 16 785 L 16 728 Z Z" stroke-miterlimit="10"/></g><g transform="translate(-6,-118) scale(1,1)"><path fill="none" stroke="#000000" d="M 16 753 L 100.1181640625 753" stroke-miterlimit="10"/></g><g transform="translate(-6,-118) scale(1,1)"><path fill="none" stroke="#000000" d="M 16 763 L 100.1181640625 763" stroke-miterlimit="10"/></g><g transform="translate(-6,-118) scale(1,1)"><g><path fill="none" stroke="none"/><text fill="#000000" stroke="none" font-family="Arial" font-size="13px" font-style="normal" font-weight="bold" text-decoration="none" x="23.7373046875" y="747.5">FieldBuilder</text></g></g><g transform="translate(-6,-118) scale(1,1)"><g><path fill="none" stroke="none"/><text fill="#000000" stroke="none" font-family="Arial" font-size="13px" font-style="normal" font-weight="normal" text-decoration="none" x="21" y="780.5">+build()</text></g></g><g transform="translate(-6,-118) scale(1,1)"><rect fill="#ffffff" stroke="none" x="116" y="728" width="99.99365234375" height="57"/></g><g transform="translate(-6,-118) scale(1,1)"><path fill="none" stroke="#000000" d="M 116 728 L 215.99365234375 728 L 215.99365234375 785 L 116 785 L 116 728 Z Z" stroke-miterlimit="10"/></g><g transform="translate(-6,-118) scale(1,1)"><path fill="none" stroke="#000000" d="M 116 753 L 215.99365234375 753" stroke-miterlimit="10"/></g><g transform="translate(-6,-118) scale(1,1)"><path fill="none" stroke="#000000" d="M 116 763 L 215.99365234375 763" stroke-miterlimit="10"/></g><g transform="translate(-6,-118) scale(1,1)"><g><path fill="none" stroke="none"/><text fill="#000000" stroke="none" font-family="Arial" font-size="13px" font-style="normal" font-weight="bold" text-decoration="none" x="124.083251953125" y="747.5">MethodBuilder</text></g></g><g transform="translate(-6,-118) scale(1,1)"><g><path fill="none" stroke="none"/><text fill="#000000" stroke="none" font-family="Arial" font-size="13px" font-style="normal" font-weight="normal" text-decoration="none" x="121" y="780.5">+build()</text></g></g><g transform="translate(-6,-118) scale(1,1)"><rect fill="#ffffff" stroke="none" x="232" y="728" width="92.79541015625" height="57"/></g><g transform="translate(-6,-118) scale(1,1)"><path fill="none" stroke="#000000" d="M 232 728 L 324.79541015625 728 L 324.79541015625 785 L 232 785 L 232 728 Z Z" stroke-miterlimit="10"/></g><g transform="translate(-6,-118) scale(1,1)"><path fill="none" stroke="#000000" d="M 232 753 L 324.79541015625 753" stroke-miterlimit="10"/></g><g transform="translate(-6,-118) scale(1,1)"><path fill="none" stroke="#000000" d="M 232 763 L 324.79541015625 763" stroke-miterlimit="10"/></g><g transform="translate(-6,-118) scale(1,1)"><g><path fill="none" stroke="none"/><text fill="#000000" stroke="none" font-family="Arial" font-size="13px" font-style="normal" font-weight="bold" text-decoration="none" x="240.4609375" y="747.5">LiteralBuilder</text></g></g><g transform="translate(-6,-118) scale(1,1)"><g><path fill="none" stroke="none"/><text fill="#000000" stroke="none" font-family="Arial" font-size="13px" font-style="normal" font-weight="normal" text-decoration="none" x="237" y="780.5">+build()</text></g></g><g transform="translate(-6,-118) scale(1,1)"><rect fill="#ffffff" stroke="none" x="48" y="840" width="110.130859375" height="57"/></g><g transform="translate(-6,-118) scale(1,1)"><path fill="none" stroke="#000000" d="M 48 840 L 158.130859375 840 L 158.130859375 897 L 48 897 L 48 840 Z Z" stroke-miterlimit="10"/></g><g transform="translate(-6,-118) scale(1,1)"><path fill="none" stroke="#000000" d="M 48 865 L 158.130859375 865" stroke-miterlimit="10"/></g><g transform="translate(-6,-118) scale(1,1)"><path fill="none" stroke="#000000" d="M 48 875 L 158.130859375 875" stroke-miterlimit="10"/></g><g transform="translate(-6,-118) scale(1,1)"><g><path fill="none" stroke="none"/><text fill="#000000" stroke="none" font-family="Arial" font-size="13px" font-style="normal" font-weight="bold" text-decoration="none" x="57.1845703125" y="859.5">InitializerBuilder</text></g></g><g transform="translate(-6,-118) scale(1,1)"><g><path fill="none" stroke="none"/><text fill="#000000" stroke="none" font-family="Arial" font-size="13px" font-style="normal" font-weight="normal" text-decoration="none" x="53" y="892.5">+build()</text></g></g><g transform="translate(-6,-118) scale(1,1)"><rect fill="#ffffff" stroke="none" x="176" y="840" width="128.1708984375" height="57"/></g><g transform="translate(-6,-118) scale(1,1)"><path fill="none" stroke="#000000" d="M 176 840 L 304.1708984375 840 L 304.1708984375 897 L 176 897 L 176 840 Z Z" stroke-miterlimit="10"/></g><g transform="translate(-6,-118) scale(1,1)"><path fill="none" stroke="#000000" d="M 176 865 L 304.1708984375 865" stroke-miterlimit="10"/></g><g transform="translate(-6,-118) scale(1,1)"><path fill="none" stroke="#000000" d="M 176 875 L 304.1708984375 875" stroke-miterlimit="10"/></g><g transform="translate(-6,-118) scale(1,1)"><g><path fill="none" stroke="none"/><text fill="#000000" stroke="none" font-family="Arial" font-size="13px" font-style="normal" font-weight="bold" text-decoration="none" x="186.25732421875" y="859.5">ConstructorBuilder</text></g></g><g transform="translate(-6,-118) scale(1,1)"><g><path fill="none" stroke="none"/><text fill="#000000" stroke="none" font-family="Arial" font-size="13px" font-style="normal" font-weight="normal" text-decoration="none" x="181" y="892.5">+build()</text></g></g><g transform="translate(-6,-118) scale(1,1)"><path fill="none" stroke="#000000" d="M 56 728 L 56 704 L 160 704 L 160 676" stroke-miterlimit="10"/></g><g transform="translate(-6,-118) scale(1,1)"><path fill="#FFFFFF" stroke="none" d="M 168.41903551203197 696.3253497152483 L 160 676 L 151.58096448796803 696.3253497152483"/></g><g transform="translate(-6,-118) scale(1,1)"><path fill="none" stroke="#000000" d="M 168.41903551203197 696.3253497152483 L 160 676 L 151.58096448796803 696.3253497152483 L 168.41903551203197 696.3253497152483" stroke-miterlimit="10"/></g><g transform="translate(-6,-118) scale(1,1)"><path fill="none" stroke="#000000" d="M 160 728 L 160 676" stroke-miterlimit="10"/></g><g transform="translate(-6,-118) scale(1,1)"><path fill="#FFFFFF" stroke="none" d="M 168.41903551203197 696.3253497152483 L 160 676 L 151.58096448796803 696.3253497152483"/></g><g transform="translate(-6,-118) scale(1,1)"><path fill="none" stroke="#000000" d="M 168.41903551203197 696.3253497152483 L 160 676 L 151.58096448796803 696.3253497152483 L 168.41903551203197 696.3253497152483" stroke-miterlimit="10"/></g><g transform="translate(-6,-118) scale(1,1)"><path fill="none" stroke="#000000" d="M 280 728 L 280 704 L 160 704 L 160 676" stroke-miterlimit="10"/></g><g transform="translate(-6,-118) scale(1,1)"><path fill="#FFFFFF" stroke="none" d="M 168.41903551203197 696.3253497152483 L 160 676 L 151.58096448796803 696.3253497152483"/></g><g transform="translate(-6,-118) scale(1,1)"><path fill="none" stroke="#000000" d="M 168.41903551203197 696.3253497152483 L 160 676 L 151.58096448796803 696.3253497152483 L 168.41903551203197 696.3253497152483" stroke-miterlimit="10"/></g><g transform="translate(-6,-118) scale(1,1)"><path fill="none" stroke="#000000" d="M 96 840 L 96 816 L 160 816 L 160 785" stroke-miterlimit="10"/></g><g transform="translate(-6,-118) scale(1,1)"><path fill="#FFFFFF" stroke="none" d="M 168.41903551203197 805.3253497152483 L 160 785 L 151.58096448796803 805.3253497152483"/></g><g transform="translate(-6,-118) scale(1,1)"><path fill="none" stroke="#000000" d="M 168.41903551203197 805.3253497152483 L 160 785 L 151.58096448796803 805.3253497152483 L 168.41903551203197 805.3253497152483" stroke-miterlimit="10"/></g><g transform="translate(-6,-118) scale(1,1)"><path fill="none" stroke="#000000" d="M 240 840 L 240 816 L 160 816 L 160 785" stroke-miterlimit="10"/></g><g transform="translate(-6,-118) scale(1,1)"><path fill="#FFFFFF" stroke="none" d="M 168.41903551203197 805.3253497152483 L 160 785 L 151.58096448796803 805.3253497152483"/></g><g transform="translate(-6,-118) scale(1,1)"><path fill="none" stroke="#000000" d="M 168.41903551203197 805.3253497152483 L 160 785 L 151.58096448796803 805.3253497152483 L 168.41903551203197 805.3253497152483" stroke-miterlimit="10"/></g><g transform="translate(-6,-118) scale(1,1)"><rect fill="#ffffff" stroke="none" x="760" y="528" width="80.53173828125" height="48"/></g><g transform="translate(-6,-118) scale(1,1)"><path fill="none" stroke="#000000" d="M 760 528 L 840.53173828125 528 L 840.53173828125 576 L 760 576 L 760 528 Z Z" stroke-miterlimit="10"/></g><g transform="translate(-6,-118) scale(1,1)"><g><path fill="none" stroke="none"/><text fill="#000000" stroke="none" font-family="Arial" font-size="13px" font-style="normal" font-weight="normal" text-decoration="none" x="768.10546875" y="545.5">«interface»</text></g></g><g transform="translate(-6,-118) scale(1,1)"><g><path fill="none" stroke="none"/><text fill="#000000" stroke="none" font-family="Arial" font-size="13px" font-style="normal" font-weight="bold" text-decoration="none" x="766.302734375" y="560.5">Measurable</text></g></g><g transform="translate(-6,-118) scale(1,1)"><path fill="none" stroke="#000000" d="M 536 536 L 760 536" stroke-miterlimit="10"/></g><g transform="translate(-6,-118) scale(1,1)"><path fill="none" stroke="#000000" d="M 749.8373251423759 540.209517756016 L 760 536 L 749.8373251423758 531.790482243984" stroke-miterlimit="10"/></g><g transform="translate(-6,-118) scale(1,1)"><g><path fill="none" stroke="none"/><text fill="#000000" stroke="none" font-family="Arial" font-size="13px" font-style="normal" font-weight="normal" text-decoration="none" x="717.5" y="527.5">+data</text></g></g><g transform="translate(-6,-118) scale(1,1)"><g><path fill="none" stroke="none"/><text fill="#000000" stroke="none" font-family="Arial" font-size="13px" font-style="normal" font-weight="normal" text-decoration="none" x="734.5" y="554.5">1</text></g></g><g transform="translate(-6,-118) scale(1,1)"><path fill="none" stroke="#000000" d="M 456 528 L 456 496 L 640 496 L 640 468" stroke-miterlimit="10"/></g><g transform="translate(-6,-118) scale(1,1)"><path fill="#FFFFFF" stroke="none" d="M 644.209517756016 478.16267485762415 L 640 468 L 635.790482243984 478.16267485762415 L 640 490"/></g><g transform="translate(-6,-118) scale(1,1)"><path fill="none" stroke="#000000" d="M 644.209517756016 478.16267485762415 L 640 468 L 635.790482243984 478.16267485762415 L 640 490 L 644.209517756016 478.16267485762415" stroke-miterlimit="10"/></g><g transform="translate(-6,-118) scale(1,1)"><path fill="none" stroke="#000000" d="M 451.790482243984 517.8373251423759 L 456 528 L 460.209517756016 517.8373251423759" stroke-miterlimit="10"/></g><g transform="translate(-6,-118) scale(1,1)"><g><path fill="none" stroke="none"/><text fill="#000000" stroke="none" font-family="Arial" font-size="13px" font-style="normal" font-weight="normal" text-decoration="none" x="400.13134765625" y="524.5">-builders</text></g></g><g transform="translate(-6,-118) scale(1,1)"><g><path fill="none" stroke="none"/><text fill="#000000" stroke="none" font-family="Arial" font-size="13px" font-style="normal" font-weight="normal" text-decoration="none" x="465.5" y="524.5">*</text></g></g><g transform="translate(-6,-118) scale(1,1)"><path fill="none" stroke="#000000" d="M 536 568 L 656 568 L 656 632" stroke-miterlimit="10"/></g><g transform="translate(-6,-118) scale(1,1)"><path fill="#000000" stroke="none" d="M 651.790482243984 621.8373251423759 L 656 632 L 660.209517756016 621.8373251423759 L 656 610"/></g><g transform="translate(-6,-118) scale(1,1)"><path fill="none" stroke="#000000" d="M 651.790482243984 621.8373251423759 L 656 632 L 660.209517756016 621.8373251423759 L 656 610 L 651.790482243984 621.8373251423759" stroke-miterlimit="10"/></g><g transform="translate(-6,-118) scale(1,1)"><g><path fill="none" stroke="none"/><text fill="#000000" stroke="none" font-family="Arial" font-size="13px" font-style="normal" font-weight="normal" text-decoration="none" x="543.680908203125" y="559.5">#children</text></g></g><g transform="translate(-6,-118) scale(1,1)"><g><path fill="none" stroke="none"/><text fill="#000000" stroke="none" font-family="Arial" font-size="13px" font-style="normal" font-weight="normal" text-decoration="none" x="543.5" y="587.5">*</text></g></g><g transform="translate(-6,-118) scale(1,1)"><g><path fill="none" stroke="none"/><text fill="#000000" stroke="none" font-family="Arial" font-size="13px" font-style="normal" font-weight="normal" text-decoration="none" x="663.13134765625" y="627.5">-parent</text></g></g><g transform="translate(-6,-118) scale(1,1)"><g><path fill="none" stroke="none"/><text fill="#000000" stroke="none" font-family="Arial" font-size="13px" font-style="normal" font-weight="normal" text-decoration="none" x="639.5" y="627.5">1</text></g></g></g></svg>