<svg version="1.1" xmlns="http://www.w3.org/2000/svg" xmlns:xlink="http://www.w3.org/1999/xlink" width="813.70556640625" height="496"><defs/><g><g transform="translate(-30,-6) scale(1,1)"><rect fill="#ffffff" stroke="none" x="104" y="120" width="90.29443359375" height="57"/></g><g transform="translate(-30,-6) scale(1,1)"><path fill="none" stroke="#000000" d="M 104 120 L 194.29443359375 120 L 194.29443359375 177 L 104 177 L 104 120 Z Z" stroke-miterlimit="10"/></g><g transform="translate(-30,-6) scale(1,1)"><path fill="none" stroke="#000000" d="M 104 145 L 194.29443359375 145" stroke-miterlimit="10"/></g><g transform="translate(-30,-6) scale(1,1)"><path fill="none" stroke="#000000" d="M 104 168 L 194.29443359375 168" stroke-miterlimit="10"/></g><g transform="translate(-30,-6) scale(1,1)"><g><path fill="none" stroke="none"/><text fill="#000000" stroke="none" font-family="Arial" font-size="13px" font-style="normal" font-weight="bold" text-decoration="none" x="122.541015625" y="139.5">Workflow</text></g></g><g transform="translate(-30,-6) scale(1,1)"><g><path fill="none" stroke="none"/><text fill="#000000" stroke="none" font-family="Arial" font-size="13px" font-style="normal" font-weight="normal" text-decoration="none" x="109" y="162.5">-name: String</text></g></g><g transform="translate(-30,-6) scale(1,1)"><rect fill="#ffffff" stroke="none" x="280" y="120" width="90.29443359375" height="70"/></g><g transform="translate(-30,-6) scale(1,1)"><path fill="none" stroke="#000000" d="M 280 120 L 370.29443359375 120 L 370.29443359375 190 L 280 190 L 280 120 Z Z" stroke-miterlimit="10"/></g><g transform="translate(-30,-6) scale(1,1)"><path fill="none" stroke="#000000" d="M 280 145 L 370.29443359375 145" stroke-miterlimit="10"/></g><g transform="translate(-30,-6) scale(1,1)"><path fill="none" stroke="#000000" d="M 280 168 L 370.29443359375 168" stroke-miterlimit="10"/></g><g transform="translate(-30,-6) scale(1,1)"><g><path fill="none" stroke="none"/><text fill="#000000" stroke="none" font-family="Arial" font-size="13px" font-style="normal" font-weight="bold" text-decoration="none" x="306.716796875" y="139.5">Phase</text></g></g><g transform="translate(-30,-6) scale(1,1)"><g><path fill="none" stroke="none"/><text fill="#000000" stroke="none" font-family="Arial" font-size="13px" font-style="normal" font-weight="normal" text-decoration="none" x="285" y="162.5">-name: String</text></g></g><g transform="translate(-30,-6) scale(1,1)"><g><path fill="none" stroke="none"/><text fill="#000000" stroke="none" font-family="Arial" font-size="13px" font-style="normal" font-weight="normal" text-decoration="none" x="285" y="185.5">+execute()</text></g></g><g transform="translate(-30,-6) scale(1,1)"><path fill="none" stroke="#000000" d="M 280 142 L 194 142" stroke-miterlimit="10"/></g><g transform="translate(-30,-6) scale(1,1)"><path fill="#000000" stroke="none" d="M 204.16267485762415 137.790482243984 L 194 142 L 204.16267485762415 146.209517756016 L 216 142"/></g><g transform="translate(-30,-6) scale(1,1)"><path fill="none" stroke="#000000" d="M 204.16267485762415 137.790482243984 L 194 142 L 204.16267485762415 146.209517756016 L 216 142 L 204.16267485762415 137.790482243984" stroke-miterlimit="10"/></g><g transform="translate(-30,-6) scale(1,1)"><rect fill="#ffffff" stroke="none" x="360" y="16" width="296.9296875" height="72"/></g><g transform="translate(-30,-6) scale(1,1)"><path fill="none" stroke="#000000" d="M 360 16 L 656.9296875 16 L 656.9296875 88 L 360 88 L 360 16 Z Z" stroke-miterlimit="10"/></g><g transform="translate(-30,-6) scale(1,1)"><path fill="none" stroke="#000000" d="M 360 41 L 656.9296875 41" stroke-miterlimit="10"/></g><g transform="translate(-30,-6) scale(1,1)"><path fill="none" stroke="#000000" d="M 360 51 L 656.9296875 51" stroke-miterlimit="10"/></g><g transform="translate(-30,-6) scale(1,1)"><g><path fill="none" stroke="none"/><text fill="#000000" stroke="none" font-family="Arial" font-size="13px" font-style="normal" font-weight="bold" text-decoration="none" x="465.843505859375" y="35.5">CommandUtils</text></g></g><g transform="translate(-30,-6) scale(1,1)"><g><path fill="none" stroke="none"/><text fill="#000000" stroke="none" font-family="Arial" font-size="13px" font-style="normal" font-weight="normal" text-decoration="none" x="365" y="68.5">+normalizePathString(path: String): String</text><path fill="none" stroke="#000000" d="M 365 68.5 L 605.97607421875 68.5" stroke-miterlimit="10"/></g></g><g transform="translate(-30,-6) scale(1,1)"><g><path fill="none" stroke="none"/><text fill="#000000" stroke="none" font-family="Arial" font-size="13px" font-style="normal" font-weight="normal" text-decoration="none" x="365" y="83.5">+verifyFileExists(path: String, file: String): boolean</text><path fill="none" stroke="#000000" d="M 365 83.5 L 652.9296875 83.5" stroke-miterlimit="10"/></g></g><g transform="translate(-30,-6) scale(1,1)"><rect fill="#ffffff" stroke="none" x="328" y="240" width="125.29541015625" height="57"/></g><g transform="translate(-30,-6) scale(1,1)"><path fill="none" stroke="#000000" d="M 328 240 L 453.29541015625 240 L 453.29541015625 297 L 328 297 L 328 240 Z Z" stroke-miterlimit="10"/></g><g transform="translate(-30,-6) scale(1,1)"><path fill="none" stroke="#000000" d="M 328 265 L 453.29541015625 265" stroke-miterlimit="10"/></g><g transform="translate(-30,-6) scale(1,1)"><path fill="none" stroke="#000000" d="M 328 288 L 453.29541015625 288" stroke-miterlimit="10"/></g><g transform="translate(-30,-6) scale(1,1)"><g><path fill="none" stroke="none"/><text fill="#000000" stroke="none" font-family="Arial" font-size="13px" font-style="italic" font-weight="bold" text-decoration="none" x="336.82275390625" y="259.5">AbstractCommand</text></g></g><g transform="translate(-30,-6) scale(1,1)"><g><path fill="none" stroke="none"/><text fill="#000000" stroke="none" font-family="Arial" font-size="13px" font-style="normal" font-weight="normal" text-decoration="none" x="333" y="282.5">+name: String</text></g></g><g transform="translate(-30,-6) scale(1,1)"><rect fill="#ffffff" stroke="none" x="40" y="448" width="174.45166015625" height="44"/></g><g transform="translate(-30,-6) scale(1,1)"><path fill="none" stroke="#000000" d="M 40 448 L 214.45166015625 448 L 214.45166015625 492 L 40 492 L 40 448 Z Z" stroke-miterlimit="10"/></g><g transform="translate(-30,-6) scale(1,1)"><path fill="none" stroke="#000000" d="M 40 473 L 214.45166015625 473" stroke-miterlimit="10"/></g><g transform="translate(-30,-6) scale(1,1)"><path fill="none" stroke="#000000" d="M 40 483 L 214.45166015625 483" stroke-miterlimit="10"/></g><g transform="translate(-30,-6) scale(1,1)"><g><path fill="none" stroke="none"/><text fill="#000000" stroke="none" font-family="Arial" font-size="13px" font-style="italic" font-weight="bold" text-decoration="none" x="50.65087890625" y="467.5">PrimaryAnalysisCommand</text></g></g><g transform="translate(-30,-6) scale(1,1)"><rect fill="#ffffff" stroke="none" x="464" y="240" width="369.70556640625" height="175"/></g><g transform="translate(-30,-6) scale(1,1)"><path fill="none" stroke="#000000" d="M 464 240 L 833.70556640625 240 L 833.70556640625 415 L 464 415 L 464 240 Z Z" stroke-miterlimit="10"/></g><g transform="translate(-30,-6) scale(1,1)"><path fill="none" stroke="#000000" d="M 464 265 L 833.70556640625 265" stroke-miterlimit="10"/></g><g transform="translate(-30,-6) scale(1,1)"><path fill="none" stroke="#000000" d="M 464 363 L 833.70556640625 363" stroke-miterlimit="10"/></g><g transform="translate(-30,-6) scale(1,1)"><g><path fill="none" stroke="none"/><text fill="#000000" stroke="none" font-family="Arial" font-size="13px" font-style="italic" font-weight="bold" text-decoration="none" x="606.82177734375" y="259.5">ToolCommand</text></g></g><g transform="translate(-30,-6) scale(1,1)"><g><path fill="none" stroke="none"/><text fill="#000000" stroke="none" font-family="Arial" font-size="13px" font-style="normal" font-weight="normal" text-decoration="none" x="469" y="282.5">+toolName: String</text></g></g><g transform="translate(-30,-6) scale(1,1)"><g><path fill="none" stroke="none"/><text fill="#000000" stroke="none" font-family="Arial" font-size="13px" font-style="normal" font-weight="normal" text-decoration="none" x="469" y="297.5">+toolHome: String</text></g></g><g transform="translate(-30,-6) scale(1,1)"><g><path fill="none" stroke="none"/><text fill="#000000" stroke="none" font-family="Arial" font-size="13px" font-style="normal" font-weight="normal" text-decoration="none" x="469" y="312.5">+reportFile: String</text></g></g><g transform="translate(-30,-6) scale(1,1)"><g><path fill="none" stroke="none"/><text fill="#000000" stroke="none" font-family="Arial" font-size="13px" font-style="normal" font-weight="normal" text-decoration="none" x="469" y="327.5">+baseDirectory: String</text></g></g><g transform="translate(-30,-6) scale(1,1)"><g><path fill="none" stroke="none"/><text fill="#000000" stroke="none" font-family="Arial" font-size="13px" font-style="normal" font-weight="normal" text-decoration="none" x="469" y="342.5">+sourceDirectory: String</text></g></g><g transform="translate(-30,-6) scale(1,1)"><g><path fill="none" stroke="none"/><text fill="#000000" stroke="none" font-family="Arial" font-size="13px" font-style="normal" font-weight="normal" text-decoration="none" x="469" y="357.5">+binaryDirectory: String</text></g></g><g transform="translate(-30,-6) scale(1,1)"><g><path fill="none" stroke="none"/><text fill="#000000" stroke="none" font-family="Arial" font-size="13px" font-style="italic" font-weight="normal" text-decoration="none" x="469" y="380.5">+buildCommandLine(): CommandLine</text></g></g><g transform="translate(-30,-6) scale(1,1)"><g><path fill="none" stroke="none"/><text fill="#000000" stroke="none" font-family="Arial" font-size="13px" font-style="normal" font-weight="normal" text-decoration="none" x="469" y="395.5">+execute()</text></g></g><g transform="translate(-30,-6) scale(1,1)"><g><path fill="none" stroke="none"/><text fill="#000000" stroke="none" font-family="Arial" font-size="13px" font-style="normal" font-weight="normal" text-decoration="none" x="469" y="410.5">-executeCmdLine(line: CommandLine, expectedExitValue: int)</text></g></g><g transform="translate(-30,-6) scale(1,1)"><rect fill="#ffffff" stroke="none" x="448" y="112" width="89.57080078125" height="60"/></g><g transform="translate(-30,-6) scale(1,1)"><path fill="none" stroke="#000000" d="M 448 112 L 537.57080078125 112 L 537.57080078125 172 L 448 172 L 448 112 Z Z" stroke-miterlimit="10"/></g><g transform="translate(-30,-6) scale(1,1)"><path fill="none" stroke="#000000" d="M 448 150 L 537.57080078125 150" stroke-miterlimit="10"/></g><g transform="translate(-30,-6) scale(1,1)"><g><path fill="none" stroke="none"/><text fill="#000000" stroke="none" font-family="Arial" font-size="13px" font-style="normal" font-weight="normal" text-decoration="none" x="460.625" y="129.5">«interface»</text></g></g><g transform="translate(-30,-6) scale(1,1)"><g><path fill="none" stroke="none"/><text fill="#000000" stroke="none" font-family="Arial" font-size="13px" font-style="normal" font-weight="bold" text-decoration="none" x="462.80224609375" y="144.5">Command</text></g></g><g transform="translate(-30,-6) scale(1,1)"><g><path fill="none" stroke="none"/><text fill="#000000" stroke="none" font-family="Arial" font-size="13px" font-style="normal" font-weight="normal" text-decoration="none" x="453" y="167.5">+execute()</text></g></g><g transform="translate(-30,-6) scale(1,1)"><rect fill="#ffffff" stroke="none" x="672" y="16" width="160.962890625" height="165"/></g><g transform="translate(-30,-6) scale(1,1)"><path fill="none" stroke="#000000" d="M 672 16 L 832.962890625 16 L 832.962890625 181 L 672 181 L 672 16 Z Z" stroke-miterlimit="10"/></g><g transform="translate(-30,-6) scale(1,1)"><path fill="none" stroke="#000000" d="M 672 54 L 832.962890625 54" stroke-miterlimit="10"/></g><g transform="translate(-30,-6) scale(1,1)"><g><path fill="none" stroke="none"/><text fill="#000000" stroke="none" font-family="Arial" font-size="13px" font-style="normal" font-weight="normal" text-decoration="none" x="709.117431640625" y="33.5">«enumeration»</text></g></g><g transform="translate(-30,-6) scale(1,1)"><g><path fill="none" stroke="none"/><text fill="#000000" stroke="none" font-family="Arial" font-size="13px" font-style="normal" font-weight="bold" text-decoration="none" x="720.327392578125" y="48.5">FlowPhase</text></g></g><g transform="translate(-30,-6) scale(1,1)"><g><path fill="none" stroke="none"/><text fill="#000000" stroke="none" font-family="Arial" font-size="13px" font-style="normal" font-weight="normal" text-decoration="none" x="677" y="71.5">REPO_DETECT</text></g></g><g transform="translate(-30,-6) scale(1,1)"><g><path fill="none" stroke="none"/><text fill="#000000" stroke="none" font-family="Arial" font-size="13px" font-style="normal" font-weight="normal" text-decoration="none" x="677" y="86.5">CLONE</text></g></g><g transform="translate(-30,-6) scale(1,1)"><g><path fill="none" stroke="none"/><text fill="#000000" stroke="none" font-family="Arial" font-size="13px" font-style="normal" font-weight="normal" text-decoration="none" x="677" y="101.5">BUILD_DETECT</text></g></g><g transform="translate(-30,-6) scale(1,1)"><g><path fill="none" stroke="none"/><text fill="#000000" stroke="none" font-family="Arial" font-size="13px" font-style="normal" font-weight="normal" text-decoration="none" x="677" y="116.5">BUILD</text></g></g><g transform="translate(-30,-6) scale(1,1)"><g><path fill="none" stroke="none"/><text fill="#000000" stroke="none" font-family="Arial" font-size="13px" font-style="normal" font-weight="normal" text-decoration="none" x="677" y="131.5">ARTIFACT_ID</text></g></g><g transform="translate(-30,-6) scale(1,1)"><g><path fill="none" stroke="none"/><text fill="#000000" stroke="none" font-family="Arial" font-size="13px" font-style="normal" font-weight="normal" text-decoration="none" x="677" y="146.5">PRIMARY_ANALYSIS</text></g></g><g transform="translate(-30,-6) scale(1,1)"><g><path fill="none" stroke="none"/><text fill="#000000" stroke="none" font-family="Arial" font-size="13px" font-style="normal" font-weight="normal" text-decoration="none" x="677" y="161.5">SECONDARY_ANALYSIS</text></g></g><g transform="translate(-30,-6) scale(1,1)"><g><path fill="none" stroke="none"/><text fill="#000000" stroke="none" font-family="Arial" font-size="13px" font-style="normal" font-weight="normal" text-decoration="none" x="677" y="176.5">EXPERIMENT</text></g></g><g transform="translate(-30,-6) scale(1,1)"><path fill="none" stroke="#000000" d="M 448 144 L 370 144" stroke-miterlimit="10"/></g><g transform="translate(-30,-6) scale(1,1)"><path fill="#000000" stroke="none" d="M 380.16267485762415 139.790482243984 L 370 144 L 380.16267485762415 148.209517756016 L 392 144"/></g><g transform="translate(-30,-6) scale(1,1)"><path fill="none" stroke="#000000" d="M 380.16267485762415 139.790482243984 L 370 144 L 380.16267485762415 148.209517756016 L 392 144 L 380.16267485762415 139.790482243984" stroke-miterlimit="10"/></g><g transform="translate(-30,-6) scale(1,1)"><path fill="none" stroke="#000000" d="M 392 240 L 392 224 L 480 224 L 480 172" stroke-miterlimit="10" stroke-dasharray="3"/></g><g transform="translate(-30,-6) scale(1,1)"><path fill="#FFFFFF" stroke="none" d="M 488.419035512032 192.3253497152483 L 480 172 L 471.580964487968 192.3253497152483"/></g><g transform="translate(-30,-6) scale(1,1)"><path fill="none" stroke="#000000" d="M 488.419035512032 192.3253497152483 L 480 172 L 471.580964487968 192.3253497152483 L 488.419035512032 192.3253497152483" stroke-miterlimit="10"/></g><g transform="translate(-30,-6) scale(1,1)"><path fill="none" stroke="#000000" d="M 560 240 L 560 208 L 504 208 L 504 172" stroke-miterlimit="10" stroke-dasharray="3"/></g><g transform="translate(-30,-6) scale(1,1)"><path fill="#FFFFFF" stroke="none" d="M 512.419035512032 192.3253497152483 L 504 172 L 495.580964487968 192.3253497152483"/></g><g transform="translate(-30,-6) scale(1,1)"><path fill="none" stroke="#000000" d="M 512.419035512032 192.3253497152483 L 504 172 L 495.580964487968 192.3253497152483 L 512.419035512032 192.3253497152483" stroke-miterlimit="10"/></g><g transform="translate(-30,-6) scale(1,1)"><rect fill="#ffffff" stroke="none" x="224" y="448" width="192.50439453125" height="44"/></g><g transform="translate(-30,-6) scale(1,1)"><path fill="none" stroke="#000000" d="M 224 448 L 416.50439453125 448 L 416.50439453125 492 L 224 492 L 224 448 Z Z" stroke-miterlimit="10"/></g><g transform="translate(-30,-6) scale(1,1)"><path fill="none" stroke="#000000" d="M 224 473 L 416.50439453125 473" stroke-miterlimit="10"/></g><g transform="translate(-30,-6) scale(1,1)"><path fill="none" stroke="#000000" d="M 224 483 L 416.50439453125 483" stroke-miterlimit="10"/></g><g transform="translate(-30,-6) scale(1,1)"><g><path fill="none" stroke="none"/><text fill="#000000" stroke="none" font-family="Arial" font-size="13px" font-style="italic" font-weight="bold" text-decoration="none" x="234.990478515625" y="467.5">SecondaryAnalysisCommand</text></g></g><g transform="translate(-30,-6) scale(1,1)"><rect fill="#ffffff" stroke="none" x="424" y="448" width="140.4599609375" height="44"/></g><g transform="translate(-30,-6) scale(1,1)"><path fill="none" stroke="#000000" d="M 424 448 L 564.4599609375 448 L 564.4599609375 492 L 424 492 L 424 448 Z Z" stroke-miterlimit="10"/></g><g transform="translate(-30,-6) scale(1,1)"><path fill="none" stroke="#000000" d="M 424 473 L 564.4599609375 473" stroke-miterlimit="10"/></g><g transform="translate(-30,-6) scale(1,1)"><path fill="none" stroke="#000000" d="M 424 483 L 564.4599609375 483" stroke-miterlimit="10"/></g><g transform="translate(-30,-6) scale(1,1)"><g><path fill="none" stroke="none"/><text fill="#000000" stroke="none" font-family="Arial" font-size="13px" font-style="italic" font-weight="bold" text-decoration="none" x="433.17822265625" y="467.5">RepositoryCommand</text></g></g><g transform="translate(-30,-6) scale(1,1)"><rect fill="#ffffff" stroke="none" x="576" y="448" width="172.9599609375" height="44"/></g><g transform="translate(-30,-6) scale(1,1)"><path fill="none" stroke="#000000" d="M 576 448 L 748.9599609375 448 L 748.9599609375 492 L 576 492 L 576 448 Z Z" stroke-miterlimit="10"/></g><g transform="translate(-30,-6) scale(1,1)"><path fill="none" stroke="#000000" d="M 576 473 L 748.9599609375 473" stroke-miterlimit="10"/></g><g transform="translate(-30,-6) scale(1,1)"><path fill="none" stroke="#000000" d="M 576 483 L 748.9599609375 483" stroke-miterlimit="10"/></g><g transform="translate(-30,-6) scale(1,1)"><g><path fill="none" stroke="none"/><text fill="#000000" stroke="none" font-family="Arial" font-size="13px" font-style="italic" font-weight="bold" text-decoration="none" x="587.339599609375" y="467.5">ArtifactIdentifierCommand</text></g></g><g transform="translate(-30,-6) scale(1,1)"><path fill="none" stroke="#000000" d="M 111 448 L 111 432 L 392 432 L 392 297" stroke-miterlimit="10"/></g><g transform="translate(-30,-6) scale(1,1)"><path fill="#FFFFFF" stroke="none" d="M 400.419035512032 317.3253497152483 L 392 297 L 383.580964487968 317.3253497152483"/></g><g transform="translate(-30,-6) scale(1,1)"><path fill="none" stroke="#000000" d="M 400.419035512032 317.3253497152483 L 392 297 L 383.580964487968 317.3253497152483 L 400.419035512032 317.3253497152483" stroke-miterlimit="10"/></g><g transform="translate(-30,-6) scale(1,1)"><path fill="none" stroke="#000000" d="M 320 448 L 320 432 L 392 432 L 392 297" stroke-miterlimit="10"/></g><g transform="translate(-30,-6) scale(1,1)"><path fill="#FFFFFF" stroke="none" d="M 400.419035512032 317.3253497152483 L 392 297 L 383.580964487968 317.3253497152483"/></g><g transform="translate(-30,-6) scale(1,1)"><path fill="none" stroke="#000000" d="M 400.419035512032 317.3253497152483 L 392 297 L 383.580964487968 317.3253497152483 L 400.419035512032 317.3253497152483" stroke-miterlimit="10"/></g><g transform="translate(-30,-6) scale(1,1)"><path fill="none" stroke="#000000" d="M 502 448 L 502 432 L 392 432 L 392 297" stroke-miterlimit="10"/></g><g transform="translate(-30,-6) scale(1,1)"><path fill="#FFFFFF" stroke="none" d="M 400.419035512032 317.3253497152483 L 392 297 L 383.580964487968 317.3253497152483"/></g><g transform="translate(-30,-6) scale(1,1)"><path fill="none" stroke="#000000" d="M 400.419035512032 317.3253497152483 L 392 297 L 383.580964487968 317.3253497152483 L 400.419035512032 317.3253497152483" stroke-miterlimit="10"/></g><g transform="translate(-30,-6) scale(1,1)"><path fill="none" stroke="#000000" d="M 646 448 L 646 432 L 392 432 L 392 297" stroke-miterlimit="10"/></g><g transform="translate(-30,-6) scale(1,1)"><path fill="#FFFFFF" stroke="none" d="M 400.419035512032 317.3253497152483 L 392 297 L 383.580964487968 317.3253497152483"/></g><g transform="translate(-30,-6) scale(1,1)"><path fill="none" stroke="#000000" d="M 400.419035512032 317.3253497152483 L 392 297 L 383.580964487968 317.3253497152483 L 400.419035512032 317.3253497152483" stroke-miterlimit="10"/></g><g transform="translate(-30,-6) scale(1,1)"><path fill="none" stroke="#000000" d="M 538 144 L 672 144" stroke-miterlimit="10" stroke-dasharray="3"/></g><g transform="translate(-30,-6) scale(1,1)"><path fill="none" stroke="#000000" d="M 661.8373251423759 148.209517756016 L 672 144 L 661.8373251423758 139.790482243984" stroke-miterlimit="10"/></g><g transform="translate(-30,-6) scale(1,1)"><rect fill="#ffffff" stroke="none" x="110" y="200" width="73.32080078125" height="48"/></g><g transform="translate(-30,-6) scale(1,1)"><path fill="none" stroke="#000000" d="M 110 200 L 183.32080078125 200 L 183.32080078125 248 L 110 248 L 110 200 Z Z" stroke-miterlimit="10"/></g><g transform="translate(-30,-6) scale(1,1)"><g><path fill="none" stroke="none"/><text fill="#000000" stroke="none" font-family="Arial" font-size="13px" font-style="normal" font-weight="normal" text-decoration="none" x="114.5" y="217.5">«interface»</text></g></g><g transform="translate(-30,-6) scale(1,1)"><g><path fill="none" stroke="none"/><text fill="#000000" stroke="none" font-family="Arial" font-size="13px" font-style="normal" font-weight="bold" text-decoration="none" x="121.0126953125" y="232.5">Collector</text></g></g><g transform="translate(-30,-6) scale(1,1)"><rect fill="#ffffff" stroke="none" x="88" y="320" width="117.01171875" height="72"/></g><g transform="translate(-30,-6) scale(1,1)"><path fill="none" stroke="#000000" d="M 88 320 L 205.01171875 320 L 205.01171875 392 L 88 392 L 88 320 Z Z" stroke-miterlimit="10"/></g><g transform="translate(-30,-6) scale(1,1)"><path fill="none" stroke="#000000" d="M 88 345 L 205.01171875 345" stroke-miterlimit="10"/></g><g transform="translate(-30,-6) scale(1,1)"><path fill="none" stroke="#000000" d="M 88 383 L 205.01171875 383" stroke-miterlimit="10"/></g><g transform="translate(-30,-6) scale(1,1)"><g><path fill="none" stroke="none"/><text fill="#000000" stroke="none" font-family="Arial" font-size="13px" font-style="italic" font-weight="bold" text-decoration="none" x="110.384521484375" y="339.5">FileCollector</text></g></g><g transform="translate(-30,-6) scale(1,1)"><g><path fill="none" stroke="none"/><text fill="#000000" stroke="none" font-family="Arial" font-size="13px" font-style="normal" font-weight="normal" text-decoration="none" x="93" y="362.5">#name: String</text></g></g><g transform="translate(-30,-6) scale(1,1)"><g><path fill="none" stroke="none"/><text fill="#000000" stroke="none" font-family="Arial" font-size="13px" font-style="normal" font-weight="normal" text-decoration="none" x="93" y="377.5">#resultsFile: String</text></g></g><g transform="translate(-30,-6) scale(1,1)"><path fill="none" stroke="#000000" d="M 146 320 L 146 248" stroke-miterlimit="10" stroke-dasharray="3"/></g><g transform="translate(-30,-6) scale(1,1)"><path fill="#FFFFFF" stroke="none" d="M 154.41903551203197 268.3253497152483 L 146 248 L 137.58096448796803 268.3253497152483"/></g><g transform="translate(-30,-6) scale(1,1)"><path fill="none" stroke="#000000" d="M 154.41903551203197 268.3253497152483 L 146 248 L 137.58096448796803 268.3253497152483 L 154.41903551203197 268.3253497152483" stroke-miterlimit="10"/></g><g transform="translate(-30,-6) scale(1,1)"><path fill="none" stroke="#000000" d="M 183 215 L 456 215 L 456 172" stroke-miterlimit="10"/></g><g transform="translate(-30,-6) scale(1,1)"><path fill="#FFFFFF" stroke="none" d="M 464.419035512032 192.3253497152483 L 456 172 L 447.580964487968 192.3253497152483"/></g><g transform="translate(-30,-6) scale(1,1)"><path fill="none" stroke="#000000" d="M 464.419035512032 192.3253497152483 L 456 172 L 447.580964487968 192.3253497152483 L 464.419035512032 192.3253497152483" stroke-miterlimit="10"/></g></g></svg>