<svg version="1.1" xmlns="http://www.w3.org/2000/svg" xmlns:xlink="http://www.w3.org/1999/xlink" width="70.17724609375" height="99"><defs/><g><g transform="translate(-174,-214) scale(1,1)"><path fill="#ffffff" stroke="none" d="M 200.40935031960228 233.68 C 200.40935031960228 228.886167936 204.29519264454774 225 209.088623046875 225 C 213.88205344920226 225 217.76789577414772 228.886167936 217.76789577414772 233.68 C 217.76789577414772 238.47383206400002 213.88205344920226 242.36 209.088623046875 242.36 C 204.29519264454774 242.36 200.40935031960228 238.47383206400002 200.40935031960228 233.68 Z"/></g><g transform="translate(-174,-214) scale(1,1)"><path fill="none" stroke="#000000" d="M 200.40935031960228 233.68 C 200.40935031960228 228.886167936 204.29519264454774 225 209.088623046875 225 C 213.88205344920226 225 217.76789577414772 228.886167936 217.76789577414772 233.68 C 217.76789577414772 238.47383206400002 213.88205344920226 242.36 209.088623046875 242.36 C 204.29519264454774 242.36 200.40935031960228 238.47383206400002 200.40935031960228 233.68 Z" stroke-miterlimit="10"/></g><g transform="translate(-174,-214) scale(1,1)"><path fill="none" stroke="#000000" d="M 209.088623046875 242.36 L 209.088623046875 259.64" stroke-miterlimit="10"/></g><g transform="translate(-174,-214) scale(1,1)"><path fill="none" stroke="#000000" d="M 199.89880486505683 248.84 L 218.27844122869317 248.84" stroke-miterlimit="10"/></g><g transform="translate(-174,-214) scale(1,1)"><path fill="none" stroke="#000000" d="M 209.088623046875 259.64 L 196.32498668323865 277" stroke-miterlimit="10"/></g><g transform="translate(-174,-214) scale(1,1)"><path fill="none" stroke="#000000" d="M 209.088623046875 259.64 L 221.85225941051135 277" stroke-miterlimit="10"/></g><g transform="translate(-174,-214) scale(1,1)"><g><path fill="none" stroke="none"/><text fill="#000000" stroke="none" font-family="Arial" font-size="13px" font-style="normal" font-weight="bold" text-decoration="none" x="190.302734375" y="297.5">Actor1</text></g></g></g></svg>