<svg version="1.1" xmlns="http://www.w3.org/2000/svg" xmlns:xlink="http://www.w3.org/1999/xlink" width="273" height="118"><defs/><g><g transform="translate(-46,-174) scale(1,1)"><path fill="#ffffff" stroke="none" d="M 72.40935031960227 193.68 C 72.40935031960227 188.886167936 76.29519264454773 185 81.088623046875 185 C 85.88205344920227 185 89.76789577414773 188.886167936 89.76789577414773 193.68 C 89.76789577414773 198.47383206400002 85.88205344920227 202.36 81.088623046875 202.36 C 76.29519264454773 202.36 72.40935031960227 198.47383206400002 72.40935031960227 193.68 Z"/></g><g transform="translate(-46,-174) scale(1,1)"><path fill="none" stroke="#000000" d="M 72.40935031960227 193.68 C 72.40935031960227 188.886167936 76.29519264454773 185 81.088623046875 185 C 85.88205344920227 185 89.76789577414773 188.886167936 89.76789577414773 193.68 C 89.76789577414773 198.47383206400002 85.88205344920227 202.36 81.088623046875 202.36 C 76.29519264454773 202.36 72.40935031960227 198.47383206400002 72.40935031960227 193.68 Z" stroke-miterlimit="10"/></g><g transform="translate(-46,-174) scale(1,1)"><path fill="none" stroke="#000000" d="M 81.088623046875 202.36 L 81.088623046875 219.64" stroke-miterlimit="10"/></g><g transform="translate(-46,-174) scale(1,1)"><path fill="none" stroke="#000000" d="M 71.89880486505682 208.84 L 90.27844122869318 208.84" stroke-miterlimit="10"/></g><g transform="translate(-46,-174) scale(1,1)"><path fill="none" stroke="#000000" d="M 81.088623046875 219.64 L 68.32498668323863 237" stroke-miterlimit="10"/></g><g transform="translate(-46,-174) scale(1,1)"><path fill="none" stroke="#000000" d="M 81.088623046875 219.64 L 93.85225941051137 237" stroke-miterlimit="10"/></g><g transform="translate(-46,-174) scale(1,1)"><g><path fill="none" stroke="none"/><text fill="#000000" stroke="none" font-family="Arial" font-size="13px" font-style="normal" font-weight="bold" text-decoration="none" x="62.302734375" y="257.5">Actor1</text></g></g><g transform="translate(-46,-174) scale(1,1)"><path fill="#C0C0C0" stroke="none" d="M 215 224 C 215 214.6111584 237.6096176 207 265.5 207 C 293.3903824 207 316 214.6111584 316 224 C 316 233.3888416 293.3903824 241 265.5 241 C 237.6096176 241 215 233.3888416 215 224 Z" opacity="0.2"/></g><g transform="translate(-46,-174) scale(1,1)"><path fill="#ffffff" stroke="none" d="M 208 217 C 208 207.6111584 230.6096176 200 258.5 200 C 286.3903824 200 309 207.6111584 309 217 C 309 226.3888416 286.3903824 234 258.5 234 C 230.6096176 234 208 226.3888416 208 217 Z"/></g><g transform="translate(-46,-174) scale(1,1)"><path fill="none" stroke="#000000" d="M 208 217 C 208 207.6111584 230.6096176 200 258.5 200 C 286.3903824 200 309 207.6111584 309 217 C 309 226.3888416 286.3903824 234 258.5 234 C 230.6096176 234 208 226.3888416 208 217 Z" stroke-miterlimit="10"/></g><g transform="translate(-46,-174) scale(1,1)"><g><path fill="none" stroke="none"/><text fill="#000000" stroke="none" font-family="Arial" font-size="13px" font-style="normal" font-weight="bold" text-decoration="none" x="228.15185546875" y="224">UseCase1</text></g></g><g transform="translate(-46,-174) scale(1,1)"><path fill="none" stroke="#000000" d="M 107 222 L 207 219" stroke-miterlimit="10"/></g><g transform="translate(-46,-174) scale(1,1)"><g><path fill="none" stroke="none"/><text fill="#000000" stroke="none" font-family="Arial" font-size="13px" font-style="normal" font-weight="normal" text-decoration="none" x="111.5" y="220.5">1..*</text></g></g><g transform="translate(-46,-174) scale(1,1)"><g><path fill="none" stroke="none"/><text fill="#000000" stroke="none" font-family="Arial" font-size="13px" font-style="normal" font-weight="normal" text-decoration="none" x="199.5" y="211.5">*</text></g></g><g transform="translate(-46,-174) scale(1,1)"><path fill="#C0C0C0" stroke="none" d="M 215 272 C 215 262.6111584 237.6096176 255 265.5 255 C 293.3903824 255 316 262.6111584 316 272 C 316 281.3888416 293.3903824 289 265.5 289 C 237.6096176 289 215 281.3888416 215 272 Z" opacity="0.2"/></g><g transform="translate(-46,-174) scale(1,1)"><path fill="#ffffff" stroke="none" d="M 208 265 C 208 255.6111584 230.6096176 248 258.5 248 C 286.3903824 248 309 255.6111584 309 265 C 309 274.3888416 286.3903824 282 258.5 282 C 230.6096176 282 208 274.3888416 208 265 Z"/></g><g transform="translate(-46,-174) scale(1,1)"><path fill="none" stroke="#000000" d="M 208 265 C 208 255.6111584 230.6096176 248 258.5 248 C 286.3903824 248 309 255.6111584 309 265 C 309 274.3888416 286.3903824 282 258.5 282 C 230.6096176 282 208 274.3888416 208 265 Z" stroke-miterlimit="10"/></g><g transform="translate(-46,-174) scale(1,1)"><g><path fill="none" stroke="none"/><text fill="#000000" stroke="none" font-family="Arial" font-size="13px" font-style="normal" font-weight="bold" text-decoration="none" x="228.15185546875" y="272">UseCase2</text></g></g><g transform="translate(-46,-174) scale(1,1)"><path fill="none" stroke="#000000" d="M 107 229 L 207 253" stroke-miterlimit="10"/></g><g transform="translate(-46,-174) scale(1,1)"><path fill="none" stroke="#000000" d="M 196.13555642707087 254.72158817684098 L 207 253 L 198.10033160150837 246.53502495001806" stroke-miterlimit="10"/></g></g></svg>