<svg version="1.1" xmlns="http://www.w3.org/2000/svg" xmlns:xlink="http://www.w3.org/1999/xlink" width="283" height="145"><defs/><g><g transform="translate(-20,-174) scale(1,1)"><path fill="#ffffff" stroke="none" d="M 240.40935031960228 193.68 C 240.40935031960228 188.886167936 244.2951926445477 185 249.088623046875 185 C 253.8820534492023 185 257.76789577414775 188.886167936 257.76789577414775 193.68 C 257.76789577414775 198.47383206400002 253.8820534492023 202.36 249.088623046875 202.36 C 244.2951926445477 202.36 240.40935031960228 198.47383206400002 240.40935031960228 193.68 Z"/></g><g transform="translate(-20,-174) scale(1,1)"><path fill="none" stroke="#000000" d="M 240.40935031960228 193.68 C 240.40935031960228 188.886167936 244.2951926445477 185 249.088623046875 185 C 253.8820534492023 185 257.76789577414775 188.886167936 257.76789577414775 193.68 C 257.76789577414775 198.47383206400002 253.8820534492023 202.36 249.088623046875 202.36 C 244.2951926445477 202.36 240.40935031960228 198.47383206400002 240.40935031960228 193.68 Z" stroke-miterlimit="10"/></g><g transform="translate(-20,-174) scale(1,1)"><path fill="none" stroke="#000000" d="M 249.088623046875 202.36 L 249.088623046875 219.64" stroke-miterlimit="10"/></g><g transform="translate(-20,-174) scale(1,1)"><path fill="none" stroke="#000000" d="M 239.89880486505683 208.84 L 258.27844122869317 208.84" stroke-miterlimit="10"/></g><g transform="translate(-20,-174) scale(1,1)"><path fill="none" stroke="#000000" d="M 249.088623046875 219.64 L 236.32498668323865 237" stroke-miterlimit="10"/></g><g transform="translate(-20,-174) scale(1,1)"><path fill="none" stroke="#000000" d="M 249.088623046875 219.64 L 261.85225941051135 237" stroke-miterlimit="10"/></g><g transform="translate(-20,-174) scale(1,1)"><g><path fill="none" stroke="none"/><text fill="#000000" stroke="none" font-family="Arial" font-size="13px" font-style="normal" font-weight="bold" text-decoration="none" x="230.302734375" y="257.5">Actor2</text></g></g><g transform="translate(-20,-174) scale(1,1)"><path fill="#ffffff" stroke="none" d="M 72.40935031960227 193.68 C 72.40935031960227 188.886167936 76.29519264454773 185 81.088623046875 185 C 85.88205344920227 185 89.76789577414773 188.886167936 89.76789577414773 193.68 C 89.76789577414773 198.47383206400002 85.88205344920227 202.36 81.088623046875 202.36 C 76.29519264454773 202.36 72.40935031960227 198.47383206400002 72.40935031960227 193.68 Z"/></g><g transform="translate(-20,-174) scale(1,1)"><path fill="none" stroke="#000000" d="M 72.40935031960227 193.68 C 72.40935031960227 188.886167936 76.29519264454773 185 81.088623046875 185 C 85.88205344920227 185 89.76789577414773 188.886167936 89.76789577414773 193.68 C 89.76789577414773 198.47383206400002 85.88205344920227 202.36 81.088623046875 202.36 C 76.29519264454773 202.36 72.40935031960227 198.47383206400002 72.40935031960227 193.68 Z" stroke-miterlimit="10"/></g><g transform="translate(-20,-174) scale(1,1)"><path fill="none" stroke="#000000" d="M 81.088623046875 202.36 L 81.088623046875 219.64" stroke-miterlimit="10"/></g><g transform="translate(-20,-174) scale(1,1)"><path fill="none" stroke="#000000" d="M 71.89880486505682 208.84 L 90.27844122869318 208.84" stroke-miterlimit="10"/></g><g transform="translate(-20,-174) scale(1,1)"><path fill="none" stroke="#000000" d="M 81.088623046875 219.64 L 68.32498668323863 237" stroke-miterlimit="10"/></g><g transform="translate(-20,-174) scale(1,1)"><path fill="none" stroke="#000000" d="M 81.088623046875 219.64 L 93.85225941051137 237" stroke-miterlimit="10"/></g><g transform="translate(-20,-174) scale(1,1)"><g><path fill="none" stroke="none"/><text fill="#000000" stroke="none" font-family="Arial" font-size="13px" font-style="normal" font-weight="bold" text-decoration="none" x="62.302734375" y="257.5">Actor1</text></g></g><g transform="translate(-20,-174) scale(1,1)"><path fill="none" stroke="#000000" d="M 107 223 L 223 223" stroke-miterlimit="10"/></g><g transform="translate(-20,-174) scale(1,1)"><path fill="#FFFFFF" stroke="none" d="M 202.6746502847517 231.41903551203197 L 223 223 L 202.6746502847517 214.58096448796803"/></g><g transform="translate(-20,-174) scale(1,1)"><path fill="none" stroke="#000000" d="M 202.6746502847517 231.41903551203197 L 223 223 L 202.6746502847517 214.58096448796803 L 202.6746502847517 231.41903551203197" stroke-miterlimit="10"/></g><g transform="translate(-20,-174) scale(1,1)"><path fill="#C0C0C0" stroke="none" d="M 37 299 C 37 289.6111584 59.6096176 282 87.5 282 C 115.3903824 282 138 289.6111584 138 299 C 138 308.3888416 115.3903824 316 87.5 316 C 59.6096176 316 37 308.3888416 37 299 Z" opacity="0.2"/></g><g transform="translate(-20,-174) scale(1,1)"><path fill="#ffffff" stroke="none" d="M 30 292 C 30 282.6111584 52.6096176 275 80.5 275 C 108.3903824 275 131 282.6111584 131 292 C 131 301.3888416 108.3903824 309 80.5 309 C 52.6096176 309 30 301.3888416 30 292 Z"/></g><g transform="translate(-20,-174) scale(1,1)"><path fill="none" stroke="#000000" d="M 30 292 C 30 282.6111584 52.6096176 275 80.5 275 C 108.3903824 275 131 282.6111584 131 292 C 131 301.3888416 108.3903824 309 80.5 309 C 52.6096176 309 30 301.3888416 30 292 Z" stroke-miterlimit="10"/></g><g transform="translate(-20,-174) scale(1,1)"><g><path fill="none" stroke="none"/><text fill="#000000" stroke="none" font-family="Arial" font-size="13px" font-style="normal" font-weight="bold" text-decoration="none" x="50.15185546875" y="299">UseCase1</text></g></g><g transform="translate(-20,-174) scale(1,1)"><path fill="#C0C0C0" stroke="none" d="M 199 296 C 199 286.6111584 221.6096176 279 249.5 279 C 277.3903824 279 300 286.6111584 300 296 C 300 305.3888416 277.3903824 313 249.5 313 C 221.6096176 313 199 305.3888416 199 296 Z" opacity="0.2"/></g><g transform="translate(-20,-174) scale(1,1)"><path fill="#ffffff" stroke="none" d="M 192 289 C 192 279.6111584 214.6096176 272 242.5 272 C 270.3903824 272 293 279.6111584 293 289 C 293 298.3888416 270.3903824 306 242.5 306 C 214.6096176 306 192 298.3888416 192 289 Z"/></g><g transform="translate(-20,-174) scale(1,1)"><path fill="none" stroke="#000000" d="M 192 289 C 192 279.6111584 214.6096176 272 242.5 272 C 270.3903824 272 293 279.6111584 293 289 C 293 298.3888416 270.3903824 306 242.5 306 C 214.6096176 306 192 298.3888416 192 289 Z" stroke-miterlimit="10"/></g><g transform="translate(-20,-174) scale(1,1)"><g><path fill="none" stroke="none"/><text fill="#000000" stroke="none" font-family="Arial" font-size="13px" font-style="normal" font-weight="bold" text-decoration="none" x="212.15185546875" y="296">UseCase2</text></g></g><g transform="translate(-20,-174) scale(1,1)"><path fill="none" stroke="#000000" d="M 132 291 L 191 290" stroke-miterlimit="10"/></g><g transform="translate(-20,-174) scale(1,1)"><path fill="#FFFFFF" stroke="none" d="M 170.82024415105423 298.76227446939083 L 191 290 L 170.5348941005975 281.9266214924456"/></g><g transform="translate(-20,-174) scale(1,1)"><path fill="none" stroke="#000000" d="M 170.82024415105423 298.76227446939083 L 191 290 L 170.5348941005975 281.9266214924456 L 170.82024415105423 298.76227446939083" stroke-miterlimit="10"/></g></g></svg>