<svg version="1.1" xmlns="http://www.w3.org/2000/svg" xmlns:xlink="http://www.w3.org/1999/xlink" width="297" height="54"><defs/><g><g transform="translate(-54,-238) scale(1,1)"><path fill="#C0C0C0" stroke="none" d="M 71 272 C 71 262.6111584 93.6096176 255 121.5 255 C 149.3903824 255 172 262.6111584 172 272 C 172 281.3888416 149.3903824 289 121.5 289 C 93.6096176 289 71 281.3888416 71 272 Z" opacity="0.2"/></g><g transform="translate(-54,-238) scale(1,1)"><path fill="#ffffff" stroke="none" d="M 64 265 C 64 255.6111584 86.6096176 248 114.5 248 C 142.3903824 248 165 255.6111584 165 265 C 165 274.3888416 142.3903824 282 114.5 282 C 86.6096176 282 64 274.3888416 64 265 Z"/></g><g transform="translate(-54,-238) scale(1,1)"><path fill="none" stroke="#000000" d="M 64 265 C 64 255.6111584 86.6096176 248 114.5 248 C 142.3903824 248 165 255.6111584 165 265 C 165 274.3888416 142.3903824 282 114.5 282 C 86.6096176 282 64 274.3888416 64 265 Z" stroke-miterlimit="10"/></g><g transform="translate(-54,-238) scale(1,1)"><g><path fill="none" stroke="none"/><text fill="#000000" stroke="none" font-family="Arial" font-size="13px" font-style="normal" font-weight="bold" text-decoration="none" x="84.15185546875" y="272">UseCase1</text></g></g><g transform="translate(-54,-238) scale(1,1)"><path fill="#C0C0C0" stroke="none" d="M 247 272 C 247 262.6111584 269.6096176 255 297.5 255 C 325.3903824 255 348 262.6111584 348 272 C 348 281.3888416 325.3903824 289 297.5 289 C 269.6096176 289 247 281.3888416 247 272 Z" opacity="0.2"/></g><g transform="translate(-54,-238) scale(1,1)"><path fill="#ffffff" stroke="none" d="M 240 265 C 240 255.6111584 262.6096176 248 290.5 248 C 318.3903824 248 341 255.6111584 341 265 C 341 274.3888416 318.3903824 282 290.5 282 C 262.6096176 282 240 274.3888416 240 265 Z"/></g><g transform="translate(-54,-238) scale(1,1)"><path fill="none" stroke="#000000" d="M 240 265 C 240 255.6111584 262.6096176 248 290.5 248 C 318.3903824 248 341 255.6111584 341 265 C 341 274.3888416 318.3903824 282 290.5 282 C 262.6096176 282 240 274.3888416 240 265 Z" stroke-miterlimit="10"/></g><g transform="translate(-54,-238) scale(1,1)"><g><path fill="none" stroke="none"/><text fill="#000000" stroke="none" font-family="Arial" font-size="13px" font-style="normal" font-weight="bold" text-decoration="none" x="260.15185546875" y="272">UseCase2</text></g></g><g transform="translate(-54,-238) scale(1,1)"><path fill="none" stroke="#000000" d="M 166 265 L 239 265" stroke-miterlimit="10" stroke-dasharray="3"/></g><g transform="translate(-54,-238) scale(1,1)"><path fill="none" stroke="#000000" d="M 228.83732514237585 269.209517756016 L 239 265 L 228.83732514237585 260.790482243984" stroke-miterlimit="10"/></g><g transform="translate(-54,-238) scale(1,1)"><g><path fill="none" stroke="none"/><text fill="#000000" stroke="none" font-family="Arial" font-size="13px" font-style="normal" font-weight="normal" text-decoration="none" x="174.5" y="260.5">«include»</text></g></g></g></svg>