<svg version="1.1" xmlns="http://www.w3.org/2000/svg" xmlns:xlink="http://www.w3.org/1999/xlink" width="219" height="91"><defs/><g><g transform="translate(-62,-238) scale(1,1)"><path fill="#C0C0C0" stroke="none" d="M 79 290.5 C 79 270.8938896 123.54766240000001 255 178.5 255 C 233.4523376 255 278 270.8938896 278 290.5 C 278 310.1061104 233.4523376 326 178.5 326 C 123.54766240000001 326 79 310.1061104 79 290.5 Z" opacity="0.2"/></g><g transform="translate(-62,-238) scale(1,1)"><path fill="#ffffff" stroke="none" d="M 72 283.5 C 72 263.8938896 116.54766240000001 248 171.5 248 C 226.4523376 248 271 263.8938896 271 283.5 C 271 303.1061104 226.4523376 319 171.5 319 C 116.54766240000001 319 72 303.1061104 72 283.5 Z"/></g><g transform="translate(-62,-238) scale(1,1)"><path fill="none" stroke="#000000" d="M 72 283.5 C 72 263.8938896 116.54766240000001 248 171.5 248 C 226.4523376 248 271 263.8938896 271 283.5 C 271 303.1061104 226.4523376 319 171.5 319 C 116.54766240000001 319 72 303.1061104 72 283.5 Z" stroke-miterlimit="10"/></g><g transform="translate(-62,-238) scale(1,1)"><g><path fill="none" stroke="none"/><text fill="#000000" stroke="none" font-family="Arial" font-size="13px" font-style="normal" font-weight="bold" text-decoration="none" x="141.15185546875" y="290.5">UseCase1</text></g></g></g></svg>