<svg version="1.1" xmlns="http://www.w3.org/2000/svg" xmlns:xlink="http://www.w3.org/1999/xlink" width="276" height="364"><defs/><g><g transform="translate(-198,-110) scale(1,1)"><path fill="#C0C0C0" stroke="none" d="M 345 160.5 C 345 155.2532944 349.2532944 151 354.5 151 C 359.7467056 151 364 155.2532944 364 160.5 C 364 165.7467056 359.7467056 170 354.5 170 C 349.2532944 170 345 165.7467056 345 160.5 Z" opacity="0.2"/></g><g transform="translate(-198,-110) scale(1,1)"><path fill="#000000" stroke="none" d="M 338 153.5 C 338 148.2532944 342.2532944 144 347.5 144 C 352.7467056 144 357 148.2532944 357 153.5 C 357 158.7467056 352.7467056 163 347.5 163 C 342.2532944 163 338 158.7467056 338 153.5 Z"/></g><g transform="translate(-198,-110) scale(1,1)"><path fill="#C0C0C0" stroke="none" d="M 319 255 L 389.62451171875 255 Q 399.62451171875 255 399.62451171875 265 L 399.62451171875 285 Q 399.62451171875 295 389.62451171875 295 L 319 295 Q 309 295 309 285 L 309 265 Q 309 255 319 255 Z" opacity="0.2"/></g><g transform="translate(-198,-110) scale(1,1)"><path fill="#ffffff" stroke="none" d="M 312 248 L 382.62451171875 248 Q 392.62451171875 248 392.62451171875 258 L 392.62451171875 278 Q 392.62451171875 288 382.62451171875 288 L 312 288 Q 302 288 302 278 L 302 258 Q 302 248 312 248 Z"/></g><g transform="translate(-198,-110) scale(1,1)"><path fill="none" stroke="#000000" d="M 312 248 L 382.62451171875 248 Q 392.62451171875 248 392.62451171875 258 L 392.62451171875 278 Q 392.62451171875 288 382.62451171875 288 L 312 288 Q 302 288 302 278 L 302 258 Q 302 248 312 248 Z" stroke-miterlimit="10"/></g><g transform="translate(-198,-110) scale(1,1)"><g><path fill="none" stroke="none"/><text fill="#000000" stroke="none" font-family="Arial" font-size="13px" font-style="normal" font-weight="bold" text-decoration="none" x="310.095947265625" y="267.5">processInput</text></g></g><g transform="translate(-198,-110) scale(1,1)"><path fill="#C0C0C0" stroke="none" d="M 335 311 L 374 311 Q 384 311 384 321 L 384 341 Q 384 351 374 351 L 335 351 Q 325 351 325 341 L 325 321 Q 325 311 335 311 Z" opacity="0.2"/></g><g transform="translate(-198,-110) scale(1,1)"><path fill="#ffffff" stroke="none" d="M 328 304 L 367 304 Q 377 304 377 314 L 377 334 Q 377 344 367 344 L 328 344 Q 318 344 318 334 L 318 314 Q 318 304 328 304 Z"/></g><g transform="translate(-198,-110) scale(1,1)"><path fill="none" stroke="#000000" d="M 328 304 L 367 304 Q 377 304 377 314 L 377 334 Q 377 344 367 344 L 328 344 Q 318 344 318 334 L 318 314 Q 318 304 328 304 Z" stroke-miterlimit="10"/></g><g transform="translate(-198,-110) scale(1,1)"><g><path fill="none" stroke="none"/><text fill="#000000" stroke="none" font-family="Arial" font-size="13px" font-style="normal" font-weight="bold" text-decoration="none" x="327.619140625" y="323.5">update</text></g></g><g transform="translate(-198,-110) scale(1,1)"><path fill="#C0C0C0" stroke="none" d="M 337 367 L 376 367 Q 386 367 386 377 L 386 397 Q 386 407 376 407 L 337 407 Q 327 407 327 397 L 327 377 Q 327 367 337 367 Z" opacity="0.2"/></g><g transform="translate(-198,-110) scale(1,1)"><path fill="#ffffff" stroke="none" d="M 330 360 L 369 360 Q 379 360 379 370 L 379 390 Q 379 400 369 400 L 330 400 Q 320 400 320 390 L 320 370 Q 320 360 330 360 Z"/></g><g transform="translate(-198,-110) scale(1,1)"><path fill="none" stroke="#000000" d="M 330 360 L 369 360 Q 379 360 379 370 L 379 390 Q 379 400 369 400 L 330 400 Q 320 400 320 390 L 320 370 Q 320 360 330 360 Z" stroke-miterlimit="10"/></g><g transform="translate(-198,-110) scale(1,1)"><g><path fill="none" stroke="none"/><text fill="#000000" stroke="none" font-family="Arial" font-size="13px" font-style="normal" font-weight="bold" text-decoration="none" x="330.7109375" y="379.5">render</text></g></g><g transform="translate(-198,-110) scale(1,1)"><path fill="#C0C0C0" stroke="none" d="M 343 208.5 L 354.5 199 L 365 208.5 L 354.5 217 L 343 208.5" opacity="0.2"/></g><g transform="translate(-198,-110) scale(1,1)"><path fill="#ffffff" stroke="none" d="M 336 201 L 347 192 L 358 201 L 347 210 L 336 201"/></g><g transform="translate(-198,-110) scale(1,1)"><path fill="none" stroke="#000000" d="M 336 201 L 347 192 L 358 201 L 347 210 L 336 201 L 336 201" stroke-miterlimit="10"/></g><g transform="translate(-198,-110) scale(1,1)"><path fill="none" stroke="#000000" d="M 347 164 L 347 191" stroke-miterlimit="10"/></g><g transform="translate(-198,-110) scale(1,1)"><path fill="none" stroke="#000000" d="M 342.790482243984 180.83732514237585 L 347 191 L 351.209517756016 180.83732514237585" stroke-miterlimit="10"/></g><g transform="translate(-198,-110) scale(1,1)"><path fill="none" stroke="#000000" d="M 347 211 L 347 247" stroke-miterlimit="10"/></g><g transform="translate(-198,-110) scale(1,1)"><path fill="none" stroke="#000000" d="M 342.790482243984 236.83732514237585 L 347 247 L 351.209517756016 236.83732514237585" stroke-miterlimit="10"/></g><g transform="translate(-198,-110) scale(1,1)"><g><path fill="none" stroke="none"/><text fill="#000000" stroke="none" font-family="Arial" font-size="13px" font-style="normal" font-weight="normal" text-decoration="none" x="350.5" y="228.5"> [true]</text></g></g><g transform="translate(-198,-110) scale(1,1)"><path fill="none" stroke="#000000" d="M 347 289 L 347 303" stroke-miterlimit="10"/></g><g transform="translate(-198,-110) scale(1,1)"><path fill="none" stroke="#000000" d="M 342.790482243984 292.83732514237585 L 347 303 L 351.209517756016 292.83732514237585" stroke-miterlimit="10"/></g><g transform="translate(-198,-110) scale(1,1)"><path fill="none" stroke="#000000" d="M 348 345 L 348 359" stroke-miterlimit="10"/></g><g transform="translate(-198,-110) scale(1,1)"><path fill="none" stroke="#000000" d="M 343.790482243984 348.83732514237585 L 348 359 L 352.209517756016 348.83732514237585" stroke-miterlimit="10"/></g><g transform="translate(-198,-110) scale(1,1)"><path fill="none" stroke="#000000" d="M 320 380 L 264 380 L 264 200 L 336 200" stroke-miterlimit="10"/></g><g transform="translate(-198,-110) scale(1,1)"><path fill="none" stroke="#000000" d="M 325.83732514237585 204.209517756016 L 336 200 L 325.83732514237585 195.790482243984" stroke-miterlimit="10"/></g><g transform="translate(-198,-110) scale(1,1)"><path fill="#C0C0C0" stroke="none" d="M 343 435.5 C 343 428.59644 348.59644 423 355.5 423 C 362.40356 423 368 428.59644 368 435.5 C 368 442.40356 362.40356 448 355.5 448 C 348.59644 448 343 442.40356 343 435.5 Z" opacity="0.2"/></g><g transform="translate(-198,-110) scale(1,1)"><path fill="none" stroke="#000000" d="M 336 428.5 C 336 421.59644 341.59644 416 348.5 416 C 355.40356 416 361 421.59644 361 428.5 C 361 435.40356 355.40356 441 348.5 441 C 341.59644 441 336 435.40356 336 428.5 Z" stroke-miterlimit="10"/></g><g transform="translate(-198,-110) scale(1,1)"><path fill="#000000" stroke="none" d="M 341 428.5 C 341 424.357864 344.357864 421 348.5 421 C 352.642136 421 356 424.357864 356 428.5 C 356 432.642136 352.642136 436 348.5 436 C 344.357864 436 341 432.642136 341 428.5 Z"/></g><g transform="translate(-198,-110) scale(1,1)"><path fill="none" stroke="#000000" d="M 358 200 L 432 200 L 432 428 L 361 428" stroke-miterlimit="10"/></g><g transform="translate(-198,-110) scale(1,1)"><path fill="none" stroke="#000000" d="M 371.16267485762415 423.790482243984 L 361 428 L 371.16267485762415 432.209517756016" stroke-miterlimit="10"/></g><g transform="translate(-198,-110) scale(1,1)"><rect fill="#ffffff" stroke="none" x="208" y="120" width="256" height="21"/></g><g transform="translate(-198,-110) scale(1,1)"><path fill="none" stroke="#000000" d="M 208 120 L 464 120 L 464 141 L 208 141 L 208 120 Z Z" stroke-miterlimit="10" stroke-width="2"/></g><g transform="translate(-198,-110) scale(1,1)"><path fill="none" stroke="#000000" d="M 208 464 L 208 120 L 464 120 L 464 464" stroke-miterlimit="10" stroke-width="2"/></g><g transform="translate(-198,-110) scale(1,1)"><g><path fill="none" stroke="none"/><text fill="#000000" stroke="none" font-family="Arial" font-size="13px" font-style="normal" font-weight="normal" text-decoration="none" x="296.254150390625" y="137">Game Engine</text></g></g></g></svg>