<svg version="1.1" xmlns="http://www.w3.org/2000/svg" xmlns:xlink="http://www.w3.org/1999/xlink" width="589.57080078125" height="197"><defs/><g><g transform="translate(-70,-214) scale(1,1)"><rect fill="#C0C0C0" stroke="none" x="335" y="231" width="89.57080078125" height="57" opacity="0.2"/></g><g transform="translate(-70,-214) scale(1,1)"><rect fill="#ffffff" stroke="none" x="328" y="224" width="89.57080078125" height="57"/></g><g transform="translate(-70,-214) scale(1,1)"><path fill="none" stroke="#000000" d="M 328 224 L 417.57080078125 224 L 417.57080078125 281 L 328 281 L 328 224 Z Z" stroke-miterlimit="10"/></g><g transform="translate(-70,-214) scale(1,1)"><path fill="none" stroke="#000000" d="M 328 249 L 417.57080078125 249" stroke-miterlimit="10"/></g><g transform="translate(-70,-214) scale(1,1)"><path fill="none" stroke="#000000" d="M 328 259 L 417.57080078125 259" stroke-miterlimit="10"/></g><g transform="translate(-70,-214) scale(1,1)"><g><path fill="none" stroke="none"/><text fill="#000000" stroke="none" font-family="Arial" font-size="13px" font-style="italic" font-weight="bold" text-decoration="none" x="360.864501953125" y="243.5">Sort</text></g></g><g transform="translate(-70,-214) scale(1,1)"><g><path fill="none" stroke="none"/><text fill="#000000" stroke="none" font-family="Arial" font-size="13px" font-style="italic" font-weight="normal" text-decoration="none" x="333" y="276.5">+sort(l: List)</text></g></g><g transform="translate(-70,-214) scale(1,1)"><rect fill="#C0C0C0" stroke="none" x="279" y="351" width="89.57080078125" height="57" opacity="0.2"/></g><g transform="translate(-70,-214) scale(1,1)"><rect fill="#ffffff" stroke="none" x="272" y="344" width="89.57080078125" height="57"/></g><g transform="translate(-70,-214) scale(1,1)"><path fill="none" stroke="#000000" d="M 272 344 L 361.57080078125 344 L 361.57080078125 401 L 272 401 L 272 344 Z Z" stroke-miterlimit="10"/></g><g transform="translate(-70,-214) scale(1,1)"><path fill="none" stroke="#000000" d="M 272 369 L 361.57080078125 369" stroke-miterlimit="10"/></g><g transform="translate(-70,-214) scale(1,1)"><path fill="none" stroke="#000000" d="M 272 379 L 361.57080078125 379" stroke-miterlimit="10"/></g><g transform="translate(-70,-214) scale(1,1)"><g><path fill="none" stroke="none"/><text fill="#000000" stroke="none" font-family="Arial" font-size="13px" font-style="normal" font-weight="bold" text-decoration="none" x="286.4404296875" y="363.5">MergeSort</text></g></g><g transform="translate(-70,-214) scale(1,1)"><g><path fill="none" stroke="none"/><text fill="#000000" stroke="none" font-family="Arial" font-size="13px" font-style="normal" font-weight="normal" text-decoration="none" x="277" y="396.5">+sort(l: List)</text></g></g><g transform="translate(-70,-214) scale(1,1)"><rect fill="#C0C0C0" stroke="none" x="375" y="351" width="89.89453125" height="57" opacity="0.2"/></g><g transform="translate(-70,-214) scale(1,1)"><rect fill="#ffffff" stroke="none" x="368" y="344" width="89.89453125" height="57"/></g><g transform="translate(-70,-214) scale(1,1)"><path fill="none" stroke="#000000" d="M 368 344 L 457.89453125 344 L 457.89453125 401 L 368 401 L 368 344 Z Z" stroke-miterlimit="10"/></g><g transform="translate(-70,-214) scale(1,1)"><path fill="none" stroke="#000000" d="M 368 369 L 457.89453125 369" stroke-miterlimit="10"/></g><g transform="translate(-70,-214) scale(1,1)"><path fill="none" stroke="#000000" d="M 368 379 L 457.89453125 379" stroke-miterlimit="10"/></g><g transform="translate(-70,-214) scale(1,1)"><g><path fill="none" stroke="none"/><text fill="#000000" stroke="none" font-family="Arial" font-size="13px" font-style="normal" font-weight="bold" text-decoration="none" x="376.095947265625" y="363.5">InsertionSort</text></g></g><g transform="translate(-70,-214) scale(1,1)"><g><path fill="none" stroke="none"/><text fill="#000000" stroke="none" font-family="Arial" font-size="13px" font-style="normal" font-weight="normal" text-decoration="none" x="373" y="396.5">+sort(l: List)</text></g></g><g transform="translate(-70,-214) scale(1,1)"><rect fill="#C0C0C0" stroke="none" x="183" y="351" width="89.57080078125" height="57" opacity="0.2"/></g><g transform="translate(-70,-214) scale(1,1)"><rect fill="#ffffff" stroke="none" x="176" y="344" width="89.57080078125" height="57"/></g><g transform="translate(-70,-214) scale(1,1)"><path fill="none" stroke="#000000" d="M 176 344 L 265.57080078125 344 L 265.57080078125 401 L 176 401 L 176 344 Z Z" stroke-miterlimit="10"/></g><g transform="translate(-70,-214) scale(1,1)"><path fill="none" stroke="#000000" d="M 176 369 L 265.57080078125 369" stroke-miterlimit="10"/></g><g transform="translate(-70,-214) scale(1,1)"><path fill="none" stroke="#000000" d="M 176 379 L 265.57080078125 379" stroke-miterlimit="10"/></g><g transform="translate(-70,-214) scale(1,1)"><g><path fill="none" stroke="none"/><text fill="#000000" stroke="none" font-family="Arial" font-size="13px" font-style="normal" font-weight="bold" text-decoration="none" x="192.24951171875" y="363.5">QuickSort</text></g></g><g transform="translate(-70,-214) scale(1,1)"><g><path fill="none" stroke="none"/><text fill="#000000" stroke="none" font-family="Arial" font-size="13px" font-style="normal" font-weight="normal" text-decoration="none" x="181" y="396.5">+sort(l: List)</text></g></g><g transform="translate(-70,-214) scale(1,1)"><rect fill="#C0C0C0" stroke="none" x="471" y="351" width="89.57080078125" height="57" opacity="0.2"/></g><g transform="translate(-70,-214) scale(1,1)"><rect fill="#ffffff" stroke="none" x="464" y="344" width="89.57080078125" height="57"/></g><g transform="translate(-70,-214) scale(1,1)"><path fill="none" stroke="#000000" d="M 464 344 L 553.57080078125 344 L 553.57080078125 401 L 464 401 L 464 344 Z Z" stroke-miterlimit="10"/></g><g transform="translate(-70,-214) scale(1,1)"><path fill="none" stroke="#000000" d="M 464 369 L 553.57080078125 369" stroke-miterlimit="10"/></g><g transform="translate(-70,-214) scale(1,1)"><path fill="none" stroke="#000000" d="M 464 379 L 553.57080078125 379" stroke-miterlimit="10"/></g><g transform="translate(-70,-214) scale(1,1)"><g><path fill="none" stroke="none"/><text fill="#000000" stroke="none" font-family="Arial" font-size="13px" font-style="normal" font-weight="bold" text-decoration="none" x="481.325439453125" y="363.5">HeapSort</text></g></g><g transform="translate(-70,-214) scale(1,1)"><g><path fill="none" stroke="none"/><text fill="#000000" stroke="none" font-family="Arial" font-size="13px" font-style="normal" font-weight="normal" text-decoration="none" x="469" y="396.5">+sort(l: List)</text></g></g><g transform="translate(-70,-214) scale(1,1)"><rect fill="#C0C0C0" stroke="none" x="87" y="351" width="89.57080078125" height="57" opacity="0.2"/></g><g transform="translate(-70,-214) scale(1,1)"><rect fill="#ffffff" stroke="none" x="80" y="344" width="89.57080078125" height="57"/></g><g transform="translate(-70,-214) scale(1,1)"><path fill="none" stroke="#000000" d="M 80 344 L 169.57080078125 344 L 169.57080078125 401 L 80 401 L 80 344 Z Z" stroke-miterlimit="10"/></g><g transform="translate(-70,-214) scale(1,1)"><path fill="none" stroke="#000000" d="M 80 369 L 169.57080078125 369" stroke-miterlimit="10"/></g><g transform="translate(-70,-214) scale(1,1)"><path fill="none" stroke="#000000" d="M 80 379 L 169.57080078125 379" stroke-miterlimit="10"/></g><g transform="translate(-70,-214) scale(1,1)"><g><path fill="none" stroke="none"/><text fill="#000000" stroke="none" font-family="Arial" font-size="13px" font-style="normal" font-weight="bold" text-decoration="none" x="99.74072265625" y="363.5">TreeSort</text></g></g><g transform="translate(-70,-214) scale(1,1)"><g><path fill="none" stroke="none"/><text fill="#000000" stroke="none" font-family="Arial" font-size="13px" font-style="normal" font-weight="normal" text-decoration="none" x="85" y="396.5">+sort(l: List)</text></g></g><g transform="translate(-70,-214) scale(1,1)"><rect fill="#C0C0C0" stroke="none" x="567" y="351" width="89.57080078125" height="57" opacity="0.2"/></g><g transform="translate(-70,-214) scale(1,1)"><rect fill="#ffffff" stroke="none" x="560" y="344" width="89.57080078125" height="57"/></g><g transform="translate(-70,-214) scale(1,1)"><path fill="none" stroke="#000000" d="M 560 344 L 649.57080078125 344 L 649.57080078125 401 L 560 401 L 560 344 Z Z" stroke-miterlimit="10"/></g><g transform="translate(-70,-214) scale(1,1)"><path fill="none" stroke="#000000" d="M 560 369 L 649.57080078125 369" stroke-miterlimit="10"/></g><g transform="translate(-70,-214) scale(1,1)"><path fill="none" stroke="#000000" d="M 560 379 L 649.57080078125 379" stroke-miterlimit="10"/></g><g transform="translate(-70,-214) scale(1,1)"><g><path fill="none" stroke="none"/><text fill="#000000" stroke="none" font-family="Arial" font-size="13px" font-style="normal" font-weight="bold" text-decoration="none" x="582.276611328125" y="363.5">TimSort</text></g></g><g transform="translate(-70,-214) scale(1,1)"><g><path fill="none" stroke="none"/><text fill="#000000" stroke="none" font-family="Arial" font-size="13px" font-style="normal" font-weight="normal" text-decoration="none" x="565" y="396.5">+sort(l: List)</text></g></g><g transform="translate(-70,-214) scale(1,1)"><path fill="none" stroke="#000000" d="M 600 344 L 600 256 L 418 256" stroke-miterlimit="10"/></g><g transform="translate(-70,-214) scale(1,1)"><path fill="none" stroke="#000000" d="M 428.16267485762415 251.790482243984 L 418 256 L 428.16267485762415 260.209517756016" stroke-miterlimit="10"/></g><g transform="translate(-70,-214) scale(1,1)"><rect fill="#C0C0C0" stroke="none" x="95" y="231" width="79.7763671875" height="44" opacity="0.2"/></g><g transform="translate(-70,-214) scale(1,1)"><rect fill="#ffffff" stroke="none" x="88" y="224" width="79.7763671875" height="44"/></g><g transform="translate(-70,-214) scale(1,1)"><path fill="none" stroke="#000000" d="M 88 224 L 167.7763671875 224 L 167.7763671875 268 L 88 268 L 88 224 Z Z" stroke-miterlimit="10"/></g><g transform="translate(-70,-214) scale(1,1)"><path fill="none" stroke="#000000" d="M 88 249 L 167.7763671875 249" stroke-miterlimit="10"/></g><g transform="translate(-70,-214) scale(1,1)"><path fill="none" stroke="#000000" d="M 88 259 L 167.7763671875 259" stroke-miterlimit="10"/></g><g transform="translate(-70,-214) scale(1,1)"><g><path fill="none" stroke="none"/><text fill="#000000" stroke="none" font-family="Arial" font-size="13px" font-style="normal" font-weight="bold" text-decoration="none" x="96.089599609375" y="243.5">Application</text></g></g><g transform="translate(-70,-214) scale(1,1)"><path fill="none" stroke="#000000" d="M 328 251 L 168 251" stroke-miterlimit="10"/></g><g transform="translate(-70,-214) scale(1,1)"><path fill="#FFFFFF" stroke="none" d="M 178.16267485762415 246.790482243984 L 168 251 L 178.16267485762415 255.209517756016 L 190 251"/></g><g transform="translate(-70,-214) scale(1,1)"><path fill="none" stroke="#000000" d="M 178.16267485762415 246.790482243984 L 168 251 L 178.16267485762415 255.209517756016 L 190 251 L 178.16267485762415 246.790482243984" stroke-miterlimit="10"/></g><g transform="translate(-70,-214) scale(1,1)"><g><path fill="none" stroke="none"/><text fill="#000000" stroke="none" font-family="Arial" font-size="13px" font-style="normal" font-weight="normal" text-decoration="none" x="287.5" y="271.5">+sort</text></g></g><g transform="translate(-70,-214) scale(1,1)"><path fill="none" stroke="#000000" d="M 134 344 L 134 320 L 373 320 L 373 281" stroke-miterlimit="10"/></g><g transform="translate(-70,-214) scale(1,1)"><path fill="#FFFFFF" stroke="none" d="M 381.419035512032 301.3253497152483 L 373 281 L 364.580964487968 301.3253497152483"/></g><g transform="translate(-70,-214) scale(1,1)"><path fill="none" stroke="#000000" d="M 381.419035512032 301.3253497152483 L 373 281 L 364.580964487968 301.3253497152483 L 381.419035512032 301.3253497152483" stroke-miterlimit="10"/></g><g transform="translate(-70,-214) scale(1,1)"><path fill="none" stroke="#000000" d="M 219 344 L 219 320 L 373 320 L 373 281" stroke-miterlimit="10"/></g><g transform="translate(-70,-214) scale(1,1)"><path fill="#FFFFFF" stroke="none" d="M 381.419035512032 301.3253497152483 L 373 281 L 364.580964487968 301.3253497152483"/></g><g transform="translate(-70,-214) scale(1,1)"><path fill="none" stroke="#000000" d="M 381.419035512032 301.3253497152483 L 373 281 L 364.580964487968 301.3253497152483 L 381.419035512032 301.3253497152483" stroke-miterlimit="10"/></g><g transform="translate(-70,-214) scale(1,1)"><path fill="none" stroke="#000000" d="M 308 344 L 308 320 L 373 320 L 373 281" stroke-miterlimit="10"/></g><g transform="translate(-70,-214) scale(1,1)"><path fill="#FFFFFF" stroke="none" d="M 381.419035512032 301.3253497152483 L 373 281 L 364.580964487968 301.3253497152483"/></g><g transform="translate(-70,-214) scale(1,1)"><path fill="none" stroke="#000000" d="M 381.419035512032 301.3253497152483 L 373 281 L 364.580964487968 301.3253497152483 L 381.419035512032 301.3253497152483" stroke-miterlimit="10"/></g><g transform="translate(-70,-214) scale(1,1)"><path fill="none" stroke="#000000" d="M 412 344 L 412 320 L 373 320 L 373 281" stroke-miterlimit="10"/></g><g transform="translate(-70,-214) scale(1,1)"><path fill="#FFFFFF" stroke="none" d="M 381.419035512032 301.3253497152483 L 373 281 L 364.580964487968 301.3253497152483"/></g><g transform="translate(-70,-214) scale(1,1)"><path fill="none" stroke="#000000" d="M 381.419035512032 301.3253497152483 L 373 281 L 364.580964487968 301.3253497152483 L 381.419035512032 301.3253497152483" stroke-miterlimit="10"/></g><g transform="translate(-70,-214) scale(1,1)"><path fill="none" stroke="#000000" d="M 513 344 L 513 320 L 373 320 L 373 281" stroke-miterlimit="10"/></g><g transform="translate(-70,-214) scale(1,1)"><path fill="#FFFFFF" stroke="none" d="M 381.419035512032 301.3253497152483 L 373 281 L 364.580964487968 301.3253497152483"/></g><g transform="translate(-70,-214) scale(1,1)"><path fill="none" stroke="#000000" d="M 381.419035512032 301.3253497152483 L 373 281 L 364.580964487968 301.3253497152483 L 381.419035512032 301.3253497152483" stroke-miterlimit="10"/></g><g transform="translate(-70,-214) scale(1,1)"><path fill="none" stroke="#000000" d="M 588 344 L 588 320 L 373 320 L 373 281" stroke-miterlimit="10"/></g><g transform="translate(-70,-214) scale(1,1)"><path fill="#FFFFFF" stroke="none" d="M 381.419035512032 301.3253497152483 L 373 281 L 364.580964487968 301.3253497152483"/></g><g transform="translate(-70,-214) scale(1,1)"><path fill="none" stroke="#000000" d="M 381.419035512032 301.3253497152483 L 373 281 L 364.580964487968 301.3253497152483 L 381.419035512032 301.3253497152483" stroke-miterlimit="10"/></g></g></svg>