<svg xmlns="http://www.w3.org/2000/svg" xmlns:xlink="http://www.w3.org/1999/xlink" xmlns:lucid="lucid" width="1338.27" height="837.83"><g transform="translate(-347.5 -322.16666666666663)" lucid:page-tab-id="PJSlnrykgRkf"><path d="M845.57 580c-8.84 0-16 7.16-16 16v48c0 8.84 7.16 16 16 16H1164c8.84 0 16-7.16 16-16v-48c0-8.84-7.16-16-16-16z" stroke="#fff" stroke-width="3" fill-opacity="0"/><use xlink:href="#a" transform="matrix(1,0,0,1,837.5652173913044,588) translate(115.74074074074073 36.44444444444444)"/><path d="M416 400c-8.84 0-16 7.16-16 16v48c0 8.84 7.16 16 16 16h148.87c8.84 0 16-7.16 16-16v-48c0-8.84-7.16-16-16-16z" stroke="#fff" stroke-width="3" fill-opacity="0"/><use xlink:href="#b" transform="matrix(1,0,0,1,408,408) translate(37.438271604938265 36.44444444444444)"/><path d="M416 580c-8.84 0-16 7.16-16 16v48c0 8.84 7.16 16 16 16h148.87c8.84 0 16-7.16 16-16v-48c0-8.84-7.16-16-16-16z" stroke="#fff" stroke-width="3" fill-opacity="0"/><use xlink:href="#c" transform="matrix(1,0,0,1,408,588) translate(22.09876543209876 36.44444444444444)"/><path d="M416 760c-8.84 0-16 7.16-16 16v48c0 8.84 7.16 16 16 16h148.87c8.84 0 16-7.16 16-16v-48c0-8.84-7.16-16-16-16z" stroke="#fff" stroke-width="3" fill-opacity="0"/><use xlink:href="#d" transform="matrix(1,0,0,1,408,768) translate(23.33333333333333 36.44444444444444)"/><path d="M416 940c-8.84 0-16 7.16-16 16v48c0 8.84 7.16 16 16 16h148.87c8.84 0 16-7.16 16-16v-48c0-8.84-7.16-16-16-16z" stroke="#fff" stroke-width="3" fill-opacity="0"/><use xlink:href="#e" transform="matrix(1,0,0,1,408,948) translate(31.97530864197531 36.44444444444444)"/><path d="M876 820c-8.84 0-16 7.16-16 16v48c0 8.84 7.16 16 16 16h148.87c8.84 0 16-7.16 16-16v-48c0-8.84-7.16-16-16-16z" stroke="#fff" stroke-width="3" fill-opacity="0"/><use xlink:href="#f" transform="matrix(1,0,0,1,868,828) translate(18.425925925925924 36.44444444444444)"/><path d="M930.35 400c-8.84 0-16 7.16-16 16v48c0 8.84 7.16 16 16 16h148.87c8.83 0 16-7.16 16-16v-48c0-8.84-7.17-16-16-16z" stroke="#fff" stroke-width="3" fill-opacity="0"/><use xlink:href="#g" transform="matrix(1,0,0,1,922.3478260869565,408) translate(10.339506172839506 36.44444444444444)"/><path d="M1436 400c-8.84 0-16 7.16-16 16v48c0 8.84 7.16 16 16 16h148.87c8.84 0 16-7.16 16-16v-48c0-8.84-7.16-16-16-16z" stroke="#fff" stroke-width="3" fill-opacity="0"/><use xlink:href="#h" transform="matrix(1,0,0,1,1428,408) translate(18.364197530864203 36.44444444444444)"/><path d="M1436 580c-8.84 0-16 7.16-16 16v48c0 8.84 7.16 16 16 16h148.87c8.84 0 16-7.16 16-16v-48c0-8.84-7.16-16-16-16z" stroke="#fff" stroke-width="3" fill-opacity="0"/><use xlink:href="#i" transform="matrix(1,0,0,1,1428,588) translate(14.074074074074076 36.44444444444444)"/><path d="M1436 760c-8.84 0-16 7.16-16 16v48c0 8.84 7.16 16 16 16h148.87c8.84 0 16-7.16 16-16v-48c0-8.84-7.16-16-16-16z" stroke="#fff" stroke-width="3" fill-opacity="0"/><use xlink:href="#j" transform="matrix(1,0,0,1,1428,768) translate(1.5123456790123413 36.44444444444444)"/><path d="M1436 920c-8.84 0-16 7.16-16 16v48c0 8.84 7.16 16 16 16h148.87c8.84 0 16-7.16 16-16v-48c0-8.84-7.16-16-16-16z" stroke="#fff" stroke-width="3" fill-opacity="0"/><use xlink:href="#k" transform="matrix(1,0,0,1,1428,928) translate(-1.3580246913580254 36.44444444444444)"/><path d="M1417.5 960h-250.97c-3.32 0-6-2.7-6-6V680" stroke="#fff" stroke-width="2" fill="none"/><path d="M1418.5 961h-1.03v-2h1.03z" stroke="#fff" stroke-width=".05" fill="#fff"/><path d="M1160.53 664.74l4.63 14.26h-9.27z" stroke="#fff" stroke-width="2" fill="#fff"/><use xlink:href="#l" transform="matrix(1,0,0,1,1229.206151407386,934.6666666666667) translate(0 14.222222222222223)"/><path d="M1510.43 842.5V900" stroke="#fff" stroke-width="2" fill="none"/><path d="M1511.43 842.53h-2v-1.03h2z" stroke="#fff" stroke-width=".05" fill="#fff"/><path d="M1510.43 915.26L1505.8 901h9.27z" stroke="#fff" stroke-width="2" fill="#fff"/><use xlink:href="#l" transform="matrix(1,0,0,1,1518.434782539225,869.3333333333334) translate(0 14.222222222222223)"/><path d="M1182.5 638.52H1294c3.3 0 6 2.7 6 6v128.15c0 3.3 2.7 6 6 6h94" stroke="#fff" stroke-width="2" fill="none"/><path d="M1182.53 639.52h-1.03v-2h1.03z" stroke="#fff" stroke-width=".05" fill="#fff"/><path d="M1415.26 778.67L1401 783.3v-9.27z" stroke="#fff" stroke-width="2" fill="#fff"/><use xlink:href="#m" transform="matrix(1,0,0,1,1308.000000195652,691.2793922320719) translate(0 14.222222222222223)"/><use xlink:href="#n" transform="matrix(1,0,0,1,1308.000000195652,691.2793922320719) translate(0 35.55555555555556)"/><path d="M1197.58 652.87H1234c3.3 0 6 2.7 6 6v156.46c0 3.32 2.7 6 6 6h171.5" stroke="#fff" stroke-width="2" fill="none"/><path d="M1182.3 652.87l14.28-4.63v9.27z" stroke="#fff" stroke-width="2" fill="#fff"/><path d="M1418.5 822.33h-1.03v-2h1.03z" stroke="#fff" stroke-width=".05" fill="#fff"/><use xlink:href="#o" transform="matrix(1,0,0,1,1329.2989151734516,796.0000000000001) translate(0 14.222222222222223)"/><path d="M1182.48 595.74h117.44c.05 0 .1-.04.1-.1 0-.04.03-.1.08-.1h99.94" stroke="#fff" stroke-width="2" fill="none"/><path d="M1182.5 596.74h-1v-.84l-.15-1.16h1.15z" stroke="#fff" stroke-width=".05" fill="#fff"/><path d="M1415.3 595.55l-14.26 4.64v-9.28z" stroke="#fff" stroke-width="2" fill="#fff"/><use xlink:href="#p" transform="matrix(1,0,0,1,1238.3784282582985,570.2216746123024) translate(0 14.222222222222223)"/><use xlink:href="#q" transform="matrix(1,0,0,1,1238.3784282582985,570.2216746123024) translate(74.02469135802471 14.222222222222223)"/><path d="M1200 620h217.5" stroke="#fff" stroke-width="2" fill="none"/><path d="M1184.74 620l14.26-4.64v9.28z" stroke="#fff" stroke-width="2" fill="#fff"/><path d="M1418.5 621h-1.03v-2h1.03z" stroke="#fff" stroke-width=".05" fill="#fff"/><use xlink:href="#o" transform="matrix(1,0,0,1,1347.6201837523724,624) translate(0 14.222222222222223)"/><path d="M1601.15 587.52h33c3.32 0 6 2.68 6 6v52.96c0 3.32-2.68 6-6 6h-15.5" stroke="#fff" stroke-width="2" fill="none"/><path d="M1601.18 588.52h-.6l-.53-1.27-.57-.73h1.7z" stroke="#fff" stroke-width=".05" fill="#fff"/><path d="M1603.4 652.48l14.26-4.63v9.27z" stroke="#fff" stroke-width="2" fill="#fff"/><use xlink:href="#l" transform="matrix(1,0,0,1,1648.1539478017232,609.333418221437) translate(0 14.222222222222223)"/><path d="M966.2 500v77.5" stroke="#fff" stroke-width="2" fill="none"/><path d="M966.2 484.74l4.63 14.26h-9.27z" stroke="#fff" stroke-width="2" fill="#fff"/><path d="M967.2 578.5h-2v-1.03h2z" stroke="#fff" stroke-width=".05" fill="#fff"/><use xlink:href="#r" transform="matrix(1,0,0,1,889.1556102470652,508.6666666666667) translate(0.010000000000005116 14.222222222222223)"/><use xlink:href="#s" transform="matrix(1,0,0,1,889.1556102470652,508.6666666666667) translate(14.874197530864201 35.55555555555556)"/><path d="M1039.82 482.5V560" stroke="#fff" stroke-width="2" fill="none"/><path d="M1040.82 482.53h-2v-1.03h2z" stroke="#fff" stroke-width=".05" fill="#fff"/><path d="M1039.82 575.26L1035.2 561h9.26z" stroke="#fff" stroke-width="2" fill="#fff"/><path d="M979.45 397.5v-33c0-3.3 2.7-6 6-6h38.67c3.3 0 6 2.7 6 6V380" stroke="#fff" stroke-width="2" fill="none"/><path d="M980.45 398.5h-2v-1.03h2z" stroke="#fff" stroke-width=".05" fill="#fff"/><path d="M1030.12 395.26l-4.64-14.26h9.27z" stroke="#fff" stroke-width="2" fill="#fff"/><use xlink:href="#l" transform="matrix(1,0,0,1,991.4739667203434,333.16666666666663) translate(0 14.222222222222223)"/><path d="M1476.87 397.5v-33c0-3.3 2.7-6 6-6h49.33c3.32 0 6 2.7 6 6V380" stroke="#fff" stroke-width="2" fill="none"/><path d="M1477.87 398.5h-2v-1.03h2z" stroke="#fff" stroke-width=".05" fill="#fff"/><path d="M1538.2 395.26l-4.63-14.26h9.27z" stroke="#fff" stroke-width="2" fill="#fff"/><use xlink:href="#l" transform="matrix(1,0,0,1,1494.2275899087497,333.16666666666663) translate(0 14.222222222222223)"/><path d="M1400 421.33h-283.13c-3.3 0-6 2.7-6 6V577.5" stroke="#fff" stroke-width="2" fill="none"/><path d="M1415.26 421.33l-14.26 4.64v-9.27z" stroke="#fff" stroke-width="2" fill="#fff"/><path d="M1111.87 578.5h-2v-1.03h2z" stroke="#fff" stroke-width=".05" fill="#fff"/><use xlink:href="#t" transform="matrix(1,0,0,1,1235.8584762112664,374.66666666666663) translate(0 14.222222222222223)"/><use xlink:href="#s" transform="matrix(1,0,0,1,1235.8584762112664,374.66666666666663) translate(0 35.55555555555556)"/><path d="M1417.5 458.67h-255.3c-3.33 0-6 2.68-6 6V560" stroke="#fff" stroke-width="2" fill="none"/><path d="M1418.5 459.67h-1.03v-2h1.03z" stroke="#fff" stroke-width=".05" fill="#fff"/><path d="M1156.2 575.26l-4.65-14.26h9.27z" stroke="#fff" stroke-width="2" fill="#fff"/><use xlink:href="#o" transform="matrix(1,0,0,1,1342.0747191232078,462.6666666666666) translate(0 14.222222222222223)"/><path d="M950.43 902.5V1064c0 3.3-2.68 6-6 6H364.5c-3.3 0-6-2.7-6-6V806c0-3.3 2.7-6 6-6H380" stroke="#fff" stroke-width="2" fill="none"/><path d="M951.43 902.53h-2v-1.03h2z" stroke="#fff" stroke-width=".05" fill="#fff"/><path d="M395.26 800L381 804.64v-9.28z" stroke="#fff" stroke-width="2" fill="#fff"/><use xlink:href="#l" transform="matrix(1,0,0,1,915.8174985886076,1003.9467712152301) translate(0 14.222222222222223)"/><path d="M490.43 937.5V860" stroke="#fff" stroke-width="2" fill="none"/><path d="M491.43 938.5h-2v-1.03h2z" stroke="#fff" stroke-width=".05" fill="#fff"/><path d="M490.43 844.74l4.64 14.26h-9.27z" stroke="#fff" stroke-width="2" fill="#fff"/><use xlink:href="#l" transform="matrix(1,0,0,1,455.8174985886077,884.415475003104) translate(0 14.222222222222223)"/><path d="M490.43 662.5V740" stroke="#fff" stroke-width="2" fill="none"/><path d="M491.43 662.53h-2v-1.03h2z" stroke="#fff" stroke-width=".05" fill="#fff"/><path d="M490.43 755.26L485.8 741h9.27z" stroke="#fff" stroke-width="2" fill="#fff"/><use xlink:href="#l" transform="matrix(1,0,0,1,455.8174985886077,699.3333333333334) translate(0 14.222222222222223)"/><path d="M977.9 662.5V800" stroke="#fff" stroke-width="2" fill="none"/><path d="M978.9 662.53h-2v-1.03h2z" stroke="#fff" stroke-width=".05" fill="#fff"/><path d="M977.9 815.26L973.27 801h9.27z" stroke="#fff" stroke-width="2" fill="#fff"/><use xlink:href="#r" transform="matrix(1,0,0,1,985.9033810103666,703.995081323638) translate(0 14.222222222222223)"/><use xlink:href="#u" transform="matrix(1,0,0,1,985.9033810103666,703.995081323638) translate(0 35.55555555555556)"/><path d="M924.57 680v137.5" stroke="#fff" stroke-width="2" fill="none"/><path d="M924.57 664.74L929.2 679h-9.26z" stroke="#fff" stroke-width="2" fill="#fff"/><path d="M925.57 818.5h-2v-1.03h2z" stroke="#fff" stroke-width=".05" fill="#fff"/><use xlink:href="#o" transform="matrix(1,0,0,1,872.2786457796423,778.2089059165381) translate(0 14.222222222222223)"/><path d="M583.37 959.9H714c3.3 0 6-2.67 6-6V696c0-3.3 2.7-6 6-6h128.38c3.3 0 6-2.7 6-6v-4" stroke="#fff" stroke-width="2" fill="none"/><path d="M583.4 960.9h-1.03v-2h1.03z" stroke="#fff" stroke-width=".05" fill="#fff"/><path d="M860.38 664.74L865 679h-9.26z" stroke="#fff" stroke-width="2" fill="#fff"/><use xlink:href="#o" transform="matrix(1,0,0,1,667.7037037037037,865.3694010425755) translate(0 14.222222222222223)"/><path d="M600.62 1006H754c3.3 0 6-2.68 6-6V716c0-3.3 2.7-6 6-6h110.23c3.32 0 6-2.7 6-6v-41.5" stroke="#fff" stroke-width="2" fill="none"/><path d="M585.36 1006l14.26-4.63v9.27z" stroke="#fff" stroke-width="2" fill="#fff"/><path d="M883.23 662.53h-2v-1.03h2z" stroke="#fff" stroke-width=".05" fill="#fff"/><use xlink:href="#v" transform="matrix(1,0,0,1,768,892.5496254500499) translate(0 14.222222222222223)"/><use xlink:href="#u" transform="matrix(1,0,0,1,768,892.5496254500499) translate(0 35.55555555555556)"/><path d="M583.37 620h226.2" stroke="#fff" stroke-width="2" fill="none"/><path d="M583.4 621h-1.03v-2h1.03z" stroke="#fff" stroke-width=".05" fill="#fff"/><path d="M824.83 620l-14.27 4.64v-9.28z" stroke="#fff" stroke-width="2" fill="#fff"/><use xlink:href="#w" transform="matrix(1,0,0,1,662.9770909010826,594.6666666666666) translate(0 14.222222222222223)"/><path d="M829.73 586.8H705.36c-.04 0-.08.04-.08.1 0 .03-.04.07-.08.07H598.33" stroke="#fff" stroke-width="2" fill="none"/><path d="M830.4 587.26l-.24.55h-.45v-2h1.8z" stroke="#fff" stroke-width=".05" fill="#fff"/><path d="M583.06 586.97l14.27-4.64v9.27z" stroke="#fff" stroke-width="2" fill="#fff"/><use xlink:href="#x" transform="matrix(1,0,0,1,634.4168227517813,561.6348692084662) translate(0 14.222222222222223)"/><use xlink:href="#y" transform="matrix(1,0,0,1,634.4168227517813,561.6348692084662) translate(39.358024691358025 14.222222222222223)"/><path d="M583.37 800H654c3.3 0 6-2.7 6-6V651.96c0-3.32 2.7-6 6-6h143.8" stroke="#fff" stroke-width="2" fill="none"/><path d="M583.4 801h-1.03v-2h1.03z" stroke="#fff" stroke-width=".05" fill="#fff"/><path d="M825.07 645.96l-14.26 4.63v-9.28z" stroke="#fff" stroke-width="2" fill="#fff"/><use xlink:href="#l" transform="matrix(1,0,0,1,625.3827160493827,709.3543579946765) translate(0 14.222222222222223)"/><path d="M490.43 482.5V524c0 3.3 2.7 6 6 6h344c3.32 0 6 2.7 6 6v24" stroke="#fff" stroke-width="2" fill="none"/><path d="M491.43 482.53h-2v-1.03h2z" stroke="#fff" stroke-width=".05" fill="#fff"/><path d="M846.43 575.26L841.8 561h9.27z" stroke="#fff" stroke-width="2" fill="#fff"/><use xlink:href="#o" transform="matrix(1,0,0,1,624.3752893236756,504.6666666666667) translate(0 14.222222222222223)"/><path d="M869.53 577.5V446c0-3.3-2.7-6-6-6H600.87" stroke="#fff" stroke-width="2" fill="none"/><path d="M870.53 578.5h-2v-1.03h2z" stroke="#fff" stroke-width=".05" fill="#fff"/><path d="M585.6 440l14.27-4.64v9.28z" stroke="#fff" stroke-width="2" fill="#fff"/><use xlink:href="#x" transform="matrix(1,0,0,1,626.0073372915514,414.66666666666663) translate(0 14.222222222222223)"/><use xlink:href="#z" transform="matrix(1,0,0,1,626.0073372915514,414.66666666666663) translate(39.358024691358025 14.222222222222223)"/><path d="M996 1060c-8.84 0-16 7.16-16 16v48c0 8.84 7.16 16 16 16h148.87c8.84 0 16-7.16 16-16v-48c0-8.84-7.16-16-16-16z" stroke="#fff" stroke-width="3" fill-opacity="0"/><use xlink:href="#A" transform="matrix(1,0,0,1,988,1068) translate(25.092592592592588 36.44444444444444)"/><path d="M1296 1060c-8.84 0-16 7.16-16 16v48c0 8.84 7.16 16 16 16h148.87c8.84 0 16-7.16 16-16v-48c0-8.84-7.16-16-16-16z" stroke="#fff" stroke-width="3" fill-opacity="0"/><use xlink:href="#B" transform="matrix(1,0,0,1,1288,1068) translate(30.030864197530867 36.44444444444444)"/><path d="M1163.37 1100H1260" stroke="#fff" stroke-width="2" fill="none"/><path d="M1163.4 1101h-1.03v-2h1.03z" stroke="#fff" stroke-width=".05" fill="#fff"/><path d="M1275.26 1100l-14.26 4.64v-9.28z" stroke="#fff" stroke-width="2" fill="#fff"/><use xlink:href="#l" transform="matrix(1,0,0,1,1207.1261405246914,1104) translate(0 14.222222222222223)"/><path d="M1070.46 662.5V1040" stroke="#fff" stroke-width="2" fill="none"/><path d="M1071.46 662.53h-2v-1.03h2z" stroke="#fff" stroke-width=".05" fill="#fff"/><path d="M1070.46 1055.26l-4.64-14.26h9.27z" stroke="#fff" stroke-width="2" fill="#fff"/><use xlink:href="#C" transform="matrix(1,0,0,1,1008.2836785846803,989.0760014341924) translate(8.800123456790118 14.222222222222223)"/><use xlink:href="#s" transform="matrix(1,0,0,1,1008.2836785846803,989.0760014341924) translate(0.00999999999999801 35.55555555555556)"/><path d="M1102.8 680v377.5" stroke="#fff" stroke-width="2" fill="none"/><path d="M1102.8 664.74l4.62 14.26h-9.27z" stroke="#fff" stroke-width="2" fill="#fff"/><path d="M1103.8 1058.5h-2v-1.03h2z" stroke="#fff" stroke-width=".05" fill="#fff"/><use xlink:href="#w" transform="matrix(1,0,0,1,1110.789616803414,1023.9924921352798) translate(0 14.222222222222223)"/><path d="M1370.43 1057.5V1016c0-3.3-2.68-6-6-6h-224.46c-3.32 0-6-2.7-6-6V680" stroke="#fff" stroke-width="2" fill="none"/><path d="M1371.43 1058.5h-2v-1.03h2z" stroke="#fff" stroke-width=".05" fill="#fff"/><path d="M1133.97 664.74l4.63 14.26h-9.27z" stroke="#fff" stroke-width="2" fill="#fff"/><g><use xlink:href="#l" transform="matrix(1,0,0,1,1241.9084401873206,984.6666666666667) translate(0 14.222222222222223)"/></g><path d="M1463.26 1075.03h33c3.3 0 6 2.7 6 6v37.94c0 3.3-2.7 6-6 6h-15.5" stroke="#fff" stroke-width="2" fill="none"/><path d="M1463.28 1076.03h-.9v-.13l-.26-1.87h1.16z" stroke="#fff" stroke-width=".05" fill="#fff"/><path d="M1465.5 1124.97l14.26-4.64v9.27z" stroke="#fff" stroke-width="2" fill="#fff"/><g><use xlink:href="#l" transform="matrix(1,0,0,1,1510.2554654834014,1089.3333815310623) translate(0 14.222222222222223)"/></g><defs><path fill="#fff" d="M240 0l2-218c-23 76-54 145-80 218h-23L58-218 59 0H30v-248h44l77 211c21-75 51-140 76-211h43V0h-30" id="D"/><path fill="#fff" d="M141-36C126-15 110 5 73 4 37 3 15-17 15-53c-1-64 63-63 125-63 3-35-9-54-41-54-24 1-41 7-42 31l-33-3c5-37 33-52 76-52 45 0 72 20 72 64v82c-1 20 7 32 28 27v20c-31 9-61-2-59-35zM48-53c0 20 12 33 32 33 41-3 63-29 60-74-43 2-92-5-92 41" id="E"/><path fill="#fff" d="M24-231v-30h32v30H24zM24 0v-190h32V0H24" id="F"/><path fill="#fff" d="M117-194c89-4 53 116 60 194h-32v-121c0-31-8-49-39-48C34-167 62-67 57 0H25l-1-190h30c1 10-1 24 2 32 11-22 29-35 61-36" id="G"/><path fill="#fff" d="M100-194c63 0 86 42 84 106H49c0 40 14 67 53 68 26 1 43-12 49-29l28 8c-11 28-37 45-77 45C44 4 14-33 15-96c1-61 26-98 85-98zm52 81c6-60-76-77-97-28-3 7-6 17-6 28h103" id="H"/><path fill="#fff" d="M84 4C-5 8 30-112 23-190h32v120c0 31 7 50 39 49 72-2 45-101 50-169h31l1 190h-30c-1-10 1-25-2-33-11 22-28 36-60 37" id="I"/><g id="a"><use transform="matrix(0.06172839506172839,0,0,0.06172839506172839,0,0)" xlink:href="#D"/><use transform="matrix(0.06172839506172839,0,0,0.06172839506172839,18.456790123456788,0)" xlink:href="#E"/><use transform="matrix(0.06172839506172839,0,0,0.06172839506172839,30.80246913580247,0)" xlink:href="#F"/><use transform="matrix(0.06172839506172839,0,0,0.06172839506172839,35.67901234567901,0)" xlink:href="#G"/><use transform="matrix(0.06172839506172839,0,0,0.06172839506172839,48.02469135802469,0)" xlink:href="#D"/><use transform="matrix(0.06172839506172839,0,0,0.06172839506172839,66.48148148148148,0)" xlink:href="#H"/><use transform="matrix(0.06172839506172839,0,0,0.06172839506172839,78.82716049382717,0)" xlink:href="#G"/><use transform="matrix(0.06172839506172839,0,0,0.06172839506172839,91.17283950617285,0)" xlink:href="#I"/></g><path fill="#fff" d="M205 0l-28-72H64L36 0H1l101-248h38L239 0h-34zm-38-99l-47-123c-12 45-31 82-46 123h93" id="J"/><path fill="#fff" d="M85-194c31 0 48 13 60 33l-1-100h32l1 261h-30c-2-10 0-23-3-31C134-8 116 4 85 4 32 4 16-35 15-94c0-66 23-100 70-100zm9 24c-40 0-46 34-46 75 0 40 6 74 45 74 42 0 51-32 51-76 0-42-9-74-50-73" id="K"/><path fill="#fff" d="M160-131c35 5 61 23 61 61C221 17 115-2 30 0v-248c76 3 177-17 177 60 0 33-19 50-47 57zm-97-11c50-1 110 9 110-42 0-47-63-36-110-37v79zm0 115c55-2 124 14 124-45 0-56-70-42-124-44v89" id="L"/><path fill="#fff" d="M100-194c62-1 85 37 85 99 1 63-27 99-86 99S16-35 15-95c0-66 28-99 85-99zM99-20c44 1 53-31 53-75 0-43-8-75-51-75s-53 32-53 75 10 74 51 75" id="M"/><path fill="#fff" d="M143 0L79-87 56-68V0H24v-261h32v163l83-92h37l-77 82L181 0h-38" id="N"/><g id="b"><use transform="matrix(0.06172839506172839,0,0,0.06172839506172839,0,0)" xlink:href="#J"/><use transform="matrix(0.06172839506172839,0,0,0.06172839506172839,14.814814814814813,0)" xlink:href="#K"/><use transform="matrix(0.06172839506172839,0,0,0.06172839506172839,27.160493827160494,0)" xlink:href="#K"/><use transform="matrix(0.06172839506172839,0,0,0.06172839506172839,39.50617283950617,0)" xlink:href="#L"/><use transform="matrix(0.06172839506172839,0,0,0.06172839506172839,54.32098765432099,0)" xlink:href="#M"/><use transform="matrix(0.06172839506172839,0,0,0.06172839506172839,66.66666666666667,0)" xlink:href="#M"/><use transform="matrix(0.06172839506172839,0,0,0.06172839506172839,79.01234567901236,0)" xlink:href="#N"/></g><path fill="#fff" d="M210-169c-67 3-38 105-44 169h-31v-121c0-29-5-50-35-48C34-165 62-65 56 0H25l-1-190h30c1 10-1 24 2 32 10-44 99-50 107 0 11-21 27-35 58-36 85-2 47 119 55 194h-31v-121c0-29-5-49-35-48" id="O"/><path fill="#fff" d="M115-194c53 0 69 39 70 98 0 66-23 100-70 100C84 3 66-7 56-30L54 0H23l1-261h32v101c10-23 28-34 59-34zm-8 174c40 0 45-34 45-75 0-40-5-75-45-74-42 0-51 32-51 76 0 43 10 73 51 73" id="P"/><path fill="#fff" d="M114-163C36-179 61-72 57 0H25l-1-190h30c1 12-1 29 2 39 6-27 23-49 58-41v29" id="Q"/><g id="c"><use transform="matrix(0.06172839506172839,0,0,0.06172839506172839,0,0)" xlink:href="#J"/><use transform="matrix(0.06172839506172839,0,0,0.06172839506172839,14.814814814814813,0)" xlink:href="#K"/><use transform="matrix(0.06172839506172839,0,0,0.06172839506172839,27.160493827160494,0)" xlink:href="#K"/><use transform="matrix(0.06172839506172839,0,0,0.06172839506172839,39.50617283950617,0)" xlink:href="#D"/><use transform="matrix(0.06172839506172839,0,0,0.06172839506172839,57.96296296296296,0)" xlink:href="#H"/><use transform="matrix(0.06172839506172839,0,0,0.06172839506172839,70.30864197530865,0)" xlink:href="#O"/><use transform="matrix(0.06172839506172839,0,0,0.06172839506172839,88.76543209876543,0)" xlink:href="#P"/><use transform="matrix(0.06172839506172839,0,0,0.06172839506172839,101.11111111111111,0)" xlink:href="#H"/><use transform="matrix(0.06172839506172839,0,0,0.06172839506172839,113.4567901234568,0)" xlink:href="#Q"/></g><path fill="#fff" d="M185-189c-5-48-123-54-124 2 14 75 158 14 163 119 3 78-121 87-175 55-17-10-28-26-33-46l33-7c5 56 141 63 141-1 0-78-155-14-162-118-5-82 145-84 179-34 5 7 8 16 11 25" id="R"/><path fill="#fff" d="M106-169C34-169 62-67 57 0H25v-261h32l-1 103c12-21 28-36 61-36 89 0 53 116 60 194h-32v-121c2-32-8-49-39-48" id="S"/><path fill="#fff" d="M206 0h-36l-40-164L89 0H53L-1-190h32L70-26l43-164h34l41 164 42-164h31" id="T"/><path fill="#fff" d="M233-177c-1 41-23 64-60 70L243 0h-38l-65-103H63V0H30v-248c88 3 205-21 203 71zM63-129c60-2 137 13 137-47 0-61-80-42-137-45v92" id="U"/><path fill="#fff" d="M135-143c-3-34-86-38-87 0 15 53 115 12 119 90S17 21 10-45l28-5c4 36 97 45 98 0-10-56-113-15-118-90-4-57 82-63 122-42 12 7 21 19 24 35" id="V"/><path fill="#fff" d="M24 0v-261h32V0H24" id="W"/><path fill="#fff" d="M59-47c-2 24 18 29 38 22v24C64 9 27 4 27-40v-127H5v-23h24l9-43h21v43h35v23H59v120" id="X"/><g id="d"><use transform="matrix(0.06172839506172839,0,0,0.06172839506172839,0,0)" xlink:href="#R"/><use transform="matrix(0.06172839506172839,0,0,0.06172839506172839,14.814814814814813,0)" xlink:href="#S"/><use transform="matrix(0.06172839506172839,0,0,0.06172839506172839,27.160493827160494,0)" xlink:href="#M"/><use transform="matrix(0.06172839506172839,0,0,0.06172839506172839,39.50617283950617,0)" xlink:href="#T"/><use transform="matrix(0.06172839506172839,0,0,0.06172839506172839,55.49382716049382,0)" xlink:href="#U"/><use transform="matrix(0.06172839506172839,0,0,0.06172839506172839,71.48148148148148,0)" xlink:href="#H"/><use transform="matrix(0.06172839506172839,0,0,0.06172839506172839,83.82716049382717,0)" xlink:href="#V"/><use transform="matrix(0.06172839506172839,0,0,0.06172839506172839,94.93827160493828,0)" xlink:href="#I"/><use transform="matrix(0.06172839506172839,0,0,0.06172839506172839,107.28395061728396,0)" xlink:href="#W"/><use transform="matrix(0.06172839506172839,0,0,0.06172839506172839,112.16049382716051,0)" xlink:href="#X"/></g><path fill="#fff" d="M30-248c87 1 191-15 191 75 0 78-77 80-158 76V0H30v-248zm33 125c57 0 124 11 124-50 0-59-68-47-124-48v98" id="Y"/><path fill="#fff" d="M96-169c-40 0-48 33-48 73s9 75 48 75c24 0 41-14 43-38l32 2c-6 37-31 61-74 61-59 0-76-41-82-99-10-93 101-131 147-64 4 7 5 14 7 22l-32 3c-4-21-16-35-41-35" id="Z"/><path fill="#fff" d="M197 0v-115H63V0H30v-248h33v105h134v-105h34V0h-34" id="aa"/><g id="e"><use transform="matrix(0.06172839506172839,0,0,0.06172839506172839,0,0)" xlink:href="#Y"/><use transform="matrix(0.06172839506172839,0,0,0.06172839506172839,14.814814814814813,0)" xlink:href="#W"/><use transform="matrix(0.06172839506172839,0,0,0.06172839506172839,19.691358024691354,0)" xlink:href="#E"/><use transform="matrix(0.06172839506172839,0,0,0.06172839506172839,32.03703703703703,0)" xlink:href="#Z"/><use transform="matrix(0.06172839506172839,0,0,0.06172839506172839,43.14814814814814,0)" xlink:href="#H"/><use transform="matrix(0.06172839506172839,0,0,0.06172839506172839,55.493827160493815,0)" xlink:href="#aa"/><use transform="matrix(0.06172839506172839,0,0,0.06172839506172839,71.48148148148147,0)" xlink:href="#M"/><use transform="matrix(0.06172839506172839,0,0,0.06172839506172839,83.82716049382715,0)" xlink:href="#W"/><use transform="matrix(0.06172839506172839,0,0,0.06172839506172839,88.7037037037037,0)" xlink:href="#K"/></g><path fill="#fff" d="M108 0H70L1-190h34L89-25l56-165h34" id="ab"/><g id="f"><use transform="matrix(0.06172839506172839,0,0,0.06172839506172839,0,0)" xlink:href="#U"/><use transform="matrix(0.06172839506172839,0,0,0.06172839506172839,15.987654320987653,0)" xlink:href="#H"/><use transform="matrix(0.06172839506172839,0,0,0.06172839506172839,28.333333333333332,0)" xlink:href="#O"/><use transform="matrix(0.06172839506172839,0,0,0.06172839506172839,46.79012345679012,0)" xlink:href="#M"/><use transform="matrix(0.06172839506172839,0,0,0.06172839506172839,59.1358024691358,0)" xlink:href="#ab"/><use transform="matrix(0.06172839506172839,0,0,0.06172839506172839,70.24691358024691,0)" xlink:href="#H"/><use transform="matrix(0.06172839506172839,0,0,0.06172839506172839,82.5925925925926,0)" xlink:href="#aa"/><use transform="matrix(0.06172839506172839,0,0,0.06172839506172839,98.58024691358025,0)" xlink:href="#M"/><use transform="matrix(0.06172839506172839,0,0,0.06172839506172839,110.92592592592594,0)" xlink:href="#W"/><use transform="matrix(0.06172839506172839,0,0,0.06172839506172839,115.80246913580248,0)" xlink:href="#K"/></g><g id="g"><use transform="matrix(0.06172839506172839,0,0,0.06172839506172839,0,0)" xlink:href="#U"/><use transform="matrix(0.06172839506172839,0,0,0.06172839506172839,15.987654320987653,0)" xlink:href="#H"/><use transform="matrix(0.06172839506172839,0,0,0.06172839506172839,28.333333333333332,0)" xlink:href="#O"/><use transform="matrix(0.06172839506172839,0,0,0.06172839506172839,46.79012345679012,0)" xlink:href="#M"/><use transform="matrix(0.06172839506172839,0,0,0.06172839506172839,59.1358024691358,0)" xlink:href="#ab"/><use transform="matrix(0.06172839506172839,0,0,0.06172839506172839,70.24691358024691,0)" xlink:href="#H"/><use transform="matrix(0.06172839506172839,0,0,0.06172839506172839,82.5925925925926,0)" xlink:href="#L"/><use transform="matrix(0.06172839506172839,0,0,0.06172839506172839,97.4074074074074,0)" xlink:href="#M"/><use transform="matrix(0.06172839506172839,0,0,0.06172839506172839,109.75308641975309,0)" xlink:href="#M"/><use transform="matrix(0.06172839506172839,0,0,0.06172839506172839,122.09876543209877,0)" xlink:href="#N"/><use transform="matrix(0.06172839506172839,0,0,0.06172839506172839,133.20987654320987,0)" xlink:href="#V"/></g><g id="h"><use transform="matrix(0.06172839506172839,0,0,0.06172839506172839,0,0)" xlink:href="#U"/><use transform="matrix(0.06172839506172839,0,0,0.06172839506172839,15.987654320987653,0)" xlink:href="#H"/><use transform="matrix(0.06172839506172839,0,0,0.06172839506172839,28.333333333333332,0)" xlink:href="#X"/><use transform="matrix(0.06172839506172839,0,0,0.06172839506172839,34.50617283950617,0)" xlink:href="#I"/><use transform="matrix(0.06172839506172839,0,0,0.06172839506172839,46.85185185185185,0)" xlink:href="#Q"/><use transform="matrix(0.06172839506172839,0,0,0.06172839506172839,54.197530864197525,0)" xlink:href="#G"/><use transform="matrix(0.06172839506172839,0,0,0.06172839506172839,66.5432098765432,0)" xlink:href="#L"/><use transform="matrix(0.06172839506172839,0,0,0.06172839506172839,81.35802469135801,0)" xlink:href="#M"/><use transform="matrix(0.06172839506172839,0,0,0.06172839506172839,93.7037037037037,0)" xlink:href="#M"/><use transform="matrix(0.06172839506172839,0,0,0.06172839506172839,106.04938271604938,0)" xlink:href="#N"/><use transform="matrix(0.06172839506172839,0,0,0.06172839506172839,117.1604938271605,0)" xlink:href="#V"/></g><g id="i"><use transform="matrix(0.06172839506172839,0,0,0.06172839506172839,0,0)" xlink:href="#Y"/><use transform="matrix(0.06172839506172839,0,0,0.06172839506172839,14.814814814814813,0)" xlink:href="#Q"/><use transform="matrix(0.06172839506172839,0,0,0.06172839506172839,22.160493827160494,0)" xlink:href="#M"/><use transform="matrix(0.06172839506172839,0,0,0.06172839506172839,34.50617283950617,0)" xlink:href="#Z"/><use transform="matrix(0.06172839506172839,0,0,0.06172839506172839,45.61728395061728,0)" xlink:href="#H"/><use transform="matrix(0.06172839506172839,0,0,0.06172839506172839,57.962962962962955,0)" xlink:href="#V"/><use transform="matrix(0.06172839506172839,0,0,0.06172839506172839,69.07407407407406,0)" xlink:href="#V"/><use transform="matrix(0.06172839506172839,0,0,0.06172839506172839,80.18518518518518,0)" xlink:href="#aa"/><use transform="matrix(0.06172839506172839,0,0,0.06172839506172839,96.17283950617283,0)" xlink:href="#M"/><use transform="matrix(0.06172839506172839,0,0,0.06172839506172839,108.51851851851852,0)" xlink:href="#W"/><use transform="matrix(0.06172839506172839,0,0,0.06172839506172839,113.39506172839506,0)" xlink:href="#K"/><use transform="matrix(0.06172839506172839,0,0,0.06172839506172839,125.74074074074075,0)" xlink:href="#V"/></g><path fill="#fff" d="M143 4C61 4 22-44 18-125c-5-107 100-154 193-111 17 8 29 25 37 43l-32 9c-13-25-37-40-76-40-61 0-88 39-88 99 0 61 29 100 91 101 35 0 62-11 79-27v-45h-74v-28h105v86C228-13 192 4 143 4" id="ac"/><path fill="#fff" d="M127-220V0H93v-220H8v-28h204v28h-85" id="ad"/><g id="j"><use transform="matrix(0.06172839506172839,0,0,0.06172839506172839,0,0)" xlink:href="#ac"/><use transform="matrix(0.06172839506172839,0,0,0.06172839506172839,17.28395061728395,0)" xlink:href="#H"/><use transform="matrix(0.06172839506172839,0,0,0.06172839506172839,29.629629629629626,0)" xlink:href="#X"/><use transform="matrix(0.06172839506172839,0,0,0.06172839506172839,35.80246913580247,0)" xlink:href="#ad"/><use transform="matrix(0.06172839506172839,0,0,0.06172839506172839,48.51851851851852,0)" xlink:href="#Q"/><use transform="matrix(0.06172839506172839,0,0,0.06172839506172839,55.864197530864196,0)" xlink:href="#E"/><use transform="matrix(0.06172839506172839,0,0,0.06172839506172839,68.20987654320987,0)" xlink:href="#G"/><use transform="matrix(0.06172839506172839,0,0,0.06172839506172839,80.55555555555556,0)" xlink:href="#V"/><use transform="matrix(0.06172839506172839,0,0,0.06172839506172839,91.66666666666667,0)" xlink:href="#E"/><use transform="matrix(0.06172839506172839,0,0,0.06172839506172839,104.01234567901236,0)" xlink:href="#Z"/><use transform="matrix(0.06172839506172839,0,0,0.06172839506172839,115.12345679012347,0)" xlink:href="#X"/><use transform="matrix(0.06172839506172839,0,0,0.06172839506172839,121.2962962962963,0)" xlink:href="#F"/><use transform="matrix(0.06172839506172839,0,0,0.06172839506172839,126.17283950617285,0)" xlink:href="#M"/><use transform="matrix(0.06172839506172839,0,0,0.06172839506172839,138.51851851851853,0)" xlink:href="#G"/><use transform="matrix(0.06172839506172839,0,0,0.06172839506172839,150.8641975308642,0)" xlink:href="#V"/></g><path fill="#fff" d="M30 0v-248h33v221h125V0H30" id="ae"/><path fill="#fff" d="M177-190C167-65 218 103 67 71c-23-6-38-20-44-43l32-5c15 47 100 32 89-28v-30C133-14 115 1 83 1 29 1 15-40 15-95c0-56 16-97 71-98 29-1 48 16 59 35 1-10 0-23 2-32h30zM94-22c36 0 50-32 50-73 0-42-14-75-50-75-39 0-46 34-46 75s6 73 46 73" id="af"/><g id="k"><use transform="matrix(0.06172839506172839,0,0,0.06172839506172839,0,0)" xlink:href="#R"/><use transform="matrix(0.06172839506172839,0,0,0.06172839506172839,14.814814814814813,0)" xlink:href="#S"/><use transform="matrix(0.06172839506172839,0,0,0.06172839506172839,27.160493827160494,0)" xlink:href="#M"/><use transform="matrix(0.06172839506172839,0,0,0.06172839506172839,39.50617283950617,0)" xlink:href="#T"/><use transform="matrix(0.06172839506172839,0,0,0.06172839506172839,55.49382716049382,0)" xlink:href="#ae"/><use transform="matrix(0.06172839506172839,0,0,0.06172839506172839,67.8395061728395,0)" xlink:href="#M"/><use transform="matrix(0.06172839506172839,0,0,0.06172839506172839,80.18518518518519,0)" xlink:href="#G"/><use transform="matrix(0.06172839506172839,0,0,0.06172839506172839,92.53086419753087,0)" xlink:href="#af"/><use transform="matrix(0.06172839506172839,0,0,0.06172839506172839,104.87654320987656,0)" xlink:href="#U"/><use transform="matrix(0.06172839506172839,0,0,0.06172839506172839,120.86419753086422,0)" xlink:href="#H"/><use transform="matrix(0.06172839506172839,0,0,0.06172839506172839,133.2098765432099,0)" xlink:href="#V"/><use transform="matrix(0.06172839506172839,0,0,0.06172839506172839,144.32098765432102,0)" xlink:href="#I"/><use transform="matrix(0.06172839506172839,0,0,0.06172839506172839,156.66666666666669,0)" xlink:href="#W"/><use transform="matrix(0.06172839506172839,0,0,0.06172839506172839,161.54320987654322,0)" xlink:href="#X"/></g><path fill="#fff" d="M140-251c80 0 125 45 125 126S219 4 139 4C58 4 15-44 15-125s44-126 125-126zm-1 214c52 0 73-35 73-88 0-50-21-86-72-86-52 0-73 35-73 86s22 88 72 88" id="ag"/><path fill="#fff" d="M195 0l-88-114-31 24V0H24v-248h52v113l112-113h60L142-143 257 0h-62" id="ah"/><g id="l"><use transform="matrix(0.04938271604938272,0,0,0.04938271604938272,0,0)" xlink:href="#ag"/><use transform="matrix(0.04938271604938272,0,0,0.04938271604938272,13.827160493827162,0)" xlink:href="#ah"/></g><path fill="#fff" d="M67-125c0 54 23 88 75 88 28 0 53-7 68-21v-34h-60v-39h108v91C232-14 192 4 140 4 58 4 20-42 15-125 8-236 126-280 215-234c19 10 29 26 37 47l-47 15c-11-23-29-39-63-39-53 1-75 33-75 86" id="ai"/><path fill="#fff" d="M185-48c-13 30-37 53-82 52C43 2 14-33 14-96s30-98 90-98c62 0 83 45 84 108H66c0 31 8 55 39 56 18 0 30-7 34-22zm-45-69c5-46-57-63-70-21-2 6-4 13-4 21h74" id="aj"/><path fill="#fff" d="M115-3C79 11 28 4 28-45v-112H4v-33h27l15-45h31v45h36v33H77v99c-1 23 16 31 38 25v30" id="ak"/><g id="m"><use transform="matrix(0.04938271604938272,0,0,0.04938271604938272,0,0)" xlink:href="#ai"/><use transform="matrix(0.04938271604938272,0,0,0.04938271604938272,13.827160493827162,0)" xlink:href="#aj"/><use transform="matrix(0.04938271604938272,0,0,0.04938271604938272,23.703703703703706,0)" xlink:href="#ak"/></g><path fill="#fff" d="M136-208V0H84v-208H4v-40h212v40h-80" id="al"/><path fill="#fff" d="M135-150c-39-12-60 13-60 57V0H25l-1-190h47c2 13-1 29 3 40 6-28 27-53 61-41v41" id="am"/><path fill="#fff" d="M133-34C117-15 103 5 69 4 32 3 11-16 11-54c-1-60 55-63 116-61 1-26-3-47-28-47-18 1-26 9-28 27l-52-2c7-38 36-58 82-57s74 22 75 68l1 82c-1 14 12 18 25 15v27c-30 8-71 5-69-32zm-48 3c29 0 43-24 42-57-32 0-66-3-65 30 0 17 8 27 23 27" id="an"/><path fill="#fff" d="M135-194c87-1 58 113 63 194h-50c-7-57 23-157-34-157-59 0-34 97-39 157H25l-1-190h47c2 12-1 28 3 38 12-26 28-41 61-42" id="ao"/><path fill="#fff" d="M137-138c1-29-70-34-71-4 15 46 118 7 119 86 1 83-164 76-172 9l43-7c4 19 20 25 44 25 33 8 57-30 24-41C81-84 22-81 20-136c-2-80 154-74 161-7" id="ap"/><path fill="#fff" d="M190-63c-7 42-38 67-86 67-59 0-84-38-90-98-12-110 154-137 174-36l-49 2c-2-19-15-32-35-32-30 0-35 28-38 64-6 74 65 87 74 30" id="aq"/><path fill="#fff" d="M25-224v-37h50v37H25zM25 0v-190h50V0H25" id="ar"/><path fill="#fff" d="M110-194c64 0 96 36 96 99 0 64-35 99-97 99-61 0-95-36-95-99 0-62 34-99 96-99zm-1 164c35 0 45-28 45-65 0-40-10-65-43-65-34 0-45 26-45 65 0 36 10 65 43 65" id="as"/><g id="n"><use transform="matrix(0.04938271604938272,0,0,0.04938271604938272,0,0)" xlink:href="#al"/><use transform="matrix(0.04938271604938272,0,0,0.04938271604938272,9.82716049382716,0)" xlink:href="#am"/><use transform="matrix(0.04938271604938272,0,0,0.04938271604938272,16.74074074074074,0)" xlink:href="#an"/><use transform="matrix(0.04938271604938272,0,0,0.04938271604938272,26.617283950617285,0)" xlink:href="#ao"/><use transform="matrix(0.04938271604938272,0,0,0.04938271604938272,37.4320987654321,0)" xlink:href="#ap"/><use transform="matrix(0.04938271604938272,0,0,0.04938271604938272,47.308641975308646,0)" xlink:href="#an"/><use transform="matrix(0.04938271604938272,0,0,0.04938271604938272,57.18518518518519,0)" xlink:href="#aq"/><use transform="matrix(0.04938271604938272,0,0,0.04938271604938272,67.06172839506173,0)" xlink:href="#ak"/><use transform="matrix(0.04938271604938272,0,0,0.04938271604938272,72.93827160493828,0)" xlink:href="#ar"/><use transform="matrix(0.04938271604938272,0,0,0.04938271604938272,77.87654320987656,0)" xlink:href="#as"/><use transform="matrix(0.04938271604938272,0,0,0.04938271604938272,88.69135802469137,0)" xlink:href="#ao"/><use transform="matrix(0.04938271604938272,0,0,0.04938271604938272,99.50617283950618,0)" xlink:href="#ap"/></g><path fill="#fff" d="M24-248c120-7 223 5 221 122C244-46 201 0 124 0H24v-248zM76-40c74 7 117-18 117-86 0-67-45-88-117-82v168" id="at"/><g id="o"><use transform="matrix(0.04938271604938272,0,0,0.04938271604938272,0,0)" xlink:href="#at"/><use transform="matrix(0.04938271604938272,0,0,0.04938271604938272,12.790123456790125,0)" xlink:href="#as"/><use transform="matrix(0.04938271604938272,0,0,0.04938271604938272,23.60493827160494,0)" xlink:href="#ao"/><use transform="matrix(0.04938271604938272,0,0,0.04938271604938272,34.41975308641975,0)" xlink:href="#aj"/></g><path fill="#fff" d="M24-248c93 1 206-16 204 79-1 75-69 88-152 82V0H24v-248zm52 121c47 0 100 7 100-41 0-47-54-39-100-39v80" id="au"/><g id="p"><use transform="matrix(0.04938271604938272,0,0,0.04938271604938272,0,0)" xlink:href="#au"/><use transform="matrix(0.04938271604938272,0,0,0.04938271604938272,11.851851851851853,0)" xlink:href="#am"/><use transform="matrix(0.04938271604938272,0,0,0.04938271604938272,18.765432098765434,0)" xlink:href="#as"/><use transform="matrix(0.04938271604938272,0,0,0.04938271604938272,29.58024691358025,0)" xlink:href="#aq"/><use transform="matrix(0.04938271604938272,0,0,0.04938271604938272,39.45679012345679,0)" xlink:href="#aj"/><use transform="matrix(0.04938271604938272,0,0,0.04938271604938272,49.333333333333336,0)" xlink:href="#ap"/><use transform="matrix(0.04938271604938272,0,0,0.04938271604938272,59.20987654320988,0)" xlink:href="#ap"/></g><path fill="#fff" d="M186 0v-106H76V0H24v-248h52v99h110v-99h50V0h-50" id="av"/><path fill="#fff" d="M25 0v-261h50V0H25" id="aw"/><path fill="#fff" d="M88-194c31-1 46 15 58 34l-1-101h50l1 261h-48c-2-10 0-23-3-31C134-8 116 4 84 4 32 4 16-41 15-95c0-56 19-97 73-99zm17 164c33 0 40-30 41-66 1-37-9-64-41-64s-38 30-39 65c0 43 13 65 39 65" id="ax"/><g id="q"><use transform="matrix(0.04938271604938272,0,0,0.04938271604938272,0,0)" xlink:href="#av"/><use transform="matrix(0.04938271604938272,0,0,0.04938271604938272,12.790123456790125,0)" xlink:href="#as"/><use transform="matrix(0.04938271604938272,0,0,0.04938271604938272,23.60493827160494,0)" xlink:href="#aw"/><use transform="matrix(0.04938271604938272,0,0,0.04938271604938272,28.543209876543212,0)" xlink:href="#ax"/><use transform="matrix(0.04938271604938272,0,0,0.04938271604938272,39.358024691358025,0)" xlink:href="#ap"/></g><path fill="#fff" d="M240-174c0 40-23 61-54 70L253 0h-59l-57-94H76V0H24v-248c93 4 217-23 216 74zM76-134c48-2 112 12 112-38 0-48-66-32-112-35v73" id="ay"/><path fill="#fff" d="M220-157c-53 9-28 100-34 157h-49v-107c1-27-5-49-29-50C55-147 81-57 75 0H25l-1-190h47c2 12-1 28 3 38 10-53 101-56 108 0 13-22 24-43 59-42 82 1 51 116 57 194h-49v-107c-1-25-5-48-29-50" id="az"/><path fill="#fff" d="M128 0H69L1-190h53L99-40l48-150h52" id="aA"/><g id="r"><use transform="matrix(0.04938271604938272,0,0,0.04938271604938272,0,0)" xlink:href="#ay"/><use transform="matrix(0.04938271604938272,0,0,0.04938271604938272,12.790123456790125,0)" xlink:href="#aj"/><use transform="matrix(0.04938271604938272,0,0,0.04938271604938272,22.66666666666667,0)" xlink:href="#az"/><use transform="matrix(0.04938271604938272,0,0,0.04938271604938272,38.46913580246914,0)" xlink:href="#as"/><use transform="matrix(0.04938271604938272,0,0,0.04938271604938272,49.283950617283956,0)" xlink:href="#aA"/><use transform="matrix(0.04938271604938272,0,0,0.04938271604938272,59.1604938271605,0)" xlink:href="#aj"/></g><path fill="#fff" d="M182-130c37 4 62 22 62 59C244 23 116-4 24 0v-248c84 5 203-23 205 63 0 31-19 50-47 55zM76-148c40-3 101 13 101-30 0-44-60-28-101-31v61zm0 110c48-3 116 14 116-37 0-48-69-32-116-35v72" id="aB"/><path fill="#fff" d="M147 0L96-86 75-71V0H25v-261h50v150l67-79h53l-66 74L201 0h-54" id="aC"/><g id="s"><use transform="matrix(0.04938271604938272,0,0,0.04938271604938272,0,0)" xlink:href="#aB"/><use transform="matrix(0.04938271604938272,0,0,0.04938271604938272,12.790123456790125,0)" xlink:href="#as"/><use transform="matrix(0.04938271604938272,0,0,0.04938271604938272,23.60493827160494,0)" xlink:href="#as"/><use transform="matrix(0.04938271604938272,0,0,0.04938271604938272,34.41975308641975,0)" xlink:href="#aC"/><use transform="matrix(0.04938271604938272,0,0,0.04938271604938272,44.2962962962963,0)" xlink:href="#ap"/></g><path fill="#fff" d="M85 4C-2 5 27-109 22-190h50c7 57-23 150 33 157 60-5 35-97 40-157h50l1 190h-47c-2-12 1-28-3-38-12 25-28 42-61 42" id="aD"/><g id="t"><use transform="matrix(0.04938271604938272,0,0,0.04938271604938272,0,0)" xlink:href="#ay"/><use transform="matrix(0.04938271604938272,0,0,0.04938271604938272,12.790123456790125,0)" xlink:href="#aj"/><use transform="matrix(0.04938271604938272,0,0,0.04938271604938272,22.66666666666667,0)" xlink:href="#ak"/><use transform="matrix(0.04938271604938272,0,0,0.04938271604938272,28.54320987654322,0)" xlink:href="#aD"/><use transform="matrix(0.04938271604938272,0,0,0.04938271604938272,39.35802469135803,0)" xlink:href="#am"/><use transform="matrix(0.04938271604938272,0,0,0.04938271604938272,46.271604938271615,0)" xlink:href="#ao"/></g><g id="u"><use transform="matrix(0.04938271604938272,0,0,0.04938271604938272,0,0)" xlink:href="#av"/><use transform="matrix(0.04938271604938272,0,0,0.04938271604938272,12.790123456790125,0)" xlink:href="#as"/><use transform="matrix(0.04938271604938272,0,0,0.04938271604938272,23.60493827160494,0)" xlink:href="#aw"/><use transform="matrix(0.04938271604938272,0,0,0.04938271604938272,28.543209876543212,0)" xlink:href="#ax"/></g><g id="v"><use transform="matrix(0.04938271604938272,0,0,0.04938271604938272,0,0)" xlink:href="#au"/><use transform="matrix(0.04938271604938272,0,0,0.04938271604938272,11.851851851851853,0)" xlink:href="#aw"/><use transform="matrix(0.04938271604938272,0,0,0.04938271604938272,16.790123456790127,0)" xlink:href="#an"/><use transform="matrix(0.04938271604938272,0,0,0.04938271604938272,26.666666666666668,0)" xlink:href="#aq"/><use transform="matrix(0.04938271604938272,0,0,0.04938271604938272,36.543209876543216,0)" xlink:href="#aj"/></g><path fill="#fff" d="M67-125c0 53 21 87 73 88 37 1 54-22 65-47l45 17C233-25 199 4 140 4 58 4 20-42 15-125 8-235 124-281 211-232c18 10 29 29 36 50l-46 12c-8-25-30-41-62-41-52 0-71 34-72 86" id="aE"/><g id="w"><use transform="matrix(0.04938271604938272,0,0,0.04938271604938272,0,0)" xlink:href="#aE"/><use transform="matrix(0.04938271604938272,0,0,0.04938271604938272,12.790123456790125,0)" xlink:href="#an"/><use transform="matrix(0.04938271604938272,0,0,0.04938271604938272,22.66666666666667,0)" xlink:href="#ao"/><use transform="matrix(0.04938271604938272,0,0,0.04938271604938272,33.48148148148149,0)" xlink:href="#aq"/><use transform="matrix(0.04938271604938272,0,0,0.04938271604938272,43.35802469135803,0)" xlink:href="#aj"/><use transform="matrix(0.04938271604938272,0,0,0.04938271604938272,53.23456790123457,0)" xlink:href="#aw"/></g><path fill="#fff" d="M199 0l-22-63H83L61 0H9l90-248h61L250 0h-51zm-33-102l-36-108c-10 38-24 72-36 108h72" id="aF"/><g id="x"><use transform="matrix(0.04938271604938272,0,0,0.04938271604938272,0,0)" xlink:href="#aF"/><use transform="matrix(0.04938271604938272,0,0,0.04938271604938272,12.790123456790125,0)" xlink:href="#ax"/><use transform="matrix(0.04938271604938272,0,0,0.04938271604938272,23.60493827160494,0)" xlink:href="#ax"/></g><path fill="#fff" d="M230 0l2-204L168 0h-37L68-204 70 0H24v-248h70l56 185 57-185h69V0h-46" id="aG"/><path fill="#fff" d="M135-194c52 0 70 43 70 98 0 56-19 99-73 100-30 1-46-15-58-35L72 0H24l1-261h50v104c11-23 29-37 60-37zM114-30c31 0 40-27 40-66 0-37-7-63-39-63s-41 28-41 65c0 36 8 64 40 64" id="aH"/><g id="y"><use transform="matrix(0.04938271604938272,0,0,0.04938271604938272,0,0)" xlink:href="#aG"/><use transform="matrix(0.04938271604938272,0,0,0.04938271604938272,14.765432098765434,0)" xlink:href="#aj"/><use transform="matrix(0.04938271604938272,0,0,0.04938271604938272,24.641975308641978,0)" xlink:href="#az"/><use transform="matrix(0.04938271604938272,0,0,0.04938271604938272,40.44444444444445,0)" xlink:href="#aH"/><use transform="matrix(0.04938271604938272,0,0,0.04938271604938272,51.25925925925927,0)" xlink:href="#aj"/><use transform="matrix(0.04938271604938272,0,0,0.04938271604938272,61.13580246913581,0)" xlink:href="#am"/></g><g id="z"><use transform="matrix(0.04938271604938272,0,0,0.04938271604938272,0,0)" xlink:href="#aB"/><use transform="matrix(0.04938271604938272,0,0,0.04938271604938272,12.790123456790125,0)" xlink:href="#as"/><use transform="matrix(0.04938271604938272,0,0,0.04938271604938272,23.60493827160494,0)" xlink:href="#as"/><use transform="matrix(0.04938271604938272,0,0,0.04938271604938272,34.41975308641975,0)" xlink:href="#aC"/></g><path fill="#fff" d="M33 0v-248h34V0H33" id="aI"/><g id="A"><use transform="matrix(0.06172839506172839,0,0,0.06172839506172839,0,0)" xlink:href="#aI"/><use transform="matrix(0.06172839506172839,0,0,0.06172839506172839,6.172839506172839,0)" xlink:href="#V"/><use transform="matrix(0.06172839506172839,0,0,0.06172839506172839,17.28395061728395,0)" xlink:href="#V"/><use transform="matrix(0.06172839506172839,0,0,0.06172839506172839,28.39506172839506,0)" xlink:href="#I"/><use transform="matrix(0.06172839506172839,0,0,0.06172839506172839,40.74074074074074,0)" xlink:href="#H"/><use transform="matrix(0.06172839506172839,0,0,0.06172839506172839,53.08641975308642,0)" xlink:href="#L"/><use transform="matrix(0.06172839506172839,0,0,0.06172839506172839,67.90123456790123,0)" xlink:href="#M"/><use transform="matrix(0.06172839506172839,0,0,0.06172839506172839,80.24691358024691,0)" xlink:href="#M"/><use transform="matrix(0.06172839506172839,0,0,0.06172839506172839,92.5925925925926,0)" xlink:href="#N"/><use transform="matrix(0.06172839506172839,0,0,0.06172839506172839,103.70370370370371,0)" xlink:href="#V"/></g><g id="B"><use transform="matrix(0.06172839506172839,0,0,0.06172839506172839,0,0)" xlink:href="#ac"/><use transform="matrix(0.06172839506172839,0,0,0.06172839506172839,17.28395061728395,0)" xlink:href="#H"/><use transform="matrix(0.06172839506172839,0,0,0.06172839506172839,29.629629629629626,0)" xlink:href="#X"/><use transform="matrix(0.06172839506172839,0,0,0.06172839506172839,35.80246913580247,0)" xlink:href="#L"/><use transform="matrix(0.06172839506172839,0,0,0.06172839506172839,50.61728395061728,0)" xlink:href="#M"/><use transform="matrix(0.06172839506172839,0,0,0.06172839506172839,62.962962962962955,0)" xlink:href="#M"/><use transform="matrix(0.06172839506172839,0,0,0.06172839506172839,75.30864197530863,0)" xlink:href="#N"/><use transform="matrix(0.06172839506172839,0,0,0.06172839506172839,86.41975308641975,0)" xlink:href="#aI"/><use transform="matrix(0.06172839506172839,0,0,0.06172839506172839,92.59259259259258,0)" xlink:href="#K"/></g><path fill="#fff" d="M24 0v-248h52V0H24" id="aJ"/><g id="C"><use transform="matrix(0.04938271604938272,0,0,0.04938271604938272,0,0)" xlink:href="#aJ"/><use transform="matrix(0.04938271604938272,0,0,0.04938271604938272,4.938271604938272,0)" xlink:href="#ap"/><use transform="matrix(0.04938271604938272,0,0,0.04938271604938272,14.814814814814817,0)" xlink:href="#ap"/><use transform="matrix(0.04938271604938272,0,0,0.04938271604938272,24.69135802469136,0)" xlink:href="#aD"/><use transform="matrix(0.04938271604938272,0,0,0.04938271604938272,35.50617283950618,0)" xlink:href="#aj"/></g></defs></g></svg>