<svg xmlns="http://www.w3.org/2000/svg" xmlns:xlink="http://www.w3.org/1999/xlink" xmlns:lucid="lucid" width="900" height="440"><g transform="translate(-260 -120)" lucid:page-tab-id="lySlN5xNG5Fk"><path d="M640 146c0-3.3 2.7-6 6-6h148c3.3 0 6 2.7 6 6v68c0 3.3-2.7 6-6 6H646c-3.3 0-6-2.7-6-6z" stroke="#fff" stroke-width="3" fill-opacity="0"/><use xlink:href="#a" transform="matrix(1,0,0,1,648,148) translate(13.574999999999996 24.799999999999997)"/><use xlink:href="#b" transform="matrix(1,0,0,1,648,148) translate(12.624999999999993 46.4)"/><path d="M600 306c0-3.3 2.7-6 6-6h228c3.3 0 6 2.7 6 6v68c0 3.3-2.7 6-6 6H606c-3.3 0-6-2.7-6-6z" stroke="#fff" stroke-width="3" fill-opacity="0"/><use xlink:href="#a" transform="matrix(1,0,0,1,608,308) translate(53.574999999999996 24.799999999999997)"/><use xlink:href="#c" transform="matrix(1,0,0,1,608,308) translate(6.675000000000026 46.4)"/><path d="M520 466c0-3.3 2.7-6 6-6h168c3.3 0 6 2.7 6 6v68c0 3.3-2.7 6-6 6H526c-3.3 0-6-2.7-6-6z" stroke="#fff" stroke-width="3" fill-opacity="0"/><use xlink:href="#a" transform="matrix(1,0,0,1,528,468) translate(23.574999999999996 24.799999999999997)"/><use xlink:href="#d" transform="matrix(1,0,0,1,528,468) translate(1.7000000000000028 46.4)"/><path d="M740 466c0-3.3 2.7-6 6-6h168c3.3 0 6 2.7 6 6v68c0 3.3-2.7 6-6 6H746c-3.3 0-6-2.7-6-6z" stroke="#fff" stroke-width="3" fill-opacity="0"/><use xlink:href="#a" transform="matrix(1,0,0,1,748,468) translate(23.574999999999996 24.799999999999997)"/><use xlink:href="#e" transform="matrix(1,0,0,1,748,468) translate(3.200000000000003 46.4)"/><path d="M960 466c0-3.3 2.7-6 6-6h168c3.3 0 6 2.7 6 6v68c0 3.3-2.7 6-6 6H966c-3.3 0-6-2.7-6-6z" stroke="#fff" stroke-width="3" fill-opacity="0"/><use xlink:href="#a" transform="matrix(1,0,0,1,968,468) translate(23.574999999999996 24.799999999999997)"/><use xlink:href="#f" transform="matrix(1,0,0,1,968,468) translate(4.825000000000003 46.4)"/><path d="M280 466c0-3.3 2.7-6 6-6h188c3.3 0 6 2.7 6 6v68c0 3.3-2.7 6-6 6H286c-3.3 0-6-2.7-6-6z" stroke="#fff" stroke-width="3" fill-opacity="0"/><use xlink:href="#a" transform="matrix(1,0,0,1,288,468) translate(33.574999999999996 24.799999999999997)"/><use xlink:href="#g" transform="matrix(1,0,0,1,288,468) translate(-0.75 46.4)"/><path d="M380 457.5V426c0-3.3 2.7-6 6-6h328c3.3 0 6-2.7 6-6v-8.02" stroke="#fff" stroke-width="2" fill="none"/><path d="M381 458.5h-2v-1.03h2z" stroke="#fff" stroke-width=".05" fill="#fff"/><path d="M720 383.46l12.73 21.52h-25.46z" stroke="#fff" stroke-width="2" fill="#fff"/><path d="M610 457.5V426c0-3.3 2.7-6 6-6h98c3.3 0 6-2.7 6-6v-8.02" stroke="#fff" stroke-width="2" fill="none"/><path d="M611 458.5h-2v-1.03h2z" stroke="#fff" stroke-width=".05" fill="#fff"/><path d="M720 383.46l12.73 21.52h-25.46z" stroke="#fff" stroke-width="2" fill="#fff"/><path d="M830 457.5V426c0-3.3-2.7-6-6-6h-98c-3.3 0-6-2.7-6-6v-8.02" stroke="#fff" stroke-width="2" fill="none"/><path d="M831 458.5h-2v-1.03h2z" stroke="#fff" stroke-width=".05" fill="#fff"/><path d="M720 383.46l12.73 21.52h-25.46z" stroke="#fff" stroke-width="2" fill="#fff"/><path d="M1050 457.5V426c0-3.3-2.7-6-6-6H726c-3.3 0-6-2.7-6-6v-8.02" stroke="#fff" stroke-width="2" fill="none"/><path d="M1051 458.5h-2v-1.03h2z" stroke="#fff" stroke-width=".05" fill="#fff"/><path d="M720 383.46l12.73 21.52h-25.46z" stroke="#fff" stroke-width="2" fill="#fff"/><path d="M720 297.5v-51.52" stroke="#fff" stroke-width="2" fill="none"/><path d="M721 298.5h-2v-1.03h2z" stroke="#fff" stroke-width=".05" fill="#fff"/><path d="M720 223.46l12.73 21.52h-25.46z" stroke="#fff" stroke-width="2" fill="#fff"/><defs><path fill="#fff" d="M15-91v-56l181-69v40L49-119l147 57v40" id="h"/><path fill="#fff" d="M25-224v-37h50v37H25zM25 0v-190h50V0H25" id="i"/><path fill="#fff" d="M135-194c87-1 58 113 63 194h-50c-7-57 23-157-34-157-59 0-34 97-39 157H25l-1-190h47c2 12-1 28 3 38 12-26 28-41 61-42" id="j"/><path fill="#fff" d="M115-3C79 11 28 4 28-45v-112H4v-33h27l15-45h31v45h36v33H77v99c-1 23 16 31 38 25v30" id="k"/><path fill="#fff" d="M185-48c-13 30-37 53-82 52C43 2 14-33 14-96s30-98 90-98c62 0 83 45 84 108H66c0 31 8 55 39 56 18 0 30-7 34-22zm-45-69c5-46-57-63-70-21-2 6-4 13-4 21h74" id="l"/><path fill="#fff" d="M135-150c-39-12-60 13-60 57V0H25l-1-190h47c2 13-1 29 3 40 6-28 27-53 61-41v41" id="m"/><path fill="#fff" d="M121-226c-27-7-43 5-38 36h38v33H83V0H34v-157H6v-33h28c-9-59 32-81 87-68v32" id="n"/><path fill="#fff" d="M133-34C117-15 103 5 69 4 32 3 11-16 11-54c-1-60 55-63 116-61 1-26-3-47-28-47-18 1-26 9-28 27l-52-2c7-38 36-58 82-57s74 22 75 68l1 82c-1 14 12 18 25 15v27c-30 8-71 5-69-32zm-48 3c29 0 43-24 42-57-32 0-66-3-65 30 0 17 8 27 23 27" id="o"/><path fill="#fff" d="M190-63c-7 42-38 67-86 67-59 0-84-38-90-98-12-110 154-137 174-36l-49 2c-2-19-15-32-35-32-30 0-35 28-38 64-6 74 65 87 74 30" id="p"/><path fill="#fff" d="M15-22v-40l146-57-146-57v-40l181 69v56" id="q"/><g id="a"><use transform="matrix(0.05,0,0,0.05,0,0)" xlink:href="#h"/><use transform="matrix(0.05,0,0,0.05,10.5,0)" xlink:href="#h"/><use transform="matrix(0.05,0,0,0.05,21,0)" xlink:href="#i"/><use transform="matrix(0.05,0,0,0.05,26,0)" xlink:href="#j"/><use transform="matrix(0.05,0,0,0.05,36.95,0)" xlink:href="#k"/><use transform="matrix(0.05,0,0,0.05,42.900000000000006,0)" xlink:href="#l"/><use transform="matrix(0.05,0,0,0.05,52.900000000000006,0)" xlink:href="#m"/><use transform="matrix(0.05,0,0,0.05,59.900000000000006,0)" xlink:href="#n"/><use transform="matrix(0.05,0,0,0.05,65.85000000000001,0)" xlink:href="#o"/><use transform="matrix(0.05,0,0,0.05,75.85000000000001,0)" xlink:href="#p"/><use transform="matrix(0.05,0,0,0.05,85.85000000000001,0)" xlink:href="#l"/><use transform="matrix(0.05,0,0,0.05,95.85000000000001,0)" xlink:href="#q"/><use transform="matrix(0.05,0,0,0.05,106.35000000000001,0)" xlink:href="#q"/></g><path fill="#fff" d="M24 0v-248h195v40H76v63h132v40H76v65h150V0H24" id="r"/><path fill="#fff" d="M128 0H69L1-190h53L99-40l48-150h52" id="s"/><path fill="#fff" d="M24 0v-248h52v208h133V0H24" id="t"/><path fill="#fff" d="M137-138c1-29-70-34-71-4 15 46 118 7 119 86 1 83-164 76-172 9l43-7c4 19 20 25 44 25 33 8 57-30 24-41C81-84 22-81 20-136c-2-80 154-74 161-7" id="u"/><g id="b"><use transform="matrix(0.05,0,0,0.05,0,0)" xlink:href="#r"/><use transform="matrix(0.05,0,0,0.05,12,0)" xlink:href="#s"/><use transform="matrix(0.05,0,0,0.05,22,0)" xlink:href="#l"/><use transform="matrix(0.05,0,0,0.05,32,0)" xlink:href="#j"/><use transform="matrix(0.05,0,0,0.05,42.95,0)" xlink:href="#k"/><use transform="matrix(0.05,0,0,0.05,48.900000000000006,0)" xlink:href="#t"/><use transform="matrix(0.05,0,0,0.05,59.85,0)" xlink:href="#i"/><use transform="matrix(0.05,0,0,0.05,64.85000000000001,0)" xlink:href="#u"/><use transform="matrix(0.05,0,0,0.05,74.85000000000001,0)" xlink:href="#k"/><use transform="matrix(0.05,0,0,0.05,80.80000000000001,0)" xlink:href="#l"/><use transform="matrix(0.05,0,0,0.05,90.80000000000001,0)" xlink:href="#j"/><use transform="matrix(0.05,0,0,0.05,101.75000000000001,0)" xlink:href="#l"/><use transform="matrix(0.05,0,0,0.05,111.75,0)" xlink:href="#m"/></g><path fill="#fff" d="M230 0l2-204L168 0h-37L68-204 70 0H24v-248h70l56 185 57-185h69V0h-46" id="v"/><path fill="#fff" d="M110-194c64 0 96 36 96 99 0 64-35 99-97 99-61 0-95-36-95-99 0-62 34-99 96-99zm-1 164c35 0 45-28 45-65 0-40-10-65-43-65-34 0-45 26-45 65 0 36 10 65 43 65" id="w"/><path fill="#fff" d="M231 0h-52l-39-155L100 0H48L-1-190h46L77-45c9-52 24-97 36-145h53l37 145 32-145h46" id="x"/><g id="c"><use transform="matrix(0.05,0,0,0.05,0,0)" xlink:href="#v"/><use transform="matrix(0.05,0,0,0.05,14.950000000000001,0)" xlink:href="#i"/><use transform="matrix(0.05,0,0,0.05,19.950000000000003,0)" xlink:href="#p"/><use transform="matrix(0.05,0,0,0.05,29.950000000000003,0)" xlink:href="#m"/><use transform="matrix(0.05,0,0,0.05,36.95,0)" xlink:href="#w"/><use transform="matrix(0.05,0,0,0.05,47.900000000000006,0)" xlink:href="#x"/><use transform="matrix(0.05,0,0,0.05,61.900000000000006,0)" xlink:href="#o"/><use transform="matrix(0.05,0,0,0.05,71.9,0)" xlink:href="#s"/><use transform="matrix(0.05,0,0,0.05,81.9,0)" xlink:href="#l"/><use transform="matrix(0.05,0,0,0.05,91.9,0)" xlink:href="#r"/><use transform="matrix(0.05,0,0,0.05,103.9,0)" xlink:href="#s"/><use transform="matrix(0.05,0,0,0.05,113.9,0)" xlink:href="#l"/><use transform="matrix(0.05,0,0,0.05,123.9,0)" xlink:href="#j"/><use transform="matrix(0.05,0,0,0.05,134.85,0)" xlink:href="#k"/><use transform="matrix(0.05,0,0,0.05,140.79999999999998,0)" xlink:href="#t"/><use transform="matrix(0.05,0,0,0.05,151.74999999999997,0)" xlink:href="#i"/><use transform="matrix(0.05,0,0,0.05,156.74999999999997,0)" xlink:href="#u"/><use transform="matrix(0.05,0,0,0.05,166.74999999999997,0)" xlink:href="#k"/><use transform="matrix(0.05,0,0,0.05,172.69999999999996,0)" xlink:href="#l"/><use transform="matrix(0.05,0,0,0.05,182.69999999999996,0)" xlink:href="#j"/><use transform="matrix(0.05,0,0,0.05,193.64999999999995,0)" xlink:href="#l"/><use transform="matrix(0.05,0,0,0.05,203.64999999999995,0)" xlink:href="#m"/></g><path fill="#fff" d="M24-248c120-7 223 5 221 122C244-46 201 0 124 0H24v-248zM76-40c74 7 117-18 117-86 0-67-45-88-117-82v168" id="y"/><path fill="#fff" d="M67-125c0 53 21 87 73 88 37 1 54-22 65-47l45 17C233-25 199 4 140 4 58 4 20-42 15-125 8-235 124-281 211-232c18 10 29 29 36 50l-46 12c-8-25-30-41-62-41-52 0-71 34-72 86" id="z"/><path fill="#fff" d="M25 0v-261h50V0H25" id="A"/><g id="d"><use transform="matrix(0.05,0,0,0.05,0,0)" xlink:href="#y"/><use transform="matrix(0.05,0,0,0.05,12.950000000000001,0)" xlink:href="#w"/><use transform="matrix(0.05,0,0,0.05,23.900000000000002,0)" xlink:href="#w"/><use transform="matrix(0.05,0,0,0.05,34.85,0)" xlink:href="#m"/><use transform="matrix(0.05,0,0,0.05,41.85,0)" xlink:href="#z"/><use transform="matrix(0.05,0,0,0.05,54.800000000000004,0)" xlink:href="#A"/><use transform="matrix(0.05,0,0,0.05,59.800000000000004,0)" xlink:href="#w"/><use transform="matrix(0.05,0,0,0.05,70.75,0)" xlink:href="#u"/><use transform="matrix(0.05,0,0,0.05,80.75,0)" xlink:href="#l"/><use transform="matrix(0.05,0,0,0.05,90.75,0)" xlink:href="#t"/><use transform="matrix(0.05,0,0,0.05,101.7,0)" xlink:href="#i"/><use transform="matrix(0.05,0,0,0.05,106.7,0)" xlink:href="#u"/><use transform="matrix(0.05,0,0,0.05,116.7,0)" xlink:href="#k"/><use transform="matrix(0.05,0,0,0.05,122.65,0)" xlink:href="#l"/><use transform="matrix(0.05,0,0,0.05,132.65,0)" xlink:href="#j"/><use transform="matrix(0.05,0,0,0.05,143.6,0)" xlink:href="#l"/><use transform="matrix(0.05,0,0,0.05,153.6,0)" xlink:href="#m"/></g><path fill="#fff" d="M140-251c80 0 125 45 125 126S219 4 139 4C58 4 15-44 15-125s44-126 125-126zm-1 214c52 0 73-35 73-88 0-50-21-86-72-86-52 0-73 35-73 86s22 88 72 88" id="B"/><path fill="#fff" d="M135-194c53 0 70 44 70 98 0 56-19 98-73 100-31 1-45-17-59-34 3 33 2 69 2 105H25l-1-265h48c2 10 0 23 3 31 11-24 29-35 60-35zM114-30c33 0 39-31 40-66 0-38-9-64-40-64-56 0-55 130 0 130" id="C"/><g id="e"><use transform="matrix(0.05,0,0,0.05,0,0)" xlink:href="#y"/><use transform="matrix(0.05,0,0,0.05,12.950000000000001,0)" xlink:href="#w"/><use transform="matrix(0.05,0,0,0.05,23.900000000000002,0)" xlink:href="#w"/><use transform="matrix(0.05,0,0,0.05,34.85,0)" xlink:href="#m"/><use transform="matrix(0.05,0,0,0.05,41.85,0)" xlink:href="#B"/><use transform="matrix(0.05,0,0,0.05,55.85,0)" xlink:href="#C"/><use transform="matrix(0.05,0,0,0.05,66.8,0)" xlink:href="#l"/><use transform="matrix(0.05,0,0,0.05,76.8,0)" xlink:href="#j"/><use transform="matrix(0.05,0,0,0.05,87.75,0)" xlink:href="#t"/><use transform="matrix(0.05,0,0,0.05,98.7,0)" xlink:href="#i"/><use transform="matrix(0.05,0,0,0.05,103.7,0)" xlink:href="#u"/><use transform="matrix(0.05,0,0,0.05,113.7,0)" xlink:href="#k"/><use transform="matrix(0.05,0,0,0.05,119.65,0)" xlink:href="#l"/><use transform="matrix(0.05,0,0,0.05,129.65,0)" xlink:href="#j"/><use transform="matrix(0.05,0,0,0.05,140.6,0)" xlink:href="#l"/><use transform="matrix(0.05,0,0,0.05,150.6,0)" xlink:href="#m"/></g><path fill="#fff" d="M147 0L96-86 75-71V0H25v-261h50v150l67-79h53l-66 74L201 0h-54" id="D"/><path fill="#fff" d="M136-208V0H84v-208H4v-40h212v40h-80" id="E"/><g id="f"><use transform="matrix(0.05,0,0,0.05,0,0)" xlink:href="#z"/><use transform="matrix(0.05,0,0,0.05,12.950000000000001,0)" xlink:href="#A"/><use transform="matrix(0.05,0,0,0.05,17.950000000000003,0)" xlink:href="#w"/><use transform="matrix(0.05,0,0,0.05,28.900000000000006,0)" xlink:href="#p"/><use transform="matrix(0.05,0,0,0.05,38.900000000000006,0)" xlink:href="#D"/><use transform="matrix(0.05,0,0,0.05,48.900000000000006,0)" xlink:href="#E"/><use transform="matrix(0.05,0,0,0.05,59.5,0)" xlink:href="#i"/><use transform="matrix(0.05,0,0,0.05,64.5,0)" xlink:href="#p"/><use transform="matrix(0.05,0,0,0.05,74.5,0)" xlink:href="#D"/><use transform="matrix(0.05,0,0,0.05,84.5,0)" xlink:href="#t"/><use transform="matrix(0.05,0,0,0.05,95.45,0)" xlink:href="#i"/><use transform="matrix(0.05,0,0,0.05,100.45,0)" xlink:href="#u"/><use transform="matrix(0.05,0,0,0.05,110.45,0)" xlink:href="#k"/><use transform="matrix(0.05,0,0,0.05,116.4,0)" xlink:href="#l"/><use transform="matrix(0.05,0,0,0.05,126.4,0)" xlink:href="#j"/><use transform="matrix(0.05,0,0,0.05,137.35,0)" xlink:href="#l"/><use transform="matrix(0.05,0,0,0.05,147.35,0)" xlink:href="#m"/></g><path fill="#fff" d="M240-174c0 40-23 61-54 70L253 0h-59l-57-94H76V0H24v-248c93 4 217-23 216 74zM76-134c48-2 112 12 112-38 0-48-66-32-112-35v73" id="F"/><path fill="#fff" d="M84 4C32 4 15-41 15-95c0-55 18-99 73-99 29 0 47 12 58 34l2-30h48l-1 265h-49V-32C136-9 114 4 84 4zm21-34c32 0 41-29 41-66 0-36-9-64-40-64-33 0-39 30-40 65 0 43 13 65 39 65" id="G"/><path fill="#fff" d="M85 4C-2 5 27-109 22-190h50c7 57-23 150 33 157 60-5 35-97 40-157h50l1 190h-47c-2-12 1-28-3-38-12 25-28 42-61 42" id="H"/><g id="g"><use transform="matrix(0.05,0,0,0.05,0,0)" xlink:href="#z"/><use transform="matrix(0.05,0,0,0.05,12.950000000000001,0)" xlink:href="#w"/><use transform="matrix(0.05,0,0,0.05,23.900000000000002,0)" xlink:href="#w"/><use transform="matrix(0.05,0,0,0.05,34.85,0)" xlink:href="#D"/><use transform="matrix(0.05,0,0,0.05,44.85,0)" xlink:href="#F"/><use transform="matrix(0.05,0,0,0.05,57.800000000000004,0)" xlink:href="#l"/><use transform="matrix(0.05,0,0,0.05,67.80000000000001,0)" xlink:href="#G"/><use transform="matrix(0.05,0,0,0.05,78.75000000000001,0)" xlink:href="#H"/><use transform="matrix(0.05,0,0,0.05,89.70000000000002,0)" xlink:href="#l"/><use transform="matrix(0.05,0,0,0.05,99.70000000000002,0)" xlink:href="#u"/><use transform="matrix(0.05,0,0,0.05,109.7,0)" xlink:href="#k"/><use transform="matrix(0.05,0,0,0.05,115.65000000000003,0)" xlink:href="#t"/><use transform="matrix(0.05,0,0,0.05,126.60000000000002,0)" xlink:href="#i"/><use transform="matrix(0.05,0,0,0.05,131.60000000000002,0)" xlink:href="#u"/><use transform="matrix(0.05,0,0,0.05,141.60000000000002,0)" xlink:href="#k"/><use transform="matrix(0.05,0,0,0.05,147.55,0)" xlink:href="#l"/><use transform="matrix(0.05,0,0,0.05,157.55,0)" xlink:href="#j"/><use transform="matrix(0.05,0,0,0.05,168.5,0)" xlink:href="#l"/><use transform="matrix(0.05,0,0,0.05,178.5,0)" xlink:href="#m"/></g></defs></g></svg>