<svg xmlns="http://www.w3.org/2000/svg" xmlns:xlink="http://www.w3.org/1999/xlink" xmlns:lucid="lucid" width="720" height="580"><g transform="translate(-320 -220)" lucid:page-tab-id="ROGaXxnids9B"><path d="M0 0h1760v1360H0z" fill="#fff"/><path d="M540 330c0 16.57-26.86 30-60 30s-60-13.43-60-30 26.86-30 60-30 60 13.43 60 30z" stroke="#5e5e5e" stroke-width="3" fill="#fff"/><use xlink:href="#a" transform="matrix(1,0,0,1,425,305) translate(26.60993827160494 30.27777777777778)"/><path d="M460 450c0 16.57-26.86 30-60 30s-60-13.43-60-30 26.86-30 60-30 60 13.43 60 30z" stroke="#5e5e5e" stroke-width="3" fill="#fff"/><use xlink:href="#b" transform="matrix(1,0,0,1,345,425) translate(26.60993827160494 30.27777777777778)"/><path d="M460 570c0 16.57-26.86 30-60 30s-60-13.43-60-30 26.86-30 60-30 60 13.43 60 30z" stroke="#5e5e5e" stroke-width="3" fill="#fff"/><use xlink:href="#c" transform="matrix(1,0,0,1,345,545) translate(26.60993827160494 30.27777777777778)"/><path d="M540 690c0 16.57-26.86 30-60 30s-60-13.43-60-30 26.86-30 60-30 60 13.43 60 30z" stroke="#5e5e5e" stroke-width="3" fill="#fff"/><use xlink:href="#d" transform="matrix(1,0,0,1,425,665) translate(26.60993827160494 30.27777777777778)"/><path d="M720 750c0 16.57-26.86 30-60 30s-60-13.43-60-30 26.86-30 60-30 60 13.43 60 30z" stroke="#5e5e5e" stroke-width="3" fill="#fff"/><use xlink:href="#e" transform="matrix(1,0,0,1,605,725) translate(26.60993827160494 30.27777777777778)"/><path d="M720 270c0 16.57-26.86 30-60 30s-60-13.43-60-30 26.86-30 60-30 60 13.43 60 30z" stroke="#5e5e5e" stroke-width="3" fill="#fff"/><use xlink:href="#f" transform="matrix(1,0,0,1,605,245) translate(26.60993827160494 30.27777777777778)"/><path d="M900 330c0 16.57-26.86 30-60 30s-60-13.43-60-30 26.86-30 60-30 60 13.43 60 30z" stroke="#5e5e5e" stroke-width="3" fill="#fff"/><use xlink:href="#g" transform="matrix(1,0,0,1,785,305) translate(26.60993827160494 30.27777777777778)"/><path d="M1020 450c0 16.57-26.86 30-60 30s-60-13.43-60-30 26.86-30 60-30 60 13.43 60 30z" stroke="#5e5e5e" stroke-width="3" fill="#fff"/><use xlink:href="#h" transform="matrix(1,0,0,1,905,425) translate(26.60993827160494 30.27777777777778)"/><path d="M1020 570c0 16.57-26.86 30-60 30s-60-13.43-60-30 26.86-30 60-30 60 13.43 60 30z" stroke="#5e5e5e" stroke-width="3" fill="#fff"/><use xlink:href="#i" transform="matrix(1,0,0,1,905,545) translate(26.60993827160494 30.27777777777778)"/><path d="M900 690c0 16.57-26.86 30-60 30s-60-13.43-60-30 26.86-30 60-30 60 13.43 60 30z" stroke="#5e5e5e" stroke-width="3" fill="#fff"/><use xlink:href="#j" transform="matrix(1,0,0,1,785,665) translate(26.60993827160494 30.27777777777778)"/><path d="M400.5 417.63l27.46-48.94" stroke="#5e5e5e" stroke-width="2" fill="none"/><path d="M401.37 418.1l-.25.45-1.12-.05-1.17.04.8-1.42z" fill="#5e5e5e"/><path d="M435.43 355.38l-2.94 14.7-8.1-4.53z" stroke="#5e5e5e" stroke-width="2" fill="#5e5e5e"/><path d="M597.56 270.35l-70.15 25.8" stroke="#5e5e5e" stroke-width="2" fill="none"/><path d="M598.5 270l.04 1.05-.66.24-.7-1.88 1.36-.5z" fill="#5e5e5e"/><path d="M513.08 301.42l11.8-9.28 3.2 8.7z" stroke="#5e5e5e" stroke-width="2" fill="#5e5e5e"/><path d="M373.04 540.66v-43.83" stroke="#5e5e5e" stroke-width="2" fill="none"/><path d="M374.04 541.42l-.5.1-1.5.43v-1.3h2z" fill="#5e5e5e"/><path d="M373.04 481.57l4.64 14.26h-9.27z" stroke="#5e5e5e" stroke-width="2" fill="#5e5e5e"/><path d="M521.73 714.02l60.02 28.13" stroke="#5e5e5e" stroke-width="2" fill="none"/><path d="M522.17 713.12l-.84 1.8-1.68-.77 2.34-1.1z" fill="#5e5e5e"/><path d="M595.57 748.63l-14.9-1.86 3.95-8.4z" stroke="#5e5e5e" stroke-width="2" fill="#5e5e5e"/><path d="M722.44 749.66l71.44-25.56" stroke="#5e5e5e" stroke-width="2" fill="none"/><path d="M722.8 750.6l-1.34.48.04-1.08-.04-1.05.67-.24z" fill="#5e5e5e"/><path d="M808.26 718.96l-11.87 9.17-3.14-8.73z" stroke="#5e5e5e" stroke-width="2" fill="#5e5e5e"/><path d="M890.07 670.43l55.9-55.9" stroke="#5e5e5e" stroke-width="2" fill="none"/><path d="M890.8 671.12l-.6.6-1.52-1.07-.15-.1.85-.84z" fill="#5e5e5e"/><path d="M956.76 603.75l-6.8 13.37-6.57-6.56z" stroke="#5e5e5e" stroke-width="2" fill="#5e5e5e"/><path d="M960 482.5V520" stroke="#5e5e5e" stroke-width="2" fill="none"/><path d="M960 481.5l1-.03v1.06h-2v-1.07z" fill="#5e5e5e"/><path d="M960 535.26L955.36 521h9.28z" stroke="#5e5e5e" stroke-width="2" fill="#5e5e5e"/><path d="M889.56 349.92l55.56 55.56" stroke="#5e5e5e" stroke-width="2" fill="none"/><path d="M890.28 349.23l-1.4 1.4-.88-.85.18-.1 1.5-1.05z" fill="#5e5e5e"/><path d="M955.9 416.27l-13.35-6.8 6.55-6.56z" stroke="#5e5e5e" stroke-width="2" fill="#5e5e5e"/><path d="M722.43 270.37l66.16 26.54" stroke="#5e5e5e" stroke-width="2" fill="none"/><path d="M722.83 269.45l-.75 1.86-.62-.24.04-1.06-.04-1.1z" fill="#5e5e5e"/><path d="M802.76 302.6l-14.97-1.02 3.44-8.6z" stroke="#5e5e5e" stroke-width="2" fill="#5e5e5e"/><path d="M777.53 689.74L451.96 601.1" stroke="#5e5e5e" stroke-width="2" fill="none"/><path d="M778.54 688.98l-.04 1.02.04 1.05-1.3-.35.53-1.93z" fill="#5e5e5e"/><path d="M437.23 597.1l14.98-.72-2.42 8.94z" stroke="#5e5e5e" stroke-width="2" fill="#5e5e5e"/><path d="M500.3 659.27V378.2" stroke="#5e5e5e" stroke-width="2" fill="none"/><path d="M501.3 660.48l-1.9-.4h-.1v-.83h2z" fill="#5e5e5e"/><path d="M500.3 362.93l4.65 14.26h-9.27z" stroke="#5e5e5e" stroke-width="2" fill="#5e5e5e"/><path d="M489.9 362l-43.8 166.77" stroke="#5e5e5e" stroke-width="2" fill="none"/><path d="M490.88 362.27l-1.94-.5.16-.63 2.13-.24z" fill="#5e5e5e"/><path d="M442.22 543.54l-.86-14.98 8.97 2.36z" stroke="#5e5e5e" stroke-width="2" fill="#5e5e5e"/><path d="M459.98 560.72l307.85-208.24" stroke="#5e5e5e" stroke-width="2" fill="none"/><path d="M460.56 561.53l-.95.65-.27-.6-.7-1.16.8-.54z" fill="#5e5e5e"/><path d="M780.48 343.93l-9.22 11.83-5.2-7.68z" stroke="#5e5e5e" stroke-width="2" fill="#5e5e5e"/><path d="M542.5 330H760" stroke="#5e5e5e" stroke-width="2" fill="none"/><path d="M542.53 331h-1.07l.04-1-.03-1h1.06z" fill="#5e5e5e"/><path d="M775.26 330L761 334.64v-9.28z" stroke="#5e5e5e" stroke-width="2" fill="#5e5e5e"/><path d="M660 302.5V700" stroke="#5e5e5e" stroke-width="2" fill="none"/><path d="M660 301.5l1-.03v1.06h-2v-1.07z" fill="#5e5e5e"/><path d="M660 715.26L655.36 701h9.28z" stroke="#5e5e5e" stroke-width="2" fill="#5e5e5e"/><path d="M693.42 722.5l118.1-345.73" stroke="#5e5e5e" stroke-width="2" fill="none"/><path d="M694.38 722.8l-.32.94-1.92-.58.34-1z" fill="#5e5e5e"/><path d="M816.44 362.33l-.22 15-8.78-3z" stroke="#5e5e5e" stroke-width="2" fill="#5e5e5e"/><path d="M840 362.5V640" stroke="#5e5e5e" stroke-width="2" fill="none"/><path d="M840 361.5l1-.03v1.06h-2v-1.07z" fill="#5e5e5e"/><path d="M840 655.26L835.36 641h9.28z" stroke="#5e5e5e" stroke-width="2" fill="#5e5e5e"/><path d="M462.5 450H880" stroke="#5e5e5e" stroke-width="2" fill="none"/><path d="M462.53 451h-1.07l.04-1-.03-1h1.06z" fill="#5e5e5e"/><path d="M895.26 450L881 454.64v-9.28z" stroke="#5e5e5e" stroke-width="2" fill="#5e5e5e"/><path d="M901.78 558.18l-434.7-85.46" stroke="#5e5e5e" stroke-width="2" fill="none"/><path d="M903.48 557.5l-.5.6-.86 1.16-.55-.1.38-1.97z" fill="#5e5e5e"/><path d="M452.1 469.77l14.9-1.8-1.78 9.1z" stroke="#5e5e5e" stroke-width="2" fill="#5e5e5e"/><path d="M431.54 477.75L776.78 660.9" stroke="#5e5e5e" stroke-width="2" fill="none"/><path d="M431.1 478.65l-1.84-.97 2.76-.8z" fill="#5e5e5e"/><path d="M790.27 668.04l-14.77-2.6 4.34-8.18z" stroke="#5e5e5e" stroke-width="2" fill="#5e5e5e"/><path d="M797.58 353.9L533.1 652.54" stroke="#5e5e5e" stroke-width="2" fill="none"/><path d="M799.17 353.6l-.86 1-1.5-1.34.5-.56z" fill="#5e5e5e"/><path d="M522.98 663.96l5.98-13.75 6.94 6.16z" stroke="#5e5e5e" stroke-width="2" fill="#5e5e5e"/><path d="M537.8 677.5l353.54-201.92" stroke="#5e5e5e" stroke-width="2" fill="none"/><path d="M538.32 678.35l-.77.45-.32-.45-.95-1.14 1.05-.58z" fill="#5e5e5e"/><path d="M904.6 468l-10.1 11.1-4.6-8.04z" stroke="#5e5e5e" stroke-width="2" fill="#5e5e5e"/><path d="M910.9 589.95L559.3 686.5" stroke="#5e5e5e" stroke-width="2" fill="none"/><path d="M911.32 589.35l1.74 1.05-1.9.52-.54-1.93.14-.05z" fill="#5e5e5e"/><path d="M544.56 690.54l12.53-8.24 2.45 8.93z" stroke="#5e5e5e" stroke-width="2" fill="#5e5e5e"/><path d="M914.8 472.56l-50.2 175.56" stroke="#5e5e5e" stroke-width="2" fill="none"/><path d="M915 471.57l1 .48-.24.8-1.92-.54.35-1.22z" fill="#5e5e5e"/><path d="M860.4 662.8l-.53-15 8.9 2.56z" stroke="#5e5e5e" stroke-width="2" fill="#5e5e5e"/><path d="M813.03 660.63L697.3 314.6" stroke="#5e5e5e" stroke-width="2" fill="none"/><path d="M814.34 661.36l-.8.16-1.15.33-.32-.93 1.9-.63z" fill="#5e5e5e"/><path d="M692.45 300.13l8.93 12.06-8.8 2.93z" stroke="#5e5e5e" stroke-width="2" fill="#5e5e5e"/><path d="M626.88 722.38l-110.5-347.5" stroke="#5e5e5e" stroke-width="2" fill="none"/><path d="M628.15 723.06l-1.8.5-.12.06-.3-.96 1.9-.6z" fill="#5e5e5e"/><path d="M511.74 360.33l8.74 12.2-8.83 2.8z" stroke="#5e5e5e" stroke-width="2" fill="#5e5e5e"/><path d="M527.4 351.28l265.06 299.06" stroke="#5e5e5e" stroke-width="2" fill="none"/><path d="M528.15 350.63l-1.5 1.33-.8-.92 1.75-1.02z" fill="#5e5e5e"/><path d="M802.6 661.76l-12.94-7.6 6.93-6.15z" stroke="#5e5e5e" stroke-width="2" fill="#5e5e5e"/><path d="M918.23 545.97L552.06 352.1" stroke="#5e5e5e" stroke-width="2" fill="none"/><path d="M920.24 545.9l-2.25 1.07-.26-.13.94-1.77z" fill="#5e5e5e"/><path d="M538.57 344.96l14.78 2.58-4.34 8.2z" stroke="#5e5e5e" stroke-width="2" fill="#5e5e5e"/><path d="M900.16 459.43L479.44 565.48" stroke="#5e5e5e" stroke-width="2" fill="none"/><path d="M900.67 458.4l.93 1.6.06.08-1.28.33-.5-1.93.73-.2z" fill="#5e5e5e"/><path d="M464.64 569.2l12.7-7.97 2.26 9z" stroke="#5e5e5e" stroke-width="2" fill="#5e5e5e"/><path d="M456.85 583.3h428.8" stroke="#5e5e5e" stroke-width="2" fill="none"/><path d="M456.87 584.3h-1.98l.62-.62 1.18-1.4h.17z" fill="#5e5e5e"/><path d="M900.9 583.3l-14.26 4.63v-9.27z" stroke="#5e5e5e" stroke-width="2" fill="#5e5e5e"/><defs><path fill="#333" d="M185-189c-5-48-123-54-124 2 14 75 158 14 163 119 3 78-121 87-175 55-17-10-28-26-33-46l33-7c5 56 141 63 141-1 0-78-155-14-162-118-5-82 145-84 179-34 5 7 8 16 11 25" id="k"/><path fill="#333" d="M30 0v-248h33v221h125V0H30" id="l"/><path fill="#333" d="M140-251c81 0 123 46 123 126C263-46 219 4 140 4 59 4 17-45 17-125s42-126 123-126zm0 227c63 0 89-41 89-101s-29-99-89-99c-61 0-89 39-89 99S79-25 140-24" id="m"/><path fill="#333" d="M99-251c64 0 84 50 84 122C183-37 130 33 47-8c-14-7-20-23-25-40l30-5c6 39 69 39 84 7 9-19 16-44 16-74-10 22-31 35-62 35-49 0-73-33-73-83 0-54 28-83 82-83zm-1 141c31-1 51-18 51-49 0-36-14-67-51-67-34 0-49 23-49 58 0 34 15 58 49 58" id="n"/><g id="a"><use transform="matrix(0.06172839506172839,0,0,0.06172839506172839,0,0)" xlink:href="#k"/><use transform="matrix(0.06172839506172839,0,0,0.06172839506172839,14.814814814814813,0)" xlink:href="#l"/><use transform="matrix(0.06172839506172839,0,0,0.06172839506172839,27.160493827160494,0)" xlink:href="#m"/><use transform="matrix(0.06172839506172839,0,0,0.06172839506172839,44.44444444444444,0)" xlink:href="#n"/></g><path fill="#333" d="M134-131c28 9 52 24 51 62-1 50-34 73-85 73S17-19 16-69c0-36 21-54 49-61-75-25-45-126 34-121 46 3 78 18 79 63 0 33-17 51-44 57zm-34-11c31 1 46-15 46-44 0-28-17-43-47-42-29 0-46 13-45 42 1 28 16 44 46 44zm1 122c35 0 51-18 51-52 0-30-18-46-53-46-33 0-51 17-51 47 0 34 19 51 53 51" id="o"/><g id="b"><use transform="matrix(0.06172839506172839,0,0,0.06172839506172839,0,0)" xlink:href="#k"/><use transform="matrix(0.06172839506172839,0,0,0.06172839506172839,14.814814814814813,0)" xlink:href="#l"/><use transform="matrix(0.06172839506172839,0,0,0.06172839506172839,27.160493827160494,0)" xlink:href="#m"/><use transform="matrix(0.06172839506172839,0,0,0.06172839506172839,44.44444444444444,0)" xlink:href="#o"/></g><path fill="#333" d="M64 0c3-98 48-159 88-221H18v-27h164v26C143-157 98-101 97 0H64" id="p"/><g id="c"><use transform="matrix(0.06172839506172839,0,0,0.06172839506172839,0,0)" xlink:href="#k"/><use transform="matrix(0.06172839506172839,0,0,0.06172839506172839,14.814814814814813,0)" xlink:href="#l"/><use transform="matrix(0.06172839506172839,0,0,0.06172839506172839,27.160493827160494,0)" xlink:href="#m"/><use transform="matrix(0.06172839506172839,0,0,0.06172839506172839,44.44444444444444,0)" xlink:href="#p"/></g><path fill="#333" d="M110-160c48 1 74 30 74 79 0 53-28 85-80 85-65 0-83-55-86-122-5-90 50-162 133-122 14 7 22 21 27 39l-31 6c-5-40-67-38-82-6-9 19-15 44-15 74 11-20 30-34 60-33zm-7 138c34 0 49-23 49-58s-16-56-50-56c-29 0-50 16-49 49 1 36 15 65 50 65" id="q"/><g id="d"><use transform="matrix(0.06172839506172839,0,0,0.06172839506172839,0,0)" xlink:href="#k"/><use transform="matrix(0.06172839506172839,0,0,0.06172839506172839,14.814814814814813,0)" xlink:href="#l"/><use transform="matrix(0.06172839506172839,0,0,0.06172839506172839,27.160493827160494,0)" xlink:href="#m"/><use transform="matrix(0.06172839506172839,0,0,0.06172839506172839,44.44444444444444,0)" xlink:href="#q"/></g><path fill="#333" d="M54-142c48-35 137-8 131 61C196 18 31 33 14-55l32-4c7 23 22 37 52 37 35-1 51-22 54-58 4-55-73-65-99-34H22l8-134h141v27H59" id="r"/><g id="e"><use transform="matrix(0.06172839506172839,0,0,0.06172839506172839,0,0)" xlink:href="#k"/><use transform="matrix(0.06172839506172839,0,0,0.06172839506172839,14.814814814814813,0)" xlink:href="#l"/><use transform="matrix(0.06172839506172839,0,0,0.06172839506172839,27.160493827160494,0)" xlink:href="#m"/><use transform="matrix(0.06172839506172839,0,0,0.06172839506172839,44.44444444444444,0)" xlink:href="#r"/></g><path fill="#333" d="M101-251c68 0 85 55 85 127S166 4 100 4C33 4 14-52 14-124c0-73 17-127 87-127zm-1 229c47 0 54-49 54-102s-4-102-53-102c-51 0-55 48-55 102 0 53 5 102 54 102" id="s"/><g id="f"><use transform="matrix(0.06172839506172839,0,0,0.06172839506172839,0,0)" xlink:href="#k"/><use transform="matrix(0.06172839506172839,0,0,0.06172839506172839,14.814814814814813,0)" xlink:href="#l"/><use transform="matrix(0.06172839506172839,0,0,0.06172839506172839,27.160493827160494,0)" xlink:href="#m"/><use transform="matrix(0.06172839506172839,0,0,0.06172839506172839,44.44444444444444,0)" xlink:href="#s"/></g><path fill="#333" d="M27 0v-27h64v-190l-56 39v-29l58-41h29v221h61V0H27" id="t"/><g id="g"><use transform="matrix(0.06172839506172839,0,0,0.06172839506172839,0,0)" xlink:href="#k"/><use transform="matrix(0.06172839506172839,0,0,0.06172839506172839,14.814814814814813,0)" xlink:href="#l"/><use transform="matrix(0.06172839506172839,0,0,0.06172839506172839,27.160493827160494,0)" xlink:href="#m"/><use transform="matrix(0.06172839506172839,0,0,0.06172839506172839,44.44444444444444,0)" xlink:href="#t"/></g><path fill="#333" d="M101-251c82-7 93 87 43 132L82-64C71-53 59-42 53-27h129V0H18c2-99 128-94 128-182 0-28-16-43-45-43s-46 15-49 41l-32-3c6-41 34-60 81-64" id="u"/><g id="h"><use transform="matrix(0.06172839506172839,0,0,0.06172839506172839,0,0)" xlink:href="#k"/><use transform="matrix(0.06172839506172839,0,0,0.06172839506172839,14.814814814814813,0)" xlink:href="#l"/><use transform="matrix(0.06172839506172839,0,0,0.06172839506172839,27.160493827160494,0)" xlink:href="#m"/><use transform="matrix(0.06172839506172839,0,0,0.06172839506172839,44.44444444444444,0)" xlink:href="#u"/></g><path fill="#333" d="M126-127c33 6 58 20 58 59 0 88-139 92-164 29-3-8-5-16-6-25l32-3c6 27 21 44 54 44 32 0 52-15 52-46 0-38-36-46-79-43v-28c39 1 72-4 72-42 0-27-17-43-46-43-28 0-47 15-49 41l-32-3c6-42 35-63 81-64 48-1 79 21 79 65 0 36-21 52-52 59" id="v"/><g id="i"><use transform="matrix(0.06172839506172839,0,0,0.06172839506172839,0,0)" xlink:href="#k"/><use transform="matrix(0.06172839506172839,0,0,0.06172839506172839,14.814814814814813,0)" xlink:href="#l"/><use transform="matrix(0.06172839506172839,0,0,0.06172839506172839,27.160493827160494,0)" xlink:href="#m"/><use transform="matrix(0.06172839506172839,0,0,0.06172839506172839,44.44444444444444,0)" xlink:href="#v"/></g><path fill="#333" d="M155-56V0h-30v-56H8v-25l114-167h33v167h35v25h-35zm-30-156c-27 46-58 90-88 131h88v-131" id="w"/><g id="j"><use transform="matrix(0.06172839506172839,0,0,0.06172839506172839,0,0)" xlink:href="#k"/><use transform="matrix(0.06172839506172839,0,0,0.06172839506172839,14.814814814814813,0)" xlink:href="#l"/><use transform="matrix(0.06172839506172839,0,0,0.06172839506172839,27.160493827160494,0)" xlink:href="#m"/><use transform="matrix(0.06172839506172839,0,0,0.06172839506172839,44.44444444444444,0)" xlink:href="#w"/></g></defs></g></svg>