<svg version="1.1" xmlns="http://www.w3.org/2000/svg" xmlns:xlink="http://www.w3.org/1999/xlink" width="861" height="666"><defs/><g><g transform="translate(-350,-102) scale(1,1)"><rect fill="#C0C0C0" stroke="none" x="535" y="137" width="163.01806640625" height="210" opacity="0.2"/></g><g transform="translate(-350,-102) scale(1,1)"><rect fill="#C0C0C0" stroke="none" x="689.34716796875" y="119" width="17.6708984375" height="22" opacity="0.2"/></g><g transform="translate(-350,-102) scale(1,1)"><rect fill="#ffffff" stroke="none" x="528" y="130" width="163.01806640625" height="210"/></g><g transform="translate(-350,-102) scale(1,1)"><path fill="none" stroke="#000000" d="M 528 130 L 691.01806640625 130 L 691.01806640625 340 L 528 340 L 528 130 Z Z" stroke-miterlimit="10"/></g><g transform="translate(-350,-102) scale(1,1)"><path fill="none" stroke="#000000" d="M 528 168 L 691.01806640625 168" stroke-miterlimit="10"/></g><g transform="translate(-350,-102) scale(1,1)"><g><path fill="none" stroke="none"/><text fill="#000000" stroke="none" font-family="Arial" font-size="13px" font-style="normal" font-weight="normal" text-decoration="none" x="577.3486328125" y="147.5">«interface»</text></g></g><g transform="translate(-350,-102) scale(1,1)"><g><path fill="none" stroke="none"/><text fill="#000000" stroke="none" font-family="Arial" font-size="13px" font-style="normal" font-weight="bold" text-decoration="none" x="599.39404296875" y="162.5">List</text></g></g><g transform="translate(-350,-102) scale(1,1)"><g><path fill="none" stroke="none"/><text fill="#000000" stroke="none" font-family="Arial" font-size="13px" font-style="normal" font-weight="normal" text-decoration="none" x="533" y="185.5">+first(): E</text></g></g><g transform="translate(-350,-102) scale(1,1)"><g><path fill="none" stroke="none"/><text fill="#000000" stroke="none" font-family="Arial" font-size="13px" font-style="normal" font-weight="normal" text-decoration="none" x="533" y="200.5">+last(): E</text></g></g><g transform="translate(-350,-102) scale(1,1)"><g><path fill="none" stroke="none"/><text fill="#000000" stroke="none" font-family="Arial" font-size="13px" font-style="normal" font-weight="normal" text-decoration="none" x="533" y="215.5">+get(ndx: int): E</text></g></g><g transform="translate(-350,-102) scale(1,1)"><g><path fill="none" stroke="none"/><text fill="#000000" stroke="none" font-family="Arial" font-size="13px" font-style="normal" font-weight="normal" text-decoration="none" x="533" y="230.5">+remove(ndx: int): E</text></g></g><g transform="translate(-350,-102) scale(1,1)"><g><path fill="none" stroke="none"/><text fill="#000000" stroke="none" font-family="Arial" font-size="13px" font-style="normal" font-weight="normal" text-decoration="none" x="533" y="245.5">+insert(ndx: int, E item)</text></g></g><g transform="translate(-350,-102) scale(1,1)"><g><path fill="none" stroke="none"/><text fill="#000000" stroke="none" font-family="Arial" font-size="13px" font-style="normal" font-weight="normal" text-decoration="none" x="533" y="260.5">+addLast(E item)</text></g></g><g transform="translate(-350,-102) scale(1,1)"><g><path fill="none" stroke="none"/><text fill="#000000" stroke="none" font-family="Arial" font-size="13px" font-style="normal" font-weight="normal" text-decoration="none" x="533" y="275.5">+addFirst(E item)</text></g></g><g transform="translate(-350,-102) scale(1,1)"><g><path fill="none" stroke="none"/><text fill="#000000" stroke="none" font-family="Arial" font-size="13px" font-style="normal" font-weight="normal" text-decoration="none" x="533" y="290.5">+removeLast(E item)</text></g></g><g transform="translate(-350,-102) scale(1,1)"><g><path fill="none" stroke="none"/><text fill="#000000" stroke="none" font-family="Arial" font-size="13px" font-style="normal" font-weight="normal" text-decoration="none" x="533" y="305.5">+removeFirst(E item)</text></g></g><g transform="translate(-350,-102) scale(1,1)"><g><path fill="none" stroke="none"/><text fill="#000000" stroke="none" font-family="Arial" font-size="13px" font-style="normal" font-weight="normal" text-decoration="none" x="533" y="320.5">+size(): int</text></g></g><g transform="translate(-350,-102) scale(1,1)"><g><path fill="none" stroke="none"/><text fill="#000000" stroke="none" font-family="Arial" font-size="13px" font-style="normal" font-weight="normal" text-decoration="none" x="533" y="335.5">+isEmpty(): boolean</text></g></g><g transform="translate(-350,-102) scale(1,1)"><rect fill="#ffffff" stroke="none" x="682.34716796875" y="112" width="17.6708984375" height="22"/></g><g transform="translate(-350,-102) scale(1,1)"><path fill="none" stroke="#000000" d="M 682.34716796875 112 L 700.01806640625 112 L 700.01806640625 134 L 682.34716796875 134 L 682.34716796875 112 Z Z" stroke-miterlimit="10" stroke-dasharray="3"/></g><g transform="translate(-350,-102) scale(1,1)"><g><path fill="none" stroke="none"/><text fill="#000000" stroke="none" font-family="Arial" font-size="13px" font-style="normal" font-weight="normal" text-decoration="none" x="687.34716796875" y="129.5">E</text></g></g><g transform="translate(-350,-102) scale(1,1)"><rect fill="#C0C0C0" stroke="none" x="543" y="417" width="149.6689453125" height="57" opacity="0.2"/></g><g transform="translate(-350,-102) scale(1,1)"><rect fill="#C0C0C0" stroke="none" x="683.998046875" y="399" width="17.6708984375" height="22" opacity="0.2"/></g><g transform="translate(-350,-102) scale(1,1)"><rect fill="#ffffff" stroke="none" x="536" y="410" width="149.6689453125" height="57"/></g><g transform="translate(-350,-102) scale(1,1)"><path fill="none" stroke="#000000" d="M 536 410 L 685.6689453125 410 L 685.6689453125 467 L 536 467 L 536 410 Z Z" stroke-miterlimit="10"/></g><g transform="translate(-350,-102) scale(1,1)"><path fill="none" stroke="#000000" d="M 536 435 L 685.6689453125 435" stroke-miterlimit="10"/></g><g transform="translate(-350,-102) scale(1,1)"><path fill="none" stroke="#000000" d="M 536 458 L 685.6689453125 458" stroke-miterlimit="10"/></g><g transform="translate(-350,-102) scale(1,1)"><g><path fill="none" stroke="none"/><text fill="#000000" stroke="none" font-family="Arial" font-size="13px" font-style="italic" font-weight="bold" text-decoration="none" x="579.0517578125" y="429.5">AbstractList</text></g></g><g transform="translate(-350,-102) scale(1,1)"><g><path fill="none" stroke="none"/><text fill="#000000" stroke="none" font-family="Arial" font-size="13px" font-style="normal" font-weight="normal" text-decoration="none" x="541" y="452.5">-size: int</text></g></g><g transform="translate(-350,-102) scale(1,1)"><rect fill="#ffffff" stroke="none" x="676.998046875" y="392" width="17.6708984375" height="22"/></g><g transform="translate(-350,-102) scale(1,1)"><path fill="none" stroke="#000000" d="M 676.998046875 392 L 694.6689453125 392 L 694.6689453125 414 L 676.998046875 414 L 676.998046875 392 Z Z" stroke-miterlimit="10" stroke-dasharray="3"/></g><g transform="translate(-350,-102) scale(1,1)"><g><path fill="none" stroke="none"/><text fill="#000000" stroke="none" font-family="Arial" font-size="13px" font-style="normal" font-weight="normal" text-decoration="none" x="681.998046875" y="409.5">E</text></g></g><g transform="translate(-350,-102) scale(1,1)"><rect fill="#C0C0C0" stroke="none" x="991" y="417" width="152.2080078125" height="85" opacity="0.2"/></g><g transform="translate(-350,-102) scale(1,1)"><rect fill="#C0C0C0" stroke="none" x="1134.537109375" y="399" width="17.6708984375" height="22" opacity="0.2"/></g><g transform="translate(-350,-102) scale(1,1)"><rect fill="#ffffff" stroke="none" x="984" y="410" width="152.2080078125" height="85"/></g><g transform="translate(-350,-102) scale(1,1)"><path fill="none" stroke="#000000" d="M 984 410 L 1136.2080078125 410 L 1136.2080078125 495 L 984 495 L 984 410 Z Z" stroke-miterlimit="10"/></g><g transform="translate(-350,-102) scale(1,1)"><path fill="none" stroke="#000000" d="M 984 435 L 1136.2080078125 435" stroke-miterlimit="10"/></g><g transform="translate(-350,-102) scale(1,1)"><path fill="none" stroke="#000000" d="M 984 458 L 1136.2080078125 458" stroke-miterlimit="10"/></g><g transform="translate(-350,-102) scale(1,1)"><g><path fill="none" stroke="none"/><text fill="#000000" stroke="none" font-family="Arial" font-size="13px" font-style="normal" font-weight="bold" text-decoration="none" x="1044.56494140625" y="429.5">Node</text></g></g><g transform="translate(-350,-102) scale(1,1)"><g><path fill="none" stroke="none"/><text fill="#000000" stroke="none" font-family="Arial" font-size="13px" font-style="normal" font-weight="normal" text-decoration="none" x="989" y="452.5">-value: E</text></g></g><g transform="translate(-350,-102) scale(1,1)"><g><path fill="none" stroke="none"/><text fill="#000000" stroke="none" font-family="Arial" font-size="13px" font-style="normal" font-weight="normal" text-decoration="none" x="989" y="475.5">+getNext(): Node&lt;E&gt;</text></g></g><g transform="translate(-350,-102) scale(1,1)"><g><path fill="none" stroke="none"/><text fill="#000000" stroke="none" font-family="Arial" font-size="13px" font-style="normal" font-weight="normal" text-decoration="none" x="989" y="490.5">+getValue(): E</text></g></g><g transform="translate(-350,-102) scale(1,1)"><rect fill="#ffffff" stroke="none" x="1127.537109375" y="392" width="17.6708984375" height="22"/></g><g transform="translate(-350,-102) scale(1,1)"><path fill="none" stroke="#000000" d="M 1127.537109375 392 L 1145.2080078125 392 L 1145.2080078125 414 L 1127.537109375 414 L 1127.537109375 392 Z Z" stroke-miterlimit="10" stroke-dasharray="3"/></g><g transform="translate(-350,-102) scale(1,1)"><g><path fill="none" stroke="none"/><text fill="#000000" stroke="none" font-family="Arial" font-size="13px" font-style="normal" font-weight="normal" text-decoration="none" x="1132.537109375" y="409.5">E</text></g></g><g transform="translate(-350,-102) scale(1,1)"><rect fill="#C0C0C0" stroke="none" x="991" y="577" width="152.2080078125" height="57" opacity="0.2"/></g><g transform="translate(-350,-102) scale(1,1)"><rect fill="#C0C0C0" stroke="none" x="1134.537109375" y="559" width="17.6708984375" height="22" opacity="0.2"/></g><g transform="translate(-350,-102) scale(1,1)"><rect fill="#ffffff" stroke="none" x="984" y="570" width="152.2080078125" height="57"/></g><g transform="translate(-350,-102) scale(1,1)"><path fill="none" stroke="#000000" d="M 984 570 L 1136.2080078125 570 L 1136.2080078125 627 L 984 627 L 984 570 Z Z" stroke-miterlimit="10"/></g><g transform="translate(-350,-102) scale(1,1)"><path fill="none" stroke="#000000" d="M 984 595 L 1136.2080078125 595" stroke-miterlimit="10"/></g><g transform="translate(-350,-102) scale(1,1)"><path fill="none" stroke="#000000" d="M 984 605 L 1136.2080078125 605" stroke-miterlimit="10"/></g><g transform="translate(-350,-102) scale(1,1)"><g><path fill="none" stroke="none"/><text fill="#000000" stroke="none" font-family="Arial" font-size="13px" font-style="normal" font-weight="bold" text-decoration="none" x="1012.042724609375" y="589.5">DoubleLinkNode</text></g></g><g transform="translate(-350,-102) scale(1,1)"><g><path fill="none" stroke="none"/><text fill="#000000" stroke="none" font-family="Arial" font-size="13px" font-style="normal" font-weight="normal" text-decoration="none" x="989" y="622.5">+getPrev(): Node&lt;E&gt;</text></g></g><g transform="translate(-350,-102) scale(1,1)"><rect fill="#ffffff" stroke="none" x="1127.537109375" y="552" width="17.6708984375" height="22"/></g><g transform="translate(-350,-102) scale(1,1)"><path fill="none" stroke="#000000" d="M 1127.537109375 552 L 1145.2080078125 552 L 1145.2080078125 574 L 1127.537109375 574 L 1127.537109375 552 Z Z" stroke-miterlimit="10" stroke-dasharray="3"/></g><g transform="translate(-350,-102) scale(1,1)"><g><path fill="none" stroke="none"/><text fill="#000000" stroke="none" font-family="Arial" font-size="13px" font-style="normal" font-weight="normal" text-decoration="none" x="1132.537109375" y="569.5">E</text></g></g><g transform="translate(-350,-102) scale(1,1)"><path fill="none" stroke="#000000" d="M 1065 392 L 1065 371 L 1176 371 L 1176 424 L 1146 424" stroke-miterlimit="10"/></g><g transform="translate(-350,-102) scale(1,1)"><path fill="none" stroke="#000000" d="M 1156.162674857624 419.790482243984 L 1146 424 L 1156.162674857624 428.209517756016" stroke-miterlimit="10"/></g><g transform="translate(-350,-102) scale(1,1)"><g><path fill="none" stroke="none"/><text fill="#000000" stroke="none" font-family="Arial" font-size="13px" font-style="normal" font-weight="normal" text-decoration="none" x="1156.13134765625" y="444.5">-next</text></g></g><g transform="translate(-350,-102) scale(1,1)"><path fill="none" stroke="#000000" d="M 1146 589 L 1200 589 L 1200 480 L 1146 480" stroke-miterlimit="10"/></g><g transform="translate(-350,-102) scale(1,1)"><path fill="none" stroke="#000000" d="M 1156.162674857624 475.790482243984 L 1146 480 L 1156.162674857624 484.209517756016" stroke-miterlimit="10"/></g><g transform="translate(-350,-102) scale(1,1)"><g><path fill="none" stroke="none"/><text fill="#000000" stroke="none" font-family="Arial" font-size="13px" font-style="normal" font-weight="normal" text-decoration="none" x="1156.13134765625" y="500.5">-prev</text></g></g><g transform="translate(-350,-102) scale(1,1)"><path fill="none" stroke="#000000" d="M 1065 551 L 1065 496" stroke-miterlimit="10"/></g><g transform="translate(-350,-102) scale(1,1)"><path fill="#FFFFFF" stroke="none" d="M 1073.419035512032 516.3253497152483 L 1065 496 L 1056.580964487968 516.3253497152483"/></g><g transform="translate(-350,-102) scale(1,1)"><path fill="none" stroke="#000000" d="M 1073.419035512032 516.3253497152483 L 1065 496 L 1056.580964487968 516.3253497152483 L 1073.419035512032 516.3253497152483" stroke-miterlimit="10"/></g><g transform="translate(-350,-102) scale(1,1)"><path fill="none" stroke="#000000" d="M 615 391 L 615 341" stroke-miterlimit="10" stroke-dasharray="3"/></g><g transform="translate(-350,-102) scale(1,1)"><path fill="#FFFFFF" stroke="none" d="M 623.419035512032 361.3253497152483 L 615 341 L 606.580964487968 361.3253497152483"/></g><g transform="translate(-350,-102) scale(1,1)"><path fill="none" stroke="#000000" d="M 623.419035512032 361.3253497152483 L 615 341 L 606.580964487968 361.3253497152483 L 623.419035512032 361.3253497152483" stroke-miterlimit="10"/></g><g transform="translate(-350,-102) scale(1,1)"><rect fill="#C0C0C0" stroke="none" x="367" y="569" width="149.6689453125" height="44" opacity="0.2"/></g><g transform="translate(-350,-102) scale(1,1)"><rect fill="#C0C0C0" stroke="none" x="507.998046875" y="551" width="17.6708984375" height="22" opacity="0.2"/></g><g transform="translate(-350,-102) scale(1,1)"><rect fill="#ffffff" stroke="none" x="360" y="562" width="149.6689453125" height="44"/></g><g transform="translate(-350,-102) scale(1,1)"><path fill="none" stroke="#000000" d="M 360 562 L 509.6689453125 562 L 509.6689453125 606 L 360 606 L 360 562 Z Z" stroke-miterlimit="10"/></g><g transform="translate(-350,-102) scale(1,1)"><path fill="none" stroke="#000000" d="M 360 587 L 509.6689453125 587" stroke-miterlimit="10"/></g><g transform="translate(-350,-102) scale(1,1)"><path fill="none" stroke="#000000" d="M 360 597 L 509.6689453125 597" stroke-miterlimit="10"/></g><g transform="translate(-350,-102) scale(1,1)"><g><path fill="none" stroke="none"/><text fill="#000000" stroke="none" font-family="Arial" font-size="13px" font-style="normal" font-weight="bold" text-decoration="none" x="387.86181640625" y="581.5">SinglyLinkedList</text></g></g><g transform="translate(-350,-102) scale(1,1)"><rect fill="#ffffff" stroke="none" x="500.998046875" y="544" width="17.6708984375" height="22"/></g><g transform="translate(-350,-102) scale(1,1)"><path fill="none" stroke="#000000" d="M 500.998046875 544 L 518.6689453125 544 L 518.6689453125 566 L 500.998046875 566 L 500.998046875 544 Z Z" stroke-miterlimit="10" stroke-dasharray="3"/></g><g transform="translate(-350,-102) scale(1,1)"><g><path fill="none" stroke="none"/><text fill="#000000" stroke="none" font-family="Arial" font-size="13px" font-style="normal" font-weight="normal" text-decoration="none" x="505.998046875" y="561.5">E</text></g></g><g transform="translate(-350,-102) scale(1,1)"><rect fill="#C0C0C0" stroke="none" x="543" y="569" width="149.6689453125" height="44" opacity="0.2"/></g><g transform="translate(-350,-102) scale(1,1)"><rect fill="#C0C0C0" stroke="none" x="683.998046875" y="551" width="17.6708984375" height="22" opacity="0.2"/></g><g transform="translate(-350,-102) scale(1,1)"><rect fill="#ffffff" stroke="none" x="536" y="562" width="149.6689453125" height="44"/></g><g transform="translate(-350,-102) scale(1,1)"><path fill="none" stroke="#000000" d="M 536 562 L 685.6689453125 562 L 685.6689453125 606 L 536 606 L 536 562 Z Z" stroke-miterlimit="10"/></g><g transform="translate(-350,-102) scale(1,1)"><path fill="none" stroke="#000000" d="M 536 587 L 685.6689453125 587" stroke-miterlimit="10"/></g><g transform="translate(-350,-102) scale(1,1)"><path fill="none" stroke="#000000" d="M 536 597 L 685.6689453125 597" stroke-miterlimit="10"/></g><g transform="translate(-350,-102) scale(1,1)"><g><path fill="none" stroke="none"/><text fill="#000000" stroke="none" font-family="Arial" font-size="13px" font-style="normal" font-weight="bold" text-decoration="none" x="561.332275390625" y="581.5">DoublyLinkedList</text></g></g><g transform="translate(-350,-102) scale(1,1)"><rect fill="#ffffff" stroke="none" x="676.998046875" y="544" width="17.6708984375" height="22"/></g><g transform="translate(-350,-102) scale(1,1)"><path fill="none" stroke="#000000" d="M 676.998046875 544 L 694.6689453125 544 L 694.6689453125 566 L 676.998046875 566 L 676.998046875 544 Z Z" stroke-miterlimit="10" stroke-dasharray="3"/></g><g transform="translate(-350,-102) scale(1,1)"><g><path fill="none" stroke="none"/><text fill="#000000" stroke="none" font-family="Arial" font-size="13px" font-style="normal" font-weight="normal" text-decoration="none" x="681.998046875" y="561.5">E</text></g></g><g transform="translate(-350,-102) scale(1,1)"><rect fill="#C0C0C0" stroke="none" x="367" y="689" width="153.97900390625" height="44" opacity="0.2"/></g><g transform="translate(-350,-102) scale(1,1)"><rect fill="#C0C0C0" stroke="none" x="512.30810546875" y="671" width="17.6708984375" height="22" opacity="0.2"/></g><g transform="translate(-350,-102) scale(1,1)"><rect fill="#ffffff" stroke="none" x="360" y="682" width="153.97900390625" height="44"/></g><g transform="translate(-350,-102) scale(1,1)"><path fill="none" stroke="#000000" d="M 360 682 L 513.97900390625 682 L 513.97900390625 726 L 360 726 L 360 682 Z Z" stroke-miterlimit="10"/></g><g transform="translate(-350,-102) scale(1,1)"><path fill="none" stroke="#000000" d="M 360 707 L 513.97900390625 707" stroke-miterlimit="10"/></g><g transform="translate(-350,-102) scale(1,1)"><path fill="none" stroke="#000000" d="M 360 717 L 513.97900390625 717" stroke-miterlimit="10"/></g><g transform="translate(-350,-102) scale(1,1)"><g><path fill="none" stroke="none"/><text fill="#000000" stroke="none" font-family="Arial" font-size="13px" font-style="normal" font-weight="bold" text-decoration="none" x="380.635009765625" y="701.5">CicurlarlyLinkedList</text></g></g><g transform="translate(-350,-102) scale(1,1)"><rect fill="#ffffff" stroke="none" x="505.30810546875" y="664" width="17.6708984375" height="22"/></g><g transform="translate(-350,-102) scale(1,1)"><path fill="none" stroke="#000000" d="M 505.30810546875 664 L 522.97900390625 664 L 522.97900390625 686 L 505.30810546875 686 L 505.30810546875 664 Z Z" stroke-miterlimit="10" stroke-dasharray="3"/></g><g transform="translate(-350,-102) scale(1,1)"><g><path fill="none" stroke="none"/><text fill="#000000" stroke="none" font-family="Arial" font-size="13px" font-style="normal" font-weight="normal" text-decoration="none" x="510.30810546875" y="681.5">E</text></g></g><g transform="translate(-350,-102) scale(1,1)"><rect fill="#C0C0C0" stroke="none" x="719" y="569" width="149.6689453125" height="44" opacity="0.2"/></g><g transform="translate(-350,-102) scale(1,1)"><rect fill="#C0C0C0" stroke="none" x="859.998046875" y="551" width="17.6708984375" height="22" opacity="0.2"/></g><g transform="translate(-350,-102) scale(1,1)"><rect fill="#ffffff" stroke="none" x="712" y="562" width="149.6689453125" height="44"/></g><g transform="translate(-350,-102) scale(1,1)"><path fill="none" stroke="#000000" d="M 712 562 L 861.6689453125 562 L 861.6689453125 606 L 712 606 L 712 562 Z Z" stroke-miterlimit="10"/></g><g transform="translate(-350,-102) scale(1,1)"><path fill="none" stroke="#000000" d="M 712 587 L 861.6689453125 587" stroke-miterlimit="10"/></g><g transform="translate(-350,-102) scale(1,1)"><path fill="none" stroke="#000000" d="M 712 597 L 861.6689453125 597" stroke-miterlimit="10"/></g><g transform="translate(-350,-102) scale(1,1)"><g><path fill="none" stroke="none"/><text fill="#000000" stroke="none" font-family="Arial" font-size="13px" font-style="normal" font-weight="bold" text-decoration="none" x="761.18994140625" y="581.5">ArrayList</text></g></g><g transform="translate(-350,-102) scale(1,1)"><rect fill="#ffffff" stroke="none" x="852.998046875" y="544" width="17.6708984375" height="22"/></g><g transform="translate(-350,-102) scale(1,1)"><path fill="none" stroke="#000000" d="M 852.998046875 544 L 870.6689453125 544 L 870.6689453125 566 L 852.998046875 566 L 852.998046875 544 Z Z" stroke-miterlimit="10" stroke-dasharray="3"/></g><g transform="translate(-350,-102) scale(1,1)"><g><path fill="none" stroke="none"/><text fill="#000000" stroke="none" font-family="Arial" font-size="13px" font-style="normal" font-weight="normal" text-decoration="none" x="857.998046875" y="561.5">E</text></g></g><g transform="translate(-350,-102) scale(1,1)"><path fill="none" stroke="#000000" d="M 478 543 L 568 468" stroke-miterlimit="10"/></g><g transform="translate(-350,-102) scale(1,1)"><path fill="#FFFFFF" stroke="none" d="M 557.7753690285119 487.4796540394558 L 568 468 L 546.9958986384637 474.5442895713979"/></g><g transform="translate(-350,-102) scale(1,1)"><path fill="none" stroke="#000000" d="M 557.7753690285119 487.4796540394558 L 568 468 L 546.9958986384637 474.5442895713979 L 557.7753690285119 487.4796540394558" stroke-miterlimit="10"/></g><g transform="translate(-350,-102) scale(1,1)"><path fill="none" stroke="#000000" d="M 615 543 L 615 468" stroke-miterlimit="10"/></g><g transform="translate(-350,-102) scale(1,1)"><path fill="#FFFFFF" stroke="none" d="M 623.419035512032 488.3253497152483 L 615 468 L 606.580964487968 488.3253497152483"/></g><g transform="translate(-350,-102) scale(1,1)"><path fill="none" stroke="#000000" d="M 623.419035512032 488.3253497152483 L 615 468 L 606.580964487968 488.3253497152483 L 623.419035512032 488.3253497152483" stroke-miterlimit="10"/></g><g transform="translate(-350,-102) scale(1,1)"><path fill="none" stroke="#000000" d="M 752 543 L 662 468" stroke-miterlimit="10"/></g><g transform="translate(-350,-102) scale(1,1)"><path fill="#FFFFFF" stroke="none" d="M 683.0041013615363 474.5442895713979 L 662 468 L 672.2246309714881 487.4796540394558"/></g><g transform="translate(-350,-102) scale(1,1)"><path fill="none" stroke="#000000" d="M 683.0041013615363 474.5442895713979 L 662 468 L 672.2246309714881 487.4796540394558 L 683.0041013615363 474.5442895713979" stroke-miterlimit="10"/></g><g transform="translate(-350,-102) scale(1,1)"><path fill="none" stroke="#000000" d="M 696 416 L 984 416" stroke-miterlimit="10"/></g><g transform="translate(-350,-102) scale(1,1)"><path fill="none" stroke="#000000" d="M 973.8373251423759 420.209517756016 L 984 416 L 973.8373251423758 411.790482243984" stroke-miterlimit="10"/></g><g transform="translate(-350,-102) scale(1,1)"><g><path fill="none" stroke="none"/><text fill="#000000" stroke="none" font-family="Arial" font-size="13px" font-style="normal" font-weight="normal" text-decoration="none" x="941.13134765625" y="407.5">-head</text></g></g><g transform="translate(-350,-102) scale(1,1)"><path fill="none" stroke="#000000" d="M 696 448 L 984 448" stroke-miterlimit="10"/></g><g transform="translate(-350,-102) scale(1,1)"><path fill="none" stroke="#000000" d="M 973.8373251423759 452.209517756016 L 984 448 L 973.8373251423758 443.790482243984" stroke-miterlimit="10"/></g><g transform="translate(-350,-102) scale(1,1)"><g><path fill="none" stroke="none"/><text fill="#000000" stroke="none" font-family="Arial" font-size="13px" font-style="normal" font-weight="normal" text-decoration="none" x="947.13134765625" y="439.5">-tail</text></g></g><g transform="translate(-350,-102) scale(1,1)"><path fill="none" stroke="#000000" d="M 440 663 L 440 607" stroke-miterlimit="10"/></g><g transform="translate(-350,-102) scale(1,1)"><path fill="#FFFFFF" stroke="none" d="M 448.419035512032 627.3253497152483 L 440 607 L 431.580964487968 627.3253497152483"/></g><g transform="translate(-350,-102) scale(1,1)"><path fill="none" stroke="#000000" d="M 448.419035512032 627.3253497152483 L 440 607 L 431.580964487968 627.3253497152483 L 448.419035512032 627.3253497152483" stroke-miterlimit="10"/></g><g transform="translate(-350,-102) scale(1,1)"><rect fill="#C0C0C0" stroke="none" x="991" y="721" width="149.6689453125" height="44" opacity="0.2"/></g><g transform="translate(-350,-102) scale(1,1)"><rect fill="#C0C0C0" stroke="none" x="1131.998046875" y="703" width="17.6708984375" height="22" opacity="0.2"/></g><g transform="translate(-350,-102) scale(1,1)"><rect fill="#ffffff" stroke="none" x="984" y="714" width="149.6689453125" height="44"/></g><g transform="translate(-350,-102) scale(1,1)"><path fill="none" stroke="#000000" d="M 984 714 L 1133.6689453125 714 L 1133.6689453125 758 L 984 758 L 984 714 Z Z" stroke-miterlimit="10"/></g><g transform="translate(-350,-102) scale(1,1)"><path fill="none" stroke="#000000" d="M 984 739 L 1133.6689453125 739" stroke-miterlimit="10"/></g><g transform="translate(-350,-102) scale(1,1)"><path fill="none" stroke="#000000" d="M 984 749 L 1133.6689453125 749" stroke-miterlimit="10"/></g><g transform="translate(-350,-102) scale(1,1)"><g><path fill="none" stroke="none"/><text fill="#000000" stroke="none" font-family="Arial" font-size="13px" font-style="normal" font-weight="bold" text-decoration="none" x="1019.805908203125" y="733.5">SentinelNode</text></g></g><g transform="translate(-350,-102) scale(1,1)"><rect fill="#ffffff" stroke="none" x="1124.998046875" y="696" width="17.6708984375" height="22"/></g><g transform="translate(-350,-102) scale(1,1)"><path fill="none" stroke="#000000" d="M 1124.998046875 696 L 1142.6689453125 696 L 1142.6689453125 718 L 1124.998046875 718 L 1124.998046875 696 Z Z" stroke-miterlimit="10" stroke-dasharray="3"/></g><g transform="translate(-350,-102) scale(1,1)"><g><path fill="none" stroke="none"/><text fill="#000000" stroke="none" font-family="Arial" font-size="13px" font-style="normal" font-weight="normal" text-decoration="none" x="1129.998046875" y="713.5">E</text></g></g><g transform="translate(-350,-102) scale(1,1)"><path fill="none" stroke="#000000" d="M 1063 695 L 1064 628" stroke-miterlimit="10"/></g><g transform="translate(-350,-102) scale(1,1)"><path fill="#FFFFFF" stroke="none" d="M 1072.1147682834453 648.4487294398941 L 1064 628 L 1055.2785724273836 648.1974429345797"/></g><g transform="translate(-350,-102) scale(1,1)"><path fill="none" stroke="#000000" d="M 1072.1147682834453 648.4487294398941 L 1064 628 L 1055.2785724273836 648.1974429345797 L 1072.1147682834453 648.4487294398941" stroke-miterlimit="10"/></g></g></svg>