<svg version="1.1" xmlns="http://www.w3.org/2000/svg" xmlns:xlink="http://www.w3.org/1999/xlink" width="561.74267578125" height="336"><defs/><g><g transform="translate(-62,-78) scale(1,1)"><rect fill="#C0C0C0" stroke="none" x="182" y="95" width="73.32080078125" height="48" opacity="0.2"/></g><g transform="translate(-62,-78) scale(1,1)"><rect fill="#ffffff" stroke="none" x="175" y="88" width="73.32080078125" height="48"/></g><g transform="translate(-62,-78) scale(1,1)"><path fill="none" stroke="#000000" d="M 175 88 L 248.32080078125 88 L 248.32080078125 136 L 175 136 L 175 88 Z Z" stroke-miterlimit="10"/></g><g transform="translate(-62,-78) scale(1,1)"><g><path fill="none" stroke="none"/><text fill="#000000" stroke="none" font-family="Arial" font-size="13px" font-style="normal" font-weight="normal" text-decoration="none" x="179.5" y="105.5">«interface»</text></g></g><g transform="translate(-62,-78) scale(1,1)"><g><path fill="none" stroke="none"/><text fill="#000000" stroke="none" font-family="Arial" font-size="13px" font-style="normal" font-weight="bold" text-decoration="none" x="199.015869140625" y="120.5">Map</text></g></g><g transform="translate(-62,-78) scale(1,1)"><rect fill="#C0C0C0" stroke="none" x="488" y="95" width="76.1708984375" height="48" opacity="0.2"/></g><g transform="translate(-62,-78) scale(1,1)"><rect fill="#ffffff" stroke="none" x="481" y="88" width="76.1708984375" height="48"/></g><g transform="translate(-62,-78) scale(1,1)"><path fill="none" stroke="#000000" d="M 481 88 L 557.1708984375 88 L 557.1708984375 136 L 481 136 L 481 88 Z Z" stroke-miterlimit="10"/></g><g transform="translate(-62,-78) scale(1,1)"><g><path fill="none" stroke="none"/><text fill="#000000" stroke="none" font-family="Arial" font-size="13px" font-style="normal" font-weight="normal" text-decoration="none" x="486.925048828125" y="105.5">«interface»</text></g></g><g transform="translate(-62,-78) scale(1,1)"><g><path fill="none" stroke="none"/><text fill="#000000" stroke="none" font-family="Arial" font-size="13px" font-style="normal" font-weight="bold" text-decoration="none" x="487.2900390625" y="120.5">SortedMap</text></g></g><g transform="translate(-62,-78) scale(1,1)"><rect fill="#C0C0C0" stroke="none" x="175" y="183" width="87.736328125" height="44" opacity="0.2"/></g><g transform="translate(-62,-78) scale(1,1)"><rect fill="#ffffff" stroke="none" x="168" y="176" width="87.736328125" height="44"/></g><g transform="translate(-62,-78) scale(1,1)"><path fill="none" stroke="#000000" d="M 168 176 L 255.736328125 176 L 255.736328125 220 L 168 220 L 168 176 Z Z" stroke-miterlimit="10"/></g><g transform="translate(-62,-78) scale(1,1)"><g><path fill="none" stroke="none"/><text fill="#000000" stroke="none" font-family="Arial" font-size="13px" font-style="normal" font-weight="bold" text-decoration="none" x="175.3818359375" y="195.5">AbstractMap</text></g></g><g transform="translate(-62,-78) scale(1,1)"><rect fill="#C0C0C0" stroke="none" x="79" y="271" width="125.0478515625" height="44" opacity="0.2"/></g><g transform="translate(-62,-78) scale(1,1)"><rect fill="#ffffff" stroke="none" x="72" y="264" width="125.0478515625" height="44"/></g><g transform="translate(-62,-78) scale(1,1)"><path fill="none" stroke="#000000" d="M 72 264 L 197.0478515625 264 L 197.0478515625 308 L 72 308 L 72 264 Z Z" stroke-miterlimit="10"/></g><g transform="translate(-62,-78) scale(1,1)"><g><path fill="none" stroke="none"/><text fill="#000000" stroke="none" font-family="Arial" font-size="13px" font-style="normal" font-weight="bold" text-decoration="none" x="79.9658203125" y="283.5">UnsortedTableMap</text></g></g><g transform="translate(-62,-78) scale(1,1)"><rect fill="#C0C0C0" stroke="none" x="239" y="271" width="119.525390625" height="44" opacity="0.2"/></g><g transform="translate(-62,-78) scale(1,1)"><rect fill="#ffffff" stroke="none" x="232" y="264" width="119.525390625" height="44"/></g><g transform="translate(-62,-78) scale(1,1)"><path fill="none" stroke="#000000" d="M 232 264 L 351.525390625 264 L 351.525390625 308 L 232 308 L 232 264 Z Z" stroke-miterlimit="10"/></g><g transform="translate(-62,-78) scale(1,1)"><g><path fill="none" stroke="none"/><text fill="#000000" stroke="none" font-family="Arial" font-size="13px" font-style="normal" font-weight="bold" text-decoration="none" x="240.102294921875" y="283.5">AbstractHashMap</text></g></g><g transform="translate(-62,-78) scale(1,1)"><rect fill="#C0C0C0" stroke="none" x="175" y="367" width="102.90087890625" height="44" opacity="0.2"/></g><g transform="translate(-62,-78) scale(1,1)"><rect fill="#ffffff" stroke="none" x="168" y="360" width="102.90087890625" height="44"/></g><g transform="translate(-62,-78) scale(1,1)"><path fill="none" stroke="#000000" d="M 168 360 L 270.90087890625 360 L 270.90087890625 404 L 168 404 L 168 360 Z Z" stroke-miterlimit="10"/></g><g transform="translate(-62,-78) scale(1,1)"><g><path fill="none" stroke="none"/><text fill="#000000" stroke="none" font-family="Arial" font-size="13px" font-style="normal" font-weight="bold" text-decoration="none" x="174.648681640625" y="379.5">ChainHashMap</text></g></g><g transform="translate(-62,-78) scale(1,1)"><rect fill="#C0C0C0" stroke="none" x="319" y="367" width="96.40087890625" height="44" opacity="0.2"/></g><g transform="translate(-62,-78) scale(1,1)"><rect fill="#ffffff" stroke="none" x="312" y="360" width="96.40087890625" height="44"/></g><g transform="translate(-62,-78) scale(1,1)"><path fill="none" stroke="#000000" d="M 312 360 L 408.40087890625 360 L 408.40087890625 404 L 312 404 L 312 360 Z Z" stroke-miterlimit="10"/></g><g transform="translate(-62,-78) scale(1,1)"><g><path fill="none" stroke="none"/><text fill="#000000" stroke="none" font-family="Arial" font-size="13px" font-style="normal" font-weight="bold" text-decoration="none" x="318.65185546875" y="379.5">ProbHashMap</text></g></g><g transform="translate(-62,-78) scale(1,1)"><rect fill="#C0C0C0" stroke="none" x="462" y="183" width="128.9072265625" height="44" opacity="0.2"/></g><g transform="translate(-62,-78) scale(1,1)"><rect fill="#ffffff" stroke="none" x="455" y="176" width="128.9072265625" height="44"/></g><g transform="translate(-62,-78) scale(1,1)"><path fill="none" stroke="#000000" d="M 455 176 L 583.9072265625 176 L 583.9072265625 220 L 455 220 L 455 176 Z Z" stroke-miterlimit="10"/></g><g transform="translate(-62,-78) scale(1,1)"><g><path fill="none" stroke="none"/><text fill="#000000" stroke="none" font-family="Arial" font-size="13px" font-style="normal" font-weight="bold" text-decoration="none" x="463.81640625" y="195.5">AbstractSortedMap</text></g></g><g transform="translate(-62,-78) scale(1,1)"><rect fill="#C0C0C0" stroke="none" x="399" y="271" width="109.15966796875" height="44" opacity="0.2"/></g><g transform="translate(-62,-78) scale(1,1)"><rect fill="#ffffff" stroke="none" x="392" y="264" width="109.15966796875" height="44"/></g><g transform="translate(-62,-78) scale(1,1)"><path fill="none" stroke="#000000" d="M 392 264 L 501.15966796875 264 L 501.15966796875 308 L 392 308 L 392 264 Z Z" stroke-miterlimit="10"/></g><g transform="translate(-62,-78) scale(1,1)"><g><path fill="none" stroke="none"/><text fill="#000000" stroke="none" font-family="Arial" font-size="13px" font-style="normal" font-weight="bold" text-decoration="none" x="399.245361328125" y="283.5">SortedTableMap</text></g></g><g transform="translate(-62,-78) scale(1,1)"><rect fill="#C0C0C0" stroke="none" x="559" y="271" width="61.74267578125" height="44" opacity="0.2"/></g><g transform="translate(-62,-78) scale(1,1)"><rect fill="#ffffff" stroke="none" x="552" y="264" width="61.74267578125" height="44"/></g><g transform="translate(-62,-78) scale(1,1)"><path fill="none" stroke="#000000" d="M 552 264 L 613.74267578125 264 L 613.74267578125 308 L 552 308 L 552 264 Z Z" stroke-miterlimit="10"/></g><g transform="translate(-62,-78) scale(1,1)"><g><path fill="none" stroke="none"/><text fill="#000000" stroke="none" font-family="Arial" font-size="13px" font-style="normal" font-weight="bold" text-decoration="none" x="557.10302734375" y="283.5">TreeMap</text></g></g><g transform="translate(-62,-78) scale(1,1)"><path fill="none" stroke="#000000" d="M 211 175 L 211 137" stroke-miterlimit="10" stroke-dasharray="3"/></g><g transform="translate(-62,-78) scale(1,1)"><path fill="#FFFFFF" stroke="none" d="M 219.41903551203197 157.3253497152483 L 211 137 L 202.58096448796803 157.3253497152483"/></g><g transform="translate(-62,-78) scale(1,1)"><path fill="none" stroke="#000000" d="M 219.41903551203197 157.3253497152483 L 211 137 L 202.58096448796803 157.3253497152483 L 219.41903551203197 157.3253497152483" stroke-miterlimit="10"/></g><g transform="translate(-62,-78) scale(1,1)"><path fill="none" stroke="#000000" d="M 519 175 L 519 137" stroke-miterlimit="10" stroke-dasharray="3"/></g><g transform="translate(-62,-78) scale(1,1)"><path fill="#FFFFFF" stroke="none" d="M 527.419035512032 157.3253497152483 L 519 137 L 510.580964487968 157.3253497152483"/></g><g transform="translate(-62,-78) scale(1,1)"><path fill="none" stroke="#000000" d="M 527.419035512032 157.3253497152483 L 519 137 L 510.580964487968 157.3253497152483 L 527.419035512032 157.3253497152483" stroke-miterlimit="10"/></g><g transform="translate(-62,-78) scale(1,1)"><path fill="none" stroke="#000000" d="M 136 264 L 136 248 L 208 248 L 208 220" stroke-miterlimit="10"/></g><g transform="translate(-62,-78) scale(1,1)"><path fill="#FFFFFF" stroke="none" d="M 216.41903551203197 240.3253497152483 L 208 220 L 199.58096448796803 240.3253497152483"/></g><g transform="translate(-62,-78) scale(1,1)"><path fill="none" stroke="#000000" d="M 216.41903551203197 240.3253497152483 L 208 220 L 199.58096448796803 240.3253497152483 L 216.41903551203197 240.3253497152483" stroke-miterlimit="10"/></g><g transform="translate(-62,-78) scale(1,1)"><path fill="none" stroke="#000000" d="M 291 264 L 291 248 L 208 248 L 208 220" stroke-miterlimit="10"/></g><g transform="translate(-62,-78) scale(1,1)"><path fill="#FFFFFF" stroke="none" d="M 216.41903551203197 240.3253497152483 L 208 220 L 199.58096448796803 240.3253497152483"/></g><g transform="translate(-62,-78) scale(1,1)"><path fill="none" stroke="#000000" d="M 216.41903551203197 240.3253497152483 L 208 220 L 199.58096448796803 240.3253497152483 L 216.41903551203197 240.3253497152483" stroke-miterlimit="10"/></g><g transform="translate(-62,-78) scale(1,1)"><path fill="none" stroke="#000000" d="M 455 192 L 256 192" stroke-miterlimit="10"/></g><g transform="translate(-62,-78) scale(1,1)"><path fill="#FFFFFF" stroke="none" d="M 276.3253497152483 183.58096448796803 L 256 192 L 276.3253497152483 200.41903551203197"/></g><g transform="translate(-62,-78) scale(1,1)"><path fill="none" stroke="#000000" d="M 276.3253497152483 183.58096448796803 L 256 192 L 276.3253497152483 200.41903551203197 L 276.3253497152483 183.58096448796803" stroke-miterlimit="10"/></g><g transform="translate(-62,-78) scale(1,1)"><path fill="none" stroke="#000000" d="M 446 264 L 446 250 L 519 250 L 519 220" stroke-miterlimit="10"/></g><g transform="translate(-62,-78) scale(1,1)"><path fill="#FFFFFF" stroke="none" d="M 527.419035512032 240.3253497152483 L 519 220 L 510.580964487968 240.3253497152483"/></g><g transform="translate(-62,-78) scale(1,1)"><path fill="none" stroke="#000000" d="M 527.419035512032 240.3253497152483 L 519 220 L 510.580964487968 240.3253497152483 L 527.419035512032 240.3253497152483" stroke-miterlimit="10"/></g><g transform="translate(-62,-78) scale(1,1)"><path fill="none" stroke="#000000" d="M 582 264 L 582 250 L 519 250 L 519 220" stroke-miterlimit="10"/></g><g transform="translate(-62,-78) scale(1,1)"><path fill="#FFFFFF" stroke="none" d="M 527.419035512032 240.3253497152483 L 519 220 L 510.580964487968 240.3253497152483"/></g><g transform="translate(-62,-78) scale(1,1)"><path fill="none" stroke="#000000" d="M 527.419035512032 240.3253497152483 L 519 220 L 510.580964487968 240.3253497152483 L 527.419035512032 240.3253497152483" stroke-miterlimit="10"/></g><g transform="translate(-62,-78) scale(1,1)"><path fill="none" stroke="#000000" d="M 219 360 L 219 342 L 292 342 L 292 308" stroke-miterlimit="10"/></g><g transform="translate(-62,-78) scale(1,1)"><path fill="#FFFFFF" stroke="none" d="M 300.419035512032 328.3253497152483 L 292 308 L 283.580964487968 328.3253497152483"/></g><g transform="translate(-62,-78) scale(1,1)"><path fill="none" stroke="#000000" d="M 300.419035512032 328.3253497152483 L 292 308 L 283.580964487968 328.3253497152483 L 300.419035512032 328.3253497152483" stroke-miterlimit="10"/></g><g transform="translate(-62,-78) scale(1,1)"><path fill="none" stroke="#000000" d="M 360 360 L 360 342 L 292 342 L 292 308" stroke-miterlimit="10"/></g><g transform="translate(-62,-78) scale(1,1)"><path fill="#FFFFFF" stroke="none" d="M 300.419035512032 328.3253497152483 L 292 308 L 283.580964487968 328.3253497152483"/></g><g transform="translate(-62,-78) scale(1,1)"><path fill="none" stroke="#000000" d="M 300.419035512032 328.3253497152483 L 292 308 L 283.580964487968 328.3253497152483 L 300.419035512032 328.3253497152483" stroke-miterlimit="10"/></g></g></svg>