<svg version="1.1" xmlns="http://www.w3.org/2000/svg" xmlns:xlink="http://www.w3.org/1999/xlink" width="446.525390625" height="197"><defs/><g><g transform="translate(-238,-102) scale(1,1)"><rect fill="#C0C0C0" stroke="none" x="255" y="119" width="89.57080078125" height="57" opacity="0.2"/></g><g transform="translate(-238,-102) scale(1,1)"><rect fill="#ffffff" stroke="none" x="248" y="112" width="89.57080078125" height="57"/></g><g transform="translate(-238,-102) scale(1,1)"><path fill="none" stroke="#000000" d="M 248 112 L 337.57080078125 112 L 337.57080078125 169 L 248 169 L 248 112 Z Z" stroke-miterlimit="10"/></g><g transform="translate(-238,-102) scale(1,1)"><path fill="none" stroke="#000000" d="M 248 137 L 337.57080078125 137" stroke-miterlimit="10"/></g><g transform="translate(-238,-102) scale(1,1)"><path fill="none" stroke="#000000" d="M 248 147 L 337.57080078125 147" stroke-miterlimit="10"/></g><g transform="translate(-238,-102) scale(1,1)"><g><path fill="none" stroke="none"/><text fill="#000000" stroke="none" font-family="Arial" font-size="13px" font-style="normal" font-weight="bold" text-decoration="none" x="270.384521484375" y="131.5">Context</text></g></g><g transform="translate(-238,-102) scale(1,1)"><g><path fill="none" stroke="none"/><text fill="#000000" stroke="none" font-family="Arial" font-size="13px" font-style="normal" font-weight="normal" text-decoration="none" x="253" y="164.5">+op1()</text></g></g><g transform="translate(-238,-102) scale(1,1)"><rect fill="#C0C0C0" stroke="none" x="503" y="119" width="89.57080078125" height="57" opacity="0.2"/></g><g transform="translate(-238,-102) scale(1,1)"><rect fill="#ffffff" stroke="none" x="496" y="112" width="89.57080078125" height="57"/></g><g transform="translate(-238,-102) scale(1,1)"><path fill="none" stroke="#000000" d="M 496 112 L 585.57080078125 112 L 585.57080078125 169 L 496 169 L 496 112 Z Z" stroke-miterlimit="10"/></g><g transform="translate(-238,-102) scale(1,1)"><path fill="none" stroke="#000000" d="M 496 137 L 585.57080078125 137" stroke-miterlimit="10"/></g><g transform="translate(-238,-102) scale(1,1)"><path fill="none" stroke="#000000" d="M 496 147 L 585.57080078125 147" stroke-miterlimit="10"/></g><g transform="translate(-238,-102) scale(1,1)"><g><path fill="none" stroke="none"/><text fill="#000000" stroke="none" font-family="Arial" font-size="13px" font-style="normal" font-weight="bold" text-decoration="none" x="525.608154296875" y="131.5">State</text></g></g><g transform="translate(-238,-102) scale(1,1)"><g><path fill="none" stroke="none"/><text fill="#000000" stroke="none" font-family="Arial" font-size="13px" font-style="italic" font-weight="normal" text-decoration="none" x="501" y="164.5">+op1()</text></g></g><g transform="translate(-238,-102) scale(1,1)"><path fill="none" stroke="#000000" d="M 339 140 L 495 140" stroke-miterlimit="10"/></g><g transform="translate(-238,-102) scale(1,1)"><path fill="none" stroke="#000000" d="M 484.83732514237585 144.209517756016 L 495 140 L 484.83732514237585 135.790482243984" stroke-miterlimit="10"/></g><g transform="translate(-238,-102) scale(1,1)"><g><path fill="none" stroke="none"/><text fill="#000000" stroke="none" font-family="Arial" font-size="13px" font-style="normal" font-weight="normal" text-decoration="none" x="453.13134765625" y="131.5">-state</text></g></g><g transform="translate(-238,-102) scale(1,1)"><rect fill="#C0C0C0" stroke="none" x="415" y="239" width="106.525390625" height="57" opacity="0.2"/></g><g transform="translate(-238,-102) scale(1,1)"><rect fill="#ffffff" stroke="none" x="408" y="232" width="106.525390625" height="57"/></g><g transform="translate(-238,-102) scale(1,1)"><path fill="none" stroke="#000000" d="M 408 232 L 514.525390625 232 L 514.525390625 289 L 408 289 L 408 232 Z Z" stroke-miterlimit="10"/></g><g transform="translate(-238,-102) scale(1,1)"><path fill="none" stroke="#000000" d="M 408 257 L 514.525390625 257" stroke-miterlimit="10"/></g><g transform="translate(-238,-102) scale(1,1)"><path fill="none" stroke="#000000" d="M 408 267 L 514.525390625 267" stroke-miterlimit="10"/></g><g transform="translate(-238,-102) scale(1,1)"><g><path fill="none" stroke="none"/><text fill="#000000" stroke="none" font-family="Arial" font-size="13px" font-style="normal" font-weight="bold" text-decoration="none" x="415.37548828125" y="251.5">ConcreteStateA</text></g></g><g transform="translate(-238,-102) scale(1,1)"><g><path fill="none" stroke="none"/><text fill="#000000" stroke="none" font-family="Arial" font-size="13px" font-style="normal" font-weight="normal" text-decoration="none" x="413" y="284.5">+op1()</text></g></g><g transform="translate(-238,-102) scale(1,1)"><rect fill="#C0C0C0" stroke="none" x="575" y="239" width="106.525390625" height="57" opacity="0.2"/></g><g transform="translate(-238,-102) scale(1,1)"><rect fill="#ffffff" stroke="none" x="568" y="232" width="106.525390625" height="57"/></g><g transform="translate(-238,-102) scale(1,1)"><path fill="none" stroke="#000000" d="M 568 232 L 674.525390625 232 L 674.525390625 289 L 568 289 L 568 232 Z Z" stroke-miterlimit="10"/></g><g transform="translate(-238,-102) scale(1,1)"><path fill="none" stroke="#000000" d="M 568 257 L 674.525390625 257" stroke-miterlimit="10"/></g><g transform="translate(-238,-102) scale(1,1)"><path fill="none" stroke="#000000" d="M 568 267 L 674.525390625 267" stroke-miterlimit="10"/></g><g transform="translate(-238,-102) scale(1,1)"><g><path fill="none" stroke="none"/><text fill="#000000" stroke="none" font-family="Arial" font-size="13px" font-style="normal" font-weight="bold" text-decoration="none" x="575.37548828125" y="251.5">ConcreteStateB</text></g></g><g transform="translate(-238,-102) scale(1,1)"><g><path fill="none" stroke="none"/><text fill="#000000" stroke="none" font-family="Arial" font-size="13px" font-style="normal" font-weight="normal" text-decoration="none" x="573" y="284.5">+op1()</text></g></g><g transform="translate(-238,-102) scale(1,1)"><path fill="none" stroke="#000000" d="M 461 232 L 461 208 L 541 208 L 541 169" stroke-miterlimit="10"/></g><g transform="translate(-238,-102) scale(1,1)"><path fill="#FFFFFF" stroke="none" d="M 549.419035512032 189.3253497152483 L 541 169 L 532.580964487968 189.3253497152483"/></g><g transform="translate(-238,-102) scale(1,1)"><path fill="none" stroke="#000000" d="M 549.419035512032 189.3253497152483 L 541 169 L 532.580964487968 189.3253497152483 L 549.419035512032 189.3253497152483" stroke-miterlimit="10"/></g><g transform="translate(-238,-102) scale(1,1)"><path fill="none" stroke="#000000" d="M 621 232 L 621 208 L 541 208 L 541 169" stroke-miterlimit="10"/></g><g transform="translate(-238,-102) scale(1,1)"><path fill="#FFFFFF" stroke="none" d="M 549.419035512032 189.3253497152483 L 541 169 L 532.580964487968 189.3253497152483"/></g><g transform="translate(-238,-102) scale(1,1)"><path fill="none" stroke="#000000" d="M 549.419035512032 189.3253497152483 L 541 169 L 532.580964487968 189.3253497152483 L 549.419035512032 189.3253497152483" stroke-miterlimit="10"/></g><g transform="translate(-238,-102) scale(1,1)"><path fill="#ffffff" stroke="none" d="M 248 216 L 318.1435546875 216 L 328.1435546875 226 L 328.1435546875 254 L 248 254 L 248 216"/></g><g transform="translate(-238,-102) scale(1,1)"><path fill="none" stroke="#000000" d="M 248 216 L 318.1435546875 216 L 328.1435546875 226 L 328.1435546875 254 L 248 254 L 248 216 L 248 216" stroke-miterlimit="10"/></g><g transform="translate(-238,-102) scale(1,1)"><path fill="none" stroke="#000000" d="M 318.1435546875 216 L 318.1435546875 226 L 328.1435546875 226 L 318.1435546875 216" stroke-miterlimit="10"/></g><g transform="translate(-238,-102) scale(1,1)"><g><path fill="none" stroke="none"/><text fill="#000000" stroke="none" font-family="Arial" font-size="13px" font-style="normal" font-weight="normal" text-decoration="none" x="253" y="234">state.op1()</text></g></g><g transform="translate(-238,-102) scale(1,1)"><path fill="none" stroke="#000000" d="M 289 215 L 291 170" stroke-miterlimit="10" stroke-dasharray="3"/></g></g></svg>