<svg version="1.1" xmlns="http://www.w3.org/2000/svg" xmlns:xlink="http://www.w3.org/1999/xlink" width="400.39794921875" height="197"><defs/><g><g transform="translate(-165,-206) scale(1,1)"><rect fill="#C0C0C0" stroke="none" x="210" y="223" width="58.11181640625" height="44" opacity="0.2"/></g><g transform="translate(-165,-206) scale(1,1)"><rect fill="#ffffff" stroke="none" x="203" y="216" width="58.11181640625" height="44"/></g><g transform="translate(-165,-206) scale(1,1)"><path fill="none" stroke="#000000" d="M 203 216 L 261.11181640625 216 L 261.11181640625 260 L 203 260 L 203 216 Z Z" stroke-miterlimit="10"/></g><g transform="translate(-165,-206) scale(1,1)"><path fill="none" stroke="#000000" d="M 203 241 L 261.11181640625 241" stroke-miterlimit="10"/></g><g transform="translate(-165,-206) scale(1,1)"><path fill="none" stroke="#000000" d="M 203 251 L 261.11181640625 251" stroke-miterlimit="10"/></g><g transform="translate(-165,-206) scale(1,1)"><g><path fill="none" stroke="none"/><text fill="#000000" stroke="none" font-family="Arial" font-size="13px" font-style="normal" font-weight="bold" text-decoration="none" x="209.655029296875" y="235.5">Product</text></g></g><g transform="translate(-165,-206) scale(1,1)"><rect fill="#C0C0C0" stroke="none" x="182" y="343" width="114.4599609375" height="44" opacity="0.2"/></g><g transform="translate(-165,-206) scale(1,1)"><rect fill="#ffffff" stroke="none" x="175" y="336" width="114.4599609375" height="44"/></g><g transform="translate(-165,-206) scale(1,1)"><path fill="none" stroke="#000000" d="M 175 336 L 289.4599609375 336 L 289.4599609375 380 L 175 380 L 175 336 Z Z" stroke-miterlimit="10"/></g><g transform="translate(-165,-206) scale(1,1)"><path fill="none" stroke="#000000" d="M 175 361 L 289.4599609375 361" stroke-miterlimit="10"/></g><g transform="translate(-165,-206) scale(1,1)"><path fill="none" stroke="#000000" d="M 175 371 L 289.4599609375 371" stroke-miterlimit="10"/></g><g transform="translate(-165,-206) scale(1,1)"><g><path fill="none" stroke="none"/><text fill="#000000" stroke="none" font-family="Arial" font-size="13px" font-style="normal" font-weight="bold" text-decoration="none" x="183.45458984375" y="355.5">ConcreteProduct</text></g></g><g transform="translate(-165,-206) scale(1,1)"><path fill="none" stroke="#000000" d="M 232 335 L 232 261" stroke-miterlimit="10"/></g><g transform="translate(-165,-206) scale(1,1)"><path fill="#FFFFFF" stroke="none" d="M 240.41903551203197 281.3253497152483 L 232 261 L 223.58096448796803 281.3253497152483"/></g><g transform="translate(-165,-206) scale(1,1)"><path fill="none" stroke="#000000" d="M 240.41903551203197 281.3253497152483 L 232 261 L 223.58096448796803 281.3253497152483 L 240.41903551203197 281.3253497152483" stroke-miterlimit="10"/></g><g transform="translate(-165,-206) scale(1,1)"><rect fill="#C0C0C0" stroke="none" x="377" y="223" width="159.64892578125" height="72" opacity="0.2"/></g><g transform="translate(-165,-206) scale(1,1)"><rect fill="#ffffff" stroke="none" x="370" y="216" width="159.64892578125" height="72"/></g><g transform="translate(-165,-206) scale(1,1)"><path fill="none" stroke="#000000" d="M 370 216 L 529.64892578125 216 L 529.64892578125 288 L 370 288 L 370 216 Z Z" stroke-miterlimit="10"/></g><g transform="translate(-165,-206) scale(1,1)"><path fill="none" stroke="#000000" d="M 370 241 L 529.64892578125 241" stroke-miterlimit="10"/></g><g transform="translate(-165,-206) scale(1,1)"><path fill="none" stroke="#000000" d="M 370 251 L 529.64892578125 251" stroke-miterlimit="10"/></g><g transform="translate(-165,-206) scale(1,1)"><g><path fill="none" stroke="none"/><text fill="#000000" stroke="none" font-family="Arial" font-size="13px" font-style="italic" font-weight="bold" text-decoration="none" x="428.150390625" y="235.5">Creator</text></g></g><g transform="translate(-165,-206) scale(1,1)"><g><path fill="none" stroke="none"/><text fill="#000000" stroke="none" font-family="Arial" font-size="13px" font-style="italic" font-weight="normal" text-decoration="none" x="375" y="268.5">+factoryMethod(): Product</text></g></g><g transform="translate(-165,-206) scale(1,1)"><g><path fill="none" stroke="none"/><text fill="#000000" stroke="none" font-family="Arial" font-size="13px" font-style="normal" font-weight="normal" text-decoration="none" x="375" y="283.5">+operation()</text></g></g><g transform="translate(-165,-206) scale(1,1)"><rect fill="#C0C0C0" stroke="none" x="350" y="343" width="212.39794921875" height="57" opacity="0.2"/></g><g transform="translate(-165,-206) scale(1,1)"><rect fill="#ffffff" stroke="none" x="343" y="336" width="212.39794921875" height="57"/></g><g transform="translate(-165,-206) scale(1,1)"><path fill="none" stroke="#000000" d="M 343 336 L 555.39794921875 336 L 555.39794921875 393 L 343 393 L 343 336 Z Z" stroke-miterlimit="10"/></g><g transform="translate(-165,-206) scale(1,1)"><path fill="none" stroke="#000000" d="M 343 361 L 555.39794921875 361" stroke-miterlimit="10"/></g><g transform="translate(-165,-206) scale(1,1)"><path fill="none" stroke="#000000" d="M 343 371 L 555.39794921875 371" stroke-miterlimit="10"/></g><g transform="translate(-165,-206) scale(1,1)"><g><path fill="none" stroke="none"/><text fill="#000000" stroke="none" font-family="Arial" font-size="13px" font-style="normal" font-weight="bold" text-decoration="none" x="401.150390625" y="355.5">ConcreteCreator</text></g></g><g transform="translate(-165,-206) scale(1,1)"><g><path fill="none" stroke="none"/><text fill="#000000" stroke="none" font-family="Arial" font-size="13px" font-style="normal" font-weight="normal" text-decoration="none" x="348" y="388.5">+factoryMethod(): ConcreteProduct</text></g></g><g transform="translate(-165,-206) scale(1,1)"><path fill="none" stroke="#000000" d="M 449 335 L 449 289" stroke-miterlimit="10"/></g><g transform="translate(-165,-206) scale(1,1)"><path fill="#FFFFFF" stroke="none" d="M 457.419035512032 309.3253497152483 L 449 289 L 440.580964487968 309.3253497152483"/></g><g transform="translate(-165,-206) scale(1,1)"><path fill="none" stroke="#000000" d="M 457.419035512032 309.3253497152483 L 449 289 L 440.580964487968 309.3253497152483 L 457.419035512032 309.3253497152483" stroke-miterlimit="10"/></g></g></svg>