<svg version="1.1" xmlns="http://www.w3.org/2000/svg" xmlns:xlink="http://www.w3.org/1999/xlink" width="390.919921875" height="64"><defs/><g><g transform="translate(-142,-118) scale(1,1)"><rect fill="#ffffff" stroke="none" x="152" y="128" width="60.2763671875" height="44"/></g><g transform="translate(-142,-118) scale(1,1)"><path fill="none" stroke="#000000" d="M 152 128 L 212.2763671875 128 L 212.2763671875 172 L 152 172 L 152 128 Z Z" stroke-miterlimit="10"/></g><g transform="translate(-142,-118) scale(1,1)"><g><path fill="none" stroke="none"/><text fill="#000000" stroke="none" font-family="Arial" font-size="13px" font-style="normal" font-weight="bold" text-decoration="none" x="158.648681640625" y="147.5">Polygon</text></g></g><g transform="translate(-142,-118) scale(1,1)"><rect fill="#ffffff" stroke="none" x="320" y="128" width="50.919921875" height="44"/></g><g transform="translate(-142,-118) scale(1,1)"><path fill="none" stroke="#000000" d="M 320 128 L 370.919921875 128 L 370.919921875 172 L 320 172 L 320 128 Z Z" stroke-miterlimit="10"/></g><g transform="translate(-142,-118) scale(1,1)"><g><path fill="none" stroke="none"/><text fill="#000000" stroke="none" font-family="Arial" font-size="13px" font-style="normal" font-weight="bold" text-decoration="none" x="330.64453125" y="147.5">Point</text></g></g><g transform="translate(-142,-118) scale(1,1)"><rect fill="#ffffff" stroke="none" x="472" y="128" width="50.919921875" height="44"/></g><g transform="translate(-142,-118) scale(1,1)"><path fill="none" stroke="#000000" d="M 472 128 L 522.919921875 128 L 522.919921875 172 L 472 172 L 472 128 Z Z" stroke-miterlimit="10"/></g><g transform="translate(-142,-118) scale(1,1)"><g><path fill="none" stroke="none"/><text fill="#000000" stroke="none" font-family="Arial" font-size="13px" font-style="normal" font-weight="bold" text-decoration="none" x="480.84814453125" y="147.5">Circle</text></g></g><g transform="translate(-142,-118) scale(1,1)"><path fill="none" stroke="#000000" d="M 319 150 L 213 150" stroke-miterlimit="10"/></g><g transform="translate(-142,-118) scale(1,1)"><path fill="#000000" stroke="none" d="M 223.16267485762415 145.790482243984 L 213 150 L 223.16267485762415 154.209517756016 L 235 150"/></g><g transform="translate(-142,-118) scale(1,1)"><path fill="none" stroke="#000000" d="M 223.16267485762415 145.790482243984 L 213 150 L 223.16267485762415 154.209517756016 L 235 150 L 223.16267485762415 145.790482243984" stroke-miterlimit="10"/></g><g transform="translate(-142,-118) scale(1,1)"><g><path fill="none" stroke="none"/><text fill="#000000" stroke="none" font-family="Arial" font-size="13px" font-style="normal" font-weight="normal" text-decoration="none" x="263.5" y="172.5">{ordered}</text></g></g><g transform="translate(-142,-118) scale(1,1)"><g><path fill="none" stroke="none"/><text fill="#000000" stroke="none" font-family="Arial" font-size="13px" font-style="normal" font-weight="normal" text-decoration="none" x="287.5" y="143.5">3..*</text></g></g><g transform="translate(-142,-118) scale(1,1)"><path fill="none" stroke="#000000" d="M 372 150 L 471 150" stroke-miterlimit="10"/></g><g transform="translate(-142,-118) scale(1,1)"><path fill="#000000" stroke="none" d="M 460.83732514237585 154.209517756016 L 471 150 L 460.83732514237585 145.790482243984 L 449 150"/></g><g transform="translate(-142,-118) scale(1,1)"><path fill="none" stroke="#000000" d="M 460.83732514237585 154.209517756016 L 471 150 L 460.83732514237585 145.790482243984 L 449 150 L 460.83732514237585 154.209517756016" stroke-miterlimit="10"/></g><g transform="translate(-142,-118) scale(1,1)"><g><path fill="none" stroke="none"/><text fill="#000000" stroke="none" font-family="Arial" font-size="13px" font-style="normal" font-weight="normal" text-decoration="none" x="375.5" y="141.5">+center</text></g></g><g transform="translate(-142,-118) scale(1,1)"><g><path fill="none" stroke="none"/><text fill="#000000" stroke="none" font-family="Arial" font-size="13px" font-style="normal" font-weight="normal" text-decoration="none" x="389.5" y="168.5">1</text></g></g></g></svg>