<svg version="1.1" xmlns="http://www.w3.org/2000/svg" xmlns:xlink="http://www.w3.org/1999/xlink" width="223.02880859375" height="107"><defs/><g><g transform="translate(-422,-238) scale(1,1)"><rect fill="#C0C0C0" stroke="none" x="439" y="255" width="203.02880859375" height="87" opacity="0.2"/></g><g transform="translate(-422,-238) scale(1,1)"><rect fill="#ffffff" stroke="none" x="432" y="248" width="203.02880859375" height="87"/></g><g transform="translate(-422,-238) scale(1,1)"><path fill="none" stroke="#000000" d="M 432 248 L 635.02880859375 248 L 635.02880859375 335 L 432 335 L 432 248 Z Z" stroke-miterlimit="10"/></g><g transform="translate(-422,-238) scale(1,1)"><path fill="none" stroke="#000000" d="M 432 273 L 635.02880859375 273" stroke-miterlimit="10"/></g><g transform="translate(-422,-238) scale(1,1)"><g><path fill="none" stroke="none"/><text fill="#000000" stroke="none" font-family="Arial" font-size="13px" font-style="normal" font-weight="bold" text-decoration="none" x="516.8994140625" y="267.5">Order</text></g></g><g transform="translate(-422,-238) scale(1,1)"><g><path fill="none" stroke="none"/><text fill="#000000" stroke="none" font-family="Arial" font-size="13px" font-style="normal" font-weight="normal" text-decoration="none" x="437" y="290.5">+dateReceived: Date[0..1]</text></g></g><g transform="translate(-422,-238) scale(1,1)"><g><path fill="none" stroke="none"/><text fill="#000000" stroke="none" font-family="Arial" font-size="13px" font-style="normal" font-weight="normal" text-decoration="none" x="437" y="305.5">+isPrepaid: Boolean[1]</text></g></g><g transform="translate(-422,-238) scale(1,1)"><g><path fill="none" stroke="none"/><text fill="#000000" stroke="none" font-family="Arial" font-size="13px" font-style="normal" font-weight="normal" text-decoration="none" x="437" y="320.5">+lineItems: OrderLine[*] {ordered}</text></g></g></g></svg>