<svg version="1.1" xmlns="http://www.w3.org/2000/svg" xmlns:xlink="http://www.w3.org/1999/xlink" width="324" height="107"><defs/><g><g transform="translate(-334,-142) scale(1,1)"><rect fill="#C0C0C0" stroke="none" x="351" y="159" width="103.31982421875" height="87" opacity="0.2"/></g><g transform="translate(-334,-142) scale(1,1)"><rect fill="#ffffff" stroke="none" x="344" y="152" width="103.31982421875" height="87"/></g><g transform="translate(-334,-142) scale(1,1)"><path fill="none" stroke="#000000" d="M 344 152 L 447.31982421875 152 L 447.31982421875 239 L 344 239 L 344 152 Z Z" stroke-miterlimit="10"/></g><g transform="translate(-334,-142) scale(1,1)"><path fill="none" stroke="#000000" d="M 344 177 L 447.31982421875 177" stroke-miterlimit="10"/></g><g transform="translate(-334,-142) scale(1,1)"><path fill="none" stroke="#000000" d="M 344 230 L 447.31982421875 230" stroke-miterlimit="10"/></g><g transform="translate(-334,-142) scale(1,1)"><g><path fill="none" stroke="none"/><text fill="#000000" stroke="none" font-family="Arial" font-size="13px" font-style="normal" font-weight="bold" text-decoration="none" x="362.77587890625" y="171.5">DateRange</text></g></g><g transform="translate(-334,-142) scale(1,1)"><g><path fill="none" stroke="none"/><text fill="#000000" stroke="none" font-family="Arial" font-size="13px" font-style="normal" font-weight="normal" text-decoration="none" x="349" y="194.5">+start: Date</text></g></g><g transform="translate(-334,-142) scale(1,1)"><g><path fill="none" stroke="none"/><text fill="#000000" stroke="none" font-family="Arial" font-size="13px" font-style="normal" font-weight="normal" text-decoration="none" x="349" y="209.5">+end: Date</text></g></g><g transform="translate(-334,-142) scale(1,1)"><g><path fill="none" stroke="none"/><text fill="#000000" stroke="none" font-family="Arial" font-size="13px" font-style="normal" font-weight="normal" text-decoration="none" x="349" y="224.5">+/length: Integer</text></g></g><g transform="translate(-334,-142) scale(1,1)"><path fill="#ffffff" stroke="none" d="M 512 152 L 637 152 L 647 162 L 647 188 L 512 188 L 512 152"/></g><g transform="translate(-334,-142) scale(1,1)"><path fill="none" stroke="#000000" d="M 512 152 L 637 152 L 647 162 L 647 188 L 512 188 L 512 152 L 512 152" stroke-miterlimit="10"/></g><g transform="translate(-334,-142) scale(1,1)"><path fill="none" stroke="#000000" d="M 637 152 L 637 162 L 647 162 L 637 152" stroke-miterlimit="10"/></g><g transform="translate(-334,-142) scale(1,1)"><g><path fill="none" stroke="none"/><text fill="#000000" stroke="none" font-family="Arial" font-size="13px" font-style="normal" font-weight="normal" text-decoration="none" x="517" y="170">{length = start - end}</text></g></g><g transform="translate(-334,-142) scale(1,1)"><path fill="none" stroke="#000000" d="M 511 179 L 448 188" stroke-miterlimit="10" stroke-dasharray="3"/></g></g></svg>