<svg version="1.1" xmlns="http://www.w3.org/2000/svg" xmlns:xlink="http://www.w3.org/1999/xlink" width="179.6806640625" height="393"><defs/><g><g transform="translate(-615,-264) scale(1,1)"><rect fill="#ffffff" stroke="none" x="625" y="274" width="159.6806640625" height="130"/></g><g transform="translate(-615,-264) scale(1,1)"><path fill="none" stroke="#000000" d="M 625 274 L 784.6806640625 274 L 784.6806640625 404 L 625 404 L 625 274 Z Z" stroke-miterlimit="10"/></g><g transform="translate(-615,-264) scale(1,1)"><path fill="none" stroke="#000000" d="M 625 299 L 784.6806640625 299" stroke-miterlimit="10"/></g><g transform="translate(-615,-264) scale(1,1)"><path fill="none" stroke="#000000" d="M 625 367 L 784.6806640625 367" stroke-miterlimit="10"/></g><g transform="translate(-615,-264) scale(1,1)"><g><path fill="none" stroke="none"/><text fill="#000000" stroke="none" font-family="Arial" font-size="13px" font-style="normal" font-weight="bold" text-decoration="none" x="688.225341796875" y="293.5">Order</text></g></g><g transform="translate(-615,-264) scale(1,1)"><g><path fill="none" stroke="none"/><text fill="#000000" stroke="none" font-family="Arial" font-size="13px" font-style="normal" font-weight="normal" text-decoration="none" x="630" y="316.5">-dateReceived: Date[0..1]</text></g></g><g transform="translate(-615,-264) scale(1,1)"><g><path fill="none" stroke="none"/><text fill="#000000" stroke="none" font-family="Arial" font-size="13px" font-style="normal" font-weight="normal" text-decoration="none" x="630" y="331.5">-isPrepaid: Boolean[1]</text></g></g><g transform="translate(-615,-264) scale(1,1)"><g><path fill="none" stroke="none"/><text fill="#000000" stroke="none" font-family="Arial" font-size="13px" font-style="normal" font-weight="normal" text-decoration="none" x="630" y="346.5">-number: String[1]</text></g></g><g transform="translate(-615,-264) scale(1,1)"><g><path fill="none" stroke="none"/><text fill="#000000" stroke="none" font-family="Arial" font-size="13px" font-style="normal" font-weight="normal" text-decoration="none" x="630" y="361.5">-price: Money</text></g></g><g transform="translate(-615,-264) scale(1,1)"><g><path fill="none" stroke="none"/><text fill="#000000" stroke="none" font-family="Arial" font-size="13px" font-style="normal" font-weight="normal" text-decoration="none" x="630" y="384.5">+dispatch()</text></g></g><g transform="translate(-615,-264) scale(1,1)"><g><path fill="none" stroke="none"/><text fill="#000000" stroke="none" font-family="Arial" font-size="13px" font-style="normal" font-weight="normal" text-decoration="none" x="630" y="399.5">+close()</text></g></g><g transform="translate(-615,-264) scale(1,1)"><rect fill="#ffffff" stroke="none" x="650" y="475" width="109.81982421875" height="72"/></g><g transform="translate(-615,-264) scale(1,1)"><path fill="none" stroke="#000000" d="M 650 475 L 759.81982421875 475 L 759.81982421875 547 L 650 547 L 650 475 Z Z" stroke-miterlimit="10"/></g><g transform="translate(-615,-264) scale(1,1)"><path fill="none" stroke="#000000" d="M 650 500 L 759.81982421875 500" stroke-miterlimit="10"/></g><g transform="translate(-615,-264) scale(1,1)"><path fill="none" stroke="#000000" d="M 650 538 L 759.81982421875 538" stroke-miterlimit="10"/></g><g transform="translate(-615,-264) scale(1,1)"><g><path fill="none" stroke="none"/><text fill="#000000" stroke="none" font-family="Arial" font-size="13px" font-style="normal" font-weight="bold" text-decoration="none" x="676.005859375" y="494.5">OrderLine</text></g></g><g transform="translate(-615,-264) scale(1,1)"><g><path fill="none" stroke="none"/><text fill="#000000" stroke="none" font-family="Arial" font-size="13px" font-style="normal" font-weight="normal" text-decoration="none" x="655" y="517.5">+quantity: Integer</text></g></g><g transform="translate(-615,-264) scale(1,1)"><g><path fill="none" stroke="none"/><text fill="#000000" stroke="none" font-family="Arial" font-size="13px" font-style="normal" font-weight="normal" text-decoration="none" x="655" y="532.5">+price: Money</text></g></g><g transform="translate(-615,-264) scale(1,1)"><rect fill="#ffffff" stroke="none" x="675" y="603" width="58.11181640625" height="44"/></g><g transform="translate(-615,-264) scale(1,1)"><path fill="none" stroke="#000000" d="M 675 603 L 733.11181640625 603 L 733.11181640625 647 L 675 647 L 675 603 Z Z" stroke-miterlimit="10"/></g><g transform="translate(-615,-264) scale(1,1)"><path fill="none" stroke="#000000" d="M 675 628 L 733.11181640625 628" stroke-miterlimit="10"/></g><g transform="translate(-615,-264) scale(1,1)"><path fill="none" stroke="#000000" d="M 675 638 L 733.11181640625 638" stroke-miterlimit="10"/></g><g transform="translate(-615,-264) scale(1,1)"><g><path fill="none" stroke="none"/><text fill="#000000" stroke="none" font-family="Arial" font-size="13px" font-style="normal" font-weight="bold" text-decoration="none" x="681.655029296875" y="622.5">Product</text></g></g><g transform="translate(-615,-264) scale(1,1)"><path fill="none" stroke="#000000" d="M 704 405 L 704 474" stroke-miterlimit="10"/></g><g transform="translate(-615,-264) scale(1,1)"><path fill="none" stroke="#000000" d="M 699.790482243984 463.83732514237585 L 704 474 L 708.209517756016 463.83732514237585" stroke-miterlimit="10"/></g><g transform="translate(-615,-264) scale(1,1)"><g><path fill="none" stroke="none"/><text fill="#000000" stroke="none" font-family="Arial" font-size="13px" font-style="normal" font-weight="normal" text-decoration="none" x="687.5" y="432.5">1</text></g></g><g transform="translate(-615,-264) scale(1,1)"><g><path fill="none" stroke="none"/><text fill="#000000" stroke="none" font-family="Arial" font-size="13px" font-style="normal" font-weight="normal" text-decoration="none" x="641.13134765625" y="468.5">-lineItems</text></g></g><g transform="translate(-615,-264) scale(1,1)"><g><path fill="none" stroke="none"/><text fill="#000000" stroke="none" font-family="Arial" font-size="13px" font-style="normal" font-weight="normal" text-decoration="none" x="727.5" y="473.5">{ordered}</text></g></g><g transform="translate(-615,-264) scale(1,1)"><g><path fill="none" stroke="none"/><text fill="#000000" stroke="none" font-family="Arial" font-size="13px" font-style="normal" font-weight="normal" text-decoration="none" x="713.470458984375" y="471.5">*</text></g></g><g transform="translate(-615,-264) scale(1,1)"><path fill="none" stroke="#000000" d="M 704 548 L 704 602" stroke-miterlimit="10"/></g><g transform="translate(-615,-264) scale(1,1)"><path fill="none" stroke="#000000" d="M 699.790482243984 591.8373251423759 L 704 602 L 708.209517756016 591.8373251423759" stroke-miterlimit="10"/></g><g transform="translate(-615,-264) scale(1,1)"><g><path fill="none" stroke="none"/><text fill="#000000" stroke="none" font-family="Arial" font-size="13px" font-style="normal" font-weight="normal" text-decoration="none" x="688.5" y="575.5">*</text></g></g><g transform="translate(-615,-264) scale(1,1)"><g><path fill="none" stroke="none"/><text fill="#000000" stroke="none" font-family="Arial" font-size="13px" font-style="normal" font-weight="normal" text-decoration="none" x="712.5" y="599.5">1</text></g></g></g></svg>