<svg version="1.1" xmlns="http://www.w3.org/2000/svg" xmlns:xlink="http://www.w3.org/1999/xlink" width="70.919921875" height="184"><defs/><g><g transform="translate(-230,-158) scale(1,1)"><rect fill="#C0C0C0" stroke="none" x="247" y="175" width="50.919921875" height="44" opacity="0.2"/></g><g transform="translate(-230,-158) scale(1,1)"><rect fill="#ffffff" stroke="none" x="240" y="168" width="50.919921875" height="44"/></g><g transform="translate(-230,-158) scale(1,1)"><path fill="none" stroke="#000000" d="M 240 168 L 290.919921875 168 L 290.919921875 212 L 240 212 L 240 168 Z Z" stroke-miterlimit="10"/></g><g transform="translate(-230,-158) scale(1,1)"><path fill="none" stroke="#000000" d="M 240 193 L 290.919921875 193" stroke-miterlimit="10"/></g><g transform="translate(-230,-158) scale(1,1)"><path fill="none" stroke="#000000" d="M 240 203 L 290.919921875 203" stroke-miterlimit="10"/></g><g transform="translate(-230,-158) scale(1,1)"><g><path fill="none" stroke="none"/><text fill="#000000" stroke="none" font-family="Arial" font-size="13px" font-style="normal" font-weight="bold" text-decoration="none" x="261.12451171875" y="187.5">A</text></g></g><g transform="translate(-230,-158) scale(1,1)"><rect fill="#C0C0C0" stroke="none" x="247" y="295" width="50.919921875" height="44" opacity="0.2"/></g><g transform="translate(-230,-158) scale(1,1)"><rect fill="#ffffff" stroke="none" x="240" y="288" width="50.919921875" height="44"/></g><g transform="translate(-230,-158) scale(1,1)"><path fill="none" stroke="#000000" d="M 240 288 L 290.919921875 288 L 290.919921875 332 L 240 332 L 240 288 Z Z" stroke-miterlimit="10"/></g><g transform="translate(-230,-158) scale(1,1)"><path fill="none" stroke="#000000" d="M 240 313 L 290.919921875 313" stroke-miterlimit="10"/></g><g transform="translate(-230,-158) scale(1,1)"><path fill="none" stroke="#000000" d="M 240 323 L 290.919921875 323" stroke-miterlimit="10"/></g><g transform="translate(-230,-158) scale(1,1)"><g><path fill="none" stroke="none"/><text fill="#000000" stroke="none" font-family="Arial" font-size="13px" font-style="normal" font-weight="bold" text-decoration="none" x="261.12451171875" y="307.5">B</text></g></g><g transform="translate(-230,-158) scale(1,1)"><path fill="none" stroke="#000000" d="M 265 287 L 265 213" stroke-miterlimit="10"/></g><g transform="translate(-230,-158) scale(1,1)"><path fill="#FFFFFF" stroke="none" d="M 273.419035512032 233.3253497152483 L 265 213 L 256.580964487968 233.3253497152483"/></g><g transform="translate(-230,-158) scale(1,1)"><path fill="none" stroke="#000000" d="M 273.419035512032 233.3253497152483 L 265 213 L 256.580964487968 233.3253497152483 L 273.419035512032 233.3253497152483" stroke-miterlimit="10"/></g></g></svg>