<svg version="1.1" xmlns="http://www.w3.org/2000/svg" xmlns:xlink="http://www.w3.org/1999/xlink" width="500.0634765625" height="192"><defs/><g><g transform="translate(-326,-150) scale(1,1)"><rect fill="#C0C0C0" stroke="none" x="343" y="231" width="109.9912109375" height="44" opacity="0.2"/></g><g transform="translate(-326,-150) scale(1,1)"><rect fill="#ffffff" stroke="none" x="336" y="224" width="109.9912109375" height="44"/></g><g transform="translate(-326,-150) scale(1,1)"><path fill="none" stroke="#000000" d="M 336 224 L 445.9912109375 224 L 445.9912109375 268 L 336 268 L 336 224 Z Z" stroke-miterlimit="10"/></g><g transform="translate(-326,-150) scale(1,1)"><g><path fill="none" stroke="none"/><text fill="#000000" stroke="none" font-family="Arial" font-size="13px" font-style="normal" font-weight="bold" text-decoration="none" x="344.39111328125" y="243.5">BenefitsWindow</text></g></g><g transform="translate(-326,-150) scale(1,1)"><rect fill="#C0C0C0" stroke="none" x="535" y="231" width="70.41357421875" height="44" opacity="0.2"/></g><g transform="translate(-326,-150) scale(1,1)"><rect fill="#ffffff" stroke="none" x="528" y="224" width="70.41357421875" height="44"/></g><g transform="translate(-326,-150) scale(1,1)"><path fill="none" stroke="#000000" d="M 528 224 L 598.41357421875 224 L 598.41357421875 268 L 528 268 L 528 224 Z Z" stroke-miterlimit="10"/></g><g transform="translate(-326,-150) scale(1,1)"><g><path fill="none" stroke="none"/><text fill="#000000" stroke="none" font-family="Arial" font-size="13px" font-style="normal" font-weight="bold" text-decoration="none" x="534.302734375" y="243.5">Employee</text></g></g><g transform="translate(-326,-150) scale(1,1)"><rect fill="#C0C0C0" stroke="none" x="671" y="167" width="152.0634765625" height="44" opacity="0.2"/></g><g transform="translate(-326,-150) scale(1,1)"><rect fill="#ffffff" stroke="none" x="664" y="160" width="152.0634765625" height="44"/></g><g transform="translate(-326,-150) scale(1,1)"><path fill="none" stroke="#000000" d="M 664 160 L 816.0634765625 160 L 816.0634765625 204 L 664 204 L 664 160 Z Z" stroke-miterlimit="10"/></g><g transform="translate(-326,-150) scale(1,1)"><g><path fill="none" stroke="none"/><text fill="#000000" stroke="none" font-family="Arial" font-size="13px" font-style="normal" font-weight="bold" text-decoration="none" x="671.746826171875" y="179.5">EmployeeDataGateway</text></g></g><g transform="translate(-326,-150) scale(1,1)"><rect fill="#C0C0C0" stroke="none" x="671" y="295" width="141.93896484375" height="44" opacity="0.2"/></g><g transform="translate(-326,-150) scale(1,1)"><rect fill="#ffffff" stroke="none" x="664" y="288" width="141.93896484375" height="44"/></g><g transform="translate(-326,-150) scale(1,1)"><path fill="none" stroke="#000000" d="M 664 288 L 805.93896484375 288 L 805.93896484375 332 L 664 332 L 664 288 Z Z" stroke-miterlimit="10"/></g><g transform="translate(-326,-150) scale(1,1)"><g><path fill="none" stroke="none"/><text fill="#000000" stroke="none" font-family="Arial" font-size="13px" font-style="normal" font-weight="bold" text-decoration="none" x="672.102294921875" y="307.5">BenefitsDataGateway</text></g></g><g transform="translate(-326,-150) scale(1,1)"><path fill="none" stroke="#000000" d="M 447 246 L 527 246" stroke-miterlimit="10" stroke-dasharray="3"/></g><g transform="translate(-326,-150) scale(1,1)"><path fill="none" stroke="#000000" d="M 516.8373251423759 250.209517756016 L 527 246 L 516.8373251423758 241.790482243984" stroke-miterlimit="10"/></g><g transform="translate(-326,-150) scale(1,1)"><g><path fill="none" stroke="none"/><text fill="#000000" stroke="none" font-family="Arial" font-size="13px" font-style="normal" font-weight="normal" text-decoration="none" x="469.5" y="236.5">«use»</text></g></g><g transform="translate(-326,-150) scale(1,1)"><path fill="none" stroke="#000000" d="M 598 232 L 632 232 L 632 184 L 664 184" stroke-miterlimit="10" stroke-dasharray="3"/></g><g transform="translate(-326,-150) scale(1,1)"><path fill="none" stroke="#000000" d="M 653.8373251423759 188.209517756016 L 664 184 L 653.8373251423758 179.790482243984" stroke-miterlimit="10"/></g><g transform="translate(-326,-150) scale(1,1)"><path fill="none" stroke="#000000" d="M 598 256 L 632 256 L 632 312 L 664 312" stroke-miterlimit="10" stroke-dasharray="3"/></g><g transform="translate(-326,-150) scale(1,1)"><path fill="none" stroke="#000000" d="M 653.8373251423759 316.209517756016 L 664 312 L 653.8373251423758 307.790482243984" stroke-miterlimit="10"/></g></g></svg>