<svg version="1.1" xmlns="http://www.w3.org/2000/svg" xmlns:xlink="http://www.w3.org/1999/xlink" width="281.07177734375" height="64"><defs/><g><g transform="translate(-254,-126) scale(1,1)"><rect fill="#ffffff" stroke="none" x="264" y="136" width="50.919921875" height="44"/></g><g transform="translate(-254,-126) scale(1,1)"><path fill="none" stroke="#000000" d="M 264 136 L 314.919921875 136 L 314.919921875 180 L 264 180 L 264 136 Z Z" stroke-miterlimit="10"/></g><g transform="translate(-254,-126) scale(1,1)"><g><path fill="none" stroke="none"/><text fill="#000000" stroke="none" font-family="Arial" font-size="13px" font-style="normal" font-weight="bold" text-decoration="none" x="276.091796875" y="155.5">Club</text></g></g><g transform="translate(-254,-126) scale(1,1)"><rect fill="#ffffff" stroke="none" x="472" y="136" width="53.07177734375" height="44"/></g><g transform="translate(-254,-126) scale(1,1)"><path fill="none" stroke="#000000" d="M 472 136 L 525.07177734375 136 L 525.07177734375 180 L 472 180 L 472 136 Z Z" stroke-miterlimit="10"/></g><g transform="translate(-254,-126) scale(1,1)"><g><path fill="none" stroke="none"/><text fill="#000000" stroke="none" font-family="Arial" font-size="13px" font-style="normal" font-weight="bold" text-decoration="none" x="477.94091796875" y="155.5">Person</text></g></g><g transform="translate(-254,-126) scale(1,1)"><path fill="none" stroke="#000000" d="M 471 158 L 316 158" stroke-miterlimit="10"/></g><g transform="translate(-254,-126) scale(1,1)"><path fill="#FFFFFF" stroke="none" d="M 326.16267485762415 153.790482243984 L 316 158 L 326.16267485762415 162.209517756016 L 338 158"/></g><g transform="translate(-254,-126) scale(1,1)"><path fill="none" stroke="#000000" d="M 326.16267485762415 153.790482243984 L 316 158 L 326.16267485762415 162.209517756016 L 338 158 L 326.16267485762415 153.790482243984" stroke-miterlimit="10"/></g><g transform="translate(-254,-126) scale(1,1)"><path fill="none" stroke="#000000" d="M 460.83732514237585 162.209517756016 L 471 158 L 460.83732514237585 153.790482243984" stroke-miterlimit="10"/></g><g transform="translate(-254,-126) scale(1,1)"><g><path fill="none" stroke="none"/><text fill="#000000" stroke="none" font-family="Arial" font-size="13px" font-style="normal" font-weight="normal" text-decoration="none" x="399.5" y="178.5">+members</text></g></g><g transform="translate(-254,-126) scale(1,1)"><g><path fill="none" stroke="none"/><text fill="#000000" stroke="none" font-family="Arial" font-size="13px" font-style="normal" font-weight="normal" text-decoration="none" x="446.5" y="151.5">*</text></g></g><g transform="translate(-254,-126) scale(1,1)"><g><path fill="none" stroke="none"/><text fill="#000000" stroke="none" font-family="Arial" font-size="13px" font-style="normal" font-weight="normal" text-decoration="none" x="334.5" y="151.5">*</text></g></g></g></svg>