<svg version="1.1" xmlns="http://www.w3.org/2000/svg" xmlns:xlink="http://www.w3.org/1999/xlink" width="239.818359375" height="77"><defs/><g><g transform="translate(-486,-262) scale(1,1)"><rect fill="#C0C0C0" stroke="none" x="503" y="279" width="219.818359375" height="57" opacity="0.2"/></g><g transform="translate(-486,-262) scale(1,1)"><rect fill="#ffffff" stroke="none" x="496" y="272" width="219.818359375" height="57"/></g><g transform="translate(-486,-262) scale(1,1)"><path fill="none" stroke="#000000" d="M 496 272 L 715.818359375 272 L 715.818359375 329 L 496 329 L 496 272 Z Z" stroke-miterlimit="10"/></g><g transform="translate(-486,-262) scale(1,1)"><path fill="none" stroke="#000000" d="M 496 297 L 715.818359375 297" stroke-miterlimit="10"/></g><g transform="translate(-486,-262) scale(1,1)"><path fill="none" stroke="#000000" d="M 496 320 L 715.818359375 320" stroke-miterlimit="10"/></g><g transform="translate(-486,-262) scale(1,1)"><g><path fill="none" stroke="none"/><text fill="#000000" stroke="none" font-family="Arial" font-size="13px" font-style="normal" font-weight="bold" text-decoration="none" x="589.052978515625" y="291.5">World</text></g></g><g transform="translate(-486,-262) scale(1,1)"><g><path fill="none" stroke="none"/><text fill="#000000" stroke="none" font-family="Arial" font-size="13px" font-style="normal" font-weight="normal" text-decoration="none" x="501" y="314.5">+GREETING = "HELLO!" {readOnly}</text><path fill="none" stroke="#000000" d="M 501 314.5 L 711.818359375 314.5" stroke-miterlimit="10"/></g></g></g></svg>