<svg version="1.1" xmlns="http://www.w3.org/2000/svg" xmlns:xlink="http://www.w3.org/1999/xlink" width="246.11181640625" height="149"><defs/><g><g transform="translate(-198,-230) scale(1,1)"><rect fill="#ffffff" stroke="none" x="208" y="240" width="53.07177734375" height="44"/></g><g transform="translate(-198,-230) scale(1,1)"><path fill="none" stroke="#000000" d="M 208 240 L 261.07177734375 240 L 261.07177734375 284 L 208 284 L 208 240 Z Z" stroke-miterlimit="10"/></g><g transform="translate(-198,-230) scale(1,1)"><g><path fill="none" stroke="none"/><text fill="#000000" stroke="none" font-family="Arial" font-size="13px" font-style="normal" font-weight="bold" text-decoration="none" x="213.94091796875" y="259.5">Person</text></g></g><g transform="translate(-198,-230) scale(1,1)"><rect fill="#ffffff" stroke="none" x="376" y="240" width="58.11181640625" height="44"/></g><g transform="translate(-198,-230) scale(1,1)"><path fill="none" stroke="#000000" d="M 376 240 L 434.11181640625 240 L 434.11181640625 284 L 376 284 L 376 240 Z Z" stroke-miterlimit="10"/></g><g transform="translate(-198,-230) scale(1,1)"><g><path fill="none" stroke="none"/><text fill="#000000" stroke="none" font-family="Arial" font-size="13px" font-style="normal" font-weight="bold" text-decoration="none" x="381.931396484375" y="259.5">Meeting</text></g></g><g transform="translate(-198,-230) scale(1,1)"><path fill="none" stroke="#000000" d="M 262 262 L 375 262" stroke-miterlimit="10"/></g><g transform="translate(-198,-230) scale(1,1)"><g><path fill="none" stroke="none"/><text fill="#000000" stroke="none" font-family="Arial" font-size="13px" font-style="normal" font-weight="normal" text-decoration="none" x="273.5" y="280.5">2..*</text></g></g><g transform="translate(-198,-230) scale(1,1)"><g><path fill="none" stroke="none"/><text fill="#000000" stroke="none" font-family="Arial" font-size="13px" font-style="normal" font-weight="normal" text-decoration="none" x="350.5" y="280.5">*</text></g></g><g transform="translate(-198,-230) scale(1,1)"><rect fill="#ffffff" stroke="none" x="272" y="312" width="93.1953125" height="57"/></g><g transform="translate(-198,-230) scale(1,1)"><path fill="none" stroke="#000000" d="M 272 312 L 365.1953125 312 L 365.1953125 369 L 272 369 L 272 312 Z Z" stroke-miterlimit="10"/></g><g transform="translate(-198,-230) scale(1,1)"><path fill="none" stroke="#000000" d="M 272 337 L 365.1953125 337" stroke-miterlimit="10"/></g><g transform="translate(-198,-230) scale(1,1)"><path fill="none" stroke="#000000" d="M 272 360 L 365.1953125 360" stroke-miterlimit="10"/></g><g transform="translate(-198,-230) scale(1,1)"><g><path fill="none" stroke="none"/><text fill="#000000" stroke="none" font-family="Arial" font-size="13px" font-style="normal" font-weight="bold" text-decoration="none" x="285.71044921875" y="331.5">Attendance</text></g></g><g transform="translate(-198,-230) scale(1,1)"><g><path fill="none" stroke="none"/><text fill="#000000" stroke="none" font-family="Arial" font-size="13px" font-style="normal" font-weight="normal" text-decoration="none" x="277" y="354.5">+attentiveness</text></g></g><g transform="translate(-198,-230) scale(1,1)"><path fill="none" stroke="#000000" d="M 318 311 L 318 262" stroke-miterlimit="10" stroke-dasharray="3"/></g></g></svg>