<svg version="1.1" xmlns="http://www.w3.org/2000/svg" xmlns:xlink="http://www.w3.org/1999/xlink" width="342.11181640625" height="77"><defs/><g><g transform="translate(-150,-166) scale(1,1)"><rect fill="#ffffff" stroke="none" x="160" y="182" width="53.07177734375" height="44"/></g><g transform="translate(-150,-166) scale(1,1)"><path fill="none" stroke="#000000" d="M 160 182 L 213.07177734375 182 L 213.07177734375 226 L 160 226 L 160 182 Z Z" stroke-miterlimit="10"/></g><g transform="translate(-150,-166) scale(1,1)"><g><path fill="none" stroke="none"/><text fill="#000000" stroke="none" font-family="Arial" font-size="13px" font-style="normal" font-weight="bold" text-decoration="none" x="165.94091796875" y="201.5">Person</text></g></g><g transform="translate(-150,-166) scale(1,1)"><rect fill="#ffffff" stroke="none" x="272" y="176" width="93.1953125" height="57"/></g><g transform="translate(-150,-166) scale(1,1)"><path fill="none" stroke="#000000" d="M 272 176 L 365.1953125 176 L 365.1953125 233 L 272 233 L 272 176 Z Z" stroke-miterlimit="10"/></g><g transform="translate(-150,-166) scale(1,1)"><path fill="none" stroke="#000000" d="M 272 201 L 365.1953125 201" stroke-miterlimit="10"/></g><g transform="translate(-150,-166) scale(1,1)"><path fill="none" stroke="#000000" d="M 272 224 L 365.1953125 224" stroke-miterlimit="10"/></g><g transform="translate(-150,-166) scale(1,1)"><g><path fill="none" stroke="none"/><text fill="#000000" stroke="none" font-family="Arial" font-size="13px" font-style="normal" font-weight="bold" text-decoration="none" x="285.71044921875" y="195.5">Attendance</text></g></g><g transform="translate(-150,-166) scale(1,1)"><g><path fill="none" stroke="none"/><text fill="#000000" stroke="none" font-family="Arial" font-size="13px" font-style="normal" font-weight="normal" text-decoration="none" x="277" y="218.5">+attentiveness</text></g></g><g transform="translate(-150,-166) scale(1,1)"><rect fill="#ffffff" stroke="none" x="424" y="182" width="58.11181640625" height="44"/></g><g transform="translate(-150,-166) scale(1,1)"><path fill="none" stroke="#000000" d="M 424 182 L 482.11181640625 182 L 482.11181640625 226 L 424 226 L 424 182 Z Z" stroke-miterlimit="10"/></g><g transform="translate(-150,-166) scale(1,1)"><g><path fill="none" stroke="none"/><text fill="#000000" stroke="none" font-family="Arial" font-size="13px" font-style="normal" font-weight="bold" text-decoration="none" x="429.931396484375" y="201.5">Meeting</text></g></g><g transform="translate(-150,-166) scale(1,1)"><path fill="none" stroke="#000000" d="M 214 204 L 271 204" stroke-miterlimit="10"/></g><g transform="translate(-150,-166) scale(1,1)"><g><path fill="none" stroke="none"/><text fill="#000000" stroke="none" font-family="Arial" font-size="13px" font-style="normal" font-weight="normal" text-decoration="none" x="215.5" y="196.5">1</text></g></g><g transform="translate(-150,-166) scale(1,1)"><g><path fill="none" stroke="none"/><text fill="#000000" stroke="none" font-family="Arial" font-size="13px" font-style="normal" font-weight="normal" text-decoration="none" x="263.5" y="220.5">*</text></g></g><g transform="translate(-150,-166) scale(1,1)"><path fill="none" stroke="#000000" d="M 366 204 L 423 204" stroke-miterlimit="10"/></g><g transform="translate(-150,-166) scale(1,1)"><g><path fill="none" stroke="none"/><text fill="#000000" stroke="none" font-family="Arial" font-size="13px" font-style="normal" font-weight="normal" text-decoration="none" x="372.5" y="221.5">2..*</text></g></g><g transform="translate(-150,-166) scale(1,1)"><g><path fill="none" stroke="none"/><text fill="#000000" stroke="none" font-family="Arial" font-size="13px" font-style="normal" font-weight="normal" text-decoration="none" x="407.5" y="195.5">1</text></g></g></g></svg>