<svg version="1.1" xmlns="http://www.w3.org/2000/svg" xmlns:xlink="http://www.w3.org/1999/xlink" width="302.919921875" height="64"><defs/><g><g transform="translate(-174,-126) scale(1,1)"><rect fill="#ffffff" stroke="none" x="184" y="136" width="53.07177734375" height="44"/></g><g transform="translate(-174,-126) scale(1,1)"><path fill="none" stroke="#000000" d="M 184 136 L 237.07177734375 136 L 237.07177734375 180 L 184 180 L 184 136 Z Z" stroke-miterlimit="10"/></g><g transform="translate(-174,-126) scale(1,1)"><g><path fill="none" stroke="none"/><text fill="#000000" stroke="none" font-family="Arial" font-size="13px" font-style="normal" font-weight="bold" text-decoration="none" x="189.94091796875" y="155.5">Person</text></g></g><g transform="translate(-174,-126) scale(1,1)"><rect fill="#ffffff" stroke="none" x="416" y="136" width="50.919921875" height="44"/></g><g transform="translate(-174,-126) scale(1,1)"><path fill="none" stroke="#000000" d="M 416 136 L 466.919921875 136 L 466.919921875 180 L 416 180 L 416 136 Z Z" stroke-miterlimit="10"/></g><g transform="translate(-174,-126) scale(1,1)"><g><path fill="none" stroke="none"/><text fill="#000000" stroke="none" font-family="Arial" font-size="13px" font-style="normal" font-weight="bold" text-decoration="none" x="430.986328125" y="155.5">Car</text></g></g><g transform="translate(-174,-126) scale(1,1)"><path fill="none" stroke="#000000" d="M 238 158 L 415 158" stroke-miterlimit="10"/></g><g transform="translate(-174,-126) scale(1,1)"><g><path fill="none" stroke="none"/><text fill="#000000" stroke="none" font-family="Arial" font-size="13px" font-style="normal" font-weight="normal" text-decoration="none" x="309.2958984375" y="149.5">Owns</text></g></g><g transform="translate(-174,-126) scale(1,1)"><g><path fill="none" stroke="none"/><text fill="#000000" stroke="none" font-family="Arial" font-size="13px" font-style="normal" font-weight="normal" text-decoration="none" x="248.5" y="176.5">0..1</text></g></g><g transform="translate(-174,-126) scale(1,1)"><g><path fill="none" stroke="none"/><text fill="#000000" stroke="none" font-family="Arial" font-size="13px" font-style="normal" font-weight="normal" text-decoration="none" x="390.5" y="176.5">*</text></g></g></g></svg>