<svg version="1.1" xmlns="http://www.w3.org/2000/svg" xmlns:xlink="http://www.w3.org/1999/xlink" width="162.29443359375" height="92"><defs/><g><g transform="translate(-478,-206) scale(1,1)"><rect fill="#C0C0C0" stroke="none" x="495" y="223" width="142.29443359375" height="72" opacity="0.2"/></g><g transform="translate(-478,-206) scale(1,1)"><rect fill="#ffffff" stroke="none" x="488" y="216" width="142.29443359375" height="72"/></g><g transform="translate(-478,-206) scale(1,1)"><path fill="none" stroke="#000000" d="M 488 216 L 630.29443359375 216 L 630.29443359375 288 L 488 288 L 488 216 Z Z" stroke-miterlimit="10"/></g><g transform="translate(-478,-206) scale(1,1)"><path fill="none" stroke="#000000" d="M 488 241 L 630.29443359375 241" stroke-miterlimit="10"/></g><g transform="translate(-478,-206) scale(1,1)"><path fill="none" stroke="#000000" d="M 488 251 L 630.29443359375 251" stroke-miterlimit="10"/></g><g transform="translate(-478,-206) scale(1,1)"><g><path fill="none" stroke="none"/><text fill="#000000" stroke="none" font-family="Arial" font-size="13px" font-style="normal" font-weight="bold" text-decoration="none" x="542.5322265625" y="235.5">Order</text></g></g><g transform="translate(-478,-206) scale(1,1)"><g><path fill="none" stroke="none"/><text fill="#000000" stroke="none" font-family="Arial" font-size="13px" font-style="normal" font-weight="normal" text-decoration="none" x="493" y="268.5">+getNumber()</text></g></g><g transform="translate(-478,-206) scale(1,1)"><g><path fill="none" stroke="none"/><text fill="#000000" stroke="none" font-family="Arial" font-size="13px" font-style="normal" font-weight="normal" text-decoration="none" x="493" y="283.5">+getNextNewNumber()</text><path fill="none" stroke="#000000" d="M 493 283.5 L 626.29443359375 283.5" stroke-miterlimit="10"/></g></g></g></svg>