<svg version="1.1" xmlns="http://www.w3.org/2000/svg" xmlns:xlink="http://www.w3.org/1999/xlink" width="145.34619140625" height="110"><defs/><g><g transform="translate(-350,-238) scale(1,1)"><rect fill="#ffffff" stroke="none" x="360" y="248" width="125.34619140625" height="90"/></g><g transform="translate(-350,-238) scale(1,1)"><path fill="none" stroke="#000000" d="M 360 248 L 485.34619140625 248 L 485.34619140625 338 L 360 338 L 360 248 Z Z" stroke-miterlimit="10"/></g><g transform="translate(-350,-238) scale(1,1)"><path fill="none" stroke="#000000" d="M 360 286 L 485.34619140625 286" stroke-miterlimit="10"/></g><g transform="translate(-350,-238) scale(1,1)"><g><path fill="none" stroke="none"/><text fill="#000000" stroke="none" font-family="Arial" font-size="13px" font-style="normal" font-weight="normal" text-decoration="none" x="379.30908203125" y="265.5">«enumeration»</text></g></g><g transform="translate(-350,-238) scale(1,1)"><g><path fill="none" stroke="none"/><text fill="#000000" stroke="none" font-family="Arial" font-size="13px" font-style="normal" font-weight="bold" text-decoration="none" x="407.140380859375" y="280.5">Color</text></g></g><g transform="translate(-350,-238) scale(1,1)"><g><path fill="none" stroke="none"/><text fill="#000000" stroke="none" font-family="Arial" font-size="13px" font-style="normal" font-weight="normal" text-decoration="none" x="365" y="303.5">red</text></g></g><g transform="translate(-350,-238) scale(1,1)"><g><path fill="none" stroke="none"/><text fill="#000000" stroke="none" font-family="Arial" font-size="13px" font-style="normal" font-weight="normal" text-decoration="none" x="365" y="318.5">white</text></g></g><g transform="translate(-350,-238) scale(1,1)"><g><path fill="none" stroke="none"/><text fill="#000000" stroke="none" font-family="Arial" font-size="13px" font-style="normal" font-weight="normal" text-decoration="none" x="365" y="333.5">blue</text></g></g></g></svg>