<svg version="1.1" xmlns="http://www.w3.org/2000/svg" xmlns:xlink="http://www.w3.org/1999/xlink" width="294.919921875" height="64"><defs/><g><g transform="translate(-278,-182) scale(1,1)"><rect fill="#ffffff" stroke="none" x="288" y="192" width="53.07177734375" height="44"/></g><g transform="translate(-278,-182) scale(1,1)"><path fill="none" stroke="#000000" d="M 288 192 L 341.07177734375 192 L 341.07177734375 236 L 288 236 L 288 192 Z Z" stroke-miterlimit="10"/></g><g transform="translate(-278,-182) scale(1,1)"><g><path fill="none" stroke="none"/><text fill="#000000" stroke="none" font-family="Arial" font-size="13px" font-style="normal" font-weight="bold" text-decoration="none" x="293.94091796875" y="211.5">Person</text></g></g><g transform="translate(-278,-182) scale(1,1)"><rect fill="#ffffff" stroke="none" x="512" y="192" width="50.919921875" height="44"/></g><g transform="translate(-278,-182) scale(1,1)"><path fill="none" stroke="#000000" d="M 512 192 L 562.919921875 192 L 562.919921875 236 L 512 236 L 512 192 Z Z" stroke-miterlimit="10"/></g><g transform="translate(-278,-182) scale(1,1)"><g><path fill="none" stroke="none"/><text fill="#000000" stroke="none" font-family="Arial" font-size="13px" font-style="normal" font-weight="bold" text-decoration="none" x="526.986328125" y="211.5">Car</text></g></g><g transform="translate(-278,-182) scale(1,1)"><path fill="none" stroke="#000000" d="M 342 214 L 511 214" stroke-miterlimit="10"/></g><g transform="translate(-278,-182) scale(1,1)"><g><path fill="none" stroke="none"/><text fill="#000000" stroke="none" font-family="Arial" font-size="13px" font-style="normal" font-weight="normal" text-decoration="none" x="345.5" y="205.5">+owner</text></g></g><g transform="translate(-278,-182) scale(1,1)"><g><path fill="none" stroke="none"/><text fill="#000000" stroke="none" font-family="Arial" font-size="13px" font-style="normal" font-weight="normal" text-decoration="none" x="352.5" y="232.5">0..1</text></g></g><g transform="translate(-278,-182) scale(1,1)"><g><path fill="none" stroke="none"/><text fill="#000000" stroke="none" font-family="Arial" font-size="13px" font-style="normal" font-weight="normal" text-decoration="none" x="486.5" y="232.5">*</text></g></g></g></svg>