<svg version="1.1" xmlns="http://www.w3.org/2000/svg" xmlns:xlink="http://www.w3.org/1999/xlink" width="384.28271484375" height="181"><defs/><g><g transform="translate(-366,-185) scale(1,1)"><rect fill="#ffffff" stroke="none" x="530" y="195" width="50.919921875" height="44"/></g><g transform="translate(-366,-185) scale(1,1)"><path fill="none" stroke="#000000" d="M 530 195 L 580.919921875 195 L 580.919921875 239 L 530 239 L 530 195 Z Z" stroke-miterlimit="10"/></g><g transform="translate(-366,-185) scale(1,1)"><g><path fill="none" stroke="none"/><text fill="#000000" stroke="none" font-family="Arial" font-size="13px" font-style="normal" font-weight="bold" text-decoration="none" x="538.844970703125" y="214.5">Order</text></g></g><g transform="translate(-366,-185) scale(1,1)"><rect fill="#ffffff" stroke="none" x="680" y="195" width="60.28271484375" height="44"/></g><g transform="translate(-366,-185) scale(1,1)"><path fill="none" stroke="#000000" d="M 680 195 L 740.28271484375 195 L 740.28271484375 239 L 680 239 L 680 195 Z Z" stroke-miterlimit="10"/></g><g transform="translate(-366,-185) scale(1,1)"><g><path fill="none" stroke="none"/><text fill="#000000" stroke="none" font-family="Arial" font-size="13px" font-style="normal" font-weight="bold" text-decoration="none" x="686.286865234375" y="214.5">Boolean</text></g></g><g transform="translate(-366,-185) scale(1,1)"><rect fill="#ffffff" stroke="none" x="376" y="195" width="50.919921875" height="44"/></g><g transform="translate(-366,-185) scale(1,1)"><path fill="none" stroke="#000000" d="M 376 195 L 426.919921875 195 L 426.919921875 239 L 376 239 L 376 195 Z Z" stroke-miterlimit="10"/></g><g transform="translate(-366,-185) scale(1,1)"><g><path fill="none" stroke="none"/><text fill="#000000" stroke="none" font-family="Arial" font-size="13px" font-style="normal" font-weight="bold" text-decoration="none" x="387.72998046875" y="214.5">Date</text></g></g><g transform="translate(-366,-185) scale(1,1)"><rect fill="#ffffff" stroke="none" x="520" y="312" width="71.12451171875" height="44"/></g><g transform="translate(-366,-185) scale(1,1)"><path fill="none" stroke="#000000" d="M 520 312 L 591.12451171875 312 L 591.12451171875 356 L 520 356 L 520 312 Z Z" stroke-miterlimit="10"/></g><g transform="translate(-366,-185) scale(1,1)"><g><path fill="none" stroke="none"/><text fill="#000000" stroke="none" font-family="Arial" font-size="13px" font-style="normal" font-weight="bold" text-decoration="none" x="526.658203125" y="331.5">OrderLine</text></g></g><g transform="translate(-366,-185) scale(1,1)"><path fill="none" stroke="#000000" d="M 529 217 L 428 217" stroke-miterlimit="10"/></g><g transform="translate(-366,-185) scale(1,1)"><path fill="none" stroke="#000000" d="M 438.16267485762415 212.790482243984 L 428 217 L 438.16267485762415 221.209517756016" stroke-miterlimit="10"/></g><g transform="translate(-366,-185) scale(1,1)"><g><path fill="none" stroke="none"/><text fill="#000000" stroke="none" font-family="Arial" font-size="13px" font-style="normal" font-weight="normal" text-decoration="none" x="505.5" y="209.5">*</text></g></g><g transform="translate(-366,-185) scale(1,1)"><g><path fill="none" stroke="none"/><text fill="#000000" stroke="none" font-family="Arial" font-size="13px" font-style="normal" font-weight="normal" text-decoration="none" x="431.5" y="235.5">+dateReceived</text></g></g><g transform="translate(-366,-185) scale(1,1)"><g><path fill="none" stroke="none"/><text fill="#000000" stroke="none" font-family="Arial" font-size="13px" font-style="normal" font-weight="normal" text-decoration="none" x="438.5" y="210.5">0..1</text></g></g><g transform="translate(-366,-185) scale(1,1)"><path fill="none" stroke="#000000" d="M 582 217 L 679 217" stroke-miterlimit="10"/></g><g transform="translate(-366,-185) scale(1,1)"><path fill="none" stroke="#000000" d="M 668.8373251423759 221.209517756016 L 679 217 L 668.8373251423758 212.790482243984" stroke-miterlimit="10"/></g><g transform="translate(-366,-185) scale(1,1)"><g><path fill="none" stroke="none"/><text fill="#000000" stroke="none" font-family="Arial" font-size="13px" font-style="normal" font-weight="normal" text-decoration="none" x="607.5" y="207.5">+isPrepaid</text></g></g><g transform="translate(-366,-185) scale(1,1)"><g><path fill="none" stroke="none"/><text fill="#000000" stroke="none" font-family="Arial" font-size="13px" font-style="normal" font-weight="normal" text-decoration="none" x="653.5" y="235.5">1</text></g></g><g transform="translate(-366,-185) scale(1,1)"><path fill="none" stroke="#000000" d="M 555 240 L 555 311" stroke-miterlimit="10"/></g><g transform="translate(-366,-185) scale(1,1)"><path fill="none" stroke="#000000" d="M 550.790482243984 300.83732514237585 L 555 311 L 559.209517756016 300.83732514237585" stroke-miterlimit="10"/></g><g transform="translate(-366,-185) scale(1,1)"><g><path fill="none" stroke="none"/><text fill="#000000" stroke="none" font-family="Arial" font-size="13px" font-style="normal" font-weight="normal" text-decoration="none" x="538.5" y="252.5">1</text></g></g><g transform="translate(-366,-185) scale(1,1)"><g><path fill="none" stroke="none"/><text fill="#000000" stroke="none" font-family="Arial" font-size="13px" font-style="normal" font-weight="normal" text-decoration="none" x="559.5" y="291.5">+lineItems</text></g></g><g transform="translate(-366,-185) scale(1,1)"><g><path fill="none" stroke="none"/><text fill="#000000" stroke="none" font-family="Arial" font-size="13px" font-style="normal" font-weight="normal" text-decoration="none" x="558.5" y="307.5">{ordered}</text></g></g><g transform="translate(-366,-185) scale(1,1)"><g><path fill="none" stroke="none"/><text fill="#000000" stroke="none" font-family="Arial" font-size="13px" font-style="normal" font-weight="normal" text-decoration="none" x="539.5" y="307.5">*</text></g></g></g></svg>