<svg version="1.1" xmlns="http://www.w3.org/2000/svg" xmlns:xlink="http://www.w3.org/1999/xlink" width="308" height="133"><defs/><g><g transform="translate(-326,-199) scale(1,1)"><rect fill="#C0C0C0" stroke="none" x="543" y="216" width="88" height="44" opacity="0.2"/></g><g transform="translate(-326,-199) scale(1,1)"><rect fill="#ffffff" stroke="none" x="536" y="209" width="88" height="44"/></g><g transform="translate(-326,-199) scale(1,1)"><path fill="none" stroke="#000000" d="M 536 209 L 624 209 L 624 253 L 536 253 L 536 209 Z Z" stroke-miterlimit="10"/></g><g transform="translate(-326,-199) scale(1,1)"><g><path fill="none" stroke="none"/><text fill="#000000" stroke="none" font-family="Arial" font-size="13px" font-style="normal" font-weight="bold" text-decoration="none" x="569.5263671875" y="228.5">Car</text></g></g><g transform="translate(-326,-199) scale(1,1)"><path fill="#ffffff" stroke="none" d="M 336 272 L 469 272 L 479 282 L 479 321 L 336 321 L 336 272"/></g><g transform="translate(-326,-199) scale(1,1)"><path fill="none" stroke="#000000" d="M 336 272 L 469 272 L 479 282 L 479 321 L 336 321 L 336 272 L 336 272" stroke-miterlimit="10"/></g><g transform="translate(-326,-199) scale(1,1)"><path fill="none" stroke="#000000" d="M 469 272 L 469 282 L 479 282 L 469 272" stroke-miterlimit="10"/></g><g transform="translate(-326,-199) scale(1,1)"><g><path fill="none" stroke="none"/><text fill="#000000" stroke="none" font-family="Arial" font-size="13px" font-style="normal" font-weight="normal" text-decoration="none" x="341" y="290">Includes pick-ups and</text><text fill="#000000" stroke="none" font-family="Arial" font-size="13px" font-style="normal" font-weight="normal" text-decoration="none" x="341" y="303">SUVs but not</text><text fill="#000000" stroke="none" font-family="Arial" font-size="13px" font-style="normal" font-weight="normal" text-decoration="none" x="341" y="316">motorbikes</text></g></g><g transform="translate(-326,-199) scale(1,1)"><path fill="none" stroke="#000000" d="M 476 271 L 535 248" stroke-miterlimit="10" stroke-dasharray="3"/></g></g></svg>