<svg version="1.1" xmlns="http://www.w3.org/2000/svg" xmlns:xlink="http://www.w3.org/1999/xlink" width="179.6689453125" height="110"><defs/><g><g transform="translate(-334,-214) scale(1,1)"><rect fill="#C0C0C0" stroke="none" x="351" y="249" width="149.6689453125" height="72" opacity="0.2"/></g><g transform="translate(-334,-214) scale(1,1)"><rect fill="#C0C0C0" stroke="none" x="492.72802734375" y="231" width="16.94091796875" height="22" opacity="0.2"/></g><g transform="translate(-334,-214) scale(1,1)"><rect fill="#ffffff" stroke="none" x="344" y="242" width="149.6689453125" height="72"/></g><g transform="translate(-334,-214) scale(1,1)"><path fill="none" stroke="#000000" d="M 344 242 L 493.6689453125 242 L 493.6689453125 314 L 344 314 L 344 242 Z Z" stroke-miterlimit="10"/></g><g transform="translate(-334,-214) scale(1,1)"><path fill="none" stroke="#000000" d="M 344 267 L 493.6689453125 267" stroke-miterlimit="10"/></g><g transform="translate(-334,-214) scale(1,1)"><path fill="none" stroke="#000000" d="M 344 277 L 493.6689453125 277" stroke-miterlimit="10"/></g><g transform="translate(-334,-214) scale(1,1)"><g><path fill="none" stroke="none"/><text fill="#000000" stroke="none" font-family="Arial" font-size="13px" font-style="normal" font-weight="bold" text-decoration="none" x="409.078125" y="261.5">Set</text></g></g><g transform="translate(-334,-214) scale(1,1)"><g><path fill="none" stroke="none"/><text fill="#000000" stroke="none" font-family="Arial" font-size="13px" font-style="normal" font-weight="normal" text-decoration="none" x="349" y="294.5">+insert(T)</text></g></g><g transform="translate(-334,-214) scale(1,1)"><g><path fill="none" stroke="none"/><text fill="#000000" stroke="none" font-family="Arial" font-size="13px" font-style="normal" font-weight="normal" text-decoration="none" x="349" y="309.5">+remove(T)</text></g></g><g transform="translate(-334,-214) scale(1,1)"><rect fill="#ffffff" stroke="none" x="485.72802734375" y="224" width="16.94091796875" height="22"/></g><g transform="translate(-334,-214) scale(1,1)"><path fill="none" stroke="#000000" d="M 485.72802734375 224 L 502.6689453125 224 L 502.6689453125 246 L 485.72802734375 246 L 485.72802734375 224 Z Z" stroke-miterlimit="10" stroke-dasharray="3"/></g><g transform="translate(-334,-214) scale(1,1)"><g><path fill="none" stroke="none"/><text fill="#000000" stroke="none" font-family="Arial" font-size="13px" font-style="normal" font-weight="normal" text-decoration="none" x="490.72802734375" y="241.5">T</text></g></g></g></svg>