<svg version="1.1" xmlns="http://www.w3.org/2000/svg" xmlns:xlink="http://www.w3.org/1999/xlink" width="465.57080078125" height="332"><defs/><g><g transform="translate(-206,-142) scale(1,1)"><rect fill="#C0C0C0" stroke="none" x="223" y="286" width="84.50537109375" height="57" opacity="0.2"/></g><g transform="translate(-206,-142) scale(1,1)"><rect fill="#ffffff" stroke="none" x="216" y="279" width="84.50537109375" height="57"/></g><g transform="translate(-206,-142) scale(1,1)"><path fill="none" stroke="#000000" d="M 216 279 L 300.50537109375 279 L 300.50537109375 336 L 216 336 L 216 279 Z Z" stroke-miterlimit="10"/></g><g transform="translate(-206,-142) scale(1,1)"><path fill="none" stroke="#000000" d="M 216 304 L 300.50537109375 304" stroke-miterlimit="10"/></g><g transform="translate(-206,-142) scale(1,1)"><path fill="none" stroke="#000000" d="M 216 327 L 300.50537109375 327" stroke-miterlimit="10"/></g><g transform="translate(-206,-142) scale(1,1)"><g><path fill="none" stroke="none"/><text fill="#000000" stroke="none" font-family="Arial" font-size="13px" font-style="normal" font-weight="bold" text-decoration="none" x="241.6376953125" y="298.5">Order</text></g></g><g transform="translate(-206,-142) scale(1,1)"><g><path fill="none" stroke="none"/><text fill="#000000" stroke="none" font-family="Arial" font-size="13px" font-style="normal" font-weight="normal" text-decoration="none" x="221" y="321.5">+lineItems [*]</text></g></g><g transform="translate(-206,-142) scale(1,1)"><rect fill="#C0C0C0" stroke="none" x="579" y="271" width="89.57080078125" height="87" opacity="0.2"/></g><g transform="translate(-206,-142) scale(1,1)"><rect fill="#ffffff" stroke="none" x="572" y="264" width="89.57080078125" height="87"/></g><g transform="translate(-206,-142) scale(1,1)"><path fill="none" stroke="#000000" d="M 572 264 L 661.57080078125 264 L 661.57080078125 351 L 572 351 L 572 264 Z Z" stroke-miterlimit="10"/></g><g transform="translate(-206,-142) scale(1,1)"><path fill="none" stroke="#000000" d="M 572 289 L 661.57080078125 289" stroke-miterlimit="10"/></g><g transform="translate(-206,-142) scale(1,1)"><path fill="none" stroke="#000000" d="M 572 299 L 661.57080078125 299" stroke-miterlimit="10"/></g><g transform="translate(-206,-142) scale(1,1)"><g><path fill="none" stroke="none"/><text fill="#000000" stroke="none" font-family="Arial" font-size="13px" font-style="normal" font-weight="bold" text-decoration="none" x="582.82861328125" y="283.5">AbstractList</text></g></g><g transform="translate(-206,-142) scale(1,1)"><g><path fill="none" stroke="none"/><text fill="#000000" stroke="none" font-family="Arial" font-size="13px" font-style="normal" font-weight="normal" text-decoration="none" x="577" y="316.5">+equals()</text></g></g><g transform="translate(-206,-142) scale(1,1)"><g><path fill="none" stroke="none"/><text fill="#000000" stroke="none" font-family="Arial" font-size="13px" font-style="italic" font-weight="normal" text-decoration="none" x="577" y="331.5">+get()</text></g></g><g transform="translate(-206,-142) scale(1,1)"><g><path fill="none" stroke="none"/><text fill="#000000" stroke="none" font-family="Arial" font-size="13px" font-style="normal" font-weight="normal" text-decoration="none" x="577" y="346.5">+add()</text></g></g><g transform="translate(-206,-142) scale(1,1)"><rect fill="#C0C0C0" stroke="none" x="579" y="399" width="89.57080078125" height="72" opacity="0.2"/></g><g transform="translate(-206,-142) scale(1,1)"><rect fill="#ffffff" stroke="none" x="572" y="392" width="89.57080078125" height="72"/></g><g transform="translate(-206,-142) scale(1,1)"><path fill="none" stroke="#000000" d="M 572 392 L 661.57080078125 392 L 661.57080078125 464 L 572 464 L 572 392 Z Z" stroke-miterlimit="10"/></g><g transform="translate(-206,-142) scale(1,1)"><path fill="none" stroke="#000000" d="M 572 417 L 661.57080078125 417" stroke-miterlimit="10"/></g><g transform="translate(-206,-142) scale(1,1)"><path fill="none" stroke="#000000" d="M 572 427 L 661.57080078125 427" stroke-miterlimit="10"/></g><g transform="translate(-206,-142) scale(1,1)"><g><path fill="none" stroke="none"/><text fill="#000000" stroke="none" font-family="Arial" font-size="13px" font-style="normal" font-weight="bold" text-decoration="none" x="591.140869140625" y="411.5">ArrayList</text></g></g><g transform="translate(-206,-142) scale(1,1)"><g><path fill="none" stroke="none"/><text fill="#000000" stroke="none" font-family="Arial" font-size="13px" font-style="normal" font-weight="normal" text-decoration="none" x="577" y="444.5">+get()</text></g></g><g transform="translate(-206,-142) scale(1,1)"><g><path fill="none" stroke="none"/><text fill="#000000" stroke="none" font-family="Arial" font-size="13px" font-style="normal" font-weight="normal" text-decoration="none" x="577" y="459.5">+add()</text></g></g><g transform="translate(-206,-142) scale(1,1)"><rect fill="#C0C0C0" stroke="none" x="399" y="284" width="89.57080078125" height="60" opacity="0.2"/></g><g transform="translate(-206,-142) scale(1,1)"><rect fill="#ffffff" stroke="none" x="392" y="277" width="89.57080078125" height="60"/></g><g transform="translate(-206,-142) scale(1,1)"><path fill="none" stroke="#000000" d="M 392 277 L 481.57080078125 277 L 481.57080078125 337 L 392 337 L 392 277 Z Z" stroke-miterlimit="10"/></g><g transform="translate(-206,-142) scale(1,1)"><path fill="none" stroke="#000000" d="M 392 315 L 481.57080078125 315" stroke-miterlimit="10"/></g><g transform="translate(-206,-142) scale(1,1)"><g><path fill="none" stroke="none"/><text fill="#000000" stroke="none" font-family="Arial" font-size="13px" font-style="normal" font-weight="normal" text-decoration="none" x="404.625" y="294.5">«interface»</text></g></g><g transform="translate(-206,-142) scale(1,1)"><g><path fill="none" stroke="none"/><text fill="#000000" stroke="none" font-family="Arial" font-size="13px" font-style="normal" font-weight="bold" text-decoration="none" x="426.67041015625" y="309.5">List</text></g></g><g transform="translate(-206,-142) scale(1,1)"><g><path fill="none" stroke="none"/><text fill="#000000" stroke="none" font-family="Arial" font-size="13px" font-style="normal" font-weight="normal" text-decoration="none" x="397" y="332.5">+get()</text></g></g><g transform="translate(-206,-142) scale(1,1)"><path fill="#C0C0C0" stroke="none" d="M 432.285400390625 170.5 C 432.285400390625 164.1487248 437.434125190625 159 443.785400390625 159 C 450.136675590625 159 455.285400390625 164.1487248 455.285400390625 170.5 C 455.285400390625 176.8512752 450.136675590625 182 443.785400390625 182 C 437.434125190625 182 432.285400390625 176.8512752 432.285400390625 170.5 Z" opacity="0.2"/></g><g transform="translate(-206,-142) scale(1,1)"><path fill="#ffffff" stroke="none" d="M 425.285400390625 163.5 C 425.285400390625 157.1487248 430.434125190625 152 436.785400390625 152 C 443.136675590625 152 448.285400390625 157.1487248 448.285400390625 163.5 C 448.285400390625 169.8512752 443.136675590625 175 436.785400390625 175 C 430.434125190625 175 425.285400390625 169.8512752 425.285400390625 163.5 Z"/></g><g transform="translate(-206,-142) scale(1,1)"><path fill="none" stroke="#000000" d="M 425.285400390625 163.5 C 425.285400390625 157.1487248 430.434125190625 152 436.785400390625 152 C 443.136675590625 152 448.285400390625 157.1487248 448.285400390625 163.5 C 448.285400390625 169.8512752 443.136675590625 175 436.785400390625 175 C 430.434125190625 175 425.285400390625 169.8512752 425.285400390625 163.5 Z" stroke-miterlimit="10"/></g><g transform="translate(-206,-142) scale(1,1)"><path fill="none" stroke="#000000" d="M 392 200 L 481.57080078125 200" stroke-miterlimit="10"/></g><g transform="translate(-206,-142) scale(1,1)"><g><path fill="none" stroke="none"/><text fill="#000000" stroke="none" font-family="Arial" font-size="13px" font-style="normal" font-weight="bold" text-decoration="none" x="408.2431640625" y="194.5">Collection</text></g></g><g transform="translate(-206,-142) scale(1,1)"><g><path fill="none" stroke="none"/><text fill="#000000" stroke="none" font-family="Arial" font-size="13px" font-style="normal" font-weight="normal" text-decoration="none" x="397" y="217.5">+equals()</text></g></g><g transform="translate(-206,-142) scale(1,1)"><g><path fill="none" stroke="none"/><text fill="#000000" stroke="none" font-family="Arial" font-size="13px" font-style="normal" font-weight="normal" text-decoration="none" x="397" y="232.5">+add()</text></g></g><g transform="translate(-206,-142) scale(1,1)"><path fill="none" stroke="#000000" d="M 436 276 L 436 239" stroke-miterlimit="10"/></g><g transform="translate(-206,-142) scale(1,1)"><path fill="#FFFFFF" stroke="none" d="M 444.419035512032 259.3253497152483 L 436 239 L 427.580964487968 259.3253497152483"/></g><g transform="translate(-206,-142) scale(1,1)"><path fill="none" stroke="#000000" d="M 444.419035512032 259.3253497152483 L 436 239 L 427.580964487968 259.3253497152483 L 444.419035512032 259.3253497152483" stroke-miterlimit="10"/></g><g transform="translate(-206,-142) scale(1,1)"><path fill="none" stroke="#000000" d="M 302 307 L 391 307" stroke-miterlimit="10" stroke-dasharray="3"/></g><g transform="translate(-206,-142) scale(1,1)"><path fill="none" stroke="#000000" d="M 380.83732514237585 311.209517756016 L 391 307 L 380.83732514237585 302.790482243984" stroke-miterlimit="10"/></g><g transform="translate(-206,-142) scale(1,1)"><path fill="none" stroke="#000000" d="M 571 307 L 483 307" stroke-miterlimit="10" stroke-dasharray="3"/></g><g transform="translate(-206,-142) scale(1,1)"><path fill="#FFFFFF" stroke="none" d="M 503.3253497152483 298.580964487968 L 483 307 L 503.3253497152483 315.419035512032"/></g><g transform="translate(-206,-142) scale(1,1)"><path fill="none" stroke="#000000" d="M 503.3253497152483 298.580964487968 L 483 307 L 503.3253497152483 315.419035512032 L 503.3253497152483 298.580964487968" stroke-miterlimit="10"/></g><g transform="translate(-206,-142) scale(1,1)"><path fill="none" stroke="#000000" d="M 616 391 L 616 352" stroke-miterlimit="10"/></g><g transform="translate(-206,-142) scale(1,1)"><path fill="#FFFFFF" stroke="none" d="M 624.419035512032 372.3253497152483 L 616 352 L 607.580964487968 372.3253497152483"/></g><g transform="translate(-206,-142) scale(1,1)"><path fill="none" stroke="#000000" d="M 624.419035512032 372.3253497152483 L 616 352 L 607.580964487968 372.3253497152483 L 624.419035512032 372.3253497152483" stroke-miterlimit="10"/></g></g></svg>