<svg version="1.1" xmlns="http://www.w3.org/2000/svg" xmlns:xlink="http://www.w3.org/1999/xlink" width="597.96630859375" height="240"><defs/><g><g transform="translate(-22,-166) scale(1,1)"><rect fill="#C0C0C0" stroke="none" x="119" y="183" width="50.919921875" height="44" opacity="0.2"/></g><g transform="translate(-22,-166) scale(1,1)"><rect fill="#ffffff" stroke="none" x="112" y="176" width="50.919921875" height="44"/></g><g transform="translate(-22,-166) scale(1,1)"><path fill="none" stroke="#000000" d="M 112 176 L 162.919921875 176 L 162.919921875 220 L 112 220 L 112 176 Z Z" stroke-miterlimit="10"/></g><g transform="translate(-22,-166) scale(1,1)"><path fill="none" stroke="#000000" d="M 112 201 L 162.919921875 201" stroke-miterlimit="10"/></g><g transform="translate(-22,-166) scale(1,1)"><path fill="none" stroke="#000000" d="M 112 211 L 162.919921875 211" stroke-miterlimit="10"/></g><g transform="translate(-22,-166) scale(1,1)"><g><path fill="none" stroke="none"/><text fill="#000000" stroke="none" font-family="Arial" font-size="13px" font-style="normal" font-weight="bold" text-decoration="none" x="125.542236328125" y="195.5">Mall</text></g></g><g transform="translate(-22,-166) scale(1,1)"><rect fill="#C0C0C0" stroke="none" x="207" y="279" width="50.919921875" height="44" opacity="0.2"/></g><g transform="translate(-22,-166) scale(1,1)"><rect fill="#ffffff" stroke="none" x="200" y="272" width="50.919921875" height="44"/></g><g transform="translate(-22,-166) scale(1,1)"><path fill="none" stroke="#000000" d="M 200 272 L 250.919921875 272 L 250.919921875 316 L 200 316 L 200 272 Z Z" stroke-miterlimit="10"/></g><g transform="translate(-22,-166) scale(1,1)"><path fill="none" stroke="#000000" d="M 200 297 L 250.919921875 297" stroke-miterlimit="10"/></g><g transform="translate(-22,-166) scale(1,1)"><path fill="none" stroke="#000000" d="M 200 307 L 250.919921875 307" stroke-miterlimit="10"/></g><g transform="translate(-22,-166) scale(1,1)"><g><path fill="none" stroke="none"/><text fill="#000000" stroke="none" font-family="Arial" font-size="13px" font-style="normal" font-weight="bold" text-decoration="none" x="209.924072265625" y="291.5">Store</text></g></g><g transform="translate(-22,-166) scale(1,1)"><rect fill="#C0C0C0" stroke="none" x="199" y="183" width="81.236328125" height="44" opacity="0.2"/></g><g transform="translate(-22,-166) scale(1,1)"><rect fill="#ffffff" stroke="none" x="192" y="176" width="81.236328125" height="44"/></g><g transform="translate(-22,-166) scale(1,1)"><path fill="none" stroke="#000000" d="M 192 176 L 273.236328125 176 L 273.236328125 220 L 192 220 L 192 176 Z Z" stroke-miterlimit="10"/></g><g transform="translate(-22,-166) scale(1,1)"><path fill="none" stroke="#000000" d="M 192 201 L 273.236328125 201" stroke-miterlimit="10"/></g><g transform="translate(-22,-166) scale(1,1)"><path fill="none" stroke="#000000" d="M 192 211 L 273.236328125 211" stroke-miterlimit="10"/></g><g transform="translate(-22,-166) scale(1,1)"><g><path fill="none" stroke="none"/><text fill="#000000" stroke="none" font-family="Arial" font-size="13px" font-style="normal" font-weight="bold" text-decoration="none" x="198.658203125" y="195.5">Department</text></g></g><g transform="translate(-22,-166) scale(1,1)"><rect fill="#C0C0C0" stroke="none" x="327" y="183" width="87.04443359375" height="44" opacity="0.2"/></g><g transform="translate(-22,-166) scale(1,1)"><rect fill="#ffffff" stroke="none" x="320" y="176" width="87.04443359375" height="44"/></g><g transform="translate(-22,-166) scale(1,1)"><path fill="none" stroke="#000000" d="M 320 176 L 407.04443359375 176 L 407.04443359375 220 L 320 220 L 320 176 Z Z" stroke-miterlimit="10"/></g><g transform="translate(-22,-166) scale(1,1)"><path fill="none" stroke="#000000" d="M 320 201 L 407.04443359375 201" stroke-miterlimit="10"/></g><g transform="translate(-22,-166) scale(1,1)"><path fill="none" stroke="#000000" d="M 320 211 L 407.04443359375 211" stroke-miterlimit="10"/></g><g transform="translate(-22,-166) scale(1,1)"><g><path fill="none" stroke="none"/><text fill="#000000" stroke="none" font-family="Arial" font-size="13px" font-style="normal" font-weight="bold" text-decoration="none" x="326.667724609375" y="195.5">SalesPerson</text></g></g><g transform="translate(-22,-166) scale(1,1)"><rect fill="#C0C0C0" stroke="none" x="311" y="263" width="62.4599609375" height="44" opacity="0.2"/></g><g transform="translate(-22,-166) scale(1,1)"><rect fill="#ffffff" stroke="none" x="304" y="256" width="62.4599609375" height="44"/></g><g transform="translate(-22,-166) scale(1,1)"><path fill="none" stroke="#000000" d="M 304 256 L 366.4599609375 256 L 366.4599609375 300 L 304 300 L 304 256 Z Z" stroke-miterlimit="10"/></g><g transform="translate(-22,-166) scale(1,1)"><path fill="none" stroke="#000000" d="M 304 281 L 366.4599609375 281" stroke-miterlimit="10"/></g><g transform="translate(-22,-166) scale(1,1)"><path fill="none" stroke="#000000" d="M 304 291 L 366.4599609375 291" stroke-miterlimit="10"/></g><g transform="translate(-22,-166) scale(1,1)"><g><path fill="none" stroke="none"/><text fill="#000000" stroke="none" font-family="Arial" font-size="13px" font-style="normal" font-weight="bold" text-decoration="none" x="309.575927734375" y="275.5">Manager</text></g></g><g transform="translate(-22,-166) scale(1,1)"><rect fill="#C0C0C0" stroke="none" x="335" y="351" width="69.67724609375" height="44" opacity="0.2"/></g><g transform="translate(-22,-166) scale(1,1)"><rect fill="#ffffff" stroke="none" x="328" y="344" width="69.67724609375" height="44"/></g><g transform="translate(-22,-166) scale(1,1)"><path fill="none" stroke="#000000" d="M 328 344 L 397.67724609375 344 L 397.67724609375 388 L 328 388 L 328 344 Z Z" stroke-miterlimit="10"/></g><g transform="translate(-22,-166) scale(1,1)"><path fill="none" stroke="#000000" d="M 328 369 L 397.67724609375 369" stroke-miterlimit="10"/></g><g transform="translate(-22,-166) scale(1,1)"><path fill="none" stroke="#000000" d="M 328 379 L 397.67724609375 379" stroke-miterlimit="10"/></g><g transform="translate(-22,-166) scale(1,1)"><g><path fill="none" stroke="none"/><text fill="#000000" stroke="none" font-family="Arial" font-size="13px" font-style="normal" font-weight="bold" text-decoration="none" x="334.66455078125" y="363.5">Customer</text></g></g><g transform="translate(-22,-166) scale(1,1)"><rect fill="#C0C0C0" stroke="none" x="39" y="247" width="88.47265625" height="44" opacity="0.2"/></g><g transform="translate(-22,-166) scale(1,1)"><rect fill="#ffffff" stroke="none" x="32" y="240" width="88.47265625" height="44"/></g><g transform="translate(-22,-166) scale(1,1)"><path fill="none" stroke="#000000" d="M 32 240 L 120.47265625 240 L 120.47265625 284 L 32 284 L 32 240 Z Z" stroke-miterlimit="10"/></g><g transform="translate(-22,-166) scale(1,1)"><path fill="none" stroke="#000000" d="M 32 265 L 120.47265625 265" stroke-miterlimit="10"/></g><g transform="translate(-22,-166) scale(1,1)"><path fill="none" stroke="#000000" d="M 32 275 L 120.47265625 275" stroke-miterlimit="10"/></g><g transform="translate(-22,-166) scale(1,1)"><g><path fill="none" stroke="none"/><text fill="#000000" stroke="none" font-family="Arial" font-size="13px" font-style="normal" font-weight="bold" text-decoration="none" x="39.023193359375" y="259.5">Merchandise</text></g></g><g transform="translate(-22,-166) scale(1,1)"><rect fill="#C0C0C0" stroke="none" x="39" y="311" width="89.90087890625" height="44" opacity="0.2"/></g><g transform="translate(-22,-166) scale(1,1)"><rect fill="#ffffff" stroke="none" x="32" y="304" width="89.90087890625" height="44"/></g><g transform="translate(-22,-166) scale(1,1)"><path fill="none" stroke="#000000" d="M 32 304 L 121.90087890625 304 L 121.90087890625 348 L 32 348 L 32 304 Z Z" stroke-miterlimit="10"/></g><g transform="translate(-22,-166) scale(1,1)"><path fill="none" stroke="#000000" d="M 32 329 L 121.90087890625 329" stroke-miterlimit="10"/></g><g transform="translate(-22,-166) scale(1,1)"><path fill="none" stroke="#000000" d="M 32 339 L 121.90087890625 339" stroke-miterlimit="10"/></g><g transform="translate(-22,-166) scale(1,1)"><g><path fill="none" stroke="none"/><text fill="#000000" stroke="none" font-family="Arial" font-size="13px" font-style="normal" font-weight="bold" text-decoration="none" x="39.010498046875" y="323.5">StoreCatalog</text></g></g><g transform="translate(-22,-166) scale(1,1)"><rect fill="#C0C0C0" stroke="none" x="183" y="359" width="91.8369140625" height="44" opacity="0.2"/></g><g transform="translate(-22,-166) scale(1,1)"><rect fill="#ffffff" stroke="none" x="176" y="352" width="91.8369140625" height="44"/></g><g transform="translate(-22,-166) scale(1,1)"><path fill="none" stroke="#000000" d="M 176 352 L 267.8369140625 352 L 267.8369140625 396 L 176 396 L 176 352 Z Z" stroke-miterlimit="10"/></g><g transform="translate(-22,-166) scale(1,1)"><path fill="none" stroke="#000000" d="M 176 377 L 267.8369140625 377" stroke-miterlimit="10"/></g><g transform="translate(-22,-166) scale(1,1)"><path fill="none" stroke="#000000" d="M 176 387 L 267.8369140625 387" stroke-miterlimit="10"/></g><g transform="translate(-22,-166) scale(1,1)"><g><path fill="none" stroke="none"/><text fill="#000000" stroke="none" font-family="Arial" font-size="13px" font-style="normal" font-weight="bold" text-decoration="none" x="183.02001953125" y="371.5">StoreWebsite</text></g></g><g transform="translate(-22,-166) scale(1,1)"><path fill="none" stroke="#000000" d="M 227 271 L 230 221" stroke-miterlimit="10"/></g><g transform="translate(-22,-166) scale(1,1)"><g><path fill="none" stroke="none"/><text fill="#000000" stroke="none" font-family="Arial" font-size="13px" font-style="normal" font-weight="normal" text-decoration="none" x="235.5" y="270.5">1</text></g></g><g transform="translate(-22,-166) scale(1,1)"><g><path fill="none" stroke="none"/><text fill="#000000" stroke="none" font-family="Arial" font-size="13px" font-style="normal" font-weight="normal" text-decoration="none" x="231.5" y="249.5">1..*</text></g></g><g transform="translate(-22,-166) scale(1,1)"><path fill="none" stroke="#000000" d="M 158 221 L 204 271" stroke-miterlimit="10"/></g><g transform="translate(-22,-166) scale(1,1)"><g><path fill="none" stroke="none"/><text fill="#000000" stroke="none" font-family="Arial" font-size="13px" font-style="normal" font-weight="normal" text-decoration="none" x="152.5" y="237.5">1</text></g></g><g transform="translate(-22,-166) scale(1,1)"><g><path fill="none" stroke="none"/><text fill="#000000" stroke="none" font-family="Arial" font-size="13px" font-style="normal" font-weight="normal" text-decoration="none" x="170.5" y="269.5">1..*</text></g></g><g transform="translate(-22,-166) scale(1,1)"><path fill="none" stroke="#000000" d="M 252 290 L 303 283" stroke-miterlimit="10"/></g><g transform="translate(-22,-166) scale(1,1)"><g><path fill="none" stroke="none"/><text fill="#000000" stroke="none" font-family="Arial" font-size="13px" font-style="normal" font-weight="normal" text-decoration="none" x="259.5" y="307.5">1</text></g></g><g transform="translate(-22,-166) scale(1,1)"><g><path fill="none" stroke="none"/><text fill="#000000" stroke="none" font-family="Arial" font-size="13px" font-style="normal" font-weight="normal" text-decoration="none" x="286.5" y="300.5">1..*</text></g></g><g transform="translate(-22,-166) scale(1,1)"><path fill="none" stroke="#000000" d="M 252 308 L 327 348" stroke-miterlimit="10"/></g><g transform="translate(-22,-166) scale(1,1)"><path fill="none" stroke="#000000" d="M 262 221 L 305 255" stroke-miterlimit="10"/></g><g transform="translate(-22,-166) scale(1,1)"><path fill="none" stroke="#000000" d="M 199 288 L 121 272" stroke-miterlimit="10"/></g><g transform="translate(-22,-166) scale(1,1)"><path fill="none" stroke="#000000" d="M 199 300 L 123 316" stroke-miterlimit="10"/></g><g transform="translate(-22,-166) scale(1,1)"><path fill="none" stroke="#000000" d="M 224 317 L 222 351" stroke-miterlimit="10"/></g><g transform="translate(-22,-166) scale(1,1)"><path fill="none" stroke="#000000" d="M 274 198 L 319 198" stroke-miterlimit="10"/></g><g transform="translate(-22,-166) scale(1,1)"><g><path fill="none" stroke="none"/><text fill="#000000" stroke="none" font-family="Arial" font-size="13px" font-style="normal" font-weight="normal" text-decoration="none" x="281.5" y="215.5">1..*</text></g></g><g transform="translate(-22,-166) scale(1,1)"><g><path fill="none" stroke="none"/><text fill="#000000" stroke="none" font-family="Arial" font-size="13px" font-style="normal" font-weight="normal" text-decoration="none" x="298.5" y="221.5">1...*</text></g></g><g transform="translate(-22,-166) scale(1,1)"><rect fill="#C0C0C0" stroke="none" x="439" y="263" width="53.07177734375" height="44" opacity="0.2"/></g><g transform="translate(-22,-166) scale(1,1)"><rect fill="#ffffff" stroke="none" x="432" y="256" width="53.07177734375" height="44"/></g><g transform="translate(-22,-166) scale(1,1)"><path fill="none" stroke="#000000" d="M 432 256 L 485.07177734375 256 L 485.07177734375 300 L 432 300 L 432 256 Z Z" stroke-miterlimit="10"/></g><g transform="translate(-22,-166) scale(1,1)"><path fill="none" stroke="#000000" d="M 432 281 L 485.07177734375 281" stroke-miterlimit="10"/></g><g transform="translate(-22,-166) scale(1,1)"><path fill="none" stroke="#000000" d="M 432 291 L 485.07177734375 291" stroke-miterlimit="10"/></g><g transform="translate(-22,-166) scale(1,1)"><g><path fill="none" stroke="none"/><text fill="#000000" stroke="none" font-family="Arial" font-size="13px" font-style="normal" font-weight="bold" text-decoration="none" x="437.94091796875" y="275.5">Person</text></g></g><g transform="translate(-22,-166) scale(1,1)"><path fill="none" stroke="#000000" d="M 367 278 L 431 278" stroke-miterlimit="10"/></g><g transform="translate(-22,-166) scale(1,1)"><path fill="#FFFFFF" stroke="none" d="M 410.6746502847517 286.419035512032 L 431 278 L 410.6746502847517 269.580964487968"/></g><g transform="translate(-22,-166) scale(1,1)"><path fill="none" stroke="#000000" d="M 410.6746502847517 286.419035512032 L 431 278 L 410.6746502847517 269.580964487968 L 410.6746502847517 286.419035512032" stroke-miterlimit="10"/></g><g transform="translate(-22,-166) scale(1,1)"><path fill="none" stroke="#000000" d="M 387 343 L 433 301" stroke-miterlimit="10"/></g><g transform="translate(-22,-166) scale(1,1)"><path fill="#FFFFFF" stroke="none" d="M 423.6667217966438 320.922096224513 L 433 301 L 412.3133263559022 308.48742502751026"/></g><g transform="translate(-22,-166) scale(1,1)"><path fill="none" stroke="#000000" d="M 423.6667217966438 320.922096224513 L 433 301 L 412.3133263559022 308.48742502751026 L 423.6667217966438 320.922096224513" stroke-miterlimit="10"/></g><g transform="translate(-22,-166) scale(1,1)"><path fill="none" stroke="#000000" d="M 390 221 L 431 255" stroke-miterlimit="10"/></g><g transform="translate(-22,-166) scale(1,1)"><path fill="#FFFFFF" stroke="none" d="M 409.9802279041878 248.50621981892547 L 431 255 L 420.72857261362805 235.54498061048284"/></g><g transform="translate(-22,-166) scale(1,1)"><path fill="none" stroke="#000000" d="M 409.9802279041878 248.50621981892547 L 431 255 L 420.72857261362805 235.54498061048284 L 409.9802279041878 248.50621981892547" stroke-miterlimit="10"/></g><g transform="translate(-22,-166) scale(1,1)"><rect fill="#C0C0C0" stroke="none" x="535" y="255" width="81.96630859375" height="44" opacity="0.2"/></g><g transform="translate(-22,-166) scale(1,1)"><rect fill="#ffffff" stroke="none" x="528" y="248" width="81.96630859375" height="44"/></g><g transform="translate(-22,-166) scale(1,1)"><path fill="none" stroke="#000000" d="M 528 248 L 609.96630859375 248 L 609.96630859375 292 L 528 292 L 528 248 Z Z" stroke-miterlimit="10"/></g><g transform="translate(-22,-166) scale(1,1)"><path fill="none" stroke="#000000" d="M 528 273 L 609.96630859375 273" stroke-miterlimit="10"/></g><g transform="translate(-22,-166) scale(1,1)"><path fill="none" stroke="#000000" d="M 528 283 L 609.96630859375 283" stroke-miterlimit="10"/></g><g transform="translate(-22,-166) scale(1,1)"><g><path fill="none" stroke="none"/><text fill="#000000" stroke="none" font-family="Arial" font-size="13px" font-style="normal" font-weight="bold" text-decoration="none" x="535.264404296875" y="267.5">Transaction</text></g></g><g transform="translate(-22,-166) scale(1,1)"><path fill="none" stroke="#000000" d="M 398 344 L 496 344 L 496 192 L 407 192" stroke-miterlimit="10"/></g><g transform="translate(-22,-166) scale(1,1)"><path fill="none" stroke="#000000" d="M 527 269 L 496 268" stroke-miterlimit="10" stroke-dasharray="3"/></g></g></svg>