<svg version="1.1" xmlns="http://www.w3.org/2000/svg" xmlns:xlink="http://www.w3.org/1999/xlink" width="400.078125" height="198"><defs/><g><g transform="translate(-62,-69) scale(1,1)"><rect fill="#C0C0C0" stroke="none" x="79" y="93" width="50.919921875" height="44" opacity="0.2"/></g><g transform="translate(-62,-69) scale(1,1)"><rect fill="#ffffff" stroke="none" x="72" y="86" width="50.919921875" height="44"/></g><g transform="translate(-62,-69) scale(1,1)"><path fill="none" stroke="#000000" d="M 72 86 L 122.919921875 86 L 122.919921875 130 L 72 130 L 72 86 Z Z" stroke-miterlimit="10"/></g><g transform="translate(-62,-69) scale(1,1)"><path fill="none" stroke="#000000" d="M 72 111 L 122.919921875 111" stroke-miterlimit="10"/></g><g transform="translate(-62,-69) scale(1,1)"><path fill="none" stroke="#000000" d="M 72 121 L 122.919921875 121" stroke-miterlimit="10"/></g><g transform="translate(-62,-69) scale(1,1)"><g><path fill="none" stroke="none"/><text fill="#000000" stroke="none" font-family="Arial" font-size="13px" font-style="normal" font-weight="bold" text-decoration="none" x="82.64453125" y="105.5">Bank</text></g></g><g transform="translate(-62,-69) scale(1,1)"><rect fill="#C0C0C0" stroke="none" x="239" y="87" width="89.57080078125" height="57" opacity="0.2"/></g><g transform="translate(-62,-69) scale(1,1)"><rect fill="#ffffff" stroke="none" x="232" y="80" width="89.57080078125" height="57"/></g><g transform="translate(-62,-69) scale(1,1)"><path fill="none" stroke="#000000" d="M 232 80 L 321.57080078125 80 L 321.57080078125 137 L 232 137 L 232 80 Z Z" stroke-miterlimit="10"/></g><g transform="translate(-62,-69) scale(1,1)"><path fill="none" stroke="#000000" d="M 232 105 L 321.57080078125 105" stroke-miterlimit="10"/></g><g transform="translate(-62,-69) scale(1,1)"><path fill="none" stroke="#000000" d="M 232 115 L 321.57080078125 115" stroke-miterlimit="10"/></g><g transform="translate(-62,-69) scale(1,1)"><g><path fill="none" stroke="none"/><text fill="#000000" stroke="none" font-family="Arial" font-size="13px" font-style="italic" font-weight="bold" text-decoration="none" x="253.299072265625" y="99.5">Account</text></g></g><g transform="translate(-62,-69) scale(1,1)"><g><path fill="none" stroke="none"/><text fill="#000000" stroke="none" font-family="Arial" font-size="13px" font-style="italic" font-weight="normal" text-decoration="none" x="237" y="132.5">+audit()</text></g></g><g transform="translate(-62,-69) scale(1,1)"><rect fill="#C0C0C0" stroke="none" x="151" y="207" width="89.57080078125" height="57" opacity="0.2"/></g><g transform="translate(-62,-69) scale(1,1)"><rect fill="#ffffff" stroke="none" x="144" y="200" width="89.57080078125" height="57"/></g><g transform="translate(-62,-69) scale(1,1)"><path fill="none" stroke="#000000" d="M 144 200 L 233.57080078125 200 L 233.57080078125 257 L 144 257 L 144 200 Z Z" stroke-miterlimit="10"/></g><g transform="translate(-62,-69) scale(1,1)"><path fill="none" stroke="#000000" d="M 144 225 L 233.57080078125 225" stroke-miterlimit="10"/></g><g transform="translate(-62,-69) scale(1,1)"><path fill="none" stroke="#000000" d="M 144 235 L 233.57080078125 235" stroke-miterlimit="10"/></g><g transform="translate(-62,-69) scale(1,1)"><g><path fill="none" stroke="none"/><text fill="#000000" stroke="none" font-family="Arial" font-size="13px" font-style="normal" font-weight="bold" text-decoration="none" x="161.687255859375" y="219.5">Checking</text></g></g><g transform="translate(-62,-69) scale(1,1)"><g><path fill="none" stroke="none"/><text fill="#000000" stroke="none" font-family="Arial" font-size="13px" font-style="normal" font-weight="normal" text-decoration="none" x="149" y="252.5">+audit()</text></g></g><g transform="translate(-62,-69) scale(1,1)"><rect fill="#C0C0C0" stroke="none" x="255" y="207" width="89.57080078125" height="57" opacity="0.2"/></g><g transform="translate(-62,-69) scale(1,1)"><rect fill="#ffffff" stroke="none" x="248" y="200" width="89.57080078125" height="57"/></g><g transform="translate(-62,-69) scale(1,1)"><path fill="none" stroke="#000000" d="M 248 200 L 337.57080078125 200 L 337.57080078125 257 L 248 257 L 248 200 Z Z" stroke-miterlimit="10"/></g><g transform="translate(-62,-69) scale(1,1)"><path fill="none" stroke="#000000" d="M 248 225 L 337.57080078125 225" stroke-miterlimit="10"/></g><g transform="translate(-62,-69) scale(1,1)"><path fill="none" stroke="#000000" d="M 248 235 L 337.57080078125 235" stroke-miterlimit="10"/></g><g transform="translate(-62,-69) scale(1,1)"><g><path fill="none" stroke="none"/><text fill="#000000" stroke="none" font-family="Arial" font-size="13px" font-style="normal" font-weight="bold" text-decoration="none" x="269.660888671875" y="219.5">Savings</text></g></g><g transform="translate(-62,-69) scale(1,1)"><g><path fill="none" stroke="none"/><text fill="#000000" stroke="none" font-family="Arial" font-size="13px" font-style="normal" font-weight="normal" text-decoration="none" x="253" y="252.5">+audit()</text></g></g><g transform="translate(-62,-69) scale(1,1)"><rect fill="#C0C0C0" stroke="none" x="367" y="207" width="92.078125" height="57" opacity="0.2"/></g><g transform="translate(-62,-69) scale(1,1)"><rect fill="#ffffff" stroke="none" x="360" y="200" width="92.078125" height="57"/></g><g transform="translate(-62,-69) scale(1,1)"><path fill="none" stroke="#000000" d="M 360 200 L 452.078125 200 L 452.078125 257 L 360 257 L 360 200 Z Z" stroke-miterlimit="10"/></g><g transform="translate(-62,-69) scale(1,1)"><path fill="none" stroke="#000000" d="M 360 225 L 452.078125 225" stroke-miterlimit="10"/></g><g transform="translate(-62,-69) scale(1,1)"><path fill="none" stroke="#000000" d="M 360 235 L 452.078125 235" stroke-miterlimit="10"/></g><g transform="translate(-62,-69) scale(1,1)"><g><path fill="none" stroke="none"/><text fill="#000000" stroke="none" font-family="Arial" font-size="13px" font-style="normal" font-weight="bold" text-decoration="none" x="366.66455078125" y="219.5">MoneyMarket</text></g></g><g transform="translate(-62,-69) scale(1,1)"><g><path fill="none" stroke="none"/><text fill="#000000" stroke="none" font-family="Arial" font-size="13px" font-style="normal" font-weight="normal" text-decoration="none" x="365" y="252.5">+audit()</text></g></g><g transform="translate(-62,-69) scale(1,1)"><path fill="none" stroke="#000000" d="M 177 200 L 177 176 L 277 176 L 277 137" stroke-miterlimit="10"/></g><g transform="translate(-62,-69) scale(1,1)"><path fill="#FFFFFF" stroke="none" d="M 285.419035512032 157.3253497152483 L 277 137 L 268.580964487968 157.3253497152483"/></g><g transform="translate(-62,-69) scale(1,1)"><path fill="none" stroke="#000000" d="M 285.419035512032 157.3253497152483 L 277 137 L 268.580964487968 157.3253497152483 L 285.419035512032 157.3253497152483" stroke-miterlimit="10"/></g><g transform="translate(-62,-69) scale(1,1)"><path fill="none" stroke="#000000" d="M 277 200 L 277 137" stroke-miterlimit="10"/></g><g transform="translate(-62,-69) scale(1,1)"><path fill="#FFFFFF" stroke="none" d="M 285.419035512032 157.3253497152483 L 277 137 L 268.580964487968 157.3253497152483"/></g><g transform="translate(-62,-69) scale(1,1)"><path fill="none" stroke="#000000" d="M 285.419035512032 157.3253497152483 L 277 137 L 268.580964487968 157.3253497152483 L 285.419035512032 157.3253497152483" stroke-miterlimit="10"/></g><g transform="translate(-62,-69) scale(1,1)"><path fill="none" stroke="#000000" d="M 382 200 L 382 176 L 277 176 L 277 137" stroke-miterlimit="10"/></g><g transform="translate(-62,-69) scale(1,1)"><path fill="#FFFFFF" stroke="none" d="M 285.419035512032 157.3253497152483 L 277 137 L 268.580964487968 157.3253497152483"/></g><g transform="translate(-62,-69) scale(1,1)"><path fill="none" stroke="#000000" d="M 285.419035512032 157.3253497152483 L 277 137 L 268.580964487968 157.3253497152483 L 285.419035512032 157.3253497152483" stroke-miterlimit="10"/></g><g transform="translate(-62,-69) scale(1,1)"><path fill="none" stroke="#000000" d="M 124 108 L 231 108" stroke-miterlimit="10"/></g><g transform="translate(-62,-69) scale(1,1)"><g><path fill="none" stroke="none"/><text fill="#000000" stroke="none" font-family="Arial" font-size="13px" font-style="normal" font-weight="normal" text-decoration="none" x="131.680908203125" y="131.5">#bank</text></g></g><g transform="translate(-62,-69) scale(1,1)"><g><path fill="none" stroke="none"/><text fill="#000000" stroke="none" font-family="Arial" font-size="13px" font-style="normal" font-weight="normal" text-decoration="none" x="127.5" y="100.5">1</text></g></g><g transform="translate(-62,-69) scale(1,1)"><g><path fill="none" stroke="none"/><text fill="#000000" stroke="none" font-family="Arial" font-size="13px" font-style="normal" font-weight="normal" text-decoration="none" x="169.13134765625" y="91.5">-accounts</text></g></g><g transform="translate(-62,-69) scale(1,1)"><g><path fill="none" stroke="none"/><text fill="#000000" stroke="none" font-family="Arial" font-size="13px" font-style="normal" font-weight="normal" text-decoration="none" x="199.5" y="126.5">1..*</text></g></g></g></svg>