<svg version="1.1" xmlns="http://www.w3.org/2000/svg" xmlns:xlink="http://www.w3.org/1999/xlink" width="528.5908203125" height="393"><defs/><g><g transform="translate(-142,-165) scale(1,1)"><rect fill="#ffffff" stroke="none" x="152" y="175" width="159.6806640625" height="130"/></g><g transform="translate(-142,-165) scale(1,1)"><path fill="none" stroke="#000000" d="M 152 175 L 311.6806640625 175 L 311.6806640625 305 L 152 305 L 152 175 Z Z" stroke-miterlimit="10"/></g><g transform="translate(-142,-165) scale(1,1)"><path fill="none" stroke="#000000" d="M 152 200 L 311.6806640625 200" stroke-miterlimit="10"/></g><g transform="translate(-142,-165) scale(1,1)"><path fill="none" stroke="#000000" d="M 152 268 L 311.6806640625 268" stroke-miterlimit="10"/></g><g transform="translate(-142,-165) scale(1,1)"><g><path fill="none" stroke="none"/><text fill="#000000" stroke="none" font-family="Arial" font-size="13px" font-style="normal" font-weight="bold" text-decoration="none" x="215.225341796875" y="194.5">Order</text></g></g><g transform="translate(-142,-165) scale(1,1)"><g><path fill="none" stroke="none"/><text fill="#000000" stroke="none" font-family="Arial" font-size="13px" font-style="normal" font-weight="normal" text-decoration="none" x="157" y="217.5">-dateReceived: Date[0..1]</text></g></g><g transform="translate(-142,-165) scale(1,1)"><g><path fill="none" stroke="none"/><text fill="#000000" stroke="none" font-family="Arial" font-size="13px" font-style="normal" font-weight="normal" text-decoration="none" x="157" y="232.5">-isPrepaid: Boolean[1]</text></g></g><g transform="translate(-142,-165) scale(1,1)"><g><path fill="none" stroke="none"/><text fill="#000000" stroke="none" font-family="Arial" font-size="13px" font-style="normal" font-weight="normal" text-decoration="none" x="157" y="247.5">-number: String[1]</text></g></g><g transform="translate(-142,-165) scale(1,1)"><g><path fill="none" stroke="none"/><text fill="#000000" stroke="none" font-family="Arial" font-size="13px" font-style="normal" font-weight="normal" text-decoration="none" x="157" y="262.5">-price: Money</text></g></g><g transform="translate(-142,-165) scale(1,1)"><g><path fill="none" stroke="none"/><text fill="#000000" stroke="none" font-family="Arial" font-size="13px" font-style="normal" font-weight="normal" text-decoration="none" x="157" y="285.5">+dispatch()</text></g></g><g transform="translate(-142,-165) scale(1,1)"><g><path fill="none" stroke="none"/><text fill="#000000" stroke="none" font-family="Arial" font-size="13px" font-style="normal" font-weight="normal" text-decoration="none" x="157" y="300.5">+close()</text></g></g><g transform="translate(-142,-165) scale(1,1)"><rect fill="#ffffff" stroke="none" x="440" y="198" width="156.7607421875" height="85"/></g><g transform="translate(-142,-165) scale(1,1)"><path fill="none" stroke="#000000" d="M 440 198 L 596.7607421875 198 L 596.7607421875 283 L 440 283 L 440 198 Z Z" stroke-miterlimit="10"/></g><g transform="translate(-142,-165) scale(1,1)"><path fill="none" stroke="#000000" d="M 440 223 L 596.7607421875 223" stroke-miterlimit="10"/></g><g transform="translate(-142,-165) scale(1,1)"><path fill="none" stroke="#000000" d="M 440 261 L 596.7607421875 261" stroke-miterlimit="10"/></g><g transform="translate(-142,-165) scale(1,1)"><g><path fill="none" stroke="none"/><text fill="#000000" stroke="none" font-family="Arial" font-size="13px" font-style="normal" font-weight="bold" text-decoration="none" x="490.206298828125" y="217.5">Customer</text></g></g><g transform="translate(-142,-165) scale(1,1)"><g><path fill="none" stroke="none"/><text fill="#000000" stroke="none" font-family="Arial" font-size="13px" font-style="normal" font-weight="normal" text-decoration="none" x="445" y="240.5">-name [1]</text></g></g><g transform="translate(-142,-165) scale(1,1)"><g><path fill="none" stroke="none"/><text fill="#000000" stroke="none" font-family="Arial" font-size="13px" font-style="normal" font-weight="normal" text-decoration="none" x="445" y="255.5">-address [0..1]</text></g></g><g transform="translate(-142,-165) scale(1,1)"><g><path fill="none" stroke="none"/><text fill="#000000" stroke="none" font-family="Arial" font-size="13px" font-style="normal" font-weight="normal" text-decoration="none" x="445" y="278.5">+getCreditRating(): String</text></g></g><g transform="translate(-142,-165) scale(1,1)"><rect fill="#ffffff" stroke="none" x="177" y="376" width="109.81982421875" height="72"/></g><g transform="translate(-142,-165) scale(1,1)"><path fill="none" stroke="#000000" d="M 177 376 L 286.81982421875 376 L 286.81982421875 448 L 177 448 L 177 376 Z Z" stroke-miterlimit="10"/></g><g transform="translate(-142,-165) scale(1,1)"><path fill="none" stroke="#000000" d="M 177 401 L 286.81982421875 401" stroke-miterlimit="10"/></g><g transform="translate(-142,-165) scale(1,1)"><path fill="none" stroke="#000000" d="M 177 439 L 286.81982421875 439" stroke-miterlimit="10"/></g><g transform="translate(-142,-165) scale(1,1)"><g><path fill="none" stroke="none"/><text fill="#000000" stroke="none" font-family="Arial" font-size="13px" font-style="normal" font-weight="bold" text-decoration="none" x="203.005859375" y="395.5">OrderLine</text></g></g><g transform="translate(-142,-165) scale(1,1)"><g><path fill="none" stroke="none"/><text fill="#000000" stroke="none" font-family="Arial" font-size="13px" font-style="normal" font-weight="normal" text-decoration="none" x="182" y="418.5">+quantity: Integer</text></g></g><g transform="translate(-142,-165) scale(1,1)"><g><path fill="none" stroke="none"/><text fill="#000000" stroke="none" font-family="Arial" font-size="13px" font-style="normal" font-weight="normal" text-decoration="none" x="182" y="433.5">+price: Money</text></g></g><g transform="translate(-142,-165) scale(1,1)"><rect fill="#ffffff" stroke="none" x="202" y="504" width="58.11181640625" height="44"/></g><g transform="translate(-142,-165) scale(1,1)"><path fill="none" stroke="#000000" d="M 202 504 L 260.11181640625 504 L 260.11181640625 548 L 202 548 L 202 504 Z Z" stroke-miterlimit="10"/></g><g transform="translate(-142,-165) scale(1,1)"><path fill="none" stroke="#000000" d="M 202 529 L 260.11181640625 529" stroke-miterlimit="10"/></g><g transform="translate(-142,-165) scale(1,1)"><path fill="none" stroke="#000000" d="M 202 539 L 260.11181640625 539" stroke-miterlimit="10"/></g><g transform="translate(-142,-165) scale(1,1)"><g><path fill="none" stroke="none"/><text fill="#000000" stroke="none" font-family="Arial" font-size="13px" font-style="normal" font-weight="bold" text-decoration="none" x="208.655029296875" y="523.5">Product</text></g></g><g transform="translate(-142,-165) scale(1,1)"><rect fill="#ffffff" stroke="none" x="384" y="344" width="137.248046875" height="115"/></g><g transform="translate(-142,-165) scale(1,1)"><path fill="none" stroke="#000000" d="M 384 344 L 521.248046875 344 L 521.248046875 459 L 384 459 L 384 344 Z Z" stroke-miterlimit="10"/></g><g transform="translate(-142,-165) scale(1,1)"><path fill="none" stroke="#000000" d="M 384 369 L 521.248046875 369" stroke-miterlimit="10"/></g><g transform="translate(-142,-165) scale(1,1)"><path fill="none" stroke="#000000" d="M 384 422 L 521.248046875 422" stroke-miterlimit="10"/></g><g transform="translate(-142,-165) scale(1,1)"><g><path fill="none" stroke="none"/><text fill="#000000" stroke="none" font-family="Arial" font-size="13px" font-style="normal" font-weight="bold" text-decoration="none" x="395.5458984375" y="363.5">CorporateCustomer</text></g></g><g transform="translate(-142,-165) scale(1,1)"><g><path fill="none" stroke="none"/><text fill="#000000" stroke="none" font-family="Arial" font-size="13px" font-style="normal" font-weight="normal" text-decoration="none" x="389" y="386.5">-contactName</text></g></g><g transform="translate(-142,-165) scale(1,1)"><g><path fill="none" stroke="none"/><text fill="#000000" stroke="none" font-family="Arial" font-size="13px" font-style="normal" font-weight="normal" text-decoration="none" x="389" y="401.5">-creditRating</text></g></g><g transform="translate(-142,-165) scale(1,1)"><g><path fill="none" stroke="none"/><text fill="#000000" stroke="none" font-family="Arial" font-size="13px" font-style="normal" font-weight="normal" text-decoration="none" x="389" y="416.5">-creditLimit</text></g></g><g transform="translate(-142,-165) scale(1,1)"><g><path fill="none" stroke="none"/><text fill="#000000" stroke="none" font-family="Arial" font-size="13px" font-style="normal" font-weight="normal" text-decoration="none" x="389" y="439.5">+billForMonth(Integer)</text></g></g><g transform="translate(-142,-165) scale(1,1)"><g><path fill="none" stroke="none"/><text fill="#000000" stroke="none" font-family="Arial" font-size="13px" font-style="normal" font-weight="normal" text-decoration="none" x="389" y="454.5">+remind()</text></g></g><g transform="translate(-142,-165) scale(1,1)"><rect fill="#ffffff" stroke="none" x="536" y="344" width="124.5908203125" height="57"/></g><g transform="translate(-142,-165) scale(1,1)"><path fill="none" stroke="#000000" d="M 536 344 L 660.5908203125 344 L 660.5908203125 401 L 536 401 L 536 344 Z Z" stroke-miterlimit="10"/></g><g transform="translate(-142,-165) scale(1,1)"><path fill="none" stroke="#000000" d="M 536 369 L 660.5908203125 369" stroke-miterlimit="10"/></g><g transform="translate(-142,-165) scale(1,1)"><path fill="none" stroke="#000000" d="M 536 392 L 660.5908203125 392" stroke-miterlimit="10"/></g><g transform="translate(-142,-165) scale(1,1)"><g><path fill="none" stroke="none"/><text fill="#000000" stroke="none" font-family="Arial" font-size="13px" font-style="normal" font-weight="bold" text-decoration="none" x="544.46728515625" y="363.5">PersonalCustomer</text></g></g><g transform="translate(-142,-165) scale(1,1)"><g><path fill="none" stroke="none"/><text fill="#000000" stroke="none" font-family="Arial" font-size="13px" font-style="normal" font-weight="normal" text-decoration="none" x="541" y="386.5">-creditCardNumber</text></g></g><g transform="translate(-142,-165) scale(1,1)"><rect fill="#ffffff" stroke="none" x="417" y="504" width="70.41357421875" height="44"/></g><g transform="translate(-142,-165) scale(1,1)"><path fill="none" stroke="#000000" d="M 417 504 L 487.41357421875 504 L 487.41357421875 548 L 417 548 L 417 504 Z Z" stroke-miterlimit="10"/></g><g transform="translate(-142,-165) scale(1,1)"><path fill="none" stroke="#000000" d="M 417 529 L 487.41357421875 529" stroke-miterlimit="10"/></g><g transform="translate(-142,-165) scale(1,1)"><path fill="none" stroke="#000000" d="M 417 539 L 487.41357421875 539" stroke-miterlimit="10"/></g><g transform="translate(-142,-165) scale(1,1)"><g><path fill="none" stroke="none"/><text fill="#000000" stroke="none" font-family="Arial" font-size="13px" font-style="normal" font-weight="bold" text-decoration="none" x="423.302734375" y="523.5">Employee</text></g></g><g transform="translate(-142,-165) scale(1,1)"><path fill="none" stroke="#000000" d="M 313 240 L 439 240" stroke-miterlimit="10"/></g><g transform="translate(-142,-165) scale(1,1)"><path fill="none" stroke="#000000" d="M 428.83732514237585 244.209517756016 L 439 240 L 428.83732514237585 235.790482243984" stroke-miterlimit="10"/></g><g transform="translate(-142,-165) scale(1,1)"><g><path fill="none" stroke="none"/><text fill="#000000" stroke="none" font-family="Arial" font-size="13px" font-style="normal" font-weight="normal" text-decoration="none" x="331.5" y="258.5">*</text></g></g><g transform="translate(-142,-165) scale(1,1)"><g><path fill="none" stroke="none"/><text fill="#000000" stroke="none" font-family="Arial" font-size="13px" font-style="normal" font-weight="normal" text-decoration="none" x="413.5" y="258.5">1</text></g></g><g transform="translate(-142,-165) scale(1,1)"><path fill="none" stroke="#000000" d="M 231 306 L 231 375" stroke-miterlimit="10"/></g><g transform="translate(-142,-165) scale(1,1)"><path fill="none" stroke="#000000" d="M 226.790482243984 364.83732514237585 L 231 375 L 235.209517756016 364.83732514237585" stroke-miterlimit="10"/></g><g transform="translate(-142,-165) scale(1,1)"><g><path fill="none" stroke="none"/><text fill="#000000" stroke="none" font-family="Arial" font-size="13px" font-style="normal" font-weight="normal" text-decoration="none" x="214.5" y="333.5">1</text></g></g><g transform="translate(-142,-165) scale(1,1)"><g><path fill="none" stroke="none"/><text fill="#000000" stroke="none" font-family="Arial" font-size="13px" font-style="normal" font-weight="normal" text-decoration="none" x="168.13134765625" y="369.5">-lineItems</text></g></g><g transform="translate(-142,-165) scale(1,1)"><g><path fill="none" stroke="none"/><text fill="#000000" stroke="none" font-family="Arial" font-size="13px" font-style="normal" font-weight="normal" text-decoration="none" x="254.5" y="374.5">{ordered}</text></g></g><g transform="translate(-142,-165) scale(1,1)"><g><path fill="none" stroke="none"/><text fill="#000000" stroke="none" font-family="Arial" font-size="13px" font-style="normal" font-weight="normal" text-decoration="none" x="240.470458984375" y="372.5">*</text></g></g><g transform="translate(-142,-165) scale(1,1)"><path fill="none" stroke="#000000" d="M 231 449 L 231 503" stroke-miterlimit="10"/></g><g transform="translate(-142,-165) scale(1,1)"><path fill="none" stroke="#000000" d="M 226.790482243984 492.83732514237585 L 231 503 L 235.209517756016 492.83732514237585" stroke-miterlimit="10"/></g><g transform="translate(-142,-165) scale(1,1)"><g><path fill="none" stroke="none"/><text fill="#000000" stroke="none" font-family="Arial" font-size="13px" font-style="normal" font-weight="normal" text-decoration="none" x="215.5" y="476.5">*</text></g></g><g transform="translate(-142,-165) scale(1,1)"><g><path fill="none" stroke="none"/><text fill="#000000" stroke="none" font-family="Arial" font-size="13px" font-style="normal" font-weight="normal" text-decoration="none" x="239.5" y="500.5">1</text></g></g><g transform="translate(-142,-165) scale(1,1)"><path fill="none" stroke="#000000" d="M 452 460 L 452 503" stroke-miterlimit="10"/></g><g transform="translate(-142,-165) scale(1,1)"><path fill="none" stroke="#000000" d="M 447.790482243984 492.83732514237585 L 452 503 L 456.209517756016 492.83732514237585" stroke-miterlimit="10"/></g><g transform="translate(-142,-165) scale(1,1)"><g><path fill="none" stroke="none"/><text fill="#000000" stroke="none" font-family="Arial" font-size="13px" font-style="normal" font-weight="normal" text-decoration="none" x="456.5" y="499.5">-salesRep</text></g></g><g transform="translate(-142,-165) scale(1,1)"><g><path fill="none" stroke="none"/><text fill="#000000" stroke="none" font-family="Arial" font-size="13px" font-style="normal" font-weight="normal" text-decoration="none" x="417.5" y="500.5">0..1</text></g></g><g transform="translate(-142,-165) scale(1,1)"><path fill="none" stroke="#000000" d="M 449 344 L 449 318 L 523 318 L 523 283" stroke-miterlimit="10"/></g><g transform="translate(-142,-165) scale(1,1)"><path fill="#FFFFFF" stroke="none" d="M 531.419035512032 303.3253497152483 L 523 283 L 514.580964487968 303.3253497152483"/></g><g transform="translate(-142,-165) scale(1,1)"><path fill="none" stroke="#000000" d="M 531.419035512032 303.3253497152483 L 523 283 L 514.580964487968 303.3253497152483 L 531.419035512032 303.3253497152483" stroke-miterlimit="10"/></g><g transform="translate(-142,-165) scale(1,1)"><path fill="none" stroke="#000000" d="M 598 344 L 598 318 L 523 318 L 523 283" stroke-miterlimit="10"/></g><g transform="translate(-142,-165) scale(1,1)"><path fill="#FFFFFF" stroke="none" d="M 531.419035512032 303.3253497152483 L 523 283 L 514.580964487968 303.3253497152483"/></g><g transform="translate(-142,-165) scale(1,1)"><path fill="none" stroke="#000000" d="M 531.419035512032 303.3253497152483 L 523 283 L 514.580964487968 303.3253497152483 L 531.419035512032 303.3253497152483" stroke-miterlimit="10"/></g></g></svg>