<svg version="1.1" xmlns="http://www.w3.org/2000/svg" xmlns:xlink="http://www.w3.org/1999/xlink" width="321.74267578125" height="312"><defs/><g><g transform="translate(-56,-30) scale(1,1)"><rect fill="#C0C0C0" stroke="none" x="143" y="47" width="82.57177734375" height="39" opacity="0.2"/></g><g transform="translate(-56,-30) scale(1,1)"><rect fill="#ffffff" stroke="none" x="136" y="40" width="82.57177734375" height="39"/></g><g transform="translate(-56,-30) scale(1,1)"><path fill="none" stroke="#000000" d="M 136 40 L 218.57177734375 40 L 218.57177734375 79 L 136 79 L 136 40 Z Z" stroke-miterlimit="10"/></g><g transform="translate(-56,-30) scale(1,1)"><g><path fill="none" stroke="none"/><text fill="#000000" stroke="none" font-family="Arial" font-size="13px" font-style="normal" font-weight="bold" text-decoration="none" x="147.29638671875" y="59.5">_: Handler</text></g></g><g transform="translate(-56,-30) scale(1,1)"><path fill="none" stroke="#000000" d="M 178.5 80 L 178.5 332" stroke-miterlimit="10" stroke-dasharray="3"/></g><g transform="translate(-56,-30) scale(1,1)"><path fill="#000000" stroke="none" d="M 66 99.5 C 66 95.6340064 69.1340064 92.5 73 92.5 C 76.8659936 92.5 80 95.6340064 80 99.5 C 80 103.3659936 76.8659936 106.5 73 106.5 C 69.1340064 106.5 66 103.3659936 66 99.5 Z"/></g><g transform="translate(-56,-30) scale(1,1)"><rect fill="#C0C0C0" stroke="none" x="303" y="132" width="71.74267578125" height="39" opacity="0.2"/></g><g transform="translate(-56,-30) scale(1,1)"><rect fill="#ffffff" stroke="none" x="296" y="125" width="71.74267578125" height="39"/></g><g transform="translate(-56,-30) scale(1,1)"><path fill="none" stroke="#000000" d="M 296 125 L 367.74267578125 125 L 367.74267578125 164 L 296 164 L 296 125 Z Z" stroke-miterlimit="10"/></g><g transform="translate(-56,-30) scale(1,1)"><g><path fill="none" stroke="none"/><text fill="#000000" stroke="none" font-family="Arial" font-size="13px" font-style="normal" font-weight="bold" text-decoration="none" x="306.944091796875" y="144.5">_: Query</text></g></g><g transform="translate(-56,-30) scale(1,1)"><path fill="none" stroke="#000000" d="M 332.5 165 L 332.5 332" stroke-miterlimit="10" stroke-dasharray="3"/></g><g transform="translate(-56,-30) scale(1,1)"><path fill="none" stroke="#000000" d="M 80 100 L 171 100" stroke-miterlimit="10"/></g><g transform="translate(-56,-30) scale(1,1)"><path fill="#000000" stroke="none" d="M 160.83732514237585 104.20951775601598 L 171 100 L 160.83732514237585 95.79048224398402"/></g><g transform="translate(-56,-30) scale(1,1)"><path fill="none" stroke="#000000" d="M 160.83732514237585 104.20951775601598 L 171 100 L 160.83732514237585 95.79048224398402 L 160.83732514237585 104.20951775601598" stroke-miterlimit="10"/></g><g transform="translate(-56,-30) scale(1,1)"><g><path fill="none" stroke="none"/><text fill="#000000" stroke="none" font-family="Arial" font-size="13px" font-style="normal" font-weight="normal" text-decoration="none" x="90.200439453125" y="96.5">1 : queryDB</text></g></g><g transform="translate(-56,-30) scale(1,1)"><rect fill="#ffffff" stroke="none" x="171" y="100" width="13" height="196"/></g><g transform="translate(-56,-30) scale(1,1)"><path fill="none" stroke="#000000" d="M 171 100 L 184 100 L 184 296 L 171 296 L 171 100 Z Z" stroke-miterlimit="10"/></g><g transform="translate(-56,-30) scale(1,1)"><path fill="none" stroke="#000000" d="M 184 145 L 296 145" stroke-miterlimit="10" stroke-dasharray="3"/></g><g transform="translate(-56,-30) scale(1,1)"><path fill="none" stroke="#000000" d="M 285.83732514237585 149.209517756016 L 296 145 L 285.83732514237585 140.790482243984" stroke-miterlimit="10"/></g><g transform="translate(-56,-30) scale(1,1)"><g><path fill="none" stroke="none"/><text fill="#000000" stroke="none" font-family="Arial" font-size="13px" font-style="normal" font-weight="normal" text-decoration="none" x="218.5654296875" y="141.5">2 : new</text></g></g><g transform="translate(-56,-30) scale(1,1)"><g><path fill="none" stroke="none"/><text fill="#000000" stroke="none" font-family="Arial" font-size="13px" font-style="normal" font-weight="normal" text-decoration="none" x="214.5" y="126.5">«create»</text></g></g><g transform="translate(-56,-30) scale(1,1)"><path fill="none" stroke="#000000" d="M 184 212 L 325 212" stroke-miterlimit="10"/></g><g transform="translate(-56,-30) scale(1,1)"><path fill="#000000" stroke="none" d="M 314.83732514237585 216.209517756016 L 325 212 L 314.83732514237585 207.790482243984"/></g><g transform="translate(-56,-30) scale(1,1)"><path fill="none" stroke="#000000" d="M 314.83732514237585 216.209517756016 L 325 212 L 314.83732514237585 207.790482243984 L 314.83732514237585 216.209517756016" stroke-miterlimit="10"/></g><g transform="translate(-56,-30) scale(1,1)"><g><path fill="none" stroke="none"/><text fill="#000000" stroke="none" font-family="Arial" font-size="13px" font-style="normal" font-weight="normal" text-decoration="none" x="221.7236328125" y="208.5">3 : execute</text></g></g><g transform="translate(-56,-30) scale(1,1)"><rect fill="#ffffff" stroke="none" x="325" y="212" width="13" height="28"/></g><g transform="translate(-56,-30) scale(1,1)"><path fill="none" stroke="#000000" d="M 325 212 L 338 212 L 338 240 L 325 240 L 325 212 Z Z" stroke-miterlimit="10"/></g><g transform="translate(-56,-30) scale(1,1)"><path fill="none" stroke="#000000" d="M 332 240 L 184 240" stroke-miterlimit="10" stroke-dasharray="3"/></g><g transform="translate(-56,-30) scale(1,1)"><path fill="none" stroke="#000000" d="M 194.16267485762415 235.790482243984 L 184 240 L 194.16267485762415 244.209517756016" stroke-miterlimit="10"/></g><g transform="translate(-56,-30) scale(1,1)"><g><path fill="none" stroke="none"/><text fill="#000000" stroke="none" font-family="Arial" font-size="13px" font-style="normal" font-weight="normal" text-decoration="none" x="228.5" y="256.5">4 : results</text></g></g><g transform="translate(-56,-30) scale(1,1)"><path fill="none" stroke="#000000" d="M 184 290 L 325 290" stroke-miterlimit="10"/></g><g transform="translate(-56,-30) scale(1,1)"><path fill="#000000" stroke="none" d="M 314.83732514237585 294.209517756016 L 325 290 L 314.83732514237585 285.790482243984"/></g><g transform="translate(-56,-30) scale(1,1)"><path fill="none" stroke="#000000" d="M 314.83732514237585 294.209517756016 L 325 290 L 314.83732514237585 285.790482243984 L 314.83732514237585 294.209517756016" stroke-miterlimit="10"/></g><g transform="translate(-56,-30) scale(1,1)"><path fill="none" stroke="#000000" d="M 322 322 L 342 342" stroke-miterlimit="10"/></g><g transform="translate(-56,-30) scale(1,1)"><path fill="none" stroke="#000000" d="M 342 322 L 322 342" stroke-miterlimit="10"/></g><g transform="translate(-56,-30) scale(1,1)"><g><path fill="none" stroke="none"/><text fill="#000000" stroke="none" font-family="Arial" font-size="13px" font-style="normal" font-weight="normal" text-decoration="none" x="244.5" y="286.5">5 : </text></g></g><g transform="translate(-56,-30) scale(1,1)"><g><path fill="none" stroke="none"/><text fill="#000000" stroke="none" font-family="Arial" font-size="13px" font-style="normal" font-weight="normal" text-decoration="none" x="225.5" y="271.5">«destroy»</text></g></g><g transform="translate(-56,-30) scale(1,1)"><rect fill="#ffffff" stroke="none" x="325" y="290" width="13" height="28"/></g><g transform="translate(-56,-30) scale(1,1)"><path fill="none" stroke="#000000" d="M 325 290 L 338 290 L 338 318 L 325 318 L 325 290 Z Z" stroke-miterlimit="10"/></g></g></svg>