<svg version="1.1" xmlns="http://www.w3.org/2000/svg" xmlns:xlink="http://www.w3.org/1999/xlink" width="328.04443359375" height="219"><defs/><g><g transform="translate(-126,-30) scale(1,1)"><rect fill="#C0C0C0" stroke="none" x="287" y="47" width="96.28271484375" height="39" opacity="0.2"/></g><g transform="translate(-126,-30) scale(1,1)"><rect fill="#ffffff" stroke="none" x="280" y="40" width="96.28271484375" height="39"/></g><g transform="translate(-126,-30) scale(1,1)"><path fill="none" stroke="#000000" d="M 280 40 L 376.28271484375 40 L 376.28271484375 79 L 280 79 L 280 40 Z Z" stroke-miterlimit="10"/></g><g transform="translate(-126,-30) scale(1,1)"><g><path fill="none" stroke="none"/><text fill="#000000" stroke="none" font-family="Arial" font-size="13px" font-style="normal" font-weight="bold" text-decoration="none" x="292.7373046875" y="59.5">_: Controller</text></g></g><g transform="translate(-126,-30) scale(1,1)"><path fill="none" stroke="#000000" d="M 329.5 80 L 329.5 239" stroke-miterlimit="10" stroke-dasharray="3"/></g><g transform="translate(-126,-30) scale(1,1)"><rect fill="#C0C0C0" stroke="none" x="143" y="47" width="71.736328125" height="39" opacity="0.2"/></g><g transform="translate(-126,-30) scale(1,1)"><rect fill="#ffffff" stroke="none" x="136" y="40" width="71.736328125" height="39"/></g><g transform="translate(-126,-30) scale(1,1)"><path fill="none" stroke="#000000" d="M 136 40 L 207.736328125 40 L 207.736328125 79 L 136 79 L 136 40 Z Z" stroke-miterlimit="10"/></g><g transform="translate(-126,-30) scale(1,1)"><g><path fill="none" stroke="none"/><text fill="#000000" stroke="none" font-family="Arial" font-size="13px" font-style="normal" font-weight="bold" text-decoration="none" x="147.655029296875" y="59.5">Lifeline1</text></g></g><g transform="translate(-126,-30) scale(1,1)"><path fill="none" stroke="#000000" d="M 172.5 80 L 172.5 239" stroke-miterlimit="10" stroke-dasharray="3"/></g><g transform="translate(-126,-30) scale(1,1)"><path fill="none" stroke="#000000" d="M 172 105 L 322 105" stroke-miterlimit="10"/></g><g transform="translate(-126,-30) scale(1,1)"><path fill="#000000" stroke="none" d="M 311.83732514237585 109.20951775601598 L 322 105 L 311.83732514237585 100.79048224398402"/></g><g transform="translate(-126,-30) scale(1,1)"><path fill="none" stroke="#000000" d="M 311.83732514237585 109.20951775601598 L 322 105 L 311.83732514237585 100.79048224398402 L 311.83732514237585 109.20951775601598" stroke-miterlimit="10"/></g><g transform="translate(-126,-30) scale(1,1)"><g><path fill="none" stroke="none"/><text fill="#000000" stroke="none" font-family="Arial" font-size="13px" font-style="normal" font-weight="normal" text-decoration="none" x="207.5" y="101.5">1 : Message1</text></g></g><g transform="translate(-126,-30) scale(1,1)"><rect fill="#ffffff" stroke="none" x="322" y="105" width="13" height="103"/></g><g transform="translate(-126,-30) scale(1,1)"><path fill="none" stroke="#000000" d="M 322 105 L 335 105 L 335 208 L 322 208 L 322 105 Z Z" stroke-miterlimit="10"/></g><g transform="translate(-126,-30) scale(1,1)"><path fill="none" stroke="#000000" d="M 335 128 L 365 128 L 365 148 L 342 148" stroke-miterlimit="10"/></g><g transform="translate(-126,-30) scale(1,1)"><path fill="#000000" stroke="none" d="M 352.16267485762415 143.790482243984 L 342 148 L 352.16267485762415 152.209517756016"/></g><g transform="translate(-126,-30) scale(1,1)"><path fill="none" stroke="#000000" d="M 352.16267485762415 143.790482243984 L 342 148 L 352.16267485762415 152.209517756016 L 352.16267485762415 143.790482243984" stroke-miterlimit="10"/></g><g transform="translate(-126,-30) scale(1,1)"><g><path fill="none" stroke="none"/><text fill="#000000" stroke="none" font-family="Arial" font-size="13px" font-style="normal" font-weight="normal" text-decoration="none" x="366.5" y="143.5">2 : Message2</text></g></g><g transform="translate(-126,-30) scale(1,1)"><rect fill="#ffffff" stroke="none" x="329" y="148" width="13" height="28"/></g><g transform="translate(-126,-30) scale(1,1)"><path fill="none" stroke="#000000" d="M 329 148 L 342 148 L 342 176 L 329 176 L 329 148 Z Z" stroke-miterlimit="10"/></g><g transform="translate(-126,-30) scale(1,1)"><path fill="none" stroke="#000000" d="M 322 202 L 172 202" stroke-miterlimit="10" stroke-dasharray="3"/></g><g transform="translate(-126,-30) scale(1,1)"><path fill="none" stroke="#000000" d="M 182.16267485762415 197.790482243984 L 172 202 L 182.16267485762415 206.209517756016" stroke-miterlimit="10"/></g><g transform="translate(-126,-30) scale(1,1)"><g><path fill="none" stroke="none"/><text fill="#000000" stroke="none" font-family="Arial" font-size="13px" font-style="normal" font-weight="normal" text-decoration="none" x="236.5" y="218.5">3 : </text></g></g></g></svg>