<svg version="1.1" xmlns="http://www.w3.org/2000/svg" xmlns:xlink="http://www.w3.org/1999/xlink" width="235.736328125" height="219"><defs/><g><g transform="translate(-158,-30) scale(1,1)"><rect fill="#C0C0C0" stroke="none" x="175" y="47" width="96.28271484375" height="39" opacity="0.2"/></g><g transform="translate(-158,-30) scale(1,1)"><rect fill="#ffffff" stroke="none" x="168" y="40" width="96.28271484375" height="39"/></g><g transform="translate(-158,-30) scale(1,1)"><path fill="none" stroke="#000000" d="M 168 40 L 264.28271484375 40 L 264.28271484375 79 L 168 79 L 168 40 Z Z" stroke-miterlimit="10"/></g><g transform="translate(-158,-30) scale(1,1)"><g><path fill="none" stroke="none"/><text fill="#000000" stroke="none" font-family="Arial" font-size="13px" font-style="normal" font-weight="bold" text-decoration="none" x="180.7373046875" y="59.5">_: Controller</text></g></g><g transform="translate(-158,-30) scale(1,1)"><path fill="none" stroke="#000000" d="M 217.5 80 L 217.5 239" stroke-miterlimit="10" stroke-dasharray="3"/></g><g transform="translate(-158,-30) scale(1,1)"><rect fill="#C0C0C0" stroke="none" x="319" y="47" width="71.736328125" height="39" opacity="0.2"/></g><g transform="translate(-158,-30) scale(1,1)"><rect fill="#ffffff" stroke="none" x="312" y="40" width="71.736328125" height="39"/></g><g transform="translate(-158,-30) scale(1,1)"><path fill="none" stroke="#000000" d="M 312 40 L 383.736328125 40 L 383.736328125 79 L 312 79 L 312 40 Z Z" stroke-miterlimit="10"/></g><g transform="translate(-158,-30) scale(1,1)"><g><path fill="none" stroke="none"/><text fill="#000000" stroke="none" font-family="Arial" font-size="13px" font-style="normal" font-weight="bold" text-decoration="none" x="323.655029296875" y="59.5">Lifeline1</text></g></g><g transform="translate(-158,-30) scale(1,1)"><path fill="none" stroke="#000000" d="M 348.5 80 L 348.5 239" stroke-miterlimit="10" stroke-dasharray="3"/></g><g transform="translate(-158,-30) scale(1,1)"><path fill="none" stroke="#000000" d="M 217 100 L 341 100" stroke-miterlimit="10"/></g><g transform="translate(-158,-30) scale(1,1)"><path fill="#000000" stroke="none" d="M 330.83732514237585 104.20951775601598 L 341 100 L 330.83732514237585 95.79048224398402"/></g><g transform="translate(-158,-30) scale(1,1)"><path fill="none" stroke="#000000" d="M 330.83732514237585 104.20951775601598 L 341 100 L 330.83732514237585 95.79048224398402 L 330.83732514237585 104.20951775601598" stroke-miterlimit="10"/></g><g transform="translate(-158,-30) scale(1,1)"><g><path fill="none" stroke="none"/><text fill="#000000" stroke="none" font-family="Arial" font-size="13px" font-style="normal" font-weight="normal" text-decoration="none" x="239.5" y="96.5">1 : Message1</text></g></g><g transform="translate(-158,-30) scale(1,1)"><rect fill="#ffffff" stroke="none" x="341" y="100" width="13" height="28"/></g><g transform="translate(-158,-30) scale(1,1)"><path fill="none" stroke="#000000" d="M 341 100 L 354 100 L 354 128 L 341 128 L 341 100 Z Z" stroke-miterlimit="10"/></g><g transform="translate(-158,-30) scale(1,1)"><path fill="none" stroke="#000000" d="M 217 137 L 341 137" stroke-miterlimit="10"/></g><g transform="translate(-158,-30) scale(1,1)"><path fill="none" stroke="#000000" d="M 330.83732514237585 141.209517756016 L 341 137 L 330.83732514237585 132.790482243984" stroke-miterlimit="10"/></g><g transform="translate(-158,-30) scale(1,1)"><g><path fill="none" stroke="none"/><text fill="#000000" stroke="none" font-family="Arial" font-size="13px" font-style="normal" font-weight="normal" text-decoration="none" x="239.5" y="133.5">2 : Message2</text></g></g><g transform="translate(-158,-30) scale(1,1)"><rect fill="#ffffff" stroke="none" x="341" y="137" width="13" height="28"/></g><g transform="translate(-158,-30) scale(1,1)"><path fill="none" stroke="#000000" d="M 341 137 L 354 137 L 354 165 L 341 165 L 341 137 Z Z" stroke-miterlimit="10"/></g><g transform="translate(-158,-30) scale(1,1)"><path fill="none" stroke="#000000" d="M 341 160 L 217 160" stroke-miterlimit="10" stroke-dasharray="3"/></g><g transform="translate(-158,-30) scale(1,1)"><path fill="none" stroke="#000000" d="M 227.16267485762415 155.790482243984 L 217 160 L 227.16267485762415 164.209517756016" stroke-miterlimit="10"/></g><g transform="translate(-158,-30) scale(1,1)"><g><path fill="none" stroke="none"/><text fill="#000000" stroke="none" font-family="Arial" font-size="13px" font-style="normal" font-weight="normal" text-decoration="none" x="268.5" y="176.5">3 : </text></g></g></g></svg>