<svg version="1.1" xmlns="http://www.w3.org/2000/svg" xmlns:xlink="http://www.w3.org/1999/xlink" width="552.68359375" height="430"><defs/><g><g transform="translate(-206,-30) scale(1,1)"><rect fill="#C0C0C0" stroke="none" x="247" y="47" width="100.61181640625" height="39" opacity="0.2"/></g><g transform="translate(-206,-30) scale(1,1)"><rect fill="#ffffff" stroke="none" x="240" y="40" width="100.61181640625" height="39"/></g><g transform="translate(-206,-30) scale(1,1)"><path fill="none" stroke="#000000" d="M 240 40 L 340.61181640625 40 L 340.61181640625 79 L 240 79 L 240 40 Z Z" stroke-miterlimit="10"/></g><g transform="translate(-206,-30) scale(1,1)"><g><path fill="none" stroke="none"/><text fill="#000000" stroke="none" font-family="Arial" font-size="13px" font-style="normal" font-weight="bold" text-decoration="none" x="252.372314453125" y="59.5">_: StoreFront</text></g></g><g transform="translate(-206,-30) scale(1,1)"><path fill="none" stroke="#000000" d="M 291.5 80 L 291.5 440" stroke-miterlimit="10" stroke-dasharray="3"/></g><g transform="translate(-206,-30) scale(1,1)"><rect fill="#C0C0C0" stroke="none" x="471" y="47" width="71.736328125" height="39" opacity="0.2"/></g><g transform="translate(-206,-30) scale(1,1)"><rect fill="#ffffff" stroke="none" x="464" y="40" width="71.736328125" height="39"/></g><g transform="translate(-206,-30) scale(1,1)"><path fill="none" stroke="#000000" d="M 464 40 L 535.736328125 40 L 535.736328125 79 L 464 79 L 464 40 Z Z" stroke-miterlimit="10"/></g><g transform="translate(-206,-30) scale(1,1)"><g><path fill="none" stroke="none"/><text fill="#000000" stroke="none" font-family="Arial" font-size="13px" font-style="normal" font-weight="bold" text-decoration="none" x="480.36181640625" y="59.5">_: Cart</text></g></g><g transform="translate(-206,-30) scale(1,1)"><path fill="none" stroke="#000000" d="M 500.5 80 L 500.5 450" stroke-miterlimit="10" stroke-dasharray="3"/></g><g transform="translate(-206,-30) scale(1,1)"><rect fill="#C0C0C0" stroke="none" x="663" y="47" width="92.68359375" height="39" opacity="0.2"/></g><g transform="translate(-206,-30) scale(1,1)"><rect fill="#ffffff" stroke="none" x="656" y="40" width="92.68359375" height="39"/></g><g transform="translate(-206,-30) scale(1,1)"><path fill="none" stroke="#000000" d="M 656 40 L 748.68359375 40 L 748.68359375 79 L 656 79 L 656 40 Z Z" stroke-miterlimit="10"/></g><g transform="translate(-206,-30) scale(1,1)"><g><path fill="none" stroke="none"/><text fill="#000000" stroke="none" font-family="Arial" font-size="13px" font-style="normal" font-weight="bold" text-decoration="none" x="668.378662109375" y="59.5">_: Inventory</text></g></g><g transform="translate(-206,-30) scale(1,1)"><path fill="none" stroke="#000000" d="M 703.5 80 L 703.5 450" stroke-miterlimit="10" stroke-dasharray="3"/></g><g transform="translate(-206,-30) scale(1,1)"><path fill="none" stroke="#000000" d="M 291 123 L 493 123" stroke-miterlimit="10"/></g><g transform="translate(-206,-30) scale(1,1)"><path fill="#000000" stroke="none" d="M 482.83732514237585 127.20951775601598 L 493 123 L 482.83732514237585 118.79048224398402"/></g><g transform="translate(-206,-30) scale(1,1)"><path fill="none" stroke="#000000" d="M 482.83732514237585 127.20951775601598 L 493 123 L 482.83732514237585 118.79048224398402 L 482.83732514237585 127.20951775601598" stroke-miterlimit="10"/></g><g transform="translate(-206,-30) scale(1,1)"><g><path fill="none" stroke="none"/><text fill="#000000" stroke="none" font-family="Arial" font-size="13px" font-style="normal" font-weight="normal" text-decoration="none" x="358.28271484375" y="119.5">1 : AddItem</text></g></g><g transform="translate(-206,-30) scale(1,1)"><rect fill="#ffffff" stroke="none" x="493" y="123" width="13" height="69"/></g><g transform="translate(-206,-30) scale(1,1)"><path fill="none" stroke="#000000" d="M 493 123 L 506 123 L 506 192 L 493 192 L 493 123 Z Z" stroke-miterlimit="10"/></g><g transform="translate(-206,-30) scale(1,1)"><path fill="none" stroke="#000000" d="M 506 145 L 696 145" stroke-miterlimit="10"/></g><g transform="translate(-206,-30) scale(1,1)"><path fill="#000000" stroke="none" d="M 685.8373251423759 149.209517756016 L 696 145 L 685.8373251423758 140.790482243984"/></g><g transform="translate(-206,-30) scale(1,1)"><path fill="none" stroke="#000000" d="M 685.8373251423759 149.209517756016 L 696 145 L 685.8373251423758 140.790482243984 L 685.8373251423759 149.209517756016" stroke-miterlimit="10"/></g><g transform="translate(-206,-30) scale(1,1)"><g><path fill="none" stroke="none"/><text fill="#000000" stroke="none" font-family="Arial" font-size="13px" font-style="normal" font-weight="normal" text-decoration="none" x="555.5" y="141.5">2 : ReserveItem</text></g></g><g transform="translate(-206,-30) scale(1,1)"><rect fill="#ffffff" stroke="none" x="696" y="145" width="13" height="28"/></g><g transform="translate(-206,-30) scale(1,1)"><path fill="none" stroke="#000000" d="M 696 145 L 709 145 L 709 173 L 696 173 L 696 145 Z Z" stroke-miterlimit="10"/></g><g transform="translate(-206,-30) scale(1,1)"><path fill="none" stroke="#000000" d="M 696 168 L 506 168" stroke-miterlimit="10" stroke-dasharray="3"/></g><g transform="translate(-206,-30) scale(1,1)"><path fill="none" stroke="#000000" d="M 516.1626748576241 163.790482243984 L 506 168 L 516.1626748576241 172.209517756016" stroke-miterlimit="10"/></g><g transform="translate(-206,-30) scale(1,1)"><g><path fill="none" stroke="none"/><text fill="#000000" stroke="none" font-family="Arial" font-size="13px" font-style="normal" font-weight="normal" text-decoration="none" x="590.5" y="184.5">3 : </text></g></g><g transform="translate(-206,-30) scale(1,1)"><path fill="none" stroke="#000000" d="M 493 184 L 291 184" stroke-miterlimit="10" stroke-dasharray="3"/></g><g transform="translate(-206,-30) scale(1,1)"><path fill="none" stroke="#000000" d="M 301.16267485762415 179.790482243984 L 291 184 L 301.16267485762415 188.209517756016" stroke-miterlimit="10"/></g><g transform="translate(-206,-30) scale(1,1)"><g><path fill="none" stroke="none"/><text fill="#000000" stroke="none" font-family="Arial" font-size="13px" font-style="normal" font-weight="normal" text-decoration="none" x="381.5" y="200.5">4 : </text></g></g><g transform="translate(-206,-30) scale(1,1)"><path fill="none" stroke="#000000" d="M 291 264 L 493 264" stroke-miterlimit="10"/></g><g transform="translate(-206,-30) scale(1,1)"><path fill="#000000" stroke="none" d="M 482.83732514237585 268.209517756016 L 493 264 L 482.83732514237585 259.790482243984"/></g><g transform="translate(-206,-30) scale(1,1)"><path fill="none" stroke="#000000" d="M 482.83732514237585 268.209517756016 L 493 264 L 482.83732514237585 259.790482243984 L 482.83732514237585 268.209517756016" stroke-miterlimit="10"/></g><g transform="translate(-206,-30) scale(1,1)"><g><path fill="none" stroke="none"/><text fill="#000000" stroke="none" font-family="Arial" font-size="13px" font-style="normal" font-weight="normal" text-decoration="none" x="355.029541015625" y="260.5">5 : Checkout</text></g></g><g transform="translate(-206,-30) scale(1,1)"><rect fill="#ffffff" stroke="none" x="493" y="264" width="13" height="160"/></g><g transform="translate(-206,-30) scale(1,1)"><path fill="none" stroke="#000000" d="M 493 264 L 506 264 L 506 424 L 493 424 L 493 264 Z Z" stroke-miterlimit="10"/></g><g transform="translate(-206,-30) scale(1,1)"><path fill="none" stroke="#000000" d="M 506 288 L 536 288 L 536 308 L 513 308" stroke-miterlimit="10"/></g><g transform="translate(-206,-30) scale(1,1)"><path fill="#000000" stroke="none" d="M 523.1626748576241 303.790482243984 L 513 308 L 523.1626748576241 312.209517756016"/></g><g transform="translate(-206,-30) scale(1,1)"><path fill="none" stroke="#000000" d="M 523.1626748576241 303.790482243984 L 513 308 L 523.1626748576241 312.209517756016 L 523.1626748576241 303.790482243984" stroke-miterlimit="10"/></g><g transform="translate(-206,-30) scale(1,1)"><g><path fill="none" stroke="none"/><text fill="#000000" stroke="none" font-family="Arial" font-size="13px" font-style="normal" font-weight="normal" text-decoration="none" x="550.5" y="303.5">6 : ProcessOrder</text></g></g><g transform="translate(-206,-30) scale(1,1)"><rect fill="#ffffff" stroke="none" x="500" y="308" width="13" height="52"/></g><g transform="translate(-206,-30) scale(1,1)"><path fill="none" stroke="#000000" d="M 500 308 L 513 308 L 513 360 L 500 360 L 500 308 Z Z" stroke-miterlimit="10"/></g><g transform="translate(-206,-30) scale(1,1)"><path fill="none" stroke="#000000" d="M 500 312 L 297 312" stroke-miterlimit="10"/></g><g transform="translate(-206,-30) scale(1,1)"><path fill="#000000" stroke="none" d="M 307.16267485762415 307.790482243984 L 297 312 L 307.16267485762415 316.209517756016"/></g><g transform="translate(-206,-30) scale(1,1)"><path fill="none" stroke="#000000" d="M 307.16267485762415 307.790482243984 L 297 312 L 307.16267485762415 316.209517756016 L 307.16267485762415 307.790482243984" stroke-miterlimit="10"/></g><g transform="translate(-206,-30) scale(1,1)"><g><path fill="none" stroke="none"/><text fill="#000000" stroke="none" font-family="Arial" font-size="13px" font-style="normal" font-weight="normal" text-decoration="none" x="348.5" y="328.5">7 : ConfirmOrder</text></g></g><g transform="translate(-206,-30) scale(1,1)"><rect fill="#ffffff" stroke="none" x="284" y="312" width="13" height="48"/></g><g transform="translate(-206,-30) scale(1,1)"><path fill="none" stroke="#000000" d="M 284 312 L 297 312 L 297 360 L 284 360 L 284 312 Z Z" stroke-miterlimit="10"/></g><g transform="translate(-206,-30) scale(1,1)"><path fill="none" stroke="#000000" d="M 297 352 L 500 352" stroke-miterlimit="10" stroke-dasharray="3"/></g><g transform="translate(-206,-30) scale(1,1)"><path fill="none" stroke="#000000" d="M 489.83732514237585 356.209517756016 L 500 352 L 489.83732514237585 347.790482243984" stroke-miterlimit="10"/></g><g transform="translate(-206,-30) scale(1,1)"><g><path fill="none" stroke="none"/><text fill="#000000" stroke="none" font-family="Arial" font-size="13px" font-style="normal" font-weight="normal" text-decoration="none" x="388.5" y="348.5">8 : </text></g></g><g transform="translate(-206,-30) scale(1,1)"><path fill="none" stroke="#000000" d="M 493 392 L 291 392" stroke-miterlimit="10" stroke-dasharray="3"/></g><g transform="translate(-206,-30) scale(1,1)"><path fill="none" stroke="#000000" d="M 301.16267485762415 387.790482243984 L 291 392 L 301.16267485762415 396.209517756016" stroke-miterlimit="10"/></g><g transform="translate(-206,-30) scale(1,1)"><g><path fill="none" stroke="none"/><text fill="#000000" stroke="none" font-family="Arial" font-size="13px" font-style="normal" font-weight="normal" text-decoration="none" x="381.5" y="408.5">9 : </text></g></g><g transform="translate(-206,-30) scale(1,1)"><path fill="none" stroke="#000000" d="M 506 408 L 696 408" stroke-miterlimit="10"/></g><g transform="translate(-206,-30) scale(1,1)"><path fill="none" stroke="#000000" d="M 685.8373251423759 412.209517756016 L 696 408 L 685.8373251423758 403.790482243984" stroke-miterlimit="10"/></g><g transform="translate(-206,-30) scale(1,1)"><g><path fill="none" stroke="none"/><text fill="#000000" stroke="none" font-family="Arial" font-size="13px" font-style="normal" font-weight="normal" text-decoration="none" x="537.5" y="404.5">10 : PlaceItemInOrder</text></g></g><g transform="translate(-206,-30) scale(1,1)"><rect fill="#ffffff" stroke="none" x="696" y="408" width="13" height="28"/></g><g transform="translate(-206,-30) scale(1,1)"><path fill="none" stroke="#000000" d="M 696 408 L 709 408 L 709 436 L 696 436 L 696 408 Z Z" stroke-miterlimit="10"/></g><g transform="translate(-206,-30) scale(1,1)"><path fill="none" stroke="#000000" d="M 216 88 L 736 88 L 736 232 L 216 232 L 216 88" stroke-miterlimit="10"/></g><g transform="translate(-206,-30) scale(1,1)"><path fill="#ffffff" stroke="none" d="M 216 88 L 216 110 L 263.80810546875 110 L 274.80810546875 99 L 274.80810546875 88 L 216 88"/></g><g transform="translate(-206,-30) scale(1,1)"><path fill="none" stroke="#000000" d="M 216 88 L 216 110 L 263.80810546875 110 L 274.80810546875 99 L 274.80810546875 88 L 216 88 L 216 88" stroke-miterlimit="10"/></g><g transform="translate(-206,-30) scale(1,1)"><g><path fill="none" stroke="none"/><text fill="#000000" stroke="none" font-family="Arial" font-size="13px" font-style="normal" font-weight="normal" text-decoration="none" x="251.578125" y="105.5">_</text></g></g><g transform="translate(-206,-30) scale(1,1)"><g><path fill="none" stroke="none"/><text fill="#000000" stroke="none" font-family="Arial" font-size="13px" font-style="normal" font-weight="bold" text-decoration="none" x="221" y="105.5">loop</text></g></g></g></svg>