<svg version="1.1" xmlns="http://www.w3.org/2000/svg" xmlns:xlink="http://www.w3.org/1999/xlink" width="387.736328125" height="219"><defs/><g><g transform="translate(-174,-30) scale(1,1)"><rect fill="#C0C0C0" stroke="none" x="191" y="47" width="71.736328125" height="39" opacity="0.2"/></g><g transform="translate(-174,-30) scale(1,1)"><rect fill="#ffffff" stroke="none" x="184" y="40" width="71.736328125" height="39"/></g><g transform="translate(-174,-30) scale(1,1)"><path fill="none" stroke="#000000" d="M 184 40 L 255.736328125 40 L 255.736328125 79 L 184 79 L 184 40 Z Z" stroke-miterlimit="10"/></g><g transform="translate(-174,-30) scale(1,1)"><g><path fill="none" stroke="none"/><text fill="#000000" stroke="none" font-family="Arial" font-size="13px" font-style="normal" font-weight="bold" text-decoration="none" x="195.655029296875" y="59.5">Lifeline1</text></g></g><g transform="translate(-174,-30) scale(1,1)"><path fill="none" stroke="#000000" d="M 220.5 80 L 220.5 239" stroke-miterlimit="10" stroke-dasharray="3"/></g><g transform="translate(-174,-30) scale(1,1)"><rect fill="#C0C0C0" stroke="none" x="319" y="47" width="96.28271484375" height="39" opacity="0.2"/></g><g transform="translate(-174,-30) scale(1,1)"><rect fill="#ffffff" stroke="none" x="312" y="40" width="96.28271484375" height="39"/></g><g transform="translate(-174,-30) scale(1,1)"><path fill="none" stroke="#000000" d="M 312 40 L 408.28271484375 40 L 408.28271484375 79 L 312 79 L 312 40 Z Z" stroke-miterlimit="10"/></g><g transform="translate(-174,-30) scale(1,1)"><g><path fill="none" stroke="none"/><text fill="#000000" stroke="none" font-family="Arial" font-size="13px" font-style="normal" font-weight="bold" text-decoration="none" x="324.7373046875" y="59.5">_: Controller</text></g></g><g transform="translate(-174,-30) scale(1,1)"><path fill="none" stroke="#000000" d="M 361.5 80 L 361.5 239" stroke-miterlimit="10" stroke-dasharray="3"/></g><g transform="translate(-174,-30) scale(1,1)"><rect fill="#C0C0C0" stroke="none" x="487" y="47" width="71.736328125" height="39" opacity="0.2"/></g><g transform="translate(-174,-30) scale(1,1)"><rect fill="#ffffff" stroke="none" x="480" y="40" width="71.736328125" height="39"/></g><g transform="translate(-174,-30) scale(1,1)"><path fill="none" stroke="#000000" d="M 480 40 L 551.736328125 40 L 551.736328125 79 L 480 79 L 480 40 Z Z" stroke-miterlimit="10"/></g><g transform="translate(-174,-30) scale(1,1)"><g><path fill="none" stroke="none"/><text fill="#000000" stroke="none" font-family="Arial" font-size="13px" font-style="normal" font-weight="bold" text-decoration="none" x="491.655029296875" y="59.5">Lifeline3</text></g></g><g transform="translate(-174,-30) scale(1,1)"><path fill="none" stroke="#000000" d="M 516.5 80 L 516.5 239" stroke-miterlimit="10" stroke-dasharray="3"/></g><g transform="translate(-174,-30) scale(1,1)"><path fill="none" stroke="#000000" d="M 220 97 L 354 97" stroke-miterlimit="10"/></g><g transform="translate(-174,-30) scale(1,1)"><path fill="#000000" stroke="none" d="M 343.83732514237585 101.20951775601598 L 354 97 L 343.83732514237585 92.79048224398402"/></g><g transform="translate(-174,-30) scale(1,1)"><path fill="none" stroke="#000000" d="M 343.83732514237585 101.20951775601598 L 354 97 L 343.83732514237585 92.79048224398402 L 343.83732514237585 101.20951775601598" stroke-miterlimit="10"/></g><g transform="translate(-174,-30) scale(1,1)"><g><path fill="none" stroke="none"/><text fill="#000000" stroke="none" font-family="Arial" font-size="13px" font-style="normal" font-weight="normal" text-decoration="none" x="247.5" y="93.5">1 : Message1</text></g></g><g transform="translate(-174,-30) scale(1,1)"><rect fill="#ffffff" stroke="none" x="354" y="97" width="13" height="119"/></g><g transform="translate(-174,-30) scale(1,1)"><path fill="none" stroke="#000000" d="M 354 97 L 367 97 L 367 216 L 354 216 L 354 97 Z Z" stroke-miterlimit="10"/></g><g transform="translate(-174,-30) scale(1,1)"><path fill="none" stroke="#000000" d="M 367 112 L 509 112" stroke-miterlimit="10"/></g><g transform="translate(-174,-30) scale(1,1)"><path fill="none" stroke="#000000" d="M 498.83732514237585 116.20951775601598 L 509 112 L 498.83732514237585 107.79048224398402" stroke-miterlimit="10"/></g><g transform="translate(-174,-30) scale(1,1)"><g><path fill="none" stroke="none"/><text fill="#000000" stroke="none" font-family="Arial" font-size="13px" font-style="normal" font-weight="normal" text-decoration="none" x="398.5" y="108.5">2 : Message2</text></g></g><g transform="translate(-174,-30) scale(1,1)"><rect fill="#ffffff" stroke="none" x="509" y="112" width="13" height="28"/></g><g transform="translate(-174,-30) scale(1,1)"><path fill="none" stroke="#000000" d="M 509 112 L 522 112 L 522 140 L 509 140 L 509 112 Z Z" stroke-miterlimit="10"/></g><g transform="translate(-174,-30) scale(1,1)"><path fill="none" stroke="#000000" d="M 509 134 L 367 134" stroke-miterlimit="10" stroke-dasharray="3"/></g><g transform="translate(-174,-30) scale(1,1)"><path fill="none" stroke="#000000" d="M 377.16267485762415 129.790482243984 L 367 134 L 377.16267485762415 138.209517756016" stroke-miterlimit="10"/></g><g transform="translate(-174,-30) scale(1,1)"><g><path fill="none" stroke="none"/><text fill="#000000" stroke="none" font-family="Arial" font-size="13px" font-style="normal" font-weight="normal" text-decoration="none" x="427.5" y="150.5">3 : </text></g></g><g transform="translate(-174,-30) scale(1,1)"><path fill="none" stroke="#000000" d="M 354 209 L 220 209" stroke-miterlimit="10" stroke-dasharray="3"/></g><g transform="translate(-174,-30) scale(1,1)"><path fill="none" stroke="#000000" d="M 230.16267485762415 204.790482243984 L 220 209 L 230.16267485762415 213.209517756016" stroke-miterlimit="10"/></g><g transform="translate(-174,-30) scale(1,1)"><g><path fill="none" stroke="none"/><text fill="#000000" stroke="none" font-family="Arial" font-size="13px" font-style="normal" font-weight="normal" text-decoration="none" x="276.5" y="225.5">4 : </text></g></g></g></svg>