<svg version="1.1" xmlns="http://www.w3.org/2000/svg" xmlns:xlink="http://www.w3.org/1999/xlink" width="692" height="332"><defs/><g><g transform="translate(-174,-30) scale(1,1)"><rect fill="#C0C0C0" stroke="none" x="279" y="47" width="71.736328125" height="39" opacity="0.2"/></g><g transform="translate(-174,-30) scale(1,1)"><rect fill="#ffffff" stroke="none" x="272" y="40" width="71.736328125" height="39"/></g><g transform="translate(-174,-30) scale(1,1)"><path fill="none" stroke="#000000" d="M 272 40 L 343.736328125 40 L 343.736328125 79 L 272 79 L 272 40 Z Z" stroke-miterlimit="10"/></g><g transform="translate(-174,-30) scale(1,1)"><g><path fill="none" stroke="none"/><text fill="#000000" stroke="none" font-family="Arial" font-size="13px" font-style="normal" font-weight="bold" text-decoration="none" x="284.0263671875" y="59.5">_: Order</text></g></g><g transform="translate(-174,-30) scale(1,1)"><path fill="none" stroke="#000000" d="M 308.5 80 L 308.5 352" stroke-miterlimit="10" stroke-dasharray="3"/></g><g transform="translate(-174,-30) scale(1,1)"><rect fill="#C0C0C0" stroke="none" x="455" y="47" width="136.0126953125" height="39" opacity="0.2"/></g><g transform="translate(-174,-30) scale(1,1)"><rect fill="#ffffff" stroke="none" x="448" y="40" width="136.0126953125" height="39"/></g><g transform="translate(-174,-30) scale(1,1)"><path fill="none" stroke="#000000" d="M 448 40 L 584.0126953125 40 L 584.0126953125 79 L 448 79 L 448 40 Z Z" stroke-miterlimit="10"/></g><g transform="translate(-174,-30) scale(1,1)"><g><path fill="none" stroke="none"/><text fill="#000000" stroke="none" font-family="Arial" font-size="13px" font-style="normal" font-weight="bold" text-decoration="none" x="463.266845703125" y="59.5">careful: Distributor</text></g></g><g transform="translate(-174,-30) scale(1,1)"><path fill="none" stroke="#000000" d="M 517.5 80 L 517.5 352" stroke-miterlimit="10" stroke-dasharray="3"/></g><g transform="translate(-174,-30) scale(1,1)"><rect fill="#C0C0C0" stroke="none" x="703" y="47" width="137.45361328125" height="39" opacity="0.2"/></g><g transform="translate(-174,-30) scale(1,1)"><rect fill="#ffffff" stroke="none" x="696" y="40" width="137.45361328125" height="39"/></g><g transform="translate(-174,-30) scale(1,1)"><path fill="none" stroke="#000000" d="M 696 40 L 833.45361328125 40 L 833.45361328125 79 L 696 79 L 696 40 Z Z" stroke-miterlimit="10"/></g><g transform="translate(-174,-30) scale(1,1)"><g><path fill="none" stroke="none"/><text fill="#000000" stroke="none" font-family="Arial" font-size="13px" font-style="normal" font-weight="bold" text-decoration="none" x="711.263671875" y="59.5">regular: Distributor</text></g></g><g transform="translate(-174,-30) scale(1,1)"><path fill="none" stroke="#000000" d="M 765.5 80 L 765.5 352" stroke-miterlimit="10" stroke-dasharray="3"/></g><g transform="translate(-174,-30) scale(1,1)"><path fill="#000000" stroke="none" d="M 202 99.5 C 202 95.6340064 205.1340064 92.5 209 92.5 C 212.8659936 92.5 216 95.6340064 216 99.5 C 216 103.3659936 212.8659936 106.5 209 106.5 C 205.1340064 106.5 202 103.3659936 202 99.5 Z"/></g><g transform="translate(-174,-30) scale(1,1)"><path fill="none" stroke="#000000" d="M 216 100 L 301 100" stroke-miterlimit="10"/></g><g transform="translate(-174,-30) scale(1,1)"><path fill="#000000" stroke="none" d="M 290.83732514237585 104.20951775601598 L 301 100 L 290.83732514237585 95.79048224398402"/></g><g transform="translate(-174,-30) scale(1,1)"><path fill="none" stroke="#000000" d="M 290.83732514237585 104.20951775601598 L 301 100 L 290.83732514237585 95.79048224398402 L 290.83732514237585 104.20951775601598" stroke-miterlimit="10"/></g><g transform="translate(-174,-30) scale(1,1)"><g><path fill="none" stroke="none"/><text fill="#000000" stroke="none" font-family="Arial" font-size="13px" font-style="normal" font-weight="normal" text-decoration="none" x="224.279541015625" y="96.5">1 : dispatch</text></g></g><g transform="translate(-174,-30) scale(1,1)"><rect fill="#ffffff" stroke="none" x="301" y="100" width="13" height="236"/></g><g transform="translate(-174,-30) scale(1,1)"><path fill="none" stroke="#000000" d="M 301 100 L 314 100 L 314 336 L 301 336 L 301 100 Z Z" stroke-miterlimit="10"/></g><g transform="translate(-174,-30) scale(1,1)"><path fill="none" stroke="#000000" d="M 314 216 L 510 216" stroke-miterlimit="10"/></g><g transform="translate(-174,-30) scale(1,1)"><path fill="#000000" stroke="none" d="M 499.83732514237585 220.209517756016 L 510 216 L 499.83732514237585 211.790482243984"/></g><g transform="translate(-174,-30) scale(1,1)"><path fill="none" stroke="#000000" d="M 499.83732514237585 220.209517756016 L 510 216 L 499.83732514237585 211.790482243984 L 499.83732514237585 220.209517756016" stroke-miterlimit="10"/></g><g transform="translate(-174,-30) scale(1,1)"><g><path fill="none" stroke="none"/><text fill="#000000" stroke="none" font-family="Arial" font-size="13px" font-style="normal" font-weight="normal" text-decoration="none" x="378.279541015625" y="212.5">2 : dispatch</text></g></g><g transform="translate(-174,-30) scale(1,1)"><rect fill="#ffffff" stroke="none" x="510" y="216" width="13" height="28"/></g><g transform="translate(-174,-30) scale(1,1)"><path fill="none" stroke="#000000" d="M 510 216 L 523 216 L 523 244 L 510 244 L 510 216 Z Z" stroke-miterlimit="10"/></g><g transform="translate(-174,-30) scale(1,1)"><path fill="none" stroke="#000000" d="M 314 280 L 758 280" stroke-miterlimit="10"/></g><g transform="translate(-174,-30) scale(1,1)"><path fill="#000000" stroke="none" d="M 747.8373251423759 284.209517756016 L 758 280 L 747.8373251423758 275.790482243984"/></g><g transform="translate(-174,-30) scale(1,1)"><path fill="none" stroke="#000000" d="M 747.8373251423759 284.209517756016 L 758 280 L 747.8373251423758 275.790482243984 L 747.8373251423759 284.209517756016" stroke-miterlimit="10"/></g><g transform="translate(-174,-30) scale(1,1)"><g><path fill="none" stroke="none"/><text fill="#000000" stroke="none" font-family="Arial" font-size="13px" font-style="normal" font-weight="normal" text-decoration="none" x="559.279541015625" y="276.5">3 : dispatch</text></g></g><g transform="translate(-174,-30) scale(1,1)"><rect fill="#ffffff" stroke="none" x="758" y="280" width="13" height="28"/></g><g transform="translate(-174,-30) scale(1,1)"><path fill="none" stroke="#000000" d="M 758 280 L 771 280 L 771 308 L 758 308 L 758 280 Z Z" stroke-miterlimit="10"/></g><g transform="translate(-174,-30) scale(1,1)"><path fill="none" stroke="#000000" d="M 184 112 L 856 112 L 856 344 L 184 344 L 184 112" stroke-miterlimit="10"/></g><g transform="translate(-174,-30) scale(1,1)"><path fill="#ffffff" stroke="none" d="M 184 112 L 184 134 L 231.80810546875 134 L 242.80810546875 123 L 242.80810546875 112 L 184 112"/></g><g transform="translate(-174,-30) scale(1,1)"><path fill="none" stroke="#000000" d="M 184 112 L 184 134 L 231.80810546875 134 L 242.80810546875 123 L 242.80810546875 112 L 184 112 L 184 112" stroke-miterlimit="10"/></g><g transform="translate(-174,-30) scale(1,1)"><g><path fill="none" stroke="none"/><text fill="#000000" stroke="none" font-family="Arial" font-size="13px" font-style="normal" font-weight="normal" text-decoration="none" x="219.578125" y="129.5">_</text></g></g><g transform="translate(-174,-30) scale(1,1)"><g><path fill="none" stroke="none"/><text fill="#000000" stroke="none" font-family="Arial" font-size="13px" font-style="normal" font-weight="bold" text-decoration="none" x="189" y="129.5">loop</text></g></g><g transform="translate(-174,-30) scale(1,1)"><g><path fill="none" stroke="none"/><text fill="#000000" stroke="none" font-family="Arial" font-size="13px" font-style="normal" font-weight="normal" text-decoration="none" x="203.5" y="162.5">[for each line item]</text></g></g><g transform="translate(-174,-30) scale(1,1)"><path fill="none" stroke="#000000" d="M 208 176 L 816 176 L 816 328 L 208 328 L 208 176" stroke-miterlimit="10"/></g><g transform="translate(-174,-30) scale(1,1)"><path fill="#ffffff" stroke="none" d="M 208 176 L 208 198 L 244.9599609375 198 L 255.9599609375 187 L 255.9599609375 176 L 208 176"/></g><g transform="translate(-174,-30) scale(1,1)"><path fill="none" stroke="#000000" d="M 208 176 L 208 198 L 244.9599609375 198 L 255.9599609375 187 L 255.9599609375 176 L 208 176 L 208 176" stroke-miterlimit="10"/></g><g transform="translate(-174,-30) scale(1,1)"><g><path fill="none" stroke="none"/><text fill="#000000" stroke="none" font-family="Arial" font-size="13px" font-style="normal" font-weight="normal" text-decoration="none" x="232.72998046875" y="193.5">_</text></g></g><g transform="translate(-174,-30) scale(1,1)"><g><path fill="none" stroke="none"/><text fill="#000000" stroke="none" font-family="Arial" font-size="13px" font-style="normal" font-weight="bold" text-decoration="none" x="213" y="193.5">alt</text></g></g><g transform="translate(-174,-30) scale(1,1)"><g><path fill="none" stroke="none"/><text fill="#000000" stroke="none" font-family="Arial" font-size="13px" font-style="normal" font-weight="normal" text-decoration="none" x="227.5" y="226.5">[value &gt; 1000]</text></g></g><g transform="translate(-174,-30) scale(1,1)"><path fill="none" stroke="#000000" d="M 208 257 L 816 257" stroke-miterlimit="10" stroke-dasharray="10,3"/></g><g transform="translate(-174,-30) scale(1,1)"><g><path fill="none" stroke="none"/><text fill="#000000" stroke="none" font-family="Arial" font-size="13px" font-style="normal" font-weight="normal" text-decoration="none" x="227.5" y="284.5">[else]</text></g></g></g></svg>