<svg version="1.1" xmlns="http://www.w3.org/2000/svg" xmlns:xlink="http://www.w3.org/1999/xlink" width="279.45361328125" height="219"><defs/><g><g transform="translate(-88,-30) scale(1,1)"><rect fill="#C0C0C0" stroke="none" x="279" y="47" width="85.45361328125" height="39" opacity="0.2"/></g><g transform="translate(-88,-30) scale(1,1)"><rect fill="#ffffff" stroke="none" x="272" y="40" width="85.45361328125" height="39"/></g><g transform="translate(-88,-30) scale(1,1)"><path fill="none" stroke="#000000" d="M 272 40 L 357.45361328125 40 L 357.45361328125 79 L 272 79 L 272 40 Z Z" stroke-miterlimit="10"/></g><g transform="translate(-88,-30) scale(1,1)"><g><path fill="none" stroke="none"/><text fill="#000000" stroke="none" font-family="Arial" font-size="13px" font-style="normal" font-weight="bold" text-decoration="none" x="284.016845703125" y="59.5">_: Hospital</text></g></g><g transform="translate(-88,-30) scale(1,1)"><path fill="none" stroke="#000000" d="M 315.5 80 L 315.5 239" stroke-miterlimit="10" stroke-dasharray="3"/></g><g transform="translate(-88,-30) scale(1,1)"><path fill="#000000" stroke="none" d="M 98 99.5 C 98 95.6340064 101.1340064 92.5 105 92.5 C 108.8659936 92.5 112 95.6340064 112 99.5 C 112 103.3659936 108.8659936 106.5 105 106.5 C 101.1340064 106.5 98 103.3659936 98 99.5 Z"/></g><g transform="translate(-88,-30) scale(1,1)"><path fill="none" stroke="#000000" d="M 112 100 L 308 100" stroke-miterlimit="10"/></g><g transform="translate(-88,-30) scale(1,1)"><path fill="#000000" stroke="none" d="M 297.83732514237585 104.20951775601598 L 308 100 L 297.83732514237585 95.79048224398402"/></g><g transform="translate(-88,-30) scale(1,1)"><path fill="none" stroke="#000000" d="M 297.83732514237585 104.20951775601598 L 308 100 L 297.83732514237585 95.79048224398402 L 297.83732514237585 104.20951775601598" stroke-miterlimit="10"/></g><g transform="translate(-88,-30) scale(1,1)"><g><path fill="none" stroke="none"/><text fill="#000000" stroke="none" font-family="Arial" font-size="13px" font-style="normal" font-weight="normal" text-decoration="none" x="122.5" y="96.5">1 : admit(patientID, roomType)</text></g></g><g transform="translate(-88,-30) scale(1,1)"><rect fill="#ffffff" stroke="none" x="308" y="100" width="13" height="28"/></g><g transform="translate(-88,-30) scale(1,1)"><path fill="none" stroke="#000000" d="M 308 100 L 321 100 L 321 128 L 308 128 L 308 100 Z Z" stroke-miterlimit="10"/></g></g></svg>