<svg version="1.1" xmlns="http://www.w3.org/2000/svg" xmlns:xlink="http://www.w3.org/1999/xlink" width="332.64990234375" height="348"><defs/><g><g transform="translate(-96,-30) scale(1,1)"><rect fill="#C0C0C0" stroke="none" x="183" y="47" width="71.736328125" height="39" opacity="0.2"/></g><g transform="translate(-96,-30) scale(1,1)"><rect fill="#ffffff" stroke="none" x="176" y="40" width="71.736328125" height="39"/></g><g transform="translate(-96,-30) scale(1,1)"><path fill="none" stroke="#000000" d="M 176 40 L 247.736328125 40 L 247.736328125 79 L 176 79 L 176 40 Z Z" stroke-miterlimit="10"/></g><g transform="translate(-96,-30) scale(1,1)"><g><path fill="none" stroke="none"/><text fill="#000000" stroke="none" font-family="Arial" font-size="13px" font-style="normal" font-weight="bold" text-decoration="none" x="188.023193359375" y="59.5">_: Client</text></g></g><g transform="translate(-96,-30) scale(1,1)"><path fill="none" stroke="#000000" d="M 212.5 80 L 212.5 368" stroke-miterlimit="10" stroke-dasharray="3"/></g><g transform="translate(-96,-30) scale(1,1)"><rect fill="#C0C0C0" stroke="none" x="351" y="47" width="74.64990234375" height="39" opacity="0.2"/></g><g transform="translate(-96,-30) scale(1,1)"><rect fill="#ffffff" stroke="none" x="344" y="40" width="74.64990234375" height="39"/></g><g transform="translate(-96,-30) scale(1,1)"><path fill="none" stroke="#000000" d="M 344 40 L 418.64990234375 40 L 418.64990234375 79 L 344 79 L 344 40 Z Z" stroke-miterlimit="10"/></g><g transform="translate(-96,-30) scale(1,1)"><g><path fill="none" stroke="none"/><text fill="#000000" stroke="none" font-family="Arial" font-size="13px" font-style="normal" font-weight="bold" text-decoration="none" x="354.95361328125" y="59.5">_: Server</text></g></g><g transform="translate(-96,-30) scale(1,1)"><path fill="none" stroke="#000000" d="M 382.5 80 L 382.5 368" stroke-miterlimit="10" stroke-dasharray="3"/></g><g transform="translate(-96,-30) scale(1,1)"><path fill="#000000" stroke="none" d="M 106 99.5 C 106 95.6340064 109.1340064 92.5 113 92.5 C 116.8659936 92.5 120 95.6340064 120 99.5 C 120 103.3659936 116.8659936 106.5 113 106.5 C 109.1340064 106.5 106 103.3659936 106 99.5 Z"/></g><g transform="translate(-96,-30) scale(1,1)"><path fill="none" stroke="#000000" d="M 120 100 L 205 100" stroke-miterlimit="10"/></g><g transform="translate(-96,-30) scale(1,1)"><path fill="#000000" stroke="none" d="M 194.83732514237585 104.20951775601598 L 205 100 L 194.83732514237585 95.79048224398402"/></g><g transform="translate(-96,-30) scale(1,1)"><path fill="none" stroke="#000000" d="M 194.83732514237585 104.20951775601598 L 205 100 L 194.83732514237585 95.79048224398402 L 194.83732514237585 104.20951775601598" stroke-miterlimit="10"/></g><g transform="translate(-96,-30) scale(1,1)"><g><path fill="none" stroke="none"/><text fill="#000000" stroke="none" font-family="Arial" font-size="13px" font-style="normal" font-weight="normal" text-decoration="none" x="119.5" y="96.5">1 : checkEmail</text></g></g><g transform="translate(-96,-30) scale(1,1)"><rect fill="#ffffff" stroke="none" x="205" y="100" width="13" height="244"/></g><g transform="translate(-96,-30) scale(1,1)"><path fill="none" stroke="#000000" d="M 205 100 L 218 100 L 218 344 L 205 344 L 205 100 Z Z" stroke-miterlimit="10"/></g><g transform="translate(-96,-30) scale(1,1)"><path fill="none" stroke="#000000" d="M 218 112 L 375 112" stroke-miterlimit="10"/></g><g transform="translate(-96,-30) scale(1,1)"><path fill="#000000" stroke="none" d="M 364.83732514237585 116.20951775601598 L 375 112 L 364.83732514237585 107.79048224398402"/></g><g transform="translate(-96,-30) scale(1,1)"><path fill="none" stroke="#000000" d="M 364.83732514237585 116.20951775601598 L 375 112 L 364.83732514237585 107.79048224398402 L 364.83732514237585 116.20951775601598" stroke-miterlimit="10"/></g><g transform="translate(-96,-30) scale(1,1)"><g><path fill="none" stroke="none"/><text fill="#000000" stroke="none" font-family="Arial" font-size="13px" font-style="normal" font-weight="normal" text-decoration="none" x="236.5" y="108.5">2 : sendUnsentEmail</text></g></g><g transform="translate(-96,-30) scale(1,1)"><rect fill="#ffffff" stroke="none" x="375" y="112" width="13" height="28"/></g><g transform="translate(-96,-30) scale(1,1)"><path fill="none" stroke="#000000" d="M 375 112 L 388 112 L 388 140 L 375 140 L 375 112 Z Z" stroke-miterlimit="10"/></g><g transform="translate(-96,-30) scale(1,1)"><path fill="none" stroke="#000000" d="M 375 136 L 218 136" stroke-miterlimit="10" stroke-dasharray="3"/></g><g transform="translate(-96,-30) scale(1,1)"><path fill="none" stroke="#000000" d="M 228.16267485762415 131.790482243984 L 218 136 L 228.16267485762415 140.209517756016" stroke-miterlimit="10"/></g><g transform="translate(-96,-30) scale(1,1)"><g><path fill="none" stroke="none"/><text fill="#000000" stroke="none" font-family="Arial" font-size="13px" font-style="normal" font-weight="normal" text-decoration="none" x="285.5" y="152.5">3 : </text></g></g><g transform="translate(-96,-30) scale(1,1)"><path fill="none" stroke="#000000" d="M 218 176 L 375 176" stroke-miterlimit="10"/></g><g transform="translate(-96,-30) scale(1,1)"><path fill="#000000" stroke="none" d="M 364.83732514237585 180.209517756016 L 375 176 L 364.83732514237585 171.790482243984"/></g><g transform="translate(-96,-30) scale(1,1)"><path fill="none" stroke="#000000" d="M 364.83732514237585 180.209517756016 L 375 176 L 364.83732514237585 171.790482243984 L 364.83732514237585 180.209517756016" stroke-miterlimit="10"/></g><g transform="translate(-96,-30) scale(1,1)"><g><path fill="none" stroke="none"/><text fill="#000000" stroke="none" font-family="Arial" font-size="13px" font-style="normal" font-weight="normal" text-decoration="none" x="258.312255859375" y="172.5">4 : newEmail</text></g></g><g transform="translate(-96,-30) scale(1,1)"><rect fill="#ffffff" stroke="none" x="375" y="176" width="13" height="28"/></g><g transform="translate(-96,-30) scale(1,1)"><path fill="none" stroke="#000000" d="M 375 176 L 388 176 L 388 204 L 375 204 L 375 176 Z Z" stroke-miterlimit="10"/></g><g transform="translate(-96,-30) scale(1,1)"><path fill="none" stroke="#000000" d="M 375 201 L 218 201" stroke-miterlimit="10" stroke-dasharray="3"/></g><g transform="translate(-96,-30) scale(1,1)"><path fill="none" stroke="#000000" d="M 228.16267485762415 196.790482243984 L 218 201 L 228.16267485762415 205.209517756016" stroke-miterlimit="10"/></g><g transform="translate(-96,-30) scale(1,1)"><g><path fill="none" stroke="none"/><text fill="#000000" stroke="none" font-family="Arial" font-size="13px" font-style="normal" font-weight="normal" text-decoration="none" x="259.5" y="217.5">5 : response</text></g></g><g transform="translate(-96,-30) scale(1,1)"><path fill="none" stroke="#000000" d="M 218 240 L 375 240" stroke-miterlimit="10"/></g><g transform="translate(-96,-30) scale(1,1)"><path fill="#000000" stroke="none" d="M 364.83732514237585 244.209517756016 L 375 240 L 364.83732514237585 235.790482243984"/></g><g transform="translate(-96,-30) scale(1,1)"><path fill="none" stroke="#000000" d="M 364.83732514237585 244.209517756016 L 375 240 L 364.83732514237585 235.790482243984 L 364.83732514237585 244.209517756016" stroke-miterlimit="10"/></g><g transform="translate(-96,-30) scale(1,1)"><g><path fill="none" stroke="none"/><text fill="#000000" stroke="none" font-family="Arial" font-size="13px" font-style="normal" font-weight="normal" text-decoration="none" x="244.5" y="236.5">6 [newEmail] : get</text></g></g><g transform="translate(-96,-30) scale(1,1)"><rect fill="#ffffff" stroke="none" x="375" y="240" width="13" height="28"/></g><g transform="translate(-96,-30) scale(1,1)"><path fill="none" stroke="#000000" d="M 375 240 L 388 240 L 388 268 L 375 268 L 375 240 Z Z" stroke-miterlimit="10"/></g><g transform="translate(-96,-30) scale(1,1)"><path fill="none" stroke="#000000" d="M 375 267 L 218 267" stroke-miterlimit="10" stroke-dasharray="3"/></g><g transform="translate(-96,-30) scale(1,1)"><path fill="none" stroke="#000000" d="M 228.16267485762415 262.790482243984 L 218 267 L 228.16267485762415 271.209517756016" stroke-miterlimit="10"/></g><g transform="translate(-96,-30) scale(1,1)"><g><path fill="none" stroke="none"/><text fill="#000000" stroke="none" font-family="Arial" font-size="13px" font-style="normal" font-weight="normal" text-decoration="none" x="285.5" y="283.5">7 : </text></g></g><g transform="translate(-96,-30) scale(1,1)"><path fill="none" stroke="#000000" d="M 218 304 L 375 304" stroke-miterlimit="10"/></g><g transform="translate(-96,-30) scale(1,1)"><path fill="#000000" stroke="none" d="M 364.83732514237585 308.209517756016 L 375 304 L 364.83732514237585 299.790482243984"/></g><g transform="translate(-96,-30) scale(1,1)"><path fill="none" stroke="#000000" d="M 364.83732514237585 308.209517756016 L 375 304 L 364.83732514237585 299.790482243984 L 364.83732514237585 308.209517756016" stroke-miterlimit="10"/></g><g transform="translate(-96,-30) scale(1,1)"><g><path fill="none" stroke="none"/><text fill="#000000" stroke="none" font-family="Arial" font-size="13px" font-style="normal" font-weight="normal" text-decoration="none" x="242.5" y="300.5">8 : deleteOldEmail</text></g></g><g transform="translate(-96,-30) scale(1,1)"><rect fill="#ffffff" stroke="none" x="375" y="304" width="13" height="28"/></g><g transform="translate(-96,-30) scale(1,1)"><path fill="none" stroke="#000000" d="M 375 304 L 388 304 L 388 332 L 375 332 L 375 304 Z Z" stroke-miterlimit="10"/></g><g transform="translate(-96,-30) scale(1,1)"><path fill="none" stroke="#000000" d="M 375 328 L 218 328" stroke-miterlimit="10" stroke-dasharray="3"/></g><g transform="translate(-96,-30) scale(1,1)"><path fill="none" stroke="#000000" d="M 228.16267485762415 323.790482243984 L 218 328 L 228.16267485762415 332.209517756016" stroke-miterlimit="10"/></g><g transform="translate(-96,-30) scale(1,1)"><g><path fill="none" stroke="none"/><text fill="#000000" stroke="none" font-family="Arial" font-size="13px" font-style="normal" font-weight="normal" text-decoration="none" x="285.5" y="344.5">9 : </text></g></g></g></svg>