<svg version="1.1" xmlns="http://www.w3.org/2000/svg" xmlns:xlink="http://www.w3.org/1999/xlink" width="355.736328125" height="219"><defs/><g><g transform="translate(-62,-30) scale(1,1)"><rect fill="#C0C0C0" stroke="none" x="79" y="47" width="106.39453125" height="39" opacity="0.2"/></g><g transform="translate(-62,-30) scale(1,1)"><rect fill="#ffffff" stroke="none" x="72" y="40" width="106.39453125" height="39"/></g><g transform="translate(-62,-30) scale(1,1)"><path fill="none" stroke="#000000" d="M 72 40 L 178.39453125 40 L 178.39453125 79 L 72 79 L 72 40 Z Z" stroke-miterlimit="10"/></g><g transform="translate(-62,-30) scale(1,1)"><g><path fill="none" stroke="none"/><text fill="#000000" stroke="none" font-family="Arial" font-size="13px" font-style="normal" font-weight="bold" text-decoration="none" x="84.734130859375" y="59.5">Smith: Patient</text></g></g><g transform="translate(-62,-30) scale(1,1)"><path fill="none" stroke="#000000" d="M 126.5 80 L 126.5 239" stroke-miterlimit="10" stroke-dasharray="3"/></g><g transform="translate(-62,-30) scale(1,1)"><rect fill="#C0C0C0" stroke="none" x="223" y="47" width="77.5126953125" height="39" opacity="0.2"/></g><g transform="translate(-62,-30) scale(1,1)"><rect fill="#ffffff" stroke="none" x="216" y="40" width="77.5126953125" height="39"/></g><g transform="translate(-62,-30) scale(1,1)"><path fill="none" stroke="#000000" d="M 216 40 L 293.5126953125 40 L 293.5126953125 79 L 216 79 L 216 40 Z Z" stroke-miterlimit="10"/></g><g transform="translate(-62,-30) scale(1,1)"><g><path fill="none" stroke="none"/><text fill="#000000" stroke="none" font-family="Arial" font-size="13px" font-style="normal" font-weight="bold" text-decoration="none" x="227.293212890625" y="59.5">_: Patient</text></g></g><g transform="translate(-62,-30) scale(1,1)"><path fill="none" stroke="#000000" d="M 255.5 80 L 255.5 239" stroke-miterlimit="10" stroke-dasharray="3"/></g><g transform="translate(-62,-30) scale(1,1)"><rect fill="#C0C0C0" stroke="none" x="343" y="47" width="71.736328125" height="39" opacity="0.2"/></g><g transform="translate(-62,-30) scale(1,1)"><rect fill="#ffffff" stroke="none" x="336" y="40" width="71.736328125" height="39"/></g><g transform="translate(-62,-30) scale(1,1)"><path fill="none" stroke="#000000" d="M 336 40 L 407.736328125 40 L 407.736328125 79 L 336 79 L 336 40 Z Z" stroke-miterlimit="10"/></g><g transform="translate(-62,-30) scale(1,1)"><g><path fill="none" stroke="none"/><text fill="#000000" stroke="none" font-family="Arial" font-size="13px" font-style="normal" font-weight="bold" text-decoration="none" x="355.253173828125" y="59.5">Smith</text></g></g><g transform="translate(-62,-30) scale(1,1)"><path fill="none" stroke="#000000" d="M 372.5 80 L 372.5 239" stroke-miterlimit="10" stroke-dasharray="3"/></g></g></svg>