<svg version="1.1" xmlns="http://www.w3.org/2000/svg" xmlns:xlink="http://www.w3.org/1999/xlink" width="186.2060546875" height="90"><defs/><g><g transform="translate(-206,-190) scale(1,1)"><rect fill="#C0C0C0" stroke="none" x="223" y="207" width="166.2060546875" height="70" opacity="0.2"/></g><g transform="translate(-206,-190) scale(1,1)"><rect fill="#ffffff" stroke="none" x="216" y="200" width="166.2060546875" height="70"/></g><g transform="translate(-206,-190) scale(1,1)"><path fill="none" stroke="#000000" d="M 216 200 L 382.2060546875 200 L 382.2060546875 270 L 216 270 L 216 200 Z Z" stroke-miterlimit="10"/></g><g transform="translate(-206,-190) scale(1,1)"><path fill="none" stroke="#000000" d="M 216 225 L 382.2060546875 225" stroke-miterlimit="10"/></g><g transform="translate(-206,-190) scale(1,1)"><path fill="none" stroke="#000000" d="M 216 248 L 382.2060546875 248" stroke-miterlimit="10"/></g><g transform="translate(-206,-190) scale(1,1)"><g><path fill="none" stroke="none"/><text fill="#000000" stroke="none" font-family="Arial" font-size="13px" font-style="normal" font-weight="bold" text-decoration="none" x="271.99853515625" y="219.5">Singleton</text></g></g><g transform="translate(-206,-190) scale(1,1)"><g><path fill="none" stroke="none"/><text fill="#000000" stroke="none" font-family="Arial" font-size="13px" font-style="normal" font-weight="normal" text-decoration="none" x="221" y="242.5">-uniqueInstance: Singleton</text><path fill="none" stroke="#000000" d="M 221 242.5 L 374.943359375 242.5" stroke-miterlimit="10"/></g></g><g transform="translate(-206,-190) scale(1,1)"><g><path fill="none" stroke="none"/><text fill="#000000" stroke="none" font-family="Arial" font-size="13px" font-style="normal" font-weight="normal" text-decoration="none" x="221" y="265.5">+getInstance(): Singleton</text><path fill="none" stroke="#000000" d="M 221 265.5 L 365.89794921875 265.5" stroke-miterlimit="10"/></g></g></g></svg>