<?xml version="1.0" encoding="utf-8"?>
<!-- Generator: Adobe Illustrator 17.0.0, SVG Export Plug-In . SVG Version: 6.00 Build 0)  -->
<!DOCTYPE svg PUBLIC "-//W3C//DTD SVG 1.1//EN" "http://www.w3.org/Graphics/SVG/1.1/DTD/svg11.dtd">
<svg version="1.1" id="Layer_1" xmlns="http://www.w3.org/2000/svg" xmlns:xlink="http://www.w3.org/1999/xlink" x="0px" y="0px"
	 width="28.792px" height="28.833px" viewBox="0.757 -0.283 28.792 28.833" enable-background="new 0.757 -0.283 28.792 28.833"
	 xml:space="preserve">
<g>
	<path d="M16.358,22.833c4.227-0.597,7.476-4.227,7.476-8.622c0-2.675-1.194-5.039-3.081-6.64l-4.395,4.395V22.833z"/>
	<path d="M13.922,22.833V11.966L9.527,7.571c-1.887,1.6-3.081,3.989-3.081,6.64C6.446,18.605,9.694,22.236,13.922,22.833z"/>
	<path d="M22.711,6.664c2.03,2.03,3.129,4.705,3.129,7.571s-1.123,5.541-3.129,7.571c-2.03,2.03-4.705,3.129-7.571,3.129
		s-5.541-1.146-7.547-3.153S4.44,17.077,4.44,14.211S5.562,8.67,7.569,6.64c0.167-0.167,0.358-0.334,0.525-0.502L5.682,3.726
		C5.491,3.893,5.324,4.06,5.156,4.227c-1.29,1.29-2.317,2.818-3.033,4.49c-0.74,1.744-1.123,3.583-1.123,5.493
		s0.382,3.75,1.123,5.493c0.717,1.696,1.744,3.2,3.033,4.49s2.818,2.317,4.49,3.033c1.744,0.74,3.606,1.123,5.493,1.123
		c1.911,0,3.75-0.382,5.493-1.123c1.696-0.717,3.2-1.744,4.49-3.033c1.29-1.29,2.317-2.818,3.033-4.49
		c0.74-1.744,1.123-3.606,1.123-5.493c0-1.911-0.382-3.75-1.123-5.493c-0.717-1.696-1.744-3.2-3.033-4.49
		c-0.167-0.167-0.358-0.334-0.525-0.502l-2.436,2.436C22.353,6.329,22.52,6.496,22.711,6.664z"/>
	<circle id="red_circle_5_" fill="#369767" cx="15.14" cy="4.418" r="4.418"/>
</g>
</svg>
