<svg version="1.1" xmlns="http://www.w3.org/2000/svg" xmlns:xlink="http://www.w3.org/1999/xlink" width="338.5244140625" height="243"><defs/><g><g transform="translate(-182,-102) scale(1,1)"><rect fill="#C0C0C0" stroke="none" x="303" y="119" width="118.8271484375" height="87" opacity="0.2"/></g><g transform="translate(-182,-102) scale(1,1)"><rect fill="#ffffff" stroke="none" x="296" y="112" width="118.8271484375" height="87"/></g><g transform="translate(-182,-102) scale(1,1)"><path fill="none" stroke="#000000" d="M 296 112 L 414.8271484375 112 L 414.8271484375 199 L 296 199 L 296 112 Z Z" stroke-miterlimit="10"/></g><g transform="translate(-182,-102) scale(1,1)"><path fill="none" stroke="#000000" d="M 296 137 L 414.8271484375 137" stroke-miterlimit="10"/></g><g transform="translate(-182,-102) scale(1,1)"><path fill="none" stroke="#000000" d="M 296 147 L 414.8271484375 147" stroke-miterlimit="10"/></g><g transform="translate(-182,-102) scale(1,1)"><g><path fill="none" stroke="none"/><text fill="#000000" stroke="none" font-family="Arial" font-size="13px" font-style="italic" font-weight="bold" text-decoration="none" x="303.378662109375" y="131.5">CaffeineBeverage</text></g></g><g transform="translate(-182,-102) scale(1,1)"><g><path fill="none" stroke="none"/><text fill="#000000" stroke="none" font-family="Arial" font-size="13px" font-style="italic" font-weight="normal" text-decoration="none" x="301" y="164.5">+prepareRecipe()</text></g></g><g transform="translate(-182,-102) scale(1,1)"><g><path fill="none" stroke="none"/><text fill="#000000" stroke="none" font-family="Arial" font-size="13px" font-style="normal" font-weight="normal" text-decoration="none" x="301" y="179.5">+boilWater()</text></g></g><g transform="translate(-182,-102) scale(1,1)"><g><path fill="none" stroke="none"/><text fill="#000000" stroke="none" font-family="Arial" font-size="13px" font-style="normal" font-weight="normal" text-decoration="none" x="301" y="194.5">+pourInCup()</text></g></g><g transform="translate(-182,-102) scale(1,1)"><rect fill="#C0C0C0" stroke="none" x="199" y="255" width="129.783203125" height="87" opacity="0.2"/></g><g transform="translate(-182,-102) scale(1,1)"><rect fill="#ffffff" stroke="none" x="192" y="248" width="129.783203125" height="87"/></g><g transform="translate(-182,-102) scale(1,1)"><path fill="none" stroke="#000000" d="M 192 248 L 321.783203125 248 L 321.783203125 335 L 192 335 L 192 248 Z Z" stroke-miterlimit="10"/></g><g transform="translate(-182,-102) scale(1,1)"><path fill="none" stroke="#000000" d="M 192 273 L 321.783203125 273" stroke-miterlimit="10"/></g><g transform="translate(-182,-102) scale(1,1)"><path fill="none" stroke="#000000" d="M 192 283 L 321.783203125 283" stroke-miterlimit="10"/></g><g transform="translate(-182,-102) scale(1,1)"><g><path fill="none" stroke="none"/><text fill="#000000" stroke="none" font-family="Arial" font-size="13px" font-style="normal" font-weight="bold" text-decoration="none" x="237.858154296875" y="267.5">Coffee</text></g></g><g transform="translate(-182,-102) scale(1,1)"><g><path fill="none" stroke="none"/><text fill="#000000" stroke="none" font-family="Arial" font-size="13px" font-style="normal" font-weight="normal" text-decoration="none" x="197" y="300.5">+prepareRecipe()</text></g></g><g transform="translate(-182,-102) scale(1,1)"><g><path fill="none" stroke="none"/><text fill="#000000" stroke="none" font-family="Arial" font-size="13px" font-style="normal" font-weight="normal" text-decoration="none" x="197" y="315.5">+brewCoffeeGrinds()</text></g></g><g transform="translate(-182,-102) scale(1,1)"><g><path fill="none" stroke="none"/><text fill="#000000" stroke="none" font-family="Arial" font-size="13px" font-style="normal" font-weight="normal" text-decoration="none" x="197" y="330.5">+addSugarAndMilk()</text></g></g><g transform="translate(-182,-102) scale(1,1)"><rect fill="#C0C0C0" stroke="none" x="407" y="255" width="110.5244140625" height="87" opacity="0.2"/></g><g transform="translate(-182,-102) scale(1,1)"><rect fill="#ffffff" stroke="none" x="400" y="248" width="110.5244140625" height="87"/></g><g transform="translate(-182,-102) scale(1,1)"><path fill="none" stroke="#000000" d="M 400 248 L 510.5244140625 248 L 510.5244140625 335 L 400 335 L 400 248 Z Z" stroke-miterlimit="10"/></g><g transform="translate(-182,-102) scale(1,1)"><path fill="none" stroke="#000000" d="M 400 273 L 510.5244140625 273" stroke-miterlimit="10"/></g><g transform="translate(-182,-102) scale(1,1)"><path fill="none" stroke="#000000" d="M 400 283 L 510.5244140625 283" stroke-miterlimit="10"/></g><g transform="translate(-182,-102) scale(1,1)"><g><path fill="none" stroke="none"/><text fill="#000000" stroke="none" font-family="Arial" font-size="13px" font-style="normal" font-weight="bold" text-decoration="none" x="444.7822265625" y="267.5">Tea</text></g></g><g transform="translate(-182,-102) scale(1,1)"><g><path fill="none" stroke="none"/><text fill="#000000" stroke="none" font-family="Arial" font-size="13px" font-style="normal" font-weight="normal" text-decoration="none" x="405" y="300.5">+prepareRecipe()</text></g></g><g transform="translate(-182,-102) scale(1,1)"><g><path fill="none" stroke="none"/><text fill="#000000" stroke="none" font-family="Arial" font-size="13px" font-style="normal" font-weight="normal" text-decoration="none" x="405" y="315.5">+steepTea()</text></g></g><g transform="translate(-182,-102) scale(1,1)"><g><path fill="none" stroke="none"/><text fill="#000000" stroke="none" font-family="Arial" font-size="13px" font-style="normal" font-weight="normal" text-decoration="none" x="405" y="330.5">+addLemon()</text></g></g><g transform="translate(-182,-102) scale(1,1)"><path fill="none" stroke="#000000" d="M 256 248 L 256 231 L 355 231 L 355 199" stroke-miterlimit="10"/></g><g transform="translate(-182,-102) scale(1,1)"><path fill="#FFFFFF" stroke="none" d="M 363.419035512032 219.3253497152483 L 355 199 L 346.580964487968 219.3253497152483"/></g><g transform="translate(-182,-102) scale(1,1)"><path fill="none" stroke="#000000" d="M 363.419035512032 219.3253497152483 L 355 199 L 346.580964487968 219.3253497152483 L 363.419035512032 219.3253497152483" stroke-miterlimit="10"/></g><g transform="translate(-182,-102) scale(1,1)"><path fill="none" stroke="#000000" d="M 455 248 L 455 231 L 355 231 L 355 199" stroke-miterlimit="10"/></g><g transform="translate(-182,-102) scale(1,1)"><path fill="#FFFFFF" stroke="none" d="M 363.419035512032 219.3253497152483 L 355 199 L 346.580964487968 219.3253497152483"/></g><g transform="translate(-182,-102) scale(1,1)"><path fill="none" stroke="#000000" d="M 363.419035512032 219.3253497152483 L 355 199 L 346.580964487968 219.3253497152483 L 363.419035512032 219.3253497152483" stroke-miterlimit="10"/></g></g></svg>