<svg version="1.1" xmlns="http://www.w3.org/2000/svg" xmlns:xlink="http://www.w3.org/1999/xlink" width="363.9853515625" height="260"><defs/><g><g transform="translate(-102,-54) scale(1,1)"><rect fill="#C0C0C0" stroke="none" x="119" y="71" width="137.96533203125" height="87" opacity="0.2"/></g><g transform="translate(-102,-54) scale(1,1)"><rect fill="#ffffff" stroke="none" x="112" y="64" width="137.96533203125" height="87"/></g><g transform="translate(-102,-54) scale(1,1)"><path fill="none" stroke="#000000" d="M 112 64 L 249.96533203125 64 L 249.96533203125 151 L 112 151 L 112 64 Z Z" stroke-miterlimit="10"/></g><g transform="translate(-102,-54) scale(1,1)"><path fill="none" stroke="#000000" d="M 112 89 L 249.96533203125 89" stroke-miterlimit="10"/></g><g transform="translate(-102,-54) scale(1,1)"><path fill="none" stroke="#000000" d="M 112 99 L 249.96533203125 99" stroke-miterlimit="10"/></g><g transform="translate(-102,-54) scale(1,1)"><g><path fill="none" stroke="none"/><text fill="#000000" stroke="none" font-family="Arial" font-size="13px" font-style="normal" font-weight="bold" text-decoration="none" x="140.8876953125" y="83.5">AbstractClass</text></g></g><g transform="translate(-102,-54) scale(1,1)"><g><path fill="none" stroke="none"/><text fill="#000000" stroke="none" font-family="Arial" font-size="13px" font-style="normal" font-weight="normal" text-decoration="none" x="117" y="116.5">+templateMethod()</text></g></g><g transform="translate(-102,-54) scale(1,1)"><g><path fill="none" stroke="none"/><text fill="#000000" stroke="none" font-family="Arial" font-size="13px" font-style="italic" font-weight="normal" text-decoration="none" x="117" y="131.5">+primitiveOperation1()</text></g></g><g transform="translate(-102,-54) scale(1,1)"><g><path fill="none" stroke="none"/><text fill="#000000" stroke="none" font-family="Arial" font-size="13px" font-style="italic" font-weight="normal" text-decoration="none" x="117" y="146.5">+primitiveOperation2()</text></g></g><g transform="translate(-102,-54) scale(1,1)"><rect fill="#C0C0C0" stroke="none" x="119" y="239" width="137.96533203125" height="72" opacity="0.2"/></g><g transform="translate(-102,-54) scale(1,1)"><rect fill="#ffffff" stroke="none" x="112" y="232" width="137.96533203125" height="72"/></g><g transform="translate(-102,-54) scale(1,1)"><path fill="none" stroke="#000000" d="M 112 232 L 249.96533203125 232 L 249.96533203125 304 L 112 304 L 112 232 Z Z" stroke-miterlimit="10"/></g><g transform="translate(-102,-54) scale(1,1)"><path fill="none" stroke="#000000" d="M 112 257 L 249.96533203125 257" stroke-miterlimit="10"/></g><g transform="translate(-102,-54) scale(1,1)"><path fill="none" stroke="#000000" d="M 112 267 L 249.96533203125 267" stroke-miterlimit="10"/></g><g transform="translate(-102,-54) scale(1,1)"><g><path fill="none" stroke="none"/><text fill="#000000" stroke="none" font-family="Arial" font-size="13px" font-style="normal" font-weight="bold" text-decoration="none" x="138.35498046875" y="251.5">ConcreteClass</text></g></g><g transform="translate(-102,-54) scale(1,1)"><g><path fill="none" stroke="none"/><text fill="#000000" stroke="none" font-family="Arial" font-size="13px" font-style="normal" font-weight="normal" text-decoration="none" x="117" y="284.5">+primitiveOperation1()</text></g></g><g transform="translate(-102,-54) scale(1,1)"><g><path fill="none" stroke="none"/><text fill="#000000" stroke="none" font-family="Arial" font-size="13px" font-style="normal" font-weight="normal" text-decoration="none" x="117" y="299.5">+primitiveOperation2()</text></g></g><g transform="translate(-102,-54) scale(1,1)"><path fill="none" stroke="#000000" d="M 180 231 L 180 152" stroke-miterlimit="10"/></g><g transform="translate(-102,-54) scale(1,1)"><path fill="#FFFFFF" stroke="none" d="M 188.41903551203197 172.3253497152483 L 180 152 L 171.58096448796803 172.3253497152483"/></g><g transform="translate(-102,-54) scale(1,1)"><path fill="none" stroke="#000000" d="M 188.41903551203197 172.3253497152483 L 180 152 L 171.58096448796803 172.3253497152483 L 188.41903551203197 172.3253497152483" stroke-miterlimit="10"/></g><g transform="translate(-102,-54) scale(1,1)"><path fill="#ffffff" stroke="none" d="M 312 88 L 444.9853515625 88 L 454.9853515625 98 L 454.9853515625 126 L 312 126 L 312 88"/></g><g transform="translate(-102,-54) scale(1,1)"><path fill="none" stroke="#000000" d="M 312 88 L 444.9853515625 88 L 454.9853515625 98 L 454.9853515625 126 L 312 126 L 312 88 L 312 88" stroke-miterlimit="10"/></g><g transform="translate(-102,-54) scale(1,1)"><path fill="none" stroke="#000000" d="M 444.9853515625 88 L 444.9853515625 98 L 454.9853515625 98 L 444.9853515625 88" stroke-miterlimit="10"/></g><g transform="translate(-102,-54) scale(1,1)"><g><path fill="none" stroke="none"/><text fill="#000000" stroke="none" font-family="Arial" font-size="13px" font-style="normal" font-weight="normal" text-decoration="none" x="317" y="106">primitiveOperation1();</text><text fill="#000000" stroke="none" font-family="Arial" font-size="13px" font-style="normal" font-weight="normal" text-decoration="none" x="317" y="119">primitiveOperation2();</text></g></g><g transform="translate(-102,-54) scale(1,1)"><path fill="none" stroke="#000000" d="M 251 107 L 311 107" stroke-miterlimit="10" stroke-dasharray="3"/></g></g></svg>