<svg xmlns="http://www.w3.org/2000/svg" xmlns:xlink="http://www.w3.org/1999/xlink" xmlns:lucid="lucid" width="800" height="1160"><g transform="translate(-200 -40)" lucid:page-tab-id="0_0"><path d="M660 66c0-3.3 2.7-6 6-6h308c3.3 0 6 2.7 6 6v1108c0 3.3-2.7 6-6 6H666c-3.3 0-6-2.7-6-6z" stroke="#fff" stroke-width="3" fill-opacity="0"/><use xlink:href="#a" transform="matrix(1,0,0,1,668,68) translate(118.14197530864197 17.77777777777778)"/><path d="M279.75 549.75c0 10.9-8.84 19.75-19.75 19.75-10.9 0-19.75-8.84-19.75-19.75 0-10.9 8.84-19.75 19.75-19.75 10.9 0 19.75 8.84 19.75 19.75z" stroke="#fff" stroke-width="3" fill-opacity="0"/><path d="M260 569.5v49.3c0 3.3 1.44 8.27 3.2 11.07L300 688m-40-63.2L220 688m0-98.75h80" stroke="#fff" stroke-width="3" fill="none"/><path d="M220 536c0-3.3 2.7-6 6-6h68c3.3 0 6 2.7 6 6v168c0 3.3-2.7 6-6 6h-68c-3.3 0-6-2.7-6-6z" fill="none"/><use xlink:href="#b" transform="matrix(1,0,0,1,140,688) translate(96.60493827160494 17.77777777777778)"/><path d="M900 160c0 22.1-35.82 40-80 40s-80-17.9-80-40 35.82-40 80-40 80 17.9 80 40z" stroke="#fff" stroke-width="3" fill-opacity="0"/><use xlink:href="#c" transform="matrix(1,0,0,1,740,120) translate(28.57999999999999 44.4)"/><use xlink:href="#d" transform="matrix(1,0,0,1,740,120) translate(65.57999999999998 44.4)"/><path d="M900 240c0 22.1-35.82 40-80 40s-80-17.9-80-40 35.82-40 80-40 80 17.9 80 40z" stroke="#fff" stroke-width="3" fill-opacity="0"/><use xlink:href="#c" transform="matrix(1,0,0,1,740,200) translate(41.005 44.4)"/><use xlink:href="#e" transform="matrix(1,0,0,1,740,200) translate(78.005 44.4)"/><path d="M900 320c0 22.1-35.82 40-80 40s-80-17.9-80-40 35.82-40 80-40 80 17.9 80 40z" stroke="#fff" stroke-width="3" fill-opacity="0"/><use xlink:href="#f" transform="matrix(1,0,0,1,740,280) translate(31.005000000000003 44.4)"/><use xlink:href="#g" transform="matrix(1,0,0,1,740,280) translate(79.005 44.4)"/><path d="M900 400c0 22.1-35.82 40-80 40s-80-17.9-80-40 35.82-40 80-40 80 17.9 80 40z" stroke="#fff" stroke-width="3" fill-opacity="0"/><use xlink:href="#h" transform="matrix(1,0,0,1,740,360) translate(25.554999999999993 44.4)"/><use xlink:href="#g" transform="matrix(1,0,0,1,740,360) translate(84.45500000000001 44.4)"/><path d="M900 480c0 22.1-35.82 40-80 40s-80-17.9-80-40 35.82-40 80-40 80 17.9 80 40z" stroke="#fff" stroke-width="3" fill-opacity="0"/><use xlink:href="#i" transform="matrix(1,0,0,1,740,440) translate(61.555 21.41)"/><use xlink:href="#j" transform="matrix(1,0,0,1,740,440) translate(28.904999999999994 43.01)"/><path d="M900 560c0 22.1-35.82 40-80 40s-80-17.9-80-40 35.82-40 80-40 80 17.9 80 40z" stroke="#fff" stroke-width="3" fill-opacity="0"/><use xlink:href="#k" transform="matrix(1,0,0,1,740,520) translate(46.55499999999999 31.9)"/><use xlink:href="#g" transform="matrix(1,0,0,1,740,520) translate(55.004999999999995 53.5)"/><path d="M900 640c0 22.1-35.82 40-80 40s-80-17.9-80-40 35.82-40 80-40 80 17.9 80 40z" stroke="#fff" stroke-width="3" fill-opacity="0"/><use xlink:href="#l" transform="matrix(1,0,0,1,740,600) translate(36.57999999999999 44.56666666666667)"/><use xlink:href="#m" transform="matrix(1,0,0,1,740,600) translate(86.53 44.56666666666667)"/><path d="M900 720c0 22.1-35.82 40-80 40s-80-17.9-80-40 35.82-40 80-40 80 17.9 80 40z" stroke="#fff" stroke-width="3" fill-opacity="0"/><use xlink:href="#n" transform="matrix(1,0,0,1,740,680) translate(25.60499999999999 44.4)"/><use xlink:href="#o" transform="matrix(1,0,0,1,740,680) translate(97.505 44.4)"/><path d="M900 800c0 22.1-35.82 40-80 40s-80-17.9-80-40 35.82-40 80-40 80 17.9 80 40z" stroke="#fff" stroke-width="3" fill-opacity="0"/><use xlink:href="#p" transform="matrix(1,0,0,1,740,760) translate(47.53 31.9)"/><use xlink:href="#q" transform="matrix(1,0,0,1,740,760) translate(57.05499999999999 53.5)"/><path d="M900 880c0 22.1-35.82 40-80 40s-80-17.9-80-40 35.82-40 80-40 80 17.9 80 40z" stroke="#fff" stroke-width="3" fill-opacity="0"/><use xlink:href="#r" transform="matrix(1,0,0,1,740,840) translate(24.554999999999993 44.4)"/><use xlink:href="#g" transform="matrix(1,0,0,1,740,840) translate(85.45500000000001 44.4)"/><path d="M900 960c0 22.1-35.82 40-80 40s-80-17.9-80-40 35.82-40 80-40 80 17.9 80 40z" stroke="#fff" stroke-width="3" fill-opacity="0"/><use xlink:href="#s" transform="matrix(1,0,0,1,740,920) translate(38.029999999999994 44.4)"/><use xlink:href="#t" transform="matrix(1,0,0,1,740,920) translate(84.03 44.4)"/><path d="M900 1040c0 22.1-35.82 40-80 40s-80-17.9-80-40 35.82-40 80-40 80 17.9 80 40z" stroke="#fff" stroke-width="3" fill-opacity="0"/><use xlink:href="#u" transform="matrix(1,0,0,1,740,1000) translate(25.10499999999999 44.4)"/><use xlink:href="#t" transform="matrix(1,0,0,1,740,1000) translate(96.95500000000001 44.4)"/><path d="M900 1120c0 22.1-35.82 40-80 40s-80-17.9-80-40 35.82-40 80-40 80 17.9 80 40z" stroke="#fff" stroke-width="3" fill-opacity="0"/><use xlink:href="#v" transform="matrix(1,0,0,1,740,1080) translate(65.03 44.4)"/><path d="M262.23 608.1l475.54-447.4M262.25 608.1l-2.93 2.75" stroke="#fff" stroke-width="2" fill="none"/><path d="M738.54 158.63l-.04 1.35v.22l.05 1.13-.1.1-1.38-1.46 1.48-1.4z" stroke="#fff" stroke-width=".05" fill="#fff"/><path d="M262.3 608.2l475.4-367.6M262.3 608.17l-3.17 2.46" stroke="#fff" stroke-width="2" fill="none"/><path d="M738.5 239.98v.22l.04 1.03-.24.2-1.22-1.6 1.46-1.12z" stroke="#fff" stroke-width=".05" fill="#fff"/><path d="M262.36 608.28l475.28-287.76M262.38 608.27l-3.45 2.08" stroke="#fff" stroke-width="2" fill="none"/><path d="M738.5 319.98v.22l.04.95-.4.24-1.04-1.72 1.44-.87z" stroke="#fff" stroke-width=".05" fill="#fff"/><path d="M262.42 608.4l475.16-208M262.44 608.4l-3.7 1.6" stroke="#fff" stroke-width="2" fill="none"/><path d="M738.5 399.98v.22l.04.88-.58.25-.8-1.83 1.37-.6z" stroke="#fff" stroke-width=".05" fill="#fff"/><path d="M262.47 608.54l475.06-128.28M262.5 608.53l-3.9 1.05" stroke="#fff" stroke-width="2" fill="none"/><path d="M738.5 479.98v.22l.03.83-.76.2-.52-1.93 1.28-.34z" stroke="#fff" stroke-width=".05" fill="#fff"/><path d="M262.5 608.7l475-48.6M262.52 608.7l-4 .4" stroke="#fff" stroke-width="2" fill="none"/><path d="M738.5 559.98v.22l.03.8-.95.1-.2-2 1.15-.1z" stroke="#fff" stroke-width=".05" fill="#fff"/><path d="M262.5 608.86l475 31.07M262.52 608.86l-4-.26" stroke="#fff" stroke-width="2" fill="none"/><path d="M738.53 639l-.03.98v.22l.03.8-1.12-.07.14-2z" stroke="#fff" stroke-width=".05" fill="#fff"/><path d="M262.47 609.02l475.06 110.75M262.5 609.03l-3.92-.9" stroke="#fff" stroke-width="2" fill="none"/><path d="M738.53 718.98l-.03 1v.22l.03.83-1.26-.3.46-1.94z" stroke="#fff" stroke-width=".05" fill="#fff"/><path d="M262.43 609.17l475.14 190.46M262.45 609.18l-3.73-1.5" stroke="#fff" stroke-width="2" fill="none"/><path d="M738.53 798.94l-.03 1.04v.22l.04.9-1.36-.55.74-1.86z" stroke="#fff" stroke-width=".05" fill="#fff"/><path d="M262.37 609.3l475.26 270.2M262.4 609.3l-3.5-1.98" stroke="#fff" stroke-width="2" fill="none"/><path d="M738.53 878.87l-.03 1.1v.23l.04.97-1.43-.8 1-1.75z" stroke="#fff" stroke-width=".05" fill="#fff"/><path d="M262.3 609.4l475.4 350M262.33 609.4l-3.25-2.38" stroke="#fff" stroke-width="2" fill="none"/><path d="M738.54 958.8l-.04 1.18v.22l.04 1.07-1.46-1.07 1.2-1.6z" stroke="#fff" stroke-width=".05" fill="#fff"/><path d="M262.24 609.47l475.52 429.86M262.26 609.5l-3-2.7" stroke="#fff" stroke-width="2" fill="none"/><path d="M738.54 1038.7l-.04 1.28v.22l.05 1.2-1.48-1.35 1.34-1.48z" stroke="#fff" stroke-width=".05" fill="#fff"/><path d="M262.18 609.53l475.64 509.74M262.2 609.55l-2.75-2.95" stroke="#fff" stroke-width="2" fill="none"/><path d="M738.55 1118.58v.05l-.05 1.35v.22l.05 1.32-1.48-1.6 1.46-1.35z" stroke="#fff" stroke-width=".05" fill="#fff"/><defs><path fill="#fff" d="M30 0v-248h33v221h125V0H30" id="w"/><path fill="#fff" d="M24-231v-30h32v30H24zM24 0v-190h32V0H24" id="x"/><path fill="#fff" d="M115-194c53 0 69 39 70 98 0 66-23 100-70 100C84 3 66-7 56-30L54 0H23l1-261h32v101c10-23 28-34 59-34zm-8 174c40 0 45-34 45-75 0-40-5-75-45-74-42 0-51 32-51 76 0 43 10 73 51 73" id="y"/><path fill="#fff" d="M114-163C36-179 61-72 57 0H25l-1-190h30c1 12-1 29 2 39 6-27 23-49 58-41v29" id="z"/><path fill="#fff" d="M141-36C126-15 110 5 73 4 37 3 15-17 15-53c-1-64 63-63 125-63 3-35-9-54-41-54-24 1-41 7-42 31l-33-3c5-37 33-52 76-52 45 0 72 20 72 64v82c-1 20 7 32 28 27v20c-31 9-61-2-59-35zM48-53c0 20 12 33 32 33 41-3 63-29 60-74-43 2-92-5-92 41" id="A"/><path fill="#fff" d="M179-190L93 31C79 59 56 82 12 73V49c39 6 53-20 64-50L1-190h34L92-34l54-156h33" id="B"/><g id="a"><use transform="matrix(0.06172839506172839,0,0,0.06172839506172839,0,0)" xlink:href="#w"/><use transform="matrix(0.06172839506172839,0,0,0.06172839506172839,12.345679012345679,0)" xlink:href="#x"/><use transform="matrix(0.06172839506172839,0,0,0.06172839506172839,17.22222222222222,0)" xlink:href="#y"/><use transform="matrix(0.06172839506172839,0,0,0.06172839506172839,29.5679012345679,0)" xlink:href="#z"/><use transform="matrix(0.06172839506172839,0,0,0.06172839506172839,36.913580246913575,0)" xlink:href="#A"/><use transform="matrix(0.06172839506172839,0,0,0.06172839506172839,49.25925925925925,0)" xlink:href="#z"/><use transform="matrix(0.06172839506172839,0,0,0.06172839506172839,56.60493827160493,0)" xlink:href="#B"/></g><path fill="#fff" d="M232-93c-1 65-40 97-104 97C67 4 28-28 28-90v-158h33c8 89-33 224 67 224 102 0 64-133 71-224h33v155" id="C"/><path fill="#fff" d="M135-143c-3-34-86-38-87 0 15 53 115 12 119 90S17 21 10-45l28-5c4 36 97 45 98 0-10-56-113-15-118-90-4-57 82-63 122-42 12 7 21 19 24 35" id="D"/><path fill="#fff" d="M100-194c63 0 86 42 84 106H49c0 40 14 67 53 68 26 1 43-12 49-29l28 8c-11 28-37 45-77 45C44 4 14-33 15-96c1-61 26-98 85-98zm52 81c6-60-76-77-97-28-3 7-6 17-6 28h103" id="E"/><g id="b"><use transform="matrix(0.06172839506172839,0,0,0.06172839506172839,0,0)" xlink:href="#C"/><use transform="matrix(0.06172839506172839,0,0,0.06172839506172839,15.987654320987653,0)" xlink:href="#D"/><use transform="matrix(0.06172839506172839,0,0,0.06172839506172839,27.098765432098766,0)" xlink:href="#E"/><use transform="matrix(0.06172839506172839,0,0,0.06172839506172839,39.44444444444444,0)" xlink:href="#z"/></g><path fill="#fff" d="M205 0l-28-72H64L36 0H1l101-248h38L239 0h-34zm-38-99l-47-123c-12 45-31 82-46 123h93" id="F"/><path fill="#fff" d="M85-194c31 0 48 13 60 33l-1-100h32l1 261h-30c-2-10 0-23-3-31C134-8 116 4 85 4 32 4 16-35 15-94c0-66 23-100 70-100zm9 24c-40 0-46 34-46 75 0 40 6 74 45 74 42 0 51-32 51-76 0-42-9-74-50-73" id="G"/><g id="c"><use transform="matrix(0.05,0,0,0.05,0,0)" xlink:href="#F"/><use transform="matrix(0.05,0,0,0.05,12,0)" xlink:href="#G"/><use transform="matrix(0.05,0,0,0.05,22,0)" xlink:href="#G"/></g><path fill="#fff" d="M240 0l2-218c-23 76-54 145-80 218h-23L58-218 59 0H30v-248h44l77 211c21-75 51-140 76-211h43V0h-30" id="H"/><path fill="#fff" d="M210-169c-67 3-38 105-44 169h-31v-121c0-29-5-50-35-48C34-165 62-65 56 0H25l-1-190h30c1 10-1 24 2 32 10-44 99-50 107 0 11-21 27-35 58-36 85-2 47 119 55 194h-31v-121c0-29-5-49-35-48" id="I"/><g id="d"><use transform="matrix(0.05,0,0,0.05,0,0)" xlink:href="#H"/><use transform="matrix(0.05,0,0,0.05,14.950000000000001,0)" xlink:href="#E"/><use transform="matrix(0.05,0,0,0.05,24.950000000000003,0)" xlink:href="#I"/><use transform="matrix(0.05,0,0,0.05,39.900000000000006,0)" xlink:href="#y"/><use transform="matrix(0.05,0,0,0.05,49.900000000000006,0)" xlink:href="#E"/><use transform="matrix(0.05,0,0,0.05,59.900000000000006,0)" xlink:href="#z"/></g><path fill="#fff" d="M160-131c35 5 61 23 61 61C221 17 115-2 30 0v-248c76 3 177-17 177 60 0 33-19 50-47 57zm-97-11c50-1 110 9 110-42 0-47-63-36-110-37v79zm0 115c55-2 124 14 124-45 0-56-70-42-124-44v89" id="J"/><path fill="#fff" d="M100-194c62-1 85 37 85 99 1 63-27 99-86 99S16-35 15-95c0-66 28-99 85-99zM99-20c44 1 53-31 53-75 0-43-8-75-51-75s-53 32-53 75 10 74 51 75" id="K"/><path fill="#fff" d="M143 0L79-87 56-68V0H24v-261h32v163l83-92h37l-77 82L181 0h-38" id="L"/><g id="e"><use transform="matrix(0.05,0,0,0.05,0,0)" xlink:href="#J"/><use transform="matrix(0.05,0,0,0.05,12,0)" xlink:href="#K"/><use transform="matrix(0.05,0,0,0.05,22,0)" xlink:href="#K"/><use transform="matrix(0.05,0,0,0.05,32,0)" xlink:href="#L"/></g><path fill="#fff" d="M33 0v-248h34V0H33" id="M"/><path fill="#fff" d="M84 4C-5 8 30-112 23-190h32v120c0 31 7 50 39 49 72-2 45-101 50-169h31l1 190h-30c-1-10 1-25-2-33-11 22-28 36-60 37" id="N"/><g id="f"><use transform="matrix(0.05,0,0,0.05,0,0)" xlink:href="#M"/><use transform="matrix(0.05,0,0,0.05,5,0)" xlink:href="#D"/><use transform="matrix(0.05,0,0,0.05,14,0)" xlink:href="#D"/><use transform="matrix(0.05,0,0,0.05,23,0)" xlink:href="#N"/><use transform="matrix(0.05,0,0,0.05,33,0)" xlink:href="#E"/></g><g id="g"><use transform="matrix(0.05,0,0,0.05,0,0)" xlink:href="#J"/><use transform="matrix(0.05,0,0,0.05,12,0)" xlink:href="#K"/><use transform="matrix(0.05,0,0,0.05,22,0)" xlink:href="#K"/><use transform="matrix(0.05,0,0,0.05,32,0)" xlink:href="#L"/><use transform="matrix(0.05,0,0,0.05,41,0)" xlink:href="#D"/></g><path fill="#fff" d="M233-177c-1 41-23 64-60 70L243 0h-38l-65-103H63V0H30v-248c88 3 205-21 203 71zM63-129c60-2 137 13 137-47 0-61-80-42-137-45v92" id="O"/><path fill="#fff" d="M59-47c-2 24 18 29 38 22v24C64 9 27 4 27-40v-127H5v-23h24l9-43h21v43h35v23H59v120" id="P"/><path fill="#fff" d="M117-194c89-4 53 116 60 194h-32v-121c0-31-8-49-39-48C34-167 62-67 57 0H25l-1-190h30c1 10-1 24 2 32 11-22 29-35 61-36" id="Q"/><g id="h"><use transform="matrix(0.05,0,0,0.05,0,0)" xlink:href="#O"/><use transform="matrix(0.05,0,0,0.05,12.950000000000001,0)" xlink:href="#E"/><use transform="matrix(0.05,0,0,0.05,22.950000000000003,0)" xlink:href="#P"/><use transform="matrix(0.05,0,0,0.05,27.950000000000003,0)" xlink:href="#N"/><use transform="matrix(0.05,0,0,0.05,37.95,0)" xlink:href="#z"/><use transform="matrix(0.05,0,0,0.05,43.900000000000006,0)" xlink:href="#Q"/></g><path fill="#fff" d="M30-248c87 1 191-15 191 75 0 78-77 80-158 76V0H30v-248zm33 125c57 0 124 11 124-50 0-59-68-47-124-48v98" id="R"/><g id="i"><use transform="matrix(0.05,0,0,0.05,0,0)" xlink:href="#R"/><use transform="matrix(0.05,0,0,0.05,12,0)" xlink:href="#z"/><use transform="matrix(0.05,0,0,0.05,17.95,0)" xlink:href="#x"/><use transform="matrix(0.05,0,0,0.05,21.9,0)" xlink:href="#Q"/><use transform="matrix(0.05,0,0,0.05,31.899999999999995,0)" xlink:href="#P"/></g><path fill="#fff" d="M127-220V0H93v-220H8v-28h204v28h-85" id="S"/><path fill="#fff" d="M96-169c-40 0-48 33-48 73s9 75 48 75c24 0 41-14 43-38l32 2c-6 37-31 61-74 61-59 0-76-41-82-99-10-93 101-131 147-64 4 7 5 14 7 22l-32 3c-4-21-16-35-41-35" id="T"/><g id="j"><use transform="matrix(0.05,0,0,0.05,0,0)" xlink:href="#S"/><use transform="matrix(0.05,0,0,0.05,10.3,0)" xlink:href="#z"/><use transform="matrix(0.05,0,0,0.05,16.25,0)" xlink:href="#A"/><use transform="matrix(0.05,0,0,0.05,26.25,0)" xlink:href="#Q"/><use transform="matrix(0.05,0,0,0.05,36.25,0)" xlink:href="#D"/><use transform="matrix(0.05,0,0,0.05,45.25,0)" xlink:href="#A"/><use transform="matrix(0.05,0,0,0.05,55.25,0)" xlink:href="#T"/><use transform="matrix(0.05,0,0,0.05,64.25,0)" xlink:href="#P"/><use transform="matrix(0.05,0,0,0.05,69.25,0)" xlink:href="#x"/><use transform="matrix(0.05,0,0,0.05,73.2,0)" xlink:href="#K"/><use transform="matrix(0.05,0,0,0.05,83.2,0)" xlink:href="#Q"/><use transform="matrix(0.05,0,0,0.05,93.2,0)" xlink:href="#D"/></g><path fill="#fff" d="M108 0H70L1-190h34L89-25l56-165h34" id="U"/><g id="k"><use transform="matrix(0.05,0,0,0.05,0,0)" xlink:href="#O"/><use transform="matrix(0.05,0,0,0.05,12.950000000000001,0)" xlink:href="#E"/><use transform="matrix(0.05,0,0,0.05,22.950000000000003,0)" xlink:href="#I"/><use transform="matrix(0.05,0,0,0.05,37.900000000000006,0)" xlink:href="#K"/><use transform="matrix(0.05,0,0,0.05,47.900000000000006,0)" xlink:href="#U"/><use transform="matrix(0.05,0,0,0.05,56.900000000000006,0)" xlink:href="#E"/></g><path fill="#fff" d="M24 0v-261h32V0H24" id="V"/><g id="l"><use transform="matrix(0.05,0,0,0.05,0,0)" xlink:href="#R"/><use transform="matrix(0.05,0,0,0.05,12,0)" xlink:href="#V"/><use transform="matrix(0.05,0,0,0.05,15.949999999999998,0)" xlink:href="#A"/><use transform="matrix(0.05,0,0,0.05,25.950000000000003,0)" xlink:href="#T"/><use transform="matrix(0.05,0,0,0.05,34.95,0)" xlink:href="#E"/></g><path fill="#fff" d="M197 0v-115H63V0H30v-248h33v105h134v-105h34V0h-34" id="W"/><g id="m"><use transform="matrix(0.05,0,0,0.05,0,0)" xlink:href="#W"/><use transform="matrix(0.05,0,0,0.05,12.950000000000001,0)" xlink:href="#K"/><use transform="matrix(0.05,0,0,0.05,22.950000000000003,0)" xlink:href="#V"/><use transform="matrix(0.05,0,0,0.05,26.900000000000002,0)" xlink:href="#G"/></g><g id="n"><use transform="matrix(0.05,0,0,0.05,0,0)" xlink:href="#O"/><use transform="matrix(0.05,0,0,0.05,12.950000000000001,0)" xlink:href="#E"/><use transform="matrix(0.05,0,0,0.05,22.950000000000003,0)" xlink:href="#I"/><use transform="matrix(0.05,0,0,0.05,37.900000000000006,0)" xlink:href="#K"/><use transform="matrix(0.05,0,0,0.05,47.900000000000006,0)" xlink:href="#U"/><use transform="matrix(0.05,0,0,0.05,56.900000000000006,0)" xlink:href="#E"/></g><g id="o"><use transform="matrix(0.05,0,0,0.05,0,0)" xlink:href="#W"/><use transform="matrix(0.05,0,0,0.05,12.950000000000001,0)" xlink:href="#K"/><use transform="matrix(0.05,0,0,0.05,22.950000000000003,0)" xlink:href="#V"/><use transform="matrix(0.05,0,0,0.05,26.900000000000002,0)" xlink:href="#G"/></g><g id="p"><use transform="matrix(0.05,0,0,0.05,0,0)" xlink:href="#R"/><use transform="matrix(0.05,0,0,0.05,12,0)" xlink:href="#z"/><use transform="matrix(0.05,0,0,0.05,17.95,0)" xlink:href="#K"/><use transform="matrix(0.05,0,0,0.05,27.950000000000003,0)" xlink:href="#T"/><use transform="matrix(0.05,0,0,0.05,36.95,0)" xlink:href="#E"/><use transform="matrix(0.05,0,0,0.05,46.95,0)" xlink:href="#D"/><use transform="matrix(0.05,0,0,0.05,55.95,0)" xlink:href="#D"/></g><g id="q"><use transform="matrix(0.05,0,0,0.05,0,0)" xlink:href="#W"/><use transform="matrix(0.05,0,0,0.05,12.950000000000001,0)" xlink:href="#K"/><use transform="matrix(0.05,0,0,0.05,22.950000000000003,0)" xlink:href="#V"/><use transform="matrix(0.05,0,0,0.05,26.900000000000002,0)" xlink:href="#G"/><use transform="matrix(0.05,0,0,0.05,36.900000000000006,0)" xlink:href="#D"/></g><path fill="#fff" d="M206 0h-36l-40-164L89 0H53L-1-190h32L70-26l43-164h34l41 164 42-164h31" id="X"/><g id="r"><use transform="matrix(0.05,0,0,0.05,0,0)" xlink:href="#O"/><use transform="matrix(0.05,0,0,0.05,12.950000000000001,0)" xlink:href="#E"/><use transform="matrix(0.05,0,0,0.05,22.950000000000003,0)" xlink:href="#Q"/><use transform="matrix(0.05,0,0,0.05,32.95,0)" xlink:href="#E"/><use transform="matrix(0.05,0,0,0.05,42.95,0)" xlink:href="#X"/></g><path fill="#fff" d="M185-189c-5-48-123-54-124 2 14 75 158 14 163 119 3 78-121 87-175 55-17-10-28-26-33-46l33-7c5 56 141 63 141-1 0-78-155-14-162-118-5-82 145-84 179-34 5 7 8 16 11 25" id="Y"/><g id="s"><use transform="matrix(0.05,0,0,0.05,0,0)" xlink:href="#Y"/><use transform="matrix(0.05,0,0,0.05,12,0)" xlink:href="#A"/><use transform="matrix(0.05,0,0,0.05,22,0)" xlink:href="#U"/><use transform="matrix(0.05,0,0,0.05,31,0)" xlink:href="#E"/></g><path fill="#fff" d="M30-248c118-7 216 8 213 122C240-48 200 0 122 0H30v-248zM63-27c89 8 146-16 146-99s-60-101-146-95v194" id="Z"/><g id="t"><use transform="matrix(0.05,0,0,0.05,0,0)" xlink:href="#Z"/><use transform="matrix(0.05,0,0,0.05,12.950000000000001,0)" xlink:href="#A"/><use transform="matrix(0.05,0,0,0.05,22.950000000000003,0)" xlink:href="#P"/><use transform="matrix(0.05,0,0,0.05,27.950000000000003,0)" xlink:href="#A"/></g><g id="u"><use transform="matrix(0.05,0,0,0.05,0,0)" xlink:href="#O"/><use transform="matrix(0.05,0,0,0.05,12.950000000000001,0)" xlink:href="#E"/><use transform="matrix(0.05,0,0,0.05,22.950000000000003,0)" xlink:href="#P"/><use transform="matrix(0.05,0,0,0.05,27.950000000000003,0)" xlink:href="#z"/><use transform="matrix(0.05,0,0,0.05,33.900000000000006,0)" xlink:href="#x"/><use transform="matrix(0.05,0,0,0.05,37.85000000000001,0)" xlink:href="#E"/><use transform="matrix(0.05,0,0,0.05,47.85000000000001,0)" xlink:href="#U"/><use transform="matrix(0.05,0,0,0.05,56.85,0)" xlink:href="#E"/></g><path fill="#fff" d="M30 0v-248h187v28H63v79h144v27H63v87h162V0H30" id="aa"/><path fill="#fff" d="M141 0L90-78 38 0H4l68-98-65-92h35l48 74 47-74h35l-64 92 68 98h-35" id="ab"/><g id="v"><use transform="matrix(0.05,0,0,0.05,0,0)" xlink:href="#aa"/><use transform="matrix(0.05,0,0,0.05,12,0)" xlink:href="#ab"/><use transform="matrix(0.05,0,0,0.05,21,0)" xlink:href="#x"/><use transform="matrix(0.05,0,0,0.05,24.95,0)" xlink:href="#P"/></g></defs></g></svg>