<svg xmlns="http://www.w3.org/2000/svg" xmlns:xlink="http://www.w3.org/1999/xlink" xmlns:lucid="lucid" width="1872" height="891"><g transform="translate(-20 -80)" lucid:page-tab-id="uSN~FCmLq67Z"><path d="M90 110c0 5.52-4.48 10-10 10s-10-4.48-10-10 4.48-10 10-10 10 4.48 10 10z" stroke="#fff" stroke-width="3" fill-opacity="0"/><path d="M80 120v32.8c0 3.3 1.22 8.4 2.73 11.34L100 198m-20-39.2L60 198m0-68h40" stroke="#fff" stroke-width="3" fill="none"/><path d="M60 106c0-3.3 2.7-6 6-6h28c3.3 0 6 2.7 6 6v108c0 3.3-2.7 6-6 6H66c-3.3 0-6-2.7-6-6z" fill="none"/><use xlink:href="#a" transform="matrix(1,0,0,1,-20,198) translate(74.16666666666667 17.77777777777778)"/><path d="M80 221v3m0 3.98v5.98m0 4v5.98m0 4v5.97m0 4v5.98m0 4v5.98m0 4v5.97m0 4v5.97m0 4v5.98m0 3.98v6m0 3.98v5.98m0 4v5.97m0 3.98v6m0 3.98v5.98m0 4v5.97m0 4v6m0 3.98v5.98m0 4v5.97m0 4v5.98m0 4v5.98m0 4v5.97m0 4v5.97m0 4v5.98m0 4v5.97m0 4v5.97m0 4v5.98m0 4v5.97m0 3.98v5.98m0 4v5.98m0 3.98v6m0 3.98v5.98m0 4v5.97m0 4v5.98m0 4v5.97m0 4v5.97m0 4v5.98m0 4V583m0 4v5.97m0 3.98v5.98m0 4v5.98m0 4v5.97m0 4v5.98m0 4v5.98m0 4v5.97m0 4v5.97m0 4v5.98m0 3.98v6m0 3.98v5.98m0 4v5.97m0 3.98v6m0 3.98v5.98m0 4v5.97m0 4v6m0 3.98v5.98m0 4v5.97m0 4v5.98m0 4v5.98m0 4v5.97m0 4v5.97m0 4v5.98m0 4v5.97m0 4v5.97m0 4v5.98m0 4v5.97m0 3.98v5.98m0 4v5.98m0 3.98v6m0 3.98v5.98m0 4v5.97m0 4v5.98m0 4v5.97m0 4v5.97m0 4v5.98m0 4V952m0 4V959M80 221.03V220M80 958.97V960" stroke="#fff" stroke-width="2" fill="none"/><path d="M380 146c0-3.3 2.7-6 6-6h148c3.3 0 6 2.7 6 6v38c0 3.3-2.7 6-6 6H386c-3.3 0-6-2.7-6-6z" stroke="#fff" stroke-width="3" fill-opacity="0"/><use xlink:href="#b" transform="matrix(1,0,0,1,380,140) translate(13.430925925925928 30.27777777777778)"/><path d="M460 192.5v2.97m0 3.96v5.93m0 3.96v5.94m0 3.96v5.93m0 3.96v5.95m0 3.96v5.94m0 3.96v5.94m0 3.95v5.93m0 3.96v5.93m0 3.95v5.94m0 3.96v5.94m0 3.95v5.94m0 3.97v5.94m0 3.96v5.94m0 3.96V334m0 3.95v5.94m0 3.95v5.93m0 3.96v5.94m0 3.96v5.93m0 3.96v5.94m0 3.96v5.93m0 3.96v5.94m0 3.96v5.93m0 3.96v5.95m0 3.96v5.94m0 3.96v5.94m0 3.95v5.93m0 3.96v5.93m0 3.95v5.94m0 3.96v5.94m0 3.95v5.94m0 3.97v5.94m0 3.96v5.94m0 3.96V522m0 3.95v5.94m0 3.95v5.93m0 3.96v5.94m0 3.96v5.93m0 3.96v5.94m0 3.96v5.93m0 3.96v5.94m0 3.96v5.93m0 3.96v5.95m0 3.96v5.94m0 3.96v5.94m0 3.95v5.93m0 3.96v5.93m0 3.95v5.94m0 3.96v5.94m0 3.95v5.94m0 3.97v5.93m0 3.96v5.94m0 3.96V710m0 3.95v5.94m0 3.95v5.93m0 3.96v5.94m0 3.96v5.93m0 3.96v5.94m0 3.96v5.93m0 3.96v5.94m0 3.96v5.93m0 3.96v5.95m0 3.95v5.94m0 3.96v5.94m0 3.95v5.93m0 3.96v5.93m0 3.95v5.94m0 3.96v5.94m0 3.95v5.94m0 3.97v5.93m0 3.96v5.94m0 3.96V898m0 3.95v5.94m0 3.95v5.93m0 3.96v5.94m0 3.96v5.93m0 3.96v2.97" stroke="#fff" stroke-width="2" fill="none"/><path d="M461 192.53h-2v-1.03h2z" stroke="#fff" stroke-width=".05" fill="#fff"/><path d="M460 944.47v1.03" stroke="#fff" stroke-width="2" fill="none"/><path d="M794.5 146c0-3.3 2.7-6 6-6h148c3.3 0 6 2.7 6 6v38c0 3.3-2.7 6-6 6h-148c-3.3 0-6-2.7-6-6z" stroke="#fff" stroke-width="3" fill-opacity="0"/><use xlink:href="#c" transform="matrix(1,0,0,1,794.5,140) translate(46.14697530864198 30.27777777777778)"/><path d="M1120 146c0-3.3 2.7-6 6-6h148c3.3 0 6 2.7 6 6v38c0 3.3-2.7 6-6 6h-148c-3.3 0-6-2.7-6-6z" stroke="#fff" stroke-width="3" fill-opacity="0"/><use xlink:href="#d" transform="matrix(1,0,0,1,1120,140) translate(41.795123456790115 30.27777777777778)"/><path d="M874.5 192.5v3m0 4v6m0 4v6m0 4v6m0 4v6m0 4v6m0 4v6m0 4v6m0 4v6m0 4v6m0 4v6m0 4v6m0 4v6m0 4v6m0 4v6m0 4v6m0 4v6m0 4v6m0 4v6m0 4v6m0 4v6m0 4v6m0 4v6m0 4v6m0 4v6m0 4v6m0 4v6m0 4v6m0 4v6m0 4v6m0 4v6m0 4v6m0 4v6m0 4v6m0 4v6m0 4v6m0 4v6m0 4v6m0 4v6m0 4v6m0 4v6m0 4v6m0 4v6m0 4v6m0 4v6m0 4v6m0 4v6m0 4v6m0 4v6m0 4v6m0 4v6m0 4v6m0 4v6m0 4v6m0 4v6m0 4v6m0 4v6m0 4v6m0 4v6m0 4v6m0 4v6m0 4v6m0 4v6m0 4v6m0 4v6m0 4v6m0 4v6m0 4v6m0 4v6m0 4v6m0 4v6m0 4v6m0 4v6m0 4v6m0 4v6m0 4v3" stroke="#fff" stroke-width="2" fill="none"/><path d="M875.5 192.53h-2v-1.03h2z" stroke="#fff" stroke-width=".05" fill="#fff"/><path d="M874.5 942.47v1.03M1200 192.5v2.98m0 3.98v5.96m0 3.98v5.96m0 3.98v5.96m0 3.98v5.97m0 3.97v5.97m0 3.96v5.97m0 3.97v5.97m0 3.97V275m0 3.98v5.97m0 3.98v5.96m0 3.97v5.96m0 3.98v5.97m0 3.98v5.96m0 4v5.95m0 3.98v5.96m0 3.97v5.96m0 3.98v5.98m0 3.97v5.97m0 3.97v5.96m0 3.97v5.97m0 3.97v5.97m0 3.98v5.96m0 3.98v5.96m0 3.98v5.96m0 3.98V444m0 3.98v5.96m0 3.98v5.96m0 3.98v5.96m0 3.98v5.97m0 3.97v5.97m0 3.98v5.97m0 3.97v5.97m0 3.96v5.97m0 3.97v5.97m0 3.98v5.96m0 4v5.95m0 3.98v5.96m0 3.97v5.96m0 3.98v5.97m0 3.98v5.96m0 4v5.95m0 3.98V613m0 3.97v5.97m0 3.97v5.98m0 3.97v5.97m0 3.97v5.96m0 3.97v5.97m0 3.98v5.96m0 3.98v5.96m0 3.98v5.96m0 3.98v5.96m0 3.98v5.96m0 3.98v5.96m0 3.98v5.96m0 3.98v5.97m0 3.97v5.97m0 3.97v5.97m0 3.98v5.97m0 3.97V782m0 3.97v5.96m0 3.98v5.97m0 3.98v5.96m0 4v5.95m0 3.98v5.96m0 3.97v5.96m0 3.98v5.97m0 3.98v5.97m0 3.97v5.96m0 3.97v5.97m0 3.97v5.97m0 3.97v5.98m0 3.97v5.97m0 3.98v5.96m0 3.98v5.96m0 3.98v5.96m0 3.98V948" stroke="#fff" stroke-width="2" fill="none"/><path d="M1201 192.53h-2v-1.03h2z" stroke="#fff" stroke-width=".05" fill="#fff"/><path d="M1200 947.97V949" stroke="#fff" stroke-width="2" fill="none"/><path d="M1520 146c0-3.3 2.7-6 6-6h148c3.3 0 6 2.7 6 6v38c0 3.3-2.7 6-6 6h-148c-3.3 0-6-2.7-6-6z" stroke="#fff" stroke-width="3" fill-opacity="0"/><use xlink:href="#e" transform="matrix(1,0,0,1,1520,140) translate(54.69635802469136 30.27777777777778)"/><path d="M1600 192.5v2.98m0 3.98v5.96m0 3.98v5.96m0 3.98v5.96m0 3.98v5.97m0 3.97v5.97m0 3.96v5.97m0 3.97v5.97m0 3.97V275m0 3.98v5.97m0 3.98v5.96m0 3.97v5.96m0 3.98v5.97m0 3.98v5.96m0 4v5.95m0 3.98v5.96m0 3.97v5.96m0 3.98v5.98m0 3.97v5.97m0 3.97v5.96m0 3.97v5.97m0 3.97v5.97m0 3.98v5.96m0 3.98v5.96m0 3.98v5.96m0 3.98V444m0 3.98v5.96m0 3.98v5.96m0 3.98v5.96m0 3.98v5.97m0 3.97v5.97m0 3.98v5.97m0 3.97v5.97m0 3.96v5.97m0 3.97v5.97m0 3.98v5.96m0 4v5.95m0 3.98v5.96m0 3.97v5.96m0 3.98v5.97m0 3.98v5.96m0 4v5.95m0 3.98V613m0 3.97v5.97m0 3.97v5.98m0 3.97v5.97m0 3.97v5.96m0 3.97v5.97m0 3.98v5.96m0 3.98v5.96m0 3.98v5.96m0 3.98v5.96m0 3.98v5.96m0 3.98v5.96m0 3.98v5.96m0 3.98v5.97m0 3.97v5.97m0 3.97v5.97m0 3.98v5.97m0 3.97V782m0 3.97v5.96m0 3.98v5.97m0 3.98v5.96m0 4v5.95m0 3.98v5.96m0 3.97v5.96m0 3.98v5.97m0 3.98v5.97m0 3.97v5.96m0 3.97v5.97m0 3.97v5.97m0 3.97v5.98m0 3.97v5.97m0 3.98v5.96m0 3.98v5.96m0 3.98v5.96m0 3.98V948" stroke="#fff" stroke-width="2" fill="none"/><path d="M1601 192.53h-2v-1.03h2z" stroke="#fff" stroke-width=".05" fill="#fff"/><path d="M1600 947.97V949" stroke="#fff" stroke-width="2" fill="none"/><path d="M1320 146c0-3.3 2.7-6 6-6h148c3.3 0 6 2.7 6 6v38c0 3.3-2.7 6-6 6h-148c-3.3 0-6-2.7-6-6z" stroke="#fff" stroke-width="3" fill-opacity="0"/><use xlink:href="#f" transform="matrix(1,0,0,1,1320,140) translate(57.227222222222224 30.27777777777778)"/><path d="M1400 192.5v2.98m0 3.98v5.96m0 3.98v5.96m0 3.98v5.96m0 3.98v5.97m0 3.97v5.97m0 3.96v5.97m0 3.97v5.97m0 3.97V275m0 3.98v5.97m0 3.98v5.96m0 3.97v5.96m0 3.98v5.97m0 3.98v5.96m0 4v5.95m0 3.98v5.96m0 3.97v5.96m0 3.98v5.98m0 3.97v5.97m0 3.97v5.96m0 3.97v5.97m0 3.97v5.97m0 3.98v5.96m0 3.98v5.96m0 3.98v5.96m0 3.98V444m0 3.98v5.96m0 3.98v5.96m0 3.98v5.96m0 3.98v5.97m0 3.97v5.97m0 3.98v5.97m0 3.97v5.97m0 3.96v5.97m0 3.97v5.97m0 3.98v5.96m0 4v5.95m0 3.98v5.96m0 3.97v5.96m0 3.98v5.97m0 3.98v5.96m0 4v5.95m0 3.98V613m0 3.97v5.97m0 3.97v5.98m0 3.97v5.97m0 3.97v5.96m0 3.97v5.97m0 3.98v5.96m0 3.98v5.96m0 3.98v5.96m0 3.98v5.96m0 3.98v5.96m0 3.98v5.96m0 3.98v5.96m0 3.98v5.97m0 3.97v5.97m0 3.97v5.97m0 3.98v5.97m0 3.97V782m0 3.97v5.96m0 3.98v5.97m0 3.98v5.96m0 4v5.95m0 3.98v5.96m0 3.97v5.96m0 3.98v5.97m0 3.98v5.97m0 3.97v5.96m0 3.97v5.97m0 3.97v5.97m0 3.97v5.98m0 3.97v5.97m0 3.98v5.96m0 3.98v5.96m0 3.98v5.96m0 3.98V948" stroke="#fff" stroke-width="2" fill="none"/><path d="M1401 192.53h-2v-1.03h2z" stroke="#fff" stroke-width=".05" fill="#fff"/><path d="M1400 947.97V949" stroke="#fff" stroke-width="2" fill="none"/><path d="M1712 146c0-3.3 2.7-6 6-6h148c3.3 0 6 2.7 6 6v38c0 3.3-2.7 6-6 6h-148c-3.3 0-6-2.7-6-6z" stroke="#fff" stroke-width="3" fill-opacity="0"/><use xlink:href="#g" transform="matrix(1,0,0,1,1712,140) translate(39.35685185185185 30.27777777777778)"/><path d="M1792 192.5v2.98m0 3.98v5.96m0 3.98v5.96m0 3.98v5.96m0 3.98v5.97m0 3.97v5.97m0 3.96v5.97m0 3.97v5.97m0 3.97V275m0 3.98v5.97m0 3.98v5.96m0 3.97v5.96m0 3.98v5.97m0 3.98v5.96m0 4v5.95m0 3.98v5.96m0 3.97v5.96m0 3.98v5.98m0 3.97v5.97m0 3.97v5.96m0 3.97v5.97m0 3.97v5.97m0 3.98v5.96m0 3.98v5.96m0 3.98v5.96m0 3.98V444m0 3.98v5.96m0 3.98v5.96m0 3.98v5.96m0 3.98v5.97m0 3.97v5.97m0 3.98v5.97m0 3.97v5.97m0 3.96v5.97m0 3.97v5.97m0 3.98v5.96m0 4v5.95m0 3.98v5.96m0 3.97v5.96m0 3.98v5.97m0 3.98v5.96m0 4v5.95m0 3.98V613m0 3.97v5.97m0 3.97v5.98m0 3.97v5.97m0 3.97v5.96m0 3.97v5.97m0 3.98v5.96m0 3.98v5.96m0 3.98v5.96m0 3.98v5.96m0 3.98v5.96m0 3.98v5.96m0 3.98v5.96m0 3.98v5.97m0 3.97v5.97m0 3.97v5.97m0 3.98v5.97m0 3.97V782m0 3.97v5.96m0 3.98v5.97m0 3.98v5.96m0 4v5.95m0 3.98v5.96m0 3.97v5.96m0 3.98v5.97m0 3.98v5.97m0 3.97v5.96m0 3.97v5.97m0 3.97v5.97m0 3.97v5.98m0 3.97v5.97m0 3.98v5.96m0 3.98v5.96m0 3.98v5.96m0 3.98V948" stroke="#fff" stroke-width="2" fill="none"/><path d="M1793 192.53h-2v-1.03h2z" stroke="#fff" stroke-width=".05" fill="#fff"/><path d="M1792 947.97V949" stroke="#fff" stroke-width="2" fill="none"/><path d="M440 246c0-3.3 2.7-6 6-6h28c3.3 0 6 2.7 6 6v670.5c0 3.3-2.7 6-6 6h-28c-3.3 0-6-2.7-6-6z" stroke="#fff" stroke-width="3" fill="#4c535d"/><path d="M420 264H81" stroke="#fff" stroke-width="2" fill="none"/><path d="M435.26 264L421 268.64v-9.28z" stroke="#fff" stroke-width="2" fill="#fff"/><path d="M81.03 264H80" stroke="#fff" stroke-width="2" fill="none"/><use xlink:href="#h" transform="matrix(1,0,0,1,197.62037037159487,238.66666666666666) translate(0 14.222222222222223)"/><use xlink:href="#i" transform="matrix(1,0,0,1,197.62037037159487,238.66666666666666) translate(74.02469135802471 14.222222222222223)"/><path d="M437.5 342.5H81.05" stroke="#fff" stroke-width="2" fill="none"/><path d="M438.5 343.5h-1.03v-2h1.03z" stroke="#fff" stroke-width=".05" fill="#fff"/><path d="M98.6 331.8l-18.1 10.7" stroke="#fff" stroke-width="2" fill="none"/><use xlink:href="#j" transform="matrix(1,0,0,1,201.5956790135702,317.1666666666667) translate(0 14.222222222222223)"/><use xlink:href="#k" transform="matrix(1,0,0,1,201.5956790135702,317.1666666666667) translate(41.38271604938272 14.222222222222223)"/><path d="M437.45 381.17H81M419.92 391.86l18.07-10.7M81.03 381.17H80" stroke="#fff" stroke-width="2" fill="none"/><use xlink:href="#l" transform="matrix(1,0,0,1,229.22530864319984,355.8333333333335) translate(0 14.222222222222223)"/><path d="M854.5 428.5c0-3.3 2.7-6 6-6h28c3.3 0 6 2.7 6 6v368c0 3.3-2.7 6-6 6h-28c-3.3 0-6-2.7-6-6z" stroke="#fff" stroke-width="3" fill="#4c535d"/><path d="M482.5 431.83h352" stroke="#fff" stroke-width="2" fill="none"/><path d="M482.53 432.83h-1.03v-2h1.03z" stroke="#fff" stroke-width=".05" fill="#fff"/><path d="M849.76 431.83l-14.26 4.64v-9.27z" stroke="#fff" stroke-width="2" fill="#fff"/><use xlink:href="#m" transform="matrix(1,0,0,1,577.6450617283949,406.50000000000006) translate(0 14.222222222222223)"/><path d="M897 470.5h263" stroke="#fff" stroke-width="2" fill="none"/><path d="M897.03 471.5H896v-2h1.03z" stroke="#fff" stroke-width=".05" fill="#fff"/><path d="M1175.26 470.5l-14.26 4.64v-9.28z" stroke="#fff" stroke-width="2" fill="#fff"/><use xlink:href="#n" transform="matrix(1,0,0,1,923.6947986237604,445.1666666666667) translate(0 14.222222222222223)"/><use xlink:href="#o" transform="matrix(1,0,0,1,923.6947986237604,445.1666666666667) translate(47.25925925925926 14.222222222222223)"/><use xlink:href="#p" transform="matrix(1,0,0,1,923.6947986237604,445.1666666666667) translate(62.567901234567906 14.222222222222223)"/><path d="M1180 468.5c0-3.3 2.7-6 6-6h28c3.3 0 6 2.7 6 6v48c0 3.3-2.7 6-6 6h-28c-3.3 0-6-2.7-6-6z" stroke="#fff" stroke-width="3" fill="#4c535d"/><path d="M897 555.83h663" stroke="#fff" stroke-width="2" fill="none"/><path d="M897.03 556.83H896v-2h1.03z" stroke="#fff" stroke-width=".05" fill="#fff"/><path d="M1575.26 555.83l-14.26 4.64v-9.27z" stroke="#fff" stroke-width="2" fill="#fff"/><use xlink:href="#q" transform="matrix(1,0,0,1,919.8024691358024,530.5000000000001) translate(0 14.222222222222223)"/><use xlink:href="#o" transform="matrix(1,0,0,1,919.8024691358024,530.5000000000001) translate(42.32098765432099 14.222222222222223)"/><use xlink:href="#r" transform="matrix(1,0,0,1,919.8024691358024,530.5000000000001) translate(57.62962962962963 14.222222222222223)"/><path d="M1580 548.5c0-3.3 2.7-6 6-6h28c3.3 0 6 2.7 6 6v168c0 3.3-2.7 6-6 6h-28c-3.3 0-6-2.7-6-6z" stroke="#fff" stroke-width="3" fill="#4c535d"/><path d="M897 619.83h463" stroke="#fff" stroke-width="2" fill="none"/><path d="M897.03 620.83H896v-2h1.03z" stroke="#fff" stroke-width=".05" fill="#fff"/><path d="M1375.26 619.83l-14.26 4.64v-9.27z" stroke="#fff" stroke-width="2" fill="#fff"/><use xlink:href="#s" transform="matrix(1,0,0,1,918.3456790123456,594.5) translate(0 14.222222222222223)"/><use xlink:href="#o" transform="matrix(1,0,0,1,918.3456790123456,594.5) translate(74.02469135802468 14.222222222222223)"/><use xlink:href="#t" transform="matrix(1,0,0,1,918.3456790123456,594.5) translate(89.33333333333333 14.222222222222223)"/><path d="M1380 608.5c0-3.3 2.7-6 6-6h28c3.3 0 6 2.7 6 6v48c0 3.3-2.7 6-6 6h-28c-3.3 0-6-2.7-6-6z" stroke="#fff" stroke-width="3" fill="#4c535d"/><path d="M897 692.5h663" stroke="#fff" stroke-width="2" fill="none"/><path d="M897.03 693.5H896v-2h1.03z" stroke="#fff" stroke-width=".05" fill="#fff"/><path d="M1575.26 692.5l-14.26 4.64v-9.28z" stroke="#fff" stroke-width="2" fill="#fff"/><use xlink:href="#u" transform="matrix(1,0,0,1,902.0246913580247,667.1666666666667) translate(0 14.222222222222223)"/><use xlink:href="#o" transform="matrix(1,0,0,1,902.0246913580247,667.1666666666667) translate(72.88888888888889 14.222222222222223)"/><use xlink:href="#v" transform="matrix(1,0,0,1,902.0246913580247,667.1666666666667) translate(88.19753086419753 14.222222222222223)"/><path d="M1772 748.5c0-3.3 2.7-6 6-6h28c3.3 0 6 2.7 6 6v48c0 3.3-2.7 6-6 6h-28c-3.3 0-6-2.7-6-6z" stroke="#fff" stroke-width="3" fill="#4c535d"/><path d="M897 757.17h855" stroke="#fff" stroke-width="2" fill="none"/><path d="M897.03 758.17H896v-2h1.03z" stroke="#fff" stroke-width=".05" fill="#fff"/><path d="M1767.26 757.17L1753 761.8v-9.27z" stroke="#fff" stroke-width="2" fill="#fff"/><use xlink:href="#u" transform="matrix(1,0,0,1,904.7407407407408,731.8333333333333) translate(0 14.222222222222223)"/><use xlink:href="#o" transform="matrix(1,0,0,1,904.7407407407408,731.8333333333333) translate(72.88888888888889 14.222222222222223)"/><use xlink:href="#w" transform="matrix(1,0,0,1,904.7407407407408,731.8333333333333) translate(88.19753086419753 14.222222222222223)"/><path d="M852 785.17h-3.08m-4.1 0h-6.16m-4.1 0h-6.17m-4.1 0h-6.17m-4.1 0h-6.16m-4.1 0h-6.17m-4.1 0h-6.16m-4.1 0h-6.17m-4.1 0h-6.16m-4.1 0h-6.15m-4.1 0h-6.17m-4.1 0h-6.16m-4.1 0h-6.17m-4.1 0h-6.16m-4.12 0h-6.15m-4.1 0h-6.17m-4.1 0h-6.16m-4.1 0h-6.17m-4.1 0h-6.03m-3.94 0h-5.9m-3.93 0h-5.9m-3.94 0h-5.92m-3.93 0h-5.9m-3.94 0h-5.9m-3.93 0h-5.9m-3.94 0h-5.9m-3.93 0h-5.9m-3.94 0h-5.9m-3.94 0h-5.9m-3.94 0h-5.9m-3.94 0h-5.9m-3.93 0h-5.9m-3.93 0h-5.9m-3.94 0h-5.9m-3.94 0h-5.9m-3.95 0H500" stroke="#fff" stroke-width="2" fill="none"/><path d="M853 786.17h-1.03v-2H853z" stroke="#fff" stroke-width=".05" fill="#fff"/><path d="M484.74 785.17l14.26-4.64v9.27z" stroke="#fff" stroke-width="2" fill="#fff"/><use xlink:href="#x" transform="matrix(1,0,0,1,632.7067901234568,759.8333333333333) translate(0 14.222222222222223)"/><path d="M437.5 823.83H81.05" stroke="#fff" stroke-width="2" fill="none"/><path d="M438.5 824.83h-1.03v-2h1.03z" stroke="#fff" stroke-width=".05" fill="#fff"/><path d="M98.6 813.14l-18.1 10.7" stroke="#fff" stroke-width="2" fill="none"/><use xlink:href="#y" transform="matrix(1,0,0,1,235.10185185307637,798.4999999999999) translate(0 14.222222222222223)"/><path d="M437.5 859.83H81.05" stroke="#fff" stroke-width="2" fill="none"/><path d="M438.5 860.83h-1.03v-2h1.03z" stroke="#fff" stroke-width=".05" fill="#fff"/><path d="M98.6 849.14l-18.1 10.7" stroke="#fff" stroke-width="2" fill="none"/><g><use xlink:href="#z" transform="matrix(1,0,0,1,205.5709876555455,834.5000000000002) translate(0 14.222222222222223)"/><use xlink:href="#A" transform="matrix(1,0,0,1,205.5709876555455,834.5000000000002) translate(47.308641975308646 14.222222222222223)"/></g><path d="M437.45 899.83H81M419.92 910.52l18.07-10.7M81.03 899.83H80" stroke="#fff" stroke-width="2" fill="none"/><g><use xlink:href="#B" transform="matrix(1,0,0,1,229.66975308764427,874.5000000000002) translate(0 14.222222222222223)"/></g><path d="M40 286c0-3.3 2.7-6 6-6h88c3.3 0 6 2.7 6 6v8c0 3.3-1.9 7.9-4.24 10.24l-1.52 1.52C131.9 308.1 127.3 310 124 310H46c-3.3 0-6-2.7-6-6z" fill-opacity="0"/><path d="M140 280v20l-10 10H40" stroke="#fff" stroke-width="3" fill="none"/><path d="M40 286c0-3.3 2.7-6 6-6h1820c3.3 0 6 2.7 6 6v648c0 3.3-2.7 6-6 6H46c-3.3 0-6-2.7-6-6z" stroke="#fff" stroke-width="3" fill="none"/><g><use xlink:href="#C" transform="matrix(1,0,0,1,48,280) translate(0 19.444444444444443)"/></g><defs><path fill="#fff" d="M212-179c-10-28-35-45-73-45-59 0-87 40-87 99 0 60 29 101 89 101 43 0 62-24 78-52l27 14C228-24 195 4 139 4 59 4 22-46 18-125c-6-104 99-153 187-111 19 9 31 26 39 46" id="D"/><path fill="#fff" d="M24 0v-261h32V0H24" id="E"/><path fill="#fff" d="M100-194c63 0 86 42 84 106H49c0 40 14 67 53 68 26 1 43-12 49-29l28 8c-11 28-37 45-77 45C44 4 14-33 15-96c1-61 26-98 85-98zm52 81c6-60-76-77-97-28-3 7-6 17-6 28h103" id="F"/><path fill="#fff" d="M114-163C36-179 61-72 57 0H25l-1-190h30c1 12-1 29 2 39 6-27 23-49 58-41v29" id="G"/><path fill="#fff" d="M143 0L79-87 56-68V0H24v-261h32v163l83-92h37l-77 82L181 0h-38" id="H"/><g id="a"><use transform="matrix(0.06172839506172839,0,0,0.06172839506172839,0,0)" xlink:href="#D"/><use transform="matrix(0.06172839506172839,0,0,0.06172839506172839,15.987654320987653,0)" xlink:href="#E"/><use transform="matrix(0.06172839506172839,0,0,0.06172839506172839,20.864197530864196,0)" xlink:href="#F"/><use transform="matrix(0.06172839506172839,0,0,0.06172839506172839,33.20987654320987,0)" xlink:href="#G"/><use transform="matrix(0.06172839506172839,0,0,0.06172839506172839,40.55555555555555,0)" xlink:href="#H"/></g><path fill="#fff" d="M232-93c-1 65-40 97-104 97C67 4 28-28 28-90v-158h33c8 89-33 224 67 224 102 0 64-133 71-224h33v155" id="I"/><path fill="#fff" d="M135-143c-3-34-86-38-87 0 15 53 115 12 119 90S17 21 10-45l28-5c4 36 97 45 98 0-10-56-113-15-118-90-4-57 82-63 122-42 12 7 21 19 24 35" id="J"/><path fill="#fff" d="M33 0v-248h34V0H33" id="K"/><path fill="#fff" d="M117-194c89-4 53 116 60 194h-32v-121c0-31-8-49-39-48C34-167 62-67 57 0H25l-1-190h30c1 10-1 24 2 32 11-22 29-35 61-36" id="L"/><path fill="#fff" d="M59-47c-2 24 18 29 38 22v24C64 9 27 4 27-40v-127H5v-23h24l9-43h21v43h35v23H59v120" id="M"/><path fill="#fff" d="M101-234c-31-9-42 10-38 44h38v23H63V0H32v-167H5v-23h27c-7-52 17-82 69-68v24" id="N"/><path fill="#fff" d="M141-36C126-15 110 5 73 4 37 3 15-17 15-53c-1-64 63-63 125-63 3-35-9-54-41-54-24 1-41 7-42 31l-33-3c5-37 33-52 76-52 45 0 72 20 72 64v82c-1 20 7 32 28 27v20c-31 9-61-2-59-35zM48-53c0 20 12 33 32 33 41-3 63-29 60-74-43 2-92-5-92 41" id="O"/><path fill="#fff" d="M96-169c-40 0-48 33-48 73s9 75 48 75c24 0 41-14 43-38l32 2c-6 37-31 61-74 61-59 0-76-41-82-99-10-93 101-131 147-64 4 7 5 14 7 22l-32 3c-4-21-16-35-41-35" id="P"/><g id="b"><use transform="matrix(0.06172839506172839,0,0,0.06172839506172839,0,0)" xlink:href="#I"/><use transform="matrix(0.06172839506172839,0,0,0.06172839506172839,15.987654320987653,0)" xlink:href="#J"/><use transform="matrix(0.06172839506172839,0,0,0.06172839506172839,27.098765432098766,0)" xlink:href="#F"/><use transform="matrix(0.06172839506172839,0,0,0.06172839506172839,39.44444444444444,0)" xlink:href="#G"/><use transform="matrix(0.06172839506172839,0,0,0.06172839506172839,46.79012345679012,0)" xlink:href="#K"/><use transform="matrix(0.06172839506172839,0,0,0.06172839506172839,52.96296296296296,0)" xlink:href="#L"/><use transform="matrix(0.06172839506172839,0,0,0.06172839506172839,65.30864197530865,0)" xlink:href="#M"/><use transform="matrix(0.06172839506172839,0,0,0.06172839506172839,71.48148148148148,0)" xlink:href="#F"/><use transform="matrix(0.06172839506172839,0,0,0.06172839506172839,83.82716049382717,0)" xlink:href="#G"/><use transform="matrix(0.06172839506172839,0,0,0.06172839506172839,91.17283950617285,0)" xlink:href="#N"/><use transform="matrix(0.06172839506172839,0,0,0.06172839506172839,97.34567901234568,0)" xlink:href="#O"/><use transform="matrix(0.06172839506172839,0,0,0.06172839506172839,109.69135802469137,0)" xlink:href="#P"/><use transform="matrix(0.06172839506172839,0,0,0.06172839506172839,120.80246913580248,0)" xlink:href="#F"/></g><path fill="#fff" d="M30 0v-248h33v221h125V0H30" id="Q"/><path fill="#fff" d="M24-231v-30h32v30H24zM24 0v-190h32V0H24" id="R"/><path fill="#fff" d="M115-194c53 0 69 39 70 98 0 66-23 100-70 100C84 3 66-7 56-30L54 0H23l1-261h32v101c10-23 28-34 59-34zm-8 174c40 0 45-34 45-75 0-40-5-75-45-74-42 0-51 32-51 76 0 43 10 73 51 73" id="S"/><path fill="#fff" d="M179-190L93 31C79 59 56 82 12 73V49c39 6 53-20 64-50L1-190h34L92-34l54-156h33" id="T"/><g id="c"><use transform="matrix(0.06172839506172839,0,0,0.06172839506172839,0,0)" xlink:href="#Q"/><use transform="matrix(0.06172839506172839,0,0,0.06172839506172839,12.345679012345679,0)" xlink:href="#R"/><use transform="matrix(0.06172839506172839,0,0,0.06172839506172839,17.22222222222222,0)" xlink:href="#S"/><use transform="matrix(0.06172839506172839,0,0,0.06172839506172839,29.5679012345679,0)" xlink:href="#G"/><use transform="matrix(0.06172839506172839,0,0,0.06172839506172839,36.913580246913575,0)" xlink:href="#O"/><use transform="matrix(0.06172839506172839,0,0,0.06172839506172839,49.25925925925925,0)" xlink:href="#G"/><use transform="matrix(0.06172839506172839,0,0,0.06172839506172839,56.60493827160493,0)" xlink:href="#T"/></g><path fill="#fff" d="M100-194c62-1 85 37 85 99 1 63-27 99-86 99S16-35 15-95c0-66 28-99 85-99zM99-20c44 1 53-31 53-75 0-43-8-75-51-75s-53 32-53 75 10 74 51 75" id="U"/><path fill="#fff" d="M177-190C167-65 218 103 67 71c-23-6-38-20-44-43l32-5c15 47 100 32 89-28v-30C133-14 115 1 83 1 29 1 15-40 15-95c0-56 16-97 71-98 29-1 48 16 59 35 1-10 0-23 2-32h30zM94-22c36 0 50-32 50-73 0-42-14-75-50-75-39 0-46 34-46 75s6 73 46 73" id="V"/><g id="d"><use transform="matrix(0.06172839506172839,0,0,0.06172839506172839,0,0)" xlink:href="#D"/><use transform="matrix(0.06172839506172839,0,0,0.06172839506172839,15.987654320987653,0)" xlink:href="#O"/><use transform="matrix(0.06172839506172839,0,0,0.06172839506172839,28.333333333333332,0)" xlink:href="#M"/><use transform="matrix(0.06172839506172839,0,0,0.06172839506172839,34.50617283950617,0)" xlink:href="#O"/><use transform="matrix(0.06172839506172839,0,0,0.06172839506172839,46.85185185185185,0)" xlink:href="#E"/><use transform="matrix(0.06172839506172839,0,0,0.06172839506172839,51.72839506172839,0)" xlink:href="#U"/><use transform="matrix(0.06172839506172839,0,0,0.06172839506172839,64.07407407407408,0)" xlink:href="#V"/></g><path fill="#fff" d="M160-131c35 5 61 23 61 61C221 17 115-2 30 0v-248c76 3 177-17 177 60 0 33-19 50-47 57zm-97-11c50-1 110 9 110-42 0-47-63-36-110-37v79zm0 115c55-2 124 14 124-45 0-56-70-42-124-44v89" id="W"/><g id="e"><use transform="matrix(0.06172839506172839,0,0,0.06172839506172839,0,0)" xlink:href="#W"/><use transform="matrix(0.06172839506172839,0,0,0.06172839506172839,14.814814814814813,0)" xlink:href="#U"/><use transform="matrix(0.06172839506172839,0,0,0.06172839506172839,27.160493827160494,0)" xlink:href="#U"/><use transform="matrix(0.06172839506172839,0,0,0.06172839506172839,39.50617283950617,0)" xlink:href="#H"/></g><path fill="#fff" d="M197 0v-115H63V0H30v-248h33v105h134v-105h34V0h-34" id="X"/><path fill="#fff" d="M85-194c31 0 48 13 60 33l-1-100h32l1 261h-30c-2-10 0-23-3-31C134-8 116 4 85 4 32 4 16-35 15-94c0-66 23-100 70-100zm9 24c-40 0-46 34-46 75 0 40 6 74 45 74 42 0 51-32 51-76 0-42-9-74-50-73" id="Y"/><g id="f"><use transform="matrix(0.06172839506172839,0,0,0.06172839506172839,0,0)" xlink:href="#X"/><use transform="matrix(0.06172839506172839,0,0,0.06172839506172839,15.987654320987653,0)" xlink:href="#U"/><use transform="matrix(0.06172839506172839,0,0,0.06172839506172839,28.333333333333332,0)" xlink:href="#E"/><use transform="matrix(0.06172839506172839,0,0,0.06172839506172839,33.20987654320987,0)" xlink:href="#Y"/></g><path fill="#fff" d="M240 0l2-218c-23 76-54 145-80 218h-23L58-218 59 0H30v-248h44l77 211c21-75 51-140 76-211h43V0h-30" id="Z"/><path fill="#fff" d="M210-169c-67 3-38 105-44 169h-31v-121c0-29-5-50-35-48C34-165 62-65 56 0H25l-1-190h30c1 10-1 24 2 32 10-44 99-50 107 0 11-21 27-35 58-36 85-2 47 119 55 194h-31v-121c0-29-5-49-35-48" id="aa"/><g id="g"><use transform="matrix(0.06172839506172839,0,0,0.06172839506172839,0,0)" xlink:href="#Z"/><use transform="matrix(0.06172839506172839,0,0,0.06172839506172839,18.456790123456788,0)" xlink:href="#F"/><use transform="matrix(0.06172839506172839,0,0,0.06172839506172839,30.80246913580247,0)" xlink:href="#aa"/><use transform="matrix(0.06172839506172839,0,0,0.06172839506172839,49.25925925925925,0)" xlink:href="#S"/><use transform="matrix(0.06172839506172839,0,0,0.06172839506172839,61.60493827160493,0)" xlink:href="#F"/><use transform="matrix(0.06172839506172839,0,0,0.06172839506172839,73.9506172839506,0)" xlink:href="#G"/></g><path fill="#fff" d="M24-248c93 1 206-16 204 79-1 75-69 88-152 82V0H24v-248zm52 121c47 0 100 7 100-41 0-47-54-39-100-39v80" id="ab"/><path fill="#fff" d="M135-150c-39-12-60 13-60 57V0H25l-1-190h47c2 13-1 29 3 40 6-28 27-53 61-41v41" id="ac"/><path fill="#fff" d="M110-194c64 0 96 36 96 99 0 64-35 99-97 99-61 0-95-36-95-99 0-62 34-99 96-99zm-1 164c35 0 45-28 45-65 0-40-10-65-43-65-34 0-45 26-45 65 0 36 10 65 43 65" id="ad"/><path fill="#fff" d="M190-63c-7 42-38 67-86 67-59 0-84-38-90-98-12-110 154-137 174-36l-49 2c-2-19-15-32-35-32-30 0-35 28-38 64-6 74 65 87 74 30" id="ae"/><path fill="#fff" d="M185-48c-13 30-37 53-82 52C43 2 14-33 14-96s30-98 90-98c62 0 83 45 84 108H66c0 31 8 55 39 56 18 0 30-7 34-22zm-45-69c5-46-57-63-70-21-2 6-4 13-4 21h74" id="af"/><path fill="#fff" d="M137-138c1-29-70-34-71-4 15 46 118 7 119 86 1 83-164 76-172 9l43-7c4 19 20 25 44 25 33 8 57-30 24-41C81-84 22-81 20-136c-2-80 154-74 161-7" id="ag"/><g id="h"><use transform="matrix(0.04938271604938272,0,0,0.04938271604938272,0,0)" xlink:href="#ab"/><use transform="matrix(0.04938271604938272,0,0,0.04938271604938272,11.851851851851853,0)" xlink:href="#ac"/><use transform="matrix(0.04938271604938272,0,0,0.04938271604938272,18.765432098765434,0)" xlink:href="#ad"/><use transform="matrix(0.04938271604938272,0,0,0.04938271604938272,29.58024691358025,0)" xlink:href="#ae"/><use transform="matrix(0.04938271604938272,0,0,0.04938271604938272,39.45679012345679,0)" xlink:href="#af"/><use transform="matrix(0.04938271604938272,0,0,0.04938271604938272,49.333333333333336,0)" xlink:href="#ag"/><use transform="matrix(0.04938271604938272,0,0,0.04938271604938272,59.20987654320988,0)" xlink:href="#ag"/></g><path fill="#fff" d="M186 0v-106H76V0H24v-248h52v99h110v-99h50V0h-50" id="ah"/><path fill="#fff" d="M25 0v-261h50V0H25" id="ai"/><path fill="#fff" d="M88-194c31-1 46 15 58 34l-1-101h50l1 261h-48c-2-10 0-23-3-31C134-8 116 4 84 4 32 4 16-41 15-95c0-56 19-97 73-99zm17 164c33 0 40-30 41-66 1-37-9-64-41-64s-38 30-39 65c0 43 13 65 39 65" id="aj"/><g id="i"><use transform="matrix(0.04938271604938272,0,0,0.04938271604938272,0,0)" xlink:href="#ah"/><use transform="matrix(0.04938271604938272,0,0,0.04938271604938272,12.790123456790125,0)" xlink:href="#ad"/><use transform="matrix(0.04938271604938272,0,0,0.04938271604938272,23.60493827160494,0)" xlink:href="#ai"/><use transform="matrix(0.04938271604938272,0,0,0.04938271604938272,28.543209876543212,0)" xlink:href="#aj"/><use transform="matrix(0.04938271604938272,0,0,0.04938271604938272,39.358024691358025,0)" xlink:href="#ag"/></g><path fill="#fff" d="M133-34C117-15 103 5 69 4 32 3 11-16 11-54c-1-60 55-63 116-61 1-26-3-47-28-47-18 1-26 9-28 27l-52-2c7-38 36-58 82-57s74 22 75 68l1 82c-1 14 12 18 25 15v27c-30 8-71 5-69-32zm-48 3c29 0 43-24 42-57-32 0-66-3-65 30 0 17 8 27 23 27" id="ak"/><path fill="#fff" d="M115-3C79 11 28 4 28-45v-112H4v-33h27l15-45h31v45h36v33H77v99c-1 23 16 31 38 25v30" id="al"/><g id="j"><use transform="matrix(0.04938271604938272,0,0,0.04938271604938272,0,0)" xlink:href="#aj"/><use transform="matrix(0.04938271604938272,0,0,0.04938271604938272,10.814814814814815,0)" xlink:href="#ak"/><use transform="matrix(0.04938271604938272,0,0,0.04938271604938272,20.69135802469136,0)" xlink:href="#al"/><use transform="matrix(0.04938271604938272,0,0,0.04938271604938272,26.567901234567902,0)" xlink:href="#ak"/></g><path fill="#fff" d="M84 4C32 4 15-41 15-95c0-55 18-99 73-99 29 0 47 12 58 34l2-30h48l-1 265h-49V-32C136-9 114 4 84 4zm21-34c32 0 41-29 41-66 0-36-9-64-40-64-33 0-39 30-40 65 0 43 13 65 39 65" id="am"/><path fill="#fff" d="M85 4C-2 5 27-109 22-190h50c7 57-23 150 33 157 60-5 35-97 40-157h50l1 190h-47c-2-12 1-28-3-38-12 25-28 42-61 42" id="an"/><g id="k"><use transform="matrix(0.04938271604938272,0,0,0.04938271604938272,0,0)" xlink:href="#ac"/><use transform="matrix(0.04938271604938272,0,0,0.04938271604938272,6.913580246913581,0)" xlink:href="#af"/><use transform="matrix(0.04938271604938272,0,0,0.04938271604938272,16.790123456790127,0)" xlink:href="#am"/><use transform="matrix(0.04938271604938272,0,0,0.04938271604938272,27.604938271604947,0)" xlink:href="#an"/><use transform="matrix(0.04938271604938272,0,0,0.04938271604938272,38.41975308641976,0)" xlink:href="#af"/><use transform="matrix(0.04938271604938272,0,0,0.04938271604938272,48.296296296296305,0)" xlink:href="#ag"/><use transform="matrix(0.04938271604938272,0,0,0.04938271604938272,58.17283950617284,0)" xlink:href="#al"/><use transform="matrix(0.04938271604938272,0,0,0.04938271604938272,64.0493827160494,0)" xlink:href="#ag"/></g><path fill="#fff" d="M135-194c52 0 70 43 70 98 0 56-19 99-73 100-30 1-46-15-58-35L72 0H24l1-261h50v104c11-23 29-37 60-37zM114-30c31 0 40-27 40-66 0-37-7-63-39-63s-41 28-41 65c0 36 8 64 40 64" id="ao"/><path fill="#fff" d="M147 0L96-86 75-71V0H25v-261h50v150l67-79h53l-66 74L201 0h-54" id="ap"/><path fill="#fff" d="M24 0v-248h52V0H24" id="aq"/><path fill="#fff" d="M24-248c120-7 223 5 221 122C244-46 201 0 124 0H24v-248zM76-40c74 7 117-18 117-86 0-67-45-88-117-82v168" id="ar"/><g id="l"><use transform="matrix(0.04938271604938272,0,0,0.04938271604938272,0,0)" xlink:href="#ao"/><use transform="matrix(0.04938271604938272,0,0,0.04938271604938272,10.814814814814815,0)" xlink:href="#ad"/><use transform="matrix(0.04938271604938272,0,0,0.04938271604938272,21.62962962962963,0)" xlink:href="#ad"/><use transform="matrix(0.04938271604938272,0,0,0.04938271604938272,32.44444444444444,0)" xlink:href="#ap"/><use transform="matrix(0.04938271604938272,0,0,0.04938271604938272,42.32098765432099,0)" xlink:href="#aq"/><use transform="matrix(0.04938271604938272,0,0,0.04938271604938272,47.25925925925926,0)" xlink:href="#ar"/></g><path fill="#fff" d="M135-194c53 0 70 44 70 98 0 56-19 98-73 100-31 1-45-17-59-34 3 33 2 69 2 105H25l-1-265h48c2 10 0 23 3 31 11-24 29-35 60-35zM114-30c33 0 39-31 40-66 0-38-9-64-40-64-56 0-55 130 0 130" id="as"/><path fill="#fff" d="M67-93c0 74 22 123 53 168H70C40 30 18-18 18-93s22-123 52-168h50c-32 44-53 94-53 168" id="at"/><path fill="#fff" d="M102-93c0 74-22 123-52 168H0C30 29 54-18 53-93c0-74-22-123-53-168h50c30 45 52 94 52 168" id="au"/><g id="m"><use transform="matrix(0.04938271604938272,0,0,0.04938271604938272,0,0)" xlink:href="#as"/><use transform="matrix(0.04938271604938272,0,0,0.04938271604938272,10.814814814814815,0)" xlink:href="#ac"/><use transform="matrix(0.04938271604938272,0,0,0.04938271604938272,17.728395061728396,0)" xlink:href="#ad"/><use transform="matrix(0.04938271604938272,0,0,0.04938271604938272,28.543209876543205,0)" xlink:href="#ae"/><use transform="matrix(0.04938271604938272,0,0,0.04938271604938272,38.41975308641975,0)" xlink:href="#af"/><use transform="matrix(0.04938271604938272,0,0,0.04938271604938272,48.2962962962963,0)" xlink:href="#ag"/><use transform="matrix(0.04938271604938272,0,0,0.04938271604938272,58.17283950617284,0)" xlink:href="#ag"/><use transform="matrix(0.04938271604938272,0,0,0.04938271604938272,68.0493827160494,0)" xlink:href="#ah"/><use transform="matrix(0.04938271604938272,0,0,0.04938271604938272,80.83950617283952,0)" xlink:href="#ad"/><use transform="matrix(0.04938271604938272,0,0,0.04938271604938272,91.65432098765433,0)" xlink:href="#ai"/><use transform="matrix(0.04938271604938272,0,0,0.04938271604938272,96.59259259259261,0)" xlink:href="#aj"/><use transform="matrix(0.04938271604938272,0,0,0.04938271604938272,107.40740740740742,0)" xlink:href="#at"/><use transform="matrix(0.04938271604938272,0,0,0.04938271604938272,113.28395061728396,0)" xlink:href="#ao"/><use transform="matrix(0.04938271604938272,0,0,0.04938271604938272,124.09876543209877,0)" xlink:href="#ad"/><use transform="matrix(0.04938271604938272,0,0,0.04938271604938272,134.9135802469136,0)" xlink:href="#ad"/><use transform="matrix(0.04938271604938272,0,0,0.04938271604938272,145.7283950617284,0)" xlink:href="#ap"/><use transform="matrix(0.04938271604938272,0,0,0.04938271604938272,155.60493827160496,0)" xlink:href="#aq"/><use transform="matrix(0.04938271604938272,0,0,0.04938271604938272,160.54320987654324,0)" xlink:href="#ar"/><use transform="matrix(0.04938271604938272,0,0,0.04938271604938272,173.33333333333337,0)" xlink:href="#au"/></g><g id="n"><use transform="matrix(0.04938271604938272,0,0,0.04938271604938272,0,0)" xlink:href="#ao"/><use transform="matrix(0.04938271604938272,0,0,0.04938271604938272,10.814814814814815,0)" xlink:href="#ad"/><use transform="matrix(0.04938271604938272,0,0,0.04938271604938272,21.62962962962963,0)" xlink:href="#ad"/><use transform="matrix(0.04938271604938272,0,0,0.04938271604938272,32.44444444444444,0)" xlink:href="#ap"/></g><path fill="#fff" d="M15-148v-39h180v39H15zm0 97v-39h180v39H15" id="av"/><use transform="matrix(0.04938271604938272,0,0,0.04938271604938272,0,0)" xlink:href="#av" id="o"/><path fill="#fff" d="M114-157C55-157 80-60 75 0H25v-261h50l-1 109c12-26 28-41 61-42 86-1 58 113 63 194h-50c-7-57 23-157-34-157" id="aw"/><g id="p"><use transform="matrix(0.04938271604938272,0,0,0.04938271604938272,0,0)" xlink:href="#ag"/><use transform="matrix(0.04938271604938272,0,0,0.04938271604938272,9.876543209876544,0)" xlink:href="#af"/><use transform="matrix(0.04938271604938272,0,0,0.04938271604938272,19.75308641975309,0)" xlink:href="#ak"/><use transform="matrix(0.04938271604938272,0,0,0.04938271604938272,29.629629629629633,0)" xlink:href="#ac"/><use transform="matrix(0.04938271604938272,0,0,0.04938271604938272,36.543209876543216,0)" xlink:href="#ae"/><use transform="matrix(0.04938271604938272,0,0,0.04938271604938272,46.41975308641976,0)" xlink:href="#aw"/><use transform="matrix(0.04938271604938272,0,0,0.04938271604938272,57.23456790123457,0)" xlink:href="#at"/><use transform="matrix(0.04938271604938272,0,0,0.04938271604938272,63.111111111111114,0)" xlink:href="#ao"/><use transform="matrix(0.04938271604938272,0,0,0.04938271604938272,73.92592592592594,0)" xlink:href="#ad"/><use transform="matrix(0.04938271604938272,0,0,0.04938271604938272,84.74074074074075,0)" xlink:href="#ad"/><use transform="matrix(0.04938271604938272,0,0,0.04938271604938272,95.55555555555556,0)" xlink:href="#ap"/><use transform="matrix(0.04938271604938272,0,0,0.04938271604938272,105.4320987654321,0)" xlink:href="#aq"/><use transform="matrix(0.04938271604938272,0,0,0.04938271604938272,110.37037037037038,0)" xlink:href="#ar"/><use transform="matrix(0.04938271604938272,0,0,0.04938271604938272,123.16049382716051,0)" xlink:href="#au"/></g><g id="q"><use transform="matrix(0.04938271604938272,0,0,0.04938271604938272,0,0)" xlink:href="#aw"/><use transform="matrix(0.04938271604938272,0,0,0.04938271604938272,10.814814814814815,0)" xlink:href="#ad"/><use transform="matrix(0.04938271604938272,0,0,0.04938271604938272,21.62962962962963,0)" xlink:href="#ai"/><use transform="matrix(0.04938271604938272,0,0,0.04938271604938272,26.567901234567902,0)" xlink:href="#aj"/></g><path fill="#fff" d="M195-6C206 82 75 100 31 46c-4-6-6-13-8-21l49-6c3 16 16 24 34 25 40 0 42-37 40-79-11 22-30 35-61 35-53 0-70-43-70-97 0-56 18-96 73-97 30 0 46 14 59 34l2-30h47zm-90-29c32 0 41-27 41-63 0-35-9-62-40-62-32 0-39 29-40 63 0 36 9 62 39 62" id="ax"/><path fill="#fff" d="M175 0L67-191c6 58 2 128 3 191H24v-248h59L193-55c-6-58-2-129-3-193h46V0h-61" id="ay"/><path fill="#fff" d="M144 0l-44-69L55 0H2l70-98-66-92h53l41 62 40-62h54l-67 91 71 99h-54" id="az"/><g id="r"><use transform="matrix(0.04938271604938272,0,0,0.04938271604938272,0,0)" xlink:href="#ax"/><use transform="matrix(0.04938271604938272,0,0,0.04938271604938272,10.814814814814815,0)" xlink:href="#af"/><use transform="matrix(0.04938271604938272,0,0,0.04938271604938272,20.69135802469136,0)" xlink:href="#al"/><use transform="matrix(0.04938271604938272,0,0,0.04938271604938272,26.567901234567902,0)" xlink:href="#ay"/><use transform="matrix(0.04938271604938272,0,0,0.04938271604938272,39.35802469135803,0)" xlink:href="#af"/><use transform="matrix(0.04938271604938272,0,0,0.04938271604938272,49.23456790123458,0)" xlink:href="#az"/><use transform="matrix(0.04938271604938272,0,0,0.04938271604938272,59.111111111111114,0)" xlink:href="#al"/><use transform="matrix(0.04938271604938272,0,0,0.04938271604938272,64.98765432098766,0)" xlink:href="#ah"/><use transform="matrix(0.04938271604938272,0,0,0.04938271604938272,77.77777777777779,0)" xlink:href="#ad"/><use transform="matrix(0.04938271604938272,0,0,0.04938271604938272,88.5925925925926,0)" xlink:href="#ai"/><use transform="matrix(0.04938271604938272,0,0,0.04938271604938272,93.53086419753086,0)" xlink:href="#aj"/><use transform="matrix(0.04938271604938272,0,0,0.04938271604938272,104.34567901234567,0)" xlink:href="#at"/><use transform="matrix(0.04938271604938272,0,0,0.04938271604938272,110.22222222222221,0)" xlink:href="#au"/></g><path fill="#fff" d="M220-157c-53 9-28 100-34 157h-49v-107c1-27-5-49-29-50C55-147 81-57 75 0H25l-1-190h47c2 12-1 28 3 38 10-53 101-56 108 0 13-22 24-43 59-42 82 1 51 116 57 194h-49v-107c-1-25-5-48-29-50" id="aA"/><g id="s"><use transform="matrix(0.04938271604938272,0,0,0.04938271604938272,0,0)" xlink:href="#aA"/><use transform="matrix(0.04938271604938272,0,0,0.04938271604938272,15.80246913580247,0)" xlink:href="#af"/><use transform="matrix(0.04938271604938272,0,0,0.04938271604938272,25.679012345679016,0)" xlink:href="#aA"/><use transform="matrix(0.04938271604938272,0,0,0.04938271604938272,41.48148148148148,0)" xlink:href="#ao"/><use transform="matrix(0.04938271604938272,0,0,0.04938271604938272,52.2962962962963,0)" xlink:href="#af"/><use transform="matrix(0.04938271604938272,0,0,0.04938271604938272,62.17283950617284,0)" xlink:href="#ac"/></g><path fill="#fff" d="M230 0l2-204L168 0h-37L68-204 70 0H24v-248h70l56 185 57-185h69V0h-46" id="aB"/><path fill="#fff" d="M24 0v-54h51V0H24" id="aC"/><g id="t"><use transform="matrix(0.04938271604938272,0,0,0.04938271604938272,0,0)" xlink:href="#ax"/><use transform="matrix(0.04938271604938272,0,0,0.04938271604938272,10.814814814814815,0)" xlink:href="#af"/><use transform="matrix(0.04938271604938272,0,0,0.04938271604938272,20.69135802469136,0)" xlink:href="#al"/><use transform="matrix(0.04938271604938272,0,0,0.04938271604938272,26.567901234567902,0)" xlink:href="#aB"/><use transform="matrix(0.04938271604938272,0,0,0.04938271604938272,41.33333333333334,0)" xlink:href="#af"/><use transform="matrix(0.04938271604938272,0,0,0.04938271604938272,51.209876543209894,0)" xlink:href="#aA"/><use transform="matrix(0.04938271604938272,0,0,0.04938271604938272,67.01234567901236,0)" xlink:href="#ao"/><use transform="matrix(0.04938271604938272,0,0,0.04938271604938272,77.82716049382717,0)" xlink:href="#af"/><use transform="matrix(0.04938271604938272,0,0,0.04938271604938272,87.70370370370371,0)" xlink:href="#ac"/><use transform="matrix(0.04938271604938272,0,0,0.04938271604938272,94.61728395061729,0)" xlink:href="#at"/><use transform="matrix(0.04938271604938272,0,0,0.04938271604938272,100.49382716049384,0)" xlink:href="#aC"/><use transform="matrix(0.04938271604938272,0,0,0.04938271604938272,105.4320987654321,0)" xlink:href="#au"/></g><path fill="#fff" d="M135-194c87-1 58 113 63 194h-50c-7-57 23-157-34-157-59 0-34 97-39 157H25l-1-190h47c2 12-1 28 3 38 12-26 28-41 61-42" id="aD"/><g id="u"><use transform="matrix(0.04938271604938272,0,0,0.04938271604938272,0,0)" xlink:href="#ao"/><use transform="matrix(0.04938271604938272,0,0,0.04938271604938272,10.814814814814815,0)" xlink:href="#ad"/><use transform="matrix(0.04938271604938272,0,0,0.04938271604938272,21.62962962962963,0)" xlink:href="#ad"/><use transform="matrix(0.04938271604938272,0,0,0.04938271604938272,32.44444444444444,0)" xlink:href="#ai"/><use transform="matrix(0.04938271604938272,0,0,0.04938271604938272,37.382716049382715,0)" xlink:href="#af"/><use transform="matrix(0.04938271604938272,0,0,0.04938271604938272,47.25925925925926,0)" xlink:href="#ak"/><use transform="matrix(0.04938271604938272,0,0,0.04938271604938272,57.135802469135804,0)" xlink:href="#aD"/></g><path fill="#fff" d="M128 0H69L1-190h53L99-40l48-150h52" id="aE"/><g id="v"><use transform="matrix(0.04938271604938272,0,0,0.04938271604938272,0,0)" xlink:href="#ac"/><use transform="matrix(0.04938271604938272,0,0,0.04938271604938272,6.913580246913581,0)" xlink:href="#af"/><use transform="matrix(0.04938271604938272,0,0,0.04938271604938272,16.790123456790127,0)" xlink:href="#aA"/><use transform="matrix(0.04938271604938272,0,0,0.04938271604938272,32.592592592592595,0)" xlink:href="#ad"/><use transform="matrix(0.04938271604938272,0,0,0.04938271604938272,43.40740740740741,0)" xlink:href="#aE"/><use transform="matrix(0.04938271604938272,0,0,0.04938271604938272,53.283950617283956,0)" xlink:href="#af"/><use transform="matrix(0.04938271604938272,0,0,0.04938271604938272,63.1604938271605,0)" xlink:href="#ah"/><use transform="matrix(0.04938271604938272,0,0,0.04938271604938272,75.95061728395062,0)" xlink:href="#ad"/><use transform="matrix(0.04938271604938272,0,0,0.04938271604938272,86.76543209876543,0)" xlink:href="#ai"/><use transform="matrix(0.04938271604938272,0,0,0.04938271604938272,91.7037037037037,0)" xlink:href="#aj"/><use transform="matrix(0.04938271604938272,0,0,0.04938271604938272,102.5185185185185,0)" xlink:href="#at"/><use transform="matrix(0.04938271604938272,0,0,0.04938271604938272,108.39506172839505,0)" xlink:href="#aA"/><use transform="matrix(0.04938271604938272,0,0,0.04938271604938272,124.19753086419752,0)" xlink:href="#af"/><use transform="matrix(0.04938271604938272,0,0,0.04938271604938272,134.07407407407408,0)" xlink:href="#aA"/><use transform="matrix(0.04938271604938272,0,0,0.04938271604938272,149.87654320987656,0)" xlink:href="#ao"/><use transform="matrix(0.04938271604938272,0,0,0.04938271604938272,160.69135802469137,0)" xlink:href="#af"/><use transform="matrix(0.04938271604938272,0,0,0.04938271604938272,170.5679012345679,0)" xlink:href="#ac"/><use transform="matrix(0.04938271604938272,0,0,0.04938271604938272,177.48148148148147,0)" xlink:href="#aq"/><use transform="matrix(0.04938271604938272,0,0,0.04938271604938272,182.41975308641975,0)" xlink:href="#ar"/><use transform="matrix(0.04938271604938272,0,0,0.04938271604938272,195.20987654320987,0)" xlink:href="#au"/></g><g id="w"><use transform="matrix(0.04938271604938272,0,0,0.04938271604938272,0,0)" xlink:href="#ac"/><use transform="matrix(0.04938271604938272,0,0,0.04938271604938272,6.913580246913581,0)" xlink:href="#af"/><use transform="matrix(0.04938271604938272,0,0,0.04938271604938272,16.790123456790127,0)" xlink:href="#aA"/><use transform="matrix(0.04938271604938272,0,0,0.04938271604938272,32.592592592592595,0)" xlink:href="#ad"/><use transform="matrix(0.04938271604938272,0,0,0.04938271604938272,43.40740740740741,0)" xlink:href="#aE"/><use transform="matrix(0.04938271604938272,0,0,0.04938271604938272,53.283950617283956,0)" xlink:href="#af"/><use transform="matrix(0.04938271604938272,0,0,0.04938271604938272,63.1604938271605,0)" xlink:href="#ah"/><use transform="matrix(0.04938271604938272,0,0,0.04938271604938272,75.95061728395062,0)" xlink:href="#ad"/><use transform="matrix(0.04938271604938272,0,0,0.04938271604938272,86.76543209876543,0)" xlink:href="#ai"/><use transform="matrix(0.04938271604938272,0,0,0.04938271604938272,91.7037037037037,0)" xlink:href="#aj"/><use transform="matrix(0.04938271604938272,0,0,0.04938271604938272,102.5185185185185,0)" xlink:href="#at"/><use transform="matrix(0.04938271604938272,0,0,0.04938271604938272,108.39506172839505,0)" xlink:href="#ao"/><use transform="matrix(0.04938271604938272,0,0,0.04938271604938272,119.20987654320986,0)" xlink:href="#ad"/><use transform="matrix(0.04938271604938272,0,0,0.04938271604938272,130.02469135802468,0)" xlink:href="#ad"/><use transform="matrix(0.04938271604938272,0,0,0.04938271604938272,140.8395061728395,0)" xlink:href="#ap"/><use transform="matrix(0.04938271604938272,0,0,0.04938271604938272,150.71604938271605,0)" xlink:href="#aq"/><use transform="matrix(0.04938271604938272,0,0,0.04938271604938272,155.65432098765433,0)" xlink:href="#ar"/><use transform="matrix(0.04938271604938272,0,0,0.04938271604938272,168.44444444444446,0)" xlink:href="#au"/></g><g id="x"><use transform="matrix(0.04938271604938272,0,0,0.04938271604938272,0,0)" xlink:href="#aA"/><use transform="matrix(0.04938271604938272,0,0,0.04938271604938272,15.80246913580247,0)" xlink:href="#af"/><use transform="matrix(0.04938271604938272,0,0,0.04938271604938272,25.679012345679016,0)" xlink:href="#aA"/><use transform="matrix(0.04938271604938272,0,0,0.04938271604938272,41.48148148148148,0)" xlink:href="#ao"/><use transform="matrix(0.04938271604938272,0,0,0.04938271604938272,52.2962962962963,0)" xlink:href="#af"/><use transform="matrix(0.04938271604938272,0,0,0.04938271604938272,62.17283950617284,0)" xlink:href="#ac"/></g><g id="y"><use transform="matrix(0.04938271604938272,0,0,0.04938271604938272,0,0)" xlink:href="#ac"/><use transform="matrix(0.04938271604938272,0,0,0.04938271604938272,6.913580246913581,0)" xlink:href="#af"/><use transform="matrix(0.04938271604938272,0,0,0.04938271604938272,16.790123456790127,0)" xlink:href="#ag"/><use transform="matrix(0.04938271604938272,0,0,0.04938271604938272,26.666666666666668,0)" xlink:href="#an"/><use transform="matrix(0.04938271604938272,0,0,0.04938271604938272,37.48148148148149,0)" xlink:href="#ai"/><use transform="matrix(0.04938271604938272,0,0,0.04938271604938272,42.41975308641976,0)" xlink:href="#al"/></g><g id="z"><use transform="matrix(0.04938271604938272,0,0,0.04938271604938272,0,0)" xlink:href="#aB"/><use transform="matrix(0.04938271604938272,0,0,0.04938271604938272,14.765432098765434,0)" xlink:href="#ad"/><use transform="matrix(0.04938271604938272,0,0,0.04938271604938272,25.58024691358025,0)" xlink:href="#ac"/><use transform="matrix(0.04938271604938272,0,0,0.04938271604938272,32.49382716049383,0)" xlink:href="#af"/></g><path fill="#fff" d="M110-251c83-7 118 89 53 130-17 10-36 21-38 46H78c2-56 65-53 71-103 2-21-15-35-38-34-25 1-41 14-44 38l-50-2c6-48 39-70 93-75zM77 0v-47h51V0H77" id="aF"/><g id="A"><use transform="matrix(0.04938271604938272,0,0,0.04938271604938272,0,0)" xlink:href="#ah"/><use transform="matrix(0.04938271604938272,0,0,0.04938271604938272,12.790123456790125,0)" xlink:href="#ad"/><use transform="matrix(0.04938271604938272,0,0,0.04938271604938272,23.60493827160494,0)" xlink:href="#ai"/><use transform="matrix(0.04938271604938272,0,0,0.04938271604938272,28.543209876543212,0)" xlink:href="#aj"/><use transform="matrix(0.04938271604938272,0,0,0.04938271604938272,39.358024691358025,0)" xlink:href="#ag"/><use transform="matrix(0.04938271604938272,0,0,0.04938271604938272,49.23456790123457,0)" xlink:href="#aF"/></g><path fill="#fff" d="M146-102V0H94v-102L6-248h54l60 105 60-105h54" id="aG"/><path fill="#fff" d="M4 7l51-268h42L46 7H4" id="aH"/><g id="B"><use transform="matrix(0.04938271604938272,0,0,0.04938271604938272,0,0)" xlink:href="#aG"/><use transform="matrix(0.04938271604938272,0,0,0.04938271604938272,10.864197530864198,0)" xlink:href="#af"/><use transform="matrix(0.04938271604938272,0,0,0.04938271604938272,20.74074074074074,0)" xlink:href="#ag"/><use transform="matrix(0.04938271604938272,0,0,0.04938271604938272,30.617283950617285,0)" xlink:href="#aH"/><use transform="matrix(0.04938271604938272,0,0,0.04938271604938272,35.55555555555556,0)" xlink:href="#ay"/><use transform="matrix(0.04938271604938272,0,0,0.04938271604938272,48.345679012345684,0)" xlink:href="#ad"/></g><path fill="#fff" d="M115-194c55 1 70 41 70 98S169 2 115 4C84 4 66-9 55-30l1 105H24l-1-265h31l2 30c10-21 28-34 59-34zm-8 174c40 0 45-34 45-75s-6-73-45-74c-42 0-51 32-51 76 0 43 10 73 51 73" id="aI"/><g id="C"><use transform="matrix(0.06172839506172839,0,0,0.06172839506172839,0,0)" xlink:href="#Q"/><use transform="matrix(0.06172839506172839,0,0,0.06172839506172839,12.345679012345679,0)" xlink:href="#U"/><use transform="matrix(0.06172839506172839,0,0,0.06172839506172839,24.691358024691358,0)" xlink:href="#U"/><use transform="matrix(0.06172839506172839,0,0,0.06172839506172839,37.03703703703704,0)" xlink:href="#aI"/></g></defs></g></svg>