<svg xmlns="http://www.w3.org/2000/svg" xmlns:xlink="http://www.w3.org/1999/xlink" xmlns:lucid="lucid" width="1840" height="1460"><g transform="translate(0 -260)" lucid:page-tab-id="mAheLMz2M8dI"><path d="M0 0h3456v2656H0z" fill="#fff"/><path d="M20 286c0-3.3 2.7-6 6-6h808c3.3 0 6 2.7 6 6v628c0 3.3-2.7 6-6 6H26c-3.3 0-6-2.7-6-6z" stroke="#5e5e5e" stroke-width="3" fill-opacity="0"/><path d="M230 326c0-3.3 2.7-6 6-6h248c3.3 0 6 2.7 6 6v116c0 3.3-2.7 6-6 6H236c-3.3 0-6-2.7-6-6z" stroke="#5e5e5e" stroke-width="3" fill="#fff"/><path d="M230 362.67h260m-260 42.66h260" stroke="#5e5e5e" stroke-width="3" fill="none"/><use xlink:href="#a" transform="matrix(1,0,0,1,238,328) translate(89.34567901234568 17.944444444444443)"/><path d="M520 326c0-3.3 2.7-6 6-6h268c3.3 0 6 2.7 6 6v148c0 3.3-2.7 6-6 6H526c-3.3 0-6-2.7-6-6z" stroke="#5e5e5e" stroke-width="3" fill="#fff"/><path d="M520 362.67h280M520 434.5h280" stroke="#5e5e5e" stroke-width="3" fill="none"/><use xlink:href="#b" transform="matrix(1,0,0,1,528,328) translate(98.04938271604938 17.944444444444443)"/><use xlink:href="#c" transform="matrix(1,0,0,1,532,370.6666666666667) translate(0 19.111111111111114)"/><use xlink:href="#d" transform="matrix(1,0,0,1,532,370.6666666666667) translate(85 19.111111111111114)"/><use xlink:href="#e" transform="matrix(1,0,0,1,532,370.6666666666667) translate(97.34567901234568 19.111111111111114)"/><use xlink:href="#f" transform="matrix(1,0,0,1,532,370.6666666666667) translate(0 45.777777777777786)"/><use xlink:href="#d" transform="matrix(1,0,0,1,532,370.6666666666667) translate(74.01234567901234 45.777777777777786)"/><use xlink:href="#g" transform="matrix(1,0,0,1,532,370.6666666666667) translate(86.35802469135803 45.777777777777786)"/><path d="M385 606c0-3.3 2.7-6 6-6h298c3.3 0 6 2.7 6 6v223c0 3.3-2.7 6-6 6H391c-3.3 0-6-2.7-6-6z" stroke="#5e5e5e" stroke-width="3" fill="#fff"/><path d="M385 642.67h310m-310 42.66h310" stroke="#5e5e5e" stroke-width="3" fill="none"/><use xlink:href="#h" transform="matrix(1,0,0,1,393,608) translate(96.53703703703704 17.944444444444443)"/><use xlink:href="#i" transform="matrix(1,0,0,1,397,693.3333333333333) translate(0 18.111111111111107)"/><use xlink:href="#j" transform="matrix(1,0,0,1,397,693.3333333333333) translate(0 44.77777777777777)"/><use xlink:href="#k" transform="matrix(1,0,0,1,397,693.3333333333333) translate(0 71.44444444444444)"/><use xlink:href="#l" transform="matrix(1,0,0,1,397,693.3333333333333) translate(24.691358024691358 71.44444444444444)"/><use xlink:href="#m" transform="matrix(1,0,0,1,397,693.3333333333333) translate(75.18518518518519 71.44444444444444)"/><use xlink:href="#k" transform="matrix(1,0,0,1,397,693.3333333333333) translate(0 98.11111111111111)"/><use xlink:href="#l" transform="matrix(1,0,0,1,397,693.3333333333333) translate(24.691358024691358 98.11111111111111)"/><use xlink:href="#n" transform="matrix(1,0,0,1,397,693.3333333333333) translate(75.18518518518519 98.11111111111111)"/><use xlink:href="#o" transform="matrix(1,0,0,1,397,693.3333333333333) translate(0 124.77777777777777)"/><use xlink:href="#p" transform="matrix(1,0,0,1,397,693.3333333333333) translate(24.691358024691358 124.77777777777777)"/><use xlink:href="#q" transform="matrix(1,0,0,1,397,693.3333333333333) translate(99.99999999999999 124.77777777777777)"/><path d="M40 606c0-3.3 2.7-6 6-6h288c3.3 0 6 2.7 6 6v223c0 3.3-2.7 6-6 6H46c-3.3 0-6-2.7-6-6z" stroke="#5e5e5e" stroke-width="3" fill="#fff"/><path d="M40 642.67h300M40 685.33h300" stroke="#5e5e5e" stroke-width="3" fill="none"/><use xlink:href="#r" transform="matrix(1,0,0,1,48,608) translate(86.5679012345679 17.944444444444443)"/><use xlink:href="#i" transform="matrix(1,0,0,1,52,693.3333333333333) translate(0 18.111111111111107)"/><use xlink:href="#j" transform="matrix(1,0,0,1,52,693.3333333333333) translate(0 44.77777777777777)"/><use xlink:href="#k" transform="matrix(1,0,0,1,52,693.3333333333333) translate(0 71.44444444444444)"/><use xlink:href="#l" transform="matrix(1,0,0,1,52,693.3333333333333) translate(24.691358024691358 71.44444444444444)"/><use xlink:href="#m" transform="matrix(1,0,0,1,52,693.3333333333333) translate(75.18518518518519 71.44444444444444)"/><use xlink:href="#k" transform="matrix(1,0,0,1,52,693.3333333333333) translate(0 98.11111111111111)"/><use xlink:href="#l" transform="matrix(1,0,0,1,52,693.3333333333333) translate(24.691358024691358 98.11111111111111)"/><use xlink:href="#n" transform="matrix(1,0,0,1,52,693.3333333333333) translate(75.18518518518519 98.11111111111111)"/><use xlink:href="#o" transform="matrix(1,0,0,1,52,693.3333333333333) translate(0 124.77777777777777)"/><use xlink:href="#p" transform="matrix(1,0,0,1,52,693.3333333333333) translate(24.691358024691358 124.77777777777777)"/><use xlink:href="#q" transform="matrix(1,0,0,1,52,693.3333333333333) translate(99.99999999999999 124.77777777777777)"/><path d="M697.5 717.5h2.58m3.45 0h5.16m3.44 0h5.17m3.45 0h2.58l2.7-.73m2.57-2.57l.73-2.7v-2.98m0-3.96v-5.96m0-3.97v-5.95m0-3.97v-5.94m0-3.97v-5.96m0-3.97v-5.95m0-3.97V649m0-3.97v-5.95m0-3.97v-5.94m0-3.97v-5.96m0-3.97v-5.96m0-3.95v-5.96m0-3.98v-5.95m0-3.97v-5.95m0-3.97v-5.95m0-3.97v-5.95m0-3.96v-5.95m0-3.98v-5.95m0-3.97v-5.95m0-3.97v-5.95m0-3.97v-5.96m0-3.96v-5.96m0-3.96v-5.96m0-3.97v-2.98" stroke="#5e5e5e" stroke-width="2" fill="none"/><path d="M697.53 718.5h-1.03v-2h1.03z" fill="#5e5e5e"/><path d="M739.5 500.68l-10.17-17.22-10.18 17.22M190 837.5v3.3m0 4.4v6.6m0 4.4v6.6m0 4.4v3.3l.73 2.7m2.57 2.57l2.7.73h3m3.98 0h6m3.98 0h6m3.98 0h5.98m4 0h5.98m4 0h5.98m4 0h5.97m4 0h5.98m4 0h5.98m4 0h5.98m4 0h5.98m4 0h5.98m4 0h5.97m4 0h6m3.98 0h6m3.98 0h5.98m4 0h5.98m4 0h5.98m4 0h5.97m4 0h5.98m4 0h5.98m4 0h5.97m4 0h5.98m4 0h5.97m4 0h5.98m4 0h5.98m4 0h5.98m4 0h5.98m4 0h5.98m4 0h5.97m4 0h6m3.98 0h6m3.98 0h5.98m4 0h5.98m4 0h5.98m4 0h5.97m4 0h5.98m4 0h5.98m4 0h5.97m4 0h5.98m4 0h5.98m4 0h5.97m4 0H618m4 0h6m3.98 0h5.98m4 0h5.98m4 0h5.98m4 0h5.97m3.98 0h6m3.98 0h6m3.98 0h5.98m4 0h5.98m4 0h5.98m4 0h5.97m4 0h5.98m4 0h5.98m4 0h5.98m4 0h3l2.7-.73m2.56-2.57l.73-2.7v-2.98m0-3.97v-5.96m0-3.98v-5.95m0-3.97v-5.96m0-3.97v-5.96m0-3.96v-5.96m0-3.97v-5.94m0-3.98v-5.95m0-3.97v-5.96m0-3.97v-5.96m0-3.97v-5.96m0-3.97v-5.95m0-3.97v-5.96m0-3.98v-5.96m0-3.97v-5.97m0-3.97v-5.95m0-3.97v-5.95m0-3.97v-5.95m0-3.97v-5.96m0-3.97v-5.96m0-3.98v-5.95m0-3.97v-5.96m0-3.97v-5.96m0-3.96v-5.96m0-3.97v-5.94m0-3.98v-5.95m0-3.97v-5.96m0-3.97v-5.96m0-3.97v-5.96m0-3.97v-5.95m0-3.97v-5.96m0-3.98v-5.96m0-3.97v-5.97m0-3.97v-5.95m0-3.96v-5.96m0-3.97v-5.95m0-3.97v-5.96m0-3.97v-5.95m0-3.98v-5.95m0-3.97v-2.98" stroke="#5e5e5e" stroke-width="2" fill="none"/><path d="M191 837.53h-2v-1.03h2z" fill="#5e5e5e"/><path d="M780.85 500.68l-10.18-17.22-10.18 17.22M190 597.5V530c0-3.3 2.7-6 6-6h158c3.3 0 6-2.7 6-6v-44.02" stroke="#5e5e5e" stroke-width="2" fill="none"/><path d="M191 598.5h-2v-1.03h2z" fill="#5e5e5e"/><path d="M360 451.46l12.73 21.52h-25.46z" stroke="#5e5e5e" stroke-width="2" fill="#fff"/><path d="M540 597.5V530c0-3.3-2.7-6-6-6H366c-3.3 0-6-2.7-6-6v-44.02" stroke="#5e5e5e" stroke-width="2" fill="none"/><path d="M541 598.5h-2v-1.03h2z" fill="#5e5e5e"/><path d="M360 451.46l12.73 21.52h-25.46z" stroke="#5e5e5e" stroke-width="2" fill="#fff"/><path d="M1000 286c0-3.3 2.7-6 6-6h808c3.3 0 6 2.7 6 6v628c0 3.3-2.7 6-6 6h-808c-3.3 0-6-2.7-6-6z" stroke="#5e5e5e" stroke-width="3" fill-opacity="0"/><path d="M1210 326c0-3.3 2.7-6 6-6h248c3.3 0 6 2.7 6 6v116c0 3.3-2.7 6-6 6h-248c-3.3 0-6-2.7-6-6z" stroke="#5e5e5e" stroke-width="3" fill="#fff"/><path d="M1210 362.67h260m-260 42.66h260" stroke="#5e5e5e" stroke-width="3" fill="none"/><use xlink:href="#a" transform="matrix(1,0,0,1,1218,328) translate(89.34567901234568 17.944444444444443)"/><path d="M1500 326c0-3.3 2.7-6 6-6h268c3.3 0 6 2.7 6 6v228c0 3.3-2.7 6-6 6h-268c-3.3 0-6-2.7-6-6z" stroke="#5e5e5e" stroke-width="3" fill="#fff"/><path d="M1500 362.67h280m-280 71.83h280" stroke="#5e5e5e" stroke-width="3" fill="none"/><use xlink:href="#b" transform="matrix(1,0,0,1,1508,328) translate(98.04938271604938 17.944444444444443)"/><use xlink:href="#c" transform="matrix(1,0,0,1,1512,370.6666666666667) translate(0 19.111111111111114)"/><use xlink:href="#d" transform="matrix(1,0,0,1,1512,370.6666666666667) translate(85 19.111111111111114)"/><use xlink:href="#e" transform="matrix(1,0,0,1,1512,370.6666666666667) translate(97.34567901234568 19.111111111111114)"/><use xlink:href="#f" transform="matrix(1,0,0,1,1512,370.6666666666667) translate(0 45.777777777777786)"/><use xlink:href="#d" transform="matrix(1,0,0,1,1512,370.6666666666667) translate(74.01234567901234 45.777777777777786)"/><use xlink:href="#g" transform="matrix(1,0,0,1,1512,370.6666666666667) translate(86.35802469135803 45.777777777777786)"/><use xlink:href="#s" transform="matrix(1,0,0,1,1512,442.5) translate(0 19.44444444444445)"/><use xlink:href="#k" transform="matrix(1,0,0,1,1512,442.5) translate(0 46.111111111111114)"/><use xlink:href="#l" transform="matrix(1,0,0,1,1512,442.5) translate(24.691358024691358 46.111111111111114)"/><use xlink:href="#t" transform="matrix(1,0,0,1,1512,442.5) translate(75.18518518518519 46.111111111111114)"/><use xlink:href="#k" transform="matrix(1,0,0,1,1512,442.5) translate(0 72.77777777777779)"/><use xlink:href="#l" transform="matrix(1,0,0,1,1512,442.5) translate(24.691358024691358 72.77777777777779)"/><use xlink:href="#u" transform="matrix(1,0,0,1,1512,442.5) translate(75.18518518518519 72.77777777777779)"/><use xlink:href="#o" transform="matrix(1,0,0,1,1512,442.5) translate(0 99.44444444444446)"/><use xlink:href="#p" transform="matrix(1,0,0,1,1512,442.5) translate(24.691358024691358 99.44444444444446)"/><use xlink:href="#v" transform="matrix(1,0,0,1,1512,442.5) translate(99.99999999999999 99.44444444444446)"/><path d="M1365 626c0-3.3 2.7-6 6-6h298c3.3 0 6 2.7 6 6v223c0 3.3-2.7 6-6 6h-298c-3.3 0-6-2.7-6-6z" stroke="#5e5e5e" stroke-width="3" fill="#fff"/><path d="M1365 662.67h310m-310 42.66h310" stroke="#5e5e5e" stroke-width="3" fill="none"/><use xlink:href="#h" transform="matrix(1,0,0,1,1373,628) translate(96.53703703703704 17.944444444444443)"/><use xlink:href="#i" transform="matrix(1,0,0,1,1377,713.3333333333333) translate(0 18.111111111111107)"/><use xlink:href="#j" transform="matrix(1,0,0,1,1377,713.3333333333333) translate(0 44.77777777777777)"/><use xlink:href="#k" transform="matrix(1,0,0,1,1377,713.3333333333333) translate(0 71.44444444444444)"/><use xlink:href="#l" transform="matrix(1,0,0,1,1377,713.3333333333333) translate(24.691358024691358 71.44444444444444)"/><use xlink:href="#m" transform="matrix(1,0,0,1,1377,713.3333333333333) translate(75.18518518518519 71.44444444444444)"/><use xlink:href="#k" transform="matrix(1,0,0,1,1377,713.3333333333333) translate(0 98.11111111111111)"/><use xlink:href="#l" transform="matrix(1,0,0,1,1377,713.3333333333333) translate(24.691358024691358 98.11111111111111)"/><use xlink:href="#n" transform="matrix(1,0,0,1,1377,713.3333333333333) translate(75.18518518518519 98.11111111111111)"/><use xlink:href="#o" transform="matrix(1,0,0,1,1377,713.3333333333333) translate(0 124.77777777777777)"/><use xlink:href="#p" transform="matrix(1,0,0,1,1377,713.3333333333333) translate(24.691358024691358 124.77777777777777)"/><use xlink:href="#q" transform="matrix(1,0,0,1,1377,713.3333333333333) translate(99.99999999999999 124.77777777777777)"/><path d="M1020 626c0-3.3 2.7-6 6-6h288c3.3 0 6 2.7 6 6v223c0 3.3-2.7 6-6 6h-288c-3.3 0-6-2.7-6-6z" stroke="#5e5e5e" stroke-width="3" fill="#fff"/><path d="M1020 662.67h300m-300 42.66h300" stroke="#5e5e5e" stroke-width="3" fill="none"/><g><use xlink:href="#r" transform="matrix(1,0,0,1,1028,628) translate(86.5679012345679 17.944444444444443)"/></g><g><use xlink:href="#i" transform="matrix(1,0,0,1,1032,713.3333333333333) translate(0 18.111111111111107)"/><use xlink:href="#j" transform="matrix(1,0,0,1,1032,713.3333333333333) translate(0 44.77777777777777)"/><use xlink:href="#k" transform="matrix(1,0,0,1,1032,713.3333333333333) translate(0 71.44444444444444)"/><use xlink:href="#l" transform="matrix(1,0,0,1,1032,713.3333333333333) translate(24.691358024691358 71.44444444444444)"/><use xlink:href="#m" transform="matrix(1,0,0,1,1032,713.3333333333333) translate(75.18518518518519 71.44444444444444)"/><use xlink:href="#k" transform="matrix(1,0,0,1,1032,713.3333333333333) translate(0 98.11111111111111)"/><use xlink:href="#l" transform="matrix(1,0,0,1,1032,713.3333333333333) translate(24.691358024691358 98.11111111111111)"/><use xlink:href="#n" transform="matrix(1,0,0,1,1032,713.3333333333333) translate(75.18518518518519 98.11111111111111)"/><use xlink:href="#o" transform="matrix(1,0,0,1,1032,713.3333333333333) translate(0 124.77777777777777)"/><use xlink:href="#p" transform="matrix(1,0,0,1,1032,713.3333333333333) translate(24.691358024691358 124.77777777777777)"/><use xlink:href="#q" transform="matrix(1,0,0,1,1032,713.3333333333333) translate(99.99999999999999 124.77777777777777)"/></g><path d="M1678.32 737.5h3.7m4.9 0h7.38m4.92 0h3.7l2.7-.73m2.56-2.57l.73-2.7v-2.98m0-3.98v-5.96m0-3.98v-5.96m0-3.98v-5.97m0-3.98v-5.97m0-3.97v-5.97m0-3.96v-5.97m0-3.98v-5.97m0-3.98V649m0-4v-5.95m0-3.98v-5.96m0-3.97v-5.97m0-3.97v-5.98m0-3.97v-5.97m0-3.97v-5.96m0-3.98v-5.96m0-3.98v-5.96m0-3.98v-2.98M1695.68 727.32l-17.22 10.18 17.22 10.18" stroke="#5e5e5e" stroke-width="2" fill="none"/><path d="M1709.9 562.53h-2v-1.03h2z" fill="#5e5e5e"/><path d="M1170 617.5V586c0-3.3 2.7-6 6-6h158c3.3 0 6-2.7 6-6V473.98" stroke="#5e5e5e" stroke-width="2" fill="none"/><path d="M1171 618.5h-2v-1.03h2z" fill="#5e5e5e"/><path d="M1340 451.46l12.73 21.52h-25.46z" stroke="#5e5e5e" stroke-width="2" fill="#fff"/><path d="M1520 617.5V586c0-3.3-2.7-6-6-6h-168c-3.3 0-6-2.7-6-6V473.98" stroke="#5e5e5e" stroke-width="2" fill="none"/><path d="M1521 618.5h-2v-1.03h2z" fill="#5e5e5e"/><path d="M1340 451.46l12.73 21.52h-25.46z" stroke="#5e5e5e" stroke-width="2" fill="#fff"/><path d="M20 1066c0-3.3 2.7-6 6-6h808c3.3 0 6 2.7 6 6v628c0 3.3-2.7 6-6 6H26c-3.3 0-6-2.7-6-6z" stroke="#5e5e5e" stroke-width="3" fill-opacity="0"/><path d="M180 1106c0-3.3 2.7-6 6-6h278c3.3 0 6 2.7 6 6v196c0 3.3-2.7 6-6 6H186c-3.3 0-6-2.7-6-6z" stroke="#5e5e5e" stroke-width="3" fill="#fff"/><path d="M180 1142.67h290m-290 42.66h290" stroke="#5e5e5e" stroke-width="3" fill="none"/><g><use xlink:href="#a" transform="matrix(1,0,0,1,188,1108) translate(104.34567901234568 17.944444444444443)"/></g><g><use xlink:href="#w" transform="matrix(1,0,0,1,192,1193.3333333333335) translate(0 17.94444444444445)"/><use xlink:href="#k" transform="matrix(1,0,0,1,192,1193.3333333333335) translate(0 44.611111111111114)"/><use xlink:href="#l" transform="matrix(1,0,0,1,192,1193.3333333333335) translate(24.691358024691358 44.611111111111114)"/><use xlink:href="#m" transform="matrix(1,0,0,1,192,1193.3333333333335) translate(75.18518518518519 44.611111111111114)"/><use xlink:href="#k" transform="matrix(1,0,0,1,192,1193.3333333333335) translate(0 71.27777777777779)"/><use xlink:href="#l" transform="matrix(1,0,0,1,192,1193.3333333333335) translate(24.691358024691358 71.27777777777779)"/><use xlink:href="#n" transform="matrix(1,0,0,1,192,1193.3333333333335) translate(75.18518518518519 71.27777777777779)"/><use xlink:href="#o" transform="matrix(1,0,0,1,192,1193.3333333333335) translate(0 97.94444444444446)"/><use xlink:href="#p" transform="matrix(1,0,0,1,192,1193.3333333333335) translate(24.691358024691358 97.94444444444446)"/><use xlink:href="#q" transform="matrix(1,0,0,1,192,1193.3333333333335) translate(99.99999999999999 97.94444444444446)"/></g><path d="M549 1106c0-3.3 2.7-6 6-6h268c3.3 0 6 2.7 6 6v148c0 3.3-2.7 6-6 6H555c-3.3 0-6-2.7-6-6z" stroke="#5e5e5e" stroke-width="3" fill="#fff"/><path d="M549 1142.67h280m-280 71.83h280" stroke="#5e5e5e" stroke-width="3" fill="none"/><g><use xlink:href="#b" transform="matrix(1,0,0,1,557,1108) translate(98.04938271604938 17.944444444444443)"/></g><g><use xlink:href="#c" transform="matrix(1,0,0,1,561,1150.6666666666667) translate(0 19.111111111111114)"/><use xlink:href="#d" transform="matrix(1,0,0,1,561,1150.6666666666667) translate(85 19.111111111111114)"/><use xlink:href="#e" transform="matrix(1,0,0,1,561,1150.6666666666667) translate(97.34567901234568 19.111111111111114)"/><use xlink:href="#f" transform="matrix(1,0,0,1,561,1150.6666666666667) translate(0 45.777777777777786)"/><use xlink:href="#d" transform="matrix(1,0,0,1,561,1150.6666666666667) translate(74.01234567901234 45.777777777777786)"/><use xlink:href="#g" transform="matrix(1,0,0,1,561,1150.6666666666667) translate(86.35802469135803 45.777777777777786)"/></g><path d="M385 1466c0-3.3 2.7-6 6-6h298c3.3 0 6 2.7 6 6v116c0 3.3-2.7 6-6 6H391c-3.3 0-6-2.7-6-6z" stroke="#5e5e5e" stroke-width="3" fill="#fff"/><path d="M385 1502.67h310m-310 42.66h310" stroke="#5e5e5e" stroke-width="3" fill="none"/><g><use xlink:href="#h" transform="matrix(1,0,0,1,393,1468) translate(96.53703703703704 17.944444444444443)"/></g><g><use xlink:href="#x" transform="matrix(1,0,0,1,397,1553.3333333333335) translate(0 17.944444444444443)"/></g><path d="M40 1466c0-3.3 2.7-6 6-6h288c3.3 0 6 2.7 6 6v116c0 3.3-2.7 6-6 6H46c-3.3 0-6-2.7-6-6z" stroke="#5e5e5e" stroke-width="3" fill="#fff"/><path d="M40 1502.67h300m-300 42.66h300" stroke="#5e5e5e" stroke-width="3" fill="none"/><g><use xlink:href="#r" transform="matrix(1,0,0,1,48,1468) translate(86.5679012345679 17.944444444444443)"/></g><g><use xlink:href="#x" transform="matrix(1,0,0,1,52,1553.3333333333335) translate(0 17.944444444444443)"/></g><path d="M472.5 1168h3.14m4.18 0h6.27m4.17 0h6.28m4.18 0H507m4.18 0h6.27m4.2 0h6.26m4.2 0h6.26m4.2 0h3.12" stroke="#5e5e5e" stroke-width="2" fill="none"/><path d="M472.53 1169h-1.03v-2h1.03z" fill="#5e5e5e"/><path d="M528.32 1178.18l17.22-10.18-17.22-10.18M190 1457.5V1390c0-3.3 2.7-6 6-6h123c3.3 0 6-2.7 6-6v-44.02" stroke="#5e5e5e" stroke-width="2" fill="none"/><path d="M191 1458.5h-2v-1.03h2z" fill="#5e5e5e"/><path d="M325 1311.46l12.73 21.52h-25.46z" stroke="#5e5e5e" stroke-width="2" fill="#fff"/><path d="M540 1457.5V1390c0-3.3-2.7-6-6-6H331c-3.3 0-6-2.7-6-6v-44.02" stroke="#5e5e5e" stroke-width="2" fill="none"/><path d="M541 1458.5h-2v-1.03h2z" fill="#5e5e5e"/><path d="M325 1311.46l12.73 21.52h-25.46z" stroke="#5e5e5e" stroke-width="2" fill="#fff"/><path d="M431 1040h-2v-2.94h2zm0-6.86h-2v-5.87h2zm0-9.8h-2v-5.86h2zm0-9.78h-2v-5.87h2zm0-9.8h-2v-5.87h2zm0-39.76h-2v-5.27h2zm0-9.2h-2v-5.86h2zm0-9.78h-2v-5.87h2zm0-9.8h-2v-5.87h2zm0-9.78h-2v-2.94h2z" fill="#5e5e5e"/><path d="M431 922.53h-2v-1.03h2zM430 1055.26l-4.64-14.26h9.28z" fill="#5e5e5e"/><path d="M430 1058.5l-6-18.5h12zm-3.26-16.5l3.26 10.03 3.26-10.03z" fill="#5e5e5e"/><g><use xlink:href="#y" transform="matrix(1,0,0,1,372.3703703703704,964) translate(0 21.333333333333332)"/><use xlink:href="#z" transform="matrix(1,0,0,1,372.3703703703704,964) translate(81.25925925925925 21.333333333333332)"/></g><path d="M842.5 600h2.95m3.92 0h5.9m3.93 0h5.9m3.92 0h5.9m3.92 0h5.9m3.92 0h5.9m3.92 0h5.9m3.92 0h5.9m3.92 0h5.9m3.93 0h5.9m3.92 0h5.9m3.92 0h5.88m3.93 0h5.9m3.93 0h5.9m3.92 0H980" stroke="#5e5e5e" stroke-width="2" fill="none"/><path d="M842.53 601h-1.03v-2h1.03z" fill="#5e5e5e"/><path d="M995.26 600L981 604.64v-9.28z" stroke="#5e5e5e" stroke-width="2" fill="#5e5e5e"/><g><use xlink:href="#y" transform="matrix(1,0,0,1,862.3703703703703,564) translate(0 21.333333333333332)"/><use xlink:href="#A" transform="matrix(1,0,0,1,862.3703703703703,564) translate(81.25925925925925 21.333333333333332)"/></g><defs><path fill="#333" d="M185-189c-5-48-123-54-124 2 14 75 158 14 163 119 3 78-121 87-175 55-17-10-28-26-33-46l33-7c5 56 141 63 141-1 0-78-155-14-162-118-5-82 145-84 179-34 5 7 8 16 11 25" id="B"/><path fill="#333" d="M100-194c63 0 86 42 84 106H49c0 40 14 67 53 68 26 1 43-12 49-29l28 8c-11 28-37 45-77 45C44 4 14-33 15-96c1-61 26-98 85-98zm52 81c6-60-76-77-97-28-3 7-6 17-6 28h103" id="C"/><path fill="#333" d="M114-163C36-179 61-72 57 0H25l-1-190h30c1 12-1 29 2 39 6-27 23-49 58-41v29" id="D"/><path fill="#333" d="M108 0H70L1-190h34L89-25l56-165h34" id="E"/><g id="a"><use transform="matrix(0.06172839506172839,0,0,0.06172839506172839,0,0)" xlink:href="#B"/><use transform="matrix(0.06172839506172839,0,0,0.06172839506172839,14.814814814814813,0)" xlink:href="#C"/><use transform="matrix(0.06172839506172839,0,0,0.06172839506172839,27.160493827160494,0)" xlink:href="#D"/><use transform="matrix(0.06172839506172839,0,0,0.06172839506172839,34.50617283950617,0)" xlink:href="#E"/><use transform="matrix(0.06172839506172839,0,0,0.06172839506172839,45.61728395061728,0)" xlink:href="#C"/><use transform="matrix(0.06172839506172839,0,0,0.06172839506172839,57.962962962962955,0)" xlink:href="#D"/></g><path fill="#333" d="M30-248c87 1 191-15 191 75 0 78-77 80-158 76V0H30v-248zm33 125c57 0 124 11 124-50 0-59-68-47-124-48v98" id="F"/><path fill="#333" d="M141-36C126-15 110 5 73 4 37 3 15-17 15-53c-1-64 63-63 125-63 3-35-9-54-41-54-24 1-41 7-42 31l-33-3c5-37 33-52 76-52 45 0 72 20 72 64v82c-1 20 7 32 28 27v20c-31 9-61-2-59-35zM48-53c0 20 12 33 32 33 41-3 63-29 60-74-43 2-92-5-92 41" id="G"/><path fill="#333" d="M96-169c-40 0-48 33-48 73s9 75 48 75c24 0 41-14 43-38l32 2c-6 37-31 61-74 61-59 0-76-41-82-99-10-93 101-131 147-64 4 7 5 14 7 22l-32 3c-4-21-16-35-41-35" id="H"/><path fill="#333" d="M143 0L79-87 56-68V0H24v-261h32v163l83-92h37l-77 82L181 0h-38" id="I"/><path fill="#333" d="M59-47c-2 24 18 29 38 22v24C64 9 27 4 27-40v-127H5v-23h24l9-43h21v43h35v23H59v120" id="J"/><g id="b"><use transform="matrix(0.06172839506172839,0,0,0.06172839506172839,0,0)" xlink:href="#F"/><use transform="matrix(0.06172839506172839,0,0,0.06172839506172839,14.814814814814813,0)" xlink:href="#G"/><use transform="matrix(0.06172839506172839,0,0,0.06172839506172839,27.160493827160494,0)" xlink:href="#H"/><use transform="matrix(0.06172839506172839,0,0,0.06172839506172839,38.27160493827161,0)" xlink:href="#I"/><use transform="matrix(0.06172839506172839,0,0,0.06172839506172839,49.38271604938272,0)" xlink:href="#C"/><use transform="matrix(0.06172839506172839,0,0,0.06172839506172839,61.7283950617284,0)" xlink:href="#J"/></g><path fill="#333" d="M24-231v-30h32v30H24zM24 0v-190h32V0H24" id="K"/><g id="c"><use transform="matrix(0.06172839506172839,0,0,0.06172839506172839,0,0)" xlink:href="#D"/><use transform="matrix(0.06172839506172839,0,0,0.06172839506172839,7.345679012345679,0)" xlink:href="#C"/><use transform="matrix(0.06172839506172839,0,0,0.06172839506172839,19.691358024691358,0)" xlink:href="#H"/><use transform="matrix(0.06172839506172839,0,0,0.06172839506172839,30.80246913580247,0)" xlink:href="#C"/><use transform="matrix(0.06172839506172839,0,0,0.06172839506172839,43.148148148148145,0)" xlink:href="#K"/><use transform="matrix(0.06172839506172839,0,0,0.06172839506172839,48.02469135802469,0)" xlink:href="#E"/><use transform="matrix(0.06172839506172839,0,0,0.06172839506172839,59.1358024691358,0)" xlink:href="#C"/><use transform="matrix(0.06172839506172839,0,0,0.06172839506172839,71.48148148148148,0)" xlink:href="#D"/></g><path fill="#333" d="M33-154v-36h34v36H33zM33 0v-36h34V0H33" id="L"/><use transform="matrix(0.06172839506172839,0,0,0.06172839506172839,0,0)" xlink:href="#L" id="d"/><path fill="#333" d="M190 0L58-211 59 0H30v-248h39L202-35l-2-213h31V0h-41" id="M"/><path fill="#333" d="M100-194c62-1 85 37 85 99 1 63-27 99-86 99S16-35 15-95c0-66 28-99 85-99zM99-20c44 1 53-31 53-75 0-43-8-75-51-75s-53 32-53 75 10 74 51 75" id="N"/><path fill="#333" d="M85-194c31 0 48 13 60 33l-1-100h32l1 261h-30c-2-10 0-23-3-31C134-8 116 4 85 4 32 4 16-35 15-94c0-66 23-100 70-100zm9 24c-40 0-46 34-46 75 0 40 6 74 45 74 42 0 51-32 51-76 0-42-9-74-50-73" id="O"/><g id="e"><use transform="matrix(0.06172839506172839,0,0,0.06172839506172839,0,0)" xlink:href="#M"/><use transform="matrix(0.06172839506172839,0,0,0.06172839506172839,15.987654320987653,0)" xlink:href="#N"/><use transform="matrix(0.06172839506172839,0,0,0.06172839506172839,28.333333333333332,0)" xlink:href="#O"/><use transform="matrix(0.06172839506172839,0,0,0.06172839506172839,40.67901234567901,0)" xlink:href="#C"/></g><path fill="#333" d="M135-143c-3-34-86-38-87 0 15 53 115 12 119 90S17 21 10-45l28-5c4 36 97 45 98 0-10-56-113-15-118-90-4-57 82-63 122-42 12 7 21 19 24 35" id="P"/><path fill="#333" d="M117-194c89-4 53 116 60 194h-32v-121c0-31-8-49-39-48C34-167 62-67 57 0H25l-1-190h30c1 10-1 24 2 32 11-22 29-35 61-36" id="Q"/><g id="f"><use transform="matrix(0.06172839506172839,0,0,0.06172839506172839,0,0)" xlink:href="#P"/><use transform="matrix(0.06172839506172839,0,0,0.06172839506172839,11.11111111111111,0)" xlink:href="#C"/><use transform="matrix(0.06172839506172839,0,0,0.06172839506172839,23.45679012345679,0)" xlink:href="#Q"/><use transform="matrix(0.06172839506172839,0,0,0.06172839506172839,35.80246913580247,0)" xlink:href="#O"/><use transform="matrix(0.06172839506172839,0,0,0.06172839506172839,48.148148148148145,0)" xlink:href="#C"/><use transform="matrix(0.06172839506172839,0,0,0.06172839506172839,60.49382716049382,0)" xlink:href="#D"/></g><g id="g"><use transform="matrix(0.06172839506172839,0,0,0.06172839506172839,0,0)" xlink:href="#M"/><use transform="matrix(0.06172839506172839,0,0,0.06172839506172839,15.987654320987653,0)" xlink:href="#N"/><use transform="matrix(0.06172839506172839,0,0,0.06172839506172839,28.333333333333332,0)" xlink:href="#O"/><use transform="matrix(0.06172839506172839,0,0,0.06172839506172839,40.67901234567901,0)" xlink:href="#C"/></g><path fill="#333" d="M63-220v92h138v28H63V0H30v-248h175v28H63" id="R"/><path fill="#333" d="M24 0v-261h32V0H24" id="S"/><g id="h"><use transform="matrix(0.06172839506172839,0,0,0.06172839506172839,0,0)" xlink:href="#R"/><use transform="matrix(0.06172839506172839,0,0,0.06172839506172839,13.518518518518517,0)" xlink:href="#K"/><use transform="matrix(0.06172839506172839,0,0,0.06172839506172839,18.39506172839506,0)" xlink:href="#S"/><use transform="matrix(0.06172839506172839,0,0,0.06172839506172839,23.2716049382716,0)" xlink:href="#C"/><use transform="matrix(0.06172839506172839,0,0,0.06172839506172839,35.61728395061728,0)" xlink:href="#B"/><use transform="matrix(0.06172839506172839,0,0,0.06172839506172839,50.43209876543209,0)" xlink:href="#C"/><use transform="matrix(0.06172839506172839,0,0,0.06172839506172839,62.777777777777764,0)" xlink:href="#D"/><use transform="matrix(0.06172839506172839,0,0,0.06172839506172839,70.12345679012344,0)" xlink:href="#E"/><use transform="matrix(0.06172839506172839,0,0,0.06172839506172839,81.23456790123456,0)" xlink:href="#C"/><use transform="matrix(0.06172839506172839,0,0,0.06172839506172839,93.58024691358024,0)" xlink:href="#D"/></g><path fill="#333" d="M115-194c55 1 70 41 70 98S169 2 115 4C84 4 66-9 55-30l1 105H24l-1-265h31l2 30c10-21 28-34 59-34zm-8 174c40 0 45-34 45-75s-6-73-45-74c-42 0-51 32-51 76 0 43 10 73 51 73" id="T"/><path fill="#333" d="M87 75C49 33 22-17 22-94c0-76 28-126 65-167h31c-38 41-64 92-64 168S80 34 118 75H87" id="U"/><path fill="#333" d="M33-261c38 41 65 92 65 168S71 34 33 75H2C39 34 66-17 66-93S39-220 2-261h31" id="V"/><g id="i"><use transform="matrix(0.06172839506172839,0,0,0.06172839506172839,0,0)" xlink:href="#T"/><use transform="matrix(0.06172839506172839,0,0,0.06172839506172839,12.345679012345679,0)" xlink:href="#D"/><use transform="matrix(0.06172839506172839,0,0,0.06172839506172839,19.691358024691358,0)" xlink:href="#N"/><use transform="matrix(0.06172839506172839,0,0,0.06172839506172839,32.03703703703704,0)" xlink:href="#H"/><use transform="matrix(0.06172839506172839,0,0,0.06172839506172839,43.14814814814815,0)" xlink:href="#C"/><use transform="matrix(0.06172839506172839,0,0,0.06172839506172839,55.49382716049383,0)" xlink:href="#P"/><use transform="matrix(0.06172839506172839,0,0,0.06172839506172839,66.60493827160494,0)" xlink:href="#P"/><use transform="matrix(0.06172839506172839,0,0,0.06172839506172839,77.71604938271605,0)" xlink:href="#U"/><use transform="matrix(0.06172839506172839,0,0,0.06172839506172839,85.06172839506173,0)" xlink:href="#V"/></g><path fill="#333" d="M39-94c74 12-11 154 75 146v23c-44 4-70-10-70-52C44-23 55-84 6-82v-22c81 4-7-162 84-157h24v23c-82-15-2 131-75 144" id="W"/><g id="j"><use transform="matrix(0.06172839506172839,0,0,0.06172839506172839,0,0)" xlink:href="#G"/><use transform="matrix(0.06172839506172839,0,0,0.06172839506172839,12.345679012345679,0)" xlink:href="#H"/><use transform="matrix(0.06172839506172839,0,0,0.06172839506172839,23.45679012345679,0)" xlink:href="#H"/><use transform="matrix(0.06172839506172839,0,0,0.06172839506172839,34.5679012345679,0)" xlink:href="#C"/><use transform="matrix(0.06172839506172839,0,0,0.06172839506172839,46.913580246913575,0)" xlink:href="#T"/><use transform="matrix(0.06172839506172839,0,0,0.06172839506172839,59.25925925925925,0)" xlink:href="#J"/><use transform="matrix(0.06172839506172839,0,0,0.06172839506172839,65.43209876543209,0)" xlink:href="#U"/><use transform="matrix(0.06172839506172839,0,0,0.06172839506172839,72.77777777777777,0)" xlink:href="#T"/><use transform="matrix(0.06172839506172839,0,0,0.06172839506172839,85.12345679012346,0)" xlink:href="#L"/><use transform="matrix(0.06172839506172839,0,0,0.06172839506172839,91.29629629629629,0)" xlink:href="#F"/><use transform="matrix(0.06172839506172839,0,0,0.06172839506172839,106.1111111111111,0)" xlink:href="#G"/><use transform="matrix(0.06172839506172839,0,0,0.06172839506172839,118.45679012345678,0)" xlink:href="#H"/><use transform="matrix(0.06172839506172839,0,0,0.06172839506172839,129.5679012345679,0)" xlink:href="#I"/><use transform="matrix(0.06172839506172839,0,0,0.06172839506172839,140.679012345679,0)" xlink:href="#C"/><use transform="matrix(0.06172839506172839,0,0,0.06172839506172839,153.02469135802468,0)" xlink:href="#J"/><use transform="matrix(0.06172839506172839,0,0,0.06172839506172839,159.19753086419752,0)" xlink:href="#V"/><use transform="matrix(0.06172839506172839,0,0,0.06172839506172839,166.5432098765432,0)" xlink:href="#W"/></g><g id="l"><use transform="matrix(0.06172839506172839,0,0,0.06172839506172839,0,0)" xlink:href="#H"/><use transform="matrix(0.06172839506172839,0,0,0.06172839506172839,11.11111111111111,0)" xlink:href="#G"/><use transform="matrix(0.06172839506172839,0,0,0.06172839506172839,23.45679012345679,0)" xlink:href="#S"/><use transform="matrix(0.06172839506172839,0,0,0.06172839506172839,28.333333333333336,0)" xlink:href="#S"/><use transform="matrix(0.06172839506172839,0,0,0.06172839506172839,33.20987654320988,0)" xlink:href="#P"/></g><path fill="#333" d="M106-169C34-169 62-67 57 0H25v-261h32l-1 103c12-21 28-36 61-36 89 0 53 116 60 194h-32v-121c2-32-8-49-39-48" id="X"/><path fill="#333" d="M33 0v-38h34V0H33" id="Y"/><path fill="#333" d="M68-36c1 33-1 63-14 82H32c9-13 17-26 17-46H33v-36h35zM33-154v-36h35v36H33" id="Z"/><g id="m"><use transform="matrix(0.06172839506172839,0,0,0.06172839506172839,0,0)" xlink:href="#J"/><use transform="matrix(0.06172839506172839,0,0,0.06172839506172839,6.172839506172839,0)" xlink:href="#X"/><use transform="matrix(0.06172839506172839,0,0,0.06172839506172839,18.51851851851852,0)" xlink:href="#K"/><use transform="matrix(0.06172839506172839,0,0,0.06172839506172839,23.395061728395063,0)" xlink:href="#P"/><use transform="matrix(0.06172839506172839,0,0,0.06172839506172839,34.50617283950618,0)" xlink:href="#Y"/><use transform="matrix(0.06172839506172839,0,0,0.06172839506172839,40.67901234567902,0)" xlink:href="#P"/><use transform="matrix(0.06172839506172839,0,0,0.06172839506172839,51.79012345679013,0)" xlink:href="#C"/><use transform="matrix(0.06172839506172839,0,0,0.06172839506172839,64.13580246913581,0)" xlink:href="#Q"/><use transform="matrix(0.06172839506172839,0,0,0.06172839506172839,76.4814814814815,0)" xlink:href="#O"/><use transform="matrix(0.06172839506172839,0,0,0.06172839506172839,88.82716049382718,0)" xlink:href="#U"/><use transform="matrix(0.06172839506172839,0,0,0.06172839506172839,96.17283950617286,0)" xlink:href="#T"/><use transform="matrix(0.06172839506172839,0,0,0.06172839506172839,108.51851851851855,0)" xlink:href="#V"/><use transform="matrix(0.06172839506172839,0,0,0.06172839506172839,115.86419753086423,0)" xlink:href="#Z"/></g><g id="n"><use transform="matrix(0.06172839506172839,0,0,0.06172839506172839,0,0)" xlink:href="#J"/><use transform="matrix(0.06172839506172839,0,0,0.06172839506172839,6.172839506172839,0)" xlink:href="#X"/><use transform="matrix(0.06172839506172839,0,0,0.06172839506172839,18.51851851851852,0)" xlink:href="#K"/><use transform="matrix(0.06172839506172839,0,0,0.06172839506172839,23.395061728395063,0)" xlink:href="#P"/><use transform="matrix(0.06172839506172839,0,0,0.06172839506172839,34.50617283950618,0)" xlink:href="#Y"/><use transform="matrix(0.06172839506172839,0,0,0.06172839506172839,40.67901234567902,0)" xlink:href="#T"/><use transform="matrix(0.06172839506172839,0,0,0.06172839506172839,53.0246913580247,0)" xlink:href="#D"/><use transform="matrix(0.06172839506172839,0,0,0.06172839506172839,60.370370370370374,0)" xlink:href="#N"/><use transform="matrix(0.06172839506172839,0,0,0.06172839506172839,72.71604938271605,0)" xlink:href="#H"/><use transform="matrix(0.06172839506172839,0,0,0.06172839506172839,83.82716049382717,0)" xlink:href="#C"/><use transform="matrix(0.06172839506172839,0,0,0.06172839506172839,96.17283950617285,0)" xlink:href="#P"/><use transform="matrix(0.06172839506172839,0,0,0.06172839506172839,107.28395061728396,0)" xlink:href="#P"/><use transform="matrix(0.06172839506172839,0,0,0.06172839506172839,118.39506172839508,0)" xlink:href="#U"/><use transform="matrix(0.06172839506172839,0,0,0.06172839506172839,125.74074074074076,0)" xlink:href="#V"/><use transform="matrix(0.06172839506172839,0,0,0.06172839506172839,133.08641975308643,0)" xlink:href="#Z"/></g><g id="p"><use transform="matrix(0.06172839506172839,0,0,0.06172839506172839,0,0)" xlink:href="#G"/><use transform="matrix(0.06172839506172839,0,0,0.06172839506172839,12.345679012345679,0)" xlink:href="#H"/><use transform="matrix(0.06172839506172839,0,0,0.06172839506172839,23.45679012345679,0)" xlink:href="#H"/><use transform="matrix(0.06172839506172839,0,0,0.06172839506172839,34.5679012345679,0)" xlink:href="#C"/><use transform="matrix(0.06172839506172839,0,0,0.06172839506172839,46.913580246913575,0)" xlink:href="#P"/><use transform="matrix(0.06172839506172839,0,0,0.06172839506172839,58.02469135802468,0)" xlink:href="#P"/></g><path fill="#333" d="M76-40C78 24 84 88 6 75V52C86 64 9-79 80-94c-40-6-34-59-34-106 1-29-11-41-40-38v-23c44-4 70 10 70 52 0 47-12 108 38 105v22c-26 1-39 14-38 42" id="aa"/><g id="q"><use transform="matrix(0.06172839506172839,0,0,0.06172839506172839,0,0)" xlink:href="#F"/><use transform="matrix(0.06172839506172839,0,0,0.06172839506172839,14.814814814814813,0)" xlink:href="#G"/><use transform="matrix(0.06172839506172839,0,0,0.06172839506172839,27.160493827160494,0)" xlink:href="#H"/><use transform="matrix(0.06172839506172839,0,0,0.06172839506172839,38.27160493827161,0)" xlink:href="#I"/><use transform="matrix(0.06172839506172839,0,0,0.06172839506172839,49.38271604938272,0)" xlink:href="#C"/><use transform="matrix(0.06172839506172839,0,0,0.06172839506172839,61.7283950617284,0)" xlink:href="#J"/><use transform="matrix(0.06172839506172839,0,0,0.06172839506172839,67.90123456790124,0)" xlink:href="#Y"/><use transform="matrix(0.06172839506172839,0,0,0.06172839506172839,74.07407407407408,0)" xlink:href="#D"/><use transform="matrix(0.06172839506172839,0,0,0.06172839506172839,81.41975308641976,0)" xlink:href="#C"/><use transform="matrix(0.06172839506172839,0,0,0.06172839506172839,93.76543209876544,0)" xlink:href="#H"/><use transform="matrix(0.06172839506172839,0,0,0.06172839506172839,104.87654320987656,0)" xlink:href="#C"/><use transform="matrix(0.06172839506172839,0,0,0.06172839506172839,117.22222222222224,0)" xlink:href="#K"/><use transform="matrix(0.06172839506172839,0,0,0.06172839506172839,122.09876543209879,0)" xlink:href="#E"/><use transform="matrix(0.06172839506172839,0,0,0.06172839506172839,133.2098765432099,0)" xlink:href="#C"/><use transform="matrix(0.06172839506172839,0,0,0.06172839506172839,145.55555555555557,0)" xlink:href="#D"/><use transform="matrix(0.06172839506172839,0,0,0.06172839506172839,152.90123456790124,0)" xlink:href="#aa"/></g><g id="r"><use transform="matrix(0.06172839506172839,0,0,0.06172839506172839,0,0)" xlink:href="#F"/><use transform="matrix(0.06172839506172839,0,0,0.06172839506172839,14.814814814814813,0)" xlink:href="#D"/><use transform="matrix(0.06172839506172839,0,0,0.06172839506172839,22.160493827160494,0)" xlink:href="#K"/><use transform="matrix(0.06172839506172839,0,0,0.06172839506172839,27.037037037037038,0)" xlink:href="#Q"/><use transform="matrix(0.06172839506172839,0,0,0.06172839506172839,39.382716049382715,0)" xlink:href="#J"/><use transform="matrix(0.06172839506172839,0,0,0.06172839506172839,45.55555555555556,0)" xlink:href="#B"/><use transform="matrix(0.06172839506172839,0,0,0.06172839506172839,60.37037037037037,0)" xlink:href="#C"/><use transform="matrix(0.06172839506172839,0,0,0.06172839506172839,72.71604938271605,0)" xlink:href="#D"/><use transform="matrix(0.06172839506172839,0,0,0.06172839506172839,80.06172839506173,0)" xlink:href="#E"/><use transform="matrix(0.06172839506172839,0,0,0.06172839506172839,91.17283950617285,0)" xlink:href="#C"/><use transform="matrix(0.06172839506172839,0,0,0.06172839506172839,103.51851851851853,0)" xlink:href="#D"/></g><path fill="#333" d="M101-234c-31-9-42 10-38 44h38v23H63V0H32v-167H5v-23h27c-7-52 17-82 69-68v24" id="ab"/><g id="s"><use transform="matrix(0.06172839506172839,0,0,0.06172839506172839,0,0)" xlink:href="#G"/><use transform="matrix(0.06172839506172839,0,0,0.06172839506172839,12.345679012345679,0)" xlink:href="#H"/><use transform="matrix(0.06172839506172839,0,0,0.06172839506172839,23.45679012345679,0)" xlink:href="#H"/><use transform="matrix(0.06172839506172839,0,0,0.06172839506172839,34.5679012345679,0)" xlink:href="#C"/><use transform="matrix(0.06172839506172839,0,0,0.06172839506172839,46.913580246913575,0)" xlink:href="#T"/><use transform="matrix(0.06172839506172839,0,0,0.06172839506172839,59.25925925925925,0)" xlink:href="#J"/><use transform="matrix(0.06172839506172839,0,0,0.06172839506172839,65.43209876543209,0)" xlink:href="#U"/><use transform="matrix(0.06172839506172839,0,0,0.06172839506172839,72.77777777777777,0)" xlink:href="#ab"/><use transform="matrix(0.06172839506172839,0,0,0.06172839506172839,78.9506172839506,0)" xlink:href="#L"/><use transform="matrix(0.06172839506172839,0,0,0.06172839506172839,85.12345679012344,0)" xlink:href="#R"/><use transform="matrix(0.06172839506172839,0,0,0.06172839506172839,98.64197530864196,0)" xlink:href="#K"/><use transform="matrix(0.06172839506172839,0,0,0.06172839506172839,103.5185185185185,0)" xlink:href="#S"/><use transform="matrix(0.06172839506172839,0,0,0.06172839506172839,108.39506172839505,0)" xlink:href="#C"/><use transform="matrix(0.06172839506172839,0,0,0.06172839506172839,120.74074074074073,0)" xlink:href="#B"/><use transform="matrix(0.06172839506172839,0,0,0.06172839506172839,135.55555555555554,0)" xlink:href="#C"/><use transform="matrix(0.06172839506172839,0,0,0.06172839506172839,147.9012345679012,0)" xlink:href="#D"/><use transform="matrix(0.06172839506172839,0,0,0.06172839506172839,155.24691358024688,0)" xlink:href="#E"/><use transform="matrix(0.06172839506172839,0,0,0.06172839506172839,166.358024691358,0)" xlink:href="#C"/><use transform="matrix(0.06172839506172839,0,0,0.06172839506172839,178.70370370370367,0)" xlink:href="#D"/><use transform="matrix(0.06172839506172839,0,0,0.06172839506172839,186.04938271604934,0)" xlink:href="#V"/><use transform="matrix(0.06172839506172839,0,0,0.06172839506172839,193.395061728395,0)" xlink:href="#W"/></g><g id="t"><use transform="matrix(0.06172839506172839,0,0,0.06172839506172839,0,0)" xlink:href="#ab"/><use transform="matrix(0.06172839506172839,0,0,0.06172839506172839,6.172839506172839,0)" xlink:href="#Y"/><use transform="matrix(0.06172839506172839,0,0,0.06172839506172839,12.345679012345679,0)" xlink:href="#P"/><use transform="matrix(0.06172839506172839,0,0,0.06172839506172839,23.45679012345679,0)" xlink:href="#C"/><use transform="matrix(0.06172839506172839,0,0,0.06172839506172839,35.80246913580247,0)" xlink:href="#Q"/><use transform="matrix(0.06172839506172839,0,0,0.06172839506172839,48.148148148148145,0)" xlink:href="#O"/><use transform="matrix(0.06172839506172839,0,0,0.06172839506172839,60.49382716049382,0)" xlink:href="#U"/><use transform="matrix(0.06172839506172839,0,0,0.06172839506172839,67.8395061728395,0)" xlink:href="#T"/><use transform="matrix(0.06172839506172839,0,0,0.06172839506172839,80.18518518518519,0)" xlink:href="#V"/><use transform="matrix(0.06172839506172839,0,0,0.06172839506172839,87.53086419753087,0)" xlink:href="#Z"/></g><g id="u"><use transform="matrix(0.06172839506172839,0,0,0.06172839506172839,0,0)" xlink:href="#ab"/><use transform="matrix(0.06172839506172839,0,0,0.06172839506172839,6.172839506172839,0)" xlink:href="#Y"/><use transform="matrix(0.06172839506172839,0,0,0.06172839506172839,12.345679012345679,0)" xlink:href="#T"/><use transform="matrix(0.06172839506172839,0,0,0.06172839506172839,24.691358024691358,0)" xlink:href="#D"/><use transform="matrix(0.06172839506172839,0,0,0.06172839506172839,32.03703703703704,0)" xlink:href="#N"/><use transform="matrix(0.06172839506172839,0,0,0.06172839506172839,44.382716049382715,0)" xlink:href="#H"/><use transform="matrix(0.06172839506172839,0,0,0.06172839506172839,55.49382716049382,0)" xlink:href="#C"/><use transform="matrix(0.06172839506172839,0,0,0.06172839506172839,67.8395061728395,0)" xlink:href="#P"/><use transform="matrix(0.06172839506172839,0,0,0.06172839506172839,78.95061728395062,0)" xlink:href="#P"/><use transform="matrix(0.06172839506172839,0,0,0.06172839506172839,90.06172839506173,0)" xlink:href="#U"/><use transform="matrix(0.06172839506172839,0,0,0.06172839506172839,97.40740740740742,0)" xlink:href="#V"/><use transform="matrix(0.06172839506172839,0,0,0.06172839506172839,104.7530864197531,0)" xlink:href="#Z"/></g><g id="v"><use transform="matrix(0.06172839506172839,0,0,0.06172839506172839,0,0)" xlink:href="#D"/><use transform="matrix(0.06172839506172839,0,0,0.06172839506172839,7.345679012345679,0)" xlink:href="#C"/><use transform="matrix(0.06172839506172839,0,0,0.06172839506172839,19.691358024691358,0)" xlink:href="#H"/><use transform="matrix(0.06172839506172839,0,0,0.06172839506172839,30.80246913580247,0)" xlink:href="#C"/><use transform="matrix(0.06172839506172839,0,0,0.06172839506172839,43.148148148148145,0)" xlink:href="#K"/><use transform="matrix(0.06172839506172839,0,0,0.06172839506172839,48.02469135802469,0)" xlink:href="#E"/><use transform="matrix(0.06172839506172839,0,0,0.06172839506172839,59.1358024691358,0)" xlink:href="#C"/><use transform="matrix(0.06172839506172839,0,0,0.06172839506172839,71.48148148148148,0)" xlink:href="#D"/><use transform="matrix(0.06172839506172839,0,0,0.06172839506172839,78.82716049382717,0)" xlink:href="#aa"/></g><g id="w"><use transform="matrix(0.06172839506172839,0,0,0.06172839506172839,0,0)" xlink:href="#G"/><use transform="matrix(0.06172839506172839,0,0,0.06172839506172839,12.345679012345679,0)" xlink:href="#H"/><use transform="matrix(0.06172839506172839,0,0,0.06172839506172839,23.45679012345679,0)" xlink:href="#H"/><use transform="matrix(0.06172839506172839,0,0,0.06172839506172839,34.5679012345679,0)" xlink:href="#C"/><use transform="matrix(0.06172839506172839,0,0,0.06172839506172839,46.913580246913575,0)" xlink:href="#T"/><use transform="matrix(0.06172839506172839,0,0,0.06172839506172839,59.25925925925925,0)" xlink:href="#J"/><use transform="matrix(0.06172839506172839,0,0,0.06172839506172839,65.43209876543209,0)" xlink:href="#U"/><use transform="matrix(0.06172839506172839,0,0,0.06172839506172839,72.77777777777777,0)" xlink:href="#T"/><use transform="matrix(0.06172839506172839,0,0,0.06172839506172839,85.12345679012346,0)" xlink:href="#L"/><use transform="matrix(0.06172839506172839,0,0,0.06172839506172839,91.29629629629629,0)" xlink:href="#F"/><use transform="matrix(0.06172839506172839,0,0,0.06172839506172839,106.1111111111111,0)" xlink:href="#G"/><use transform="matrix(0.06172839506172839,0,0,0.06172839506172839,118.45679012345678,0)" xlink:href="#H"/><use transform="matrix(0.06172839506172839,0,0,0.06172839506172839,129.5679012345679,0)" xlink:href="#I"/><use transform="matrix(0.06172839506172839,0,0,0.06172839506172839,140.679012345679,0)" xlink:href="#C"/><use transform="matrix(0.06172839506172839,0,0,0.06172839506172839,153.02469135802468,0)" xlink:href="#J"/><use transform="matrix(0.06172839506172839,0,0,0.06172839506172839,159.19753086419752,0)" xlink:href="#V"/><use transform="matrix(0.06172839506172839,0,0,0.06172839506172839,166.5432098765432,0)" xlink:href="#W"/></g><g id="x"><use transform="matrix(0.06172839506172839,0,0,0.06172839506172839,0,0)" xlink:href="#T"/><use transform="matrix(0.06172839506172839,0,0,0.06172839506172839,12.345679012345679,0)" xlink:href="#D"/><use transform="matrix(0.06172839506172839,0,0,0.06172839506172839,19.691358024691358,0)" xlink:href="#N"/><use transform="matrix(0.06172839506172839,0,0,0.06172839506172839,32.03703703703704,0)" xlink:href="#H"/><use transform="matrix(0.06172839506172839,0,0,0.06172839506172839,43.14814814814815,0)" xlink:href="#C"/><use transform="matrix(0.06172839506172839,0,0,0.06172839506172839,55.49382716049383,0)" xlink:href="#P"/><use transform="matrix(0.06172839506172839,0,0,0.06172839506172839,66.60493827160494,0)" xlink:href="#P"/><use transform="matrix(0.06172839506172839,0,0,0.06172839506172839,77.71604938271605,0)" xlink:href="#U"/><use transform="matrix(0.06172839506172839,0,0,0.06172839506172839,85.06172839506173,0)" xlink:href="#V"/></g><path fill="#333" d="M199 0l-22-63H83L61 0H9l90-248h61L250 0h-51zm-33-102l-36-108c-10 38-24 72-36 108h72" id="ac"/><path fill="#333" d="M135-194c53 0 70 44 70 98 0 56-19 98-73 100-31 1-45-17-59-34 3 33 2 69 2 105H25l-1-265h48c2 10 0 23 3 31 11-24 29-35 60-35zM114-30c33 0 39-31 40-66 0-38-9-64-40-64-56 0-55 130 0 130" id="ad"/><path fill="#333" d="M25 0v-261h50V0H25" id="ae"/><path fill="#333" d="M123 10C108 53 80 86 19 72V37c35 8 53-11 59-39L3-190h52l48 148c12-52 28-100 44-148h51" id="af"/><g id="y"><use transform="matrix(0.07407407407407407,0,0,0.07407407407407407,0,0)" xlink:href="#ac"/><use transform="matrix(0.07407407407407407,0,0,0.07407407407407407,19.185185185185183,0)" xlink:href="#ad"/><use transform="matrix(0.07407407407407407,0,0,0.07407407407407407,35.407407407407405,0)" xlink:href="#ad"/><use transform="matrix(0.07407407407407407,0,0,0.07407407407407407,51.629629629629626,0)" xlink:href="#ae"/><use transform="matrix(0.07407407407407407,0,0,0.07407407407407407,59.03703703703703,0)" xlink:href="#af"/></g><path fill="#333" d="M240-174c0 40-23 61-54 70L253 0h-59l-57-94H76V0H24v-248c93 4 217-23 216 74zM76-134c48-2 112 12 112-38 0-48-66-32-112-35v73" id="ag"/><path fill="#333" d="M165-50V0h-47v-50H5v-38l105-160h55v161h33v37h-33zm-47-37l2-116L46-87h72" id="ah"/><g id="z"><use transform="matrix(0.07407407407407407,0,0,0.07407407407407407,0,0)" xlink:href="#ag"/><use transform="matrix(0.07407407407407407,0,0,0.07407407407407407,19.185185185185183,0)" xlink:href="#ah"/></g><path fill="#333" d="M115-159c48 0 72 30 72 78 0 54-30 85-83 85-64 0-91-50-91-122 0-98 58-163 141-120 15 8 21 24 27 44l-47 6c-5-31-48-31-61-4-7 14-11 33-11 60 9-17 28-27 53-27zM102-35c24 0 36-20 36-45s-11-43-37-43c-23 0-36 14-36 38 0 27 11 50 37 50" id="ai"/><g id="A"><use transform="matrix(0.07407407407407407,0,0,0.07407407407407407,0,0)" xlink:href="#ag"/><use transform="matrix(0.07407407407407407,0,0,0.07407407407407407,19.185185185185183,0)" xlink:href="#ai"/></g></defs></g></svg>