<svg xmlns="http://www.w3.org/2000/svg" xmlns:xlink="http://www.w3.org/1999/xlink" xmlns:lucid="lucid" width="900" height="820"><g transform="translate(-400 -60)" lucid:page-tab-id="nuLeQpxpv4vM"><path d="M0 0h1760v1360H0z" fill="#fff"/><path d="M1100 266c0-3.3 2.7-6 6-6h168c3.3 0 6 2.7 6 6v48c0 3.3-2.7 6-6 6h-168c-3.3 0-6-2.7-6-6z" fill="none"/><use xlink:href="#a" transform="matrix(1,0,0,1,1100,260) translate(16.654730902777757 36.662326388888886)"/><path d="M420 406c0-3.3 2.7-6 6-6h248c3.3 0 6 2.7 6 6v268c0 3.3-2.7 6-6 6H426c-3.3 0-6-2.7-6-6z" fill-opacity="0"/><path d="M436.2 400h8.76m5.84 0h8.75m5.84 0h8.74m5.84 0h8.75m5.83 0h8.76m5.83 0h8.76m5.84 0h8.75m5.83 0h8.75m5.84 0h8.75m5.84 0h8.76m5.83 0h8.75m5.83 0h8.76m5.83 0h8.75m5.84 0h8.75m5.85 0h8.75m5.84 0h8.75m5.82 0H674l3.03.82 2.15 2.15.82 3.03v4.47m0 5.95v8.94m0 5.95v8.94m0 5.96v8.93m0 5.96V470m0 5.96v8.93m0 5.97v8.93m0 5.96v8.93m0 5.94v8.94m0 5.95v8.94m0 5.95v8.94m0 5.95v8.94m0 5.96v8.93m0 5.96V604m0 5.96v8.93m0 5.97v8.93m0 5.96v8.93m0 5.94v8.94m0 5.95V674l-.82 3.03-2.15 2.15-3.03.82h-4.38m-5.83 0h-8.76m-5.84 0h-8.75m-5.84 0h-8.74m-5.84 0h-8.75m-5.83 0h-8.76m-5.83 0h-8.76m-5.84 0h-8.75m-5.83 0h-8.75m-5.84 0h-8.75m-5.84 0h-8.76m-5.83 0h-8.75m-5.83 0h-8.76m-5.83 0h-8.75m-5.84 0h-8.75m-5.85 0h-8.75m-5.84 0h-8.75m-5.82 0H426l-3.03-.82-2.15-2.15L420 674v-4.47m0-5.95v-8.94m0-5.95v-8.94m0-5.96v-8.93m0-5.96V610m0-5.96v-8.93m0-5.97v-8.93m0-5.96v-8.93m0-5.94v-8.94m0-5.95v-8.94m0-5.95v-8.94m0-5.95v-8.94m0-5.96v-8.93m0-5.96V476m0-5.96v-8.93m0-5.97v-8.93m0-5.96v-8.93m0-5.94v-8.94m0-5.95V406l.82-3.03 2.15-2.15L426 400h4.38" stroke="#5e5e5e" stroke-width="3" fill="none"/><path d="M820 86c0-3.3 2.7-6 6-6h48c3.3 0 6 2.7 6 6v48c0 3.3-2.7 6-6 6h-48c-3.3 0-6-2.7-6-6z" stroke="#5e5e5e" stroke-width="3" fill="#fff"/><use xlink:href="#b" transform="matrix(1,0,0,1,825,85) translate(13.808641975308644 31.138888888888886)"/><path d="M520 426c0-3.3 2.7-6 6-6h48c3.3 0 6 2.7 6 6v48c0 3.3-2.7 6-6 6h-48c-3.3 0-6-2.7-6-6z" stroke="#5e5e5e" stroke-width="3" fill="#fff"/><use xlink:href="#c" transform="matrix(1,0,0,1,525,425) translate(13.808641975308644 31.138888888888886)"/><path d="M440 606c0-3.3 2.7-6 6-6h48c3.3 0 6 2.7 6 6v48c0 3.3-2.7 6-6 6h-48c-3.3 0-6-2.7-6-6z" stroke="#5e5e5e" stroke-width="3" fill="#fff"/><use xlink:href="#d" transform="matrix(1,0,0,1,445,605) translate(14.629629629629632 31.138888888888886)"/><path d="M600 606c0-3.3 2.7-6 6-6h48c3.3 0 6 2.7 6 6v48c0 3.3-2.7 6-6 6h-48c-3.3 0-6-2.7-6-6z" stroke="#5e5e5e" stroke-width="3" fill="#fff"/><use xlink:href="#d" transform="matrix(1,0,0,1,605,605) translate(14.629629629629632 31.138888888888886)"/><path d="M720 806c0-3.3 2.7-6 6-6h48c3.3 0 6 2.7 6 6v48c0 3.3-2.7 6-6 6h-48c-3.3 0-6-2.7-6-6z" stroke="#5e5e5e" stroke-width="3" fill="#fff"/><use xlink:href="#e" transform="matrix(1,0,0,1,725,805) translate(12.08024691358025 31.138888888888886)"/><path d="M920 806c0-3.3 2.7-6 6-6h48c3.3 0 6 2.7 6 6v48c0 3.3-2.7 6-6 6h-48c-3.3 0-6-2.7-6-6z" stroke="#5e5e5e" stroke-width="3" fill="#fff"/><use xlink:href="#f" transform="matrix(1,0,0,1,925,805) translate(14.629629629629632 31.138888888888886)"/><path d="M1040 266c0-3.3 2.7-6 6-6h48c3.3 0 6 2.7 6 6v48c0 3.3-2.7 6-6 6h-48c-3.3 0-6-2.7-6-6z" stroke="#5e5e5e" stroke-width="3" fill="#fff"/><use xlink:href="#b" transform="matrix(1,0,0,1,1045,265) translate(13.808641975308644 31.138888888888886)"/><path d="M600 266c0-3.3 2.7-6 6-6h48c3.3 0 6 2.7 6 6v48c0 3.3-2.7 6-6 6h-48c-3.3 0-6-2.7-6-6z" stroke="#5e5e5e" stroke-width="3" fill="#fff"/><use xlink:href="#b" transform="matrix(1,0,0,1,605,265) translate(13.808641975308644 31.138888888888886)"/><path d="M820 426c0-3.3 2.7-6 6-6h48c3.3 0 6 2.7 6 6v48c0 3.3-2.7 6-6 6h-48c-3.3 0-6-2.7-6-6z" stroke="#5e5e5e" stroke-width="3" fill="#fff"/><use xlink:href="#e" transform="matrix(1,0,0,1,825,425) translate(12.08024691358025 31.138888888888886)"/><path d="M817.5 450H600" stroke="#5e5e5e" stroke-width="2" fill="none"/><path d="M818.5 451h-1.03v-2h1.03z" fill="#5e5e5e"/><path d="M584.74 450l14.26-4.64v9.28z" stroke="#5e5e5e" stroke-width="2" fill="#5e5e5e"/><use xlink:href="#g" transform="matrix(1,0,0,1,738.9629629629629,414) translate(0 21.333333333333332)"/><path d="M549.44 482.33l-69 100.9" stroke="#5e5e5e" stroke-width="2" fill="none"/><path d="M550.25 482.9l-1.65-1.12.2-.28h2.4z" fill="#5e5e5e"/><path d="M471.83 595.83l4.22-14.4 7.65 5.24z" stroke="#5e5e5e" stroke-width="2" fill="#5e5e5e"/><use xlink:href="#h" transform="matrix(1,0,0,1,491.06943203638514,510.72371408379604) translate(0 21.333333333333332)"/><path d="M502.5 630H580" stroke="#5e5e5e" stroke-width="2" fill="none"/><path d="M502.53 631h-1.03v-2h1.03z" fill="#5e5e5e"/><path d="M595.26 630L581 634.64v-9.28z" stroke="#5e5e5e" stroke-width="2" fill="#5e5e5e"/><use xlink:href="#i" transform="matrix(1,0,0,1,534.4814814814815,594) translate(0 21.333333333333332)"/><path d="M470.83 662.06L703.2 819.62" stroke="#5e5e5e" stroke-width="2" fill="none"/><path d="M470.3 662.9l-2.08-1.4h3.02z" fill="#5e5e5e"/><path d="M715.82 828.18l-14.4-4.17 5.2-7.66z" stroke="#5e5e5e" stroke-width="2" fill="#5e5e5e"/><use xlink:href="#j" transform="matrix(1,0,0,1,545.6611808362887,724.3904400876846) translate(0 21.333333333333332)"/><path d="M630.86 662l271.66 158.67" stroke="#5e5e5e" stroke-width="2" fill="none"/><path d="M630.38 662.88l-2.36-1.38h3.17z" fill="#5e5e5e"/><path d="M915.7 828.37l-14.65-3.2 4.67-8z" stroke="#5e5e5e" stroke-width="2" fill="#5e5e5e"/><use xlink:href="#k" transform="matrix(1,0,0,1,791.4357199833831,722.1825385623556) translate(0 21.333333333333332)"/><path d="M1069.15 257.98L893.62 150.16" stroke="#5e5e5e" stroke-width="2" fill="none"/><path d="M1071.9 258.5h-3.1l.85-1.4z" fill="#5e5e5e"/><path d="M880.6 142.17l14.6 3.52-4.86 7.9z" stroke="#5e5e5e" stroke-width="2" fill="#5e5e5e"/><use xlink:href="#l" transform="matrix(1,0,0,1,990.6727454158448,174.79657518494452) translate(0 21.333333333333332)"/><path d="M550.64 417.73l67.6-81.96" stroke="#5e5e5e" stroke-width="2" fill="none"/><path d="M551.42 418.35l-.12.15h-2.6l1.18-1.43z" fill="#5e5e5e"/><path d="M627.94 324l-5.5 13.95-7.15-5.9z" stroke="#5e5e5e" stroke-width="2" fill="#5e5e5e"/><use xlink:href="#m" transform="matrix(1,0,0,1,562.8792542376135,341.21844272163594) translate(0 21.333333333333332)"/><path d="M630.85 257.98l176.73-107.52" stroke="#5e5e5e" stroke-width="2" fill="none"/><path d="M631.2 258.5h-3.12l2.28-1.4z" fill="#5e5e5e"/><path d="M820.63 142.53l-9.78 11.37-4.82-7.92z" stroke="#5e5e5e" stroke-width="2" fill="#5e5e5e"/><use xlink:href="#l" transform="matrix(1,0,0,1,705.5444165733368,173.05892259740494) translate(0 21.333333333333332)"/><path d="M1000 806c0-3.3 2.7-6 6-6h68c3.3 0 6 2.7 6 6v48c0 3.3-2.7 6-6 6h-68c-3.3 0-6-2.7-6-6z" fill="none"/><use xlink:href="#n" transform="matrix(1,0,0,1,1000,800) translate(19.996744791666668 36.662326388888886)"/><path d="M620 806c0-3.3 2.7-6 6-6h68c3.3 0 6 2.7 6 6v48c0 3.3-2.7 6-6 6h-68c-3.3 0-6-2.7-6-6z" fill="none"/><use xlink:href="#o" transform="matrix(1,0,0,1,620,800) translate(13.328993055555557 36.662326388888886)"/><path d="M770 366c0-3.3 2.7-6 6-6h148c3.3 0 6 2.7 6 6v48c0 3.3-2.7 6-6 6H776c-3.3 0-6-2.7-6-6z" fill="none"/><use xlink:href="#p" transform="matrix(1,0,0,1,770,360) translate(19.990234374999986 36.662326388888886)"/><path d="M420 266c0-3.3 2.7-6 6-6h168c3.3 0 6 2.7 6 6v48c0 3.3-2.7 6-6 6H426c-3.3 0-6-2.7-6-6z" fill="none"/><use xlink:href="#q" transform="matrix(1,0,0,1,420,260) translate(16.654730902777757 36.662326388888886)"/><path d="M720 86c0-3.3 2.7-6 6-6h88c3.3 0 6 2.7 6 6v48c0 3.3-2.7 6-6 6h-88c-3.3 0-6-2.7-6-6z" fill="none"/><use xlink:href="#r" transform="matrix(1,0,0,1,720,80) translate(23.328993055555557 36.662326388888886)"/><path d="M1020 404.5c0-3.3 2.7-6 6-6h248c3.3 0 6 2.7 6 6v268c0 3.3-2.7 6-6 6h-248c-3.3 0-6-2.7-6-6z" fill-opacity="0"/><path d="M1036.2 398.5h8.76m5.84 0h8.75m5.84 0h8.74m5.84 0h8.75m5.83 0h8.76m5.83 0h8.76m5.84 0h8.75m5.83 0h8.75m5.84 0h8.75m5.84 0h8.76m5.83 0h8.75m5.83 0h8.76m5.83 0h8.75m5.84 0h8.75m5.85 0h8.75m5.84 0h8.75m5.82 0h4.38l3.03.82 2.15 2.15.82 3.03v4.47m0 5.95v8.94m0 5.95v8.94m0 5.96v8.93m0 5.96v8.92m0 5.96v8.93m0 5.97v8.93m0 5.96v8.93m0 5.94v8.94m0 5.95v8.94m0 5.95v8.94m0 5.95v8.94m0 5.96v8.93m0 5.96v8.92m0 5.96v8.93m0 5.97v8.93m0 5.96v8.93m0 5.94v8.94m0 5.95v4.47l-.82 3.03-2.15 2.15-3.03.82h-4.38m-5.83 0h-8.76m-5.84 0h-8.75m-5.84 0h-8.74m-5.84 0h-8.75m-5.83 0h-8.76m-5.83 0h-8.76m-5.84 0h-8.75m-5.83 0h-8.75m-5.84 0h-8.75m-5.84 0h-8.76m-5.83 0h-8.75m-5.83 0h-8.76m-5.83 0h-8.75m-5.84 0h-8.75m-5.85 0h-8.75m-5.84 0h-8.75m-5.82 0H1026l-3.03-.82-2.15-2.15-.82-3.03v-4.47m0-5.95v-8.94m0-5.95v-8.94m0-5.96v-8.93m0-5.96v-8.92m0-5.96v-8.93m0-5.97v-8.93m0-5.96v-8.93m0-5.94v-8.94m0-5.95v-8.94m0-5.95v-8.94m0-5.95v-8.94m0-5.96v-8.93m0-5.96v-8.92m0-5.96v-8.93m0-5.97v-8.93m0-5.96v-8.93m0-5.94v-8.94m0-5.95v-4.47l.82-3.03 2.15-2.15 3.03-.82h4.38" stroke="#5e5e5e" stroke-width="3" fill="none"/><path d="M1120 424.5c0-3.3 2.7-6 6-6h48c3.3 0 6 2.7 6 6v48c0 3.3-2.7 6-6 6h-48c-3.3 0-6-2.7-6-6z" stroke="#5e5e5e" stroke-width="3" fill="#fff"/><use xlink:href="#c" transform="matrix(1,0,0,1,1125,423.5) translate(13.808641975308644 31.138888888888886)"/><path d="M1040 604.5c0-3.3 2.7-6 6-6h48c3.3 0 6 2.7 6 6v48c0 3.3-2.7 6-6 6h-48c-3.3 0-6-2.7-6-6z" stroke="#5e5e5e" stroke-width="3" fill="#fff"/><use xlink:href="#d" transform="matrix(1,0,0,1,1045,603.5) translate(14.629629629629632 31.138888888888886)"/><path d="M1200 604.5c0-3.3 2.7-6 6-6h48c3.3 0 6 2.7 6 6v48c0 3.3-2.7 6-6 6h-48c-3.3 0-6-2.7-6-6z" stroke="#5e5e5e" stroke-width="3" fill="#fff"/><use xlink:href="#d" transform="matrix(1,0,0,1,1205,603.5) translate(14.629629629629632 31.138888888888886)"/><path d="M882.5 448.5H1100" stroke="#5e5e5e" stroke-width="2" fill="none"/><path d="M882.53 449.5h-1.03v-2h1.03z" fill="#5e5e5e"/><path d="M1115.26 448.5l-14.26 4.64v-9.28z" stroke="#5e5e5e" stroke-width="2" fill="#5e5e5e"/><use xlink:href="#g" transform="matrix(1,0,0,1,960.2962962962963,412.5) translate(0 21.333333333333332)"/><path d="M1149.44 480.83l-69 100.9" stroke="#5e5e5e" stroke-width="2" fill="none"/><path d="M1150.25 481.4l-1.65-1.12.2-.28h2.4z" fill="#5e5e5e"/><path d="M1071.83 594.33l4.22-14.4 7.65 5.24z" stroke="#5e5e5e" stroke-width="2" fill="#5e5e5e"/><use xlink:href="#h" transform="matrix(1,0,0,1,1091.069432036385,509.22371408379604) translate(0 21.333333333333332)"/><path d="M1102.5 628.5h77.5" stroke="#5e5e5e" stroke-width="2" fill="none"/><path d="M1102.53 629.5h-1.03v-2h1.03z" fill="#5e5e5e"/><path d="M1195.26 628.5l-14.26 4.64v-9.28z" stroke="#5e5e5e" stroke-width="2" fill="#5e5e5e"/><use xlink:href="#i" transform="matrix(1,0,0,1,1134.4814814814815,592.5) translate(0 21.333333333333332)"/><path d="M1069.14 660.5l-271.7 160.1" stroke="#5e5e5e" stroke-width="2" fill="none"/><path d="M1069.62 661.38l-.8-1.38h3.15z" fill="#5e5e5e"/><path d="M784.3 828.36l9.93-11.24 4.7 8z" stroke="#5e5e5e" stroke-width="2" fill="#5e5e5e"/><use xlink:href="#j" transform="matrix(1,0,0,1,968.6548702542125,721.3174535610431) translate(0 21.333333333333332)"/><path d="M1229.17 660.56L996.87 816.7" stroke="#5e5e5e" stroke-width="2" fill="none"/><path d="M1229.7 661.4l-.94-1.4h3.03z" fill="#5e5e5e"/><path d="M984.2 825.22l9.24-11.8 5.17 7.7z" stroke="#5e5e5e" stroke-width="2" fill="#5e5e5e"/><use xlink:href="#k" transform="matrix(1,0,0,1,1133.9586032162235,726.0975683088087) translate(0 21.333333333333332)"/><path d="M1149.36 416.23l-67.48-80.55" stroke="#5e5e5e" stroke-width="2" fill="none"/><path d="M1151.3 417h-2.6l-.13-.14 1.54-1.3z" fill="#5e5e5e"/><path d="M1072.08 323.98l12.7 7.96-7.1 5.95z" stroke="#5e5e5e" stroke-width="2" fill="#5e5e5e"/><use xlink:href="#m" transform="matrix(1,0,0,1,1113.319270321096,340.3508152982695) translate(0 21.333333333333332)"/><defs><path fill="#333" d="M1018 0H810c-67-251-137-496-194-756C558-495 487-250 419 0H211L0-1349h189c48 393 110 772 142 1181 58-262 128-512 197-763h175c69 251 139 500 197 763 37-402 92-789 139-1181h189" id="s"/><path fill="#333" d="M615-1102c343 0 484 203 482 560-1 347-147 562-488 562-336 0-475-219-479-562-4-349 156-560 485-560zm-8 989c240 0 301-180 301-429 0-245-55-427-290-427-236 0-299 181-299 427 0 243 61 429 288 429" id="t"/><path fill="#333" d="M839-1102c70 0 148 7 206 17v167c-112-18-268-36-363 15-129 69-208 203-208 395V0H294c-10-367 32-789-52-1082h171c21 75 41 161 48 250h5c67-152 152-270 373-270" id="u"/><path fill="#333" d="M914 0L548-499l-132 98V0H236v-1484h180v927l475-525h211L663-617 1125 0H914" id="v"/><path fill="#333" d="M873-819c-18-114-119-146-250-146-163 0-245 50-245 151 0 151 170 148 294 185 182 54 388 94 388 320 0 240-189 325-439 329-245 4-410-69-454-268l159-31c24 133 136 168 295 165 144-2 270-31 270-171 0-164-195-160-331-202-167-52-350-87-350-299 0-218 173-315 413-313 220 2 373 77 412 260" id="w"/><path fill="#333" d="M682 16c-209 0-323-80-324-285v-671H190v-142h170l58-282h120v282h432v142H538v652c2 114 60 155 182 155 106 0 209-16 297-34v137C921-4 806 16 682 16" id="x"/><path fill="#333" d="M1000-272c3 95 12 159 101 161 21 0 41-3 59-7V-6c-44 10-86 16-139 16-141 2-191-84-197-217h-6C748-76 648 20 446 20c-207 0-318-120-318-322 0-266 194-348 454-354l236-4c12-191-40-305-222-305-140 0-220 47-232 172l-188-17c33-204 181-292 423-292 255 0 401 118 401 364v466zm-683-27c0 109 63 184 175 182 166-3 259-96 306-217 24-65 20-120 20-200-232 7-501-28-501 235" id="y"/><path fill="#333" d="M745-142h380V0H143v-142h422v-798H246v-142h499v940zM545-1292v-192h200v192H545" id="z"/><path fill="#333" d="M706-1102c241 0 344 136 343 381V0H868v-695c1-168-57-273-220-268-190 6-283 138-283 336V0H185c-3-360 6-732-6-1082h170c4 54 7 126 8 185h3c63-121 164-204 346-205" id="A"/><g id="a"><use transform="matrix(0.010850694444444444,0,0,0.010850694444444444,0,0)" xlink:href="#s"/><use transform="matrix(0.010850694444444444,0,0,0.010850694444444444,13.335503472222221,0)" xlink:href="#t"/><use transform="matrix(0.010850694444444444,0,0,0.010850694444444444,26.671006944444443,0)" xlink:href="#u"/><use transform="matrix(0.010850694444444444,0,0,0.010850694444444444,40.006510416666664,0)" xlink:href="#v"/><use transform="matrix(0.010850694444444444,0,0,0.010850694444444444,53.342013888888886,0)" xlink:href="#w"/><use transform="matrix(0.010850694444444444,0,0,0.010850694444444444,66.67751736111111,0)" xlink:href="#x"/><use transform="matrix(0.010850694444444444,0,0,0.010850694444444444,80.01302083333334,0)" xlink:href="#y"/><use transform="matrix(0.010850694444444444,0,0,0.010850694444444444,93.34852430555557,0)" xlink:href="#x"/><use transform="matrix(0.010850694444444444,0,0,0.010850694444444444,106.6840277777778,0)" xlink:href="#z"/><use transform="matrix(0.010850694444444444,0,0,0.010850694444444444,120.01953125000003,0)" xlink:href="#t"/><use transform="matrix(0.010850694444444444,0,0,0.010850694444444444,133.35503472222226,0)" xlink:href="#A"/></g><path fill="#333" d="M67-125c0 53 21 87 73 88 37 1 54-22 65-47l45 17C233-25 199 4 140 4 58 4 20-42 15-125 8-235 124-281 211-232c18 10 29 29 36 50l-46 12c-8-25-30-41-62-41-52 0-71 34-72 86" id="B"/><use transform="matrix(0.08641975308641973,0,0,0.08641975308641973,0,0)" xlink:href="#B" id="b"/><path fill="#333" d="M182-130c37 4 62 22 62 59C244 23 116-4 24 0v-248c84 5 203-23 205 63 0 31-19 50-47 55zM76-148c40-3 101 13 101-30 0-44-60-28-101-31v61zm0 110c48-3 116 14 116-37 0-48-69-32-116-35v72" id="C"/><use transform="matrix(0.08641975308641973,0,0,0.08641975308641973,0,0)" xlink:href="#C" id="c"/><path fill="#333" d="M24 0v-248h195v40H76v63h132v40H76v65h150V0H24" id="D"/><use transform="matrix(0.08641975308641973,0,0,0.08641975308641973,0,0)" xlink:href="#D" id="d"/><path fill="#333" d="M230 0l2-204L168 0h-37L68-204 70 0H24v-248h70l56 185 57-185h69V0h-46" id="E"/><use transform="matrix(0.08641975308641973,0,0,0.08641975308641973,0,0)" xlink:href="#E" id="e"/><path fill="#333" d="M24-248c93 1 206-16 204 79-1 75-69 88-152 82V0H24v-248zm52 121c47 0 100 7 100-41 0-47-54-39-100-39v80" id="F"/><use transform="matrix(0.08641975308641973,0,0,0.08641975308641973,0,0)" xlink:href="#F" id="f"/><path fill="#333" d="M25 0v-261h50V0H25" id="G"/><use transform="matrix(0.07407407407407407,0,0,0.07407407407407407,0,0)" xlink:href="#G" id="g"/><path fill="#333" d="M185-48c-13 30-37 53-82 52C43 2 14-33 14-96s30-98 90-98c62 0 83 45 84 108H66c0 31 8 55 39 56 18 0 30-7 34-22zm-45-69c5-46-57-63-70-21-2 6-4 13-4 21h74" id="H"/><use transform="matrix(0.07407407407407407,0,0,0.07407407407407407,0,0)" xlink:href="#H" id="h"/><path fill="#333" d="M133-34C117-15 103 5 69 4 32 3 11-16 11-54c-1-60 55-63 116-61 1-26-3-47-28-47-18 1-26 9-28 27l-52-2c7-38 36-58 82-57s74 22 75 68l1 82c-1 14 12 18 25 15v27c-30 8-71 5-69-32zm-48 3c29 0 43-24 42-57-32 0-66-3-65 30 0 17 8 27 23 27" id="I"/><path fill="#333" d="M135-194c53 0 70 44 70 98 0 56-19 98-73 100-31 1-45-17-59-34 3 33 2 69 2 105H25l-1-265h48c2 10 0 23 3 31 11-24 29-35 60-35zM114-30c33 0 39-31 40-66 0-38-9-64-40-64-56 0-55 130 0 130" id="J"/><g id="i"><use transform="matrix(0.07407407407407407,0,0,0.07407407407407407,0,0)" xlink:href="#I"/><use transform="matrix(0.07407407407407407,0,0,0.07407407407407407,14.814814814814813,0)" xlink:href="#J"/></g><path fill="#333" d="M190-63c-7 42-38 67-86 67-59 0-84-38-90-98-12-110 154-137 174-36l-49 2c-2-19-15-32-35-32-30 0-35 28-38 64-6 74 65 87 74 30" id="K"/><use transform="matrix(0.07407407407407407,0,0,0.07407407407407407,0,0)" xlink:href="#K" id="j"/><use transform="matrix(0.07407407407407407,0,0,0.07407407407407407,0,0)" xlink:href="#I" id="k"/><path fill="#333" d="M25-224v-37h50v37H25zM25 0v-190h50V0H25" id="L"/><use transform="matrix(0.07407407407407407,0,0,0.07407407407407407,0,0)" xlink:href="#L" id="l"/><path fill="#333" d="M220-157c-53 9-28 100-34 157h-49v-107c1-27-5-49-29-50C55-147 81-57 75 0H25l-1-190h47c2 12-1 28 3 38 10-53 101-56 108 0 13-22 24-43 59-42 82 1 51 116 57 194h-49v-107c-1-25-5-48-29-50" id="M"/><use transform="matrix(0.07407407407407407,0,0,0.07407407407407407,0,0)" xlink:href="#M" id="m"/><path fill="#333" d="M698-1104c312 3 392 244 392 558 0 315-82 566-392 566-169 0-277-65-331-184h-5c8 188 2 394 4 589H185V-858c0-76-1-156-6-224h175c6 52 9 120 10 178h4c58-122 150-202 330-200zm-49 991c225 0 255-203 255-433 0-225-32-419-253-419-236 0-285 192-285 441 0 237 53 411 283 411" id="N"/><g id="n"><use transform="matrix(0.010850694444444444,0,0,0.010850694444444444,0,0)" xlink:href="#N"/><use transform="matrix(0.010850694444444444,0,0,0.010850694444444444,13.335503472222221,0)" xlink:href="#y"/><use transform="matrix(0.010850694444444444,0,0,0.010850694444444444,26.671006944444443,0)" xlink:href="#u"/></g><path fill="#333" d="M617-1102c355 0 481 238 477 599H322c5 222 84 388 301 388 144 0 244-59 284-166l158 45C1002-72 854 20 623 20c-342 0-490-220-490-568 0-346 151-554 484-554zm291 461c-18-192-90-328-289-328-194 0-287 128-295 328h584" id="O"/><path fill="#333" d="M865-914c-3-187-2-380-2-570h180v1261c0 76 1 155 6 223H877c-8-49-9-116-10-174h-5C801-44 708 26 530 26c-135 0-234-46-297-139s-95-232-95-419c0-377 131-566 392-566 176 0 271 63 335 184zm-286-51c-222 0-255 197-255 427 0 229 31 425 253 425 237 0 286-195 286-441 0-238-52-411-284-411" id="P"/><g id="o"><use transform="matrix(0.010850694444444444,0,0,0.010850694444444444,0,0)" xlink:href="#w"/><use transform="matrix(0.010850694444444444,0,0,0.010850694444444444,13.335503472222221,0)" xlink:href="#O"/><use transform="matrix(0.010850694444444444,0,0,0.010850694444444444,26.671006944444443,0)" xlink:href="#A"/><use transform="matrix(0.010850694444444444,0,0,0.010850694444444444,40.006510416666664,0)" xlink:href="#P"/></g><path fill="#333" d="M1048-32c-2 300-135 456-433 456-222-1-358-88-400-267l184-25c22 99 100 157 222 156 184-2 248-125 248-315 0-64 3-133-2-194C807-100 706-13 524-12c-306 0-381-228-381-537 0-318 85-550 400-550 164 0 271 83 325 202h3c1-60 3-134 12-185h171c-13 339-4 702-6 1050zM585-145c210-8 284-178 284-406 0-192-52-331-177-392-33-16-69-22-104-22-223 2-259 184-259 414 0 229 31 415 256 406" id="Q"/><g id="p"><use transform="matrix(0.010850694444444444,0,0,0.010850694444444444,0,0)" xlink:href="#t"/><use transform="matrix(0.010850694444444444,0,0,0.010850694444444444,13.335503472222221,0)" xlink:href="#u"/><use transform="matrix(0.010850694444444444,0,0,0.010850694444444444,26.671006944444443,0)" xlink:href="#z"/><use transform="matrix(0.010850694444444444,0,0,0.010850694444444444,40.006510416666664,0)" xlink:href="#Q"/><use transform="matrix(0.010850694444444444,0,0,0.010850694444444444,53.342013888888886,0)" xlink:href="#z"/><use transform="matrix(0.010850694444444444,0,0,0.010850694444444444,66.67751736111111,0)" xlink:href="#A"/><use transform="matrix(0.010850694444444444,0,0,0.010850694444444444,80.01302083333334,0)" xlink:href="#y"/><use transform="matrix(0.010850694444444444,0,0,0.010850694444444444,93.34852430555557,0)" xlink:href="#x"/><use transform="matrix(0.010850694444444444,0,0,0.010850694444444444,106.6840277777778,0)" xlink:href="#O"/></g><path fill="#333" d="M622-1349c296 4 497 117 497 404 0 282-193 424-485 431H353V0H162v-1349h460zm-15 684c195-3 320-88 320-277 0-184-129-255-328-254H353v531h254" id="R"/><path fill="#333" d="M614-1226c-167 1-283 53-283 213 0 183 186 193 334 234 230 63 463 120 463 409 0 286-219 387-518 390C309 23 131-98 79-338l185-37c34 165 149 248 351 246 184-2 324-58 324-238 0-203-207-221-372-266-210-57-422-111-422-377 0-267 201-356 470-360 279-5 430 101 480 324l-188 33c-28-141-121-215-293-213" id="S"/><path fill="#333" d="M715 0H502L69-1082h202c94 253 197 500 285 758 19 57 36 126 52 183 96-335 234-626 350-941h201" id="T"/><g id="q"><use transform="matrix(0.010850694444444444,0,0,0.010850694444444444,0,0)" xlink:href="#R"/><use transform="matrix(0.010850694444444444,0,0,0.010850694444444444,13.335503472222221,0)" xlink:href="#u"/><use transform="matrix(0.010850694444444444,0,0,0.010850694444444444,26.671006944444443,0)" xlink:href="#z"/><use transform="matrix(0.010850694444444444,0,0,0.010850694444444444,40.006510416666664,0)" xlink:href="#A"/><use transform="matrix(0.010850694444444444,0,0,0.010850694444444444,53.342013888888886,0)" xlink:href="#x"/><use transform="matrix(0.010850694444444444,0,0,0.010850694444444444,66.67751736111111,0)" xlink:href="#S"/><use transform="matrix(0.010850694444444444,0,0,0.010850694444444444,80.01302083333334,0)" xlink:href="#O"/><use transform="matrix(0.010850694444444444,0,0,0.010850694444444444,93.34852430555557,0)" xlink:href="#u"/><use transform="matrix(0.010850694444444444,0,0,0.010850694444444444,106.6840277777778,0)" xlink:href="#T"/><use transform="matrix(0.010850694444444444,0,0,0.010850694444444444,120.01953125000003,0)" xlink:href="#O"/><use transform="matrix(0.010850694444444444,0,0,0.010850694444444444,133.35503472222226,0)" xlink:href="#u"/></g><path fill="#333" d="M912-211c-10-84-18-177-18-274v-864h172V0H836L316-1130c7 79 16 167 16 254V0H162v-1349h222" id="U"/><g id="r"><use transform="matrix(0.010850694444444444,0,0,0.010850694444444444,0,0)" xlink:href="#U"/><use transform="matrix(0.010850694444444444,0,0,0.010850694444444444,13.335503472222221,0)" xlink:href="#t"/><use transform="matrix(0.010850694444444444,0,0,0.010850694444444444,26.671006944444443,0)" xlink:href="#P"/><use transform="matrix(0.010850694444444444,0,0,0.010850694444444444,40.006510416666664,0)" xlink:href="#O"/></g></defs></g></svg>