<svg xmlns="http://www.w3.org/2000/svg" xmlns:xlink="http://www.w3.org/1999/xlink" xmlns:lucid="lucid" width="1524.99" height="972.2"><g transform="translate(-220 -140)" lucid:page-tab-id="bVMeINh7FnWK"><path d="M0 0h1760v1360H0z" fill="#fff"/><path d="M1120 240c0 44.18-94.02 80-210 80s-210-35.82-210-80 94.02-80 210-80 210 35.82 210 80z" fill="#fff"/><path d="M1118.28 250.28l-.12.34-.52 1.4-.6 1.46-.7 1.48-.8 1.52-.9 1.58-.2.3m-3.46 4.9l-1.45 1.75-1.75 1.95-2 2.05-.9.84m-4.5 3.95l-2.58 2.04-3.53 2.56-1.1.72m-5.03 3.23l-2.74 1.66-5.06 2.8m-5.35 2.67l-1.7.83-6.48 2.88m-5.54 2.25l-4.6 1.82-3.8 1.33m-5.66 1.96l-1.03.36-7.56 2.27m-5.75 1.68l-8.7 2.23m-5.82 1.42l-8.78 1.87m-5.85 1.23l-8.85 1.5m-5.9 1l-3.15.52-5.74.73m-5.93.74l-8.2 1.03-.7.06m-5.97.5l-8.95.73m-5.96.5l-8.98.38m-5.98.25l-7.75.33h-1.23m-5.98.07l-4.5.05-4.5-.1m-5.97-.12l-8.98-.2m-5.97-.2l-8.96-.56m-5.98-.38l-5.05-.32-3.9-.4m-5.95-.63l-8.93-.94m-5.93-.8l-8.9-1.3m-5.9-.87l-.23-.05-8.6-1.63m-5.88-1.12l-2.58-.5-6.2-1.44m-5.82-1.37l-3.02-.7-5.66-1.6m-5.76-1.6l-1.7-.47-6.86-2.23m-5.68-1.9l-8.4-3.12m-5.53-2.3l-2.83-1.2-5.36-2.52m-5.33-2.7l-2.4-1.25-5.16-2.96-.25-.17m-5.03-3.24l-2.93-2.03-3.28-2.5-1-.82m-4.5-3.94l-1.94-1.88-1.87-2-1.63-1.9-.65-.8m-3.45-4.9l-.67-1.1-.85-1.55-.75-1.5-.65-1.45-.56-1.43-.38-1.04m-1.4-5.8l-.15-1.22-.1-1.3-.06-1.3V240l.03-1.3.08-1.3.15-1.3.08-.57m1.4-5.8l.1-.35.53-1.4.6-1.46.7-1.48.8-1.52.9-1.58.2-.3m3.46-4.9l1.45-1.75 1.75-1.95 2-2.05.9-.84m4.5-3.95l2.58-2.04 3.53-2.56 1.1-.72m5.03-3.23l2.74-1.66 5.06-2.8m5.35-2.67l1.7-.83 6.48-2.88m5.54-2.25l4.6-1.82 3.8-1.33m5.66-1.96l1.03-.36 7.56-2.27m5.75-1.68l8.7-2.23m5.82-1.42l8.78-1.87m5.85-1.23l8.85-1.5m5.9-1l3.15-.52 5.74-.73m5.93-.74l8.2-1.03.7-.06m5.97-.5l8.95-.73m5.96-.5l8.98-.38m5.98-.25l7.75-.33h1.23m5.98-.07l4.5-.05 4.5.1m5.97.12l8.98.2m5.97.2l8.96.56m5.98.38l5.05.32 3.9.4m5.95.63l8.93.94m5.93.8l8.9 1.3m5.9.87l.23.05 8.6 1.63m5.88 1.12l2.58.5 6.2 1.44m5.82 1.37l3.02.7 5.66 1.6m5.76 1.6l1.7.47 6.86 2.23m5.68 1.9l8.4 3.12m5.53 2.3l2.83 1.2 5.36 2.52m5.33 2.7l2.4 1.25 5.16 2.96.25.17m5.03 3.24l2.93 2.03 3.28 2.5 1 .82m4.5 3.94l1.94 1.88 1.87 2 1.63 1.9.65.8m3.45 4.9l.67 1.1.85 1.55.75 1.5.65 1.45.56 1.43.38 1.04m1.4 5.8l.15 1.22.1 1.3.06 1.3v.66l-.03 1.3-.08 1.3-.15 1.3-.08.57" stroke="#5e5e5e" stroke-width="3" fill="none"/><path d="M665 366c0-3.3 2.7-6 6-6h468c3.32 0 6 2.7 6 6v48c0 3.3-2.68 6-6 6H671c-3.3 0-6-2.7-6-6z" fill="none"/><use xlink:href="#a" transform="matrix(1,0,0,1,665.0033354712899,360) translate(15.370370370370352 35.33333333333333)"/><use xlink:href="#b" transform="matrix(1,0,0,1,665.0033354712899,360) translate(245.96296296296302 35.33333333333333)"/><use xlink:href="#c" transform="matrix(1,0,0,1,665.0033354712899,360) translate(302.03703703703707 35.33333333333333)"/><use xlink:href="#d" transform="matrix(1,0,0,1,665.0033354712899,360) translate(355.2222222222223 35.33333333333333)"/><path d="M768 202c0-3.3 2.7-6 6-6h19c3.32 0 6 2.7 6 6v20.2c0 3.32-2.68 6-6 6h-19c-3.3 0-6-2.68-6-6z" fill="none"/><use xlink:href="#e" transform="matrix(1,0,0,1,768,196) translate(9.827160493827162 20.944444444444443)"/><path d="M800 270c0 5.52-4.48 10-10 10s-10-4.48-10-10 4.48-10 10-10 10 4.48 10 10zM820 213c0 5.52-4.48 10-10 10s-10-4.48-10-10 4.48-10 10-10 10 4.48 10 10zM860 290c0 5.52-4.48 10-10 10s-10-4.48-10-10 4.48-10 10-10 10 4.48 10 10zM900 210c0 5.52-4.48 10-10 10s-10-4.48-10-10 4.48-10 10-10 10 4.48 10 10zM980 210c0 5.52-4.48 10-10 10s-10-4.48-10-10 4.48-10 10-10 10 4.48 10 10zM960 270c0 5.52-4.48 10-10 10s-10-4.48-10-10 4.48-10 10-10 10 4.48 10 10zM1040 250c0 5.52-4.48 10-10 10s-10-4.48-10-10 4.48-10 10-10 10 4.48 10 10z" stroke="#5e5e5e" stroke-width="3" fill="#333"/><path d="M788 275c0-3.3 2.7-6 6-6h19c3.32 0 6 2.7 6 6v20.2c0 3.32-2.68 6-6 6h-19c-3.3 0-6-2.68-6-6z" fill="none"/><use xlink:href="#f" transform="matrix(1,0,0,1,788,269) translate(10.444444444444445 20.944444444444443)"/><path d="M832 260c0-3.3 2.7-6 6-6h19c3.32 0 6 2.7 6 6v20.2c0 3.32-2.68 6-6 6h-19c-3.3 0-6-2.68-6-6z" fill="none"/><use xlink:href="#g" transform="matrix(1,0,0,1,832,254) translate(9.827160493827162 20.944444444444443)"/><path d="M852 186c0-3.3 2.7-6 6-6h19c3.32 0 6 2.7 6 6v20.2c0 3.32-2.68 6-6 6h-19c-3.3 0-6-2.68-6-6z" fill="none"/><use xlink:href="#h" transform="matrix(1,0,0,1,852,180) translate(9.827160493827162 20.944444444444443)"/><path d="M931 195c0-3.3 2.7-6 6-6h19c3.32 0 6 2.7 6 6v20.2c0 3.32-2.68 6-6 6h-19c-3.3 0-6-2.68-6-6z" fill="none"/><use xlink:href="#i" transform="matrix(1,0,0,1,931,189) translate(9.827160493827162 20.944444444444443)"/><path d="M960 266c0-3.3 2.7-6 6-6h19c3.32 0 6 2.7 6 6v20.2c0 3.32-2.68 6-6 6h-19c-3.3 0-6-2.68-6-6z" fill="none"/><use xlink:href="#j" transform="matrix(1,0,0,1,960,260) translate(12.91358024691358 20.944444444444443)"/><path d="M1040 242.8c0-3.32 2.7-6 6-6h19c3.32 0 6 2.68 6 6V263c0 3.3-2.68 6-6 6h-19c-3.3 0-6-2.7-6-6z" fill="none"/><use xlink:href="#k" transform="matrix(1,0,0,1,1040,236.79700741951058) translate(9.827160493827162 20.944444444444443)"/><path d="M699 500c0 44.18-62 80-138.5 80S422 544.18 422 500s62-80 138.5-80S699 455.82 699 500z" fill="#fff"/><path d="M697.9 510.1l-.4 1.74-.56 2-.66 2.02-.76 2.05-.22.54m-2.5 5.26l-.27.54-1.26 2.2-1.42 2.22-1.58 2.28-.1.14m-3.64 4.56l-2.2 2.45-2.45 2.5-1.42 1.32m-4.36 3.86l-3.3 2.62-3.66 2.65m-4.87 3.2l-3.86 2.33-3.7 2.04m-5.18 2.64l-1.6.8-6 2.67-.35.13m-5.42 2.15l-.78.3-7.07 2.48-.4.1m-5.57 1.7l-1.63.5-6.8 1.74m-5.7 1.26l-4.24.9-4.33.73m-5.75.94l-8.43 1.07-.24.03m-5.8.48l-3.74.33-4.97.2m-5.83.22l-4.37.05-4.36-.1m-5.83-.1l-8.7-.56m-5.8-.56l-5.03-.53-3.64-.53m-5.76-.86l-8.58-1.64m-5.68-1.32l-2.82-.66-5.63-1.57m-5.56-1.7l-4-1.3-4.24-1.58m-5.4-2.16L476 563.4l-4.54-2.14m-5.2-2.64l-1.25-.66-4.77-2.75-1.52-.96m-4.86-3.2l-1.85-1.3-3.53-2.67-1.58-1.3m-4.4-3.84l-.07-.08-2.58-2.52-2.32-2.47-1.06-1.23m-3.64-4.55l-.94-1.3-1.5-2.25-1.33-2.2-.9-1.63m-2.5-5.26l-.6-1.56-.72-2.03-.6-2-.52-2-.15-.74m-.9-5.74l-.1-1.4-.1-1.97v-1l.04-1.97.13-1.97.04-.42m.9-5.75l.4-1.74.57-2 .66-2.02.76-2.05.2-.54m2.5-5.26l.28-.54 1.26-2.2 1.4-2.22 1.6-2.28.1-.14m3.63-4.56l2.2-2.45 2.46-2.5 1.4-1.32m4.37-3.86l3.32-2.62 3.65-2.65m4.86-3.2l3.87-2.33 3.7-2.04m5.18-2.64l1.6-.8 6.02-2.67.34-.13m5.4-2.15l.8-.3 7.06-2.48.4-.1m5.57-1.7l1.64-.5 6.82-1.74m5.68-1.26l4.24-.9 4.34-.73m5.75-.94l8.42-1.07.25-.03m5.8-.48l3.74-.33 4.98-.2m5.82-.22l4.36-.05 4.37.1m5.82.1l8.7.56m5.8.56l5.03.53 3.65.53m5.76.86l8.58 1.64m5.67 1.32l2.8.66 5.63 1.57m5.57 1.7l4 1.3 4.25 1.58m5.4 2.16l3.43 1.44 4.55 2.14m5.18 2.64l1.27.66 4.77 2.75 1.53.96m4.86 3.2l1.85 1.3 3.53 2.67 1.6 1.3m4.37 3.84l.1.08 2.57 2.52 2.32 2.47 1.06 1.23m3.63 4.55l.93 1.3 1.5 2.25 1.34 2.2.9 1.63m2.48 5.26l.6 1.56.72 2.03.6 2 .52 2 .16.74m.9 5.74l.1 1.4.1 1.97v1l-.04 1.97-.12 1.97-.05.42" stroke="#5e5e5e" stroke-width="3" fill="none"/><path d="M490 462c0-3.3 2.7-6 6-6h19c3.32 0 6 2.7 6 6v20.2c0 3.32-2.68 6-6 6h-19c-3.3 0-6-2.68-6-6z" fill="none"/><use xlink:href="#e" transform="matrix(1,0,0,1,490.00333547128986,456) translate(9.827160493827162 20.944444444444443)"/><path d="M500 530c0 5.52-4.48 10-10 10s-10-4.48-10-10 4.48-10 10-10 10 4.48 10 10zM542 473c0 5.52-4.47 10-10 10-5.52 0-10-4.48-10-10s4.48-10 10-10c5.53 0 10 4.48 10 10zM582 550c0 5.52-4.47 10-10 10-5.52 0-10-4.48-10-10s4.48-10 10-10c5.53 0 10 4.48 10 10zM622 470c0 5.52-4.47 10-10 10-5.52 0-10-4.48-10-10s4.48-10 10-10c5.53 0 10 4.48 10 10z" stroke="#5e5e5e" stroke-width="3" fill="#333"/><path d="M488 535c0-3.3 2.7-6 6-6h19c3.32 0 6 2.7 6 6v20.2c0 3.32-2.68 6-6 6h-19c-3.3 0-6-2.68-6-6z" fill="none"/><use xlink:href="#f" transform="matrix(1,0,0,1,488.00000000000006,529) translate(10.444444444444445 20.944444444444443)"/><path d="M554 520c0-3.3 2.7-6 6-6h19c3.32 0 6 2.7 6 6v20.2c0 3.32-2.68 6-6 6h-19c-3.3 0-6-2.68-6-6z" fill="none"/><use xlink:href="#g" transform="matrix(1,0,0,1,554.0033354712898,514) translate(9.827160493827162 20.944444444444443)"/><path d="M574 446c0-3.3 2.7-6 6-6h19c3.32 0 6 2.7 6 6v20.2c0 3.32-2.68 6-6 6h-19c-3.3 0-6-2.68-6-6z" fill="none"/><use xlink:href="#h" transform="matrix(1,0,0,1,574.0033354712898,440) translate(9.827160493827162 20.944444444444443)"/><path d="M839 778c0 34.24-48.13 62-107.5 62S624 812.24 624 778c0-34.24 48.13-62 107.5-62S839 743.76 839 778z" fill="#fff"/><path d="M837.48 788.4l-.47 1.52-.63 1.76-.74 1.78-.86 1.8-.77 1.45m-3.23 5.1l-.82 1.13-1.62 2.03-1.83 2.08-1.58 1.63m-4.42 4.08l-1 .87-2.94 2.3-3.25 2.3m-5.1 3.2l-2.7 1.55-4.56 2.36-.7.33m-5.5 2.46l-4.4 1.77-4.05 1.42m-5.75 1.82l-2.84.85-5.88 1.47m-5.9 1.24l-2.8.58-6.1.93m-5.98.73l-4.18.44-4.83.3m-6.02.25l-4.5.08-4.52-.1m-6.02-.23l-6.76-.47-2.24-.26m-6-.7l-7.84-1.3-1.05-.2m-5.9-1.26l-.48-.1-6.97-1.82-1.3-.4m-5.73-1.82l-5.37-1.96-3.07-1.27m-5.5-2.46l-1.8-.85-4.44-2.37-1.73-1.02m-5.1-3.2l-.77-.5-3.2-2.32-2.86-2.28-.38-.34m-4.44-4.08l-2-2.12-1.8-2.07-1.57-2.03-.48-.67m-3.23-5.08l-.03-.03-.95-1.85-.83-1.8-.73-1.78-.62-1.75-.34-1.12m-1.22-5.9l-.16-1.5-.1-1.7-.02-1.3.04-1.7.12-1.7.13-1.1m1.2-5.9l.48-1.52.64-1.76.75-1.78.86-1.8.76-1.45m3.22-5.1l.82-1.13 1.62-2.03 1.84-2.08 1.57-1.63m4.42-4.08l1-.87 2.93-2.3 3.25-2.3m5.1-3.2l2.72-1.55 4.56-2.36.7-.33m5.5-2.46l4.4-1.77 4.05-1.42m5.75-1.82l2.83-.85 5.9-1.47m5.9-1.24l2.8-.58 6.1-.93m5.98-.73l4.17-.44 4.83-.3m6.02-.25l4.52-.08 4.5.1m6.03.23l6.77.47 2.24.26m5.98.7l7.86 1.3 1.05.2m5.9 1.26l.48.1 6.97 1.82 1.28.4m5.74 1.82l5.37 1.96 3.06 1.27m5.5 2.46l1.8.85 4.45 2.37 1.72 1.02m5.1 3.2l.76.5 3.2 2.32 2.86 2.28.4.34m4.4 4.08l2.02 2.12 1.78 2.07 1.58 2.03.47.67m3.24 5.08l.02.03.95 1.85.84 1.8.73 1.78.6 1.75.35 1.12m1.23 5.9l.17 1.5.1 1.7.02 1.3-.05 1.7-.1 1.7-.15 1.1" stroke="#5e5e5e" stroke-width="3" fill="none"/><path d="M702 790c0 5.52-4.48 10-10 10-5.53 0-10-4.48-10-10s4.47-10 10-10c5.52 0 10 4.48 10 10zM784 810c0 5.52-4.48 10-10 10s-10-4.48-10-10 4.48-10 10-10 10 4.48 10 10z" stroke="#5e5e5e" stroke-width="3" fill="#333"/><path d="M690 795c0-3.3 2.68-6 6-6h19c3.3 0 6 2.7 6 6v20.2c0 3.32-2.7 6-6 6h-19c-3.32 0-6-2.68-6-6z" fill="none"/><use xlink:href="#f" transform="matrix(1,0,0,1,689.9966645287104,789) translate(10.444444444444445 20.944444444444443)"/><path d="M756 780c0-3.3 2.7-6 6-6h19c3.32 0 6 2.7 6 6v20.2c0 3.32-2.68 6-6 6h-19c-3.3 0-6-2.68-6-6z" fill="none"/><use xlink:href="#g" transform="matrix(1,0,0,1,756.0000000000002,774) translate(9.827160493827162 20.944444444444443)"/><path d="M476 778c0 34.24-48.13 62-107.5 62S261 812.24 261 778c0-34.24 48.13-62 107.5-62S476 743.76 476 778z" fill="#fff"/><path d="M474.5 788.4l-.48 1.52-.64 1.75-.75 1.8-.86 1.8-.76 1.45m-3.22 5.08l-.82 1.12-1.62 2.04-1.84 2.08-1.57 1.63m-4.42 4.08l-1 .87-2.93 2.3-3.25 2.3m-5.1 3.2l-2.72 1.55-4.55 2.36-.72.33m-5.5 2.46l-4.37 1.77-4.07 1.42m-5.75 1.82l-2.83.85-5.9 1.47m-5.9 1.24l-2.8.57-6.1.94m-5.98.73l-4.17.44-4.83.3m-6.02.25l-4.52.08-4.52-.1m-6-.23l-6.78-.47-2.24-.26m-5.98-.7l-7.86-1.3-1.05-.2m-5.9-1.26l-.48-.1-6.97-1.82-1.28-.4m-5.74-1.82l-5.37-1.96-3.06-1.27m-5.5-2.46l-1.8-.85-4.45-2.37-1.72-1.02m-5.1-3.2l-.77-.5-3.2-2.32-2.86-2.28-.38-.34m-4.44-4.08l-2-2.12-1.78-2.07-1.58-2.03-.48-.67m-3.23-5.08l-.02-.03-.96-1.85-.83-1.8-.73-1.78-.6-1.75-.35-1.12m-1.23-5.9l-.17-1.5-.1-1.7-.03-1.3.04-1.7.12-1.7.13-1.1m1.2-5.9l.5-1.52.63-1.75.74-1.8.86-1.8.77-1.45m3.22-5.08l.82-1.12 1.63-2.04 1.83-2.08 1.57-1.63m4.43-4.08l1-.87 2.93-2.3 3.26-2.3m5.1-3.2l2.7-1.55 4.56-2.36.7-.33m5.5-2.46l4.4-1.77 4.05-1.42m5.75-1.82l2.83-.85 5.9-1.47m5.9-1.24l2.8-.57 6.1-.94m5.98-.73l4.17-.44 4.84-.3m6-.25l4.53-.08 4.52.1m6.02.23l6.76.47 2.24.26m5.98.7l7.86 1.3 1.05.2m5.9 1.26l.48.1 6.97 1.82 1.3.4m5.73 1.82l5.37 1.96 3.06 1.27m5.5 2.46l1.8.85 4.45 2.37 1.73 1.02m5.1 3.2l.77.5 3.2 2.32 2.86 2.28.38.34m4.44 4.08l2 2.12 1.8 2.07 1.57 2.03.48.67m3.23 5.08l.03.03.95 1.85.83 1.8.73 1.78.62 1.75.34 1.12m1.22 5.9l.16 1.5.1 1.7.02 1.3-.04 1.7-.12 1.7-.13 1.1" stroke="#5e5e5e" stroke-width="3" fill="none"/><path d="M289 758c0-3.3 2.7-6 6-6h19c3.32 0 6 2.7 6 6v20.2c0 3.32-2.68 6-6 6h-19c-3.3 0-6-2.68-6-6z" fill="none"/><use xlink:href="#e" transform="matrix(1,0,0,1,289.00333547128974,752) translate(9.827160493827162 20.944444444444443)"/><path d="M341 769c0 5.52-4.47 10-10 10-5.52 0-10-4.48-10-10s4.48-10 10-10c5.53 0 10 4.48 10 10zM421 766c0 5.52-4.47 10-10 10-5.52 0-10-4.48-10-10s4.48-10 10-10c5.53 0 10 4.48 10 10z" stroke="#5e5e5e" stroke-width="3" fill="#333"/><path d="M373 742c0-3.3 2.7-6 6-6h19c3.32 0 6 2.7 6 6v20.2c0 3.32-2.68 6-6 6h-19c-3.3 0-6-2.68-6-6z" fill="none"/><use xlink:href="#h" transform="matrix(1,0,0,1,373.00333547128974,736) translate(9.827160493827162 20.944444444444443)"/><path d="M340 1000c0 22.1-22.4 40-50 40s-50-17.9-50-40 22.4-40 50-40 50 17.9 50 40z" fill="#fff"/><path d="M338.5 1009.77l-1.13 3.05-1.53 3.18-.9 1.47m-3.27 4.63l-.18.22-2.9 3.1-3 2.63m-4.6 3.3l-4.2 2.42-3.34 1.5m-5.32 1.95l-1.74.58-5.8 1.3-.72.1m-5.63.65l-4.25.15-4.25-.2m-5.63-.65l-2.44-.37-5.7-1.46-.14-.05m-5.32-1.96l-4.68-2.24-2.83-1.73m-4.6-3.3l-.66-.5-3.25-3-2.15-2.45m-3.3-4.6l-1.38-2.4-1.42-3.2-.7-2.12m-1.23-5.52l-.24-1.94-.08-2.3.16-3.25.15-1m1.2-5.52l1.13-3.05 1.53-3.18.9-1.47m3.27-4.63l.18-.22 2.9-3.1 3-2.63m4.6-3.3l4.2-2.42 3.34-1.5m5.32-1.95l1.74-.58 5.8-1.3.72-.1m5.63-.65L290 960l4.25.2m5.63.65l2.44.37 5.7 1.46.14.05m5.32 1.96l4.68 2.24 2.83 1.73m4.6 3.3l.66.5 3.25 3 2.15 2.45m3.3 4.6l1.38 2.4 1.42 3.2.7 2.12m1.23 5.52l.24 1.94.08 2.3-.16 3.25-.15 1" stroke="#5e5e5e" stroke-width="3" fill="none"/><path d="M274 1066c0-3.3 2.7-6 6-6h19c3.32 0 6 2.7 6 6v20.2c0 3.32-2.68 6-6 6h-19c-3.3 0-6-2.68-6-6z" fill="none"/><use xlink:href="#e" transform="matrix(1,0,0,1,274,1060) translate(9.827160493827162 20.944444444444443)"/><path d="M300 993c0 5.52-4.48 10-10 10s-10-4.48-10-10 4.48-10 10-10 10 4.48 10 10z" stroke="#5e5e5e" stroke-width="3" fill="#333"/><path d="M500 1000c0 22.1-22.4 40-50 40s-50-17.9-50-40 22.4-40 50-40 50 17.9 50 40z" fill="#fff"/><path d="M498.5 1009.77l-1.13 3.05-1.53 3.18-.9 1.47m-3.27 4.63l-.18.22-2.9 3.1-3 2.63m-4.6 3.3l-4.2 2.42-3.34 1.5m-5.32 1.95l-1.74.58-5.8 1.3-.72.1m-5.63.65l-4.25.15-4.25-.2m-5.63-.65l-2.44-.37-5.7-1.46-.14-.05m-5.32-1.96l-4.68-2.24-2.83-1.73m-4.6-3.3l-.66-.5-3.25-3-2.15-2.45m-3.3-4.6l-1.38-2.4-1.42-3.2-.7-2.12m-1.23-5.52l-.24-1.94-.08-2.3.16-3.25.15-1m1.2-5.52l1.13-3.05 1.53-3.18.9-1.47m3.27-4.63l.18-.22 2.9-3.1 3-2.63m4.6-3.3l4.2-2.42 3.34-1.5m5.32-1.95l1.74-.58 5.8-1.3.72-.1m5.63-.65L450 960l4.25.2m5.63.65l2.44.37 5.7 1.46.14.05m5.32 1.96l4.68 2.24 2.83 1.73m4.6 3.3l.66.5 3.25 3 2.15 2.45m3.3 4.6l1.38 2.4 1.42 3.2.7 2.12m1.23 5.52l.24 1.94.08 2.3-.16 3.25-.15 1" stroke="#5e5e5e" stroke-width="3" fill="none"/><path d="M434 1066c0-3.3 2.7-6 6-6h19c3.32 0 6 2.7 6 6v20.2c0 3.32-2.68 6-6 6h-19c-3.3 0-6-2.68-6-6z" fill="none"/><use xlink:href="#h" transform="matrix(1,0,0,1,434,1060) translate(9.827160493827162 20.944444444444443)"/><path d="M480 990c0 5.52-4.48 10-10 10s-10-4.48-10-10 4.48-10 10-10 10 4.48 10 10z" stroke="#5e5e5e" stroke-width="3" fill="#333"/><path d="M700 1000c0 22.1-22.4 40-50 40s-50-17.9-50-40 22.4-40 50-40 50 17.9 50 40z" fill="#fff"/><path d="M698.5 1009.77l-1.13 3.05-1.53 3.18-.9 1.47m-3.27 4.63l-.18.22-2.9 3.1-3 2.63m-4.6 3.3l-4.2 2.42-3.34 1.5m-5.32 1.95l-1.74.58-5.8 1.3-.72.1m-5.63.65l-4.25.15-4.25-.2m-5.63-.65l-2.44-.37-5.7-1.46-.14-.05m-5.32-1.96l-4.68-2.24-2.83-1.73m-4.6-3.3l-.66-.5-3.25-3-2.15-2.45m-3.3-4.6l-1.38-2.4-1.42-3.2-.7-2.12m-1.23-5.52l-.24-1.94-.08-2.3.16-3.25.15-1m1.2-5.52l1.13-3.05 1.53-3.18.9-1.47m3.27-4.63l.18-.22 2.9-3.1 3-2.63m4.6-3.3l4.2-2.42 3.34-1.5m5.32-1.95l1.74-.58 5.8-1.3.72-.1m5.63-.65L650 960l4.25.2m5.63.65l2.44.37 5.7 1.46.14.05m5.32 1.96l4.68 2.24 2.83 1.73m4.6 3.3l.66.5 3.25 3 2.15 2.45m3.3 4.6l1.38 2.4 1.42 3.2.7 2.12m1.23 5.52l.24 1.94.08 2.3-.16 3.25-.15 1" stroke="#5e5e5e" stroke-width="3" fill="none"/><path d="M634 1066c0-3.3 2.7-6 6-6h19c3.32 0 6 2.7 6 6v20.2c0 3.32-2.68 6-6 6h-19c-3.3 0-6-2.68-6-6z" fill="none"/><use xlink:href="#f" transform="matrix(1,0,0,1,634,1060) translate(10.444444444444445 20.944444444444443)"/><path d="M642 993c0 5.52-4.47 10-10 10-5.52 0-10-4.48-10-10s4.48-10 10-10c5.53 0 10 4.48 10 10z" stroke="#5e5e5e" stroke-width="3" fill="#333"/><path d="M860 1000c0 22.1-22.4 40-50 40s-50-17.9-50-40 22.4-40 50-40 50 17.9 50 40z" fill="#fff"/><path d="M858.5 1009.77l-1.13 3.05-1.53 3.18-.9 1.47m-3.27 4.63l-.18.22-2.9 3.1-3 2.63m-4.6 3.3l-4.2 2.42-3.34 1.5m-5.32 1.95l-1.74.58-5.8 1.3-.72.1m-5.63.65l-4.25.15-4.25-.2m-5.63-.65l-2.44-.37-5.7-1.46-.14-.05m-5.32-1.96l-4.68-2.24-2.83-1.73m-4.6-3.3l-.66-.5-3.25-3-2.15-2.45m-3.3-4.6l-1.38-2.4-1.42-3.2-.7-2.12m-1.23-5.52l-.24-1.94-.08-2.3.16-3.25.15-1m1.2-5.52l1.13-3.05 1.53-3.18.9-1.47m3.27-4.63l.18-.22 2.9-3.1 3-2.63m4.6-3.3l4.2-2.42 3.34-1.5m5.32-1.95l1.74-.58 5.8-1.3.72-.1m5.63-.65L810 960l4.25.2m5.63.65l2.44.37 5.7 1.46.14.05m5.32 1.96l4.68 2.24 2.83 1.73m4.6 3.3l.66.5 3.25 3 2.15 2.45m3.3 4.6l1.38 2.4 1.42 3.2.7 2.12m1.23 5.52l.24 1.94.08 2.3-.16 3.25-.15 1" stroke="#5e5e5e" stroke-width="3" fill="none"/><path d="M794 1066c0-3.3 2.7-6 6-6h19c3.32 0 6 2.7 6 6v20.2c0 3.32-2.68 6-6 6h-19c-3.3 0-6-2.68-6-6z" fill="none"/><use xlink:href="#g" transform="matrix(1,0,0,1,794,1060) translate(9.827160493827162 20.944444444444443)"/><path d="M831 1010c0 5.52-4.48 10-10 10s-10-4.48-10-10 4.48-10 10-10 10 4.48 10 10z" stroke="#5e5e5e" stroke-width="3" fill="#333"/><path d="M1397 500c0 44.18-62 80-138.5 80S1120 544.18 1120 500s62-80 138.5-80 138.5 35.82 138.5 80z" fill="#fff"/><path d="M1395.9 510.1l-.4 1.74-.57 2-.65 2.02-.76 2.05-.23.54m-2.5 5.26l-.27.54-1.26 2.2-1.42 2.22-1.6 2.28-.1.14m-3.62 4.56l-2.2 2.45-2.45 2.5-1.42 1.32m-4.36 3.86l-3.32 2.62-3.64 2.65m-4.87 3.2l-3.86 2.33-3.7 2.04m-5.18 2.64l-1.6.8-6 2.67-.36.13m-5.4 2.15l-.8.3-7.06 2.48-.4.1m-5.57 1.7l-1.64.5-6.8 1.74m-5.7 1.26l-4.24.9-4.34.73m-5.74.94l-8.43 1.07-.24.03m-5.8.48l-3.74.33-4.97.2m-5.83.22l-4.37.05-4.37-.1m-5.82-.1l-8.7-.56m-5.8-.56l-5.03-.53-3.64-.53m-5.76-.86l-8.58-1.64m-5.68-1.32l-2.82-.66-5.63-1.57m-5.57-1.7l-4-1.3-4.24-1.58m-5.4-2.16l-3.44-1.44-4.54-2.14m-5.2-2.64l-1.25-.66-4.77-2.75-1.52-.96m-4.86-3.2l-1.85-1.3-3.54-2.67-1.6-1.3m-4.37-3.84l-.1-.08-2.57-2.52-2.3-2.47-1.08-1.23m-3.62-4.55l-.94-1.3-1.5-2.25-1.34-2.2-.9-1.63m-2.47-5.26l-.6-1.56-.72-2.03-.6-2-.52-2-.15-.74m-.9-5.74l-.1-1.4-.1-1.97v-1l.04-1.97.13-1.97.04-.42m.9-5.75l.4-1.74.57-2 .65-2.02.76-2.05.23-.54m2.5-5.26l.27-.54 1.26-2.2 1.42-2.22 1.6-2.28.1-.14m3.62-4.56l2.2-2.45 2.45-2.5 1.42-1.32m4.36-3.86l3.32-2.62 3.64-2.65m4.87-3.2l3.86-2.33 3.7-2.04m5.18-2.64l1.6-.8 6-2.67.36-.13m5.4-2.15l.8-.3 7.06-2.48.4-.1m5.57-1.7l1.64-.5 6.8-1.74m5.7-1.26l4.24-.9 4.34-.73m5.74-.94l8.43-1.07.24-.03m5.8-.48l3.74-.33 4.97-.2m5.83-.22l4.37-.05 4.37.1m5.82.1l8.7.56m5.8.56l5.03.53 3.64.53m5.76.86l8.58 1.64m5.68 1.32l2.82.66 5.63 1.57m5.57 1.7l4 1.3 4.24 1.58m5.4 2.16l3.44 1.44 4.54 2.14m5.2 2.64l1.25.66 4.77 2.75 1.52.96m4.86 3.2l1.85 1.3 3.54 2.67 1.6 1.3m4.37 3.84l.1.08 2.57 2.52 2.3 2.47 1.08 1.23m3.62 4.55l.94 1.3 1.5 2.25 1.34 2.2.9 1.63m2.47 5.26l.6 1.56.72 2.03.6 2 .52 2 .15.74m.9 5.74l.1 1.4.1 1.97v1l-.04 1.97-.13 1.97-.04.42" stroke="#5e5e5e" stroke-width="3" fill="none"/><path d="M1257 470c0 5.52-4.48 10-10 10s-10-4.48-10-10 4.48-10 10-10 10 4.48 10 10zM1237 530c0 5.52-4.48 10-10 10s-10-4.48-10-10 4.48-10 10-10 10 4.48 10 10zM1317 510c0 5.52-4.48 10-10 10s-10-4.48-10-10 4.48-10 10-10 10 4.48 10 10z" stroke="#5e5e5e" stroke-width="3" fill="#333"/><path d="M1208 455c0-3.3 2.7-6 6-6h19c3.32 0 6 2.7 6 6v20.2c0 3.32-2.68 6-6 6h-19c-3.3 0-6-2.68-6-6z" fill="none"/><use xlink:href="#i" transform="matrix(1,0,0,1,1208.0000000000002,449) translate(9.827160493827162 20.944444444444443)"/><path d="M1237 526c0-3.3 2.7-6 6-6h19c3.32 0 6 2.7 6 6v20.2c0 3.32-2.68 6-6 6h-19c-3.3 0-6-2.68-6-6z" fill="none"/><use xlink:href="#j" transform="matrix(1,0,0,1,1237.0000000000002,520) translate(12.91358024691358 20.944444444444443)"/><path d="M1317 502.8c0-3.32 2.7-6 6-6h19c3.32 0 6 2.68 6 6V523c0 3.3-2.68 6-6 6h-19c-3.3 0-6-2.7-6-6z" fill="none"/><use xlink:href="#k" transform="matrix(1,0,0,1,1317.0000000000002,496.7970074195105) translate(9.827160493827162 20.944444444444443)"/><path d="M1550 778c0 34.24-48.13 62-107.5 62S1335 812.24 1335 778c0-34.24 48.13-62 107.5-62s107.5 27.76 107.5 62z" fill="#fff"/><path d="M1548.5 788.4l-.5 1.52-.63 1.76-.74 1.78-.86 1.8-.77 1.45m-3.22 5.1l-.82 1.13-1.63 2.03-1.83 2.08-1.57 1.63m-4.43 4.08l-1 .87-2.93 2.3-3.26 2.3m-5.1 3.2l-2.7 1.55-4.56 2.36-.7.33m-5.5 2.46l-4.4 1.77-4.05 1.42m-5.75 1.82l-2.84.85-5.88 1.47m-5.9 1.24l-2.8.58-6.1.93m-5.98.73l-4.18.44-4.83.3m-6 .25l-4.53.08-4.52-.1m-6.02-.23l-6.76-.47-2.24-.26m-5.98-.7l-7.86-1.3-1.05-.2m-5.9-1.26l-.48-.1-6.97-1.82-1.28-.4m-5.75-1.82l-5.37-1.96-3.06-1.27m-5.5-2.46l-1.8-.85-4.45-2.37-1.72-1.02m-5.1-3.2l-.77-.5-3.2-2.32-2.86-2.28-.38-.34m-4.44-4.08l-2-2.12-1.78-2.07-1.58-2.03-.48-.67m-3.23-5.08l-.02-.03-.96-1.85-.83-1.8-.73-1.78-.6-1.75-.35-1.12m-1.23-5.9l-.17-1.5-.1-1.7-.03-1.3.04-1.7.12-1.7.13-1.1m1.2-5.9l.5-1.52.63-1.76.74-1.78.86-1.8.77-1.45m3.22-5.1l.82-1.13 1.63-2.03 1.83-2.08 1.57-1.63m4.43-4.08l1-.87 2.93-2.3 3.26-2.3m5.1-3.2l2.7-1.55 4.56-2.36.7-.33m5.5-2.46l4.4-1.77 4.05-1.42m5.75-1.82l2.84-.85 5.88-1.47m5.9-1.24l2.8-.58 6.1-.93m5.98-.73l4.18-.44 4.83-.3m6-.25l4.53-.08 4.52.1m6.02.23l6.76.47 2.24.26m5.98.7l7.86 1.3 1.05.2m5.9 1.26l.48.1 6.97 1.82 1.28.4m5.75 1.82l5.37 1.96 3.06 1.27m5.5 2.46l1.8.85 4.45 2.37 1.72 1.02m5.1 3.2l.77.5 3.2 2.32 2.86 2.28.38.34m4.44 4.08l2 2.12 1.78 2.07 1.58 2.03.48.67m3.23 5.08l.02.03.96 1.85.83 1.8.73 1.78.6 1.75.35 1.12m1.23 5.9l.17 1.5.1 1.7.03 1.3-.04 1.7-.12 1.7-.13 1.1" stroke="#5e5e5e" stroke-width="3" fill="none"/><path d="M1510 790c0 5.52-4.48 10-10 10s-10-4.48-10-10 4.48-10 10-10 10 4.48 10 10z" stroke="#5e5e5e" stroke-width="3" fill="#333"/><path d="M1459 781c0-3.3 2.7-6 6-6h19c3.32 0 6 2.7 6 6v20.2c0 3.32-2.68 6-6 6h-19c-3.3 0-6-2.68-6-6z" fill="none"/><use xlink:href="#k" transform="matrix(1,0,0,1,1459,775) translate(9.827160493827162 20.944444444444443)"/><path d="M1187 778c0 34.24-48.13 62-107.5 62-59.36 0-107.5-27.76-107.5-62 0-34.24 48.14-62 107.5-62 59.37 0 107.5 27.76 107.5 62z" fill="#fff"/><path d="M1185.5 788.4l-.48 1.52-.64 1.75-.74 1.8-.86 1.8-.77 1.45m-3.22 5.08l-.82 1.12-1.62 2.04-1.83 2.08-1.57 1.63m-4.42 4.08l-1 .87-2.93 2.3-3.25 2.3m-5.1 3.2l-2.7 1.55-4.57 2.36-.7.33m-5.5 2.46l-4.4 1.77-4.06 1.42m-5.75 1.82l-2.83.85-5.9 1.47m-5.9 1.24l-2.8.57-6.1.94m-5.98.73l-4.17.44-4.83.3m-6.02.25l-4.5.08h-.02l-4.5-.1m-6.03-.23l-6.76-.47-2.23-.26m-6-.7l-7.85-1.3-1.05-.2m-5.9-1.26l-.48-.1-6.96-1.82-1.3-.4m-5.73-1.82l-5.37-1.96-3.06-1.27m-5.5-2.46l-1.8-.85-4.45-2.37-1.72-1.02m-5.1-3.2l-.76-.5-3.2-2.32-2.86-2.28-.4-.34m-4.4-4.08l-2.02-2.12-1.78-2.07-1.58-2.03-.47-.67m-3.24-5.08l-.02-.03-.95-1.85-.84-1.8-.73-1.78-.6-1.75-.35-1.12m-1.23-5.9l-.17-1.5-.1-1.7-.02-1.3.05-1.7.1-1.7.15-1.1m1.22-5.9l.47-1.52.63-1.75.74-1.8.86-1.8.77-1.45m3.23-5.08l.82-1.12 1.62-2.04 1.83-2.08 1.58-1.63m4.42-4.08l1-.87 2.94-2.3 3.25-2.3m5.1-3.2l2.7-1.55 4.56-2.36.7-.33m5.5-2.46l4.4-1.77 4.06-1.42m5.74-1.82l2.83-.85 5.88-1.47m5.9-1.24l2.8-.57 6.1-.94m6-.73l4.16-.44 4.83-.3m6.02-.25l4.5-.08 4.52.1m6.02.23l6.76.47 2.24.26m6 .7l7.85 1.3 1.04.2m5.9 1.26l.48.1 6.95 1.82 1.3.4m5.73 1.82l5.38 1.96 3.06 1.27m5.5 2.46l1.8.85 4.45 2.37 1.7 1.02m5.1 3.2l.77.5 3.2 2.32 2.86 2.28.4.34m4.4 4.08l2.02 2.12 1.78 2.07 1.58 2.03.48.67m3.24 5.08v.03l.96 1.85.84 1.8.72 1.78.6 1.75.35 1.12m1.22 5.9l.16 1.5.1 1.7.02 1.3-.04 1.7-.1 1.7-.15 1.1" stroke="#5e5e5e" stroke-width="3" fill="none"/><path d="M1069 797.9c0-3.32 2.68-6 6-6h19c3.3 0 6 2.68 6 6v20.2c0 3.32-2.7 6-6 6h-19c-3.32 0-6-2.68-6-6z" fill="none"/><use xlink:href="#i" transform="matrix(1,0,0,1,1068.99666452871,791.8985037097552) translate(9.827160493827162 20.944444444444443)"/><path d="M1063 808c0 5.52-4.48 10-10 10s-10-4.48-10-10 4.48-10 10-10 10 4.48 10 10zM1100 750c0 5.52-4.48 10-10 10s-10-4.48-10-10 4.48-10 10-10 10 4.48 10 10z" stroke="#5e5e5e" stroke-width="3" fill="#333"/><path d="M1101 742c0-3.3 2.7-6 6-6h19c3.32 0 6 2.7 6 6v20.2c0 3.32-2.68 6-6 6h-19c-3.3 0-6-2.68-6-6z" fill="none"/><use xlink:href="#j" transform="matrix(1,0,0,1,1101.0066709425796,736) translate(12.91358024691358 20.944444444444443)"/><path d="M1051 1000c0 22.1-22.38 40-50 40-27.6 0-50-17.9-50-40s22.4-40 50-40c27.62 0 50 17.9 50 40z" fill="#fff"/><path d="M1049.5 1009.77l-1.12 3.05-1.54 3.18-.9 1.47m-3.27 4.63l-.17.22-2.9 3.1-3 2.63m-4.6 3.3l-4.2 2.42-3.33 1.5m-5.32 1.95l-1.75.58-5.8 1.3-.7.1m-5.65.65l-4.25.15-4.24-.2m-5.63-.65l-2.45-.37-5.7-1.46-.14-.05m-5.32-1.96l-4.68-2.24-2.82-1.73m-4.62-3.3l-.66-.5-3.24-3-2.15-2.45m-3.3-4.6l-1.37-2.4-1.43-3.2-.7-2.12m-1.23-5.52l-.24-1.94-.08-2.3.17-3.25.15-1m1.2-5.52l1.1-3.05 1.55-3.18.9-1.47m3.27-4.63l.17-.22 2.9-3.1 3-2.63m4.6-3.3l4.2-2.42 3.34-1.5m5.32-1.95l1.75-.58 5.82-1.3.7-.1m5.63-.65l4.25-.15 4.25.2m5.63.65l2.44.37 5.7 1.46.15.05m5.32 1.96l4.67 2.24 2.82 1.73m4.6 3.3l.66.5 3.25 3 2.15 2.45m3.3 4.6l1.38 2.4 1.43 3.2.7 2.12m1.23 5.52l.22 1.94.08 2.3-.16 3.25-.15 1" stroke="#5e5e5e" stroke-width="3" fill="none"/><path d="M985 1066c0-3.3 2.7-6 6-6h19c3.32 0 6 2.7 6 6v20.2c0 3.32-2.68 6-6 6h-19c-3.3 0-6-2.68-6-6z" fill="none"/><use xlink:href="#i" transform="matrix(1,0,0,1,985.0033354712898,1060) translate(9.827160493827162 20.944444444444443)"/><path d="M1011 993c0 5.52-4.47 10-10 10-5.52 0-10-4.48-10-10s4.48-10 10-10c5.53 0 10 4.48 10 10z" stroke="#5e5e5e" stroke-width="3" fill="#333"/><path d="M1211 1000c0 22.1-22.38 40-50 40-27.6 0-50-17.9-50-40s22.4-40 50-40c27.62 0 50 17.9 50 40z" fill="#fff"/><path d="M1209.5 1009.77l-1.12 3.05-1.54 3.18-.9 1.47m-3.27 4.63l-.17.22-2.9 3.1-3 2.63m-4.6 3.3l-4.2 2.42-3.33 1.5m-5.32 1.95l-1.75.58-5.8 1.3-.7.1m-5.65.65l-4.25.15-4.24-.2m-5.63-.65l-2.45-.37-5.7-1.46-.14-.05m-5.32-1.96l-4.68-2.24-2.82-1.73m-4.62-3.3l-.66-.5-3.24-3-2.15-2.45m-3.3-4.6l-1.37-2.4-1.43-3.2-.7-2.12m-1.23-5.52l-.24-1.94-.08-2.3.17-3.25.15-1m1.2-5.52l1.1-3.05 1.55-3.18.9-1.47m3.27-4.63l.17-.22 2.9-3.1 3-2.63m4.6-3.3l4.2-2.42 3.34-1.5m5.32-1.95l1.75-.58 5.82-1.3.7-.1m5.63-.65l4.25-.15 4.25.2m5.63.65l2.44.37 5.7 1.46.15.05m5.32 1.96l4.67 2.24 2.82 1.73m4.6 3.3l.66.5 3.25 3 2.15 2.45m3.3 4.6l1.38 2.4 1.43 3.2.7 2.12m1.23 5.52l.22 1.94.08 2.3-.16 3.25-.15 1" stroke="#5e5e5e" stroke-width="3" fill="none"/><path d="M1145 1066c0-3.3 2.7-6 6-6h19c3.32 0 6 2.7 6 6v20.2c0 3.32-2.68 6-6 6h-19c-3.3 0-6-2.68-6-6z" fill="none"/><use xlink:href="#j" transform="matrix(1,0,0,1,1145.0033354712898,1060) translate(12.91358024691358 20.944444444444443)"/><path d="M1191 990c0 5.52-4.47 10-10 10-5.52 0-10-4.48-10-10s4.48-10 10-10c5.53 0 10 4.48 10 10z" stroke="#5e5e5e" stroke-width="3" fill="#333"/><path d="M1492.5 1000c0 22.1-22.4 40-50 40s-50-17.9-50-40 22.4-40 50-40 50 17.9 50 40z" fill="#fff"/><path d="M1491 1009.77l-1.13 3.05-1.53 3.18-.9 1.47m-3.27 4.63l-.18.22-2.9 3.1-3 2.63m-4.6 3.3l-4.2 2.42-3.34 1.5m-5.32 1.95l-1.74.58-5.8 1.3-.72.1m-5.63.65l-4.25.15-4.25-.2m-5.63-.65l-2.44-.37-5.7-1.46-.14-.05m-5.32-1.96l-4.68-2.24-2.83-1.73m-4.6-3.3l-.66-.5-3.25-3-2.15-2.45m-3.3-4.6l-1.38-2.4-1.42-3.2-.7-2.12m-1.23-5.52l-.24-1.94-.08-2.3.16-3.25.15-1m1.2-5.52l1.13-3.05 1.53-3.18.9-1.47m3.27-4.63l.18-.22 2.9-3.1 3-2.63m4.6-3.3l4.2-2.42 3.34-1.5m5.32-1.95l1.74-.58 5.8-1.3.72-.1m5.63-.65l4.25-.15 4.25.2m5.63.65l2.44.37 5.7 1.46.14.05m5.32 1.96l4.68 2.24 2.83 1.73m4.6 3.3l.66.5 3.25 3 2.15 2.45m3.3 4.6l1.38 2.4 1.42 3.2.7 2.12m1.23 5.52l.24 1.94.08 2.3-.16 3.25-.15 1" stroke="#5e5e5e" stroke-width="3" fill="none"/><path d="M1426.5 1066c0-3.3 2.7-6 6-6h19c3.32 0 6 2.7 6 6v20.2c0 3.32-2.68 6-6 6h-19c-3.3 0-6-2.68-6-6z" fill="none"/><use xlink:href="#k" transform="matrix(1,0,0,1,1426.4999999999998,1060) translate(9.827160493827162 20.944444444444443)"/><path d="M1434.5 993c0 5.52-4.47 10-10 10-5.52 0-10-4.48-10-10s4.48-10 10-10c5.53 0 10 4.48 10 10z" stroke="#5e5e5e" stroke-width="3" fill="#333"/><path d="M1041.66 838.55l-.94 2.8m-1.27 3.72l-1.9 5.6m-1.25 3.7l-1.9 5.6m-1.26 3.72l-1.9 5.58M1030 873l-1.9 5.6m-1.27 3.72l-1.9 5.58m-1.26 3.73l-1.9 5.58m-1.25 3.74l-1.9 5.6m-1.26 3.7l-1.9 5.6m-1.26 3.72l-1.9 5.6m-1.25 3.7l-1.9 5.6m-1.26 3.72l-.96 2.8" stroke="#5e5e5e" stroke-width="2" fill="none"/><path d="M1042.97 837.82l-.37 1.08-1.9-.64.3-.86z" fill="#5e5e5e"/><path d="M1002.04 955.43l.2-15 8.77 2.98z" stroke="#5e5e5e" stroke-width="2" fill="#5e5e5e"/><path d="M1126.38 836.4l.8 2.85m1.08 3.8l1.62 5.68m1.07 3.8l1.62 5.68m1.07 3.8l1.6 5.7m1.1 3.8l1.6 5.67m1.08 3.8l1.6 5.7m1.1 3.78l1.6 5.7m1.08 3.78l1.6 5.7m1.08 3.78l1.62 5.7m1.07 3.8l1.62 5.68m1.06 3.8l1.6 5.68m1.1 3.8l.8 2.84" stroke="#5e5e5e" stroke-width="2" fill="none"/><path d="M1127.35 836.16l-1.92.54-.3-1 1-.26.94-.28z" fill="#5e5e5e"/><path d="M1160.12 955.4l-8.35-12.47 8.92-2.53z" stroke="#5e5e5e" stroke-width="2" fill="#5e5e5e"/><path d="M1442.5 842.5v2.93m0 3.9v5.84m0 3.9v5.85m0 3.9v5.85m0 3.9v5.85m0 3.9v5.85m0 3.9v5.85m0 3.9v5.85m0 3.9v5.85m0 3.9v5.85m0 3.9V940" stroke="#5e5e5e" stroke-width="2" fill="none"/><path d="M1442.5 841.5l1-.02v1.05h-2v-1.05z" fill="#5e5e5e"/><path d="M1442.5 955.26l-4.64-14.26h9.28z" stroke="#5e5e5e" stroke-width="2" fill="#5e5e5e"/><path d="M683.3 836.03l-.78 2.85m-1.03 3.8l-1.56 5.7m-1.04 3.82l-1.55 5.7m-1.03 3.8l-1.55 5.7m-1.04 3.82l-1.55 5.7m-1.03 3.8l-1.56 5.72m-1.04 3.8l-1.55 5.7m-1.03 3.8l-1.55 5.72m-1.03 3.8l-1.56 5.7m-1.04 3.8l-1.55 5.72m-1.03 3.8l-1.56 5.7m-1.03 3.8l-.78 2.87" stroke="#5e5e5e" stroke-width="2" fill="none"/><path d="M683.32 835l1.2.32-.26 1-1.93-.53.27-1.02z" fill="#5e5e5e"/><path d="M650.85 955.38l-.73-15 8.94 2.45z" stroke="#5e5e5e" stroke-width="2" fill="#5e5e5e"/><path d="M783 835l.63 2.9m.84 3.82l1.25 5.75m.84 3.84l1.26 5.76m.84 3.83l1.25 5.74m.85 3.83l1.26 5.75m.85 3.83l1.25 5.75m.84 3.84l1.26 5.75m.84 3.82l1.25 5.75m.83 3.83l1.26 5.75m.83 3.83l1.26 5.75m.82 3.84l1.26 5.75m.84 3.83l.63 2.87" stroke="#5e5e5e" stroke-width="2" fill="none"/><path d="M783.98 834.83l-1.95.42-.2-.92 1.92-.58z" fill="#5e5e5e"/><path d="M809.3 955.34l-7.57-12.95 9.06-2z" stroke="#5e5e5e" stroke-width="2" fill="#5e5e5e"/><path d="M322.46 836.6l-.75 2.83m-1 3.78l-1.5 5.7m-1.02 3.77l-1.5 5.67m-1.02 3.8l-1.5 5.66m-1.02 3.78l-1.5 5.68m-1 3.78l-1.53 5.68m-1 3.78l-1.5 5.67m-1 3.8l-1.52 5.66m-1 3.78l-1.52 5.7m-1 3.77l-1.52 5.67m-1 3.8L296.5 934m-1 3.78l-.76 2.84" stroke="#5e5e5e" stroke-width="2" fill="none"/><path d="M323.7 835.88l-.28 1-1.93-.52.25-1z" fill="#5e5e5e"/><path d="M290.83 955.37l-.8-14.98 8.95 2.38z" stroke="#5e5e5e" stroke-width="2" fill="#5e5e5e"/><path d="M417.6 835.74l.76 2.86m1 3.8l1.5 5.73m1.02 3.8l1.5 5.74m1.02 3.8l1.5 5.73m1 3.8l1.52 5.73m1 3.82l1.52 5.72m1 3.8l1.5 5.73m1.02 3.8l1.5 5.73m1.02 3.82l1.5 5.72m1 3.8l1.52 5.73m1 3.82l1.52 5.72m1 3.8l.76 2.87" stroke="#5e5e5e" stroke-width="2" fill="none"/><path d="M418.58 835.5l-1.94.52-.25-.96 1.9-.58z" fill="#5e5e5e"/><path d="M449.17 955.37l-8.12-12.6 8.97-2.38z" stroke="#5e5e5e" stroke-width="2" fill="#5e5e5e"/><path d="M465.42 560.98l-1.63 2.58M461.6 567l-3.27 5.18m-2.17 3.45l-3.27 5.17m-2.16 3.45l-3.27 5.17m-2.17 3.44l-3.27 5.17m-2.18 3.45l-3.26 5.17m-2.2 3.45l-3.25 5.17m-2.18 3.44l-3.26 5.18m-2.17 3.45l-3.26 5.17m-2.18 3.45l-3.27 5.17m-2.18 3.45l-3.26 5.17m-2.2 3.44l-3.25 5.17m-2.18 3.45l-3.26 5.17m-2.17 3.45l-3.26 5.17m-2.18 3.44l-3.27 5.17m-2.18 3.45l-3.26 5.17m-2.2 3.45l-1.62 2.58" stroke="#5e5e5e" stroke-width="2" fill="none"/><path d="M466.85 560.6l-.6.93-1.68-1.06.5-.8z" fill="#5e5e5e"/><path d="M370.23 711.76l3.7-14.53 7.83 4.94z" stroke="#5e5e5e" stroke-width="2" fill="#5e5e5e"/><path d="M656.6 560.43l1.33 2.75m1.8 3.66l2.66 5.5m1.77 3.67l2.67 5.5m1.78 3.67l2.68 5.5m1.78 3.66l2.67 5.5m1.78 3.66l2.67 5.5m1.8 3.65l2.66 5.5m1.78 3.67l2.67 5.5m1.8 3.66l2.67 5.5m1.78 3.66l2.67 5.5m1.78 3.66l2.67 5.5m1.8 3.66l2.66 5.5m1.78 3.67l2.68 5.5m1.78 3.66l2.68 5.48m1.78 3.67l2.67 5.5m1.77 3.66l1.34 2.76" stroke="#5e5e5e" stroke-width="2" fill="none"/><path d="M657.5 560.02l-1.8.87-.42-.9 1.76-.95z" fill="#5e5e5e"/><path d="M730.08 711.6l-10.4-10.8 8.33-4.07z" stroke="#5e5e5e" stroke-width="2" fill="#5e5e5e"/><path d="M1208.8 577.17l-1.6 2.52m-2.17 3.35l-3.24 5.03m-2.17 3.35l-3.24 5.04m-2.17 3.35l-3.24 5.03m-2.17 3.36l-3.24 5.04m-2.17 3.36l-3.24 5.03m-2.17 3.36l-3.25 5.02m-2.16 3.35l-3.24 5.04m-2.16 3.36l-3.24 5.04m-2.16 3.35l-3.24 5.03m-2.16 3.36l-3.24 5.03m-2.16 3.36l-3.24 5.03m-2.16 3.36l-3.24 5.03m-2.16 3.35l-3.24 5.04m-2.16 3.35l-3.24 5.02m-2.16 3.36l-1.62 2.52" stroke="#5e5e5e" stroke-width="2" fill="none"/><path d="M1210.36 576.57h.03l-.76 1.17-1.68-1.1.36-.55z" fill="#5e5e5e"/><path d="M1119.53 715.83l3.83-14.5 7.8 5.02z" stroke="#5e5e5e" stroke-width="2" fill="#5e5e5e"/><path d="M1309.4 576.9l1.66 2.52m2.23 3.37l3.34 5.04m2.23 3.38l3.35 5.05m2.23 3.37l3.35 5.06m2.23 3.37l3.34 5.06m2.24 3.37l3.35 5.05m2.23 3.37l3.35 5.06m2.23 3.37l3.35 5.06m2.24 3.38l3.35 5.06m2.22 3.37l3.34 5.06m2.23 3.37l3.34 5.06m2.23 3.36l3.35 5.06m2.23 3.37l3.35 5.04m2.23 3.38l3.34 5.05m2.24 3.37l3.35 5.06m2.23 3.37l1.68 2.53" stroke="#5e5e5e" stroke-width="2" fill="none"/><path d="M1310.24 576.36l-1.67 1.1-.78-1.18 2.1-.45z" fill="#5e5e5e"/><path d="M1401.48 716.03l-11.74-9.34 7.73-5.13z" stroke="#5e5e5e" stroke-width="2" fill="#5e5e5e"/><path d="M747.34 293.16l-2.45 1.65m-3.28 2.2l-4.9 3.28m-3.26 2.2l-4.9 3.28m-3.27 2.2l-4.9 3.28m-3.27 2.2l-4.9 3.28m-3.27 2.2l-4.9 3.27m-3.26 2.2l-4.9 3.27m-3.27 2.2l-4.9 3.28m-3.26 2.2l-4.9 3.28m-3.27 2.2l-4.9 3.28m-3.26 2.2l-4.9 3.28m-3.27 2.2l-4.9 3.28m-3.26 2.2l-4.9 3.28m-3.26 2.2l-4.9 3.28m-3.26 2.2l-4.9 3.27m-3.27 2.18l-4.9 3.3m-3.26 2.18l-4.9 3.3m-3.26 2.18l-4.9 3.3m-3.27 2.18l-4.9 3.28m-3.25 2.2l-4.9 3.28m-3.27 2.2l-4.9 3.28m-3.26 2.2l-2.45 1.63" stroke="#5e5e5e" stroke-width="2" fill="none"/><path d="M749.23 293.1l-1.35.9-1.12-1.65.36-.24z" fill="#5e5e5e"/><path d="M563.2 416.7l9.26-11.8 5.16 7.7z" stroke="#5e5e5e" stroke-width="2" fill="#5e5e5e"/><path d="M1076 291.62l2.5 1.74m3.35 2.33l5.02 3.48m3.35 2.33l5.02 3.5m3.34 2.32l5.02 3.5m3.35 2.32l5.02 3.5m3.34 2.3l5.03 3.5m3.35 2.33l5.02 3.5m3.34 2.32l5.02 3.48m3.35 2.32l5.03 3.5m3.35 2.32l5.02 3.5m3.34 2.3l5.02 3.5m3.35 2.33l5.03 3.5m3.34 2.32l5.02 3.5m3.34 2.3l5.02 3.5m3.34 2.33l5.02 3.5m3.35 2.3l5.02 3.5m3.34 2.33l5.02 3.5m3.34 2.32l5.02 3.5m3.35 2.3l5.02 3.5m3.33 2.33l5.02 3.5m3.35 2.3l2.5 1.76" stroke="#5e5e5e" stroke-width="2" fill="none"/><path d="M1076.6 290.8l-1.16 1.66-1.3-.9 2.06-1.02z" fill="#5e5e5e"/><path d="M1255.84 416.65l-14.36-4.33 5.3-7.62z" stroke="#5e5e5e" stroke-width="2" fill="#5e5e5e"/><path d="M670 606c0-3.3 2.7-6 6-6h468c3.3 0 6 2.7 6 6v48c0 3.3-2.7 6-6 6H676c-3.3 0-6-2.7-6-6z" fill="none"/><use xlink:href="#l" transform="matrix(1,0,0,1,670,600) translate(78.18518518518516 35.33333333333333)"/><use xlink:href="#m" transform="matrix(1,0,0,1,670,600) translate(178.6296296296296 35.33333333333333)"/><path d="M1510 976c0-3.3 2.7-6 6-6h203c3.3 0 6 2.7 6 6v48c0 3.3-2.7 6-6 6h-203c-3.3 0-6-2.7-6-6z" fill="none"/><g><use xlink:href="#n" transform="matrix(1,0,0,1,1510,970) translate(15.129629629629648 35.33333333333333)"/><use xlink:href="#o" transform="matrix(1,0,0,1,1510,970) translate(84.61111111111111 35.33333333333333)"/></g><path d="M1160 226c0-3.3 2.7-6 6-6h203c3.3 0 6 2.7 6 6v48c0 3.3-2.7 6-6 6h-203c-3.3 0-6-2.7-6-6z" fill="none"/><g><use xlink:href="#p" transform="matrix(1,0,0,1,1160,220) translate(11.425925925925938 35.33333333333333)"/><use xlink:href="#o" transform="matrix(1,0,0,1,1160,220) translate(88.31481481481481 35.33333333333333)"/></g><defs><path fill="#333" d="M240-174c0 40-23 61-54 70L253 0h-59l-57-94H76V0H24v-248c93 4 217-23 216 74zM76-134c48-2 112 12 112-38 0-48-66-32-112-35v73" id="q"/><path fill="#333" d="M185-48c-13 30-37 53-82 52C43 2 14-33 14-96s30-98 90-98c62 0 83 45 84 108H66c0 31 8 55 39 56 18 0 30-7 34-22zm-45-69c5-46-57-63-70-21-2 6-4 13-4 21h74" id="r"/><path fill="#333" d="M220-157c-53 9-28 100-34 157h-49v-107c1-27-5-49-29-50C55-147 81-57 75 0H25l-1-190h47c2 12-1 28 3 38 10-53 101-56 108 0 13-22 24-43 59-42 82 1 51 116 57 194h-49v-107c-1-25-5-48-29-50" id="s"/><path fill="#333" d="M110-194c64 0 96 36 96 99 0 64-35 99-97 99-61 0-95-36-95-99 0-62 34-99 96-99zm-1 164c35 0 45-28 45-65 0-40-10-65-43-65-34 0-45 26-45 65 0 36 10 65 43 65" id="t"/><path fill="#333" d="M88-194c31-1 46 15 58 34l-1-101h50l1 261h-48c-2-10 0-23-3-31C134-8 116 4 84 4 32 4 16-41 15-95c0-56 19-97 73-99zm17 164c33 0 40-30 41-66 1-37-9-64-41-64s-38 30-39 65c0 43 13 65 39 65" id="u"/><path fill="#333" d="M85 4C-2 5 27-109 22-190h50c7 57-23 150 33 157 60-5 35-97 40-157h50l1 190h-47c-2-12 1-28-3-38-12 25-28 42-61 42" id="v"/><path fill="#333" d="M25 0v-261h50V0H25" id="w"/><path fill="#333" d="M133-34C117-15 103 5 69 4 32 3 11-16 11-54c-1-60 55-63 116-61 1-26-3-47-28-47-18 1-26 9-28 27l-52-2c7-38 36-58 82-57s74 22 75 68l1 82c-1 14 12 18 25 15v27c-30 8-71 5-69-32zm-48 3c29 0 43-24 42-57-32 0-66-3-65 30 0 17 8 27 23 27" id="x"/><path fill="#333" d="M135-150c-39-12-60 13-60 57V0H25l-1-190h47c2 13-1 29 3 40 6-28 27-53 61-41v41" id="y"/><path fill="#333" d="M25-224v-37h50v37H25zM25 0v-190h50V0H25" id="z"/><path fill="#333" d="M12 0v-35l95-120H19v-35h142v35L67-36h103V0H12" id="A"/><path fill="#333" d="M115-3C79 11 28 4 28-45v-112H4v-33h27l15-45h31v45h36v33H77v99c-1 23 16 31 38 25v30" id="B"/><path fill="#333" d="M135-194c87-1 58 113 63 194h-50c-7-57 23-157-34-157-59 0-34 97-39 157H25l-1-190h47c2 12-1 28 3 38 12-26 28-41 61-42" id="C"/><g id="a"><use transform="matrix(0.07407407407407407,0,0,0.07407407407407407,0,0)" xlink:href="#q"/><use transform="matrix(0.07407407407407407,0,0,0.07407407407407407,19.185185185185183,0)" xlink:href="#r"/><use transform="matrix(0.07407407407407407,0,0,0.07407407407407407,34,0)" xlink:href="#s"/><use transform="matrix(0.07407407407407407,0,0,0.07407407407407407,57.7037037037037,0)" xlink:href="#t"/><use transform="matrix(0.07407407407407407,0,0,0.07407407407407407,73.92592592592592,0)" xlink:href="#u"/><use transform="matrix(0.07407407407407407,0,0,0.07407407407407407,90.14814814814817,0)" xlink:href="#v"/><use transform="matrix(0.07407407407407407,0,0,0.07407407407407407,106.37037037037038,0)" xlink:href="#w"/><use transform="matrix(0.07407407407407407,0,0,0.07407407407407407,113.77777777777779,0)" xlink:href="#x"/><use transform="matrix(0.07407407407407407,0,0,0.07407407407407407,128.5925925925926,0)" xlink:href="#y"/><use transform="matrix(0.07407407407407407,0,0,0.07407407407407407,138.962962962963,0)" xlink:href="#z"/><use transform="matrix(0.07407407407407407,0,0,0.07407407407407407,146.3703703703704,0)" xlink:href="#A"/><use transform="matrix(0.07407407407407407,0,0,0.07407407407407407,159.70370370370375,0)" xlink:href="#x"/><use transform="matrix(0.07407407407407407,0,0,0.07407407407407407,174.5185185185186,0)" xlink:href="#B"/><use transform="matrix(0.07407407407407407,0,0,0.07407407407407407,183.33333333333334,0)" xlink:href="#z"/><use transform="matrix(0.07407407407407407,0,0,0.07407407407407407,190.7407407407408,0)" xlink:href="#t"/><use transform="matrix(0.07407407407407407,0,0,0.07407407407407407,206.96296296296302,0)" xlink:href="#C"/></g><g id="b"><use transform="matrix(0.07407407407407407,0,0,0.07407407407407407,0,0)" xlink:href="#z"/><use transform="matrix(0.07407407407407407,0,0,0.07407407407407407,7.4074074074074066,0)" xlink:href="#C"/><use transform="matrix(0.07407407407407407,0,0,0.07407407407407407,23.629629629629623,0)" xlink:href="#B"/><use transform="matrix(0.07407407407407407,0,0,0.07407407407407407,32.44444444444444,0)" xlink:href="#t"/></g><path fill="#333" d="M231 0h-52l-39-155L100 0H48L-1-190h46L77-45c9-52 24-97 36-145h53l37 145 32-145h46" id="D"/><g id="c"><use transform="matrix(0.07407407407407407,0,0,0.07407407407407407,0,0)" xlink:href="#B"/><use transform="matrix(0.07407407407407407,0,0,0.07407407407407407,8.814814814814815,0)" xlink:href="#D"/><use transform="matrix(0.07407407407407407,0,0,0.07407407407407407,29.555555555555557,0)" xlink:href="#t"/></g><path fill="#333" d="M137-138c1-29-70-34-71-4 15 46 118 7 119 86 1 83-164 76-172 9l43-7c4 19 20 25 44 25 33 8 57-30 24-41C81-84 22-81 20-136c-2-80 154-74 161-7" id="E"/><g id="d"><use transform="matrix(0.07407407407407407,0,0,0.07407407407407407,0,0)" xlink:href="#s"/><use transform="matrix(0.07407407407407407,0,0,0.07407407407407407,23.703703703703702,0)" xlink:href="#t"/><use transform="matrix(0.07407407407407407,0,0,0.07407407407407407,39.925925925925924,0)" xlink:href="#u"/><use transform="matrix(0.07407407407407407,0,0,0.07407407407407407,56.148148148148145,0)" xlink:href="#v"/><use transform="matrix(0.07407407407407407,0,0,0.07407407407407407,72.37037037037037,0)" xlink:href="#w"/><use transform="matrix(0.07407407407407407,0,0,0.07407407407407407,79.77777777777777,0)" xlink:href="#r"/><use transform="matrix(0.07407407407407407,0,0,0.07407407407407407,94.59259259259258,0)" xlink:href="#E"/></g><path fill="#333" d="M141-36C126-15 110 5 73 4 37 3 15-17 15-53c-1-64 63-63 125-63 3-35-9-54-41-54-24 1-41 7-42 31l-33-3c5-37 33-52 76-52 45 0 72 20 72 64v82c-1 20 7 32 28 27v20c-31 9-61-2-59-35zM48-53c0 20 12 33 32 33 41-3 63-29 60-74-43 2-92-5-92 41" id="F"/><use transform="matrix(0.06172839506172839,0,0,0.06172839506172839,0,0)" xlink:href="#F" id="e"/><path fill="#333" d="M96-169c-40 0-48 33-48 73s9 75 48 75c24 0 41-14 43-38l32 2c-6 37-31 61-74 61-59 0-76-41-82-99-10-93 101-131 147-64 4 7 5 14 7 22l-32 3c-4-21-16-35-41-35" id="G"/><use transform="matrix(0.06172839506172839,0,0,0.06172839506172839,0,0)" xlink:href="#G" id="f"/><path fill="#333" d="M85-194c31 0 48 13 60 33l-1-100h32l1 261h-30c-2-10 0-23-3-31C134-8 116 4 85 4 32 4 16-35 15-94c0-66 23-100 70-100zm9 24c-40 0-46 34-46 75 0 40 6 74 45 74 42 0 51-32 51-76 0-42-9-74-50-73" id="H"/><use transform="matrix(0.06172839506172839,0,0,0.06172839506172839,0,0)" xlink:href="#H" id="g"/><path fill="#333" d="M115-194c53 0 69 39 70 98 0 66-23 100-70 100C84 3 66-7 56-30L54 0H23l1-261h32v101c10-23 28-34 59-34zm-8 174c40 0 45-34 45-75 0-40-5-75-45-74-42 0-51 32-51 76 0 43 10 73 51 73" id="I"/><use transform="matrix(0.06172839506172839,0,0,0.06172839506172839,0,0)" xlink:href="#I" id="h"/><path fill="#333" d="M100-194c63 0 86 42 84 106H49c0 40 14 67 53 68 26 1 43-12 49-29l28 8c-11 28-37 45-77 45C44 4 14-33 15-96c1-61 26-98 85-98zm52 81c6-60-76-77-97-28-3 7-6 17-6 28h103" id="J"/><use transform="matrix(0.06172839506172839,0,0,0.06172839506172839,0,0)" xlink:href="#J" id="i"/><path fill="#333" d="M101-234c-31-9-42 10-38 44h38v23H63V0H32v-167H5v-23h27c-7-52 17-82 69-68v24" id="K"/><use transform="matrix(0.06172839506172839,0,0,0.06172839506172839,0,0)" xlink:href="#K" id="j"/><path fill="#333" d="M177-190C167-65 218 103 67 71c-23-6-38-20-44-43l32-5c15 47 100 32 89-28v-30C133-14 115 1 83 1 29 1 15-40 15-95c0-56 16-97 71-98 29-1 48 16 59 35 1-10 0-23 2-32h30zM94-22c36 0 50-32 50-73 0-42-14-75-50-75-39 0-46 34-46 75s6 73 46 73" id="L"/><use transform="matrix(0.06172839506172839,0,0,0.06172839506172839,0,0)" xlink:href="#L" id="k"/><path fill="#333" d="M76-208v77h127v40H76V0H24v-248h183v40H76" id="M"/><path fill="#333" d="M114-157C55-157 80-60 75 0H25v-261h50l-1 109c12-26 28-41 61-42 86-1 58 113 63 194h-50c-7-57 23-157-34-157" id="N"/><g id="l"><use transform="matrix(0.07407407407407407,0,0,0.07407407407407407,0,0)" xlink:href="#M"/><use transform="matrix(0.07407407407407407,0,0,0.07407407407407407,16.22222222222222,0)" xlink:href="#v"/><use transform="matrix(0.07407407407407407,0,0,0.07407407407407407,32.44444444444444,0)" xlink:href="#y"/><use transform="matrix(0.07407407407407407,0,0,0.07407407407407407,42.81481481481481,0)" xlink:href="#B"/><use transform="matrix(0.07407407407407407,0,0,0.07407407407407407,51.629629629629626,0)" xlink:href="#N"/><use transform="matrix(0.07407407407407407,0,0,0.07407407407407407,67.85185185185185,0)" xlink:href="#r"/><use transform="matrix(0.07407407407407407,0,0,0.07407407407407407,82.66666666666666,0)" xlink:href="#y"/></g><g id="m"><use transform="matrix(0.07407407407407407,0,0,0.07407407407407407,0,0)" xlink:href="#q"/><use transform="matrix(0.07407407407407407,0,0,0.07407407407407407,19.185185185185183,0)" xlink:href="#r"/><use transform="matrix(0.07407407407407407,0,0,0.07407407407407407,34,0)" xlink:href="#s"/><use transform="matrix(0.07407407407407407,0,0,0.07407407407407407,57.7037037037037,0)" xlink:href="#t"/><use transform="matrix(0.07407407407407407,0,0,0.07407407407407407,73.92592592592592,0)" xlink:href="#u"/><use transform="matrix(0.07407407407407407,0,0,0.07407407407407407,90.14814814814817,0)" xlink:href="#v"/><use transform="matrix(0.07407407407407407,0,0,0.07407407407407407,106.37037037037038,0)" xlink:href="#w"/><use transform="matrix(0.07407407407407407,0,0,0.07407407407407407,113.77777777777779,0)" xlink:href="#x"/><use transform="matrix(0.07407407407407407,0,0,0.07407407407407407,128.5925925925926,0)" xlink:href="#y"/><use transform="matrix(0.07407407407407407,0,0,0.07407407407407407,138.962962962963,0)" xlink:href="#z"/><use transform="matrix(0.07407407407407407,0,0,0.07407407407407407,146.3703703703704,0)" xlink:href="#A"/><use transform="matrix(0.07407407407407407,0,0,0.07407407407407407,159.70370370370375,0)" xlink:href="#x"/><use transform="matrix(0.07407407407407407,0,0,0.07407407407407407,174.5185185185186,0)" xlink:href="#B"/><use transform="matrix(0.07407407407407407,0,0,0.07407407407407407,183.33333333333334,0)" xlink:href="#z"/><use transform="matrix(0.07407407407407407,0,0,0.07407407407407407,190.7407407407408,0)" xlink:href="#t"/><use transform="matrix(0.07407407407407407,0,0,0.07407407407407407,206.96296296296302,0)" xlink:href="#C"/></g><g id="n"><use transform="matrix(0.07407407407407407,0,0,0.07407407407407407,0,0)" xlink:href="#M"/><use transform="matrix(0.07407407407407407,0,0,0.07407407407407407,16.22222222222222,0)" xlink:href="#z"/><use transform="matrix(0.07407407407407407,0,0,0.07407407407407407,23.629629629629623,0)" xlink:href="#C"/><use transform="matrix(0.07407407407407407,0,0,0.07407407407407407,39.85185185185185,0)" xlink:href="#x"/><use transform="matrix(0.07407407407407407,0,0,0.07407407407407407,54.66666666666666,0)" xlink:href="#w"/></g><path fill="#333" d="M190-63c-7 42-38 67-86 67-59 0-84-38-90-98-12-110 154-137 174-36l-49 2c-2-19-15-32-35-32-30 0-35 28-38 64-6 74 65 87 74 30" id="O"/><g id="o"><use transform="matrix(0.07407407407407407,0,0,0.07407407407407407,0,0)" xlink:href="#E"/><use transform="matrix(0.07407407407407407,0,0,0.07407407407407407,14.814814814814813,0)" xlink:href="#B"/><use transform="matrix(0.07407407407407407,0,0,0.07407407407407407,23.629629629629623,0)" xlink:href="#y"/><use transform="matrix(0.07407407407407407,0,0,0.07407407407407407,34,0)" xlink:href="#v"/><use transform="matrix(0.07407407407407407,0,0,0.07407407407407407,50.22222222222222,0)" xlink:href="#O"/><use transform="matrix(0.07407407407407407,0,0,0.07407407407407407,65.03703703703704,0)" xlink:href="#B"/><use transform="matrix(0.07407407407407407,0,0,0.07407407407407407,73.85185185185185,0)" xlink:href="#v"/><use transform="matrix(0.07407407407407407,0,0,0.07407407407407407,90.07407407407408,0)" xlink:href="#y"/><use transform="matrix(0.07407407407407407,0,0,0.07407407407407407,100.44444444444444,0)" xlink:href="#r"/></g><path fill="#333" d="M24 0v-248h52V0H24" id="P"/><g id="p"><use transform="matrix(0.07407407407407407,0,0,0.07407407407407407,0,0)" xlink:href="#P"/><use transform="matrix(0.07407407407407407,0,0,0.07407407407407407,7.4074074074074066,0)" xlink:href="#C"/><use transform="matrix(0.07407407407407407,0,0,0.07407407407407407,23.629629629629623,0)" xlink:href="#z"/><use transform="matrix(0.07407407407407407,0,0,0.07407407407407407,31.03703703703703,0)" xlink:href="#B"/><use transform="matrix(0.07407407407407407,0,0,0.07407407407407407,39.85185185185185,0)" xlink:href="#z"/><use transform="matrix(0.07407407407407407,0,0,0.07407407407407407,47.259259259259245,0)" xlink:href="#x"/><use transform="matrix(0.07407407407407407,0,0,0.07407407407407407,62.07407407407406,0)" xlink:href="#w"/></g></defs></g></svg>