<svg xmlns="http://www.w3.org/2000/svg" xmlns:xlink="http://www.w3.org/1999/xlink" xmlns:lucid="lucid" width="335" height="378.87"><g transform="translate(-523 -259)" lucid:page-tab-id="J7MeLhrsrGie"><path d="M0 0h1760v1360H0z" fill="#fff"/><path d="M543 586c0-3.3 2.7-6 6-6h22c3.3 0 6 2.7 6 6v25.87c0 3.3-2.7 6-6 6h-22c-3.3 0-6-2.7-6-6z" fill="none"/><use xlink:href="#a" transform="matrix(1,0,0,1,543,580) translate(9.71604938271605 24.244444444444444)"/><path d="M700 282v56M700 282.05V280M700 337.95V340M702 340h72c3.3 0 6 2.7 6 6v72M702.05 340H700M780 417.95V420M698 340h-72c-3.3 0-6 2.7-6 6v72M697.95 340H700M620 417.95V420M622 420h32c3.3 0 6 2.7 6 6v72M622.05 420H620M660 497.95V500M618 420h-32c-3.3 0-6 2.7-6 6v72M617.95 420H620M580 497.95V500M582 500h12c3.3 0 6 2.7 6 6v72M582.05 500H580M600 577.95V580M578 500h-12c-3.3 0-6 2.7-6 6v72M577.95 500H580M560 577.95V580M662 500h12c3.3 0 6 2.7 6 6v72M662.05 500H660M680 577.95V580M658 500h-12c-3.3 0-6 2.7-6 6v72M657.95 500H660M640 577.95V580M782 420h32c3.3 0 6 2.7 6 6v152M782.05 420H780M820 577.95V580M778 420h-32c-3.3 0-6 2.7-6 6v72M777.95 420H780M740 497.95V500M742 500h12c3.3 0 6 2.7 6 6v72M742.05 500H740M760 577.95V580M738 500h-12c-3.3 0-6 2.7-6 6v72M737.95 500H740M720 577.95V580" stroke="#5e5e5e" stroke-width="4" fill="none"/><path d="M584 586c0-3.3 2.7-6 6-6h22c3.3 0 6 2.7 6 6v25.87c0 3.3-2.7 6-6 6h-22c-3.3 0-6-2.7-6-6z" fill="none"/><use xlink:href="#b" transform="matrix(1,0,0,1,584,580) translate(9.024074074074075 24.244444444444444)"/><path d="M624 586c0-3.3 2.7-6 6-6h22c3.3 0 6 2.7 6 6v25.87c0 3.3-2.7 6-6 6h-22c-3.3 0-6-2.7-6-6z" fill="none"/><use xlink:href="#c" transform="matrix(1,0,0,1,624,580) translate(9.71604938271605 24.244444444444444)"/><path d="M664 586c0-3.3 2.7-6 6-6h22c3.3 0 6 2.7 6 6v25.87c0 3.3-2.7 6-6 6h-22c-3.3 0-6-2.7-6-6z" fill="none"/><use xlink:href="#d" transform="matrix(1,0,0,1,664,580) translate(9.024074074074075 24.244444444444444)"/><path d="M704 586c0-3.3 2.7-6 6-6h22c3.3 0 6 2.7 6 6v25.87c0 3.3-2.7 6-6 6h-22c-3.3 0-6-2.7-6-6z" fill="none"/><use xlink:href="#e" transform="matrix(1,0,0,1,704,580) translate(9.71604938271605 24.244444444444444)"/><path d="M744 586c0-3.3 2.7-6 6-6h22c3.3 0 6 2.7 6 6v25.87c0 3.3-2.7 6-6 6h-22c-3.3 0-6-2.7-6-6z" fill="none"/><use xlink:href="#f" transform="matrix(1,0,0,1,744,580) translate(12.66604938271605 24.244444444444444)"/><path d="M804 586c0-3.3 2.7-6 6-6h22c3.3 0 6 2.7 6 6v25.87c0 3.3-2.7 6-6 6h-22c-3.3 0-6-2.7-6-6z" fill="none"/><use xlink:href="#g" transform="matrix(1,0,0,1,804,580) translate(9.024074074074075 24.244444444444444)"/><defs><path d="M133-34C117-15 103 5 69 4 32 3 11-16 11-54c-1-60 55-63 116-61 1-26-3-47-28-47-18 1-26 9-28 27l-52-2c7-38 36-58 82-57s74 22 75 68l1 82c-1 14 12 18 25 15v27c-30 8-71 5-69-32zm-48 3c29 0 43-24 42-57-32 0-66-3-65 30 0 17 8 27 23 27" id="h"/><use transform="matrix(0.0728395061728395,0,0,0.0728395061728395,0,0)" xlink:href="#h" id="a"/><path d="M135-194c52 0 70 43 70 98 0 56-19 99-73 100-30 1-46-15-58-35L72 0H24l1-261h50v104c11-23 29-37 60-37zM114-30c31 0 40-27 40-66 0-37-7-63-39-63s-41 28-41 65c0 36 8 64 40 64" id="i"/><use transform="matrix(0.0728395061728395,0,0,0.0728395061728395,0,0)" xlink:href="#i" id="b"/><path d="M190-63c-7 42-38 67-86 67-59 0-84-38-90-98-12-110 154-137 174-36l-49 2c-2-19-15-32-35-32-30 0-35 28-38 64-6 74 65 87 74 30" id="j"/><use transform="matrix(0.0728395061728395,0,0,0.0728395061728395,0,0)" xlink:href="#j" id="c"/><path d="M88-194c31-1 46 15 58 34l-1-101h50l1 261h-48c-2-10 0-23-3-31C134-8 116 4 84 4 32 4 16-41 15-95c0-56 19-97 73-99zm17 164c33 0 40-30 41-66 1-37-9-64-41-64s-38 30-39 65c0 43 13 65 39 65" id="k"/><use transform="matrix(0.0728395061728395,0,0,0.0728395061728395,0,0)" xlink:href="#k" id="d"/><path d="M185-48c-13 30-37 53-82 52C43 2 14-33 14-96s30-98 90-98c62 0 83 45 84 108H66c0 31 8 55 39 56 18 0 30-7 34-22zm-45-69c5-46-57-63-70-21-2 6-4 13-4 21h74" id="l"/><use transform="matrix(0.0728395061728395,0,0,0.0728395061728395,0,0)" xlink:href="#l" id="e"/><path d="M121-226c-27-7-43 5-38 36h38v33H83V0H34v-157H6v-33h28c-9-59 32-81 87-68v32" id="m"/><use transform="matrix(0.0728395061728395,0,0,0.0728395061728395,0,0)" xlink:href="#m" id="f"/><path d="M195-6C206 82 75 100 31 46c-4-6-6-13-8-21l49-6c3 16 16 24 34 25 40 0 42-37 40-79-11 22-30 35-61 35-53 0-70-43-70-97 0-56 18-96 73-97 30 0 46 14 59 34l2-30h47zm-90-29c32 0 41-27 41-63 0-35-9-62-40-62-32 0-39 29-40 63 0 36 9 62 39 62" id="n"/><use transform="matrix(0.0728395061728395,0,0,0.0728395061728395,0,0)" xlink:href="#n" id="g"/></defs></g></svg>