<svg xmlns="http://www.w3.org/2000/svg" xmlns:xlink="http://www.w3.org/1999/xlink" xmlns:lucid="lucid" width="1442.62" height="1052.36"><g transform="translate(-208.69160752972527 -87.64256326050747)" lucid:page-tab-id="W.Mefm7AvwbM"><path d="M0 0h1760v1360H0z" fill="#fff"/><path d="M597 1066c0-3.3 2.7-6 6-6h659.3c3.32 0 6 2.7 6 6v48c0 3.3-2.68 6-6 6H603c-3.3 0-6-2.7-6-6z" fill="none"/><use xlink:href="#a" transform="matrix(1,0,0,1,596.9999999999999,1060) translate(29.796296296296305 21.111111111111114)"/><use xlink:href="#b" transform="matrix(1,0,0,1,596.9999999999999,1060) translate(75.35185185185186 21.111111111111114)"/><use xlink:href="#c" transform="matrix(1,0,0,1,596.9999999999999,1060) translate(158.00617283950618 21.111111111111114)"/><use xlink:href="#d" transform="matrix(1,0,0,1,596.9999999999999,1060) translate(212.2037037037037 21.111111111111114)"/><use xlink:href="#e" transform="matrix(1,0,0,1,596.9999999999999,1060) translate(352.6975308641975 21.111111111111114)"/><use xlink:href="#f" transform="matrix(1,0,0,1,596.9999999999999,1060) translate(537.5123456790122 21.111111111111114)"/><use xlink:href="#g" transform="matrix(1,0,0,1,596.9999999999999,1060) translate(588.0061728395061 21.111111111111114)"/><use xlink:href="#h" transform="matrix(1,0,0,1,596.9999999999999,1060) translate(225.10493827160494 47.777777777777786)"/><use xlink:href="#i" transform="matrix(1,0,0,1,596.9999999999999,1060) translate(349.54938271604937 47.777777777777786)"/><path d="M340 230c0 5.52-4.48 10-10 10s-10-4.48-10-10 4.48-10 10-10 10 4.48 10 10zM400 250c0 5.52-4.48 10-10 10s-10-4.48-10-10 4.48-10 10-10 10 4.48 10 10zM360 290c0 5.52-4.48 10-10 10s-10-4.48-10-10 4.48-10 10-10 10 4.48 10 10zM420 310c0 5.52-4.48 10-10 10s-10-4.48-10-10 4.48-10 10-10 10 4.48 10 10zM333.16 405.84c-3.03 4.62-9.22 5.92-13.85 2.9-4.6-3.03-5.9-9.23-2.88-13.85 3.02-4.63 9.22-5.93 13.84-2.9 4.62 3.02 5.92 9.2 2.9 13.84zM277.8 417.42c-3.03 4.63-9.23 5.92-13.85 2.9-4.63-3.02-5.92-9.22-2.9-13.84 3.02-4.62 9.22-5.92 13.84-2.9 4.6 3.02 5.9 9.22 2.9 13.84zM317.06 467c-3.02 4.62-9.22 5.92-13.84 2.9-4.62-3.03-5.92-9.22-2.9-13.85 3.02-4.62 9.22-5.92 13.84-2.9 4.63 3.03 5.92 9.23 2.9 13.85zM500 435.8c0 5.52-4.48 10-10 10s-10-4.48-10-10c0-5.53 4.48-10 10-10s10 4.47 10 10zM560 455.8c0 5.52-4.48 10-10 10s-10-4.48-10-10c0-5.53 4.48-10 10-10s10 4.47 10 10zM584.56 303.82c-1.86 5.2-7.6 7.9-12.8 6.03-5.2-1.87-7.88-7.6-6.02-12.8 1.87-5.2 7.6-7.9 12.8-6.02 5.2 1.87 7.9 7.6 6.02 12.8zM634.26 342.95c-1.87 5.2-7.6 7.9-12.8 6.02-5.2-1.87-7.9-7.6-6.02-12.8 1.86-5.2 7.6-7.9 12.8-6.02 5.2 1.87 7.88 7.6 6.02 12.8zM595.28 261.05c2.4 4.97.3 10.95-4.66 13.35-4.98 2.4-10.96.3-13.35-4.66-2.4-4.98-.3-10.96 4.66-13.35 4.98-2.4 10.95-.32 13.35 4.65zM658 253c2.4 4.98.32 10.96-4.65 13.36-4.98 2.4-10.95.3-13.35-4.67-2.4-4.98-.3-10.96 4.66-13.36 4.98-2.4 10.95-.3 13.35 4.67zM682.36 450c0 5.52-4.48 10-10 10-5.53 0-10-4.48-10-10s4.47-10 10-10c5.52 0 10 4.48 10 10zM742.36 470c0 5.52-4.48 10-10 10-5.53 0-10-4.48-10-10s4.47-10 10-10c5.52 0 10 4.48 10 10zM800 490c0 5.52-4.48 10-10 10s-10-4.48-10-10 4.48-10 10-10 10 4.48 10 10zM860 510c0 5.52-4.48 10-10 10s-10-4.48-10-10 4.48-10 10-10 10 4.48 10 10zM742.36 530c0 5.52-4.48 10-10 10-5.53 0-10-4.48-10-10s4.47-10 10-10c5.52 0 10 4.48 10 10z" stroke="#5e5e5e" stroke-width="3" fill="#333"/><path d="M228.7 173.64c0-3.3 2.68-6 6-6H894c3.3 0 6 2.7 6 6V574c0 3.3-2.7 6-6 6H234.7c-3.32 0-6-2.7-6-6z" fill-opacity="0"/><path d="M245.18 167.64h9m5.98 0h9m6 0h8.98m6 0h8.98m6 0h9m5.98 0h9m6 0h8.98m6 0h8.98m6 0h9m5.98 0h9m5.98 0h9m6 0H419m6 0h8.98m6 0h9m5.98 0h9m5.98 0h9m6 0h8.98m6 0h8.98m6 0h9m5.98 0h9m6 0h8.98m6 0h8.98m6 0h9m5.98 0h9m5.98 0h9m6 0h8.98m6 0h8.98m6 0h9m5.98 0h9m5.98 0h9m6 0h8.98m6 0h8.98m6 0h9m5.98 0h9m6 0h8.98m6 0h8.98m6 0h9m5.98 0h9m5.98 0h9m6 0h8.98m6 0h8.98m6 0h9m5.98 0h9m5.98 0h4.5l3.03.82 2.15 2.15.82 3.04v4.45m0 5.92v8.9m0 5.93v8.9m0 5.93v8.9m0 5.93v8.9m0 5.93v8.9m0 5.93v8.9m0 5.93v8.9m0 5.92v8.9m0 5.93v8.9m0 5.92v8.9m0 5.93v8.9m0 5.93v8.9m0 5.93v8.9m0 5.93v8.88m0 5.93v8.9m0 5.94v8.9m0 5.93v8.9m0 5.93v8.9m0 5.93v8.9m0 5.93v8.9m0 5.92v8.9m0 5.93v8.9m0 5.94v8.9m0 5.93v8.9m0 5.93v8.9m0 5.92v8.9m0 5.93V574l-.82 3.03-2.15 2.15-3.03.82h-4.5m-6 0h-8.98m-6 0h-8.98m-6 0h-9m-5.98 0h-9m-6 0h-8.98m-6 0h-8.98m-6 0h-9m-5.98 0h-9m-5.98 0h-9m-6 0h-8.98m-6 0h-8.98m-6 0h-9m-5.98 0h-9m-5.98 0h-9m-6 0h-8.98m-6 0h-8.98m-6 0h-9m-5.98 0h-9m-6 0h-8.98m-6 0h-8.98m-6 0h-9m-5.98 0h-9m-5.98 0h-9m-6 0h-8.98m-6 0h-8.98m-6 0h-9m-5.98 0h-9m-5.98 0h-9m-6 0h-8.98m-6 0H440m-6 0h-9m-5.98 0h-9m-6 0h-8.98m-6 0h-8.98m-6 0h-9m-5.98 0h-9m-5.98 0h-9m-6 0h-8.98m-6 0h-8.98m-6 0h-9m-5.98 0h-9m-5.98 0h-9m-6 0h-8.98m-6 0h-4.5l-3.02-.82-2.15-2.15-.8-3.03v-4.45m0-5.93v-8.9m0-5.93v-8.9m0-5.94v-8.9m0-5.92v-8.9m0-5.93v-8.9m0-5.92v-8.9m0-5.93v-8.9m0-5.93v-8.9m0-5.92v-8.9m0-5.93v-8.9m0-5.93v-8.9m0-5.93v-8.9m0-5.92v-8.9m0-5.92v-8.9m0-5.93v-8.9m0-5.93v-8.9m0-5.93v-8.9m0-5.93v-8.9m0-5.92v-8.9m0-5.93V273m0-5.94v-8.9m0-5.93v-8.9m0-5.93v-8.9m0-5.92v-8.9m0-5.93v-8.9m0-5.93v-8.9m0-5.93v-4.46l.8-3.03 2.16-2.14 3.03-.82h4.5" stroke="#5e5e5e" stroke-width="3" fill="none"/><path d="M1071.3 230c0 5.52-4.47 10-10 10-5.5 0-10-4.48-10-10s4.5-10 10-10c5.53 0 10 4.48 10 10zM1131.3 250c0 5.52-4.47 10-10 10-5.5 0-10-4.48-10-10s4.5-10 10-10c5.53 0 10 4.48 10 10zM1091.3 290c0 5.52-4.47 10-10 10-5.5 0-10-4.48-10-10s4.5-10 10-10c5.53 0 10 4.48 10 10zM1151.3 310c0 5.52-4.47 10-10 10-5.5 0-10-4.48-10-10s4.5-10 10-10c5.53 0 10 4.48 10 10zM1064.47 405.84c-3.03 4.62-9.22 5.92-13.85 2.9-4.62-3.03-5.92-9.23-2.9-13.85 3.03-4.63 9.23-5.93 13.85-2.9 4.62 3.02 5.92 9.2 2.9 13.84zM1009.1 417.42c-3.03 4.63-9.22 5.92-13.85 2.9-4.62-3.02-5.92-9.22-2.9-13.84 3.03-4.62 9.23-5.92 13.85-2.9 4.62 3.02 5.92 9.22 2.9 13.84zM1048.37 467c-3.02 4.62-9.22 5.92-13.84 2.9-4.62-3.03-5.92-9.22-2.9-13.85 3.02-4.62 9.22-5.92 13.84-2.9 4.62 3.03 5.92 9.23 2.9 13.85zM1231.3 435.8c0 5.52-4.47 10-10 10-5.5 0-10-4.48-10-10 0-5.53 4.5-10 10-10 5.53 0 10 4.47 10 10zM1291.3 455.8c0 5.52-4.47 10-10 10-5.5 0-10-4.48-10-10 0-5.53 4.5-10 10-10 5.53 0 10 4.47 10 10zM1315.87 303.82c-1.87 5.2-7.6 7.9-12.8 6.03-5.2-1.87-7.9-7.6-6.02-12.8 1.87-5.2 7.6-7.9 12.8-6.02 5.2 1.87 7.9 7.6 6.02 12.8zM1365.56 342.95c-1.87 5.2-7.6 7.9-12.8 6.02-5.2-1.87-7.9-7.6-6.02-12.8 1.87-5.2 7.6-7.9 12.8-6.02 5.2 1.87 7.9 7.6 6.02 12.8zM1326.6 261.05c2.4 4.97.3 10.95-4.68 13.35-4.97 2.4-10.95.3-13.35-4.66-2.4-4.98-.3-10.96 4.67-13.35 4.97-2.4 10.95-.32 13.35 4.65zM1389.32 253c2.4 4.98.3 10.96-4.66 13.36-4.98 2.4-10.96.3-13.35-4.67-2.4-4.98-.3-10.96 4.67-13.36 4.98-2.4 10.95-.3 13.35 4.67zM1413.66 450c0 5.52-4.47 10-10 10-5.52 0-10-4.48-10-10s4.48-10 10-10c5.53 0 10 4.48 10 10zM1473.66 470c0 5.52-4.47 10-10 10-5.52 0-10-4.48-10-10s4.48-10 10-10c5.53 0 10 4.48 10 10zM1531.3 490c0 5.52-4.47 10-10 10-5.5 0-10-4.48-10-10s4.5-10 10-10c5.53 0 10 4.48 10 10zM1591.3 510c0 5.52-4.47 10-10 10-5.5 0-10-4.48-10-10s4.5-10 10-10c5.53 0 10 4.48 10 10zM1473.66 530c0 5.52-4.47 10-10 10-5.52 0-10-4.48-10-10s4.48-10 10-10c5.53 0 10 4.48 10 10z" stroke="#5e5e5e" stroke-width="3" fill="#333"/><path d="M960 173.64c0-3.3 2.7-6 6-6h659.3c3.32 0 6 2.7 6 6V574c0 3.3-2.68 6-6 6H966c-3.3 0-6-2.7-6-6z" fill-opacity="0"/><path d="M976.5 167.64h8.98m6 0h8.98m6 0h9m5.98 0h9m6 0h8.98m6 0h8.98m6 0h9m5.98 0h9m5.98 0h9m6 0h8.98m6 0h8.98m6 0h9m5.98 0h9m5.98 0h9m6 0h8.98m6 0h8.98m6 0h9m5.98 0h9m6 0h8.98m6 0h8.98m6 0h9m5.98 0h9m5.98 0h9m6 0h8.98m6 0h8.98m6 0h9m5.98 0h9m5.98 0h9m6 0h8.98m6 0h8.98m6 0h9m5.98 0h9m6 0h8.98m6 0h8.98m6 0h9m5.98 0h9m5.98 0h9m6 0h8.98m6 0h8.98m6 0h9m5.98 0h9m5.98 0h9m6 0h8.98m6 0h4.5l3.02.82 2.15 2.15.8 3.04v4.45m0 5.92v8.9m0 5.93v8.9m0 5.93v8.9m0 5.93v8.9m0 5.93v8.9m0 5.93v8.9m0 5.93v8.9m0 5.92v8.9m0 5.93v8.9m0 5.92v8.9m0 5.93v8.9m0 5.93v8.9m0 5.93v8.9m0 5.93v8.88m0 5.93v8.9m0 5.94v8.9m0 5.93v8.9m0 5.93v8.9m0 5.93v8.9m0 5.93v8.9m0 5.92v8.9m0 5.93v8.9m0 5.94v8.9m0 5.93v8.9m0 5.93v8.9m0 5.92v8.9m0 5.93V574l-.8 3.03-2.16 2.15-3.03.82h-4.5m-5.98 0h-9m-5.98 0h-9m-6 0h-8.98m-6 0h-8.98m-6 0h-9m-5.98 0h-9m-6 0h-8.98m-6 0h-8.98m-6 0h-9m-5.98 0h-9m-5.98 0h-9m-6 0H1441m-6 0h-8.98m-6 0h-9m-5.98 0h-9m-5.98 0h-9m-6 0h-8.98m-6 0h-8.98m-6 0h-9m-5.98 0h-9m-6 0h-8.98m-6 0h-8.98m-6 0h-9m-5.98 0h-9m-5.98 0h-9m-6 0h-8.98m-6 0h-8.98m-6 0h-9m-5.98 0h-9m-5.98 0h-9m-6 0h-8.98m-6 0h-8.98m-6 0h-9m-5.98 0h-9m-6 0h-8.98m-6 0h-8.98m-6 0h-9m-5.98 0h-9m-5.98 0h-9m-6 0h-8.98m-6 0h-8.98m-6 0h-9m-5.98 0h-9m-5.98 0H966l-3.03-.82-2.15-2.15L960 574v-4.45m0-5.93v-8.9m0-5.93v-8.9m0-5.94v-8.9m0-5.92v-8.9m0-5.93v-8.9m0-5.92v-8.9m0-5.93v-8.9m0-5.93v-8.9m0-5.92v-8.9m0-5.93v-8.9m0-5.93v-8.9m0-5.93v-8.9m0-5.92v-8.9m0-5.92v-8.9m0-5.93v-8.9m0-5.93v-8.9m0-5.93v-8.9m0-5.93v-8.9m0-5.92v-8.9m0-5.93V273m0-5.94v-8.9m0-5.93v-8.9m0-5.93v-8.9m0-5.92v-8.9m0-5.93v-8.9m0-5.93v-8.9m0-5.93v-4.46l.82-3.03 2.15-2.14 3.03-.82h4.5" stroke="#5e5e5e" stroke-width="3" fill="none"/><path d="M978.67 418.9c-1.42-3-.82-7.46 1.35-9.96l21.06-24.4c2.16-2.5 6.57-4.98 9.84-5.53l48.16-8c3.27-.56 8.07.6 10.72 2.6l30.4 22.8c2.65 2 3.7 6.05 2.36 9.08l-15.12 34.04-4.88 10.96-15.12 34.04c-1.35 3.03-5.12 5.24-8.42 4.94l-43.04-3.92c-3.3-.3-7.13-2.97-8.55-5.96z" fill-opacity="0"/><path d="M978.54 411.7l.38-1.08 1.1-1.68 3.16-3.66m4.2-4.88l6.33-7.32m4.22-4.88l3.16-3.66 1.57-1.5 1.02-.74m3.98-2.24l1.34-.55 1.92-.5 4.8-.8m6.44-1.06l9.63-1.6m6.4-1.08l9.64-1.6m6.43-1.07l4.8-.8 3.15-.08.23.06m4.37 1.05l2.82 1.45.16.12 3.04 2.28m4.05 3.04l6.07 4.56m4.06 3.04l6.08 4.56m4.06 3.04l3.04 2.28 1.5 1.58 1 2 .43 2.18-.2 2.2-.37 1.12-2.27 5.1m-3.03 6.8l-4.54 10.23m-3.02 6.8l-2.26 5.12-1.47 3.3m-1.94 4.37l-1.47 3.28-2.27 5.1m-3.03 6.8l-4.54 10.23m-3.02 6.8l-2.26 5.12-1.33 2-.53.43m-3.5 2.1l-.16.1-2.4.33-.48-.02-4.3-.4m-5.74-.52l-8.6-.78m-5.75-.52l-8.6-.78m-5.75-.53l-4.3-.4-2.37-.56-.7-.37m-3.56-2.42l-.08-.07-1.53-1.95-.3-.57-2.16-4.55m-2.87-6.07l-4.32-9.1m-2.87-6.07l-4.3-9.1m-2.9-6.08l-4.3-9.1m-2.88-6.07l-2.15-4.55-.62-1.95-.07-1.1" stroke="#5e5e5e" stroke-width="3" fill="none"/><path d="M1028.73 242.13c-1.42-3-.82-7.45 1.35-9.96l21.06-24.4c2.17-2.5 6.6-4.2 9.88-3.8l43.03 5.3c3.28.4 7.97 2.5 10.47 4.68l30.96 27.1c2.5 2.18 5.37 6.5 6.42 9.64l16.2 48.6c1.05 3.15.34 7.9-1.6 10.58l-18 25.24c-1.94 2.7-6.02 3.94-9.12 2.78l-73.7-27.57c-3.1-1.16-6.77-4.53-8.2-7.52z" fill-opacity="0"/><path d="M1028.6 234.94l.38-1.1 1.1-1.67 3.16-3.66m4.2-4.87l6.33-7.32m4.2-4.87l3.17-3.66 1.57-1.4 1-.6m4.06-1.57l1.28-.25h1.98l4.3.55m5.74.7l8.6 1.06m5.74.7l8.6 1.07m5.74.7l4.3.54 3.35.93m4.16 1.94l2.24 1.23.72.58 3.1 2.7m4.12 3.62l6.2 5.42m4.12 3.6l6.2 5.43m4.13 3.6l3.08 2.72 1.6 1.6.76 1m2.6 3.87l.77 1.48.7 1.7 1.62 4.85m2.16 6.5l3.24 9.7m2.16 6.5l3.24 9.7m2.16 6.5l1.62 4.86.46 2.54-.05.72m-.67 4.32l-.6 1.8-.72 1.2-2.7 3.8m-3.6 5.03l-5.4 7.6m-3.6 5.03l-2.7 3.8-1.56 1.54-.74.4m-3.82 1.2l-1.83-.05-1.17-.32-4.42-1.66m-5.9-2.2l-8.84-3.3m-5.9-2.2l-8.84-3.32m-5.9-2.2l-8.84-3.3m-5.9-2.22l-8.84-3.3m-5.9-2.2l-4.42-1.67-2.33-1.2-.6-.48m-3.35-3.04l-.34-.36-1.47-2.22-.1-.2-2.17-4.56m-2.87-6.07l-4.32-9.1m-2.87-6.08l-4.32-9.1m-2.87-6.07l-4.32-9.1m-2.87-6.07l-2.17-4.55-.62-1.95-.06-1.1" stroke="#5e5e5e" stroke-width="3" fill="none"/><path d="M1287.14 305.6c-1.18-3.1-1.5-8.2-.7-11.43l10.86-44.34c.8-3.22 4.05-6.43 7.28-7.17l49.57-11.32c3.23-.74 8.4-.5 11.54.56l33.6 11.2c3.15 1.05 5.9 4.58 6.16 7.88l4.08 53.04c.25 3.3-.98 8.25-2.76 11.04l-28.56 44.88c-1.78 2.8-5.84 4.47-9.07 3.75l-59.57-13.4c-3.23-.7-6.8-3.8-8-6.9z" fill-opacity="0"/><path d="M1286.2 297.62l.02-2.43.2-1.03 1.1-4.43m1.44-5.9l2.18-8.88m1.45-5.92l2.16-8.87m1.45-5.9l1.1-4.44 1.16-2.6.22-.26m3.05-2.92l1.16-.78 1.68-.6 4.95-1.14m6.6-1.5l9.93-2.27m6.6-1.52l9.92-2.26m6.6-1.5l4.97-1.14 3.48-.26m4.62.25l3.17.48.27.1 5.03 1.68m6.73 2.24l10.08 3.36m6.73 2.24l5.04 1.68 2.3 1.24.38.38m2.55 3.28l.35.62.58 2.36.3 3.98m.4 5.3l.63 7.96m.4 5.3l.6 7.96m.4 5.3l.63 7.96m.4 5.3l.3 3.98-.24 3.44m-1.2 4.43l-.58 1.82-.74 1.34-2.14 3.37m-2.86 4.5l-4.28 6.72m-2.86 4.48l-4.28 6.74m-2.86 4.48l-4.28 6.73m-2.86 4.5l-2.14 3.36-1.47 1.67-.74.5m-3.77 1.58l-1.9.16-1.18-.15-4.47-1.02m-5.96-1.33l-8.93-2m-5.97-1.35l-8.93-2m-5.96-1.34l-8.94-2m-5.95-1.34l-4.47-1-2.45-.96-.53-.37m-3.28-2.85l-.44-.47-1.3-2.28-1.44-3.78m-1.93-5.04l-2.87-7.56m-1.93-5.04l-2.9-7.56m-1.9-5.04l-1.46-3.78-.74-3.38" stroke="#5e5e5e" stroke-width="3" fill="none"/><path d="M1393.84 484.6c-2.12-2.54-4.14-7.27-4.5-10.56l-3.68-33.08c-.36-3.3 2.02-6.14 5.33-6.36l63-4.2c3.32-.22 8.48.63 11.54 1.9l133.92 55.4c3.06 1.27 5.54 5 5.54 8.3v23c0 3.3-2.63 6.53-5.88 7.18l-113.24 22.64c-3.25.65-8.5.53-11.7-.28l-28.36-7.08c-3.2-.8-7.54-3.52-9.66-6.07z" fill-opacity="0"/><path d="M1390.3 477.37l-.85-2.58-.1-.76-.56-4.96m-.75-6.62l-1.1-9.92m-.74-6.62l-.54-4.96.42-2.9 1.7-2.24 2.65-1.16.56-.06 4.7-.3m6.32-.43l9.45-.63m6.3-.42l9.46-.64m6.3-.42l9.45-.63m6.3-.42l4.73-.3 3.52.3m4.64.63l3.38.96 4.02 1.66m5.36 2.2l8.03 3.34m5.36 2.2l8.04 3.34m5.36 2.22l8.03 3.32m5.36 2.22l8.03 3.32m5.35 2.22l8.04 3.32m5.35 2.22l8.04 3.32m5.37 2.22l8.03 3.32m5.36 2.22l8.03 3.33m5.35 2.2l8.03 3.33m5.36 2.2l4.02 1.68 2.08 1.3.46.5m2.33 3.45l.14.27.52 2.43V499.45m0 4.6v6.9m0 4.6V519l-.57 2.7-1.54 2.32-2.24 1.64-1.54.52-4.25.85m-5.66 1.13l-8.48 1.7m-5.67 1.13l-8.5 1.7m-5.65 1.12l-8.5 1.7m-5.65 1.13l-8.5 1.7m-5.66 1.13l-8.5 1.7m-5.66 1.13l-8.5 1.7m-5.66 1.14l-8.5 1.7m-5.65 1.13l-4.25.85-3.52.17m-4.7.04l-3.48-.5-4.25-1.06m-5.68-1.42l-8.5-2.12m-5.68-1.42l-4.25-1.06-2.1-.73-1.1-.55m-3.92-2.45l-1.27-1.02-1.27-1.3-3.17-3.82m-4.25-5.08l-6.34-7.6m-4.23-5.1l-6.34-7.6m-4.24-5.1l-6.35-7.6m-4.24-5.08l-3.16-3.8-1.8-2.98" stroke="#5e5e5e" stroke-width="3" fill="none"/><path d="M1158.95 444.52c-2.18-2.5-2.05-6.42.3-8.76l21.5-21.52c2.35-2.34 6.93-4.45 10.23-4.7l53.04-4.08c3.3-.25 8.38.74 11.35 2.22l39.26 19.64c2.97 1.48 6.93 4.87 8.86 7.56l18 25.24c1.94 2.7 1.48 6.65-1.02 8.83l-30.96 27.1c-2.5 2.18-7.15 3.4-10.4 2.7l-83.25-17.5c-3.24-.7-7.64-3.27-9.82-5.77z" fill-opacity="0"/><path d="M1166.77 428.23l6.46-6.46m4.3-4.3l3.23-3.23 2.75-2.04m4.18-1.83l.98-.4 2.32-.43 3.98-.3m5.3-.4l7.96-.63m5.3-.4l7.96-.6m5.3-.4l7.96-.63m5.3-.4l3.98-.3 3.48.25m4.54.9l3.14.97.2.08 3.9 1.97m5.25 2.6l7.85 3.94m5.24 2.6l7.85 3.94m5.24 2.6l3.93 1.98 2.13 1.26.83.63m3.57 3.04l1.7 1.85.62.78 2.7 3.8m3.6 5.03l5.4 7.6m3.6 5.03l2.7 3.8.96 1.98.23 2.17-.46 2.13-1.1 1.9-.66.65-3.1 2.7m-4.12 3.62l-6.2 5.42m-4.12 3.6l-6.2 5.43m-4.13 3.6l-3.08 2.72-2.2 1.43-.65.22m-4.25 1.08l-2.05.15-1.24-.17-4.16-.87m-5.55-1.18l-8.33-1.75m-5.56-1.17l-8.33-1.76m-5.54-1.16l-8.32-1.76m-5.55-1.16l-8.34-1.76m-5.55-1.17l-8.32-1.75m-5.55-1.17l-4.16-.86-2.1-.64-1.15-.52m-3.97-2.33l-1.18-.88-1.42-1.4-2.7-3.08m-3.62-4.14l-5.42-6.2m-3.6-4.12l-5.43-6.2m-3.6-4.13l-2.72-3.08-1.13-1.9-.42-2.13.3-2.15.98-1.95.56-.64 3.23-3.23" stroke="#5e5e5e" stroke-width="3" fill="none"/><path d="M708.3 696.36c0 5.52-4.47 10-10 10-5.5 0-10-4.48-10-10 0-5.53 4.5-10 10-10 5.53 0 10 4.47 10 10zM768.3 716.36c0 5.52-4.47 10-10 10-5.5 0-10-4.48-10-10 0-5.53 4.5-10 10-10 5.53 0 10 4.47 10 10zM728.3 756.36c0 5.52-4.47 10-10 10-5.5 0-10-4.48-10-10 0-5.53 4.5-10 10-10 5.53 0 10 4.47 10 10zM788.3 776.36c0 5.52-4.47 10-10 10-5.5 0-10-4.48-10-10 0-5.53 4.5-10 10-10 5.53 0 10 4.47 10 10zM701.47 872.2c-3.03 4.62-9.22 5.9-13.85 2.9-4.62-3.03-5.92-9.23-2.9-13.85 3.03-4.62 9.23-5.92 13.85-2.9 4.62 3.02 5.92 9.22 2.9 13.84zM646.1 883.78c-3.03 4.62-9.22 5.92-13.85 2.9-4.62-3.02-5.92-9.22-2.9-13.84 3.03-4.63 9.23-5.92 13.85-2.9 4.62 3.02 5.92 9.22 2.9 13.84zM685.37 933.36c-3.02 4.62-9.22 5.92-13.84 2.9-4.62-3.03-5.92-9.23-2.9-13.85 3.02-4.6 9.22-5.9 13.84-2.9 4.62 3.04 5.92 9.23 2.9 13.86zM868.3 902.15c0 5.52-4.47 10-10 10-5.5 0-10-4.48-10-10s4.5-10 10-10c5.53 0 10 4.48 10 10zM928.3 922.15c0 5.52-4.47 10-10 10-5.5 0-10-4.48-10-10s4.5-10 10-10c5.53 0 10 4.48 10 10zM952.87 770.18c-1.87 5.2-7.6 7.9-12.8 6.02-5.2-1.86-7.9-7.6-6.02-12.8 1.87-5.2 7.6-7.88 12.8-6.02 5.2 1.87 7.9 7.6 6.02 12.8zM1002.56 809.3c-1.87 5.2-7.6 7.9-12.8 6.03-5.2-1.87-7.9-7.6-6.02-12.8 1.87-5.2 7.6-7.9 12.8-6.02 5.2 1.88 7.9 7.6 6.02 12.8zM963.6 727.4c2.4 4.98.3 10.96-4.68 13.36-4.97 2.4-10.95.3-13.35-4.67-2.4-4.98-.3-10.96 4.67-13.36 4.97-2.4 10.95-.3 13.35 4.67zM1026.32 719.37c2.4 4.97.3 10.95-4.66 13.35-4.98 2.4-10.96.3-13.35-4.67-2.4-4.97-.3-10.95 4.67-13.35 4.98-2.4 10.95-.3 13.35 4.67zM1050.66 916.36c0 5.52-4.47 10-10 10-5.52 0-10-4.48-10-10 0-5.53 4.48-10 10-10 5.53 0 10 4.47 10 10zM1110.66 936.36c0 5.52-4.47 10-10 10-5.52 0-10-4.48-10-10 0-5.53 4.48-10 10-10 5.53 0 10 4.47 10 10zM1168.3 956.36c0 5.52-4.47 10-10 10-5.5 0-10-4.48-10-10 0-5.53 4.5-10 10-10 5.53 0 10 4.47 10 10zM1228.3 976.36c0 5.52-4.47 10-10 10-5.5 0-10-4.48-10-10 0-5.53 4.5-10 10-10 5.53 0 10 4.47 10 10zM1110.66 996.36c0 5.52-4.47 10-10 10-5.52 0-10-4.48-10-10 0-5.53 4.48-10 10-10 5.53 0 10 4.47 10 10z" stroke="#5e5e5e" stroke-width="3" fill="#333"/><path d="M597 640c0-3.3 2.7-6 6-6h659.3c3.32 0 6 2.7 6 6v400.36c0 3.3-2.68 6-6 6H603c-3.3 0-6-2.7-6-6z" fill-opacity="0"/><path d="M613.5 634h8.98m6 0h8.98m6 0h9m5.98 0h9m6 0h8.98m6 0h8.98m6 0h9m5.98 0h9m5.98 0h9m6 0h8.98m6 0h8.98m6 0h9m5.98 0h9m5.98 0h9m6 0h8.98m6 0h8.98m6 0h9m5.98 0h9m6 0h8.98m6 0h8.98m6 0h9m5.98 0h9m5.98 0h9m6 0h8.98m6 0h8.98m6 0h9m5.98 0h9m5.98 0h9m6 0h8.98m6 0h8.98m6 0h9m5.98 0h9m6 0h8.98m6 0h8.98m6 0h9m5.98 0h9m5.98 0h9m6 0h8.98m6 0h8.98m6 0h9m5.98 0h9m5.98 0h9m6 0h8.98m6 0h4.5l3.02.82 2.15 2.15.8 3.03v4.45m0 5.93v8.9m0 5.93v8.9m0 5.94v8.9m0 5.92v8.9m0 5.93v8.9m0 5.92v8.9m0 5.93v8.9m0 5.93v8.9m0 5.92v8.9m0 5.93v8.9m0 5.93v8.9m0 5.93v8.9m0 5.92v8.9m0 5.92v8.9m0 5.93v8.9m0 5.93v8.9m0 5.93v8.9m0 5.93v8.9m0 5.92v8.9m0 5.93v8.9m0 5.94v8.9m0 5.93v8.9m0 5.93v8.9m0 5.92v8.9m0 5.93v8.9m0 5.93v8.9m0 5.93v4.46l-.8 3.03-2.16 2.14-3.03.82h-4.5m-5.98 0h-9m-5.98 0h-9m-6 0h-8.98m-6 0h-8.98m-6 0h-9m-5.98 0h-9m-6 0h-8.98m-6 0h-8.98m-6 0h-9m-5.98 0h-9m-5.98 0h-9m-6 0H1078m-6 0h-8.98m-6 0h-9m-5.98 0h-9m-5.98 0h-9m-6 0h-8.98m-6 0h-8.98m-6 0h-9m-5.98 0h-9m-6 0h-8.98m-6 0h-8.98m-6 0h-9m-5.98 0h-9m-5.98 0h-9m-6 0h-8.98m-6 0h-8.98m-6 0h-9m-5.98 0h-9m-5.98 0h-9m-6 0h-8.98m-6 0h-8.98m-6 0h-9m-5.98 0h-9m-6 0h-8.98m-6 0h-8.98m-6 0h-9m-5.98 0h-9m-5.98 0h-9m-6 0h-8.98m-6 0h-8.98m-6 0h-9m-5.98 0h-9m-5.98 0H603l-3.03-.82-2.15-2.15-.82-3.04v-4.45m0-5.92v-8.9m0-5.93v-8.9m0-5.93v-8.9m0-5.93v-8.9m0-5.93v-8.9m0-5.93v-8.9m0-5.93v-8.9m0-5.92v-8.9m0-5.93v-8.9m0-5.92v-8.9m0-5.93v-8.9m0-5.93v-8.9m0-5.93v-8.9m0-5.93v-8.88m0-5.93v-8.9m0-5.94v-8.9m0-5.93v-8.9m0-5.93V769m0-5.93v-8.9m0-5.93v-8.9m0-5.92v-8.9m0-5.93v-8.9m0-5.94v-8.9m0-5.93v-8.9m0-5.93v-8.9m0-5.92v-8.9m0-5.93V640l.82-3.03 2.15-2.15L603 634h4.5" stroke="#5e5e5e" stroke-width="3" fill="none"/><path d="M615.67 885.26c-1.42-3-.82-7.46 1.35-9.97l21.06-24.4c2.16-2.5 6.57-4.98 9.84-5.53l48.16-8.03c3.27-.54 8.07.63 10.72 2.62l30.4 22.8c2.65 2 3.7 6.05 2.36 9.08l-15.12 34.03-4.88 10.97-15.12 34.03c-1.35 3.03-5.12 5.24-8.42 4.94l-43.04-3.9c-3.3-.3-7.13-2.97-8.55-5.96z" fill-opacity="0"/><path d="M615.54 878.06l.38-1.08 1.1-1.7 3.16-3.65m4.2-4.87l6.33-7.32m4.22-4.88l3.16-3.66 1.57-1.5 1.02-.75m3.98-2.23l1.34-.55 1.92-.5 4.8-.8m6.44-1.07l9.63-1.6m6.4-1.08l9.64-1.6m6.43-1.07l4.8-.8 3.15-.07.23.05m4.37 1.06l2.82 1.44.16.12 3.04 2.28m4.05 3.04l6.07 4.56m4.06 3.04l6.08 4.56m4.06 3.04l3.04 2.28 1.5 1.58 1 2 .43 2.18-.2 2.2-.37 1.12-2.27 5.1m-3.03 6.8l-4.54 10.22m-3.02 6.8l-2.26 5.1-1.47 3.3m-1.94 4.4l-1.47 3.28-2.27 5.1m-3.03 6.8l-4.54 10.22m-3.02 6.8l-2.26 5.1-1.33 2-.53.45m-3.5 2.12l-.16.07-2.4.34-.48-.03-4.3-.38m-5.74-.52l-8.6-.78m-5.75-.52l-8.6-.8m-5.75-.5l-4.3-.4-2.37-.57-.7-.37m-3.56-2.42l-.08-.07-1.53-1.97-.3-.56-2.16-4.56m-2.87-6.06l-4.32-9.1m-2.87-6.07l-4.3-9.1m-2.9-6.07l-4.3-9.1m-2.88-6.07l-2.15-4.54-.62-1.96-.07-1.1" stroke="#5e5e5e" stroke-width="3" fill="none"/><path d="M665.73 708.5c-1.42-3-.82-7.47 1.35-9.98l21.06-24.4c2.17-2.5 6.6-4.2 9.88-3.8l43.03 5.3c3.28.4 7.97 2.5 10.47 4.7l30.96 27.1c2.5 2.17 5.37 6.5 6.42 9.63l16.2 48.62c1.05 3.14.34 7.87-1.6 10.57l-18 25.24c-1.94 2.7-6.02 3.94-9.12 2.78l-73.7-27.57c-3.1-1.17-6.77-4.54-8.2-7.53z" fill-opacity="0"/><path d="M665.6 701.3l.38-1.1 1.1-1.68 3.16-3.65m4.2-4.88l6.33-7.33m4.2-4.88l3.17-3.67 1.57-1.4 1-.6m4.06-1.57l1.28-.25 1.98.02 4.3.53m5.74.7l8.6 1.07m5.74.7l8.6 1.07m5.74.7l4.3.52 3.35.94m4.16 1.94l2.24 1.23.72.58 3.1 2.72m4.12 3.6l6.2 5.43m4.12 3.6l6.2 5.43m4.13 3.62l3.08 2.7 1.6 1.6.76 1m2.6 3.87l.77 1.5.7 1.68 1.62 4.86m2.16 6.5l3.24 9.72m2.16 6.48l3.24 9.72m2.16 6.48l1.62 4.87.46 2.53-.05.72m-.67 4.32l-.6 1.8-.72 1.2-2.7 3.8m-3.6 5.03l-5.4 7.57m-3.6 5.05l-2.7 3.78-1.56 1.55-.74.4m-3.82 1.2l-1.83-.06-1.17-.3-4.42-1.67m-5.9-2.2l-8.84-3.3m-5.9-2.22l-8.84-3.3m-5.9-2.2l-8.84-3.32m-5.9-2.2l-8.84-3.3m-5.9-2.22l-4.42-1.65-2.33-1.22-.6-.47m-3.35-3.04l-.34-.36-1.47-2.22-.1-.2-2.17-4.56m-2.87-6.07l-4.32-9.1m-2.87-6.07l-4.32-9.1m-2.87-6.07l-4.32-9.1m-2.87-6.06l-2.17-4.55-.62-1.97-.06-1.1" stroke="#5e5e5e" stroke-width="3" fill="none"/><path d="M924.14 771.96c-1.18-3.1-1.5-8.2-.7-11.43l10.86-44.35c.8-3.2 4.05-6.42 7.28-7.16l49.57-11.33c3.23-.74 8.4-.5 11.54.55l33.6 11.2c3.15 1.06 5.9 4.6 6.16 7.9l4.08 53.03c.25 3.3-.98 8.24-2.76 11.04l-28.56 44.88c-1.78 2.8-5.84 4.47-9.07 3.74l-59.57-13.37c-3.23-.72-6.8-3.82-8-6.92z" fill-opacity="0"/><path d="M923.2 763.98l.02-2.43.2-1.02 1.1-4.43m1.44-5.92l2.18-8.87m1.45-5.9l2.16-8.87m1.45-5.9l1.1-4.45 1.16-2.6.22-.26m3.05-2.9l1.16-.8 1.68-.6 4.95-1.13m6.6-1.52l9.93-2.27m6.6-1.5l9.92-2.26m6.6-1.5l4.97-1.15 3.48-.26m4.62.25l3.17.47.27.08 5.03 1.7m6.73 2.23l10.08 3.36m6.73 2.24l5.04 1.68 2.3 1.23.38.38m2.55 3.28l.35.6.58 2.38.3 3.98m.4 5.3l.63 7.96m.4 5.3l.6 7.96m.4 5.3l.63 7.95m.4 5.3l.3 3.98-.24 3.44m-1.2 4.43l-.58 1.82-.74 1.35-2.14 3.37m-2.86 4.47l-4.28 6.73m-2.86 4.5l-4.28 6.72m-2.86 4.5l-4.28 6.72m-2.86 4.5l-2.14 3.36-1.47 1.67-.74.48m-3.77 1.58l-1.9.17-1.18-.16-4.47-1m-5.96-1.34l-8.93-2m-5.97-1.34l-8.93-2m-5.96-1.34l-8.94-2m-5.95-1.35l-4.47-1-2.45-.95-.53-.37m-3.28-2.84l-.44-.47-1.3-2.28-1.44-3.78m-1.93-5.04l-2.87-7.55m-1.93-5.04l-2.9-7.56m-1.9-5.04l-1.46-3.78-.74-3.4" stroke="#5e5e5e" stroke-width="3" fill="none"/><path d="M1030.84 950.97c-2.12-2.55-4.14-7.28-4.5-10.58l-3.68-33.08c-.36-3.3 2.02-6.14 5.33-6.36l63-4.2c3.32-.22 8.48.62 11.54 1.9l133.92 55.4c3.06 1.27 5.54 4.98 5.54 8.3v23c0 3.3-2.63 6.52-5.88 7.17l-113.24 22.65c-3.25.65-8.5.53-11.7-.28l-28.36-7.1c-3.2-.8-7.54-3.5-9.66-6.05z" fill-opacity="0"/><path d="M1027.3 943.73l-.85-2.58-.1-.76-.56-4.97m-.75-6.6l-1.1-9.93m-.74-6.62l-.54-4.96.42-2.9 1.7-2.24 2.65-1.16.56-.06 4.7-.32m6.32-.42l9.45-.63m6.3-.43l9.46-.63m6.3-.42l9.45-.63m6.3-.43l4.73-.3 3.52.28m4.64.63l3.38.97 4.02 1.66m5.36 2.23l8.03 3.33m5.36 2.2l8.04 3.34m5.36 2.2l8.03 3.34m5.36 2.2l8.03 3.34m5.35 2.22l8.04 3.32m5.35 2.22l8.04 3.32m5.37 2.22l8.03 3.32m5.36 2.22l8.03 3.32m5.35 2.22l8.03 3.32m5.36 2.22l4.02 1.66 2.08 1.3.46.5m2.33 3.45l.14.28.52 2.42v3.81m0 4.6v6.9m0 4.6v3.46l-.57 2.7-1.54 2.32-2.24 1.64-1.54.5-4.25.86m-5.66 1.14l-8.48 1.7m-5.67 1.13l-8.5 1.7m-5.65 1.13l-8.5 1.7m-5.65 1.13l-8.5 1.7m-5.66 1.14l-8.5 1.7m-5.66 1.13l-8.5 1.7m-5.66 1.13l-8.5 1.7m-5.65 1.13l-4.25.85-3.52.16m-4.7.06l-3.48-.5-4.25-1.06m-5.68-1.42l-8.5-2.13m-5.68-1.42l-4.25-1.07-2.1-.7-1.1-.56m-3.92-2.45l-1.27-1.03-1.27-1.32-3.17-3.8m-4.25-5.1l-6.34-7.6m-4.23-5.08l-6.34-7.62m-4.24-5.08l-6.35-7.62m-4.24-5.07l-3.16-3.8-1.8-3" stroke="#5e5e5e" stroke-width="3" fill="none"/><path d="M795.95 910.87c-2.18-2.5-2.05-6.4.3-8.76l21.5-21.5c2.35-2.34 6.93-4.45 10.23-4.7l53.04-4.08c3.3-.26 8.38.74 11.35 2.22l39.26 19.63c2.97 1.5 6.93 4.87 8.86 7.57l18 25.24c1.94 2.7 1.48 6.65-1.02 8.83l-30.96 27.1c-2.5 2.2-7.15 3.4-10.4 2.72l-83.25-17.53c-3.24-.7-7.64-3.26-9.82-5.76z" fill-opacity="0"/><path d="M803.77 894.58l6.46-6.45m4.3-4.3l3.23-3.23 2.75-2.04m4.18-1.83l.98-.4 2.32-.43 3.98-.3m5.3-.42l7.96-.6m5.3-.42l7.96-.6m5.3-.42l7.96-.6m5.3-.42l3.98-.3 3.48.26m4.54.9l3.14.97.2.1 3.9 1.95m5.25 2.62l7.85 3.93m5.24 2.62l7.85 3.92m5.24 2.6l3.93 1.97 2.13 1.27.83.63m3.57 3.02l1.7 1.84.62.8 2.7 3.8m3.6 5.03l5.4 7.57m3.6 5.05l2.7 3.78.96 1.98.23 2.17-.46 2.13-1.1 1.9-.66.65-3.1 2.72m-4.12 3.6l-6.2 5.43m-4.12 3.6l-6.2 5.43m-4.13 3.62l-3.08 2.7-2.2 1.44-.65.2m-4.25 1.1l-2.05.15-1.24-.18-4.16-.88m-5.55-1.16l-8.33-1.76m-5.56-1.16l-8.33-1.76m-5.54-1.17l-8.32-1.75m-5.55-1.17l-8.34-1.74m-5.55-1.17l-8.32-1.76m-5.55-1.17l-4.16-.88-2.1-.64-1.15-.53m-3.97-2.32l-1.18-.87-1.42-1.4-2.7-3.08m-3.62-4.13l-5.42-6.2m-3.6-4.13l-5.43-6.2m-3.6-4.13l-2.72-3.1-1.13-1.9-.42-2.12.3-2.15.98-1.94.56-.65 3.23-3.2" stroke="#5e5e5e" stroke-width="3" fill="none"/><path d="M607.68 890.37c-1.48-2.97-1.83-7.92-.78-11.06l1.2-3.6c1.05-3.15 3.55-7.82 5.58-10.44l27.64-35.52c2.03-2.62 6.37-4.74 9.68-4.74h48c3.3 0 8.63.55 11.87 1.22l228.26 47.56c3.24.67 7.07 3.62 8.55 6.6l24.64 49.25c1.48 2.97.6 7.07-1.96 9.17l-45.72 37.4c-2.56 2.1-7.32 3.65-10.63 3.47l-168-9.34-12-.65-83-4.36c-3.32-.18-7.2-2.72-8.68-5.7z" fill-opacity="0"/><path d="M606.33 882.64v-.12l.57-3.2 1.2-3.63 1.6-3.18m2.13-4.24l.72-1.42 1.13-1.6 2.77-3.55m3.68-4.73l5.53-7.1m3.68-4.74l5.53-7.1m3.68-4.74l2.77-3.56 1.52-1.55.95-.66m3.95-1.94l1.45-.42 1.8-.18h4.8m6.4 0h9.6m6.4 0h9.6m6.4 0h4.8l3.56.37m4.75.5l3.57.35 4.28.9m5.7 1.18l8.57 1.8m5.7 1.18l8.57 1.78m5.7 1.2l8.55 1.77m5.7 1.2l8.57 1.77m5.7 1.2l8.56 1.78m5.7 1.18l8.57 1.8m5.7 1.18l8.56 1.78m5.72 1.2l8.56 1.77m5.7 1.18l8.57 1.78m5.7 1.2l8.56 1.78m5.72 1.18l8.56 1.8m5.7 1.18l8.56 1.78m5.7 1.2l8.57 1.77m5.7 1.2l8.57 1.77m5.7 1.2l8.57 1.78m5.7 1.18l4.3.9 2.32.8.73.46m3.52 2.66l.08.07 1.56 2.02.32.57 1.85 3.7m2.46 4.92l3.7 7.38m2.45 4.92l3.7 7.4m2.46 4.92l3.7 7.4m2.47 4.92l1.85 3.7.64 2.06v2.2l-.58 2.14-1.13 1.87-.9.9-3.42 2.8m-4.57 3.74l-6.86 5.6m-4.57 3.75l-6.86 5.6m-4.57 3.75l-6.86 5.6m-4.57 3.75l-3.43 2.8-2.92 1.75m-4.34 1.35l-.62.2-2.75.17-4.57-.26m-6.1-.33l-9.18-.5m-6.1-.35l-9.17-.5m-6.1-.34l-9.18-.5m-6.1-.35l-9.17-.5m-6.1-.35l-9.18-.5m-6.1-.35l-9.17-.5m-6.1-.35l-9.17-.5m-6.1-.35l-9.17-.5m-6.1-.35l-9.17-.5m-6.1-.34l-9.18-.5m-6.1-.35l-4.6-.27-3.58-.2m-4.8-.25l-3.6-.2-4.14-.2m-5.54-.3l-8.3-.44m-5.53-.3l-8.3-.43m-5.55-.28l-8.3-.44m-5.54-.3l-8.3-.43m-5.52-.3l-8.3-.42m-5.54-.3l-4.15-.2-2.35-.5-.76-.35m-3.62-2.3l-1.58-1.86-.38-.7-2.08-4.14m-2.77-5.54l-4.16-8.32m-2.76-5.54l-4.15-8.3m-2.8-5.55l-4.14-8.3m-2.77-5.55l-4.17-8.32m-2.77-5.54l-2.08-4.15-1.02-3.1v-.12" stroke="#5e5e5e" stroke-width="3" fill="none"/><path d="M654.25 719.62c-1.48-2.97-1.83-7.92-.78-11.06l1.2-3.62c1.05-3.14 3.55-7.8 5.58-10.43L687.9 659c2.02-2.63 6.36-4.75 9.67-4.75h48c3.3 0 8.68.05 12 .1L1059 659.9c3.3.05 6.12 2.78 6.27 6.1l4.46 98c.15 3.32-1.26 8.2-3.15 10.93l-38.16 55.14c-1.9 2.72-5.7 6.35-8.5 8.1l-29.83 18.65c-2.82 1.76-7.73 2.63-10.97 1.94l-178.26-37.52c-3.24-.7-8.48-1.9-11.7-2.7L697.4 795.7c-3.22-.8-7.03-3.85-8.5-6.82z" fill-opacity="0"/><path d="M652.9 711.9v-.13l.57-3.2 1.2-3.63 1.6-3.17m2.13-4.23l.72-1.43 1.13-1.6 2.77-3.54m3.68-4.74l5.53-7.1m3.68-4.74l5.54-7.1m3.68-4.74l2.77-3.55 1.5-1.56.96-.65m3.96-1.95l1.45-.42 1.8-.18h4.8m6.4 0h9.6m6.4 0h9.6m6.4 0h4.8l3.6.03m4.8.05l3.6.03 4.52.08m6.02.1l9.04.18m6.03.1l9.03.18m6.03.1l9.04.17m6.03.1l9.05.18m6.02.1l9.05.18m6.03.1l9.04.17m6.03.1l9.04.18m6.02.1l9.04.18m6.03.1l9.03.17m6.03.1l9.05.18m6.03.12l9.05.16m6.03.12l9.05.16m6.03.1l9.04.18m6.03.1l9.04.17m6.02.12l9.04.17m6.03.1l9.04.17m6.02.1l9.05.17m6.04.1l9.04.18m6.03.1l9.05.18m6.03.1l4.52.1 2.95.8 2.22 2.02 1.07 2.85.03.42.2 4.2m.25 5.6l.38 8.4m.25 5.6l.4 8.4m.24 5.6l.37 8.4m.26 5.6l.38 8.4m.26 5.6l.4 8.4m.24 5.6l.38 8.4m.26 5.6l.2 4.2-.37 3.44m-1.35 4.38l-.6 1.7-.84 1.4-2.86 4.15m-3.8 5.5l-5.74 8.28m-3.82 5.5l-5.72 8.3m-3.82 5.5l-5.73 8.27m-3.82 5.5l-2.86 4.15-1.62 2.03-.65.7m-3.4 3.26l-.17.15-2.16 1.65-.5.33-4.48 2.8m-5.97 3.72l-8.94 5.6m-5.97 3.72l-4.47 2.8-3.1 1.35h-.02m-4.47.76l-.33.06-3.04-.24-4.46-.93m-5.94-1.26l-8.9-1.87m-5.95-1.25l-8.92-1.88m-5.94-1.25l-8.9-1.88m-5.95-1.25l-8.92-1.88m-5.94-1.25l-8.9-1.88m-5.94-1.26l-8.92-1.88m-5.94-1.25l-8.9-1.87m-5.95-1.25l-8.92-1.87m-5.94-1.24l-8.92-1.88m-5.94-1.25l-8.92-1.88m-5.94-1.25l-8.9-1.87m-5.95-1.26l-4.46-.93-3.5-.8m-4.68-1.08l-3.52-.8-4.6-1.15m-6.1-1.52l-9.2-2.28m-6.1-1.52l-9.2-2.3m-6.1-1.5l-9.18-2.3m-6.12-1.52l-9.18-2.3m-6.12-1.5l-9.18-2.3m-6.12-1.52l-4.6-1.14-2.32-.9-.7-.47m-3.5-2.75l-.13-.1-1.56-2.07-.28-.52-2.1-4.15m-2.76-5.54l-4.16-8.33m-2.77-5.54l-4.15-8.3m-2.77-5.55l-4.15-8.3m-2.77-5.55l-4.16-8.32m-2.77-5.53l-2.08-4.15-1.02-3.1v-.12" stroke="#5e5e5e" stroke-width="3" fill="none"/><path d="M228.7 113.64c0-3.3 2.68-6 6-6H894c3.3 0 6 2.7 6 6v48c0 3.32-2.7 6-6 6H234.7c-3.32 0-6-2.68-6-6z" fill="none"/><g><use xlink:href="#j" transform="matrix(1,0,0,1,228.69160752972533,107.64256326050747) translate(91.83333333333334 34.44444444444444)"/><use xlink:href="#b" transform="matrix(1,0,0,1,228.69160752972533,107.64256326050747) translate(113.19135802469137 34.44444444444444)"/><use xlink:href="#f" transform="matrix(1,0,0,1,228.69160752972533,107.64256326050747) translate(195.84567901234567 34.44444444444444)"/><use xlink:href="#k" transform="matrix(1,0,0,1,228.69160752972533,107.64256326050747) translate(246.33950617283952 34.44444444444444)"/><use xlink:href="#l" transform="matrix(1,0,0,1,228.69160752972533,107.64256326050747) translate(291.89506172839504 34.44444444444444)"/><use xlink:href="#m" transform="matrix(1,0,0,1,228.69160752972533,107.64256326050747) translate(376.89506172839504 34.44444444444444)"/><use xlink:href="#n" transform="matrix(1,0,0,1,228.69160752972533,107.64256326050747) translate(397.75925925925924 34.44444444444444)"/><use xlink:href="#o" transform="matrix(1,0,0,1,228.69160752972533,107.64256326050747) translate(437.14197530864203 34.44444444444444)"/><use xlink:href="#p" transform="matrix(1,0,0,1,228.69160752972533,107.64256326050747) translate(503.6851851851852 34.44444444444444)"/></g><path d="M960 113.64c0-3.3 2.7-6 6-6h659.3c3.32 0 6 2.7 6 6v48c0 3.32-2.68 6-6 6H966c-3.3 0-6-2.68-6-6z" fill="none"/><g><use xlink:href="#a" transform="matrix(1,0,0,1,959.9999999999998,107.64256326050747) translate(22.45061728395069 21.111111111111114)"/><use xlink:href="#b" transform="matrix(1,0,0,1,959.9999999999998,107.64256326050747) translate(68.00617283950625 21.111111111111114)"/><use xlink:href="#c" transform="matrix(1,0,0,1,959.9999999999998,107.64256326050747) translate(150.66049382716056 21.111111111111114)"/><use xlink:href="#n" transform="matrix(1,0,0,1,959.9999999999998,107.64256326050747) translate(204.85802469135808 21.111111111111114)"/><use xlink:href="#q" transform="matrix(1,0,0,1,959.9999999999998,107.64256326050747) translate(244.2407407407408 21.111111111111114)"/><use xlink:href="#r" transform="matrix(1,0,0,1,959.9999999999998,107.64256326050747) translate(348.9938271604939 21.111111111111114)"/><use xlink:href="#e" transform="matrix(1,0,0,1,959.9999999999998,107.64256326050747) translate(376.0308641975309 21.111111111111114)"/><use xlink:href="#f" transform="matrix(1,0,0,1,959.9999999999998,107.64256326050747) translate(560.8456790123456 21.111111111111114)"/><use xlink:href="#s" transform="matrix(1,0,0,1,959.9999999999998,107.64256326050747) translate(611.3395061728395 21.111111111111114)"/><use xlink:href="#t" transform="matrix(1,0,0,1,959.9999999999998,107.64256326050747) translate(290.41358024691357 47.777777777777786)"/></g><defs><path fill="#333" d="M136-208V0H84v-208H4v-40h212v40h-80" id="u"/><path fill="#333" d="M114-157C55-157 80-60 75 0H25v-261h50l-1 109c12-26 28-41 61-42 86-1 58 113 63 194h-50c-7-57 23-157-34-157" id="v"/><path fill="#333" d="M185-48c-13 30-37 53-82 52C43 2 14-33 14-96s30-98 90-98c62 0 83 45 84 108H66c0 31 8 55 39 56 18 0 30-7 34-22zm-45-69c5-46-57-63-70-21-2 6-4 13-4 21h74" id="w"/><g id="a"><use transform="matrix(0.06172839506172839,0,0,0.06172839506172839,0,0)" xlink:href="#u"/><use transform="matrix(0.06172839506172839,0,0,0.06172839506172839,13.518518518518517,0)" xlink:href="#v"/><use transform="matrix(0.06172839506172839,0,0,0.06172839506172839,27.037037037037035,0)" xlink:href="#w"/></g><path fill="#333" d="M137-138c1-29-70-34-71-4 15 46 118 7 119 86 1 83-164 76-172 9l43-7c4 19 20 25 44 25 33 8 57-30 24-41C81-84 22-81 20-136c-2-80 154-74 161-7" id="x"/><path fill="#333" d="M123 10C108 53 80 86 19 72V37c35 8 53-11 59-39L3-190h52l48 148c12-52 28-100 44-148h51" id="y"/><path fill="#333" d="M115-3C79 11 28 4 28-45v-112H4v-33h27l15-45h31v45h36v33H77v99c-1 23 16 31 38 25v30" id="z"/><path fill="#333" d="M220-157c-53 9-28 100-34 157h-49v-107c1-27-5-49-29-50C55-147 81-57 75 0H25l-1-190h47c2 12-1 28 3 38 10-53 101-56 108 0 13-22 24-43 59-42 82 1 51 116 57 194h-49v-107c-1-25-5-48-29-50" id="A"/><g id="b"><use transform="matrix(0.06172839506172839,0,0,0.06172839506172839,0,0)" xlink:href="#x"/><use transform="matrix(0.06172839506172839,0,0,0.06172839506172839,12.345679012345679,0)" xlink:href="#y"/><use transform="matrix(0.06172839506172839,0,0,0.06172839506172839,24.691358024691358,0)" xlink:href="#x"/><use transform="matrix(0.06172839506172839,0,0,0.06172839506172839,37.03703703703704,0)" xlink:href="#z"/><use transform="matrix(0.06172839506172839,0,0,0.06172839506172839,44.382716049382715,0)" xlink:href="#w"/><use transform="matrix(0.06172839506172839,0,0,0.06172839506172839,56.72839506172839,0)" xlink:href="#A"/></g><path fill="#333" d="M133-34C117-15 103 5 69 4 32 3 11-16 11-54c-1-60 55-63 116-61 1-26-3-47-28-47-18 1-26 9-28 27l-52-2c7-38 36-58 82-57s74 22 75 68l1 82c-1 14 12 18 25 15v27c-30 8-71 5-69-32zm-48 3c29 0 43-24 42-57-32 0-66-3-65 30 0 17 8 27 23 27" id="B"/><path fill="#333" d="M121-226c-27-7-43 5-38 36h38v33H83V0H34v-157H6v-33h28c-9-59 32-81 87-68v32" id="C"/><path fill="#333" d="M135-150c-39-12-60 13-60 57V0H25l-1-190h47c2 13-1 29 3 40 6-28 27-53 61-41v41" id="D"/><g id="c"><use transform="matrix(0.06172839506172839,0,0,0.06172839506172839,0,0)" xlink:href="#B"/><use transform="matrix(0.06172839506172839,0,0,0.06172839506172839,12.345679012345679,0)" xlink:href="#C"/><use transform="matrix(0.06172839506172839,0,0,0.06172839506172839,19.691358024691358,0)" xlink:href="#z"/><use transform="matrix(0.06172839506172839,0,0,0.06172839506172839,27.037037037037038,0)" xlink:href="#w"/><use transform="matrix(0.06172839506172839,0,0,0.06172839506172839,39.382716049382715,0)" xlink:href="#D"/></g><path fill="#333" d="M190-63c-7 42-38 67-86 67-59 0-84-38-90-98-12-110 154-137 174-36l-49 2c-2-19-15-32-35-32-30 0-35 28-38 64-6 74 65 87 74 30" id="E"/><path fill="#333" d="M110-194c64 0 96 36 96 99 0 64-35 99-97 99-61 0-95-36-95-99 0-62 34-99 96-99zm-1 164c35 0 45-28 45-65 0-40-10-65-43-65-34 0-45 26-45 65 0 36 10 65 43 65" id="F"/><path fill="#333" d="M135-194c87-1 58 113 63 194h-50c-7-57 23-157-34-157-59 0-34 97-39 157H25l-1-190h47c2 12-1 28 3 38 12-26 28-41 61-42" id="G"/><path fill="#333" d="M88-194c31-1 46 15 58 34l-1-101h50l1 261h-48c-2-10 0-23-3-31C134-8 116 4 84 4 32 4 16-41 15-95c0-56 19-97 73-99zm17 164c33 0 40-30 41-66 1-37-9-64-41-64s-38 30-39 65c0 43 13 65 39 65" id="H"/><path fill="#333" d="M14-72v-43h91v43H14" id="I"/><path fill="#333" d="M25 0v-261h50V0H25" id="J"/><path fill="#333" d="M128 0H69L1-190h53L99-40l48-150h52" id="K"/><g id="d"><use transform="matrix(0.06172839506172839,0,0,0.06172839506172839,0,0)" xlink:href="#x"/><use transform="matrix(0.06172839506172839,0,0,0.06172839506172839,12.345679012345679,0)" xlink:href="#w"/><use transform="matrix(0.06172839506172839,0,0,0.06172839506172839,24.691358024691358,0)" xlink:href="#E"/><use transform="matrix(0.06172839506172839,0,0,0.06172839506172839,37.03703703703704,0)" xlink:href="#F"/><use transform="matrix(0.06172839506172839,0,0,0.06172839506172839,50.55555555555556,0)" xlink:href="#G"/><use transform="matrix(0.06172839506172839,0,0,0.06172839506172839,64.07407407407408,0)" xlink:href="#H"/><use transform="matrix(0.06172839506172839,0,0,0.06172839506172839,77.5925925925926,0)" xlink:href="#I"/><use transform="matrix(0.06172839506172839,0,0,0.06172839506172839,84.93827160493828,0)" xlink:href="#J"/><use transform="matrix(0.06172839506172839,0,0,0.06172839506172839,91.11111111111111,0)" xlink:href="#w"/><use transform="matrix(0.06172839506172839,0,0,0.06172839506172839,103.4567901234568,0)" xlink:href="#K"/><use transform="matrix(0.06172839506172839,0,0,0.06172839506172839,115.80246913580248,0)" xlink:href="#w"/><use transform="matrix(0.06172839506172839,0,0,0.06172839506172839,128.14814814814815,0)" xlink:href="#J"/></g><path fill="#333" d="M85 4C-2 5 27-109 22-190h50c7 57-23 150 33 157 60-5 35-97 40-157h50l1 190h-47c-2-12 1-28-3-38-12 25-28 42-61 42" id="L"/><path fill="#333" d="M25-224v-37h50v37H25zM25 0v-190h50V0H25" id="M"/><path fill="#333" d="M12 0v-35l95-120H19v-35h142v35L67-36h103V0H12" id="N"/><g id="e"><use transform="matrix(0.06172839506172839,0,0,0.06172839506172839,0,0)" xlink:href="#D"/><use transform="matrix(0.06172839506172839,0,0,0.06172839506172839,8.641975308641975,0)" xlink:href="#w"/><use transform="matrix(0.06172839506172839,0,0,0.06172839506172839,20.98765432098765,0)" xlink:href="#A"/><use transform="matrix(0.06172839506172839,0,0,0.06172839506172839,40.74074074074073,0)" xlink:href="#F"/><use transform="matrix(0.06172839506172839,0,0,0.06172839506172839,54.25925925925925,0)" xlink:href="#H"/><use transform="matrix(0.06172839506172839,0,0,0.06172839506172839,67.77777777777777,0)" xlink:href="#L"/><use transform="matrix(0.06172839506172839,0,0,0.06172839506172839,81.29629629629629,0)" xlink:href="#J"/><use transform="matrix(0.06172839506172839,0,0,0.06172839506172839,87.46913580246913,0)" xlink:href="#B"/><use transform="matrix(0.06172839506172839,0,0,0.06172839506172839,99.81481481481481,0)" xlink:href="#D"/><use transform="matrix(0.06172839506172839,0,0,0.06172839506172839,108.45679012345678,0)" xlink:href="#M"/><use transform="matrix(0.06172839506172839,0,0,0.06172839506172839,114.62962962962962,0)" xlink:href="#N"/><use transform="matrix(0.06172839506172839,0,0,0.06172839506172839,125.74074074074073,0)" xlink:href="#B"/><use transform="matrix(0.06172839506172839,0,0,0.06172839506172839,138.0864197530864,0)" xlink:href="#z"/><use transform="matrix(0.06172839506172839,0,0,0.06172839506172839,145.43209876543207,0)" xlink:href="#M"/><use transform="matrix(0.06172839506172839,0,0,0.06172839506172839,151.6049382716049,0)" xlink:href="#F"/><use transform="matrix(0.06172839506172839,0,0,0.06172839506172839,165.1234567901234,0)" xlink:href="#G"/></g><path fill="#333" d="M231 0h-52l-39-155L100 0H48L-1-190h46L77-45c9-52 24-97 36-145h53l37 145 32-145h46" id="O"/><g id="f"><use transform="matrix(0.06172839506172839,0,0,0.06172839506172839,0,0)" xlink:href="#O"/><use transform="matrix(0.06172839506172839,0,0,0.06172839506172839,17.28395061728395,0)" xlink:href="#M"/><use transform="matrix(0.06172839506172839,0,0,0.06172839506172839,23.456790123456788,0)" xlink:href="#z"/><use transform="matrix(0.06172839506172839,0,0,0.06172839506172839,30.80246913580247,0)" xlink:href="#v"/></g><g id="g"><use transform="matrix(0.06172839506172839,0,0,0.06172839506172839,0,0)" xlink:href="#z"/><use transform="matrix(0.06172839506172839,0,0,0.06172839506172839,7.345679012345679,0)" xlink:href="#v"/><use transform="matrix(0.06172839506172839,0,0,0.06172839506172839,20.864197530864196,0)" xlink:href="#D"/><use transform="matrix(0.06172839506172839,0,0,0.06172839506172839,29.50617283950617,0)" xlink:href="#w"/><use transform="matrix(0.06172839506172839,0,0,0.06172839506172839,41.85185185185185,0)" xlink:href="#w"/></g><path fill="#333" d="M135-194c53 0 70 44 70 98 0 56-19 98-73 100-31 1-45-17-59-34 3 33 2 69 2 105H25l-1-265h48c2 10 0 23 3 31 11-24 29-35 60-35zM114-30c33 0 39-31 40-66 0-38-9-64-40-64-56 0-55 130 0 130" id="P"/><g id="h"><use transform="matrix(0.06172839506172839,0,0,0.06172839506172839,0,0)" xlink:href="#L"/><use transform="matrix(0.06172839506172839,0,0,0.06172839506172839,13.518518518518517,0)" xlink:href="#P"/><use transform="matrix(0.06172839506172839,0,0,0.06172839506172839,27.037037037037035,0)" xlink:href="#P"/><use transform="matrix(0.06172839506172839,0,0,0.06172839506172839,40.55555555555555,0)" xlink:href="#w"/><use transform="matrix(0.06172839506172839,0,0,0.06172839506172839,52.90123456790123,0)" xlink:href="#D"/><use transform="matrix(0.06172839506172839,0,0,0.06172839506172839,61.5432098765432,0)" xlink:href="#I"/><use transform="matrix(0.06172839506172839,0,0,0.06172839506172839,68.88888888888889,0)" xlink:href="#J"/><use transform="matrix(0.06172839506172839,0,0,0.06172839506172839,75.06172839506172,0)" xlink:href="#w"/><use transform="matrix(0.06172839506172839,0,0,0.06172839506172839,87.4074074074074,0)" xlink:href="#K"/><use transform="matrix(0.06172839506172839,0,0,0.06172839506172839,99.75308641975309,0)" xlink:href="#w"/><use transform="matrix(0.06172839506172839,0,0,0.06172839506172839,112.09876543209877,0)" xlink:href="#J"/></g><path fill="#333" d="M24 0v-54h51V0H24" id="Q"/><g id="i"><use transform="matrix(0.06172839506172839,0,0,0.06172839506172839,0,0)" xlink:href="#A"/><use transform="matrix(0.06172839506172839,0,0,0.06172839506172839,19.753086419753085,0)" xlink:href="#F"/><use transform="matrix(0.06172839506172839,0,0,0.06172839506172839,33.2716049382716,0)" xlink:href="#H"/><use transform="matrix(0.06172839506172839,0,0,0.06172839506172839,46.79012345679012,0)" xlink:href="#L"/><use transform="matrix(0.06172839506172839,0,0,0.06172839506172839,60.30864197530864,0)" xlink:href="#J"/><use transform="matrix(0.06172839506172839,0,0,0.06172839506172839,66.48148148148148,0)" xlink:href="#w"/><use transform="matrix(0.06172839506172839,0,0,0.06172839506172839,78.82716049382717,0)" xlink:href="#x"/><use transform="matrix(0.06172839506172839,0,0,0.06172839506172839,91.17283950617285,0)" xlink:href="#Q"/></g><path fill="#333" d="M199 0l-22-63H83L61 0H9l90-248h61L250 0h-51zm-33-102l-36-108c-10 38-24 72-36 108h72" id="R"/><use transform="matrix(0.06172839506172839,0,0,0.06172839506172839,0,0)" xlink:href="#R" id="j"/><g id="k"><use transform="matrix(0.06172839506172839,0,0,0.06172839506172839,0,0)" xlink:href="#F"/><use transform="matrix(0.06172839506172839,0,0,0.06172839506172839,13.518518518518517,0)" xlink:href="#G"/><use transform="matrix(0.06172839506172839,0,0,0.06172839506172839,27.037037037037035,0)" xlink:href="#w"/></g><g id="l"><use transform="matrix(0.06172839506172839,0,0,0.06172839506172839,0,0)" xlink:href="#A"/><use transform="matrix(0.06172839506172839,0,0,0.06172839506172839,19.753086419753085,0)" xlink:href="#F"/><use transform="matrix(0.06172839506172839,0,0,0.06172839506172839,33.2716049382716,0)" xlink:href="#H"/><use transform="matrix(0.06172839506172839,0,0,0.06172839506172839,46.79012345679012,0)" xlink:href="#L"/><use transform="matrix(0.06172839506172839,0,0,0.06172839506172839,60.30864197530864,0)" xlink:href="#J"/><use transform="matrix(0.06172839506172839,0,0,0.06172839506172839,66.48148148148148,0)" xlink:href="#w"/></g><g id="m"><use transform="matrix(0.06172839506172839,0,0,0.06172839506172839,0,0)" xlink:href="#I"/><use transform="matrix(0.06172839506172839,0,0,0.06172839506172839,7.345679012345679,0)" xlink:href="#I"/></g><g id="n"><use transform="matrix(0.06172839506172839,0,0,0.06172839506172839,0,0)" xlink:href="#z"/><use transform="matrix(0.06172839506172839,0,0,0.06172839506172839,7.345679012345679,0)" xlink:href="#v"/><use transform="matrix(0.06172839506172839,0,0,0.06172839506172839,20.864197530864196,0)" xlink:href="#w"/></g><g id="o"><use transform="matrix(0.06172839506172839,0,0,0.06172839506172839,0,0)" xlink:href="#w"/><use transform="matrix(0.06172839506172839,0,0,0.06172839506172839,12.345679012345679,0)" xlink:href="#G"/><use transform="matrix(0.06172839506172839,0,0,0.06172839506172839,25.864197530864196,0)" xlink:href="#z"/><use transform="matrix(0.06172839506172839,0,0,0.06172839506172839,33.20987654320987,0)" xlink:href="#M"/><use transform="matrix(0.06172839506172839,0,0,0.06172839506172839,39.382716049382715,0)" xlink:href="#D"/><use transform="matrix(0.06172839506172839,0,0,0.06172839506172839,48.02469135802469,0)" xlink:href="#w"/></g><g id="p"><use transform="matrix(0.06172839506172839,0,0,0.06172839506172839,0,0)" xlink:href="#x"/><use transform="matrix(0.06172839506172839,0,0,0.06172839506172839,12.345679012345679,0)" xlink:href="#y"/><use transform="matrix(0.06172839506172839,0,0,0.06172839506172839,24.691358024691358,0)" xlink:href="#x"/><use transform="matrix(0.06172839506172839,0,0,0.06172839506172839,37.03703703703704,0)" xlink:href="#z"/><use transform="matrix(0.06172839506172839,0,0,0.06172839506172839,44.382716049382715,0)" xlink:href="#w"/><use transform="matrix(0.06172839506172839,0,0,0.06172839506172839,56.72839506172839,0)" xlink:href="#A"/></g><g id="q"><use transform="matrix(0.06172839506172839,0,0,0.06172839506172839,0,0)" xlink:href="#C"/><use transform="matrix(0.06172839506172839,0,0,0.06172839506172839,7.345679012345679,0)" xlink:href="#M"/><use transform="matrix(0.06172839506172839,0,0,0.06172839506172839,13.518518518518519,0)" xlink:href="#D"/><use transform="matrix(0.06172839506172839,0,0,0.06172839506172839,22.160493827160494,0)" xlink:href="#x"/><use transform="matrix(0.06172839506172839,0,0,0.06172839506172839,34.50617283950617,0)" xlink:href="#z"/><use transform="matrix(0.06172839506172839,0,0,0.06172839506172839,41.85185185185185,0)" xlink:href="#I"/><use transform="matrix(0.06172839506172839,0,0,0.06172839506172839,49.197530864197525,0)" xlink:href="#J"/><use transform="matrix(0.06172839506172839,0,0,0.06172839506172839,55.37037037037037,0)" xlink:href="#w"/><use transform="matrix(0.06172839506172839,0,0,0.06172839506172839,67.71604938271605,0)" xlink:href="#K"/><use transform="matrix(0.06172839506172839,0,0,0.06172839506172839,80.06172839506173,0)" xlink:href="#w"/><use transform="matrix(0.06172839506172839,0,0,0.06172839506172839,92.40740740740742,0)" xlink:href="#J"/></g><g id="r"><use transform="matrix(0.06172839506172839,0,0,0.06172839506172839,0,0)" xlink:href="#F"/><use transform="matrix(0.06172839506172839,0,0,0.06172839506172839,13.518518518518517,0)" xlink:href="#C"/></g><g id="s"><use transform="matrix(0.06172839506172839,0,0,0.06172839506172839,0,0)" xlink:href="#C"/><use transform="matrix(0.06172839506172839,0,0,0.06172839506172839,7.345679012345679,0)" xlink:href="#M"/><use transform="matrix(0.06172839506172839,0,0,0.06172839506172839,13.518518518518519,0)" xlink:href="#K"/><use transform="matrix(0.06172839506172839,0,0,0.06172839506172839,25.864197530864196,0)" xlink:href="#w"/></g><g id="t"><use transform="matrix(0.06172839506172839,0,0,0.06172839506172839,0,0)" xlink:href="#A"/><use transform="matrix(0.06172839506172839,0,0,0.06172839506172839,19.753086419753085,0)" xlink:href="#F"/><use transform="matrix(0.06172839506172839,0,0,0.06172839506172839,33.2716049382716,0)" xlink:href="#H"/><use transform="matrix(0.06172839506172839,0,0,0.06172839506172839,46.79012345679012,0)" xlink:href="#L"/><use transform="matrix(0.06172839506172839,0,0,0.06172839506172839,60.30864197530864,0)" xlink:href="#J"/><use transform="matrix(0.06172839506172839,0,0,0.06172839506172839,66.48148148148148,0)" xlink:href="#w"/><use transform="matrix(0.06172839506172839,0,0,0.06172839506172839,78.82716049382717,0)" xlink:href="#x"/></g></defs></g></svg>