<svg version="1.1" xmlns="http://www.w3.org/2000/svg" xmlns:xlink="http://www.w3.org/1999/xlink" width="858.68359375" height="597"><defs/><g><g transform="translate(-6,2) scale(1,1)"><rect fill="#ffffff" stroke="none" x="360" y="120" width="73.32080078125" height="48"/></g><g transform="translate(-6,2) scale(1,1)"><path fill="none" stroke="#000000" d="M 360 120 L 433.32080078125 120 L 433.32080078125 168 L 360 168 L 360 120 Z Z" stroke-miterlimit="10"/></g><g transform="translate(-6,2) scale(1,1)"><g><path fill="none" stroke="none"/><text fill="#000000" stroke="none" font-family="Arial" font-size="13px" font-style="normal" font-weight="normal" text-decoration="none" x="364.5" y="137.5">«interface»</text></g></g><g transform="translate(-6,2) scale(1,1)"><g><path fill="none" stroke="none"/><text fill="#000000" stroke="none" font-family="Arial" font-size="13px" font-style="normal" font-weight="bold" text-decoration="none" x="379.3154296875" y="152.5">INode</text></g></g><g transform="translate(-6,2) scale(1,1)"><rect fill="#ffffff" stroke="none" x="336" y="216" width="120.642578125" height="87"/></g><g transform="translate(-6,2) scale(1,1)"><path fill="none" stroke="#000000" d="M 336 216 L 456.642578125 216 L 456.642578125 303 L 336 303 L 336 216 Z Z" stroke-miterlimit="10"/></g><g transform="translate(-6,2) scale(1,1)"><path fill="none" stroke="#000000" d="M 336 241 L 456.642578125 241" stroke-miterlimit="10"/></g><g transform="translate(-6,2) scale(1,1)"><path fill="none" stroke="#000000" d="M 336 294 L 456.642578125 294" stroke-miterlimit="10"/></g><g transform="translate(-6,2) scale(1,1)"><g><path fill="none" stroke="none"/><text fill="#000000" stroke="none" font-family="Arial" font-size="13px" font-style="italic" font-weight="bold" text-decoration="none" x="380.7822265625" y="235.5">Node</text></g></g><g transform="translate(-6,2) scale(1,1)"><g><path fill="none" stroke="none"/><text fill="#000000" stroke="none" font-family="Arial" font-size="13px" font-style="normal" font-weight="normal" text-decoration="none" x="341" y="258.5">#value: double</text></g></g><g transform="translate(-6,2) scale(1,1)"><g><path fill="none" stroke="none"/><text fill="#000000" stroke="none" font-family="Arial" font-size="13px" font-style="normal" font-weight="normal" text-decoration="none" x="341" y="273.5">#name: String</text></g></g><g transform="translate(-6,2) scale(1,1)"><g><path fill="none" stroke="none"/><text fill="#000000" stroke="none" font-family="Arial" font-size="13px" font-style="normal" font-weight="normal" text-decoration="none" x="341" y="288.5">#description: String</text></g></g><g transform="translate(-6,2) scale(1,1)"><path fill="none" stroke="#000000" d="M 396 216 L 396 168" stroke-miterlimit="10" stroke-dasharray="3"/></g><g transform="translate(-6,2) scale(1,1)"><path fill="#FFFFFF" stroke="none" d="M 404.419035512032 188.3253497152483 L 396 168 L 387.580964487968 188.3253497152483"/></g><g transform="translate(-6,2) scale(1,1)"><path fill="none" stroke="#000000" d="M 404.419035512032 188.3253497152483 L 396 168 L 387.580964487968 188.3253497152483 L 404.419035512032 188.3253497152483" stroke-miterlimit="10"/></g><g transform="translate(-6,2) scale(1,1)"><rect fill="#ffffff" stroke="none" x="24" y="352" width="132.48095703125" height="44"/></g><g transform="translate(-6,2) scale(1,1)"><path fill="none" stroke="#000000" d="M 24 352 L 156.48095703125 352 L 156.48095703125 396 L 24 396 L 24 352 Z Z" stroke-miterlimit="10"/></g><g transform="translate(-6,2) scale(1,1)"><g><path fill="none" stroke="none"/><text fill="#000000" stroke="none" font-family="Arial" font-size="13px" font-style="normal" font-weight="bold" text-decoration="none" x="33.149658203125" y="371.5">FindingsUnionNode</text></g></g><g transform="translate(-6,2) scale(1,1)"><rect fill="#ffffff" stroke="none" x="168" y="352" width="114.1298828125" height="72"/></g><g transform="translate(-6,2) scale(1,1)"><path fill="none" stroke="#000000" d="M 168 352 L 282.1298828125 352 L 282.1298828125 424 L 168 424 L 168 352 Z Z" stroke-miterlimit="10"/></g><g transform="translate(-6,2) scale(1,1)"><path fill="none" stroke="#000000" d="M 168 377 L 282.1298828125 377" stroke-miterlimit="10"/></g><g transform="translate(-6,2) scale(1,1)"><path fill="none" stroke="#000000" d="M 168 415 L 282.1298828125 415" stroke-miterlimit="10"/></g><g transform="translate(-6,2) scale(1,1)"><g><path fill="none" stroke="none"/><text fill="#000000" stroke="none" font-family="Arial" font-size="13px" font-style="normal" font-weight="bold" text-decoration="none" x="188.207275390625" y="371.5">FindingNode</text></g></g><g transform="translate(-6,2) scale(1,1)"><g><path fill="none" stroke="none"/><text fill="#000000" stroke="none" font-family="Arial" font-size="13px" font-style="normal" font-weight="normal" text-decoration="none" x="173" y="394.5">+ruleName: String</text></g></g><g transform="translate(-6,2) scale(1,1)"><g><path fill="none" stroke="none"/><text fill="#000000" stroke="none" font-family="Arial" font-size="13px" font-style="normal" font-weight="normal" text-decoration="none" x="173" y="409.5">+toolName: String</text></g></g><g transform="translate(-6,2) scale(1,1)"><rect fill="#ffffff" stroke="none" x="424" y="352" width="101.13623046875" height="57"/></g><g transform="translate(-6,2) scale(1,1)"><path fill="none" stroke="#000000" d="M 424 352 L 525.13623046875 352 L 525.13623046875 409 L 424 409 L 424 352 Z Z" stroke-miterlimit="10"/></g><g transform="translate(-6,2) scale(1,1)"><path fill="none" stroke="#000000" d="M 424 377 L 525.13623046875 377" stroke-miterlimit="10"/></g><g transform="translate(-6,2) scale(1,1)"><path fill="none" stroke="#000000" d="M 424 400 L 525.13623046875 400" stroke-miterlimit="10"/></g><g transform="translate(-6,2) scale(1,1)"><g><path fill="none" stroke="none"/><text fill="#000000" stroke="none" font-family="Arial" font-size="13px" font-style="normal" font-weight="bold" text-decoration="none" x="440.608154296875" y="371.5">FactorNode</text></g></g><g transform="translate(-6,2) scale(1,1)"><g><path fill="none" stroke="none"/><text fill="#000000" stroke="none" font-family="Arial" font-size="13px" font-style="normal" font-weight="normal" text-decoration="none" x="429" y="394.5">+method: String</text></g></g><g transform="translate(-6,2) scale(1,1)"><rect fill="#ffffff" stroke="none" x="296" y="352" width="112.71435546875" height="87"/></g><g transform="translate(-6,2) scale(1,1)"><path fill="none" stroke="#000000" d="M 296 352 L 408.71435546875 352 L 408.71435546875 439 L 296 439 L 296 352 Z Z" stroke-miterlimit="10"/></g><g transform="translate(-6,2) scale(1,1)"><path fill="none" stroke="#000000" d="M 296 377 L 408.71435546875 377" stroke-miterlimit="10"/></g><g transform="translate(-6,2) scale(1,1)"><path fill="none" stroke="#000000" d="M 296 430 L 408.71435546875 430" stroke-miterlimit="10"/></g><g transform="translate(-6,2) scale(1,1)"><g><path fill="none" stroke="none"/><text fill="#000000" stroke="none" font-family="Arial" font-size="13px" font-style="normal" font-weight="bold" text-decoration="none" x="320.676025390625" y="371.5">ValueNode</text></g></g><g transform="translate(-6,2) scale(1,1)"><g><path fill="none" stroke="none"/><text fill="#000000" stroke="none" font-family="Arial" font-size="13px" font-style="normal" font-weight="normal" text-decoration="none" x="301" y="394.5">+tool: String</text></g></g><g transform="translate(-6,2) scale(1,1)"><g><path fill="none" stroke="none"/><text fill="#000000" stroke="none" font-family="Arial" font-size="13px" font-style="normal" font-weight="normal" text-decoration="none" x="301" y="409.5">+metric: String</text></g></g><g transform="translate(-6,2) scale(1,1)"><g><path fill="none" stroke="none"/><text fill="#000000" stroke="none" font-family="Arial" font-size="13px" font-style="normal" font-weight="normal" text-decoration="none" x="301" y="424.5">+values: double[*]</text></g></g><g transform="translate(-6,2) scale(1,1)"><rect fill="#ffffff" stroke="none" x="552" y="352" width="101.13623046875" height="57"/></g><g transform="translate(-6,2) scale(1,1)"><path fill="none" stroke="#000000" d="M 552 352 L 653.13623046875 352 L 653.13623046875 409 L 552 409 L 552 352 Z Z" stroke-miterlimit="10"/></g><g transform="translate(-6,2) scale(1,1)"><path fill="none" stroke="#000000" d="M 552 377 L 653.13623046875 377" stroke-miterlimit="10"/></g><g transform="translate(-6,2) scale(1,1)"><path fill="none" stroke="#000000" d="M 552 400 L 653.13623046875 400" stroke-miterlimit="10"/></g><g transform="translate(-6,2) scale(1,1)"><g><path fill="none" stroke="none"/><text fill="#000000" stroke="none" font-family="Arial" font-size="13px" font-style="normal" font-weight="bold" text-decoration="none" x="561.739990234375" y="371.5">MeasureNode</text></g></g><g transform="translate(-6,2) scale(1,1)"><g><path fill="none" stroke="none"/><text fill="#000000" stroke="none" font-family="Arial" font-size="13px" font-style="normal" font-weight="normal" text-decoration="none" x="557" y="394.5">+method: String</text></g></g><g transform="translate(-6,2) scale(1,1)"><rect fill="#ffffff" stroke="none" x="536" y="480" width="127.45361328125" height="44"/></g><g transform="translate(-6,2) scale(1,1)"><path fill="none" stroke="#000000" d="M 536 480 L 663.45361328125 480 L 663.45361328125 524 L 536 524 L 536 480 Z Z" stroke-miterlimit="10"/></g><g transform="translate(-6,2) scale(1,1)"><g><path fill="none" stroke="none"/><text fill="#000000" stroke="none" font-family="Arial" font-size="13px" font-style="normal" font-weight="bold" text-decoration="none" x="544.451416015625" y="499.5">NormalizationNode</text></g></g><g transform="translate(-6,2) scale(1,1)"><path fill="none" stroke="#000000" d="M 601 480 L 601 409" stroke-miterlimit="10"/></g><g transform="translate(-6,2) scale(1,1)"><path fill="#FFFFFF" stroke="none" d="M 609.419035512032 429.3253497152483 L 601 409 L 592.580964487968 429.3253497152483"/></g><g transform="translate(-6,2) scale(1,1)"><path fill="none" stroke="#000000" d="M 609.419035512032 429.3253497152483 L 601 409 L 592.580964487968 429.3253497152483 L 609.419035512032 429.3253497152483" stroke-miterlimit="10"/></g><g transform="translate(-6,2) scale(1,1)"><path fill="none" stroke="#000000" d="M 88 352 L 88 336 L 392 336 L 392 303" stroke-miterlimit="10"/></g><g transform="translate(-6,2) scale(1,1)"><path fill="#FFFFFF" stroke="none" d="M 400.419035512032 323.3253497152483 L 392 303 L 383.580964487968 323.3253497152483"/></g><g transform="translate(-6,2) scale(1,1)"><path fill="none" stroke="#000000" d="M 400.419035512032 323.3253497152483 L 392 303 L 383.580964487968 323.3253497152483 L 400.419035512032 323.3253497152483" stroke-miterlimit="10"/></g><g transform="translate(-6,2) scale(1,1)"><path fill="none" stroke="#000000" d="M 352 352 L 352 336 L 392 336 L 392 303" stroke-miterlimit="10"/></g><g transform="translate(-6,2) scale(1,1)"><path fill="#FFFFFF" stroke="none" d="M 400.419035512032 323.3253497152483 L 392 303 L 383.580964487968 323.3253497152483"/></g><g transform="translate(-6,2) scale(1,1)"><path fill="none" stroke="#000000" d="M 400.419035512032 323.3253497152483 L 392 303 L 383.580964487968 323.3253497152483 L 400.419035512032 323.3253497152483" stroke-miterlimit="10"/></g><g transform="translate(-6,2) scale(1,1)"><path fill="none" stroke="#000000" d="M 600 352 L 600 336 L 392 336 L 392 303" stroke-miterlimit="10"/></g><g transform="translate(-6,2) scale(1,1)"><path fill="#FFFFFF" stroke="none" d="M 400.419035512032 323.3253497152483 L 392 303 L 383.580964487968 323.3253497152483"/></g><g transform="translate(-6,2) scale(1,1)"><path fill="none" stroke="#000000" d="M 400.419035512032 323.3253497152483 L 392 303 L 383.580964487968 323.3253497152483 L 400.419035512032 323.3253497152483" stroke-miterlimit="10"/></g><g transform="translate(-6,2) scale(1,1)"><path fill="none" stroke="#000000" d="M 472 352 L 472 336 L 392 336 L 392 303" stroke-miterlimit="10"/></g><g transform="translate(-6,2) scale(1,1)"><path fill="#FFFFFF" stroke="none" d="M 400.419035512032 323.3253497152483 L 392 303 L 383.580964487968 323.3253497152483"/></g><g transform="translate(-6,2) scale(1,1)"><path fill="none" stroke="#000000" d="M 400.419035512032 323.3253497152483 L 392 303 L 383.580964487968 323.3253497152483 L 400.419035512032 323.3253497152483" stroke-miterlimit="10"/></g><g transform="translate(-6,2) scale(1,1)"><path fill="none" stroke="#000000" d="M 224 352 L 224 336 L 392 336 L 392 303" stroke-miterlimit="10"/></g><g transform="translate(-6,2) scale(1,1)"><path fill="#FFFFFF" stroke="none" d="M 400.419035512032 323.3253497152483 L 392 303 L 383.580964487968 323.3253497152483"/></g><g transform="translate(-6,2) scale(1,1)"><path fill="none" stroke="#000000" d="M 400.419035512032 323.3253497152483 L 392 303 L 383.580964487968 323.3253497152483 L 400.419035512032 323.3253497152483" stroke-miterlimit="10"/></g><g transform="translate(-6,2) scale(1,1)"><rect fill="#ffffff" stroke="none" x="192" y="480" width="55.92822265625" height="44"/></g><g transform="translate(-6,2) scale(1,1)"><path fill="none" stroke="#000000" d="M 192 480 L 247.92822265625 480 L 247.92822265625 524 L 192 524 L 192 480 Z Z" stroke-miterlimit="10"/></g><g transform="translate(-6,2) scale(1,1)"><g><path fill="none" stroke="none"/><text fill="#000000" stroke="none" font-family="Arial" font-size="13px" font-style="normal" font-weight="bold" text-decoration="none" x="198.6455078125" y="499.5">Finding</text></g></g><g transform="translate(-6,2) scale(1,1)"><path fill="none" stroke="#000000" d="M 653 379 L 720 379" stroke-miterlimit="10"/></g><g transform="translate(-6,2) scale(1,1)"><path fill="none" stroke="#000000" d="M 709.8373251423759 383.209517756016 L 720 379 L 709.8373251423758 374.790482243984" stroke-miterlimit="10"/></g><g transform="translate(-6,2) scale(1,1)"><g><path fill="none" stroke="none"/><text fill="#000000" stroke="none" font-family="Arial" font-size="13px" font-style="normal" font-weight="normal" text-decoration="none" x="679.13134765625" y="370.5">-type</text></g></g><g transform="translate(-6,2) scale(1,1)"><g><path fill="none" stroke="none"/><text fill="#000000" stroke="none" font-family="Arial" font-size="13px" font-style="normal" font-weight="normal" text-decoration="none" x="694.5" y="397.5">1</text></g></g><g transform="translate(-6,2) scale(1,1)"><rect fill="#ffffff" stroke="none" x="192" y="129" width="88.4599609375" height="44"/></g><g transform="translate(-6,2) scale(1,1)"><path fill="none" stroke="#000000" d="M 192 129 L 280.4599609375 129 L 280.4599609375 173 L 192 173 L 192 129 Z Z" stroke-miterlimit="10"/></g><g transform="translate(-6,2) scale(1,1)"><g><path fill="none" stroke="none"/><text fill="#000000" stroke="none" font-family="Arial" font-size="13px" font-style="normal" font-weight="bold" text-decoration="none" x="199.02001953125" y="148.5">NodeFactory</text></g></g><g transform="translate(-6,2) scale(1,1)"><path fill="none" stroke="#000000" d="M 280 150 L 360 150" stroke-miterlimit="10" stroke-dasharray="3"/></g><g transform="translate(-6,2) scale(1,1)"><path fill="none" stroke="#000000" d="M 349.83732514237585 154.209517756016 L 360 150 L 349.83732514237585 145.790482243984" stroke-miterlimit="10"/></g><g transform="translate(-6,2) scale(1,1)"><rect fill="#ffffff" stroke="none" x="16" y="128" width="102.16455078125" height="44"/></g><g transform="translate(-6,2) scale(1,1)"><path fill="none" stroke="#000000" d="M 16 128 L 118.16455078125 128 L 118.16455078125 172 L 16 172 L 16 128 Z Z" stroke-miterlimit="10"/></g><g transform="translate(-6,2) scale(1,1)"><g><path fill="none" stroke="none"/><text fill="#000000" stroke="none" font-family="Arial" font-size="13px" font-style="normal" font-weight="bold" text-decoration="none" x="23.71826171875" y="147.5">NodePopulator</text></g></g><g transform="translate(-6,2) scale(1,1)"><path fill="none" stroke="#000000" d="M 118 151 L 192 151" stroke-miterlimit="10" stroke-dasharray="3"/></g><g transform="translate(-6,2) scale(1,1)"><path fill="none" stroke="#000000" d="M 181.83732514237585 155.209517756016 L 192 151 L 181.83732514237585 146.790482243984" stroke-miterlimit="10"/></g><g transform="translate(-6,2) scale(1,1)"><path fill="none" stroke="#000000" d="M 64 128 L 64 64" stroke-miterlimit="10" stroke-dasharray="3"/></g><g transform="translate(-6,2) scale(1,1)"><path fill="#FFFFFF" stroke="none" d="M 72.41903551203198 84.32534971524831 L 64 64 L 55.580964487968025 84.32534971524831"/></g><g transform="translate(-6,2) scale(1,1)"><path fill="none" stroke="#000000" d="M 72.41903551203198 84.32534971524831 L 64 64 L 55.580964487968025 84.32534971524831 L 72.41903551203198 84.32534971524831" stroke-miterlimit="10"/></g><g transform="translate(-6,2) scale(1,1)"><path fill="none" stroke="#000000" d="M 118 240 L 336 240" stroke-miterlimit="10"/></g><g transform="translate(-6,2) scale(1,1)"><path fill="none" stroke="#000000" d="M 325.83732514237585 244.209517756016 L 336 240 L 325.83732514237585 235.790482243984" stroke-miterlimit="10"/></g><g transform="translate(-6,2) scale(1,1)"><g><path fill="none" stroke="none"/><text fill="#000000" stroke="none" font-family="Arial" font-size="13px" font-style="normal" font-weight="normal" text-decoration="none" x="310.5" y="258.5">2</text></g></g><g transform="translate(-6,2) scale(1,1)"><path fill="none" stroke="#000000" d="M 192 496 L 113 496 L 113 396" stroke-miterlimit="10"/></g><g transform="translate(-6,2) scale(1,1)"><path fill="#FFFFFF" stroke="none" d="M 117.20951775601598 406.16267485762415 L 113 396 L 108.79048224398402 406.16267485762415 L 113 418"/></g><g transform="translate(-6,2) scale(1,1)"><path fill="none" stroke="#000000" d="M 117.20951775601598 406.16267485762415 L 113 396 L 108.79048224398402 406.16267485762415 L 113 418 L 117.20951775601598 406.16267485762415" stroke-miterlimit="10"/></g><g transform="translate(-6,2) scale(1,1)"><g><path fill="none" stroke="none"/><text fill="#000000" stroke="none" font-family="Arial" font-size="13px" font-style="normal" font-weight="normal" text-decoration="none" x="179.5" y="516.5">*</text></g></g><g transform="translate(-6,2) scale(1,1)"><path fill="none" stroke="#000000" d="M 224 480 L 224 424" stroke-miterlimit="10"/></g><g transform="translate(-6,2) scale(1,1)"><path fill="#FFFFFF" stroke="none" d="M 228.209517756016 434.16267485762415 L 224 424 L 219.790482243984 434.16267485762415 L 224 446"/></g><g transform="translate(-6,2) scale(1,1)"><path fill="none" stroke="#000000" d="M 228.209517756016 434.16267485762415 L 224 424 L 219.790482243984 434.16267485762415 L 224 446 L 228.209517756016 434.16267485762415" stroke-miterlimit="10"/></g><g transform="translate(-6,2) scale(1,1)"><g><path fill="none" stroke="none"/><text fill="#000000" stroke="none" font-family="Arial" font-size="13px" font-style="normal" font-weight="normal" text-decoration="none" x="231.5" y="476.5">*</text></g></g><g transform="translate(-6,2) scale(1,1)"><path fill="none" stroke="#000000" d="M 248 496 L 448 496 L 448 456 L 576 456 L 576 409" stroke-miterlimit="10"/></g><g transform="translate(-6,2) scale(1,1)"><path fill="#FFFFFF" stroke="none" d="M 580.209517756016 419.16267485762415 L 576 409 L 571.790482243984 419.16267485762415 L 576 431"/></g><g transform="translate(-6,2) scale(1,1)"><path fill="none" stroke="#000000" d="M 580.209517756016 419.16267485762415 L 576 409 L 571.790482243984 419.16267485762415 L 576 431 L 580.209517756016 419.16267485762415" stroke-miterlimit="10"/></g><g transform="translate(-6,2) scale(1,1)"><g><path fill="none" stroke="none"/><text fill="#000000" stroke="none" font-family="Arial" font-size="13px" font-style="normal" font-weight="normal" text-decoration="none" x="255.5" y="515.5">*</text></g></g><g transform="translate(-6,2) scale(1,1)"><path fill="none" stroke="#000000" d="M 457 240 L 736 240" stroke-miterlimit="10"/></g><g transform="translate(-6,2) scale(1,1)"><g><path fill="none" stroke="none"/><text fill="#000000" stroke="none" font-family="Arial" font-size="13px" font-style="normal" font-weight="normal" text-decoration="none" x="460.5" y="231.5">#owner</text></g></g><g transform="translate(-6,2) scale(1,1)"><g><path fill="none" stroke="none"/><text fill="#000000" stroke="none" font-family="Arial" font-size="13px" font-style="normal" font-weight="normal" text-decoration="none" x="662.680908203125" y="230.5">#processor</text></g></g><g transform="translate(-6,2) scale(1,1)"><g><path fill="none" stroke="none"/><text fill="#000000" stroke="none" font-family="Arial" font-size="13px" font-style="normal" font-weight="normal" text-decoration="none" x="710.5" y="258.5">1</text></g></g><g transform="translate(-6,2) scale(1,1)"><path fill="none" stroke="#000000" d="M 663 504 L 720 504" stroke-miterlimit="10"/></g><g transform="translate(-6,2) scale(1,1)"><path fill="none" stroke="#000000" d="M 709.8373251423759 508.209517756016 L 720 504 L 709.8373251423758 499.790482243984" stroke-miterlimit="10"/></g><g transform="translate(-6,2) scale(1,1)"><rect fill="#ffffff" stroke="none" x="720" y="352" width="125.34619140625" height="90"/></g><g transform="translate(-6,2) scale(1,1)"><path fill="none" stroke="#000000" d="M 720 352 L 845.34619140625 352 L 845.34619140625 442 L 720 442 L 720 352 Z Z" stroke-miterlimit="10"/></g><g transform="translate(-6,2) scale(1,1)"><path fill="none" stroke="#000000" d="M 720 390 L 845.34619140625 390" stroke-miterlimit="10"/></g><g transform="translate(-6,2) scale(1,1)"><g><path fill="none" stroke="none"/><text fill="#000000" stroke="none" font-family="Arial" font-size="13px" font-style="normal" font-weight="normal" text-decoration="none" x="739.30908203125" y="369.5">«enumeration»</text></g></g><g transform="translate(-6,2) scale(1,1)"><g><path fill="none" stroke="none"/><text fill="#000000" stroke="none" font-family="Arial" font-size="13px" font-style="normal" font-weight="bold" text-decoration="none" x="743.292236328125" y="384.5">MeasureType</text></g></g><g transform="translate(-6,2) scale(1,1)"><g><path fill="none" stroke="none"/><text fill="#000000" stroke="none" font-family="Arial" font-size="13px" font-style="normal" font-weight="normal" text-decoration="none" x="725" y="407.5">FINDINGS</text></g></g><g transform="translate(-6,2) scale(1,1)"><g><path fill="none" stroke="none"/><text fill="#000000" stroke="none" font-family="Arial" font-size="13px" font-style="normal" font-weight="normal" text-decoration="none" x="725" y="422.5">NUMBER</text></g></g><g transform="translate(-6,2) scale(1,1)"><g><path fill="none" stroke="none"/><text fill="#000000" stroke="none" font-family="Arial" font-size="13px" font-style="normal" font-weight="normal" text-decoration="none" x="725" y="437.5">NONE</text></g></g><g transform="translate(-6,2) scale(1,1)"><rect fill="#ffffff" stroke="none" x="24" y="224" width="93.51904296875" height="44"/></g><g transform="translate(-6,2) scale(1,1)"><path fill="none" stroke="#000000" d="M 24 224 L 117.51904296875 224 L 117.51904296875 268 L 24 268 L 24 224 Z Z" stroke-miterlimit="10"/></g><g transform="translate(-6,2) scale(1,1)"><g><path fill="none" stroke="none"/><text fill="#000000" stroke="none" font-family="Arial" font-size="13px" font-style="normal" font-weight="bold" text-decoration="none" x="31.7373046875" y="243.5">AbstractEdge</text></g></g><g transform="translate(-6,2) scale(1,1)"><rect fill="#ffffff" stroke="none" x="16" y="16" width="97.83544921875" height="48"/></g><g transform="translate(-6,2) scale(1,1)"><path fill="none" stroke="#000000" d="M 16 16 L 113.83544921875 16 L 113.83544921875 64 L 16 64 L 16 16 Z Z" stroke-miterlimit="10"/></g><g transform="translate(-6,2) scale(1,1)"><g><path fill="none" stroke="none"/><text fill="#000000" stroke="none" font-family="Arial" font-size="13px" font-style="normal" font-weight="normal" text-decoration="none" x="32.75732421875" y="33.5">«interface»</text></g></g><g transform="translate(-6,2) scale(1,1)"><g><path fill="none" stroke="none"/><text fill="#000000" stroke="none" font-family="Arial" font-size="13px" font-style="normal" font-weight="bold" text-decoration="none" x="23.734130859375" y="48.5">GraphModifier</text></g></g><g transform="translate(-6,2) scale(1,1)"><rect fill="#ffffff" stroke="none" x="736" y="216" width="79.82080078125" height="44"/></g><g transform="translate(-6,2) scale(1,1)"><path fill="none" stroke="#000000" d="M 736 216 L 815.82080078125 216 L 815.82080078125 260 L 736 260 L 736 216 Z Z" stroke-miterlimit="10"/></g><g transform="translate(-6,2) scale(1,1)"><g><path fill="none" stroke="none"/><text fill="#000000" stroke="none" font-family="Arial" font-size="13px" font-style="italic" font-weight="bold" text-decoration="none" x="746.65087890625" y="235.5">Processor</text></g></g><g transform="translate(-6,2) scale(1,1)"><rect fill="#ffffff" stroke="none" x="720" y="480" width="134.68359375" height="105"/></g><g transform="translate(-6,2) scale(1,1)"><path fill="none" stroke="#000000" d="M 720 480 L 854.68359375 480 L 854.68359375 585 L 720 585 L 720 480 Z Z" stroke-miterlimit="10"/></g><g transform="translate(-6,2) scale(1,1)"><path fill="none" stroke="#000000" d="M 720 518 L 854.68359375 518" stroke-miterlimit="10"/></g><g transform="translate(-6,2) scale(1,1)"><g><path fill="none" stroke="none"/><text fill="#000000" stroke="none" font-family="Arial" font-size="13px" font-style="normal" font-weight="normal" text-decoration="none" x="743.977783203125" y="497.5">«enumeration»</text></g></g><g transform="translate(-6,2) scale(1,1)"><g><path fill="none" stroke="none"/><text fill="#000000" stroke="none" font-family="Arial" font-size="13px" font-style="normal" font-weight="bold" text-decoration="none" x="728.451416015625" y="512.5">NormalizationRange</text></g></g><g transform="translate(-6,2) scale(1,1)"><g><path fill="none" stroke="none"/><text fill="#000000" stroke="none" font-family="Arial" font-size="13px" font-style="normal" font-weight="normal" text-decoration="none" x="725" y="535.5">FILE</text></g></g><g transform="translate(-6,2) scale(1,1)"><g><path fill="none" stroke="none"/><text fill="#000000" stroke="none" font-family="Arial" font-size="13px" font-style="normal" font-weight="normal" text-decoration="none" x="725" y="550.5">CLASS</text></g></g><g transform="translate(-6,2) scale(1,1)"><g><path fill="none" stroke="none"/><text fill="#000000" stroke="none" font-family="Arial" font-size="13px" font-style="normal" font-weight="normal" text-decoration="none" x="725" y="565.5">METHOD</text></g></g><g transform="translate(-6,2) scale(1,1)"><g><path fill="none" stroke="none"/><text fill="#000000" stroke="none" font-family="Arial" font-size="13px" font-style="normal" font-weight="normal" text-decoration="none" x="725" y="580.5">NA</text></g></g><g transform="translate(-6,2) scale(1,1)"><rect fill="#C0C0C0" stroke="none" x="660" y="15" width="94.236328125" height="44" opacity="0.2"/></g><g transform="translate(-6,2) scale(1,1)"><rect fill="#ffffff" stroke="none" x="653" y="8" width="94.236328125" height="44"/></g><g transform="translate(-6,2) scale(1,1)"><path fill="none" stroke="#000000" d="M 653 8 L 747.236328125 8 L 747.236328125 52 L 653 52 L 653 8 Z Z" stroke-miterlimit="10"/></g><g transform="translate(-6,2) scale(1,1)"><g><path fill="none" stroke="none"/><text fill="#000000" stroke="none" font-family="Arial" font-size="13px" font-style="normal" font-weight="bold" text-decoration="none" x="661.108642578125" y="27.5">ModelDistiller</text></g></g><g transform="translate(-6,2) scale(1,1)"><rect fill="#C0C0C0" stroke="none" x="628" y="119" width="144.08447265625" height="44" opacity="0.2"/></g><g transform="translate(-6,2) scale(1,1)"><rect fill="#ffffff" stroke="none" x="621" y="112" width="144.08447265625" height="44"/></g><g transform="translate(-6,2) scale(1,1)"><path fill="none" stroke="#000000" d="M 621 112 L 765.08447265625 112 L 765.08447265625 156 L 621 156 L 621 112 Z Z" stroke-miterlimit="10"/></g><g transform="translate(-6,2) scale(1,1)"><g><path fill="none" stroke="none"/><text fill="#000000" stroke="none" font-family="Arial" font-size="13px" font-style="normal" font-weight="bold" text-decoration="none" x="630.54638671875" y="131.5">DistilledGraphCreator</text></g></g><g transform="translate(-6,2) scale(1,1)"><path fill="none" stroke="#000000" d="M 621 144 L 512 144 L 512 40 L 114 40" stroke-miterlimit="10" stroke-dasharray="3"/></g><g transform="translate(-6,2) scale(1,1)"><path fill="none" stroke="#000000" d="M 124.16267485762415 35.790482243984016 L 114 40 L 124.16267485762415 44.209517756015984" stroke-miterlimit="10"/></g><g transform="translate(-6,2) scale(1,1)"><path fill="none" stroke="#000000" d="M 699 52 L 699 112" stroke-miterlimit="10"/></g><g transform="translate(-6,2) scale(1,1)"><path fill="none" stroke="#000000" d="M 694.790482243984 101.83732514237585 L 699 112 L 703.209517756016 101.83732514237585" stroke-miterlimit="10"/></g></g></svg>