<svg version="1.1" xmlns="http://www.w3.org/2000/svg" xmlns:xlink="http://www.w3.org/1999/xlink" width="1033.03076171875" height="666"><defs/><g><g transform="translate(-6,10) scale(1,1)"><rect fill="#ffffff" stroke="none" x="525" y="117" width="73.32080078125" height="48"/></g><g transform="translate(-6,10) scale(1,1)"><path fill="none" stroke="#000000" d="M 525 117 L 598.32080078125 117 L 598.32080078125 165 L 525 165 L 525 117 Z Z" stroke-miterlimit="10"/></g><g transform="translate(-6,10) scale(1,1)"><g><path fill="none" stroke="none"/><text fill="#000000" stroke="none" font-family="Arial" font-size="13px" font-style="normal" font-weight="normal" text-decoration="none" x="529.5" y="134.5">«interface»</text></g></g><g transform="translate(-6,10) scale(1,1)"><g><path fill="none" stroke="none"/><text fill="#000000" stroke="none" font-family="Arial" font-size="13px" font-style="normal" font-weight="bold" text-decoration="none" x="546.47998046875" y="149.5">Edge</text></g></g><g transform="translate(-6,10) scale(1,1)"><rect fill="#ffffff" stroke="none" x="517" y="214" width="93.51904296875" height="44"/></g><g transform="translate(-6,10) scale(1,1)"><path fill="none" stroke="#000000" d="M 517 214 L 610.51904296875 214 L 610.51904296875 258 L 517 258 L 517 214 Z Z" stroke-miterlimit="10"/></g><g transform="translate(-6,10) scale(1,1)"><g><path fill="none" stroke="none"/><text fill="#000000" stroke="none" font-family="Arial" font-size="13px" font-style="normal" font-weight="bold" text-decoration="none" x="524.7373046875" y="233.5">AbstractEdge</text></g></g><g transform="translate(-6,10) scale(1,1)"><rect fill="#ffffff" stroke="none" x="821" y="302" width="155.376953125" height="44"/></g><g transform="translate(-6,10) scale(1,1)"><path fill="none" stroke="#000000" d="M 821 302 L 976.376953125 302 L 976.376953125 346 L 821 346 L 821 302 Z Z" stroke-miterlimit="10"/></g><g transform="translate(-6,10) scale(1,1)"><g><path fill="none" stroke="none"/><text fill="#000000" stroke="none" font-family="Arial" font-size="13px" font-style="normal" font-weight="bold" text-decoration="none" x="830.035400390625" y="321.5">FindingToMeasureEdge</text></g></g><g transform="translate(-6,10) scale(1,1)"><rect fill="#ffffff" stroke="none" x="437" y="302" width="142.4150390625" height="44"/></g><g transform="translate(-6,10) scale(1,1)"><path fill="none" stroke="#000000" d="M 437 302 L 579.4150390625 302 L 579.4150390625 346 L 437 346 L 437 302 Z Z" stroke-miterlimit="10"/></g><g transform="translate(-6,10) scale(1,1)"><g><path fill="none" stroke="none"/><text fill="#000000" stroke="none" font-family="Arial" font-size="13px" font-style="normal" font-weight="bold" text-decoration="none" x="444.73095703125" y="321.5">ValueToMeasureEdge</text></g></g><g transform="translate(-6,10) scale(1,1)"><rect fill="#ffffff" stroke="none" x="589" y="302" width="215.35595703125" height="44"/></g><g transform="translate(-6,10) scale(1,1)"><path fill="none" stroke="#000000" d="M 589 302 L 804.35595703125 302 L 804.35595703125 346 L 589 346 L 589 302 Z Z" stroke-miterlimit="10"/></g><g transform="translate(-6,10) scale(1,1)"><g><path fill="none" stroke="none"/><text fill="#000000" stroke="none" font-family="Arial" font-size="13px" font-style="normal" font-weight="bold" text-decoration="none" x="599.48583984375" y="321.5">MeasureToMeasureFindingsEdge</text></g></g><g transform="translate(-6,10) scale(1,1)"><rect fill="#ffffff" stroke="none" x="277" y="302" width="146.00146484375" height="72"/></g><g transform="translate(-6,10) scale(1,1)"><path fill="none" stroke="#000000" d="M 277 302 L 423.00146484375 302 L 423.00146484375 374 L 277 374 L 277 302 Z Z" stroke-miterlimit="10"/></g><g transform="translate(-6,10) scale(1,1)"><path fill="none" stroke="#000000" d="M 277 327 L 423.00146484375 327" stroke-miterlimit="10"/></g><g transform="translate(-6,10) scale(1,1)"><path fill="none" stroke="#000000" d="M 277 365 L 423.00146484375 365" stroke-miterlimit="10"/></g><g transform="translate(-6,10) scale(1,1)"><g><path fill="none" stroke="none"/><text fill="#000000" stroke="none" font-family="Arial" font-size="13px" font-style="normal" font-weight="bold" text-decoration="none" x="285.07373046875" y="321.5">WeightedRankedEdge</text></g></g><g transform="translate(-6,10) scale(1,1)"><g><path fill="none" stroke="none"/><text fill="#000000" stroke="none" font-family="Arial" font-size="13px" font-style="normal" font-weight="normal" text-decoration="none" x="282" y="344.5">#weight: double</text></g></g><g transform="translate(-6,10) scale(1,1)"><g><path fill="none" stroke="none"/><text fill="#000000" stroke="none" font-family="Arial" font-size="13px" font-style="normal" font-weight="normal" text-decoration="none" x="282" y="359.5">#rank: int</text></g></g><g transform="translate(-6,10) scale(1,1)"><rect fill="#ffffff" stroke="none" x="213" y="446" width="197.296875" height="57"/></g><g transform="translate(-6,10) scale(1,1)"><path fill="none" stroke="#000000" d="M 213 446 L 410.296875 446 L 410.296875 503 L 213 503 L 213 446 Z Z" stroke-miterlimit="10"/></g><g transform="translate(-6,10) scale(1,1)"><path fill="none" stroke="#000000" d="M 213 471 L 410.296875 471" stroke-miterlimit="10"/></g><g transform="translate(-6,10) scale(1,1)"><path fill="none" stroke="#000000" d="M 213 494 L 410.296875 494" stroke-miterlimit="10"/></g><g transform="translate(-6,10) scale(1,1)"><g><path fill="none" stroke="none"/><text fill="#000000" stroke="none" font-family="Arial" font-size="13px" font-style="normal" font-weight="bold" text-decoration="none" x="222.77490234375" y="465.5">MeasureToFactorNumberEdge</text></g></g><g transform="translate(-6,10) scale(1,1)"><g><path fill="none" stroke="none"/><text fill="#000000" stroke="none" font-family="Arial" font-size="13px" font-style="normal" font-weight="normal" text-decoration="none" x="218" y="488.5">+inf: String</text></g></g><g transform="translate(-6,10) scale(1,1)"><rect fill="#ffffff" stroke="none" x="637" y="446" width="202.3369140625" height="44"/></g><g transform="translate(-6,10) scale(1,1)"><path fill="none" stroke="#000000" d="M 637 446 L 839.3369140625 446 L 839.3369140625 490 L 637 490 L 637 446 Z Z" stroke-miterlimit="10"/></g><g transform="translate(-6,10) scale(1,1)"><g><path fill="none" stroke="none"/><text fill="#000000" stroke="none" font-family="Arial" font-size="13px" font-style="normal" font-weight="bold" text-decoration="none" x="647.844482421875" y="465.5">MeasureToFactorFindingsEdge</text></g></g><g transform="translate(-6,10) scale(1,1)"><rect fill="#ffffff" stroke="none" x="69" y="446" width="135.15966796875" height="57"/></g><g transform="translate(-6,10) scale(1,1)"><path fill="none" stroke="#000000" d="M 69 446 L 204.15966796875 446 L 204.15966796875 503 L 69 503 L 69 446 Z Z" stroke-miterlimit="10"/></g><g transform="translate(-6,10) scale(1,1)"><path fill="none" stroke="#000000" d="M 69 471 L 204.15966796875 471" stroke-miterlimit="10"/></g><g transform="translate(-6,10) scale(1,1)"><path fill="none" stroke="#000000" d="M 69 494 L 204.15966796875 494" stroke-miterlimit="10"/></g><g transform="translate(-6,10) scale(1,1)"><g><path fill="none" stroke="none"/><text fill="#000000" stroke="none" font-family="Arial" font-size="13px" font-style="normal" font-weight="bold" text-decoration="none" x="77.692626953125" y="465.5">FactorToFactorEdge</text></g></g><g transform="translate(-6,10) scale(1,1)"><g><path fill="none" stroke="none"/><text fill="#000000" stroke="none" font-family="Arial" font-size="13px" font-style="normal" font-weight="normal" text-decoration="none" x="74" y="488.5">+inf: String</text></g></g><g transform="translate(-6,10) scale(1,1)"><rect fill="#ffffff" stroke="none" x="421" y="446" width="210.31591796875" height="57"/></g><g transform="translate(-6,10) scale(1,1)"><path fill="none" stroke="#000000" d="M 421 446 L 631.31591796875 446 L 631.31591796875 503 L 421 503 L 421 446 Z Z" stroke-miterlimit="10"/></g><g transform="translate(-6,10) scale(1,1)"><path fill="none" stroke="#000000" d="M 421 471 L 631.31591796875 471" stroke-miterlimit="10"/></g><g transform="translate(-6,10) scale(1,1)"><path fill="none" stroke="#000000" d="M 421 494 L 631.31591796875 494" stroke-miterlimit="10"/></g><g transform="translate(-6,10) scale(1,1)"><g><path fill="none" stroke="none"/><text fill="#000000" stroke="none" font-family="Arial" font-size="13px" font-style="normal" font-weight="bold" text-decoration="none" x="430.416259765625" y="465.5">MeasureToMeasureNumberEdge</text></g></g><g transform="translate(-6,10) scale(1,1)"><g><path fill="none" stroke="none"/><text fill="#000000" stroke="none" font-family="Arial" font-size="13px" font-style="normal" font-weight="normal" text-decoration="none" x="426" y="488.5">+inf: String</text></g></g><g transform="translate(-6,10) scale(1,1)"><path fill="none" stroke="#000000" d="M 141 446 L 141 424 L 349 424 L 349 374" stroke-miterlimit="10"/></g><g transform="translate(-6,10) scale(1,1)"><path fill="#FFFFFF" stroke="none" d="M 357.419035512032 394.3253497152483 L 349 374 L 340.580964487968 394.3253497152483"/></g><g transform="translate(-6,10) scale(1,1)"><path fill="none" stroke="#000000" d="M 357.419035512032 394.3253497152483 L 349 374 L 340.580964487968 394.3253497152483 L 357.419035512032 394.3253497152483" stroke-miterlimit="10"/></g><g transform="translate(-6,10) scale(1,1)"><path fill="none" stroke="#000000" d="M 349 446 L 349 374" stroke-miterlimit="10"/></g><g transform="translate(-6,10) scale(1,1)"><path fill="#FFFFFF" stroke="none" d="M 357.419035512032 394.3253497152483 L 349 374 L 340.580964487968 394.3253497152483"/></g><g transform="translate(-6,10) scale(1,1)"><path fill="none" stroke="#000000" d="M 357.419035512032 394.3253497152483 L 349 374 L 340.580964487968 394.3253497152483 L 357.419035512032 394.3253497152483" stroke-miterlimit="10"/></g><g transform="translate(-6,10) scale(1,1)"><path fill="none" stroke="#000000" d="M 741 446 L 741 424 L 350 424 L 350 374" stroke-miterlimit="10"/></g><g transform="translate(-6,10) scale(1,1)"><path fill="#FFFFFF" stroke="none" d="M 358.419035512032 394.3253497152483 L 350 374 L 341.580964487968 394.3253497152483"/></g><g transform="translate(-6,10) scale(1,1)"><path fill="none" stroke="#000000" d="M 358.419035512032 394.3253497152483 L 350 374 L 341.580964487968 394.3253497152483 L 358.419035512032 394.3253497152483" stroke-miterlimit="10"/></g><g transform="translate(-6,10) scale(1,1)"><path fill="none" stroke="#000000" d="M 525 446 L 525 424 L 349 424 L 349 374" stroke-miterlimit="10"/></g><g transform="translate(-6,10) scale(1,1)"><path fill="#FFFFFF" stroke="none" d="M 357.419035512032 394.3253497152483 L 349 374 L 340.580964487968 394.3253497152483"/></g><g transform="translate(-6,10) scale(1,1)"><path fill="none" stroke="#000000" d="M 357.419035512032 394.3253497152483 L 349 374 L 340.580964487968 394.3253497152483 L 357.419035512032 394.3253497152483" stroke-miterlimit="10"/></g><g transform="translate(-6,10) scale(1,1)"><path fill="none" stroke="#000000" d="M 389 302 L 389 286 L 565 286 L 565 258" stroke-miterlimit="10"/></g><g transform="translate(-6,10) scale(1,1)"><path fill="#FFFFFF" stroke="none" d="M 573.419035512032 278.3253497152483 L 565 258 L 556.580964487968 278.3253497152483"/></g><g transform="translate(-6,10) scale(1,1)"><path fill="none" stroke="#000000" d="M 573.419035512032 278.3253497152483 L 565 258 L 556.580964487968 278.3253497152483 L 573.419035512032 278.3253497152483" stroke-miterlimit="10"/></g><g transform="translate(-6,10) scale(1,1)"><path fill="none" stroke="#000000" d="M 901 302 L 901 286 L 565 286 L 565 258" stroke-miterlimit="10"/></g><g transform="translate(-6,10) scale(1,1)"><path fill="#FFFFFF" stroke="none" d="M 573.419035512032 278.3253497152483 L 565 258 L 556.580964487968 278.3253497152483"/></g><g transform="translate(-6,10) scale(1,1)"><path fill="none" stroke="#000000" d="M 573.419035512032 278.3253497152483 L 565 258 L 556.580964487968 278.3253497152483 L 573.419035512032 278.3253497152483" stroke-miterlimit="10"/></g><g transform="translate(-6,10) scale(1,1)"><path fill="none" stroke="#000000" d="M 509 302 L 509 286 L 565 286 L 565 258" stroke-miterlimit="10"/></g><g transform="translate(-6,10) scale(1,1)"><path fill="#FFFFFF" stroke="none" d="M 573.419035512032 278.3253497152483 L 565 258 L 556.580964487968 278.3253497152483"/></g><g transform="translate(-6,10) scale(1,1)"><path fill="none" stroke="#000000" d="M 573.419035512032 278.3253497152483 L 565 258 L 556.580964487968 278.3253497152483 L 573.419035512032 278.3253497152483" stroke-miterlimit="10"/></g><g transform="translate(-6,10) scale(1,1)"><path fill="none" stroke="#000000" d="M 693 302 L 693 286 L 565 286 L 565 258" stroke-miterlimit="10"/></g><g transform="translate(-6,10) scale(1,1)"><path fill="#FFFFFF" stroke="none" d="M 573.419035512032 278.3253497152483 L 565 258 L 556.580964487968 278.3253497152483"/></g><g transform="translate(-6,10) scale(1,1)"><path fill="none" stroke="#000000" d="M 573.419035512032 278.3253497152483 L 565 258 L 556.580964487968 278.3253497152483 L 573.419035512032 278.3253497152483" stroke-miterlimit="10"/></g><g transform="translate(-6,10) scale(1,1)"><path fill="none" stroke="#000000" d="M 562 214 L 562 165" stroke-miterlimit="10" stroke-dasharray="3"/></g><g transform="translate(-6,10) scale(1,1)"><path fill="#FFFFFF" stroke="none" d="M 570.419035512032 185.3253497152483 L 562 165 L 553.580964487968 185.3253497152483"/></g><g transform="translate(-6,10) scale(1,1)"><path fill="none" stroke="#000000" d="M 570.419035512032 185.3253497152483 L 562 165 L 553.580964487968 185.3253497152483 L 570.419035512032 185.3253497152483" stroke-miterlimit="10"/></g><g transform="translate(-6,10) scale(1,1)"><rect fill="#ffffff" stroke="none" x="693" y="590" width="89.91357421875" height="48"/></g><g transform="translate(-6,10) scale(1,1)"><path fill="none" stroke="#000000" d="M 693 590 L 782.91357421875 590 L 782.91357421875 638 L 693 638 L 693 590 Z Z" stroke-miterlimit="10"/></g><g transform="translate(-6,10) scale(1,1)"><g><path fill="none" stroke="none"/><text fill="#000000" stroke="none" font-family="Arial" font-size="13px" font-style="normal" font-weight="normal" text-decoration="none" x="705.79638671875" y="607.5">«interface»</text></g></g><g transform="translate(-6,10) scale(1,1)"><g><path fill="none" stroke="none"/><text fill="#000000" stroke="none" font-family="Arial" font-size="13px" font-style="normal" font-weight="bold" text-decoration="none" x="700.0263671875" y="622.5">Normalizable</text></g></g><g transform="translate(-6,10) scale(1,1)"><path fill="none" stroke="#000000" d="M 738 490 L 738 590" stroke-miterlimit="10" stroke-dasharray="3"/></g><g transform="translate(-6,10) scale(1,1)"><path fill="#FFFFFF" stroke="none" d="M 729.580964487968 569.6746502847517 L 738 590 L 746.419035512032 569.6746502847517"/></g><g transform="translate(-6,10) scale(1,1)"><path fill="none" stroke="#000000" d="M 729.580964487968 569.6746502847517 L 738 590 L 746.419035512032 569.6746502847517 L 729.580964487968 569.6746502847517" stroke-miterlimit="10"/></g><g transform="translate(-6,10) scale(1,1)"><rect fill="#ffffff" stroke="none" x="24" y="280" width="87.74267578125" height="48"/></g><g transform="translate(-6,10) scale(1,1)"><path fill="none" stroke="#000000" d="M 24 280 L 111.74267578125 280 L 111.74267578125 328 L 24 328 L 24 280 Z Z" stroke-miterlimit="10"/></g><g transform="translate(-6,10) scale(1,1)"><g><path fill="none" stroke="none"/><text fill="#000000" stroke="none" font-family="Arial" font-size="13px" font-style="normal" font-weight="normal" text-decoration="none" x="35.7109375" y="297.5">«interface»</text></g></g><g transform="translate(-6,10) scale(1,1)"><g><path fill="none" stroke="none"/><text fill="#000000" stroke="none" font-family="Arial" font-size="13px" font-style="normal" font-weight="bold" text-decoration="none" x="30.286865234375" y="312.5">RankedEdge</text></g></g><g transform="translate(-6,10) scale(1,1)"><path fill="none" stroke="#000000" d="M 277 312 L 112 312" stroke-miterlimit="10" stroke-dasharray="3"/></g><g transform="translate(-6,10) scale(1,1)"><path fill="#FFFFFF" stroke="none" d="M 132.3253497152483 303.580964487968 L 112 312 L 132.3253497152483 320.419035512032"/></g><g transform="translate(-6,10) scale(1,1)"><path fill="none" stroke="#000000" d="M 132.3253497152483 303.580964487968 L 112 312 L 132.3253497152483 320.419035512032 L 132.3253497152483 303.580964487968" stroke-miterlimit="10"/></g><g transform="translate(-6,10) scale(1,1)"><rect fill="#ffffff" stroke="none" x="16" y="336" width="99.04150390625" height="48"/></g><g transform="translate(-6,10) scale(1,1)"><path fill="none" stroke="#000000" d="M 16 336 L 115.04150390625 336 L 115.04150390625 384 L 16 384 L 16 336 Z Z" stroke-miterlimit="10"/></g><g transform="translate(-6,10) scale(1,1)"><g><path fill="none" stroke="none"/><text fill="#000000" stroke="none" font-family="Arial" font-size="13px" font-style="normal" font-weight="normal" text-decoration="none" x="33.3603515625" y="353.5">«interface»</text></g></g><g transform="translate(-6,10) scale(1,1)"><g><path fill="none" stroke="none"/><text fill="#000000" stroke="none" font-family="Arial" font-size="13px" font-style="normal" font-weight="bold" text-decoration="none" x="22.997802734375" y="368.5">WeightedEdge</text></g></g><g transform="translate(-6,10) scale(1,1)"><path fill="none" stroke="#000000" d="M 277 360 L 115 360" stroke-miterlimit="10" stroke-dasharray="3"/></g><g transform="translate(-6,10) scale(1,1)"><path fill="#FFFFFF" stroke="none" d="M 135.3253497152483 351.580964487968 L 115 360 L 135.3253497152483 368.419035512032"/></g><g transform="translate(-6,10) scale(1,1)"><path fill="none" stroke="#000000" d="M 135.3253497152483 351.580964487968 L 115 360 L 135.3253497152483 368.419035512032 L 135.3253497152483 351.580964487968" stroke-miterlimit="10"/></g><g transform="translate(-6,10) scale(1,1)"><rect fill="#ffffff" stroke="none" x="877" y="446" width="94.94091796875" height="48"/></g><g transform="translate(-6,10) scale(1,1)"><path fill="none" stroke="#000000" d="M 877 446 L 971.94091796875 446 L 971.94091796875 494 L 877 494 L 877 446 Z Z" stroke-miterlimit="10"/></g><g transform="translate(-6,10) scale(1,1)"><g><path fill="none" stroke="none"/><text fill="#000000" stroke="none" font-family="Arial" font-size="13px" font-style="normal" font-weight="normal" text-decoration="none" x="892.31005859375" y="463.5">«interface»</text></g></g><g transform="translate(-6,10) scale(1,1)"><g><path fill="none" stroke="none"/><text fill="#000000" stroke="none" font-family="Arial" font-size="13px" font-style="normal" font-weight="bold" text-decoration="none" x="884.721435546875" y="478.5">FindingsEdge</text></g></g><g transform="translate(-6,10) scale(1,1)"><path fill="none" stroke="#000000" d="M 941 346 L 941 446" stroke-miterlimit="10" stroke-dasharray="3"/></g><g transform="translate(-6,10) scale(1,1)"><path fill="#FFFFFF" stroke="none" d="M 932.580964487968 425.6746502847517 L 941 446 L 949.419035512032 425.6746502847517"/></g><g transform="translate(-6,10) scale(1,1)"><path fill="none" stroke="#000000" d="M 932.580964487968 425.6746502847517 L 941 446 L 949.419035512032 425.6746502847517 L 932.580964487968 425.6746502847517" stroke-miterlimit="10"/></g><g transform="translate(-6,10) scale(1,1)"><path fill="none" stroke="#000000" d="M 784 346 L 784 406 L 893 406 L 893 446" stroke-miterlimit="10" stroke-dasharray="3"/></g><g transform="translate(-6,10) scale(1,1)"><path fill="#FFFFFF" stroke="none" d="M 884.580964487968 425.6746502847517 L 893 446 L 901.419035512032 425.6746502847517"/></g><g transform="translate(-6,10) scale(1,1)"><path fill="none" stroke="#000000" d="M 884.580964487968 425.6746502847517 L 893 446 L 901.419035512032 425.6746502847517 L 884.580964487968 425.6746502847517" stroke-miterlimit="10"/></g><g transform="translate(-6,10) scale(1,1)"><rect fill="#ffffff" stroke="none" x="261" y="598" width="97.84814453125" height="48"/></g><g transform="translate(-6,10) scale(1,1)"><path fill="none" stroke="#000000" d="M 261 598 L 358.84814453125 598 L 358.84814453125 646 L 261 646 L 261 598 Z Z" stroke-miterlimit="10"/></g><g transform="translate(-6,10) scale(1,1)"><g><path fill="none" stroke="none"/><text fill="#000000" stroke="none" font-family="Arial" font-size="13px" font-style="normal" font-weight="normal" text-decoration="none" x="277.763671875" y="615.5">«interface»</text></g></g><g transform="translate(-6,10) scale(1,1)"><g><path fill="none" stroke="none"/><text fill="#000000" stroke="none" font-family="Arial" font-size="13px" font-style="normal" font-weight="bold" text-decoration="none" x="268.36279296875" y="630.5">InfluenceEdge</text></g></g><g transform="translate(-6,10) scale(1,1)"><path fill="none" stroke="#000000" d="M 311 503 L 311 598" stroke-miterlimit="10" stroke-dasharray="3"/></g><g transform="translate(-6,10) scale(1,1)"><path fill="#FFFFFF" stroke="none" d="M 302.580964487968 577.6746502847517 L 311 598 L 319.419035512032 577.6746502847517"/></g><g transform="translate(-6,10) scale(1,1)"><path fill="none" stroke="#000000" d="M 302.580964487968 577.6746502847517 L 311 598 L 319.419035512032 577.6746502847517 L 302.580964487968 577.6746502847517" stroke-miterlimit="10"/></g><g transform="translate(-6,10) scale(1,1)"><path fill="none" stroke="#000000" d="M 171 503 L 171 622 L 261 622" stroke-miterlimit="10" stroke-dasharray="3"/></g><g transform="translate(-6,10) scale(1,1)"><path fill="#FFFFFF" stroke="none" d="M 240.6746502847517 630.419035512032 L 261 622 L 240.6746502847517 613.580964487968"/></g><g transform="translate(-6,10) scale(1,1)"><path fill="none" stroke="#000000" d="M 240.6746502847517 630.419035512032 L 261 622 L 240.6746502847517 613.580964487968 L 240.6746502847517 630.419035512032" stroke-miterlimit="10"/></g><g transform="translate(-6,10) scale(1,1)"><path fill="none" stroke="#000000" d="M 482 503 L 482 622 L 359 622" stroke-miterlimit="10" stroke-dasharray="3"/></g><g transform="translate(-6,10) scale(1,1)"><path fill="#FFFFFF" stroke="none" d="M 379.3253497152483 613.580964487968 L 359 622 L 379.3253497152483 630.419035512032"/></g><g transform="translate(-6,10) scale(1,1)"><path fill="none" stroke="#000000" d="M 379.3253497152483 613.580964487968 L 359 622 L 379.3253497152483 630.419035512032 L 379.3253497152483 613.580964487968" stroke-miterlimit="10"/></g><g transform="translate(-6,10) scale(1,1)"><rect fill="#ffffff" stroke="none" x="365" y="119" width="87.74267578125" height="44"/></g><g transform="translate(-6,10) scale(1,1)"><path fill="none" stroke="#000000" d="M 365 119 L 452.74267578125 119 L 452.74267578125 163 L 365 163 L 365 119 Z Z" stroke-miterlimit="10"/></g><g transform="translate(-6,10) scale(1,1)"><g><path fill="none" stroke="none"/><text fill="#000000" stroke="none" font-family="Arial" font-size="13px" font-style="normal" font-weight="bold" text-decoration="none" x="372.02001953125" y="138.5">EdgeFactory</text></g></g><g transform="translate(-6,10) scale(1,1)"><path fill="none" stroke="#000000" d="M 453 141 L 525 141" stroke-miterlimit="10" stroke-dasharray="3"/></g><g transform="translate(-6,10) scale(1,1)"><path fill="none" stroke="#000000" d="M 514.8373251423759 145.209517756016 L 525 141 L 514.8373251423758 136.790482243984" stroke-miterlimit="10"/></g><g transform="translate(-6,10) scale(1,1)"><rect fill="#ffffff" stroke="none" x="149" y="118" width="109.38818359375" height="44"/></g><g transform="translate(-6,10) scale(1,1)"><path fill="none" stroke="#000000" d="M 149 118 L 258.38818359375 118 L 258.38818359375 162 L 149 162 L 149 118 Z Z" stroke-miterlimit="10"/></g><g transform="translate(-6,10) scale(1,1)"><g><path fill="none" stroke="none"/><text fill="#000000" stroke="none" font-family="Arial" font-size="13px" font-style="normal" font-weight="bold" text-decoration="none" x="160.688720703125" y="137.5">EdgePopulator</text></g></g><g transform="translate(-6,10) scale(1,1)"><path fill="none" stroke="#000000" d="M 258 141 L 365 141" stroke-miterlimit="10" stroke-dasharray="3"/></g><g transform="translate(-6,10) scale(1,1)"><path fill="none" stroke="#000000" d="M 354.83732514237585 145.209517756016 L 365 141 L 354.83732514237585 136.790482243984" stroke-miterlimit="10"/></g><g transform="translate(-6,10) scale(1,1)"><path fill="none" stroke="#000000" d="M 419 232 L 517 232" stroke-miterlimit="10"/></g><g transform="translate(-6,10) scale(1,1)"><path fill="none" stroke="#000000" d="M 611 224 L 696 224" stroke-miterlimit="10"/></g><g transform="translate(-6,10) scale(1,1)"><path fill="none" stroke="#000000" d="M 685.8373251423759 228.209517756016 L 696 224 L 685.8373251423758 219.790482243984" stroke-miterlimit="10"/></g><g transform="translate(-6,10) scale(1,1)"><g><path fill="none" stroke="none"/><text fill="#000000" stroke="none" font-family="Arial" font-size="13px" font-style="normal" font-weight="normal" text-decoration="none" x="670.5" y="242.5">2</text></g></g><g transform="translate(-6,10) scale(1,1)"><rect fill="#ffffff" stroke="none" x="512" y="368" width="120.947265625" height="44"/></g><g transform="translate(-6,10) scale(1,1)"><path fill="none" stroke="#000000" d="M 512 368 L 632.947265625 368 L 632.947265625 412 L 512 412 L 512 368 Z Z" stroke-miterlimit="10"/></g><g transform="translate(-6,10) scale(1,1)"><g><path fill="none" stroke="none"/><text fill="#000000" stroke="none" font-family="Arial" font-size="13px" font-style="normal" font-weight="bold" text-decoration="none" x="521.892333984375" y="387.5">LinearDistribution</text></g></g><g transform="translate(-6,10) scale(1,1)"><path fill="none" stroke="#000000" d="M 817 192 L 912 192" stroke-miterlimit="10"/></g><g transform="translate(-6,10) scale(1,1)"><g><path fill="none" stroke="none"/><text fill="#000000" stroke="none" font-family="Arial" font-size="13px" font-style="normal" font-weight="normal" text-decoration="none" x="820.5" y="183.5">#owner</text></g></g><g transform="translate(-6,10) scale(1,1)"><g><path fill="none" stroke="none"/><text fill="#000000" stroke="none" font-family="Arial" font-size="13px" font-style="normal" font-weight="normal" text-decoration="none" x="845.5" y="182.5">#processor</text></g></g><g transform="translate(-6,10) scale(1,1)"><g><path fill="none" stroke="none"/><text fill="#000000" stroke="none" font-family="Arial" font-size="13px" font-style="normal" font-weight="normal" text-decoration="none" x="886.5" y="210.5">1</text></g></g><g transform="translate(-6,10) scale(1,1)"><rect fill="#ffffff" stroke="none" x="160" y="8" width="97.83544921875" height="48"/></g><g transform="translate(-6,10) scale(1,1)"><path fill="none" stroke="#000000" d="M 160 8 L 257.83544921875 8 L 257.83544921875 56 L 160 56 L 160 8 Z Z" stroke-miterlimit="10"/></g><g transform="translate(-6,10) scale(1,1)"><g><path fill="none" stroke="none"/><text fill="#000000" stroke="none" font-family="Arial" font-size="13px" font-style="normal" font-weight="normal" text-decoration="none" x="176.75732421875" y="25.5">«interface»</text></g></g><g transform="translate(-6,10) scale(1,1)"><g><path fill="none" stroke="none"/><text fill="#000000" stroke="none" font-family="Arial" font-size="13px" font-style="normal" font-weight="bold" text-decoration="none" x="167.734130859375" y="40.5">GraphModifier</text></g></g><g transform="translate(-6,10) scale(1,1)"><path fill="none" stroke="#000000" d="M 208 118 L 208 56" stroke-miterlimit="10" stroke-dasharray="3"/></g><g transform="translate(-6,10) scale(1,1)"><path fill="#FFFFFF" stroke="none" d="M 216.41903551203197 76.32534971524831 L 208 56 L 199.58096448796803 76.32534971524831"/></g><g transform="translate(-6,10) scale(1,1)"><path fill="none" stroke="#000000" d="M 216.41903551203197 76.32534971524831 L 208 56 L 199.58096448796803 76.32534971524831 L 216.41903551203197 76.32534971524831" stroke-miterlimit="10"/></g><g transform="translate(-6,10) scale(1,1)"><rect fill="#ffffff" stroke="none" x="912" y="168" width="117.03076171875" height="57"/></g><g transform="translate(-6,10) scale(1,1)"><path fill="none" stroke="#000000" d="M 912 168 L 1029.03076171875 168 L 1029.03076171875 225 L 912 225 L 912 168 Z Z" stroke-miterlimit="10"/></g><g transform="translate(-6,10) scale(1,1)"><path fill="none" stroke="#000000" d="M 912 193 L 1029.03076171875 193" stroke-miterlimit="10"/></g><g transform="translate(-6,10) scale(1,1)"><path fill="none" stroke="#000000" d="M 912 203 L 1029.03076171875 203" stroke-miterlimit="10"/></g><g transform="translate(-6,10) scale(1,1)"><g><path fill="none" stroke="none"/><text fill="#000000" stroke="none" font-family="Arial" font-size="13px" font-style="italic" font-weight="bold" text-decoration="none" x="941.255859375" y="187.5">Processor</text></g></g><g transform="translate(-6,10) scale(1,1)"><g><path fill="none" stroke="none"/><text fill="#000000" stroke="none" font-family="Arial" font-size="13px" font-style="italic" font-weight="normal" text-decoration="none" x="917" y="220.5">+process(): double</text></g></g><g transform="translate(-6,10) scale(1,1)"><rect fill="#ffffff" stroke="none" x="696" y="176" width="120.642578125" height="87"/></g><g transform="translate(-6,10) scale(1,1)"><path fill="none" stroke="#000000" d="M 696 176 L 816.642578125 176 L 816.642578125 263 L 696 263 L 696 176 Z Z" stroke-miterlimit="10"/></g><g transform="translate(-6,10) scale(1,1)"><path fill="none" stroke="#000000" d="M 696 201 L 816.642578125 201" stroke-miterlimit="10"/></g><g transform="translate(-6,10) scale(1,1)"><path fill="none" stroke="#000000" d="M 696 254 L 816.642578125 254" stroke-miterlimit="10"/></g><g transform="translate(-6,10) scale(1,1)"><g><path fill="none" stroke="none"/><text fill="#000000" stroke="none" font-family="Arial" font-size="13px" font-style="italic" font-weight="bold" text-decoration="none" x="740.7822265625" y="195.5">Node</text></g></g><g transform="translate(-6,10) scale(1,1)"><g><path fill="none" stroke="none"/><text fill="#000000" stroke="none" font-family="Arial" font-size="13px" font-style="normal" font-weight="normal" text-decoration="none" x="701" y="218.5">#value: double</text></g></g><g transform="translate(-6,10) scale(1,1)"><g><path fill="none" stroke="none"/><text fill="#000000" stroke="none" font-family="Arial" font-size="13px" font-style="normal" font-weight="normal" text-decoration="none" x="701" y="233.5">#name: String</text></g></g><g transform="translate(-6,10) scale(1,1)"><g><path fill="none" stroke="none"/><text fill="#000000" stroke="none" font-family="Arial" font-size="13px" font-style="normal" font-weight="normal" text-decoration="none" x="701" y="248.5">#description: String</text></g></g><g transform="translate(-6,10) scale(1,1)"><rect fill="#ffffff" stroke="none" x="184" y="200" width="234.81787109375" height="70"/></g><g transform="translate(-6,10) scale(1,1)"><path fill="none" stroke="#000000" d="M 184 200 L 418.81787109375 200 L 418.81787109375 270 L 184 270 L 184 200 Z Z" stroke-miterlimit="10"/></g><g transform="translate(-6,10) scale(1,1)"><path fill="none" stroke="#000000" d="M 184 225 L 418.81787109375 225" stroke-miterlimit="10"/></g><g transform="translate(-6,10) scale(1,1)"><path fill="none" stroke="#000000" d="M 184 248 L 418.81787109375 248" stroke-miterlimit="10"/></g><g transform="translate(-6,10) scale(1,1)"><g><path fill="none" stroke="none"/><text fill="#000000" stroke="none" font-family="Arial" font-size="13px" font-style="italic" font-weight="bold" text-decoration="none" x="269.988037109375" y="219.5">Normalizer</text></g></g><g transform="translate(-6,10) scale(1,1)"><g><path fill="none" stroke="none"/><text fill="#000000" stroke="none" font-family="Arial" font-size="13px" font-style="normal" font-weight="normal" text-decoration="none" x="189" y="242.5">#metric: String</text></g></g><g transform="translate(-6,10) scale(1,1)"><g><path fill="none" stroke="none"/><text fill="#000000" stroke="none" font-family="Arial" font-size="13px" font-style="italic" font-weight="normal" text-decoration="none" x="189" y="265.5">+normalize(findings: Finding[*]): double</text></g></g><g transform="translate(-6,10) scale(1,1)"><path fill="none" stroke="#000000" d="M 400 374 L 400 400 L 512 400" stroke-miterlimit="10"/></g><g transform="translate(-6,10) scale(1,1)"><path fill="none" stroke="#000000" d="M 501.83732514237585 404.209517756016 L 512 400 L 501.83732514237585 395.790482243984" stroke-miterlimit="10"/></g><g transform="translate(-6,10) scale(1,1)"><g><path fill="none" stroke="none"/><text fill="#000000" stroke="none" font-family="Arial" font-size="13px" font-style="normal" font-weight="normal" text-decoration="none" x="472.680908203125" y="391.5">#dist</text></g></g><g transform="translate(-6,10) scale(1,1)"><g><path fill="none" stroke="none"/><text fill="#000000" stroke="none" font-family="Arial" font-size="13px" font-style="normal" font-weight="normal" text-decoration="none" x="486.5" y="418.5">1</text></g></g><g transform="translate(-6,10) scale(1,1)"><rect fill="#C0C0C0" stroke="none" x="826" y="111" width="144.08447265625" height="44" opacity="0.2"/></g><g transform="translate(-6,10) scale(1,1)"><rect fill="#ffffff" stroke="none" x="819" y="104" width="144.08447265625" height="44"/></g><g transform="translate(-6,10) scale(1,1)"><path fill="none" stroke="#000000" d="M 819 104 L 963.08447265625 104 L 963.08447265625 148 L 819 148 L 819 104 Z Z" stroke-miterlimit="10"/></g><g transform="translate(-6,10) scale(1,1)"><g><path fill="none" stroke="none"/><text fill="#000000" stroke="none" font-family="Arial" font-size="13px" font-style="normal" font-weight="bold" text-decoration="none" x="828.54638671875" y="123.5">DistilledGraphCreator</text></g></g><g transform="translate(-6,10) scale(1,1)"><rect fill="#C0C0C0" stroke="none" x="858" y="7" width="94.236328125" height="44" opacity="0.2"/></g><g transform="translate(-6,10) scale(1,1)"><rect fill="#ffffff" stroke="none" x="851" y="0" width="94.236328125" height="44"/></g><g transform="translate(-6,10) scale(1,1)"><path fill="none" stroke="#000000" d="M 851 0 L 945.236328125 0 L 945.236328125 44 L 851 44 L 851 0 Z Z" stroke-miterlimit="10"/></g><g transform="translate(-6,10) scale(1,1)"><g><path fill="none" stroke="none"/><text fill="#000000" stroke="none" font-family="Arial" font-size="13px" font-style="normal" font-weight="bold" text-decoration="none" x="859.108642578125" y="19.5">ModelDistiller</text></g></g><g transform="translate(-6,10) scale(1,1)"><path fill="none" stroke="#000000" d="M 897 44 L 897 104" stroke-miterlimit="10"/></g><g transform="translate(-6,10) scale(1,1)"><path fill="none" stroke="#000000" d="M 892.790482243984 93.83732514237585 L 897 104 L 901.209517756016 93.83732514237585" stroke-miterlimit="10"/></g><g transform="translate(-6,10) scale(1,1)"><path fill="none" stroke="#000000" d="M 819 128 L 720 128 L 720 24 L 258 24" stroke-miterlimit="10" stroke-dasharray="3"/></g><g transform="translate(-6,10) scale(1,1)"><path fill="none" stroke="#000000" d="M 268.16267485762415 19.790482243984012 L 258 24 L 268.16267485762415 28.209517756015988" stroke-miterlimit="10"/></g></g></svg>