<svg version="1.1" xmlns="http://www.w3.org/2000/svg" xmlns:xlink="http://www.w3.org/1999/xlink" width="999.01904296875" height="352"><defs/><g><g transform="translate(-102,-1078) scale(1,1)"><rect fill="#C0C0C0" stroke="none" x="471" y="1095" width="80.5126953125" height="44" opacity="0.2"/></g><g transform="translate(-102,-1078) scale(1,1)"><rect fill="#ffffff" stroke="none" x="464" y="1088" width="80.5126953125" height="44"/></g><g transform="translate(-102,-1078) scale(1,1)"><path fill="none" stroke="#000000" d="M 464 1088 L 544.5126953125 1088 L 544.5126953125 1132 L 464 1132 L 464 1088 Z Z" stroke-miterlimit="10"/></g><g transform="translate(-102,-1078) scale(1,1)"><path fill="none" stroke="#000000" d="M 464 1113 L 544.5126953125 1113" stroke-miterlimit="10"/></g><g transform="translate(-102,-1078) scale(1,1)"><path fill="none" stroke="#000000" d="M 464 1123 L 544.5126953125 1123" stroke-miterlimit="10"/></g><g transform="translate(-102,-1078) scale(1,1)"><g><path fill="none" stroke="none"/><text fill="#000000" stroke="none" font-family="Arial" font-size="13px" font-style="italic" font-weight="bold" text-decoration="none" x="469.94091796875" y="1107.5">QMElement</text></g></g><g transform="translate(-102,-1078) scale(1,1)"><rect fill="#C0C0C0" stroke="none" x="119" y="1199" width="50.919921875" height="44" opacity="0.2"/></g><g transform="translate(-102,-1078) scale(1,1)"><rect fill="#ffffff" stroke="none" x="112" y="1192" width="50.919921875" height="44"/></g><g transform="translate(-102,-1078) scale(1,1)"><path fill="none" stroke="#000000" d="M 112 1192 L 162.919921875 1192 L 162.919921875 1236 L 112 1236 L 112 1192 Z Z" stroke-miterlimit="10"/></g><g transform="translate(-102,-1078) scale(1,1)"><path fill="none" stroke="#000000" d="M 112 1217 L 162.919921875 1217" stroke-miterlimit="10"/></g><g transform="translate(-102,-1078) scale(1,1)"><path fill="none" stroke="#000000" d="M 112 1227 L 162.919921875 1227" stroke-miterlimit="10"/></g><g transform="translate(-102,-1078) scale(1,1)"><g><path fill="none" stroke="none"/><text fill="#000000" stroke="none" font-family="Arial" font-size="13px" font-style="normal" font-weight="bold" text-decoration="none" x="125.535888671875" y="1211.5">Tool</text></g></g><g transform="translate(-102,-1078) scale(1,1)"><rect fill="#C0C0C0" stroke="none" x="207" y="1199" width="53.07177734375" height="44" opacity="0.2"/></g><g transform="translate(-102,-1078) scale(1,1)"><rect fill="#ffffff" stroke="none" x="200" y="1192" width="53.07177734375" height="44"/></g><g transform="translate(-102,-1078) scale(1,1)"><path fill="none" stroke="#000000" d="M 200 1192 L 253.07177734375 1192 L 253.07177734375 1236 L 200 1236 L 200 1192 Z Z" stroke-miterlimit="10"/></g><g transform="translate(-102,-1078) scale(1,1)"><path fill="none" stroke="#000000" d="M 200 1217 L 253.07177734375 1217" stroke-miterlimit="10"/></g><g transform="translate(-102,-1078) scale(1,1)"><path fill="none" stroke="#000000" d="M 200 1227 L 253.07177734375 1227" stroke-miterlimit="10"/></g><g transform="translate(-102,-1078) scale(1,1)"><g><path fill="none" stroke="none"/><text fill="#000000" stroke="none" font-family="Arial" font-size="13px" font-style="normal" font-weight="bold" text-decoration="none" x="205.94091796875" y="1211.5">Source</text></g></g><g transform="translate(-102,-1078) scale(1,1)"><rect fill="#C0C0C0" stroke="none" x="295" y="1199" width="50.919921875" height="44" opacity="0.2"/></g><g transform="translate(-102,-1078) scale(1,1)"><rect fill="#ffffff" stroke="none" x="288" y="1192" width="50.919921875" height="44"/></g><g transform="translate(-102,-1078) scale(1,1)"><path fill="none" stroke="#000000" d="M 288 1192 L 338.919921875 1192 L 338.919921875 1236 L 288 1236 L 288 1192 Z Z" stroke-miterlimit="10"/></g><g transform="translate(-102,-1078) scale(1,1)"><path fill="none" stroke="#000000" d="M 288 1217 L 338.919921875 1217" stroke-miterlimit="10"/></g><g transform="translate(-102,-1078) scale(1,1)"><path fill="none" stroke="#000000" d="M 288 1227 L 338.919921875 1227" stroke-miterlimit="10"/></g><g transform="translate(-102,-1078) scale(1,1)"><g><path fill="none" stroke="none"/><text fill="#000000" stroke="none" font-family="Arial" font-size="13px" font-style="normal" font-weight="bold" text-decoration="none" x="302.97998046875" y="1211.5">Tag</text></g></g><g transform="translate(-102,-1078) scale(1,1)"><rect fill="#C0C0C0" stroke="none" x="378" y="1199" width="63.87548828125" height="44" opacity="0.2"/></g><g transform="translate(-102,-1078) scale(1,1)"><rect fill="#ffffff" stroke="none" x="371" y="1192" width="63.87548828125" height="44"/></g><g transform="translate(-102,-1078) scale(1,1)"><path fill="none" stroke="#000000" d="M 371 1192 L 434.87548828125 1192 L 434.87548828125 1236 L 371 1236 L 371 1192 Z Z" stroke-miterlimit="10"/></g><g transform="translate(-102,-1078) scale(1,1)"><path fill="none" stroke="#000000" d="M 371 1217 L 434.87548828125 1217" stroke-miterlimit="10"/></g><g transform="translate(-102,-1078) scale(1,1)"><path fill="none" stroke="#000000" d="M 371 1227 L 434.87548828125 1227" stroke-miterlimit="10"/></g><g transform="translate(-102,-1078) scale(1,1)"><g><path fill="none" stroke="none"/><text fill="#000000" stroke="none" font-family="Arial" font-size="13px" font-style="italic" font-weight="bold" text-decoration="none" x="378.00732421875" y="1211.5">Function</text></g></g><g transform="translate(-102,-1078) scale(1,1)"><rect fill="#C0C0C0" stroke="none" x="471" y="1199" width="74.736328125" height="44" opacity="0.2"/></g><g transform="translate(-102,-1078) scale(1,1)"><rect fill="#ffffff" stroke="none" x="464" y="1192" width="74.736328125" height="44"/></g><g transform="translate(-102,-1078) scale(1,1)"><path fill="none" stroke="#000000" d="M 464 1192 L 538.736328125 1192 L 538.736328125 1236 L 464 1236 L 464 1192 Z Z" stroke-miterlimit="10"/></g><g transform="translate(-102,-1078) scale(1,1)"><path fill="none" stroke="#000000" d="M 464 1217 L 538.736328125 1217" stroke-miterlimit="10"/></g><g transform="translate(-102,-1078) scale(1,1)"><path fill="none" stroke="#000000" d="M 464 1227 L 538.736328125 1227" stroke-miterlimit="10"/></g><g transform="translate(-102,-1078) scale(1,1)"><g><path fill="none" stroke="none"/><text fill="#000000" stroke="none" font-family="Arial" font-size="13px" font-style="italic" font-weight="bold" text-decoration="none" x="471.013671875" y="1211.5">Evaluation</text></g></g><g transform="translate(-102,-1078) scale(1,1)"><rect fill="#C0C0C0" stroke="none" x="567" y="1199" width="50.919921875" height="44" opacity="0.2"/></g><g transform="translate(-102,-1078) scale(1,1)"><rect fill="#ffffff" stroke="none" x="560" y="1192" width="50.919921875" height="44"/></g><g transform="translate(-102,-1078) scale(1,1)"><path fill="none" stroke="#000000" d="M 560 1192 L 610.919921875 1192 L 610.919921875 1236 L 560 1236 L 560 1192 Z Z" stroke-miterlimit="10"/></g><g transform="translate(-102,-1078) scale(1,1)"><path fill="none" stroke="#000000" d="M 560 1217 L 610.919921875 1217" stroke-miterlimit="10"/></g><g transform="translate(-102,-1078) scale(1,1)"><path fill="none" stroke="#000000" d="M 560 1227 L 610.919921875 1227" stroke-miterlimit="10"/></g><g transform="translate(-102,-1078) scale(1,1)"><g><path fill="none" stroke="none"/><text fill="#000000" stroke="none" font-family="Arial" font-size="13px" font-style="italic" font-weight="bold" text-decoration="none" x="569.20361328125" y="1211.5">Entity</text></g></g><g transform="translate(-102,-1078) scale(1,1)"><rect fill="#C0C0C0" stroke="none" x="647" y="1199" width="61.7490234375" height="44" opacity="0.2"/></g><g transform="translate(-102,-1078) scale(1,1)"><rect fill="#ffffff" stroke="none" x="640" y="1192" width="61.7490234375" height="44"/></g><g transform="translate(-102,-1078) scale(1,1)"><path fill="none" stroke="#000000" d="M 640 1192 L 701.7490234375 1192 L 701.7490234375 1236 L 640 1236 L 640 1192 Z Z" stroke-miterlimit="10"/></g><g transform="translate(-102,-1078) scale(1,1)"><path fill="none" stroke="#000000" d="M 640 1217 L 701.7490234375 1217" stroke-miterlimit="10"/></g><g transform="translate(-102,-1078) scale(1,1)"><path fill="none" stroke="#000000" d="M 640 1227 L 701.7490234375 1227" stroke-miterlimit="10"/></g><g transform="translate(-102,-1078) scale(1,1)"><g><path fill="none" stroke="none"/><text fill="#000000" stroke="none" font-family="Arial" font-size="13px" font-style="normal" font-weight="bold" text-decoration="none" x="645.58544921875" y="1211.5">Measure</text></g></g><g transform="translate(-102,-1078) scale(1,1)"><rect fill="#C0C0C0" stroke="none" x="743" y="1199" width="50.919921875" height="44" opacity="0.2"/></g><g transform="translate(-102,-1078) scale(1,1)"><rect fill="#ffffff" stroke="none" x="736" y="1192" width="50.919921875" height="44"/></g><g transform="translate(-102,-1078) scale(1,1)"><path fill="none" stroke="#000000" d="M 736 1192 L 786.919921875 1192 L 786.919921875 1236 L 736 1236 L 736 1192 Z Z" stroke-miterlimit="10"/></g><g transform="translate(-102,-1078) scale(1,1)"><path fill="none" stroke="#000000" d="M 736 1217 L 786.919921875 1217" stroke-miterlimit="10"/></g><g transform="translate(-102,-1078) scale(1,1)"><path fill="none" stroke="#000000" d="M 736 1227 L 786.919921875 1227" stroke-miterlimit="10"/></g><g transform="translate(-102,-1078) scale(1,1)"><g><path fill="none" stroke="none"/><text fill="#000000" stroke="none" font-family="Arial" font-size="13px" font-style="italic" font-weight="bold" text-decoration="none" x="743.0390625" y="1211.5">Factor</text></g></g><g transform="translate(-102,-1078) scale(1,1)"><rect fill="#C0C0C0" stroke="none" x="831" y="1199" width="100.0126953125" height="44" opacity="0.2"/></g><g transform="translate(-102,-1078) scale(1,1)"><rect fill="#ffffff" stroke="none" x="824" y="1192" width="100.0126953125" height="44"/></g><g transform="translate(-102,-1078) scale(1,1)"><path fill="none" stroke="#000000" d="M 824 1192 L 924.0126953125 1192 L 924.0126953125 1236 L 824 1236 L 824 1192 Z Z" stroke-miterlimit="10"/></g><g transform="translate(-102,-1078) scale(1,1)"><path fill="none" stroke="#000000" d="M 824 1217 L 924.0126953125 1217" stroke-miterlimit="10"/></g><g transform="translate(-102,-1078) scale(1,1)"><path fill="none" stroke="#000000" d="M 824 1227 L 924.0126953125 1227" stroke-miterlimit="10"/></g><g transform="translate(-102,-1078) scale(1,1)"><g><path fill="none" stroke="none"/><text fill="#000000" stroke="none" font-family="Arial" font-size="13px" font-style="normal" font-weight="bold" text-decoration="none" x="831.7373046875" y="1211.5">FactorRanking</text></g></g><g transform="translate(-102,-1078) scale(1,1)"><rect fill="#C0C0C0" stroke="none" x="959" y="1199" width="139.01904296875" height="44" opacity="0.2"/></g><g transform="translate(-102,-1078) scale(1,1)"><rect fill="#ffffff" stroke="none" x="952" y="1192" width="139.01904296875" height="44"/></g><g transform="translate(-102,-1078) scale(1,1)"><path fill="none" stroke="#000000" d="M 952 1192 L 1091.01904296875 1192 L 1091.01904296875 1236 L 952 1236 L 952 1192 Z Z" stroke-miterlimit="10"/></g><g transform="translate(-102,-1078) scale(1,1)"><path fill="none" stroke="#000000" d="M 952 1217 L 1091.01904296875 1217" stroke-miterlimit="10"/></g><g transform="translate(-102,-1078) scale(1,1)"><path fill="none" stroke="#000000" d="M 952 1227 L 1091.01904296875 1227" stroke-miterlimit="10"/></g><g transform="translate(-102,-1078) scale(1,1)"><g><path fill="none" stroke="none"/><text fill="#000000" stroke="none" font-family="Arial" font-size="13px" font-style="italic" font-weight="bold" text-decoration="none" x="960.089599609375" y="1211.5">MeasurementMethod</text></g></g><g transform="translate(-102,-1078) scale(1,1)"><rect fill="#C0C0C0" stroke="none" x="358" y="1287" width="102.88818359375" height="44" opacity="0.2"/></g><g transform="translate(-102,-1078) scale(1,1)"><rect fill="#ffffff" stroke="none" x="351" y="1280" width="102.88818359375" height="44"/></g><g transform="translate(-102,-1078) scale(1,1)"><path fill="none" stroke="#000000" d="M 351 1280 L 453.88818359375 1280 L 453.88818359375 1324 L 351 1324 L 351 1280 Z Z" stroke-miterlimit="10"/></g><g transform="translate(-102,-1078) scale(1,1)"><path fill="none" stroke="#000000" d="M 351 1305 L 453.88818359375 1305" stroke-miterlimit="10"/></g><g transform="translate(-102,-1078) scale(1,1)"><path fill="none" stroke="#000000" d="M 351 1315 L 453.88818359375 1315" stroke-miterlimit="10"/></g><g transform="translate(-102,-1078) scale(1,1)"><g><path fill="none" stroke="none"/><text fill="#000000" stroke="none" font-family="Arial" font-size="13px" font-style="italic" font-weight="bold" text-decoration="none" x="359.445068359375" y="1299.5">LinearFunction</text></g></g><g transform="translate(-102,-1078) scale(1,1)"><path fill="none" stroke="#000000" d="M 402 1279 L 402 1237" stroke-miterlimit="10"/></g><g transform="translate(-102,-1078) scale(1,1)"><path fill="#FFFFFF" stroke="none" d="M 410.419035512032 1257.3253497152482 L 402 1237 L 393.580964487968 1257.3253497152482"/></g><g transform="translate(-102,-1078) scale(1,1)"><path fill="none" stroke="#000000" d="M 410.419035512032 1257.3253497152482 L 402 1237 L 393.580964487968 1257.3253497152482 L 410.419035512032 1257.3253497152482" stroke-miterlimit="10"/></g><g transform="translate(-102,-1078) scale(1,1)"><rect fill="#C0C0C0" stroke="none" x="231" y="1383" width="167.91357421875" height="44" opacity="0.2"/></g><g transform="translate(-102,-1078) scale(1,1)"><rect fill="#ffffff" stroke="none" x="224" y="1376" width="167.91357421875" height="44"/></g><g transform="translate(-102,-1078) scale(1,1)"><path fill="none" stroke="#000000" d="M 224 1376 L 391.91357421875 1376 L 391.91357421875 1420 L 224 1420 L 224 1376 Z Z" stroke-miterlimit="10"/></g><g transform="translate(-102,-1078) scale(1,1)"><path fill="none" stroke="#000000" d="M 224 1401 L 391.91357421875 1401" stroke-miterlimit="10"/></g><g transform="translate(-102,-1078) scale(1,1)"><path fill="none" stroke="#000000" d="M 224 1411 L 391.91357421875 1411" stroke-miterlimit="10"/></g><g transform="translate(-102,-1078) scale(1,1)"><g><path fill="none" stroke="none"/><text fill="#000000" stroke="none" font-family="Arial" font-size="13px" font-style="normal" font-weight="bold" text-decoration="none" x="234.96826171875" y="1395.5">LinearIncreasingFunction</text></g></g><g transform="translate(-102,-1078) scale(1,1)"><rect fill="#C0C0C0" stroke="none" x="415" y="1383" width="172.97900390625" height="44" opacity="0.2"/></g><g transform="translate(-102,-1078) scale(1,1)"><rect fill="#ffffff" stroke="none" x="408" y="1376" width="172.97900390625" height="44"/></g><g transform="translate(-102,-1078) scale(1,1)"><path fill="none" stroke="#000000" d="M 408 1376 L 580.97900390625 1376 L 580.97900390625 1420 L 408 1420 L 408 1376 Z Z" stroke-miterlimit="10"/></g><g transform="translate(-102,-1078) scale(1,1)"><path fill="none" stroke="#000000" d="M 408 1401 L 580.97900390625 1401" stroke-miterlimit="10"/></g><g transform="translate(-102,-1078) scale(1,1)"><path fill="none" stroke="#000000" d="M 408 1411 L 580.97900390625 1411" stroke-miterlimit="10"/></g><g transform="translate(-102,-1078) scale(1,1)"><g><path fill="none" stroke="none"/><text fill="#000000" stroke="none" font-family="Arial" font-size="13px" font-style="normal" font-weight="bold" text-decoration="none" x="418.61279296875" y="1395.5">LinearDecreasingFunction</text></g></g><g transform="translate(-102,-1078) scale(1,1)"><path fill="none" stroke="#000000" d="M 330 1375 L 379 1325" stroke-miterlimit="10"/></g><g transform="translate(-102,-1078) scale(1,1)"><path fill="#FFFFFF" stroke="none" d="M 370.78669004373194 1345.409349317464 L 379 1325 L 358.76072353195207 1333.6239021359197"/></g><g transform="translate(-102,-1078) scale(1,1)"><path fill="none" stroke="#000000" d="M 370.78669004373194 1345.409349317464 L 379 1325 L 358.76072353195207 1333.6239021359197 L 370.78669004373194 1345.409349317464" stroke-miterlimit="10"/></g><g transform="translate(-102,-1078) scale(1,1)"><path fill="none" stroke="#000000" d="M 472 1375 L 424 1325" stroke-miterlimit="10"/></g><g transform="translate(-102,-1078) scale(1,1)"><path fill="#FFFFFF" stroke="none" d="M 444.1493370705854 1333.8319995253585 L 424 1325 L 432.002566123207 1345.4928996348417"/></g><g transform="translate(-102,-1078) scale(1,1)"><path fill="none" stroke="#000000" d="M 444.1493370705854 1333.8319995253585 L 424 1325 L 432.002566123207 1345.4928996348417 L 444.1493370705854 1333.8319995253585" stroke-miterlimit="10"/></g><g transform="translate(-102,-1078) scale(1,1)"><rect fill="#C0C0C0" stroke="none" x="479" y="1287" width="83.41357421875" height="44" opacity="0.2"/></g><g transform="translate(-102,-1078) scale(1,1)"><rect fill="#ffffff" stroke="none" x="472" y="1280" width="83.41357421875" height="44"/></g><g transform="translate(-102,-1078) scale(1,1)"><path fill="none" stroke="#000000" d="M 472 1280 L 555.41357421875 1280 L 555.41357421875 1324 L 472 1324 L 472 1280 Z Z" stroke-miterlimit="10"/></g><g transform="translate(-102,-1078) scale(1,1)"><path fill="none" stroke="#000000" d="M 472 1305 L 555.41357421875 1305" stroke-miterlimit="10"/></g><g transform="translate(-102,-1078) scale(1,1)"><path fill="none" stroke="#000000" d="M 472 1315 L 555.41357421875 1315" stroke-miterlimit="10"/></g><g transform="translate(-102,-1078) scale(1,1)"><g><path fill="none" stroke="none"/><text fill="#000000" stroke="none" font-family="Arial" font-size="13px" font-style="normal" font-weight="bold" text-decoration="none" x="479.016845703125" y="1299.5">Stakeholder</text></g></g><g transform="translate(-102,-1078) scale(1,1)"><rect fill="#C0C0C0" stroke="none" x="575" y="1287" width="83.40087890625" height="44" opacity="0.2"/></g><g transform="translate(-102,-1078) scale(1,1)"><rect fill="#ffffff" stroke="none" x="568" y="1280" width="83.40087890625" height="44"/></g><g transform="translate(-102,-1078) scale(1,1)"><path fill="none" stroke="#000000" d="M 568 1280 L 651.40087890625 1280 L 651.40087890625 1324 L 568 1324 L 568 1280 Z Z" stroke-miterlimit="10"/></g><g transform="translate(-102,-1078) scale(1,1)"><path fill="none" stroke="#000000" d="M 568 1305 L 651.40087890625 1305" stroke-miterlimit="10"/></g><g transform="translate(-102,-1078) scale(1,1)"><path fill="none" stroke="#000000" d="M 568 1315 L 651.40087890625 1315" stroke-miterlimit="10"/></g><g transform="translate(-102,-1078) scale(1,1)"><g><path fill="none" stroke="none"/><text fill="#000000" stroke="none" font-family="Arial" font-size="13px" font-style="normal" font-weight="bold" text-decoration="none" x="575.378662109375" y="1299.5">ProductPart</text></g></g><g transform="translate(-102,-1078) scale(1,1)"><rect fill="#C0C0C0" stroke="none" x="671" y="1287" width="63.92626953125" height="44" opacity="0.2"/></g><g transform="translate(-102,-1078) scale(1,1)"><rect fill="#ffffff" stroke="none" x="664" y="1280" width="63.92626953125" height="44"/></g><g transform="translate(-102,-1078) scale(1,1)"><path fill="none" stroke="#000000" d="M 664 1280 L 727.92626953125 1280 L 727.92626953125 1324 L 664 1324 L 664 1280 Z Z" stroke-miterlimit="10"/></g><g transform="translate(-102,-1078) scale(1,1)"><path fill="none" stroke="#000000" d="M 664 1305 L 727.92626953125 1305" stroke-miterlimit="10"/></g><g transform="translate(-102,-1078) scale(1,1)"><path fill="none" stroke="#000000" d="M 664 1315 L 727.92626953125 1315" stroke-miterlimit="10"/></g><g transform="translate(-102,-1078) scale(1,1)"><g><path fill="none" stroke="none"/><text fill="#000000" stroke="none" font-family="Arial" font-size="13px" font-style="normal" font-weight="bold" text-decoration="none" x="669.22998046875" y="1299.5">UseCase</text></g></g><g transform="translate(-102,-1078) scale(1,1)"><path fill="none" stroke="#000000" d="M 532 1279 L 566 1237" stroke-miterlimit="10"/></g><g transform="translate(-102,-1078) scale(1,1)"><path fill="#FFFFFF" stroke="none" d="M 559.7549781301399 1258.0950160427758 L 566 1237 L 546.6676737940778 1247.5005315802493"/></g><g transform="translate(-102,-1078) scale(1,1)"><path fill="none" stroke="#000000" d="M 559.7549781301399 1258.0950160427758 L 566 1237 L 546.6676737940778 1247.5005315802493 L 559.7549781301399 1258.0950160427758" stroke-miterlimit="10"/></g><g transform="translate(-102,-1078) scale(1,1)"><path fill="none" stroke="#000000" d="M 603 1279 L 591 1237" stroke-miterlimit="10"/></g><g transform="translate(-102,-1078) scale(1,1)"><path fill="#FFFFFF" stroke="none" d="M 604.678907259539 1254.2304235637123 L 591 1237 L 588.4886987378244 1258.8561974270594"/></g><g transform="translate(-102,-1078) scale(1,1)"><path fill="none" stroke="#000000" d="M 604.678907259539 1254.2304235637123 L 591 1237 L 588.4886987378244 1258.8561974270594 L 604.678907259539 1254.2304235637123" stroke-miterlimit="10"/></g><g transform="translate(-102,-1078) scale(1,1)"><path fill="none" stroke="#000000" d="M 666 1279 L 612 1236" stroke-miterlimit="10"/></g><g transform="translate(-102,-1078) scale(1,1)"><path fill="#FFFFFF" stroke="none" d="M 633.144560210348 1242.0751603691563 L 612 1236 L 622.6556748161182 1255.2472490037705"/></g><g transform="translate(-102,-1078) scale(1,1)"><path fill="none" stroke="#000000" d="M 633.144560210348 1242.0751603691563 L 612 1236 L 622.6556748161182 1255.2472490037705 L 633.144560210348 1242.0751603691563" stroke-miterlimit="10"/></g></g></svg>