<svg version="1.1" xmlns="http://www.w3.org/2000/svg" xmlns:xlink="http://www.w3.org/1999/xlink" width="473.4853515625" height="205"><defs/><g><g transform="translate(2,-22) scale(1,1)"><rect fill="#ffffff" stroke="none" x="8" y="32" width="229.009765625" height="57"/></g><g transform="translate(2,-22) scale(1,1)"><path fill="none" stroke="#000000" d="M 8 32 L 237.009765625 32 L 237.009765625 89 L 8 89 L 8 32 Z Z" stroke-miterlimit="10"/></g><g transform="translate(2,-22) scale(1,1)"><path fill="none" stroke="#000000" d="M 8 57 L 237.009765625 57" stroke-miterlimit="10"/></g><g transform="translate(2,-22) scale(1,1)"><path fill="none" stroke="#000000" d="M 8 67 L 237.009765625 67" stroke-miterlimit="10"/></g><g transform="translate(2,-22) scale(1,1)"><g><path fill="none" stroke="none"/><text fill="#000000" stroke="none" font-family="Arial" font-size="13px" font-style="italic" font-weight="bold" text-decoration="none" x="44.343017578125" y="51.5">TechnicalDebtCalcStrategy</text></g></g><g transform="translate(2,-22) scale(1,1)"><g><path fill="none" stroke="none"/><text fill="#000000" stroke="none" font-family="Arial" font-size="13px" font-style="italic" font-weight="normal" text-decoration="none" x="13" y="84.5">+calculate(param: TDParams): double</text></g></g><g transform="translate(2,-22) scale(1,1)"><rect fill="#ffffff" stroke="none" x="376" y="32" width="73.30810546875" height="44"/></g><g transform="translate(2,-22) scale(1,1)"><path fill="none" stroke="#000000" d="M 376 32 L 449.30810546875 32 L 449.30810546875 76 L 376 76 L 376 32 Z Z" stroke-miterlimit="10"/></g><g transform="translate(2,-22) scale(1,1)"><g><path fill="none" stroke="none"/><text fill="#000000" stroke="none" font-family="Arial" font-size="13px" font-style="italic" font-weight="bold" text-decoration="none" x="381.594970703125" y="51.5">TDParams</text></g></g><g transform="translate(2,-22) scale(1,1)"><path fill="none" stroke="#000000" d="M 237 58 L 376 58" stroke-miterlimit="10" stroke-dasharray="3"/></g><g transform="translate(2,-22) scale(1,1)"><path fill="none" stroke="#000000" d="M 365.83732514237585 62.20951775601599 L 376 58 L 365.83732514237585 53.790482243984016" stroke-miterlimit="10"/></g><g transform="translate(2,-22) scale(1,1)"><rect fill="#ffffff" stroke="none" x="8" y="160" width="229.009765625" height="57"/></g><g transform="translate(2,-22) scale(1,1)"><path fill="none" stroke="#000000" d="M 8 160 L 237.009765625 160 L 237.009765625 217 L 8 217 L 8 160 Z Z" stroke-miterlimit="10"/></g><g transform="translate(2,-22) scale(1,1)"><path fill="none" stroke="#000000" d="M 8 185 L 237.009765625 185" stroke-miterlimit="10"/></g><g transform="translate(2,-22) scale(1,1)"><path fill="none" stroke="#000000" d="M 8 195 L 237.009765625 195" stroke-miterlimit="10"/></g><g transform="translate(2,-22) scale(1,1)"><g><path fill="none" stroke="none"/><text fill="#000000" stroke="none" font-family="Arial" font-size="13px" font-style="normal" font-weight="bold" text-decoration="none" x="100.475341796875" y="179.5">CastTD</text></g></g><g transform="translate(2,-22) scale(1,1)"><g><path fill="none" stroke="none"/><text fill="#000000" stroke="none" font-family="Arial" font-size="13px" font-style="italic" font-weight="normal" text-decoration="none" x="13" y="212.5">+calculate(param: TDParams): double</text></g></g><g transform="translate(2,-22) scale(1,1)"><path fill="none" stroke="#000000" d="M 122 160 L 122 89" stroke-miterlimit="10"/></g><g transform="translate(2,-22) scale(1,1)"><path fill="#FFFFFF" stroke="none" d="M 130.41903551203197 109.32534971524831 L 122 89 L 113.58096448796803 109.32534971524831"/></g><g transform="translate(2,-22) scale(1,1)"><path fill="none" stroke="#000000" d="M 130.41903551203197 109.32534971524831 L 122 89 L 113.58096448796803 109.32534971524831 L 130.41903551203197 109.32534971524831" stroke-miterlimit="10"/></g><g transform="translate(2,-22) scale(1,1)"><rect fill="#ffffff" stroke="none" x="360" y="168" width="101.4853515625" height="44"/></g><g transform="translate(2,-22) scale(1,1)"><path fill="none" stroke="#000000" d="M 360 168 L 461.4853515625 168 L 461.4853515625 212 L 360 212 L 360 168 Z Z" stroke-miterlimit="10"/></g><g transform="translate(2,-22) scale(1,1)"><g><path fill="none" stroke="none"/><text fill="#000000" stroke="none" font-family="Arial" font-size="13px" font-style="normal" font-weight="bold" text-decoration="none" x="366.318603515625" y="187.5">CastTDParams</text></g></g><g transform="translate(2,-22) scale(1,1)"><path fill="none" stroke="#000000" d="M 412 168 L 412 76" stroke-miterlimit="10"/></g><g transform="translate(2,-22) scale(1,1)"><path fill="#FFFFFF" stroke="none" d="M 420.419035512032 96.32534971524831 L 412 76 L 403.580964487968 96.32534971524831"/></g><g transform="translate(2,-22) scale(1,1)"><path fill="none" stroke="#000000" d="M 420.419035512032 96.32534971524831 L 412 76 L 403.580964487968 96.32534971524831 L 420.419035512032 96.32534971524831" stroke-miterlimit="10"/></g></g></svg>