<svg version="1.1" xmlns="http://www.w3.org/2000/svg" xmlns:xlink="http://www.w3.org/1999/xlink" width="1269" height="776"><defs/><g><g transform="translate(-6,-14) scale(1,1)"><rect fill="#ffffff" stroke="none" x="209" y="156" width="119.55078125" height="44"/></g><g transform="translate(-6,-14) scale(1,1)"><path fill="none" stroke="#000000" d="M 209 156 L 328.55078125 156 L 328.55078125 200 L 209 200 L 209 156 Z Z" stroke-miterlimit="10"/></g><g transform="translate(-6,-14) scale(1,1)"><g><path fill="none" stroke="none"/><text fill="#000000" stroke="none" font-family="Arial" font-size="13px" font-style="italic" font-weight="bold" text-decoration="none" x="217.844970703125" y="175.5">ProcessorFactory</text></g></g><g transform="translate(-6,-14) scale(1,1)"><rect fill="#ffffff" stroke="none" x="273" y="276" width="126.01904296875" height="44"/></g><g transform="translate(-6,-14) scale(1,1)"><path fill="none" stroke="#000000" d="M 273 276 L 399.01904296875 276 L 399.01904296875 320 L 273 320 L 273 276 Z Z" stroke-miterlimit="10"/></g><g transform="translate(-6,-14) scale(1,1)"><g><path fill="none" stroke="none"/><text fill="#000000" stroke="none" font-family="Arial" font-size="13px" font-style="normal" font-weight="bold" text-decoration="none" x="282.17822265625" y="295.5">AggregatorFactory</text></g></g><g transform="translate(-6,-14) scale(1,1)"><rect fill="#ffffff" stroke="none" x="137" y="276" width="115.20263671875" height="44"/></g><g transform="translate(-6,-14) scale(1,1)"><path fill="none" stroke="#000000" d="M 137 276 L 252.20263671875 276 L 252.20263671875 320 L 137 320 L 137 276 Z Z" stroke-miterlimit="10"/></g><g transform="translate(-6,-14) scale(1,1)"><g><path fill="none" stroke="none"/><text fill="#000000" stroke="none" font-family="Arial" font-size="13px" font-style="normal" font-weight="bold" text-decoration="none" x="145.470458984375" y="295.5">EvaluatorFactory</text></g></g><g transform="translate(-6,-14) scale(1,1)"><path fill="none" stroke="#000000" d="M 337 276 L 337 244 L 265 244 L 265 200" stroke-miterlimit="10"/></g><g transform="translate(-6,-14) scale(1,1)"><path fill="#FFFFFF" stroke="none" d="M 273.419035512032 220.3253497152483 L 265 200 L 256.580964487968 220.3253497152483"/></g><g transform="translate(-6,-14) scale(1,1)"><path fill="none" stroke="#000000" d="M 273.419035512032 220.3253497152483 L 265 200 L 256.580964487968 220.3253497152483 L 273.419035512032 220.3253497152483" stroke-miterlimit="10"/></g><g transform="translate(-6,-14) scale(1,1)"><path fill="none" stroke="#000000" d="M 193 276 L 193 244 L 265 244 L 265 200" stroke-miterlimit="10"/></g><g transform="translate(-6,-14) scale(1,1)"><path fill="#FFFFFF" stroke="none" d="M 273.419035512032 220.3253497152483 L 265 200 L 256.580964487968 220.3253497152483"/></g><g transform="translate(-6,-14) scale(1,1)"><path fill="none" stroke="#000000" d="M 273.419035512032 220.3253497152483 L 265 200 L 256.580964487968 220.3253497152483 L 273.419035512032 220.3253497152483" stroke-miterlimit="10"/></g><g transform="translate(-6,-14) scale(1,1)"><rect fill="#ffffff" stroke="none" x="456" y="520" width="123.14990234375" height="37"/></g><g transform="translate(-6,-14) scale(1,1)"><path fill="none" stroke="#000000" d="M 456 520 L 579.14990234375 520 L 579.14990234375 557 L 456 557 L 456 520 Z Z" stroke-miterlimit="10"/></g><g transform="translate(-6,-14) scale(1,1)"><g><path fill="none" stroke="none"/><text fill="#000000" stroke="none" font-family="Arial" font-size="13px" font-style="normal" font-weight="bold" text-decoration="none" x="464.483154296875" y="539.5">NormalizerFactory</text></g></g><g transform="translate(-6,-14) scale(1,1)"><rect fill="#ffffff" stroke="none" x="48" y="508" width="136.8544921875" height="44"/></g><g transform="translate(-6,-14) scale(1,1)"><path fill="none" stroke="#000000" d="M 48 508 L 184.8544921875 508 L 184.8544921875 552 L 48 552 L 48 508 Z Z" stroke-miterlimit="10"/></g><g transform="translate(-6,-14) scale(1,1)"><g><path fill="none" stroke="none"/><text fill="#000000" stroke="none" font-family="Arial" font-size="13px" font-style="normal" font-weight="bold" text-decoration="none" x="57.181396484375" y="527.5">NormalizerPopulator</text></g></g><g transform="translate(-6,-14) scale(1,1)"><rect fill="#ffffff" stroke="none" x="441" y="260" width="79.05908203125" height="44"/></g><g transform="translate(-6,-14) scale(1,1)"><path fill="none" stroke="#000000" d="M 441 260 L 520.05908203125 260 L 520.05908203125 304 L 441 304 L 441 260 Z Z" stroke-miterlimit="10"/></g><g transform="translate(-6,-14) scale(1,1)"><path fill="none" stroke="#000000" d="M 441 285 L 520.05908203125 285" stroke-miterlimit="10"/></g><g transform="translate(-6,-14) scale(1,1)"><path fill="none" stroke="#000000" d="M 441 295 L 520.05908203125 295" stroke-miterlimit="10"/></g><g transform="translate(-6,-14) scale(1,1)"><g><path fill="none" stroke="none"/><text fill="#000000" stroke="none" font-family="Arial" font-size="13px" font-style="italic" font-weight="bold" text-decoration="none" x="448.369140625" y="279.5">Aggregator</text></g></g><g transform="translate(-6,-14) scale(1,1)"><rect fill="#ffffff" stroke="none" x="760" y="136" width="117.03076171875" height="57"/></g><g transform="translate(-6,-14) scale(1,1)"><path fill="none" stroke="#000000" d="M 760 136 L 877.03076171875 136 L 877.03076171875 193 L 760 193 L 760 136 Z Z" stroke-miterlimit="10"/></g><g transform="translate(-6,-14) scale(1,1)"><path fill="none" stroke="#000000" d="M 760 161 L 877.03076171875 161" stroke-miterlimit="10"/></g><g transform="translate(-6,-14) scale(1,1)"><path fill="none" stroke="#000000" d="M 760 171 L 877.03076171875 171" stroke-miterlimit="10"/></g><g transform="translate(-6,-14) scale(1,1)"><g><path fill="none" stroke="none"/><text fill="#000000" stroke="none" font-family="Arial" font-size="13px" font-style="italic" font-weight="bold" text-decoration="none" x="789.255859375" y="155.5">Processor</text></g></g><g transform="translate(-6,-14) scale(1,1)"><g><path fill="none" stroke="none"/><text fill="#000000" stroke="none" font-family="Arial" font-size="13px" font-style="italic" font-weight="normal" text-decoration="none" x="765" y="188.5">+process(): double</text></g></g><g transform="translate(-6,-14) scale(1,1)"><path fill="none" stroke="#000000" d="M 329 180 L 760 180" stroke-miterlimit="10" stroke-dasharray="3"/></g><g transform="translate(-6,-14) scale(1,1)"><path fill="none" stroke="#000000" d="M 749.8373251423759 184.209517756016 L 760 180 L 749.8373251423758 175.790482243984" stroke-miterlimit="10"/></g><g transform="translate(-6,-14) scale(1,1)"><rect fill="#ffffff" stroke="none" x="777" y="260" width="97.1435546875" height="24"/></g><g transform="translate(-6,-14) scale(1,1)"><path fill="none" stroke="#000000" d="M 777 260 L 874.1435546875 260 L 874.1435546875 284 L 777 284 L 777 260 Z Z" stroke-miterlimit="10"/></g><g transform="translate(-6,-14) scale(1,1)"><g><path fill="none" stroke="none"/><text fill="#000000" stroke="none" font-family="Arial" font-size="13px" font-style="normal" font-weight="bold" text-decoration="none" x="785.114990234375" y="279.5">NullProcessor</text></g></g><g transform="translate(-6,-14) scale(1,1)"><rect fill="#ffffff" stroke="none" x="929" y="348" width="68.24267578125" height="44"/></g><g transform="translate(-6,-14) scale(1,1)"><path fill="none" stroke="#000000" d="M 929 348 L 997.24267578125 348 L 997.24267578125 392 L 929 392 L 929 348 Z Z" stroke-miterlimit="10"/></g><g transform="translate(-6,-14) scale(1,1)"><path fill="none" stroke="#000000" d="M 929 373 L 997.24267578125 373" stroke-miterlimit="10"/></g><g transform="translate(-6,-14) scale(1,1)"><path fill="none" stroke="#000000" d="M 929 383 L 997.24267578125 383" stroke-miterlimit="10"/></g><g transform="translate(-6,-14) scale(1,1)"><g><path fill="none" stroke="none"/><text fill="#000000" stroke="none" font-family="Arial" font-size="13px" font-style="italic" font-weight="bold" text-decoration="none" x="935.661376953125" y="367.5">Evaluator</text></g></g><g transform="translate(-6,-14) scale(1,1)"><path fill="none" stroke="#000000" d="M 481 260 L 481 244 L 824 244 L 824 193" stroke-miterlimit="10"/></g><g transform="translate(-6,-14) scale(1,1)"><path fill="#FFFFFF" stroke="none" d="M 832.419035512032 213.3253497152483 L 824 193 L 815.580964487968 213.3253497152483"/></g><g transform="translate(-6,-14) scale(1,1)"><path fill="none" stroke="#000000" d="M 832.419035512032 213.3253497152483 L 824 193 L 815.580964487968 213.3253497152483 L 832.419035512032 213.3253497152483" stroke-miterlimit="10"/></g><g transform="translate(-6,-14) scale(1,1)"><path fill="none" stroke="#000000" d="M 824 260 L 824 193" stroke-miterlimit="10"/></g><g transform="translate(-6,-14) scale(1,1)"><path fill="#FFFFFF" stroke="none" d="M 832.419035512032 213.3253497152483 L 824 193 L 815.580964487968 213.3253497152483"/></g><g transform="translate(-6,-14) scale(1,1)"><path fill="none" stroke="#000000" d="M 832.419035512032 213.3253497152483 L 824 193 L 815.580964487968 213.3253497152483 L 832.419035512032 213.3253497152483" stroke-miterlimit="10"/></g><g transform="translate(-6,-14) scale(1,1)"><path fill="none" stroke="#000000" d="M 963 348 L 963 244 L 824 244 L 824 193" stroke-miterlimit="10"/></g><g transform="translate(-6,-14) scale(1,1)"><path fill="#FFFFFF" stroke="none" d="M 832.419035512032 213.3253497152483 L 824 193 L 815.580964487968 213.3253497152483"/></g><g transform="translate(-6,-14) scale(1,1)"><path fill="none" stroke="#000000" d="M 832.419035512032 213.3253497152483 L 824 193 L 815.580964487968 213.3253497152483 L 832.419035512032 213.3253497152483" stroke-miterlimit="10"/></g><g transform="translate(-6,-14) scale(1,1)"><rect fill="#ffffff" stroke="none" x="417" y="364" width="133.21728515625" height="24"/></g><g transform="translate(-6,-14) scale(1,1)"><path fill="none" stroke="#000000" d="M 417 364 L 550.21728515625 364 L 550.21728515625 388 L 417 388 L 417 364 Z Z" stroke-miterlimit="10"/></g><g transform="translate(-6,-14) scale(1,1)"><g><path fill="none" stroke="none"/><text fill="#000000" stroke="none" font-family="Arial" font-size="13px" font-style="italic" font-weight="bold" text-decoration="none" x="426.879638671875" y="383.5">FindingsAggregator</text></g></g><g transform="translate(-6,-14) scale(1,1)"><path fill="none" stroke="#000000" d="M 480 364 L 480 304" stroke-miterlimit="10"/></g><g transform="translate(-6,-14) scale(1,1)"><path fill="#FFFFFF" stroke="none" d="M 488.419035512032 324.3253497152483 L 480 304 L 471.580964487968 324.3253497152483"/></g><g transform="translate(-6,-14) scale(1,1)"><path fill="none" stroke="#000000" d="M 488.419035512032 324.3253497152483 L 480 304 L 471.580964487968 324.3253497152483 L 488.419035512032 324.3253497152483" stroke-miterlimit="10"/></g><g transform="translate(-6,-14) scale(1,1)"><rect fill="#ffffff" stroke="none" x="289" y="452" width="187.4072265625" height="24"/></g><g transform="translate(-6,-14) scale(1,1)"><path fill="none" stroke="#000000" d="M 289 452 L 476.4072265625 452 L 476.4072265625 476 L 289 476 L 289 452 Z Z" stroke-miterlimit="10"/></g><g transform="translate(-6,-14) scale(1,1)"><g><path fill="none" stroke="none"/><text fill="#000000" stroke="none" font-family="Arial" font-size="13px" font-style="normal" font-weight="bold" text-decoration="none" x="301.04736328125" y="471.5">FindingsIntersectAggregator</text></g></g><g transform="translate(-6,-14) scale(1,1)"><rect fill="#ffffff" stroke="none" x="489" y="452" width="170.0400390625" height="24"/></g><g transform="translate(-6,-14) scale(1,1)"><path fill="none" stroke="#000000" d="M 489 452 L 659.0400390625 452 L 659.0400390625 476 L 489 476 L 489 452 Z Z" stroke-miterlimit="10"/></g><g transform="translate(-6,-14) scale(1,1)"><g><path fill="none" stroke="none"/><text fill="#000000" stroke="none" font-family="Arial" font-size="13px" font-style="normal" font-weight="bold" text-decoration="none" x="500.307861328125" y="471.5">FindingsUnionAggregator</text></g></g><g transform="translate(-6,-14) scale(1,1)"><path fill="none" stroke="#000000" d="M 384 452 L 384 424 L 480 424 L 480 388" stroke-miterlimit="10"/></g><g transform="translate(-6,-14) scale(1,1)"><path fill="#FFFFFF" stroke="none" d="M 488.419035512032 408.3253497152483 L 480 388 L 471.580964487968 408.3253497152483"/></g><g transform="translate(-6,-14) scale(1,1)"><path fill="none" stroke="#000000" d="M 488.419035512032 408.3253497152483 L 480 388 L 471.580964487968 408.3253497152483 L 488.419035512032 408.3253497152483" stroke-miterlimit="10"/></g><g transform="translate(-6,-14) scale(1,1)"><path fill="none" stroke="#000000" d="M 576 452 L 576 424 L 480 424 L 480 388" stroke-miterlimit="10"/></g><g transform="translate(-6,-14) scale(1,1)"><path fill="#FFFFFF" stroke="none" d="M 488.419035512032 408.3253497152483 L 480 388 L 471.580964487968 408.3253497152483"/></g><g transform="translate(-6,-14) scale(1,1)"><path fill="none" stroke="#000000" d="M 488.419035512032 408.3253497152483 L 480 388 L 471.580964487968 408.3253497152483 L 488.419035512032 408.3253497152483" stroke-miterlimit="10"/></g><g transform="translate(-6,-14) scale(1,1)"><rect fill="#ffffff" stroke="none" x="233" y="364" width="172.9599609375" height="24"/></g><g transform="translate(-6,-14) scale(1,1)"><path fill="none" stroke="#000000" d="M 233 364 L 405.9599609375 364 L 405.9599609375 388 L 233 388 L 233 364 Z Z" stroke-miterlimit="10"/></g><g transform="translate(-6,-14) scale(1,1)"><g><path fill="none" stroke="none"/><text fill="#000000" stroke="none" font-family="Arial" font-size="13px" font-style="normal" font-weight="bold" text-decoration="none" x="242.8828125" y="383.5">NumberMedianAggregator</text></g></g><g transform="translate(-6,-14) scale(1,1)"><rect fill="#ffffff" stroke="none" x="73" y="364" width="150.55908203125" height="24"/></g><g transform="translate(-6,-14) scale(1,1)"><path fill="none" stroke="#000000" d="M 73 364 L 223.55908203125 364 L 223.55908203125 388 L 73 388 L 73 364 Z Z" stroke-miterlimit="10"/></g><g transform="translate(-6,-14) scale(1,1)"><g><path fill="none" stroke="none"/><text fill="#000000" stroke="none" font-family="Arial" font-size="13px" font-style="normal" font-weight="bold" text-decoration="none" x="82.52734375" y="383.5">NumberMinAggregator</text></g></g><g transform="translate(-6,-14) scale(1,1)"><rect fill="#ffffff" stroke="none" x="561" y="364" width="161.4072265625" height="24"/></g><g transform="translate(-6,-14) scale(1,1)"><path fill="none" stroke="#000000" d="M 561 364 L 722.4072265625 364 L 722.4072265625 388 L 561 388 L 561 364 Z Z" stroke-miterlimit="10"/></g><g transform="translate(-6,-14) scale(1,1)"><g><path fill="none" stroke="none"/><text fill="#000000" stroke="none" font-family="Arial" font-size="13px" font-style="normal" font-weight="bold" text-decoration="none" x="570.16552734375" y="383.5">NumberMeanAggregator</text></g></g><g transform="translate(-6,-14) scale(1,1)"><rect fill="#ffffff" stroke="none" x="729" y="364" width="153.46630859375" height="24"/></g><g transform="translate(-6,-14) scale(1,1)"><path fill="none" stroke="#000000" d="M 729 364 L 882.46630859375 364 L 882.46630859375 388 L 729 388 L 729 364 Z Z" stroke-miterlimit="10"/></g><g transform="translate(-6,-14) scale(1,1)"><g><path fill="none" stroke="none"/><text fill="#000000" stroke="none" font-family="Arial" font-size="13px" font-style="normal" font-weight="bold" text-decoration="none" x="738.175048828125" y="383.5">NumberMaxAggregator</text></g></g><g transform="translate(-6,-14) scale(1,1)"><path fill="none" stroke="#000000" d="M 319 364 L 319 344 L 480 344 L 480 304" stroke-miterlimit="10"/></g><g transform="translate(-6,-14) scale(1,1)"><path fill="#FFFFFF" stroke="none" d="M 488.419035512032 324.3253497152483 L 480 304 L 471.580964487968 324.3253497152483"/></g><g transform="translate(-6,-14) scale(1,1)"><path fill="none" stroke="#000000" d="M 488.419035512032 324.3253497152483 L 480 304 L 471.580964487968 324.3253497152483 L 488.419035512032 324.3253497152483" stroke-miterlimit="10"/></g><g transform="translate(-6,-14) scale(1,1)"><path fill="none" stroke="#000000" d="M 148 364 L 148 344 L 480 344 L 480 304" stroke-miterlimit="10"/></g><g transform="translate(-6,-14) scale(1,1)"><path fill="#FFFFFF" stroke="none" d="M 488.419035512032 324.3253497152483 L 480 304 L 471.580964487968 324.3253497152483"/></g><g transform="translate(-6,-14) scale(1,1)"><path fill="none" stroke="#000000" d="M 488.419035512032 324.3253497152483 L 480 304 L 471.580964487968 324.3253497152483 L 488.419035512032 324.3253497152483" stroke-miterlimit="10"/></g><g transform="translate(-6,-14) scale(1,1)"><path fill="none" stroke="#000000" d="M 640 364 L 640 344 L 480 344 L 480 304" stroke-miterlimit="10"/></g><g transform="translate(-6,-14) scale(1,1)"><path fill="#FFFFFF" stroke="none" d="M 488.419035512032 324.3253497152483 L 480 304 L 471.580964487968 324.3253497152483"/></g><g transform="translate(-6,-14) scale(1,1)"><path fill="none" stroke="#000000" d="M 488.419035512032 324.3253497152483 L 480 304 L 471.580964487968 324.3253497152483 L 488.419035512032 324.3253497152483" stroke-miterlimit="10"/></g><g transform="translate(-6,-14) scale(1,1)"><path fill="none" stroke="#000000" d="M 808 364 L 808 344 L 480 344 L 480 304" stroke-miterlimit="10"/></g><g transform="translate(-6,-14) scale(1,1)"><path fill="#FFFFFF" stroke="none" d="M 488.419035512032 324.3253497152483 L 480 304 L 471.580964487968 324.3253497152483"/></g><g transform="translate(-6,-14) scale(1,1)"><path fill="none" stroke="#000000" d="M 488.419035512032 324.3253497152483 L 480 304 L 471.580964487968 324.3253497152483 L 488.419035512032 324.3253497152483" stroke-miterlimit="10"/></g><g transform="translate(-6,-14) scale(1,1)"><rect fill="#ffffff" stroke="none" x="689" y="452" width="101.47265625" height="24"/></g><g transform="translate(-6,-14) scale(1,1)"><path fill="none" stroke="#000000" d="M 689 452 L 790.47265625 452 L 790.47265625 476 L 689 476 L 689 452 Z Z" stroke-miterlimit="10"/></g><g transform="translate(-6,-14) scale(1,1)"><g><path fill="none" stroke="none"/><text fill="#000000" stroke="none" font-family="Arial" font-size="13px" font-style="normal" font-weight="bold" text-decoration="none" x="696.016845703125" y="471.5">MeanEvaluator</text></g></g><g transform="translate(-6,-14) scale(1,1)"><rect fill="#ffffff" stroke="none" x="801" y="452" width="159.998046875" height="24"/></g><g transform="translate(-6,-14) scale(1,1)"><path fill="none" stroke="#000000" d="M 801 452 L 960.998046875 452 L 960.998046875 476 L 801 476 L 801 452 Z Z" stroke-miterlimit="10"/></g><g transform="translate(-6,-14) scale(1,1)"><g><path fill="none" stroke="none"/><text fill="#000000" stroke="none" font-family="Arial" font-size="13px" font-style="normal" font-weight="bold" text-decoration="none" x="810.181396484375" y="471.5">SingleMeasureEvaluator</text></g></g><g transform="translate(-6,-14) scale(1,1)"><rect fill="#ffffff" stroke="none" x="969" y="452" width="113.025390625" height="24"/></g><g transform="translate(-6,-14) scale(1,1)"><path fill="none" stroke="#000000" d="M 969 452 L 1082.025390625 452 L 1082.025390625 476 L 969 476 L 969 452 Z Z" stroke-miterlimit="10"/></g><g transform="translate(-6,-14) scale(1,1)"><g><path fill="none" stroke="none"/><text fill="#000000" stroke="none" font-family="Arial" font-size="13px" font-style="normal" font-weight="bold" text-decoration="none" x="976.734130859375" y="471.5">ManualEvaluator</text></g></g><g transform="translate(-6,-14) scale(1,1)"><rect fill="#ffffff" stroke="none" x="1089" y="452" width="154.67236328125" height="24"/></g><g transform="translate(-6,-14) scale(1,1)"><path fill="none" stroke="#000000" d="M 1089 452 L 1243.67236328125 452 L 1243.67236328125 476 L 1089 476 L 1089 452 Z Z" stroke-miterlimit="10"/></g><g transform="translate(-6,-14) scale(1,1)"><g><path fill="none" stroke="none"/><text fill="#000000" stroke="none" font-family="Arial" font-size="13px" font-style="normal" font-weight="bold" text-decoration="none" x="1098.168701171875" y="471.5">WeightedSumEvaluator</text></g></g><g transform="translate(-6,-14) scale(1,1)"><path fill="none" stroke="#000000" d="M 736 452 L 736 432 L 960 432 L 960 392" stroke-miterlimit="10"/></g><g transform="translate(-6,-14) scale(1,1)"><path fill="#FFFFFF" stroke="none" d="M 968.419035512032 412.3253497152483 L 960 392 L 951.580964487968 412.3253497152483"/></g><g transform="translate(-6,-14) scale(1,1)"><path fill="none" stroke="#000000" d="M 968.419035512032 412.3253497152483 L 960 392 L 951.580964487968 412.3253497152483 L 968.419035512032 412.3253497152483" stroke-miterlimit="10"/></g><g transform="translate(-6,-14) scale(1,1)"><path fill="none" stroke="#000000" d="M 856 452 L 856 432 L 960 432 L 960 392" stroke-miterlimit="10"/></g><g transform="translate(-6,-14) scale(1,1)"><path fill="#FFFFFF" stroke="none" d="M 968.419035512032 412.3253497152483 L 960 392 L 951.580964487968 412.3253497152483"/></g><g transform="translate(-6,-14) scale(1,1)"><path fill="none" stroke="#000000" d="M 968.419035512032 412.3253497152483 L 960 392 L 951.580964487968 412.3253497152483 L 968.419035512032 412.3253497152483" stroke-miterlimit="10"/></g><g transform="translate(-6,-14) scale(1,1)"><path fill="none" stroke="#000000" d="M 1016 452 L 1016 432 L 960 432 L 960 392" stroke-miterlimit="10"/></g><g transform="translate(-6,-14) scale(1,1)"><path fill="#FFFFFF" stroke="none" d="M 968.419035512032 412.3253497152483 L 960 392 L 951.580964487968 412.3253497152483"/></g><g transform="translate(-6,-14) scale(1,1)"><path fill="none" stroke="#000000" d="M 968.419035512032 412.3253497152483 L 960 392 L 951.580964487968 412.3253497152483 L 968.419035512032 412.3253497152483" stroke-miterlimit="10"/></g><g transform="translate(-6,-14) scale(1,1)"><path fill="none" stroke="#000000" d="M 1160 452 L 1160 432 L 960 432 L 960 392" stroke-miterlimit="10"/></g><g transform="translate(-6,-14) scale(1,1)"><path fill="#FFFFFF" stroke="none" d="M 968.419035512032 412.3253497152483 L 960 392 L 951.580964487968 412.3253497152483"/></g><g transform="translate(-6,-14) scale(1,1)"><path fill="none" stroke="#000000" d="M 968.419035512032 412.3253497152483 L 960 392 L 951.580964487968 412.3253497152483 L 968.419035512032 412.3253497152483" stroke-miterlimit="10"/></g><g transform="translate(-6,-14) scale(1,1)"><rect fill="#ffffff" stroke="none" x="401" y="628" width="234.81787109375" height="70"/></g><g transform="translate(-6,-14) scale(1,1)"><path fill="none" stroke="#000000" d="M 401 628 L 635.81787109375 628 L 635.81787109375 698 L 401 698 L 401 628 Z Z" stroke-miterlimit="10"/></g><g transform="translate(-6,-14) scale(1,1)"><path fill="none" stroke="#000000" d="M 401 653 L 635.81787109375 653" stroke-miterlimit="10"/></g><g transform="translate(-6,-14) scale(1,1)"><path fill="none" stroke="#000000" d="M 401 676 L 635.81787109375 676" stroke-miterlimit="10"/></g><g transform="translate(-6,-14) scale(1,1)"><g><path fill="none" stroke="none"/><text fill="#000000" stroke="none" font-family="Arial" font-size="13px" font-style="italic" font-weight="bold" text-decoration="none" x="486.988037109375" y="647.5">Normalizer</text></g></g><g transform="translate(-6,-14) scale(1,1)"><g><path fill="none" stroke="none"/><text fill="#000000" stroke="none" font-family="Arial" font-size="13px" font-style="normal" font-weight="normal" text-decoration="none" x="406" y="670.5">#metric: String</text></g></g><g transform="translate(-6,-14) scale(1,1)"><g><path fill="none" stroke="none"/><text fill="#000000" stroke="none" font-family="Arial" font-size="13px" font-style="italic" font-weight="normal" text-decoration="none" x="406" y="693.5">+normalize(findings: Finding[*]): double</text></g></g><g transform="translate(-6,-14) scale(1,1)"><path fill="none" stroke="#000000" d="M 522 557 L 522 628" stroke-miterlimit="10" stroke-dasharray="3"/></g><g transform="translate(-6,-14) scale(1,1)"><path fill="none" stroke="#000000" d="M 517.790482243984 617.8373251423759 L 522 628 L 526.209517756016 617.8373251423759" stroke-miterlimit="10"/></g><g transform="translate(-6,-14) scale(1,1)"><rect fill="#ffffff" stroke="none" x="449" y="756" width="136" height="24"/></g><g transform="translate(-6,-14) scale(1,1)"><path fill="none" stroke="#000000" d="M 449 756 L 585 756 L 585 780 L 449 780 L 449 756 Z Z" stroke-miterlimit="10"/></g><g transform="translate(-6,-14) scale(1,1)"><g><path fill="none" stroke="none"/><text fill="#000000" stroke="none" font-family="Arial" font-size="13px" font-style="normal" font-weight="bold" text-decoration="none" x="474.3818359375" y="775.5">NullNormalizer</text></g></g><g transform="translate(-6,-14) scale(1,1)"><rect fill="#ffffff" stroke="none" x="289" y="756" width="146.81787109375" height="24"/></g><g transform="translate(-6,-14) scale(1,1)"><path fill="none" stroke="#000000" d="M 289 756 L 435.81787109375 756 L 435.81787109375 780 L 289 780 L 289 756 Z Z" stroke-miterlimit="10"/></g><g transform="translate(-6,-14) scale(1,1)"><g><path fill="none" stroke="none"/><text fill="#000000" stroke="none" font-family="Arial" font-size="13px" font-style="normal" font-weight="bold" text-decoration="none" x="308.218994140625" y="775.5">RangedNormalizer</text></g></g><g transform="translate(-6,-14) scale(1,1)"><rect fill="#ffffff" stroke="none" x="593" y="756" width="152" height="24"/></g><g transform="translate(-6,-14) scale(1,1)"><path fill="none" stroke="#000000" d="M 593 756 L 745 756 L 745 780 L 593 780 L 593 756 Z Z" stroke-miterlimit="10"/></g><g transform="translate(-6,-14) scale(1,1)"><g><path fill="none" stroke="none"/><text fill="#000000" stroke="none" font-family="Arial" font-size="13px" font-style="normal" font-weight="bold" text-decoration="none" x="609.030517578125" y="775.5">UnrangedNormalizer</text></g></g><g transform="translate(-6,-14) scale(1,1)"><path fill="none" stroke="#000000" d="M 362 756 L 362 728 L 520 728 L 520 698" stroke-miterlimit="10"/></g><g transform="translate(-6,-14) scale(1,1)"><path fill="#FFFFFF" stroke="none" d="M 528.419035512032 718.3253497152483 L 520 698 L 511.580964487968 718.3253497152483"/></g><g transform="translate(-6,-14) scale(1,1)"><path fill="none" stroke="#000000" d="M 528.419035512032 718.3253497152483 L 520 698 L 511.580964487968 718.3253497152483 L 528.419035512032 718.3253497152483" stroke-miterlimit="10"/></g><g transform="translate(-6,-14) scale(1,1)"><path fill="none" stroke="#000000" d="M 520 756 L 520 698" stroke-miterlimit="10"/></g><g transform="translate(-6,-14) scale(1,1)"><path fill="#FFFFFF" stroke="none" d="M 528.419035512032 718.3253497152483 L 520 698 L 511.580964487968 718.3253497152483"/></g><g transform="translate(-6,-14) scale(1,1)"><path fill="none" stroke="#000000" d="M 528.419035512032 718.3253497152483 L 520 698 L 511.580964487968 718.3253497152483 L 528.419035512032 718.3253497152483" stroke-miterlimit="10"/></g><g transform="translate(-6,-14) scale(1,1)"><path fill="none" stroke="#000000" d="M 672 756 L 672 728 L 520 728 L 520 698" stroke-miterlimit="10"/></g><g transform="translate(-6,-14) scale(1,1)"><path fill="#FFFFFF" stroke="none" d="M 528.419035512032 718.3253497152483 L 520 698 L 511.580964487968 718.3253497152483"/></g><g transform="translate(-6,-14) scale(1,1)"><path fill="none" stroke="#000000" d="M 528.419035512032 718.3253497152483 L 520 698 L 511.580964487968 718.3253497152483 L 528.419035512032 718.3253497152483" stroke-miterlimit="10"/></g><g transform="translate(-6,-14) scale(1,1)"><path fill="none" stroke="#000000" d="M 636 640 L 742 640 L 742 580" stroke-miterlimit="10"/></g><g transform="translate(-6,-14) scale(1,1)"><rect fill="#ffffff" stroke="none" x="960" y="648" width="134.68359375" height="105"/></g><g transform="translate(-6,-14) scale(1,1)"><path fill="none" stroke="#000000" d="M 960 648 L 1094.68359375 648 L 1094.68359375 753 L 960 753 L 960 648 Z Z" stroke-miterlimit="10"/></g><g transform="translate(-6,-14) scale(1,1)"><path fill="none" stroke="#000000" d="M 960 686 L 1094.68359375 686" stroke-miterlimit="10"/></g><g transform="translate(-6,-14) scale(1,1)"><g><path fill="none" stroke="none"/><text fill="#000000" stroke="none" font-family="Arial" font-size="13px" font-style="normal" font-weight="normal" text-decoration="none" x="983.977783203125" y="665.5">«enumeration»</text></g></g><g transform="translate(-6,-14) scale(1,1)"><g><path fill="none" stroke="none"/><text fill="#000000" stroke="none" font-family="Arial" font-size="13px" font-style="normal" font-weight="bold" text-decoration="none" x="968.451416015625" y="680.5">NormalizationRange</text></g></g><g transform="translate(-6,-14) scale(1,1)"><g><path fill="none" stroke="none"/><text fill="#000000" stroke="none" font-family="Arial" font-size="13px" font-style="normal" font-weight="normal" text-decoration="none" x="965" y="703.5">FILE</text></g></g><g transform="translate(-6,-14) scale(1,1)"><g><path fill="none" stroke="none"/><text fill="#000000" stroke="none" font-family="Arial" font-size="13px" font-style="normal" font-weight="normal" text-decoration="none" x="965" y="718.5">CLASS</text></g></g><g transform="translate(-6,-14) scale(1,1)"><g><path fill="none" stroke="none"/><text fill="#000000" stroke="none" font-family="Arial" font-size="13px" font-style="normal" font-weight="normal" text-decoration="none" x="965" y="733.5">METHOD</text></g></g><g transform="translate(-6,-14) scale(1,1)"><g><path fill="none" stroke="none"/><text fill="#000000" stroke="none" font-family="Arial" font-size="13px" font-style="normal" font-weight="normal" text-decoration="none" x="965" y="748.5">NA</text></g></g><g transform="translate(-6,-14) scale(1,1)"><path fill="none" stroke="#000000" d="M 636 688 L 960 688" stroke-miterlimit="10"/></g><g transform="translate(-6,-14) scale(1,1)"><path fill="none" stroke="#000000" d="M 949.8373251423759 692.209517756016 L 960 688 L 949.8373251423758 683.790482243984" stroke-miterlimit="10"/></g><g transform="translate(-6,-14) scale(1,1)"><path fill="none" stroke="#000000" d="M 185 537 L 456 537" stroke-miterlimit="10" stroke-dasharray="3"/></g><g transform="translate(-6,-14) scale(1,1)"><path fill="none" stroke="#000000" d="M 445.83732514237585 541.209517756016 L 456 537 L 445.83732514237585 532.790482243984" stroke-miterlimit="10"/></g><g transform="translate(-6,-14) scale(1,1)"><path fill="none" stroke="#000000" d="M 1081 587 L 1264 587 L 1264 186 L 877 186" stroke-miterlimit="10"/></g><g transform="translate(-6,-14) scale(1,1)"><g><path fill="none" stroke="none"/><text fill="#000000" stroke="none" font-family="Arial" font-size="13px" font-style="normal" font-weight="normal" text-decoration="none" x="1084.680908203125" y="578.5">#owner</text></g></g><g transform="translate(-6,-14) scale(1,1)"><g><path fill="none" stroke="none"/><text fill="#000000" stroke="none" font-family="Arial" font-size="13px" font-style="normal" font-weight="normal" text-decoration="none" x="881.5" y="205.5">#processor</text></g></g><g transform="translate(-6,-14) scale(1,1)"><g><path fill="none" stroke="none"/><text fill="#000000" stroke="none" font-family="Arial" font-size="13px" font-style="normal" font-weight="normal" text-decoration="none" x="894.5" y="179.5">1</text></g></g><g transform="translate(-6,-14) scale(1,1)"><rect fill="#ffffff" stroke="none" x="696" y="536" width="93.51904296875" height="44"/></g><g transform="translate(-6,-14) scale(1,1)"><path fill="none" stroke="#000000" d="M 696 536 L 789.51904296875 536 L 789.51904296875 580 L 696 580 L 696 536 Z Z" stroke-miterlimit="10"/></g><g transform="translate(-6,-14) scale(1,1)"><path fill="none" stroke="#000000" d="M 696 561 L 789.51904296875 561" stroke-miterlimit="10"/></g><g transform="translate(-6,-14) scale(1,1)"><path fill="none" stroke="#000000" d="M 696 571 L 789.51904296875 571" stroke-miterlimit="10"/></g><g transform="translate(-6,-14) scale(1,1)"><g><path fill="none" stroke="none"/><text fill="#000000" stroke="none" font-family="Arial" font-size="13px" font-style="normal" font-weight="bold" text-decoration="none" x="703.7373046875" y="555.5">AbstractEdge</text></g></g><g transform="translate(-6,-14) scale(1,1)"><rect fill="#ffffff" stroke="none" x="960" y="536" width="120.642578125" height="87"/></g><g transform="translate(-6,-14) scale(1,1)"><path fill="none" stroke="#000000" d="M 960 536 L 1080.642578125 536 L 1080.642578125 623 L 960 623 L 960 536 Z Z" stroke-miterlimit="10"/></g><g transform="translate(-6,-14) scale(1,1)"><path fill="none" stroke="#000000" d="M 960 561 L 1080.642578125 561" stroke-miterlimit="10"/></g><g transform="translate(-6,-14) scale(1,1)"><path fill="none" stroke="#000000" d="M 960 614 L 1080.642578125 614" stroke-miterlimit="10"/></g><g transform="translate(-6,-14) scale(1,1)"><g><path fill="none" stroke="none"/><text fill="#000000" stroke="none" font-family="Arial" font-size="13px" font-style="italic" font-weight="bold" text-decoration="none" x="1004.7822265625" y="555.5">Node</text></g></g><g transform="translate(-6,-14) scale(1,1)"><g><path fill="none" stroke="none"/><text fill="#000000" stroke="none" font-family="Arial" font-size="13px" font-style="normal" font-weight="normal" text-decoration="none" x="965" y="578.5">#value: double</text></g></g><g transform="translate(-6,-14) scale(1,1)"><g><path fill="none" stroke="none"/><text fill="#000000" stroke="none" font-family="Arial" font-size="13px" font-style="normal" font-weight="normal" text-decoration="none" x="965" y="593.5">#name: String</text></g></g><g transform="translate(-6,-14) scale(1,1)"><g><path fill="none" stroke="none"/><text fill="#000000" stroke="none" font-family="Arial" font-size="13px" font-style="normal" font-weight="normal" text-decoration="none" x="965" y="608.5">#description: String</text></g></g><g transform="translate(-6,-14) scale(1,1)"><path fill="none" stroke="#000000" d="M 790 558 L 960 558" stroke-miterlimit="10"/></g><g transform="translate(-6,-14) scale(1,1)"><path fill="none" stroke="#000000" d="M 949.8373251423759 562.209517756016 L 960 558 L 949.8373251423758 553.790482243984" stroke-miterlimit="10"/></g><g transform="translate(-6,-14) scale(1,1)"><g><path fill="none" stroke="none"/><text fill="#000000" stroke="none" font-family="Arial" font-size="13px" font-style="normal" font-weight="normal" text-decoration="none" x="934.5" y="576.5">2</text></g></g><g transform="translate(-6,-14) scale(1,1)"><path fill="none" stroke="#000000" d="M 64 508 L 64 72" stroke-miterlimit="10" stroke-dasharray="3"/></g><g transform="translate(-6,-14) scale(1,1)"><path fill="#FFFFFF" stroke="none" d="M 72.41903551203198 92.32534971524831 L 64 72 L 55.580964487968025 92.32534971524831"/></g><g transform="translate(-6,-14) scale(1,1)"><path fill="none" stroke="#000000" d="M 72.41903551203198 92.32534971524831 L 64 72 L 55.580964487968025 92.32534971524831 L 72.41903551203198 92.32534971524831" stroke-miterlimit="10"/></g><g transform="translate(-6,-14) scale(1,1)"><path fill="none" stroke="#000000" d="M 193 48 L 114 48" stroke-miterlimit="10" stroke-dasharray="3"/></g><g transform="translate(-6,-14) scale(1,1)"><path fill="#FFFFFF" stroke="none" d="M 134.3253497152483 39.580964487968025 L 114 48 L 134.3253497152483 56.419035512031975"/></g><g transform="translate(-6,-14) scale(1,1)"><path fill="none" stroke="#000000" d="M 134.3253497152483 39.580964487968025 L 114 48 L 134.3253497152483 56.419035512031975 L 134.3253497152483 39.580964487968025" stroke-miterlimit="10"/></g><g transform="translate(-6,-14) scale(1,1)"><rect fill="#ffffff" stroke="none" x="193" y="36" width="133.25537109375" height="44"/></g><g transform="translate(-6,-14) scale(1,1)"><path fill="none" stroke="#000000" d="M 193 36 L 326.25537109375 36 L 326.25537109375 80 L 193 80 L 193 36 Z Z" stroke-miterlimit="10"/></g><g transform="translate(-6,-14) scale(1,1)"><g><path fill="none" stroke="none"/><text fill="#000000" stroke="none" font-family="Arial" font-size="13px" font-style="normal" font-weight="bold" text-decoration="none" x="202.543212890625" y="55.5">ProcessorPopulator</text></g></g><g transform="translate(-6,-14) scale(1,1)"><path fill="none" stroke="#000000" d="M 261 80 L 261 156" stroke-miterlimit="10" stroke-dasharray="3"/></g><g transform="translate(-6,-14) scale(1,1)"><path fill="none" stroke="#000000" d="M 256.790482243984 145.83732514237585 L 261 156 L 265.209517756016 145.83732514237585" stroke-miterlimit="10"/></g><g transform="translate(-6,-14) scale(1,1)"><rect fill="#ffffff" stroke="none" x="16" y="24" width="97.83544921875" height="48"/></g><g transform="translate(-6,-14) scale(1,1)"><path fill="none" stroke="#000000" d="M 16 24 L 113.83544921875 24 L 113.83544921875 72 L 16 72 L 16 24 Z Z" stroke-miterlimit="10"/></g><g transform="translate(-6,-14) scale(1,1)"><g><path fill="none" stroke="none"/><text fill="#000000" stroke="none" font-family="Arial" font-size="13px" font-style="normal" font-weight="normal" text-decoration="none" x="32.75732421875" y="41.5">«interface»</text></g></g><g transform="translate(-6,-14) scale(1,1)"><g><path fill="none" stroke="none"/><text fill="#000000" stroke="none" font-family="Arial" font-size="13px" font-style="normal" font-weight="bold" text-decoration="none" x="23.734130859375" y="56.5">GraphModifier</text></g></g><g transform="translate(-6,-14) scale(1,1)"><rect fill="#C0C0C0" stroke="none" x="136" y="719" width="144.08447265625" height="44" opacity="0.2"/></g><g transform="translate(-6,-14) scale(1,1)"><rect fill="#ffffff" stroke="none" x="129" y="712" width="144.08447265625" height="44"/></g><g transform="translate(-6,-14) scale(1,1)"><path fill="none" stroke="#000000" d="M 129 712 L 273.08447265625 712 L 273.08447265625 756 L 129 756 L 129 712 Z Z" stroke-miterlimit="10"/></g><g transform="translate(-6,-14) scale(1,1)"><g><path fill="none" stroke="none"/><text fill="#000000" stroke="none" font-family="Arial" font-size="13px" font-style="normal" font-weight="bold" text-decoration="none" x="138.54638671875" y="731.5">DistilledGraphCreator</text></g></g><g transform="translate(-6,-14) scale(1,1)"><rect fill="#C0C0C0" stroke="none" x="168" y="622" width="94.236328125" height="44" opacity="0.2"/></g><g transform="translate(-6,-14) scale(1,1)"><rect fill="#ffffff" stroke="none" x="161" y="615" width="94.236328125" height="44"/></g><g transform="translate(-6,-14) scale(1,1)"><path fill="none" stroke="#000000" d="M 161 615 L 255.236328125 615 L 255.236328125 659 L 161 659 L 161 615 Z Z" stroke-miterlimit="10"/></g><g transform="translate(-6,-14) scale(1,1)"><g><path fill="none" stroke="none"/><text fill="#000000" stroke="none" font-family="Arial" font-size="13px" font-style="normal" font-weight="bold" text-decoration="none" x="169.108642578125" y="634.5">ModelDistiller</text></g></g><g transform="translate(-6,-14) scale(1,1)"><path fill="none" stroke="#000000" d="M 207 659 L 207 712" stroke-miterlimit="10"/></g><g transform="translate(-6,-14) scale(1,1)"><path fill="none" stroke="#000000" d="M 202.790482243984 701.8373251423759 L 207 712 L 211.209517756016 701.8373251423759" stroke-miterlimit="10"/></g><g transform="translate(-6,-14) scale(1,1)"><path fill="none" stroke="#000000" d="M 129 734 L 32 734 L 32 72" stroke-miterlimit="10" stroke-dasharray="3"/></g><g transform="translate(-6,-14) scale(1,1)"><path fill="none" stroke="#000000" d="M 36.20951775601599 82.16267485762415 L 32 72 L 27.790482243984012 82.16267485762415" stroke-miterlimit="10"/></g></g></svg>