<svg version="1.1" xmlns="http://www.w3.org/2000/svg" xmlns:xlink="http://www.w3.org/1999/xlink" width="254.45263671875" height="215"><defs/><g><g transform="translate(-198,-63) scale(1,1)"><rect fill="#ffffff" stroke="none" x="264" y="80" width="102.58349609375" height="57"/></g><g transform="translate(-198,-63) scale(1,1)"><path fill="none" stroke="#000000" d="M 264 80 L 366.58349609375 80 L 366.58349609375 137 L 264 137 L 264 80 Z Z" stroke-miterlimit="10"/></g><g transform="translate(-198,-63) scale(1,1)"><path fill="none" stroke="#000000" d="M 264 105 L 366.58349609375 105" stroke-miterlimit="10"/></g><g transform="translate(-198,-63) scale(1,1)"><path fill="none" stroke="#000000" d="M 264 128 L 366.58349609375 128" stroke-miterlimit="10"/></g><g transform="translate(-198,-63) scale(1,1)"><g><path fill="none" stroke="none"/><text fill="#000000" stroke="none" font-family="Arial" font-size="13px" font-style="normal" font-weight="bold" text-decoration="none" x="300.120849609375" y="99.5">Party</text></g></g><g transform="translate(-198,-63) scale(1,1)"><g><path fill="none" stroke="none"/><text fill="#000000" stroke="none" font-family="Arial" font-size="13px" font-style="normal" font-weight="normal" text-decoration="none" x="269" y="122.5">+location: String</text></g></g><g transform="translate(-198,-63) scale(1,1)"><rect fill="#ffffff" stroke="none" x="208" y="224" width="53.07177734375" height="44"/></g><g transform="translate(-198,-63) scale(1,1)"><path fill="none" stroke="#000000" d="M 208 224 L 261.07177734375 224 L 261.07177734375 268 L 208 268 L 208 224 Z Z" stroke-miterlimit="10"/></g><g transform="translate(-198,-63) scale(1,1)"><path fill="none" stroke="#000000" d="M 208 249 L 261.07177734375 249" stroke-miterlimit="10"/></g><g transform="translate(-198,-63) scale(1,1)"><path fill="none" stroke="#000000" d="M 208 259 L 261.07177734375 259" stroke-miterlimit="10"/></g><g transform="translate(-198,-63) scale(1,1)"><g><path fill="none" stroke="none"/><text fill="#000000" stroke="none" font-family="Arial" font-size="13px" font-style="normal" font-weight="bold" text-decoration="none" x="213.94091796875" y="243.5">Person</text></g></g><g transform="translate(-198,-63) scale(1,1)"><rect fill="#ffffff" stroke="none" x="336" y="224" width="88.447265625" height="44"/></g><g transform="translate(-198,-63) scale(1,1)"><path fill="none" stroke="#000000" d="M 336 224 L 424.447265625 224 L 424.447265625 268 L 336 268 L 336 224 Z Z" stroke-miterlimit="10"/></g><g transform="translate(-198,-63) scale(1,1)"><path fill="none" stroke="#000000" d="M 336 249 L 424.447265625 249" stroke-miterlimit="10"/></g><g transform="translate(-198,-63) scale(1,1)"><path fill="none" stroke="#000000" d="M 336 259 L 424.447265625 259" stroke-miterlimit="10"/></g><g transform="translate(-198,-63) scale(1,1)"><g><path fill="none" stroke="none"/><text fill="#000000" stroke="none" font-family="Arial" font-size="13px" font-style="normal" font-weight="bold" text-decoration="none" x="343.369140625" y="243.5">Organization</text></g></g><g transform="translate(-198,-63) scale(1,1)"><path fill="none" stroke="#000000" d="M 234 224 L 234 188 L 315 188 L 315 137" stroke-miterlimit="10"/></g><g transform="translate(-198,-63) scale(1,1)"><path fill="#FFFFFF" stroke="none" d="M 323.419035512032 157.3253497152483 L 315 137 L 306.580964487968 157.3253497152483"/></g><g transform="translate(-198,-63) scale(1,1)"><path fill="none" stroke="#000000" d="M 323.419035512032 157.3253497152483 L 315 137 L 306.580964487968 157.3253497152483 L 323.419035512032 157.3253497152483" stroke-miterlimit="10"/></g><g transform="translate(-198,-63) scale(1,1)"><path fill="none" stroke="#000000" d="M 380 224 L 380 188 L 315 188 L 315 137" stroke-miterlimit="10"/></g><g transform="translate(-198,-63) scale(1,1)"><path fill="#FFFFFF" stroke="none" d="M 323.419035512032 157.3253497152483 L 315 137 L 306.580964487968 157.3253497152483"/></g><g transform="translate(-198,-63) scale(1,1)"><path fill="none" stroke="#000000" d="M 323.419035512032 157.3253497152483 L 315 137 L 306.580964487968 157.3253497152483 L 323.419035512032 157.3253497152483" stroke-miterlimit="10"/></g><g transform="translate(-198,-63) scale(1,1)"><path fill="none" stroke="#000000" d="M 367 105 L 392 105 L 392 224" stroke-miterlimit="10"/></g><g transform="translate(-198,-63) scale(1,1)"><g><path fill="none" stroke="none"/><text fill="#000000" stroke="none" font-family="Arial" font-size="13px" font-style="normal" font-weight="normal" text-decoration="none" x="369.13134765625" y="85.5">-children</text></g></g><g transform="translate(-198,-63) scale(1,1)"><g><path fill="none" stroke="none"/><text fill="#000000" stroke="none" font-family="Arial" font-size="13px" font-style="normal" font-weight="normal" text-decoration="none" x="375.5" y="101.5">*</text></g></g><g transform="translate(-198,-63) scale(1,1)"><g><path fill="none" stroke="none"/><text fill="#000000" stroke="none" font-family="Arial" font-size="13px" font-style="normal" font-weight="normal" text-decoration="none" x="400.13134765625" y="204.5">-parent</text></g></g><g transform="translate(-198,-63) scale(1,1)"><g><path fill="none" stroke="none"/><text fill="#000000" stroke="none" font-family="Arial" font-size="13px" font-style="normal" font-weight="normal" text-decoration="none" x="399.5" y="220.5">0..1</text></g></g></g></svg>