<svg xmlns="http://www.w3.org/2000/svg" xmlns:xlink="http://www.w3.org/1999/xlink" xmlns:lucid="lucid" width="880" height="537.67"><g transform="translate(-40 -80)" lucid:page-tab-id="grEk5Rz4o~Dn"><path d="M400 106c0-3.3 2.7-6 6-6h148c3.3 0 6 2.7 6 6v58c0 3.3-2.7 6-6 6H406c-3.3 0-6-2.7-6-6z" stroke="#fff" stroke-width="3" fill-opacity="0"/><use xlink:href="#a" transform="matrix(1,0,0,1,400,100) translate(37.10499999999999 38.4625)"/><path d="M740 106c0-3.3 2.7-6 6-6h148c3.3 0 6 2.7 6 6v58c0 3.3-2.7 6-6 6H746c-3.3 0-6-2.7-6-6z" stroke="#fff" stroke-width="3" fill-opacity="0"/><use xlink:href="#b" transform="matrix(1,0,0,1,740,100.00000000000001) translate(64.03 38.4625)"/><path d="M480 172.5v3.02m0 4.03v6.05m0 4.03v6.04m0 4.03v6.04m0 4.03v6.05m0 4.03v6.04m0 4.02v6.04m0 4.03v6.04m0 4.03v6.04m0 4.04v6.04m0 4.03v6.06m0 4.03v6.03m0 4.03v6.05m0 4.04v6.04m0 4.03v6.05m0 4.03v6.05m0 4.03v6.04m0 4.03v6.04m0 4.03v6.05m0 4.03v6.04m0 4.03V377m0 4.02v6.05m0 4.03v6.04m0 4.03v6.05m0 4.03v6.04m0 4.02v6.04m0 4.03v6.04m0 4.03v6.04m0 4.04v6.04m0 4.03v6.06m0 4.03v6.03m0 4.03v6.05m0 4.03v6.05m0 4.03v6.05m0 4.03v6.05m0 4.03v6.04m0 4.03v6.04m0 4.03v6.05m0 4.03v6.04m0 4.03v6.04m0 4.02v6.05m0 4.03v6.04m0 4.03v6.05m0 4.02v3.03" stroke="#fff" stroke-width="2" fill="none"/><path d="M481 172.53h-2v-1.03h2z" stroke="#fff" stroke-width=".05" fill="#fff"/><path d="M480 605.64v1.03M820 172.5v2.98m0 3.96v5.95m0 3.96v5.95m0 3.98v5.95m0 3.97v5.95m0 3.97v5.95m0 3.97V235m0 3.95v5.96m0 3.97v5.95m0 3.97v5.94m0 3.97v5.96m0 3.97v5.95m0 3.97v5.95m0 3.97v5.95m0 3.96v5.96m0 3.96v5.95m0 3.97v5.95m0 3.97v5.95m0 3.96V354m0 3.98v5.95m0 3.97v5.95m0 3.97v5.95m0 3.96v5.95m0 3.97v5.95m0 3.97v5.95m0 3.97v5.94m0 3.97v5.96m0 3.97v5.95m0 3.97v5.95m0 3.96v5.96m0 3.96v5.95m0 3.97v5.95m0 3.97v5.95m0 3.97v5.95m0 3.96v5.95m0 3.98v5.95m0 3.96v5.95m0 3.96v5.96m0 3.97v5.95m0 3.97v5.95m0 3.97v5.95m0 3.97v5.94m0 3.97v5.96m0 3.96V599" stroke="#fff" stroke-width="2" fill="none"/><path d="M821 172.53h-2v-1.03h2z" stroke="#fff" stroke-width=".05" fill="#fff"/><path d="M820 598.97V600" stroke="#fff" stroke-width="2" fill="none"/><path d="M460 246c0-3.3 2.7-6 6-6h28c3.3 0 6 2.7 6 6v288c0 3.3-2.7 6-6 6h-28c-3.3 0-6-2.7-6-6zM800 246c0-3.3 2.7-6 6-6h28c3.3 0 6 2.7 6 6v288c0 3.3-2.7 6-6 6h-28c-3.3 0-6-2.7-6-6z" stroke="#fff" stroke-width="3" fill="#282c33"/><path d="M60 106c0-3.3 2.7-6 6-6h148c3.3 0 6 2.7 6 6v58c0 3.3-2.7 6-6 6H66c-3.3 0-6-2.7-6-6z" stroke="#fff" stroke-width="3" fill-opacity="0"/><use xlink:href="#c" transform="matrix(1,0,0,1,60,100.00000000000001) translate(57.555 38.4625)"/><path d="M140 172.5v3.02m0 4.03v6.05m0 4.03v6.04m0 4.03v6.04m0 4.03v6.05m0 4.03v6.04m0 4.02v6.04m0 4.03v6.04m0 4.03v6.04m0 4.04v6.04m0 4.03v6.06m0 4.03v6.03m0 4.03v6.05m0 4.04v6.04m0 4.03v6.05m0 4.03v6.05m0 4.03v6.04m0 4.03v6.04m0 4.03v6.05m0 4.03v6.04m0 4.03V377m0 4.02v6.05m0 4.03v6.04m0 4.03v6.05m0 4.03v6.04m0 4.02v6.04m0 4.03v6.04m0 4.03v6.04m0 4.04v6.04m0 4.03v6.06m0 4.03v6.03m0 4.03v6.05m0 4.03v6.05m0 4.03v6.05m0 4.03v6.05m0 4.03v6.04m0 4.03v6.04m0 4.03v6.05m0 4.03v6.04m0 4.03v6.04m0 4.02v6.05m0 4.03v6.04m0 4.03v6.05m0 4.02v3.03" stroke="#fff" stroke-width="2" fill="none"/><path d="M141 172.53h-2v-1.03h2z" stroke="#fff" stroke-width=".05" fill="#fff"/><path d="M140 605.64v1.03" stroke="#fff" stroke-width="2" fill="none"/><path d="M120 246c0-3.3 2.7-6 6-6h28c3.3 0 6 2.7 6 6v288c0 3.3-2.7 6-6 6h-28c-3.3 0-6-2.7-6-6z" stroke="#fff" stroke-width="3" fill="#282c33"/><path d="M162.5 273.33H440" stroke="#fff" stroke-width="2" fill="none"/><path d="M162.53 274.33h-1.03v-2h1.03z" stroke="#fff" stroke-width=".05" fill="#fff"/><path d="M455.26 273.33L441 277.97v-9.27z" stroke="#fff" stroke-width="2" fill="#fff"/><use xlink:href="#d" transform="matrix(1,0,0,1,253.50617283950618,248.00000000000003) translate(0 14.222222222222223)"/><path d="M478.5 341.33c0-3.3 2.7-6 6-6h28c3.3 0 6 2.7 6 6v108c0 3.32-2.7 6-6 6h-28c-3.3 0-6-2.68-6-6z" stroke="#fff" stroke-width="3" fill="#282c33"/><path d="M502.5 301.33H554c3.3 0 6 2.7 6 6v37.34c0 3.3-2.7 6-6 6h-15.5" stroke="#fff" stroke-width="2" fill="none"/><path d="M502.53 302.33h-1.03v-2h1.03z" stroke="#fff" stroke-width=".05" fill="#fff"/><path d="M523.24 350.67l14.26-4.64v9.27z" stroke="#fff" stroke-width="2" fill="#fff"/><use xlink:href="#e" transform="matrix(1,0,0,1,567.9999999999999,306.08333333333326) translate(0 14.222222222222223)"/><path d="M502.5 494.67H780" stroke="#fff" stroke-width="2" fill="none"/><path d="M502.53 495.67h-1.03v-2h1.03z" stroke="#fff" stroke-width=".05" fill="#fff"/><path d="M795.26 494.67L781 499.3v-9.27z" stroke="#fff" stroke-width="2" fill="#fff"/><use xlink:href="#f" transform="matrix(1,0,0,1,583.5308641975308,469.33333333333337) translate(0 14.222222222222223)"/><defs><path fill="#fff" d="M240 0l2-218c-23 76-54 145-80 218h-23L58-218 59 0H30v-248h44l77 211c21-75 51-140 76-211h43V0h-30" id="g"/><path fill="#fff" d="M24-231v-30h32v30H24zM24 0v-190h32V0H24" id="h"/><path fill="#fff" d="M96-169c-40 0-48 33-48 73s9 75 48 75c24 0 41-14 43-38l32 2c-6 37-31 61-74 61-59 0-76-41-82-99-10-93 101-131 147-64 4 7 5 14 7 22l-32 3c-4-21-16-35-41-35" id="i"/><path fill="#fff" d="M114-163C36-179 61-72 57 0H25l-1-190h30c1 12-1 29 2 39 6-27 23-49 58-41v29" id="j"/><path fill="#fff" d="M100-194c62-1 85 37 85 99 1 63-27 99-86 99S16-35 15-95c0-66 28-99 85-99zM99-20c44 1 53-31 53-75 0-43-8-75-51-75s-53 32-53 75 10 74 51 75" id="k"/><path fill="#fff" d="M206 0h-36l-40-164L89 0H53L-1-190h32L70-26l43-164h34l41 164 42-164h31" id="l"/><path fill="#fff" d="M141-36C126-15 110 5 73 4 37 3 15-17 15-53c-1-64 63-63 125-63 3-35-9-54-41-54-24 1-41 7-42 31l-33-3c5-37 33-52 76-52 45 0 72 20 72 64v82c-1 20 7 32 28 27v20c-31 9-61-2-59-35zM48-53c0 20 12 33 32 33 41-3 63-29 60-74-43 2-92-5-92 41" id="m"/><path fill="#fff" d="M108 0H70L1-190h34L89-25l56-165h34" id="n"/><path fill="#fff" d="M100-194c63 0 86 42 84 106H49c0 40 14 67 53 68 26 1 43-12 49-29l28 8c-11 28-37 45-77 45C44 4 14-33 15-96c1-61 26-98 85-98zm52 81c6-60-76-77-97-28-3 7-6 17-6 28h103" id="o"/><g id="a"><use transform="matrix(0.05,0,0,0.05,0,0)" xlink:href="#g"/><use transform="matrix(0.05,0,0,0.05,14.950000000000001,0)" xlink:href="#h"/><use transform="matrix(0.05,0,0,0.05,18.900000000000002,0)" xlink:href="#i"/><use transform="matrix(0.05,0,0,0.05,27.900000000000002,0)" xlink:href="#j"/><use transform="matrix(0.05,0,0,0.05,33.85,0)" xlink:href="#k"/><use transform="matrix(0.05,0,0,0.05,43.85,0)" xlink:href="#l"/><use transform="matrix(0.05,0,0,0.05,56.800000000000004,0)" xlink:href="#m"/><use transform="matrix(0.05,0,0,0.05,66.80000000000001,0)" xlink:href="#n"/><use transform="matrix(0.05,0,0,0.05,75.80000000000001,0)" xlink:href="#o"/><path fill="#fff" d="M-.9 1.25h87.6v1.32H-.9z"/></g><path fill="#fff" d="M143 4C61 4 22-44 18-125c-5-107 100-154 193-111 17 8 29 25 37 43l-32 9c-13-25-37-40-76-40-61 0-88 39-88 99 0 61 29 100 91 101 35 0 62-11 79-27v-45h-74v-28h105v86C228-13 192 4 143 4" id="p"/><path fill="#fff" d="M232-93c-1 65-40 97-104 97C67 4 28-28 28-90v-158h33c8 89-33 224 67 224 102 0 64-133 71-224h33v155" id="q"/><path fill="#fff" d="M33 0v-248h34V0H33" id="r"/><g id="b"><use transform="matrix(0.05,0,0,0.05,0,0)" xlink:href="#p"/><use transform="matrix(0.05,0,0,0.05,14,0)" xlink:href="#q"/><use transform="matrix(0.05,0,0,0.05,26.950000000000003,0)" xlink:href="#r"/><path fill="#fff" d="M-.9 1.25h33.75v1.32H-.9z"/></g><path fill="#fff" d="M212-179c-10-28-35-45-73-45-59 0-87 40-87 99 0 60 29 101 89 101 43 0 62-24 78-52l27 14C228-24 195 4 139 4 59 4 22-46 18-125c-6-104 99-153 187-111 19 9 31 26 39 46" id="s"/><path fill="#fff" d="M24 0v-261h32V0H24" id="t"/><path fill="#fff" d="M143 0L79-87 56-68V0H24v-261h32v163l83-92h37l-77 82L181 0h-38" id="u"/><g id="c"><use transform="matrix(0.05,0,0,0.05,0,0)" xlink:href="#s"/><use transform="matrix(0.05,0,0,0.05,12.950000000000001,0)" xlink:href="#t"/><use transform="matrix(0.05,0,0,0.05,16.900000000000002,0)" xlink:href="#k"/><use transform="matrix(0.05,0,0,0.05,26.900000000000002,0)" xlink:href="#i"/><use transform="matrix(0.05,0,0,0.05,35.900000000000006,0)" xlink:href="#u"/><path fill="#fff" d="M-.9 1.25h46.7v1.32H-.9z"/></g><path fill="#fff" d="M190-63c-7 42-38 67-86 67-59 0-84-38-90-98-12-110 154-137 174-36l-49 2c-2-19-15-32-35-32-30 0-35 28-38 64-6 74 65 87 74 30" id="v"/><path fill="#fff" d="M25 0v-261h50V0H25" id="w"/><path fill="#fff" d="M110-194c64 0 96 36 96 99 0 64-35 99-97 99-61 0-95-36-95-99 0-62 34-99 96-99zm-1 164c35 0 45-28 45-65 0-40-10-65-43-65-34 0-45 26-45 65 0 36 10 65 43 65" id="x"/><path fill="#fff" d="M147 0L96-86 75-71V0H25v-261h50v150l67-79h53l-66 74L201 0h-54" id="y"/><path fill="#fff" d="M136-208V0H84v-208H4v-40h212v40h-80" id="z"/><path fill="#fff" d="M25-224v-37h50v37H25zM25 0v-190h50V0H25" id="A"/><path fill="#fff" d="M185-48c-13 30-37 53-82 52C43 2 14-33 14-96s30-98 90-98c62 0 83 45 84 108H66c0 31 8 55 39 56 18 0 30-7 34-22zm-45-69c5-46-57-63-70-21-2 6-4 13-4 21h74" id="B"/><path fill="#fff" d="M88-194c31-1 46 15 58 34l-1-101h50l1 261h-48c-2-10 0-23-3-31C134-8 116 4 84 4 32 4 16-41 15-95c0-56 19-97 73-99zm17 164c33 0 40-30 41-66 1-37-9-64-41-64s-38 30-39 65c0 43 13 65 39 65" id="C"/><path fill="#fff" d="M67-93c0 74 22 123 53 168H70C40 30 18-18 18-93s22-123 52-168h50c-32 44-53 94-53 168" id="D"/><path fill="#fff" d="M102-93c0 74-22 123-52 168H0C30 29 54-18 53-93c0-74-22-123-53-168h50c30 45 52 94 52 168" id="E"/><g id="d"><use transform="matrix(0.04938271604938272,0,0,0.04938271604938272,0,0)" xlink:href="#v"/><use transform="matrix(0.04938271604938272,0,0,0.04938271604938272,9.876543209876544,0)" xlink:href="#w"/><use transform="matrix(0.04938271604938272,0,0,0.04938271604938272,14.814814814814817,0)" xlink:href="#x"/><use transform="matrix(0.04938271604938272,0,0,0.04938271604938272,25.629629629629633,0)" xlink:href="#v"/><use transform="matrix(0.04938271604938272,0,0,0.04938271604938272,35.50617283950618,0)" xlink:href="#y"/><use transform="matrix(0.04938271604938272,0,0,0.04938271604938272,45.38271604938272,0)" xlink:href="#z"/><use transform="matrix(0.04938271604938272,0,0,0.04938271604938272,55.851851851851855,0)" xlink:href="#A"/><use transform="matrix(0.04938271604938272,0,0,0.04938271604938272,60.79012345679013,0)" xlink:href="#v"/><use transform="matrix(0.04938271604938272,0,0,0.04938271604938272,70.66666666666669,0)" xlink:href="#y"/><use transform="matrix(0.04938271604938272,0,0,0.04938271604938272,80.54320987654323,0)" xlink:href="#B"/><use transform="matrix(0.04938271604938272,0,0,0.04938271604938272,90.41975308641977,0)" xlink:href="#C"/><use transform="matrix(0.04938271604938272,0,0,0.04938271604938272,101.23456790123457,0)" xlink:href="#D"/><use transform="matrix(0.04938271604938272,0,0,0.04938271604938272,107.11111111111111,0)" xlink:href="#E"/></g><path fill="#fff" d="M135-194c53 0 70 44 70 98 0 56-19 98-73 100-31 1-45-17-59-34 3 33 2 69 2 105H25l-1-265h48c2 10 0 23 3 31 11-24 29-35 60-35zM114-30c33 0 39-31 40-66 0-38-9-64-40-64-56 0-55 130 0 130" id="F"/><path fill="#fff" d="M135-150c-39-12-60 13-60 57V0H25l-1-190h47c2 13-1 29 3 40 6-28 27-53 61-41v41" id="G"/><path fill="#fff" d="M137-138c1-29-70-34-71-4 15 46 118 7 119 86 1 83-164 76-172 9l43-7c4 19 20 25 44 25 33 8 57-30 24-41C81-84 22-81 20-136c-2-80 154-74 161-7" id="H"/><path fill="#fff" d="M24 0v-248h195v40H76v63h132v40H76v65h150V0H24" id="I"/><path fill="#fff" d="M128 0H69L1-190h53L99-40l48-150h52" id="J"/><path fill="#fff" d="M135-194c87-1 58 113 63 194h-50c-7-57 23-157-34-157-59 0-34 97-39 157H25l-1-190h47c2 12-1 28 3 38 12-26 28-41 61-42" id="K"/><path fill="#fff" d="M115-3C79 11 28 4 28-45v-112H4v-33h27l15-45h31v45h36v33H77v99c-1 23 16 31 38 25v30" id="L"/><g id="e"><use transform="matrix(0.04938271604938272,0,0,0.04938271604938272,0,0)" xlink:href="#F"/><use transform="matrix(0.04938271604938272,0,0,0.04938271604938272,10.814814814814815,0)" xlink:href="#G"/><use transform="matrix(0.04938271604938272,0,0,0.04938271604938272,17.728395061728396,0)" xlink:href="#x"/><use transform="matrix(0.04938271604938272,0,0,0.04938271604938272,28.543209876543205,0)" xlink:href="#v"/><use transform="matrix(0.04938271604938272,0,0,0.04938271604938272,38.41975308641975,0)" xlink:href="#B"/><use transform="matrix(0.04938271604938272,0,0,0.04938271604938272,48.2962962962963,0)" xlink:href="#H"/><use transform="matrix(0.04938271604938272,0,0,0.04938271604938272,58.17283950617284,0)" xlink:href="#H"/><use transform="matrix(0.04938271604938272,0,0,0.04938271604938272,68.0493827160494,0)" xlink:href="#I"/><use transform="matrix(0.04938271604938272,0,0,0.04938271604938272,79.90123456790124,0)" xlink:href="#J"/><use transform="matrix(0.04938271604938272,0,0,0.04938271604938272,89.77777777777779,0)" xlink:href="#B"/><use transform="matrix(0.04938271604938272,0,0,0.04938271604938272,99.65432098765433,0)" xlink:href="#K"/><use transform="matrix(0.04938271604938272,0,0,0.04938271604938272,110.46913580246914,0)" xlink:href="#L"/><use transform="matrix(0.04938271604938272,0,0,0.04938271604938272,116.34567901234568,0)" xlink:href="#D"/><use transform="matrix(0.04938271604938272,0,0,0.04938271604938272,122.22222222222223,0)" xlink:href="#E"/></g><path fill="#fff" d="M85 4C-2 5 27-109 22-190h50c7 57-23 150 33 157 60-5 35-97 40-157h50l1 190h-47c-2-12 1-28-3-38-12 25-28 42-61 42" id="M"/><path fill="#fff" d="M133-34C117-15 103 5 69 4 32 3 11-16 11-54c-1-60 55-63 116-61 1-26-3-47-28-47-18 1-26 9-28 27l-52-2c7-38 36-58 82-57s74 22 75 68l1 82c-1 14 12 18 25 15v27c-30 8-71 5-69-32zm-48 3c29 0 43-24 42-57-32 0-66-3-65 30 0 17 8 27 23 27" id="N"/><path fill="#fff" d="M24-248c120-7 223 5 221 122C244-46 201 0 124 0H24v-248zM76-40c74 7 117-18 117-86 0-67-45-88-117-82v168" id="O"/><path fill="#fff" d="M123 10C108 53 80 86 19 72V37c35 8 53-11 59-39L3-190h52l48 148c12-52 28-100 44-148h51" id="P"/><g id="f"><use transform="matrix(0.04938271604938272,0,0,0.04938271604938272,0,0)" xlink:href="#M"/><use transform="matrix(0.04938271604938272,0,0,0.04938271604938272,10.814814814814815,0)" xlink:href="#F"/><use transform="matrix(0.04938271604938272,0,0,0.04938271604938272,21.62962962962963,0)" xlink:href="#C"/><use transform="matrix(0.04938271604938272,0,0,0.04938271604938272,32.44444444444444,0)" xlink:href="#N"/><use transform="matrix(0.04938271604938272,0,0,0.04938271604938272,42.32098765432099,0)" xlink:href="#L"/><use transform="matrix(0.04938271604938272,0,0,0.04938271604938272,48.19753086419753,0)" xlink:href="#B"/><use transform="matrix(0.04938271604938272,0,0,0.04938271604938272,58.074074074074076,0)" xlink:href="#O"/><use transform="matrix(0.04938271604938272,0,0,0.04938271604938272,70.8641975308642,0)" xlink:href="#A"/><use transform="matrix(0.04938271604938272,0,0,0.04938271604938272,75.80246913580248,0)" xlink:href="#H"/><use transform="matrix(0.04938271604938272,0,0,0.04938271604938272,85.67901234567903,0)" xlink:href="#F"/><use transform="matrix(0.04938271604938272,0,0,0.04938271604938272,96.49382716049384,0)" xlink:href="#w"/><use transform="matrix(0.04938271604938272,0,0,0.04938271604938272,101.4320987654321,0)" xlink:href="#N"/><use transform="matrix(0.04938271604938272,0,0,0.04938271604938272,111.30864197530865,0)" xlink:href="#P"/><use transform="matrix(0.04938271604938272,0,0,0.04938271604938272,121.18518518518519,0)" xlink:href="#D"/><use transform="matrix(0.04938271604938272,0,0,0.04938271604938272,127.06172839506173,0)" xlink:href="#E"/></g></defs></g></svg>