<svg xmlns="http://www.w3.org/2000/svg" xmlns:xlink="http://www.w3.org/1999/xlink" xmlns:lucid="lucid" width="400" height="400"><g transform="translate(-320 -100)" lucid:page-tab-id="awEkw9e8MgxQ"><path d="M340 126c0-3.3 2.7-6 6-6h348c3.3 0 6 2.7 6 6v128c0 3.3-2.7 6-6 6H346c-3.3 0-6-2.7-6-6z" stroke="#fff" stroke-width="3" fill-opacity="0"/><path d="M340 179.2h360" stroke="#fff" stroke-width="3" fill="none"/><use xlink:href="#a" transform="matrix(1,0,0,1,348,128) translate(113.57499999999999 14.799999999999999)"/><use xlink:href="#b" transform="matrix(1,0,0,1,348,128) translate(131.125 36.4)"/><use xlink:href="#c" transform="matrix(1,0,0,1,352,187.2) translate(0 36.94444444444444)"/><use xlink:href="#d" transform="matrix(1,0,0,1,352,187.2) translate(19.1358024691358 36.94444444444444)"/><use xlink:href="#e" transform="matrix(1,0,0,1,352,187.2) translate(72.03703703703704 36.94444444444444)"/><use xlink:href="#f" transform="matrix(1,0,0,1,352,187.2) translate(84.38271604938272 36.94444444444444)"/><path d="M340 346c0-3.3 2.7-6 6-6h348c3.3 0 6 2.7 6 6v128c0 3.3-2.7 6-6 6H346c-3.3 0-6-2.7-6-6z" stroke="#fff" stroke-width="3" fill-opacity="0"/><path d="M340 382.67h360m-360 48.66h360" stroke="#fff" stroke-width="3" fill="none"/><use xlink:href="#g" transform="matrix(1,0,0,1,348,348) translate(144.28395061728395 17.944444444444443)"/><use xlink:href="#c" transform="matrix(1,0,0,1,352,439.33333333333337) translate(0 20.944444444444443)"/><use xlink:href="#d" transform="matrix(1,0,0,1,352,439.33333333333337) translate(19.1358024691358 20.944444444444443)"/><use xlink:href="#e" transform="matrix(1,0,0,1,352,439.33333333333337) translate(72.03703703703704 20.944444444444443)"/><use xlink:href="#f" transform="matrix(1,0,0,1,352,439.33333333333337) translate(84.38271604938272 20.944444444444443)"/><path d="M520 337.5v-3.1m0-4.1v-6.2m0-4.12v-6.18m0-4.12v-6.18m0-4.12v-6.18m0-4.13v-3.1" stroke="#fff" stroke-width="2" fill="none"/><path d="M521 338.5h-2v-1.03h2z" stroke="#fff" stroke-width=".05" fill="#fff"/><path d="M520 263.46l12.73 21.52h-25.46z" stroke="#fff" stroke-width="2" fill="#fff"/><defs><path fill="#fff" d="M15-91v-56l181-69v40L49-119l147 57v40" id="h"/><path fill="#fff" d="M25-224v-37h50v37H25zM25 0v-190h50V0H25" id="i"/><path fill="#fff" d="M135-194c87-1 58 113 63 194h-50c-7-57 23-157-34-157-59 0-34 97-39 157H25l-1-190h47c2 12-1 28 3 38 12-26 28-41 61-42" id="j"/><path fill="#fff" d="M115-3C79 11 28 4 28-45v-112H4v-33h27l15-45h31v45h36v33H77v99c-1 23 16 31 38 25v30" id="k"/><path fill="#fff" d="M185-48c-13 30-37 53-82 52C43 2 14-33 14-96s30-98 90-98c62 0 83 45 84 108H66c0 31 8 55 39 56 18 0 30-7 34-22zm-45-69c5-46-57-63-70-21-2 6-4 13-4 21h74" id="l"/><path fill="#fff" d="M135-150c-39-12-60 13-60 57V0H25l-1-190h47c2 13-1 29 3 40 6-28 27-53 61-41v41" id="m"/><path fill="#fff" d="M121-226c-27-7-43 5-38 36h38v33H83V0H34v-157H6v-33h28c-9-59 32-81 87-68v32" id="n"/><path fill="#fff" d="M133-34C117-15 103 5 69 4 32 3 11-16 11-54c-1-60 55-63 116-61 1-26-3-47-28-47-18 1-26 9-28 27l-52-2c7-38 36-58 82-57s74 22 75 68l1 82c-1 14 12 18 25 15v27c-30 8-71 5-69-32zm-48 3c29 0 43-24 42-57-32 0-66-3-65 30 0 17 8 27 23 27" id="o"/><path fill="#fff" d="M190-63c-7 42-38 67-86 67-59 0-84-38-90-98-12-110 154-137 174-36l-49 2c-2-19-15-32-35-32-30 0-35 28-38 64-6 74 65 87 74 30" id="p"/><path fill="#fff" d="M15-22v-40l146-57-146-57v-40l181 69v56" id="q"/><g id="a"><use transform="matrix(0.05,0,0,0.05,0,0)" xlink:href="#h"/><use transform="matrix(0.05,0,0,0.05,10.5,0)" xlink:href="#h"/><use transform="matrix(0.05,0,0,0.05,21,0)" xlink:href="#i"/><use transform="matrix(0.05,0,0,0.05,26,0)" xlink:href="#j"/><use transform="matrix(0.05,0,0,0.05,36.95,0)" xlink:href="#k"/><use transform="matrix(0.05,0,0,0.05,42.900000000000006,0)" xlink:href="#l"/><use transform="matrix(0.05,0,0,0.05,52.900000000000006,0)" xlink:href="#m"/><use transform="matrix(0.05,0,0,0.05,59.900000000000006,0)" xlink:href="#n"/><use transform="matrix(0.05,0,0,0.05,65.85000000000001,0)" xlink:href="#o"/><use transform="matrix(0.05,0,0,0.05,75.85000000000001,0)" xlink:href="#p"/><use transform="matrix(0.05,0,0,0.05,85.85000000000001,0)" xlink:href="#l"/><use transform="matrix(0.05,0,0,0.05,95.85000000000001,0)" xlink:href="#q"/><use transform="matrix(0.05,0,0,0.05,106.35000000000001,0)" xlink:href="#q"/></g><path fill="#fff" d="M240-174c0 40-23 61-54 70L253 0h-59l-57-94H76V0H24v-248c93 4 217-23 216 74zM76-134c48-2 112 12 112-38 0-48-66-32-112-35v73" id="r"/><path fill="#fff" d="M85 4C-2 5 27-109 22-190h50c7 57-23 150 33 157 60-5 35-97 40-157h50l1 190h-47c-2-12 1-28-3-38-12 25-28 42-61 42" id="s"/><path fill="#fff" d="M135-194c52 0 70 43 70 98 0 56-19 99-73 100-30 1-46-15-58-35L72 0H24l1-261h50v104c11-23 29-37 60-37zM114-30c31 0 40-27 40-66 0-37-7-63-39-63s-41 28-41 65c0 36 8 64 40 64" id="t"/><path fill="#fff" d="M25 0v-261h50V0H25" id="u"/><g id="b"><use transform="matrix(0.05,0,0,0.05,0,0)" xlink:href="#r"/><use transform="matrix(0.05,0,0,0.05,12.950000000000001,0)" xlink:href="#s"/><use transform="matrix(0.05,0,0,0.05,23.900000000000002,0)" xlink:href="#j"/><use transform="matrix(0.05,0,0,0.05,34.85,0)" xlink:href="#j"/><use transform="matrix(0.05,0,0,0.05,45.800000000000004,0)" xlink:href="#o"/><use transform="matrix(0.05,0,0,0.05,55.800000000000004,0)" xlink:href="#t"/><use transform="matrix(0.05,0,0,0.05,66.75,0)" xlink:href="#u"/><use transform="matrix(0.05,0,0,0.05,71.75,0)" xlink:href="#l"/></g><path fill="#fff" d="M118-107v75H92v-75H18v-26h74v-75h26v75h74v26h-74" id="v"/><use transform="matrix(0.06172839506172839,0,0,0.06172839506172839,0,0)" xlink:href="#v" id="c"/><path fill="#fff" d="M114-163C36-179 61-72 57 0H25l-1-190h30c1 12-1 29 2 39 6-27 23-49 58-41v29" id="w"/><path fill="#fff" d="M84 4C-5 8 30-112 23-190h32v120c0 31 7 50 39 49 72-2 45-101 50-169h31l1 190h-30c-1-10 1-25-2-33-11 22-28 36-60 37" id="x"/><path fill="#fff" d="M117-194c89-4 53 116 60 194h-32v-121c0-31-8-49-39-48C34-167 62-67 57 0H25l-1-190h30c1 10-1 24 2 32 11-22 29-35 61-36" id="y"/><path fill="#fff" d="M87 75C49 33 22-17 22-94c0-76 28-126 65-167h31c-38 41-64 92-64 168S80 34 118 75H87" id="z"/><path fill="#fff" d="M33-261c38 41 65 92 65 168S71 34 33 75H2C39 34 66-17 66-93S39-220 2-261h31" id="A"/><g id="d"><use transform="matrix(0.06172839506172839,0,0,0.06172839506172839,0,0)" xlink:href="#w"/><use transform="matrix(0.06172839506172839,0,0,0.06172839506172839,7.345679012345679,0)" xlink:href="#x"/><use transform="matrix(0.06172839506172839,0,0,0.06172839506172839,19.691358024691358,0)" xlink:href="#y"/><use transform="matrix(0.06172839506172839,0,0,0.06172839506172839,32.03703703703704,0)" xlink:href="#z"/><use transform="matrix(0.06172839506172839,0,0,0.06172839506172839,39.382716049382715,0)" xlink:href="#A"/></g><path fill="#fff" d="M33-154v-36h34v36H33zM33 0v-36h34V0H33" id="B"/><use transform="matrix(0.06172839506172839,0,0,0.06172839506172839,0,0)" xlink:href="#B" id="e"/><path fill="#fff" d="M108 0H70L1-190h34L89-25l56-165h34" id="C"/><path fill="#fff" d="M100-194c62-1 85 37 85 99 1 63-27 99-86 99S16-35 15-95c0-66 28-99 85-99zM99-20c44 1 53-31 53-75 0-43-8-75-51-75s-53 32-53 75 10 74 51 75" id="D"/><path fill="#fff" d="M24-231v-30h32v30H24zM24 0v-190h32V0H24" id="E"/><path fill="#fff" d="M85-194c31 0 48 13 60 33l-1-100h32l1 261h-30c-2-10 0-23-3-31C134-8 116 4 85 4 32 4 16-35 15-94c0-66 23-100 70-100zm9 24c-40 0-46 34-46 75 0 40 6 74 45 74 42 0 51-32 51-76 0-42-9-74-50-73" id="F"/><g id="f"><use transform="matrix(0.06172839506172839,0,0,0.06172839506172839,0,0)" xlink:href="#C"/><use transform="matrix(0.06172839506172839,0,0,0.06172839506172839,11.11111111111111,0)" xlink:href="#D"/><use transform="matrix(0.06172839506172839,0,0,0.06172839506172839,23.45679012345679,0)" xlink:href="#E"/><use transform="matrix(0.06172839506172839,0,0,0.06172839506172839,28.333333333333336,0)" xlink:href="#F"/></g><path fill="#fff" d="M212-179c-10-28-35-45-73-45-59 0-87 40-87 99 0 60 29 101 89 101 43 0 62-24 78-52l27 14C228-24 195 4 139 4 59 4 22-46 18-125c-6-104 99-153 187-111 19 9 31 26 39 46" id="G"/><path fill="#fff" d="M24 0v-261h32V0H24" id="H"/><path fill="#fff" d="M96-169c-40 0-48 33-48 73s9 75 48 75c24 0 41-14 43-38l32 2c-6 37-31 61-74 61-59 0-76-41-82-99-10-93 101-131 147-64 4 7 5 14 7 22l-32 3c-4-21-16-35-41-35" id="I"/><path fill="#fff" d="M143 0L79-87 56-68V0H24v-261h32v163l83-92h37l-77 82L181 0h-38" id="J"/><g id="g"><use transform="matrix(0.06172839506172839,0,0,0.06172839506172839,0,0)" xlink:href="#G"/><use transform="matrix(0.06172839506172839,0,0,0.06172839506172839,15.987654320987653,0)" xlink:href="#H"/><use transform="matrix(0.06172839506172839,0,0,0.06172839506172839,20.864197530864196,0)" xlink:href="#D"/><use transform="matrix(0.06172839506172839,0,0,0.06172839506172839,33.20987654320987,0)" xlink:href="#I"/><use transform="matrix(0.06172839506172839,0,0,0.06172839506172839,44.32098765432099,0)" xlink:href="#J"/></g></defs></g></svg>