<svg version="1.1" xmlns="http://www.w3.org/2000/svg" xmlns:xlink="http://www.w3.org/1999/xlink" width="453.57080078125" height="346"><defs/><g><g transform="translate(-122,-54) scale(1,1)"><rect fill="#C0C0C0" stroke="none" x="139" y="340" width="89.57080078125" height="57" opacity="0.2"/></g><g transform="translate(-122,-54) scale(1,1)"><rect fill="#ffffff" stroke="none" x="132" y="333" width="89.57080078125" height="57"/></g><g transform="translate(-122,-54) scale(1,1)"><path fill="none" stroke="#000000" d="M 132 333 L 221.57080078125 333 L 221.57080078125 390 L 132 390 L 132 333 Z Z" stroke-miterlimit="10"/></g><g transform="translate(-122,-54) scale(1,1)"><path fill="none" stroke="#000000" d="M 132 358 L 221.57080078125 358" stroke-miterlimit="10"/></g><g transform="translate(-122,-54) scale(1,1)"><path fill="none" stroke="#000000" d="M 132 368 L 221.57080078125 368" stroke-miterlimit="10"/></g><g transform="translate(-122,-54) scale(1,1)"><g><path fill="none" stroke="none"/><text fill="#000000" stroke="none" font-family="Arial" font-size="13px" font-style="normal" font-weight="bold" text-decoration="none" x="141.371826171875" y="352.5">HouseBlend</text></g></g><g transform="translate(-122,-54) scale(1,1)"><g><path fill="none" stroke="none"/><text fill="#000000" stroke="none" font-family="Arial" font-size="13px" font-style="normal" font-weight="normal" text-decoration="none" x="137" y="385.5">+cost()</text></g></g><g transform="translate(-122,-54) scale(1,1)"><rect fill="#C0C0C0" stroke="none" x="259" y="340" width="89.57080078125" height="57" opacity="0.2"/></g><g transform="translate(-122,-54) scale(1,1)"><rect fill="#ffffff" stroke="none" x="252" y="333" width="89.57080078125" height="57"/></g><g transform="translate(-122,-54) scale(1,1)"><path fill="none" stroke="#000000" d="M 252 333 L 341.57080078125 333 L 341.57080078125 390 L 252 390 L 252 333 Z Z" stroke-miterlimit="10"/></g><g transform="translate(-122,-54) scale(1,1)"><path fill="none" stroke="#000000" d="M 252 358 L 341.57080078125 358" stroke-miterlimit="10"/></g><g transform="translate(-122,-54) scale(1,1)"><path fill="none" stroke="#000000" d="M 252 368 L 341.57080078125 368" stroke-miterlimit="10"/></g><g transform="translate(-122,-54) scale(1,1)"><g><path fill="none" stroke="none"/><text fill="#000000" stroke="none" font-family="Arial" font-size="13px" font-style="normal" font-weight="bold" text-decoration="none" x="266.081787109375" y="352.5">DarkRoast</text></g></g><g transform="translate(-122,-54) scale(1,1)"><g><path fill="none" stroke="none"/><text fill="#000000" stroke="none" font-family="Arial" font-size="13px" font-style="normal" font-weight="normal" text-decoration="none" x="257" y="385.5">+cost()</text></g></g><g transform="translate(-122,-54) scale(1,1)"><rect fill="#C0C0C0" stroke="none" x="371" y="340" width="89.57080078125" height="57" opacity="0.2"/></g><g transform="translate(-122,-54) scale(1,1)"><rect fill="#ffffff" stroke="none" x="364" y="333" width="89.57080078125" height="57"/></g><g transform="translate(-122,-54) scale(1,1)"><path fill="none" stroke="#000000" d="M 364 333 L 453.57080078125 333 L 453.57080078125 390 L 364 390 L 364 333 Z Z" stroke-miterlimit="10"/></g><g transform="translate(-122,-54) scale(1,1)"><path fill="none" stroke="#000000" d="M 364 358 L 453.57080078125 358" stroke-miterlimit="10"/></g><g transform="translate(-122,-54) scale(1,1)"><path fill="none" stroke="#000000" d="M 364 368 L 453.57080078125 368" stroke-miterlimit="10"/></g><g transform="translate(-122,-54) scale(1,1)"><g><path fill="none" stroke="none"/><text fill="#000000" stroke="none" font-family="Arial" font-size="13px" font-style="normal" font-weight="bold" text-decoration="none" x="381.6904296875" y="352.5">Espresso</text></g></g><g transform="translate(-122,-54) scale(1,1)"><g><path fill="none" stroke="none"/><text fill="#000000" stroke="none" font-family="Arial" font-size="13px" font-style="normal" font-weight="normal" text-decoration="none" x="369" y="385.5">+cost()</text></g></g><g transform="translate(-122,-54) scale(1,1)"><rect fill="#C0C0C0" stroke="none" x="483" y="340" width="89.57080078125" height="57" opacity="0.2"/></g><g transform="translate(-122,-54) scale(1,1)"><rect fill="#ffffff" stroke="none" x="476" y="333" width="89.57080078125" height="57"/></g><g transform="translate(-122,-54) scale(1,1)"><path fill="none" stroke="#000000" d="M 476 333 L 565.57080078125 333 L 565.57080078125 390 L 476 390 L 476 333 Z Z" stroke-miterlimit="10"/></g><g transform="translate(-122,-54) scale(1,1)"><path fill="none" stroke="#000000" d="M 476 358 L 565.57080078125 358" stroke-miterlimit="10"/></g><g transform="translate(-122,-54) scale(1,1)"><path fill="none" stroke="#000000" d="M 476 368 L 565.57080078125 368" stroke-miterlimit="10"/></g><g transform="translate(-122,-54) scale(1,1)"><g><path fill="none" stroke="none"/><text fill="#000000" stroke="none" font-family="Arial" font-size="13px" font-style="normal" font-weight="bold" text-decoration="none" x="503.805419921875" y="352.5">Decaf</text></g></g><g transform="translate(-122,-54) scale(1,1)"><g><path fill="none" stroke="none"/><text fill="#000000" stroke="none" font-family="Arial" font-size="13px" font-style="normal" font-weight="normal" text-decoration="none" x="481" y="385.5">+cost()</text></g></g><g transform="translate(-122,-54) scale(1,1)"><rect fill="#C0C0C0" stroke="none" x="311" y="71" width="108.34716796875" height="205" opacity="0.2"/></g><g transform="translate(-122,-54) scale(1,1)"><rect fill="#ffffff" stroke="none" x="304" y="64" width="108.34716796875" height="205"/></g><g transform="translate(-122,-54) scale(1,1)"><path fill="none" stroke="#000000" d="M 304 64 L 412.34716796875 64 L 412.34716796875 269 L 304 269 L 304 64 Z Z" stroke-miterlimit="10"/></g><g transform="translate(-122,-54) scale(1,1)"><path fill="none" stroke="#000000" d="M 304 89 L 412.34716796875 89" stroke-miterlimit="10"/></g><g transform="translate(-122,-54) scale(1,1)"><path fill="none" stroke="#000000" d="M 304 172 L 412.34716796875 172" stroke-miterlimit="10"/></g><g transform="translate(-122,-54) scale(1,1)"><g><path fill="none" stroke="none"/><text fill="#000000" stroke="none" font-family="Arial" font-size="13px" font-style="italic" font-weight="bold" text-decoration="none" x="330.3486328125" y="83.5">Beverage</text></g></g><g transform="translate(-122,-54) scale(1,1)"><g><path fill="none" stroke="none"/><text fill="#000000" stroke="none" font-family="Arial" font-size="13px" font-style="normal" font-weight="normal" text-decoration="none" x="309" y="106.5">+description</text></g></g><g transform="translate(-122,-54) scale(1,1)"><g><path fill="none" stroke="none"/><text fill="#000000" stroke="none" font-family="Arial" font-size="13px" font-style="normal" font-weight="normal" text-decoration="none" x="309" y="121.5">+milk</text></g></g><g transform="translate(-122,-54) scale(1,1)"><g><path fill="none" stroke="none"/><text fill="#000000" stroke="none" font-family="Arial" font-size="13px" font-style="normal" font-weight="normal" text-decoration="none" x="309" y="136.5">+soy</text></g></g><g transform="translate(-122,-54) scale(1,1)"><g><path fill="none" stroke="none"/><text fill="#000000" stroke="none" font-family="Arial" font-size="13px" font-style="normal" font-weight="normal" text-decoration="none" x="309" y="151.5">+mocha</text></g></g><g transform="translate(-122,-54) scale(1,1)"><g><path fill="none" stroke="none"/><text fill="#000000" stroke="none" font-family="Arial" font-size="13px" font-style="normal" font-weight="normal" text-decoration="none" x="309" y="166.5">+whip</text></g></g><g transform="translate(-122,-54) scale(1,1)"><g><path fill="none" stroke="none"/><text fill="#000000" stroke="none" font-family="Arial" font-size="13px" font-style="normal" font-weight="normal" text-decoration="none" x="309" y="189.5">+getDescription()</text></g></g><g transform="translate(-122,-54) scale(1,1)"><g><path fill="none" stroke="none"/><text fill="#000000" stroke="none" font-family="Arial" font-size="13px" font-style="normal" font-weight="normal" text-decoration="none" x="309" y="204.5">+hasMilk()</text></g></g><g transform="translate(-122,-54) scale(1,1)"><g><path fill="none" stroke="none"/><text fill="#000000" stroke="none" font-family="Arial" font-size="13px" font-style="normal" font-weight="normal" text-decoration="none" x="309" y="219.5">+setMilk()</text></g></g><g transform="translate(-122,-54) scale(1,1)"><g><path fill="none" stroke="none"/><text fill="#000000" stroke="none" font-family="Arial" font-size="13px" font-style="normal" font-weight="normal" text-decoration="none" x="309" y="234.5">+hasSoy()</text></g></g><g transform="translate(-122,-54) scale(1,1)"><g><path fill="none" stroke="none"/><text fill="#000000" stroke="none" font-family="Arial" font-size="13px" font-style="normal" font-weight="normal" text-decoration="none" x="309" y="249.5">+...()</text></g></g><g transform="translate(-122,-54) scale(1,1)"><g><path fill="none" stroke="none"/><text fill="#000000" stroke="none" font-family="Arial" font-size="13px" font-style="italic" font-weight="normal" text-decoration="none" x="309" y="264.5">+cost()</text></g></g><g transform="translate(-122,-54) scale(1,1)"><path fill="none" stroke="#000000" d="M 203 332 L 303 225" stroke-miterlimit="10"/></g><g transform="translate(-122,-54) scale(1,1)"><path fill="#FFFFFF" stroke="none" d="M 295.2727121646104 245.5982771781778 L 303 225 L 282.9708008979661 234.10116384486534"/></g><g transform="translate(-122,-54) scale(1,1)"><path fill="none" stroke="#000000" d="M 295.2727121646104 245.5982771781778 L 303 225 L 282.9708008979661 234.10116384486534 L 295.2727121646104 245.5982771781778" stroke-miterlimit="10"/></g><g transform="translate(-122,-54) scale(1,1)"><path fill="none" stroke="#000000" d="M 305 332 L 325 270" stroke-miterlimit="10"/></g><g transform="translate(-122,-54) scale(1,1)"><path fill="#FFFFFF" stroke="none" d="M 326.7725297845495 291.928477789461 L 325 270 L 310.74759248448356 286.75914317653655"/></g><g transform="translate(-122,-54) scale(1,1)"><path fill="none" stroke="#000000" d="M 326.7725297845495 291.928477789461 L 325 270 L 310.74759248448356 286.75914317653655 L 326.7725297845495 291.928477789461" stroke-miterlimit="10"/></g><g transform="translate(-122,-54) scale(1,1)"><path fill="none" stroke="#000000" d="M 401 332 L 385 270" stroke-miterlimit="10"/></g><g transform="translate(-122,-54) scale(1,1)"><path fill="#FFFFFF" stroke="none" d="M 398.2308192965753 287.5768433099169 L 385 270 L 381.9268969489666 291.78430714155786"/></g><g transform="translate(-122,-54) scale(1,1)"><path fill="none" stroke="#000000" d="M 398.2308192965753 287.5768433099169 L 385 270 L 381.9268969489666 291.78430714155786 L 398.2308192965753 287.5768433099169" stroke-miterlimit="10"/></g><g transform="translate(-122,-54) scale(1,1)"><path fill="none" stroke="#000000" d="M 496 332 L 413 233" stroke-miterlimit="10"/></g><g transform="translate(-122,-54) scale(1,1)"><path fill="#FFFFFF" stroke="none" d="M 432.50996809431814 243.16666833130148 L 413 233 L 419.60671062108776 253.98455085936334"/></g><g transform="translate(-122,-54) scale(1,1)"><path fill="none" stroke="#000000" d="M 432.50996809431814 243.16666833130148 L 413 233 L 419.60671062108776 253.98455085936334 L 432.50996809431814 243.16666833130148" stroke-miterlimit="10"/></g></g></svg>