<svg version="1.1" xmlns="http://www.w3.org/2000/svg" xmlns:xlink="http://www.w3.org/1999/xlink" width="373.57080078125" height="289"><defs/><g><g transform="translate(-86,-126) scale(1,1)"><rect fill="#C0C0C0" stroke="none" x="103" y="143" width="122.05810546875" height="100" opacity="0.2"/></g><g transform="translate(-86,-126) scale(1,1)"><rect fill="#ffffff" stroke="none" x="96" y="136" width="122.05810546875" height="100"/></g><g transform="translate(-86,-126) scale(1,1)"><path fill="none" stroke="#000000" d="M 96 136 L 218.05810546875 136 L 218.05810546875 236 L 96 236 L 96 136 Z Z" stroke-miterlimit="10"/></g><g transform="translate(-86,-126) scale(1,1)"><path fill="none" stroke="#000000" d="M 96 174 L 218.05810546875 174" stroke-miterlimit="10"/></g><g transform="translate(-86,-126) scale(1,1)"><path fill="none" stroke="#000000" d="M 96 184 L 218.05810546875 184" stroke-miterlimit="10"/></g><g transform="translate(-86,-126) scale(1,1)"><g><path fill="none" stroke="none"/><text fill="#000000" stroke="none" font-family="Arial" font-size="13px" font-style="normal" font-weight="normal" text-decoration="none" x="124.86865234375" y="153.5">«interface»</text></g></g><g transform="translate(-86,-126) scale(1,1)"><g><path fill="none" stroke="none"/><text fill="#000000" stroke="none" font-family="Arial" font-size="13px" font-style="normal" font-weight="bold" text-decoration="none" x="135.3486328125" y="168.5">Subject</text></g></g><g transform="translate(-86,-126) scale(1,1)"><g><path fill="none" stroke="none"/><text fill="#000000" stroke="none" font-family="Arial" font-size="13px" font-style="normal" font-weight="normal" text-decoration="none" x="101" y="201.5">+registerObserver()</text></g></g><g transform="translate(-86,-126) scale(1,1)"><g><path fill="none" stroke="none"/><text fill="#000000" stroke="none" font-family="Arial" font-size="13px" font-style="normal" font-weight="normal" text-decoration="none" x="101" y="216.5">+removeObserver()</text></g></g><g transform="translate(-86,-126) scale(1,1)"><g><path fill="none" stroke="none"/><text fill="#000000" stroke="none" font-family="Arial" font-size="13px" font-style="normal" font-weight="normal" text-decoration="none" x="101" y="231.5">+notifyObserver()</text></g></g><g transform="translate(-86,-126) scale(1,1)"><rect fill="#C0C0C0" stroke="none" x="367" y="143" width="89.57080078125" height="70" opacity="0.2"/></g><g transform="translate(-86,-126) scale(1,1)"><rect fill="#ffffff" stroke="none" x="360" y="136" width="89.57080078125" height="70"/></g><g transform="translate(-86,-126) scale(1,1)"><path fill="none" stroke="#000000" d="M 360 136 L 449.57080078125 136 L 449.57080078125 206 L 360 206 L 360 136 Z Z" stroke-miterlimit="10"/></g><g transform="translate(-86,-126) scale(1,1)"><path fill="none" stroke="#000000" d="M 360 174 L 449.57080078125 174" stroke-miterlimit="10"/></g><g transform="translate(-86,-126) scale(1,1)"><path fill="none" stroke="#000000" d="M 360 184 L 449.57080078125 184" stroke-miterlimit="10"/></g><g transform="translate(-86,-126) scale(1,1)"><g><path fill="none" stroke="none"/><text fill="#000000" stroke="none" font-family="Arial" font-size="13px" font-style="normal" font-weight="normal" text-decoration="none" x="372.625" y="153.5">«interface»</text></g></g><g transform="translate(-86,-126) scale(1,1)"><g><path fill="none" stroke="none"/><text fill="#000000" stroke="none" font-family="Arial" font-size="13px" font-style="normal" font-weight="bold" text-decoration="none" x="378.055419921875" y="168.5">Observer</text></g></g><g transform="translate(-86,-126) scale(1,1)"><g><path fill="none" stroke="none"/><text fill="#000000" stroke="none" font-family="Arial" font-size="13px" font-style="normal" font-weight="normal" text-decoration="none" x="365" y="201.5">+update()</text></g></g><g transform="translate(-86,-126) scale(1,1)"><rect fill="#C0C0C0" stroke="none" x="103" y="327" width="112.3017578125" height="85" opacity="0.2"/></g><g transform="translate(-86,-126) scale(1,1)"><rect fill="#ffffff" stroke="none" x="96" y="320" width="112.3017578125" height="85"/></g><g transform="translate(-86,-126) scale(1,1)"><path fill="none" stroke="#000000" d="M 96 320 L 208.3017578125 320 L 208.3017578125 405 L 96 405 L 96 320 Z Z" stroke-miterlimit="10"/></g><g transform="translate(-86,-126) scale(1,1)"><path fill="none" stroke="#000000" d="M 96 345 L 208.3017578125 345" stroke-miterlimit="10"/></g><g transform="translate(-86,-126) scale(1,1)"><path fill="none" stroke="#000000" d="M 96 368 L 208.3017578125 368" stroke-miterlimit="10"/></g><g transform="translate(-86,-126) scale(1,1)"><g><path fill="none" stroke="none"/><text fill="#000000" stroke="none" font-family="Arial" font-size="13px" font-style="normal" font-weight="bold" text-decoration="none" x="104.095947265625" y="339.5">ConcreteSubject</text></g></g><g transform="translate(-86,-126) scale(1,1)"><g><path fill="none" stroke="none"/><text fill="#000000" stroke="none" font-family="Arial" font-size="13px" font-style="normal" font-weight="normal" text-decoration="none" x="101" y="362.5">+state</text></g></g><g transform="translate(-86,-126) scale(1,1)"><g><path fill="none" stroke="none"/><text fill="#000000" stroke="none" font-family="Arial" font-size="13px" font-style="normal" font-weight="normal" text-decoration="none" x="101" y="385.5">+getState()</text></g></g><g transform="translate(-86,-126) scale(1,1)"><g><path fill="none" stroke="none"/><text fill="#000000" stroke="none" font-family="Arial" font-size="13px" font-style="normal" font-weight="normal" text-decoration="none" x="101" y="400.5">+setState()</text></g></g><g transform="translate(-86,-126) scale(1,1)"><rect fill="#C0C0C0" stroke="none" x="383" y="327" width="66.0908203125" height="44" opacity="0.2"/></g><g transform="translate(-86,-126) scale(1,1)"><rect fill="#ffffff" stroke="none" x="376" y="320" width="66.0908203125" height="44"/></g><g transform="translate(-86,-126) scale(1,1)"><path fill="none" stroke="#000000" d="M 376 320 L 442.0908203125 320 L 442.0908203125 364 L 376 364 L 376 320 Z Z" stroke-miterlimit="10"/></g><g transform="translate(-86,-126) scale(1,1)"><path fill="none" stroke="#000000" d="M 376 345 L 442.0908203125 345" stroke-miterlimit="10"/></g><g transform="translate(-86,-126) scale(1,1)"><path fill="none" stroke="#000000" d="M 376 355 L 442.0908203125 355" stroke-miterlimit="10"/></g><g transform="translate(-86,-126) scale(1,1)"><g><path fill="none" stroke="none"/><text fill="#000000" stroke="none" font-family="Arial" font-size="13px" font-style="normal" font-weight="bold" text-decoration="none" x="382.3154296875" y="339.5">Observer</text></g></g><g transform="translate(-86,-126) scale(1,1)"><path fill="none" stroke="#000000" d="M 405 320 L 405 206" stroke-miterlimit="10" stroke-dasharray="3"/></g><g transform="translate(-86,-126) scale(1,1)"><path fill="#FFFFFF" stroke="none" d="M 413.419035512032 226.3253497152483 L 405 206 L 396.580964487968 226.3253497152483"/></g><g transform="translate(-86,-126) scale(1,1)"><path fill="none" stroke="#000000" d="M 413.419035512032 226.3253497152483 L 405 206 L 396.580964487968 226.3253497152483 L 413.419035512032 226.3253497152483" stroke-miterlimit="10"/></g><g transform="translate(-86,-126) scale(1,1)"><path fill="none" stroke="#000000" d="M 156 320 L 156 236" stroke-miterlimit="10" stroke-dasharray="3"/></g><g transform="translate(-86,-126) scale(1,1)"><path fill="#FFFFFF" stroke="none" d="M 164.41903551203197 256.3253497152483 L 156 236 L 147.58096448796803 256.3253497152483"/></g><g transform="translate(-86,-126) scale(1,1)"><path fill="none" stroke="#000000" d="M 164.41903551203197 256.3253497152483 L 156 236 L 147.58096448796803 256.3253497152483 L 164.41903551203197 256.3253497152483" stroke-miterlimit="10"/></g><g transform="translate(-86,-126) scale(1,1)"><path fill="none" stroke="#000000" d="M 218 182 L 360 182" stroke-miterlimit="10"/></g><g transform="translate(-86,-126) scale(1,1)"><path fill="none" stroke="#000000" d="M 349.83732514237585 186.209517756016 L 360 182 L 349.83732514237585 177.790482243984" stroke-miterlimit="10"/></g><g transform="translate(-86,-126) scale(1,1)"><g><path fill="none" stroke="none"/><text fill="#000000" stroke="none" font-family="Arial" font-size="13px" font-style="normal" font-weight="normal" text-decoration="none" x="301.5" y="173.5">+observers</text></g></g><g transform="translate(-86,-126) scale(1,1)"><g><path fill="none" stroke="none"/><text fill="#000000" stroke="none" font-family="Arial" font-size="13px" font-style="normal" font-weight="normal" text-decoration="none" x="335.5" y="200.5">*</text></g></g><g transform="translate(-86,-126) scale(1,1)"><path fill="none" stroke="#000000" d="M 376 358 L 208 358" stroke-miterlimit="10"/></g><g transform="translate(-86,-126) scale(1,1)"><path fill="none" stroke="#000000" d="M 218.16267485762415 353.790482243984 L 208 358 L 218.16267485762415 362.209517756016" stroke-miterlimit="10"/></g><g transform="translate(-86,-126) scale(1,1)"><g><path fill="none" stroke="none"/><text fill="#000000" stroke="none" font-family="Arial" font-size="13px" font-style="normal" font-weight="normal" text-decoration="none" x="208.5" y="378.5">+subject</text></g></g></g></svg>