<svg version="1.1" xmlns="http://www.w3.org/2000/svg" xmlns:xlink="http://www.w3.org/1999/xlink" width="453.57080078125" height="237"><defs/><g><g transform="translate(-78,-134) scale(1,1)"><rect fill="#C0C0C0" stroke="none" x="263" y="151" width="108.34716796875" height="100" opacity="0.2"/></g><g transform="translate(-78,-134) scale(1,1)"><rect fill="#ffffff" stroke="none" x="256" y="144" width="108.34716796875" height="100"/></g><g transform="translate(-78,-134) scale(1,1)"><path fill="none" stroke="#000000" d="M 256 144 L 364.34716796875 144 L 364.34716796875 244 L 256 244 L 256 144 Z Z" stroke-miterlimit="10"/></g><g transform="translate(-78,-134) scale(1,1)"><path fill="none" stroke="#000000" d="M 256 169 L 364.34716796875 169" stroke-miterlimit="10"/></g><g transform="translate(-78,-134) scale(1,1)"><path fill="none" stroke="#000000" d="M 256 192 L 364.34716796875 192" stroke-miterlimit="10"/></g><g transform="translate(-78,-134) scale(1,1)"><g><path fill="none" stroke="none"/><text fill="#000000" stroke="none" font-family="Arial" font-size="13px" font-style="italic" font-weight="bold" text-decoration="none" x="282.3486328125" y="163.5">Beverage</text></g></g><g transform="translate(-78,-134) scale(1,1)"><g><path fill="none" stroke="none"/><text fill="#000000" stroke="none" font-family="Arial" font-size="13px" font-style="normal" font-weight="normal" text-decoration="none" x="261" y="186.5">+description</text></g></g><g transform="translate(-78,-134) scale(1,1)"><g><path fill="none" stroke="none"/><text fill="#000000" stroke="none" font-family="Arial" font-size="13px" font-style="normal" font-weight="normal" text-decoration="none" x="261" y="209.5">+getDescription()</text></g></g><g transform="translate(-78,-134) scale(1,1)"><g><path fill="none" stroke="none"/><text fill="#000000" stroke="none" font-family="Arial" font-size="13px" font-style="italic" font-weight="normal" text-decoration="none" x="261" y="224.5">+cost()</text></g></g><g transform="translate(-78,-134) scale(1,1)"><rect fill="#C0C0C0" stroke="none" x="95" y="311" width="89.57080078125" height="57" opacity="0.2"/></g><g transform="translate(-78,-134) scale(1,1)"><rect fill="#ffffff" stroke="none" x="88" y="304" width="89.57080078125" height="57"/></g><g transform="translate(-78,-134) scale(1,1)"><path fill="none" stroke="#000000" d="M 88 304 L 177.57080078125 304 L 177.57080078125 361 L 88 361 L 88 304 Z Z" stroke-miterlimit="10"/></g><g transform="translate(-78,-134) scale(1,1)"><path fill="none" stroke="#000000" d="M 88 329 L 177.57080078125 329" stroke-miterlimit="10"/></g><g transform="translate(-78,-134) scale(1,1)"><path fill="none" stroke="#000000" d="M 88 339 L 177.57080078125 339" stroke-miterlimit="10"/></g><g transform="translate(-78,-134) scale(1,1)"><g><path fill="none" stroke="none"/><text fill="#000000" stroke="none" font-family="Arial" font-size="13px" font-style="normal" font-weight="bold" text-decoration="none" x="97.371826171875" y="323.5">HouseBlend</text></g></g><g transform="translate(-78,-134) scale(1,1)"><g><path fill="none" stroke="none"/><text fill="#000000" stroke="none" font-family="Arial" font-size="13px" font-style="normal" font-weight="normal" text-decoration="none" x="93" y="356.5">+cost()</text></g></g><g transform="translate(-78,-134) scale(1,1)"><rect fill="#C0C0C0" stroke="none" x="215" y="311" width="89.57080078125" height="57" opacity="0.2"/></g><g transform="translate(-78,-134) scale(1,1)"><rect fill="#ffffff" stroke="none" x="208" y="304" width="89.57080078125" height="57"/></g><g transform="translate(-78,-134) scale(1,1)"><path fill="none" stroke="#000000" d="M 208 304 L 297.57080078125 304 L 297.57080078125 361 L 208 361 L 208 304 Z Z" stroke-miterlimit="10"/></g><g transform="translate(-78,-134) scale(1,1)"><path fill="none" stroke="#000000" d="M 208 329 L 297.57080078125 329" stroke-miterlimit="10"/></g><g transform="translate(-78,-134) scale(1,1)"><path fill="none" stroke="#000000" d="M 208 339 L 297.57080078125 339" stroke-miterlimit="10"/></g><g transform="translate(-78,-134) scale(1,1)"><g><path fill="none" stroke="none"/><text fill="#000000" stroke="none" font-family="Arial" font-size="13px" font-style="normal" font-weight="bold" text-decoration="none" x="222.081787109375" y="323.5">DarkRoast</text></g></g><g transform="translate(-78,-134) scale(1,1)"><g><path fill="none" stroke="none"/><text fill="#000000" stroke="none" font-family="Arial" font-size="13px" font-style="normal" font-weight="normal" text-decoration="none" x="213" y="356.5">+cost()</text></g></g><g transform="translate(-78,-134) scale(1,1)"><rect fill="#C0C0C0" stroke="none" x="327" y="311" width="89.57080078125" height="57" opacity="0.2"/></g><g transform="translate(-78,-134) scale(1,1)"><rect fill="#ffffff" stroke="none" x="320" y="304" width="89.57080078125" height="57"/></g><g transform="translate(-78,-134) scale(1,1)"><path fill="none" stroke="#000000" d="M 320 304 L 409.57080078125 304 L 409.57080078125 361 L 320 361 L 320 304 Z Z" stroke-miterlimit="10"/></g><g transform="translate(-78,-134) scale(1,1)"><path fill="none" stroke="#000000" d="M 320 329 L 409.57080078125 329" stroke-miterlimit="10"/></g><g transform="translate(-78,-134) scale(1,1)"><path fill="none" stroke="#000000" d="M 320 339 L 409.57080078125 339" stroke-miterlimit="10"/></g><g transform="translate(-78,-134) scale(1,1)"><g><path fill="none" stroke="none"/><text fill="#000000" stroke="none" font-family="Arial" font-size="13px" font-style="normal" font-weight="bold" text-decoration="none" x="337.6904296875" y="323.5">Espresso</text></g></g><g transform="translate(-78,-134) scale(1,1)"><g><path fill="none" stroke="none"/><text fill="#000000" stroke="none" font-family="Arial" font-size="13px" font-style="normal" font-weight="normal" text-decoration="none" x="325" y="356.5">+cost()</text></g></g><g transform="translate(-78,-134) scale(1,1)"><rect fill="#C0C0C0" stroke="none" x="439" y="311" width="89.57080078125" height="57" opacity="0.2"/></g><g transform="translate(-78,-134) scale(1,1)"><rect fill="#ffffff" stroke="none" x="432" y="304" width="89.57080078125" height="57"/></g><g transform="translate(-78,-134) scale(1,1)"><path fill="none" stroke="#000000" d="M 432 304 L 521.57080078125 304 L 521.57080078125 361 L 432 361 L 432 304 Z Z" stroke-miterlimit="10"/></g><g transform="translate(-78,-134) scale(1,1)"><path fill="none" stroke="#000000" d="M 432 329 L 521.57080078125 329" stroke-miterlimit="10"/></g><g transform="translate(-78,-134) scale(1,1)"><path fill="none" stroke="#000000" d="M 432 339 L 521.57080078125 339" stroke-miterlimit="10"/></g><g transform="translate(-78,-134) scale(1,1)"><g><path fill="none" stroke="none"/><text fill="#000000" stroke="none" font-family="Arial" font-size="13px" font-style="normal" font-weight="bold" text-decoration="none" x="459.805419921875" y="323.5">Decaf</text></g></g><g transform="translate(-78,-134) scale(1,1)"><g><path fill="none" stroke="none"/><text fill="#000000" stroke="none" font-family="Arial" font-size="13px" font-style="normal" font-weight="normal" text-decoration="none" x="437" y="356.5">+cost()</text></g></g><g transform="translate(-78,-134) scale(1,1)"><path fill="none" stroke="#000000" d="M 136 304 L 136 274 L 310 274 L 310 244" stroke-miterlimit="10"/></g><g transform="translate(-78,-134) scale(1,1)"><path fill="#FFFFFF" stroke="none" d="M 318.419035512032 264.3253497152483 L 310 244 L 301.580964487968 264.3253497152483"/></g><g transform="translate(-78,-134) scale(1,1)"><path fill="none" stroke="#000000" d="M 318.419035512032 264.3253497152483 L 310 244 L 301.580964487968 264.3253497152483 L 318.419035512032 264.3253497152483" stroke-miterlimit="10"/></g><g transform="translate(-78,-134) scale(1,1)"><path fill="none" stroke="#000000" d="M 252 304 L 252 274 L 310 274 L 310 244" stroke-miterlimit="10"/></g><g transform="translate(-78,-134) scale(1,1)"><path fill="#FFFFFF" stroke="none" d="M 318.419035512032 264.3253497152483 L 310 244 L 301.580964487968 264.3253497152483"/></g><g transform="translate(-78,-134) scale(1,1)"><path fill="none" stroke="#000000" d="M 318.419035512032 264.3253497152483 L 310 244 L 301.580964487968 264.3253497152483 L 318.419035512032 264.3253497152483" stroke-miterlimit="10"/></g><g transform="translate(-78,-134) scale(1,1)"><path fill="none" stroke="#000000" d="M 364 304 L 364 274 L 310 274 L 310 244" stroke-miterlimit="10"/></g><g transform="translate(-78,-134) scale(1,1)"><path fill="#FFFFFF" stroke="none" d="M 318.419035512032 264.3253497152483 L 310 244 L 301.580964487968 264.3253497152483"/></g><g transform="translate(-78,-134) scale(1,1)"><path fill="none" stroke="#000000" d="M 318.419035512032 264.3253497152483 L 310 244 L 301.580964487968 264.3253497152483 L 318.419035512032 264.3253497152483" stroke-miterlimit="10"/></g><g transform="translate(-78,-134) scale(1,1)"><path fill="none" stroke="#000000" d="M 476 304 L 476 274 L 310 274 L 310 244" stroke-miterlimit="10"/></g><g transform="translate(-78,-134) scale(1,1)"><path fill="#FFFFFF" stroke="none" d="M 318.419035512032 264.3253497152483 L 310 244 L 301.580964487968 264.3253497152483"/></g><g transform="translate(-78,-134) scale(1,1)"><path fill="none" stroke="#000000" d="M 318.419035512032 264.3253497152483 L 310 244 L 301.580964487968 264.3253497152483 L 318.419035512032 264.3253497152483" stroke-miterlimit="10"/></g></g></svg>