<svg version="1.1" xmlns="http://www.w3.org/2000/svg" xmlns:xlink="http://www.w3.org/1999/xlink" width="388.1435546875" height="408"><defs/><g><g transform="translate(-118,-78) scale(1,1)"><rect fill="#C0C0C0" stroke="none" x="247" y="95" width="89.57080078125" height="72" opacity="0.2"/></g><g transform="translate(-118,-78) scale(1,1)"><rect fill="#ffffff" stroke="none" x="240" y="88" width="89.57080078125" height="72"/></g><g transform="translate(-118,-78) scale(1,1)"><path fill="none" stroke="#000000" d="M 240 88 L 329.57080078125 88 L 329.57080078125 160 L 240 160 L 240 88 Z Z" stroke-miterlimit="10"/></g><g transform="translate(-118,-78) scale(1,1)"><path fill="none" stroke="#000000" d="M 240 113 L 329.57080078125 113" stroke-miterlimit="10"/></g><g transform="translate(-118,-78) scale(1,1)"><path fill="none" stroke="#000000" d="M 240 123 L 329.57080078125 123" stroke-miterlimit="10"/></g><g transform="translate(-118,-78) scale(1,1)"><g><path fill="none" stroke="none"/><text fill="#000000" stroke="none" font-family="Arial" font-size="13px" font-style="normal" font-weight="bold" text-decoration="none" x="251.180908203125" y="107.5">Component</text></g></g><g transform="translate(-118,-78) scale(1,1)"><g><path fill="none" stroke="none"/><text fill="#000000" stroke="none" font-family="Arial" font-size="13px" font-style="normal" font-weight="normal" text-decoration="none" x="245" y="140.5">+methodA()</text></g></g><g transform="translate(-118,-78) scale(1,1)"><g><path fill="none" stroke="none"/><text fill="#000000" stroke="none" font-family="Arial" font-size="13px" font-style="normal" font-weight="normal" text-decoration="none" x="245" y="155.5">+methodB()</text></g></g><g transform="translate(-118,-78) scale(1,1)"><rect fill="#C0C0C0" stroke="none" x="135" y="239" width="137.55908203125" height="100" opacity="0.2"/></g><g transform="translate(-118,-78) scale(1,1)"><rect fill="#ffffff" stroke="none" x="128" y="232" width="137.55908203125" height="100"/></g><g transform="translate(-118,-78) scale(1,1)"><path fill="none" stroke="#000000" d="M 128 232 L 265.55908203125 232 L 265.55908203125 332 L 128 332 L 128 232 Z Z" stroke-miterlimit="10"/></g><g transform="translate(-118,-78) scale(1,1)"><path fill="none" stroke="#000000" d="M 128 257 L 265.55908203125 257" stroke-miterlimit="10"/></g><g transform="translate(-118,-78) scale(1,1)"><path fill="none" stroke="#000000" d="M 128 295 L 265.55908203125 295" stroke-miterlimit="10"/></g><g transform="translate(-118,-78) scale(1,1)"><g><path fill="none" stroke="none"/><text fill="#000000" stroke="none" font-family="Arial" font-size="13px" font-style="normal" font-weight="bold" text-decoration="none" x="136.800537109375" y="251.5">ConcreteComponent</text></g></g><g transform="translate(-118,-78) scale(1,1)"><g><path fill="none" stroke="none"/><text fill="#000000" stroke="none" font-family="Arial" font-size="13px" font-style="normal" font-weight="normal" text-decoration="none" x="133" y="274.5">+Attribute1</text></g></g><g transform="translate(-118,-78) scale(1,1)"><g><path fill="none" stroke="none"/><text fill="#000000" stroke="none" font-family="Arial" font-size="13px" font-style="normal" font-weight="normal" text-decoration="none" x="133" y="289.5">+Attribute2</text></g></g><g transform="translate(-118,-78) scale(1,1)"><g><path fill="none" stroke="none"/><text fill="#000000" stroke="none" font-family="Arial" font-size="13px" font-style="normal" font-weight="normal" text-decoration="none" x="133" y="312.5">+methodA()</text></g></g><g transform="translate(-118,-78) scale(1,1)"><g><path fill="none" stroke="none"/><text fill="#000000" stroke="none" font-family="Arial" font-size="13px" font-style="normal" font-weight="normal" text-decoration="none" x="133" y="327.5">+methodB()</text></g></g><g transform="translate(-118,-78) scale(1,1)"><rect fill="#C0C0C0" stroke="none" x="319" y="239" width="89.57080078125" height="72" opacity="0.2"/></g><g transform="translate(-118,-78) scale(1,1)"><rect fill="#ffffff" stroke="none" x="312" y="232" width="89.57080078125" height="72"/></g><g transform="translate(-118,-78) scale(1,1)"><path fill="none" stroke="#000000" d="M 312 232 L 401.57080078125 232 L 401.57080078125 304 L 312 304 L 312 232 Z Z" stroke-miterlimit="10"/></g><g transform="translate(-118,-78) scale(1,1)"><path fill="none" stroke="#000000" d="M 312 257 L 401.57080078125 257" stroke-miterlimit="10"/></g><g transform="translate(-118,-78) scale(1,1)"><path fill="none" stroke="#000000" d="M 312 267 L 401.57080078125 267" stroke-miterlimit="10"/></g><g transform="translate(-118,-78) scale(1,1)"><g><path fill="none" stroke="none"/><text fill="#000000" stroke="none" font-family="Arial" font-size="13px" font-style="normal" font-weight="bold" text-decoration="none" x="328.246337890625" y="251.5">Decorator</text></g></g><g transform="translate(-118,-78) scale(1,1)"><g><path fill="none" stroke="none"/><text fill="#000000" stroke="none" font-family="Arial" font-size="13px" font-style="normal" font-weight="normal" text-decoration="none" x="317" y="284.5">+methodA()</text></g></g><g transform="translate(-118,-78) scale(1,1)"><g><path fill="none" stroke="none"/><text fill="#000000" stroke="none" font-family="Arial" font-size="13px" font-style="normal" font-weight="normal" text-decoration="none" x="317" y="299.5">+methodB()</text></g></g><g transform="translate(-118,-78) scale(1,1)"><rect fill="#C0C0C0" stroke="none" x="215" y="383" width="136.1435546875" height="72" opacity="0.2"/></g><g transform="translate(-118,-78) scale(1,1)"><rect fill="#ffffff" stroke="none" x="208" y="376" width="136.1435546875" height="72"/></g><g transform="translate(-118,-78) scale(1,1)"><path fill="none" stroke="#000000" d="M 208 376 L 344.1435546875 376 L 344.1435546875 448 L 208 448 L 208 376 Z Z" stroke-miterlimit="10"/></g><g transform="translate(-118,-78) scale(1,1)"><path fill="none" stroke="#000000" d="M 208 401 L 344.1435546875 401" stroke-miterlimit="10"/></g><g transform="translate(-118,-78) scale(1,1)"><path fill="none" stroke="#000000" d="M 208 411 L 344.1435546875 411" stroke-miterlimit="10"/></g><g transform="translate(-118,-78) scale(1,1)"><g><path fill="none" stroke="none"/><text fill="#000000" stroke="none" font-family="Arial" font-size="13px" font-style="normal" font-weight="bold" text-decoration="none" x="216.82275390625" y="395.5">ConcreteDecoratorA</text></g></g><g transform="translate(-118,-78) scale(1,1)"><g><path fill="none" stroke="none"/><text fill="#000000" stroke="none" font-family="Arial" font-size="13px" font-style="normal" font-weight="normal" text-decoration="none" x="213" y="428.5">+methodA()</text></g></g><g transform="translate(-118,-78) scale(1,1)"><g><path fill="none" stroke="none"/><text fill="#000000" stroke="none" font-family="Arial" font-size="13px" font-style="normal" font-weight="normal" text-decoration="none" x="213" y="443.5">+methodB()</text></g></g><g transform="translate(-118,-78) scale(1,1)"><rect fill="#C0C0C0" stroke="none" x="367" y="383" width="136.1435546875" height="100" opacity="0.2"/></g><g transform="translate(-118,-78) scale(1,1)"><rect fill="#ffffff" stroke="none" x="360" y="376" width="136.1435546875" height="100"/></g><g transform="translate(-118,-78) scale(1,1)"><path fill="none" stroke="#000000" d="M 360 376 L 496.1435546875 376 L 496.1435546875 476 L 360 476 L 360 376 Z Z" stroke-miterlimit="10"/></g><g transform="translate(-118,-78) scale(1,1)"><path fill="none" stroke="#000000" d="M 360 401 L 496.1435546875 401" stroke-miterlimit="10"/></g><g transform="translate(-118,-78) scale(1,1)"><path fill="none" stroke="#000000" d="M 360 439 L 496.1435546875 439" stroke-miterlimit="10"/></g><g transform="translate(-118,-78) scale(1,1)"><g><path fill="none" stroke="none"/><text fill="#000000" stroke="none" font-family="Arial" font-size="13px" font-style="normal" font-weight="bold" text-decoration="none" x="368.82275390625" y="395.5">ConcreteDecoratorB</text></g></g><g transform="translate(-118,-78) scale(1,1)"><g><path fill="none" stroke="none"/><text fill="#000000" stroke="none" font-family="Arial" font-size="13px" font-style="normal" font-weight="normal" text-decoration="none" x="365" y="418.5">+newatt1</text></g></g><g transform="translate(-118,-78) scale(1,1)"><g><path fill="none" stroke="none"/><text fill="#000000" stroke="none" font-family="Arial" font-size="13px" font-style="normal" font-weight="normal" text-decoration="none" x="365" y="433.5">+newatt2</text></g></g><g transform="translate(-118,-78) scale(1,1)"><g><path fill="none" stroke="none"/><text fill="#000000" stroke="none" font-family="Arial" font-size="13px" font-style="normal" font-weight="normal" text-decoration="none" x="365" y="456.5">+methodA()</text></g></g><g transform="translate(-118,-78) scale(1,1)"><g><path fill="none" stroke="none"/><text fill="#000000" stroke="none" font-family="Arial" font-size="13px" font-style="normal" font-weight="normal" text-decoration="none" x="365" y="471.5">+methodB()</text></g></g><g transform="translate(-118,-78) scale(1,1)"><path fill="none" stroke="#000000" d="M 276 376 L 276 348 L 357 348 L 357 304" stroke-miterlimit="10"/></g><g transform="translate(-118,-78) scale(1,1)"><path fill="#FFFFFF" stroke="none" d="M 365.419035512032 324.3253497152483 L 357 304 L 348.580964487968 324.3253497152483"/></g><g transform="translate(-118,-78) scale(1,1)"><path fill="none" stroke="#000000" d="M 365.419035512032 324.3253497152483 L 357 304 L 348.580964487968 324.3253497152483 L 365.419035512032 324.3253497152483" stroke-miterlimit="10"/></g><g transform="translate(-118,-78) scale(1,1)"><path fill="none" stroke="#000000" d="M 428 376 L 428 348 L 357 348 L 357 304" stroke-miterlimit="10"/></g><g transform="translate(-118,-78) scale(1,1)"><path fill="#FFFFFF" stroke="none" d="M 365.419035512032 324.3253497152483 L 357 304 L 348.580964487968 324.3253497152483"/></g><g transform="translate(-118,-78) scale(1,1)"><path fill="none" stroke="#000000" d="M 365.419035512032 324.3253497152483 L 357 304 L 348.580964487968 324.3253497152483 L 365.419035512032 324.3253497152483" stroke-miterlimit="10"/></g><g transform="translate(-118,-78) scale(1,1)"><path fill="none" stroke="#000000" d="M 192 232 L 192 204 L 285 204 L 285 160" stroke-miterlimit="10"/></g><g transform="translate(-118,-78) scale(1,1)"><path fill="#FFFFFF" stroke="none" d="M 293.419035512032 180.3253497152483 L 285 160 L 276.580964487968 180.3253497152483"/></g><g transform="translate(-118,-78) scale(1,1)"><path fill="none" stroke="#000000" d="M 293.419035512032 180.3253497152483 L 285 160 L 276.580964487968 180.3253497152483 L 293.419035512032 180.3253497152483" stroke-miterlimit="10"/></g><g transform="translate(-118,-78) scale(1,1)"><path fill="none" stroke="#000000" d="M 356 232 L 356 204 L 285 204 L 285 160" stroke-miterlimit="10"/></g><g transform="translate(-118,-78) scale(1,1)"><path fill="#FFFFFF" stroke="none" d="M 293.419035512032 180.3253497152483 L 285 160 L 276.580964487968 180.3253497152483"/></g><g transform="translate(-118,-78) scale(1,1)"><path fill="none" stroke="#000000" d="M 293.419035512032 180.3253497152483 L 285 160 L 276.580964487968 180.3253497152483 L 293.419035512032 180.3253497152483" stroke-miterlimit="10"/></g><g transform="translate(-118,-78) scale(1,1)"><path fill="none" stroke="#000000" d="M 402 268 L 416 268 L 416 128 L 330 128" stroke-miterlimit="10"/></g><g transform="translate(-118,-78) scale(1,1)"><g><path fill="none" stroke="none"/><text fill="#000000" stroke="none" font-family="Arial" font-size="13px" font-style="normal" font-weight="normal" text-decoration="none" x="335.5" y="124.5">+component</text></g></g></g></svg>