<svg version="1.1" xmlns="http://www.w3.org/2000/svg" xmlns:xlink="http://www.w3.org/1999/xlink" width="384.34716796875" height="364"><defs/><g><g transform="translate(-182,-110) scale(1,1)"><rect fill="#C0C0C0" stroke="none" x="295" y="127" width="108.34716796875" height="72" opacity="0.2"/></g><g transform="translate(-182,-110) scale(1,1)"><rect fill="#ffffff" stroke="none" x="288" y="120" width="108.34716796875" height="72"/></g><g transform="translate(-182,-110) scale(1,1)"><path fill="none" stroke="#000000" d="M 288 120 L 396.34716796875 120 L 396.34716796875 192 L 288 192 L 288 120 Z Z" stroke-miterlimit="10"/></g><g transform="translate(-182,-110) scale(1,1)"><path fill="none" stroke="#000000" d="M 288 145 L 396.34716796875 145" stroke-miterlimit="10"/></g><g transform="translate(-182,-110) scale(1,1)"><path fill="none" stroke="#000000" d="M 288 155 L 396.34716796875 155" stroke-miterlimit="10"/></g><g transform="translate(-182,-110) scale(1,1)"><g><path fill="none" stroke="none"/><text fill="#000000" stroke="none" font-family="Arial" font-size="13px" font-style="normal" font-weight="bold" text-decoration="none" x="314.3486328125" y="139.5">Beverage</text></g></g><g transform="translate(-182,-110) scale(1,1)"><g><path fill="none" stroke="none"/><text fill="#000000" stroke="none" font-family="Arial" font-size="13px" font-style="normal" font-weight="normal" text-decoration="none" x="293" y="172.5">+getDescription()</text></g></g><g transform="translate(-182,-110) scale(1,1)"><g><path fill="none" stroke="none"/><text fill="#000000" stroke="none" font-family="Arial" font-size="13px" font-style="normal" font-weight="normal" text-decoration="none" x="293" y="187.5">+cost()</text></g></g><g transform="translate(-182,-110) scale(1,1)"><rect fill="#C0C0C0" stroke="none" x="199" y="271" width="89.57080078125" height="57" opacity="0.2"/></g><g transform="translate(-182,-110) scale(1,1)"><rect fill="#ffffff" stroke="none" x="192" y="264" width="89.57080078125" height="57"/></g><g transform="translate(-182,-110) scale(1,1)"><path fill="none" stroke="#000000" d="M 192 264 L 281.57080078125 264 L 281.57080078125 321 L 192 321 L 192 264 Z Z" stroke-miterlimit="10"/></g><g transform="translate(-182,-110) scale(1,1)"><path fill="none" stroke="#000000" d="M 192 289 L 281.57080078125 289" stroke-miterlimit="10"/></g><g transform="translate(-182,-110) scale(1,1)"><path fill="none" stroke="#000000" d="M 192 299 L 281.57080078125 299" stroke-miterlimit="10"/></g><g transform="translate(-182,-110) scale(1,1)"><g><path fill="none" stroke="none"/><text fill="#000000" stroke="none" font-family="Arial" font-size="13px" font-style="normal" font-weight="bold" text-decoration="none" x="201.371826171875" y="283.5">HouseBlend</text></g></g><g transform="translate(-182,-110) scale(1,1)"><g><path fill="none" stroke="none"/><text fill="#000000" stroke="none" font-family="Arial" font-size="13px" font-style="normal" font-weight="normal" text-decoration="none" x="197" y="316.5">+cost()</text></g></g><g transform="translate(-182,-110) scale(1,1)"><rect fill="#C0C0C0" stroke="none" x="359" y="271" width="138.2890625" height="72" opacity="0.2"/></g><g transform="translate(-182,-110) scale(1,1)"><rect fill="#ffffff" stroke="none" x="352" y="264" width="138.2890625" height="72"/></g><g transform="translate(-182,-110) scale(1,1)"><path fill="none" stroke="#000000" d="M 352 264 L 490.2890625 264 L 490.2890625 336 L 352 336 L 352 264 Z Z" stroke-miterlimit="10"/></g><g transform="translate(-182,-110) scale(1,1)"><path fill="none" stroke="#000000" d="M 352 289 L 490.2890625 289" stroke-miterlimit="10"/></g><g transform="translate(-182,-110) scale(1,1)"><path fill="none" stroke="#000000" d="M 352 299 L 490.2890625 299" stroke-miterlimit="10"/></g><g transform="translate(-182,-110) scale(1,1)"><g><path fill="none" stroke="none"/><text fill="#000000" stroke="none" font-family="Arial" font-size="13px" font-style="normal" font-weight="bold" text-decoration="none" x="361.171875" y="283.5">CondimentDecorator</text></g></g><g transform="translate(-182,-110) scale(1,1)"><g><path fill="none" stroke="none"/><text fill="#000000" stroke="none" font-family="Arial" font-size="13px" font-style="normal" font-weight="normal" text-decoration="none" x="357" y="316.5">+getDescription()</text></g></g><g transform="translate(-182,-110) scale(1,1)"><g><path fill="none" stroke="none"/><text fill="#000000" stroke="none" font-family="Arial" font-size="13px" font-style="normal" font-weight="normal" text-decoration="none" x="357" y="331.5">+cost()</text></g></g><g transform="translate(-182,-110) scale(1,1)"><rect fill="#C0C0C0" stroke="none" x="271" y="399" width="108.34716796875" height="72" opacity="0.2"/></g><g transform="translate(-182,-110) scale(1,1)"><rect fill="#ffffff" stroke="none" x="264" y="392" width="108.34716796875" height="72"/></g><g transform="translate(-182,-110) scale(1,1)"><path fill="none" stroke="#000000" d="M 264 392 L 372.34716796875 392 L 372.34716796875 464 L 264 464 L 264 392 Z Z" stroke-miterlimit="10"/></g><g transform="translate(-182,-110) scale(1,1)"><path fill="none" stroke="#000000" d="M 264 417 L 372.34716796875 417" stroke-miterlimit="10"/></g><g transform="translate(-182,-110) scale(1,1)"><path fill="none" stroke="#000000" d="M 264 427 L 372.34716796875 427" stroke-miterlimit="10"/></g><g transform="translate(-182,-110) scale(1,1)"><g><path fill="none" stroke="none"/><text fill="#000000" stroke="none" font-family="Arial" font-size="13px" font-style="normal" font-weight="bold" text-decoration="none" x="306.620849609375" y="411.5">Milk</text></g></g><g transform="translate(-182,-110) scale(1,1)"><g><path fill="none" stroke="none"/><text fill="#000000" stroke="none" font-family="Arial" font-size="13px" font-style="normal" font-weight="normal" text-decoration="none" x="269" y="444.5">+getDescription()</text></g></g><g transform="translate(-182,-110) scale(1,1)"><g><path fill="none" stroke="none"/><text fill="#000000" stroke="none" font-family="Arial" font-size="13px" font-style="normal" font-weight="normal" text-decoration="none" x="269" y="459.5">+cost()</text></g></g><g transform="translate(-182,-110) scale(1,1)"><rect fill="#C0C0C0" stroke="none" x="455" y="399" width="108.34716796875" height="72" opacity="0.2"/></g><g transform="translate(-182,-110) scale(1,1)"><rect fill="#ffffff" stroke="none" x="448" y="392" width="108.34716796875" height="72"/></g><g transform="translate(-182,-110) scale(1,1)"><path fill="none" stroke="#000000" d="M 448 392 L 556.34716796875 392 L 556.34716796875 464 L 448 464 L 448 392 Z Z" stroke-miterlimit="10"/></g><g transform="translate(-182,-110) scale(1,1)"><path fill="none" stroke="#000000" d="M 448 417 L 556.34716796875 417" stroke-miterlimit="10"/></g><g transform="translate(-182,-110) scale(1,1)"><path fill="none" stroke="#000000" d="M 448 427 L 556.34716796875 427" stroke-miterlimit="10"/></g><g transform="translate(-182,-110) scale(1,1)"><g><path fill="none" stroke="none"/><text fill="#000000" stroke="none" font-family="Arial" font-size="13px" font-style="normal" font-weight="bold" text-decoration="none" x="490.97314453125" y="411.5">Soy</text></g></g><g transform="translate(-182,-110) scale(1,1)"><g><path fill="none" stroke="none"/><text fill="#000000" stroke="none" font-family="Arial" font-size="13px" font-style="normal" font-weight="normal" text-decoration="none" x="453" y="444.5">+getDescription()</text></g></g><g transform="translate(-182,-110) scale(1,1)"><g><path fill="none" stroke="none"/><text fill="#000000" stroke="none" font-family="Arial" font-size="13px" font-style="normal" font-weight="normal" text-decoration="none" x="453" y="459.5">+cost()</text></g></g><g transform="translate(-182,-110) scale(1,1)"><path fill="none" stroke="#000000" d="M 236 264 L 236 236 L 342 236 L 342 192" stroke-miterlimit="10"/></g><g transform="translate(-182,-110) scale(1,1)"><path fill="#FFFFFF" stroke="none" d="M 350.419035512032 212.3253497152483 L 342 192 L 333.580964487968 212.3253497152483"/></g><g transform="translate(-182,-110) scale(1,1)"><path fill="none" stroke="#000000" d="M 350.419035512032 212.3253497152483 L 342 192 L 333.580964487968 212.3253497152483 L 350.419035512032 212.3253497152483" stroke-miterlimit="10"/></g><g transform="translate(-182,-110) scale(1,1)"><path fill="none" stroke="#000000" d="M 421 264 L 421 236 L 342 236 L 342 192" stroke-miterlimit="10"/></g><g transform="translate(-182,-110) scale(1,1)"><path fill="#FFFFFF" stroke="none" d="M 350.419035512032 212.3253497152483 L 342 192 L 333.580964487968 212.3253497152483"/></g><g transform="translate(-182,-110) scale(1,1)"><path fill="none" stroke="#000000" d="M 350.419035512032 212.3253497152483 L 342 192 L 333.580964487968 212.3253497152483 L 350.419035512032 212.3253497152483" stroke-miterlimit="10"/></g><g transform="translate(-182,-110) scale(1,1)"><path fill="none" stroke="#000000" d="M 318 392 L 318 372 L 421 372 L 421 336" stroke-miterlimit="10"/></g><g transform="translate(-182,-110) scale(1,1)"><path fill="#FFFFFF" stroke="none" d="M 429.419035512032 356.3253497152483 L 421 336 L 412.580964487968 356.3253497152483"/></g><g transform="translate(-182,-110) scale(1,1)"><path fill="none" stroke="#000000" d="M 429.419035512032 356.3253497152483 L 421 336 L 412.580964487968 356.3253497152483 L 429.419035512032 356.3253497152483" stroke-miterlimit="10"/></g><g transform="translate(-182,-110) scale(1,1)"><path fill="none" stroke="#000000" d="M 502 392 L 502 372 L 421 372 L 421 336" stroke-miterlimit="10"/></g><g transform="translate(-182,-110) scale(1,1)"><path fill="#FFFFFF" stroke="none" d="M 429.419035512032 356.3253497152483 L 421 336 L 412.580964487968 356.3253497152483"/></g><g transform="translate(-182,-110) scale(1,1)"><path fill="none" stroke="#000000" d="M 429.419035512032 356.3253497152483 L 421 336 L 412.580964487968 356.3253497152483 L 429.419035512032 356.3253497152483" stroke-miterlimit="10"/></g><g transform="translate(-182,-110) scale(1,1)"><path fill="none" stroke="#000000" d="M 464 264 L 464 176 L 396 176" stroke-miterlimit="10"/></g><g transform="translate(-182,-110) scale(1,1)"><g><path fill="none" stroke="none"/><text fill="#000000" stroke="none" font-family="Arial" font-size="13px" font-style="normal" font-weight="normal" text-decoration="none" x="407.5" y="172.5">+beverage</text></g></g></g></svg>