<svg version="1.1" xmlns="http://www.w3.org/2000/svg" xmlns:xlink="http://www.w3.org/1999/xlink" width="595.162109375" height="424"><defs/><g><g transform="translate(-30,-131) scale(1,1)"><rect fill="#C0C0C0" stroke="none" x="299" y="148" width="108.34716796875" height="100" opacity="0.2"/></g><g transform="translate(-30,-131) scale(1,1)"><rect fill="#ffffff" stroke="none" x="292" y="141" width="108.34716796875" height="100"/></g><g transform="translate(-30,-131) scale(1,1)"><path fill="none" stroke="#000000" d="M 292 141 L 400.34716796875 141 L 400.34716796875 241 L 292 241 L 292 141 Z Z" stroke-miterlimit="10"/></g><g transform="translate(-30,-131) scale(1,1)"><path fill="none" stroke="#000000" d="M 292 166 L 400.34716796875 166" stroke-miterlimit="10"/></g><g transform="translate(-30,-131) scale(1,1)"><path fill="none" stroke="#000000" d="M 292 189 L 400.34716796875 189" stroke-miterlimit="10"/></g><g transform="translate(-30,-131) scale(1,1)"><g><path fill="none" stroke="none"/><text fill="#000000" stroke="none" font-family="Arial" font-size="13px" font-style="italic" font-weight="bold" text-decoration="none" x="318.3486328125" y="160.5">Beverage</text></g></g><g transform="translate(-30,-131) scale(1,1)"><g><path fill="none" stroke="none"/><text fill="#000000" stroke="none" font-family="Arial" font-size="13px" font-style="normal" font-weight="normal" text-decoration="none" x="297" y="183.5">+description</text></g></g><g transform="translate(-30,-131) scale(1,1)"><g><path fill="none" stroke="none"/><text fill="#000000" stroke="none" font-family="Arial" font-size="13px" font-style="normal" font-weight="normal" text-decoration="none" x="297" y="206.5">+getDescription()</text></g></g><g transform="translate(-30,-131) scale(1,1)"><g><path fill="none" stroke="none"/><text fill="#000000" stroke="none" font-family="Arial" font-size="13px" font-style="italic" font-weight="normal" text-decoration="none" x="297" y="221.5">+cost()</text></g></g><g transform="translate(-30,-131) scale(1,1)"><rect fill="#C0C0C0" stroke="none" x="131" y="308" width="89.57080078125" height="57" opacity="0.2"/></g><g transform="translate(-30,-131) scale(1,1)"><rect fill="#ffffff" stroke="none" x="124" y="301" width="89.57080078125" height="57"/></g><g transform="translate(-30,-131) scale(1,1)"><path fill="none" stroke="#000000" d="M 124 301 L 213.57080078125 301 L 213.57080078125 358 L 124 358 L 124 301 Z Z" stroke-miterlimit="10"/></g><g transform="translate(-30,-131) scale(1,1)"><path fill="none" stroke="#000000" d="M 124 326 L 213.57080078125 326" stroke-miterlimit="10"/></g><g transform="translate(-30,-131) scale(1,1)"><path fill="none" stroke="#000000" d="M 124 336 L 213.57080078125 336" stroke-miterlimit="10"/></g><g transform="translate(-30,-131) scale(1,1)"><g><path fill="none" stroke="none"/><text fill="#000000" stroke="none" font-family="Arial" font-size="13px" font-style="normal" font-weight="bold" text-decoration="none" x="133.371826171875" y="320.5">HouseBlend</text></g></g><g transform="translate(-30,-131) scale(1,1)"><g><path fill="none" stroke="none"/><text fill="#000000" stroke="none" font-family="Arial" font-size="13px" font-style="normal" font-weight="normal" text-decoration="none" x="129" y="353.5">+cost()</text></g></g><g transform="translate(-30,-131) scale(1,1)"><rect fill="#C0C0C0" stroke="none" x="251" y="308" width="89.57080078125" height="57" opacity="0.2"/></g><g transform="translate(-30,-131) scale(1,1)"><rect fill="#ffffff" stroke="none" x="244" y="301" width="89.57080078125" height="57"/></g><g transform="translate(-30,-131) scale(1,1)"><path fill="none" stroke="#000000" d="M 244 301 L 333.57080078125 301 L 333.57080078125 358 L 244 358 L 244 301 Z Z" stroke-miterlimit="10"/></g><g transform="translate(-30,-131) scale(1,1)"><path fill="none" stroke="#000000" d="M 244 326 L 333.57080078125 326" stroke-miterlimit="10"/></g><g transform="translate(-30,-131) scale(1,1)"><path fill="none" stroke="#000000" d="M 244 336 L 333.57080078125 336" stroke-miterlimit="10"/></g><g transform="translate(-30,-131) scale(1,1)"><g><path fill="none" stroke="none"/><text fill="#000000" stroke="none" font-family="Arial" font-size="13px" font-style="normal" font-weight="bold" text-decoration="none" x="258.081787109375" y="320.5">DarkRoast</text></g></g><g transform="translate(-30,-131) scale(1,1)"><g><path fill="none" stroke="none"/><text fill="#000000" stroke="none" font-family="Arial" font-size="13px" font-style="normal" font-weight="normal" text-decoration="none" x="249" y="353.5">+cost()</text></g></g><g transform="translate(-30,-131) scale(1,1)"><rect fill="#C0C0C0" stroke="none" x="363" y="308" width="89.57080078125" height="57" opacity="0.2"/></g><g transform="translate(-30,-131) scale(1,1)"><rect fill="#ffffff" stroke="none" x="356" y="301" width="89.57080078125" height="57"/></g><g transform="translate(-30,-131) scale(1,1)"><path fill="none" stroke="#000000" d="M 356 301 L 445.57080078125 301 L 445.57080078125 358 L 356 358 L 356 301 Z Z" stroke-miterlimit="10"/></g><g transform="translate(-30,-131) scale(1,1)"><path fill="none" stroke="#000000" d="M 356 326 L 445.57080078125 326" stroke-miterlimit="10"/></g><g transform="translate(-30,-131) scale(1,1)"><path fill="none" stroke="#000000" d="M 356 336 L 445.57080078125 336" stroke-miterlimit="10"/></g><g transform="translate(-30,-131) scale(1,1)"><g><path fill="none" stroke="none"/><text fill="#000000" stroke="none" font-family="Arial" font-size="13px" font-style="normal" font-weight="bold" text-decoration="none" x="373.6904296875" y="320.5">Espresso</text></g></g><g transform="translate(-30,-131) scale(1,1)"><g><path fill="none" stroke="none"/><text fill="#000000" stroke="none" font-family="Arial" font-size="13px" font-style="normal" font-weight="normal" text-decoration="none" x="361" y="353.5">+cost()</text></g></g><g transform="translate(-30,-131) scale(1,1)"><rect fill="#C0C0C0" stroke="none" x="475" y="308" width="89.57080078125" height="57" opacity="0.2"/></g><g transform="translate(-30,-131) scale(1,1)"><rect fill="#ffffff" stroke="none" x="468" y="301" width="89.57080078125" height="57"/></g><g transform="translate(-30,-131) scale(1,1)"><path fill="none" stroke="#000000" d="M 468 301 L 557.57080078125 301 L 557.57080078125 358 L 468 358 L 468 301 Z Z" stroke-miterlimit="10"/></g><g transform="translate(-30,-131) scale(1,1)"><path fill="none" stroke="#000000" d="M 468 326 L 557.57080078125 326" stroke-miterlimit="10"/></g><g transform="translate(-30,-131) scale(1,1)"><path fill="none" stroke="#000000" d="M 468 336 L 557.57080078125 336" stroke-miterlimit="10"/></g><g transform="translate(-30,-131) scale(1,1)"><g><path fill="none" stroke="none"/><text fill="#000000" stroke="none" font-family="Arial" font-size="13px" font-style="normal" font-weight="bold" text-decoration="none" x="495.805419921875" y="320.5">Decaf</text></g></g><g transform="translate(-30,-131) scale(1,1)"><g><path fill="none" stroke="none"/><text fill="#000000" stroke="none" font-family="Arial" font-size="13px" font-style="normal" font-weight="normal" text-decoration="none" x="473" y="353.5">+cost()</text></g></g><g transform="translate(-30,-131) scale(1,1)"><path fill="none" stroke="#000000" d="M 172 301 L 172 271 L 346 271 L 346 241" stroke-miterlimit="10"/></g><g transform="translate(-30,-131) scale(1,1)"><path fill="#FFFFFF" stroke="none" d="M 354.419035512032 261.3253497152483 L 346 241 L 337.580964487968 261.3253497152483"/></g><g transform="translate(-30,-131) scale(1,1)"><path fill="none" stroke="#000000" d="M 354.419035512032 261.3253497152483 L 346 241 L 337.580964487968 261.3253497152483 L 354.419035512032 261.3253497152483" stroke-miterlimit="10"/></g><g transform="translate(-30,-131) scale(1,1)"><path fill="none" stroke="#000000" d="M 288 301 L 288 271 L 346 271 L 346 241" stroke-miterlimit="10"/></g><g transform="translate(-30,-131) scale(1,1)"><path fill="#FFFFFF" stroke="none" d="M 354.419035512032 261.3253497152483 L 346 241 L 337.580964487968 261.3253497152483"/></g><g transform="translate(-30,-131) scale(1,1)"><path fill="none" stroke="#000000" d="M 354.419035512032 261.3253497152483 L 346 241 L 337.580964487968 261.3253497152483 L 354.419035512032 261.3253497152483" stroke-miterlimit="10"/></g><g transform="translate(-30,-131) scale(1,1)"><path fill="none" stroke="#000000" d="M 400 301 L 400 271 L 346 271 L 346 241" stroke-miterlimit="10"/></g><g transform="translate(-30,-131) scale(1,1)"><path fill="#FFFFFF" stroke="none" d="M 354.419035512032 261.3253497152483 L 346 241 L 337.580964487968 261.3253497152483"/></g><g transform="translate(-30,-131) scale(1,1)"><path fill="none" stroke="#000000" d="M 354.419035512032 261.3253497152483 L 346 241 L 337.580964487968 261.3253497152483 L 354.419035512032 261.3253497152483" stroke-miterlimit="10"/></g><g transform="translate(-30,-131) scale(1,1)"><path fill="none" stroke="#000000" d="M 512 301 L 512 271 L 346 271 L 346 241" stroke-miterlimit="10"/></g><g transform="translate(-30,-131) scale(1,1)"><path fill="#FFFFFF" stroke="none" d="M 354.419035512032 261.3253497152483 L 346 241 L 337.580964487968 261.3253497152483"/></g><g transform="translate(-30,-131) scale(1,1)"><path fill="none" stroke="#000000" d="M 354.419035512032 261.3253497152483 L 346 241 L 337.580964487968 261.3253497152483 L 354.419035512032 261.3253497152483" stroke-miterlimit="10"/></g><g transform="translate(-30,-131) scale(1,1)"><rect fill="#C0C0C0" stroke="none" x="47" y="415" width="256.634765625" height="57" opacity="0.2"/></g><g transform="translate(-30,-131) scale(1,1)"><rect fill="#ffffff" stroke="none" x="40" y="408" width="256.634765625" height="57"/></g><g transform="translate(-30,-131) scale(1,1)"><path fill="none" stroke="#000000" d="M 40 408 L 296.634765625 408 L 296.634765625 465 L 40 465 L 40 408 Z Z" stroke-miterlimit="10"/></g><g transform="translate(-30,-131) scale(1,1)"><path fill="none" stroke="#000000" d="M 40 433 L 296.634765625 433" stroke-miterlimit="10"/></g><g transform="translate(-30,-131) scale(1,1)"><path fill="none" stroke="#000000" d="M 40 443 L 296.634765625 443" stroke-miterlimit="10"/></g><g transform="translate(-30,-131) scale(1,1)"><g><path fill="none" stroke="none"/><text fill="#000000" stroke="none" font-family="Arial" font-size="13px" font-style="normal" font-weight="bold" text-decoration="none" x="51.980712890625" y="427.5">HouseBlendWithSteamedMilkandMocha</text></g></g><g transform="translate(-30,-131) scale(1,1)"><g><path fill="none" stroke="none"/><text fill="#000000" stroke="none" font-family="Arial" font-size="13px" font-style="normal" font-weight="normal" text-decoration="none" x="45" y="460.5">+cost()</text></g></g><g transform="translate(-30,-131) scale(1,1)"><rect fill="#C0C0C0" stroke="none" x="359" y="415" width="185.85205078125" height="57" opacity="0.2"/></g><g transform="translate(-30,-131) scale(1,1)"><rect fill="#ffffff" stroke="none" x="352" y="408" width="185.85205078125" height="57"/></g><g transform="translate(-30,-131) scale(1,1)"><path fill="none" stroke="#000000" d="M 352 408 L 537.85205078125 408 L 537.85205078125 465 L 352 465 L 352 408 Z Z" stroke-miterlimit="10"/></g><g transform="translate(-30,-131) scale(1,1)"><path fill="none" stroke="#000000" d="M 352 433 L 537.85205078125 433" stroke-miterlimit="10"/></g><g transform="translate(-30,-131) scale(1,1)"><path fill="none" stroke="#000000" d="M 352 443 L 537.85205078125 443" stroke-miterlimit="10"/></g><g transform="translate(-30,-131) scale(1,1)"><g><path fill="none" stroke="none"/><text fill="#000000" stroke="none" font-family="Arial" font-size="13px" font-style="normal" font-weight="bold" text-decoration="none" x="362.5556640625" y="427.5">EspressoWithSoyAndMocha</text></g></g><g transform="translate(-30,-131) scale(1,1)"><g><path fill="none" stroke="none"/><text fill="#000000" stroke="none" font-family="Arial" font-size="13px" font-style="normal" font-weight="normal" text-decoration="none" x="357" y="460.5">+cost()</text></g></g><g transform="translate(-30,-131) scale(1,1)"><rect fill="#C0C0C0" stroke="none" x="119" y="487" width="201.00390625" height="57" opacity="0.2"/></g><g transform="translate(-30,-131) scale(1,1)"><rect fill="#ffffff" stroke="none" x="112" y="480" width="201.00390625" height="57"/></g><g transform="translate(-30,-131) scale(1,1)"><path fill="none" stroke="#000000" d="M 112 480 L 313.00390625 480 L 313.00390625 537 L 112 537 L 112 480 Z Z" stroke-miterlimit="10"/></g><g transform="translate(-30,-131) scale(1,1)"><path fill="none" stroke="#000000" d="M 112 505 L 313.00390625 505" stroke-miterlimit="10"/></g><g transform="translate(-30,-131) scale(1,1)"><path fill="none" stroke="#000000" d="M 112 515 L 313.00390625 515" stroke-miterlimit="10"/></g><g transform="translate(-30,-131) scale(1,1)"><g><path fill="none" stroke="none"/><text fill="#000000" stroke="none" font-family="Arial" font-size="13px" font-style="normal" font-weight="bold" text-decoration="none" x="122.533447265625" y="499.5">HouseBlendWithSoyandMocha</text></g></g><g transform="translate(-30,-131) scale(1,1)"><g><path fill="none" stroke="none"/><text fill="#000000" stroke="none" font-family="Arial" font-size="13px" font-style="normal" font-weight="normal" text-decoration="none" x="117" y="532.5">+cost()</text></g></g><g transform="translate(-30,-131) scale(1,1)"><rect fill="#C0C0C0" stroke="none" x="471" y="495" width="151.162109375" height="57" opacity="0.2"/></g><g transform="translate(-30,-131) scale(1,1)"><rect fill="#ffffff" stroke="none" x="464" y="488" width="151.162109375" height="57"/></g><g transform="translate(-30,-131) scale(1,1)"><path fill="none" stroke="#000000" d="M 464 488 L 615.162109375 488 L 615.162109375 545 L 464 545 L 464 488 Z Z" stroke-miterlimit="10"/></g><g transform="translate(-30,-131) scale(1,1)"><path fill="none" stroke="#000000" d="M 464 513 L 615.162109375 513" stroke-miterlimit="10"/></g><g transform="translate(-30,-131) scale(1,1)"><path fill="none" stroke="#000000" d="M 464 523 L 615.162109375 523" stroke-miterlimit="10"/></g><g transform="translate(-30,-131) scale(1,1)"><g><path fill="none" stroke="none"/><text fill="#000000" stroke="none" font-family="Arial" font-size="13px" font-style="normal" font-weight="bold" text-decoration="none" x="472.74658203125" y="507.5">DecafWithWhipandSoy</text></g></g><g transform="translate(-30,-131) scale(1,1)"><g><path fill="none" stroke="none"/><text fill="#000000" stroke="none" font-family="Arial" font-size="13px" font-style="normal" font-weight="normal" text-decoration="none" x="469" y="540.5">+cost()</text></g></g><g transform="translate(-30,-131) scale(1,1)"><path fill="none" stroke="#000000" d="M 412 408 L 412 358" stroke-miterlimit="10"/></g><g transform="translate(-30,-131) scale(1,1)"><path fill="none" stroke="#000000" d="M 168 408 L 168 358" stroke-miterlimit="10"/></g><g transform="translate(-30,-131) scale(1,1)"><path fill="none" stroke="#000000" d="M 312 480 L 312 384 L 168 384 L 168 358" stroke-miterlimit="10"/></g><g transform="translate(-30,-131) scale(1,1)"><path fill="none" stroke="#000000" d="M 544 488 L 544 358" stroke-miterlimit="10"/></g></g></svg>