<svg version="1.1" xmlns="http://www.w3.org/2000/svg" xmlns:xlink="http://www.w3.org/1999/xlink" width="183.9970703125" height="122"><defs/><g><g transform="translate(-150,-118) scale(1,1)"><rect fill="#C0C0C0" stroke="none" x="167" y="135" width="163.9970703125" height="102" opacity="0.2"/></g><g transform="translate(-150,-118) scale(1,1)"><rect fill="#ffffff" stroke="none" x="160" y="128" width="163.9970703125" height="102"/></g><g transform="translate(-150,-118) scale(1,1)"><path fill="none" stroke="#000000" d="M 160 128 L 323.9970703125 128 L 323.9970703125 230 L 160 230 L 160 128 Z Z" stroke-miterlimit="10"/></g><g transform="translate(-150,-118) scale(1,1)"><path fill="none" stroke="#000000" d="M 160 153 L 323.9970703125 153" stroke-miterlimit="10"/></g><g transform="translate(-150,-118) scale(1,1)"><path fill="none" stroke="#000000" d="M 160 163 L 323.9970703125 163" stroke-miterlimit="10"/></g><g transform="translate(-150,-118) scale(1,1)"><g><path fill="none" stroke="none"/><text fill="#000000" stroke="none" font-family="Arial" font-size="13px" font-style="normal" font-weight="bold" text-decoration="none" x="203.820556640625" y="147.5">WeatherData</text></g></g><g transform="translate(-150,-118) scale(1,1)"><g><path fill="none" stroke="none"/><text fill="#000000" stroke="none" font-family="Arial" font-size="13px" font-style="normal" font-weight="normal" text-decoration="none" x="165" y="180.5">+getTemperature()</text></g></g><g transform="translate(-150,-118) scale(1,1)"><g><path fill="none" stroke="none"/><text fill="#000000" stroke="none" font-family="Arial" font-size="13px" font-style="normal" font-weight="normal" text-decoration="none" x="165" y="195.5">+getHumidity()</text></g></g><g transform="translate(-150,-118) scale(1,1)"><g><path fill="none" stroke="none"/><text fill="#000000" stroke="none" font-family="Arial" font-size="13px" font-style="normal" font-weight="normal" text-decoration="none" x="165" y="210.5">+getPressure()</text></g></g><g transform="translate(-150,-118) scale(1,1)"><g><path fill="none" stroke="none"/><text fill="#000000" stroke="none" font-family="Arial" font-size="13px" font-style="normal" font-weight="normal" text-decoration="none" x="165" y="225.5">+measurementsChanged()</text></g></g></g></svg>