<svg version="1.1" xmlns="http://www.w3.org/2000/svg" xmlns:xlink="http://www.w3.org/1999/xlink" width="331" height="460"><defs/><g><g transform="translate(-62,-86) scale(1,1)"><rect fill="#ffffff" stroke="none" x="72" y="96" width="311" height="21"/></g><g transform="translate(-62,-86) scale(1,1)"><path fill="none" stroke="#000000" d="M 72 96 L 383 96 L 383 117 L 72 117 L 72 96 Z Z" stroke-miterlimit="10" stroke-width="2"/></g><g transform="translate(-62,-86) scale(1,1)"><path fill="none" stroke="#000000" d="M 72 536 L 72 96 L 383 96 L 383 536" stroke-miterlimit="10" stroke-width="2"/></g><g transform="translate(-62,-86) scale(1,1)"><g><path fill="none" stroke="none"/><text fill="#000000" stroke="none" font-family="Arial" font-size="13px" font-style="normal" font-weight="normal" text-decoration="none" x="187.754150390625" y="113">Game Engine</text></g></g><g transform="translate(-62,-86) scale(1,1)"><path fill="#C0C0C0" stroke="none" d="M 233 152.5 C 233 147.2532944 237.2532944 143 242.5 143 C 247.7467056 143 252 147.2532944 252 152.5 C 252 157.7467056 247.7467056 162 242.5 162 C 237.2532944 162 233 157.7467056 233 152.5 Z" opacity="0.2"/></g><g transform="translate(-62,-86) scale(1,1)"><path fill="#000000" stroke="none" d="M 226 145.5 C 226 140.2532944 230.2532944 136 235.5 136 C 240.7467056 136 245 140.2532944 245 145.5 C 245 150.7467056 240.7467056 155 235.5 155 C 230.2532944 155 226 150.7467056 226 145.5 Z"/></g><g transform="translate(-62,-86) scale(1,1)"><path fill="#C0C0C0" stroke="none" d="M 207 239 L 277.62451171875 239 Q 287.62451171875 239 287.62451171875 249 L 287.62451171875 269 Q 287.62451171875 279 277.62451171875 279 L 207 279 Q 197 279 197 269 L 197 249 Q 197 239 207 239 Z" opacity="0.2"/></g><g transform="translate(-62,-86) scale(1,1)"><path fill="#ffffff" stroke="none" d="M 200 232 L 270.62451171875 232 Q 280.62451171875 232 280.62451171875 242 L 280.62451171875 262 Q 280.62451171875 272 270.62451171875 272 L 200 272 Q 190 272 190 262 L 190 242 Q 190 232 200 232 Z"/></g><g transform="translate(-62,-86) scale(1,1)"><path fill="none" stroke="#000000" d="M 200 232 L 270.62451171875 232 Q 280.62451171875 232 280.62451171875 242 L 280.62451171875 262 Q 280.62451171875 272 270.62451171875 272 L 200 272 Q 190 272 190 262 L 190 242 Q 190 232 200 232 Z" stroke-miterlimit="10"/></g><g transform="translate(-62,-86) scale(1,1)"><g><path fill="none" stroke="none"/><text fill="#000000" stroke="none" font-family="Arial" font-size="13px" font-style="normal" font-weight="bold" text-decoration="none" x="198.095947265625" y="251.5">processInput</text></g></g><g transform="translate(-62,-86) scale(1,1)"><path fill="#C0C0C0" stroke="none" d="M 223 303 L 262 303 Q 272 303 272 313 L 272 333 Q 272 343 262 343 L 223 343 Q 213 343 213 333 L 213 313 Q 213 303 223 303 Z" opacity="0.2"/></g><g transform="translate(-62,-86) scale(1,1)"><path fill="#ffffff" stroke="none" d="M 216 296 L 255 296 Q 265 296 265 306 L 265 326 Q 265 336 255 336 L 216 336 Q 206 336 206 326 L 206 306 Q 206 296 216 296 Z"/></g><g transform="translate(-62,-86) scale(1,1)"><path fill="none" stroke="#000000" d="M 216 296 L 255 296 Q 265 296 265 306 L 265 326 Q 265 336 255 336 L 216 336 Q 206 336 206 326 L 206 306 Q 206 296 216 296 Z" stroke-miterlimit="10"/></g><g transform="translate(-62,-86) scale(1,1)"><g><path fill="none" stroke="none"/><text fill="#000000" stroke="none" font-family="Arial" font-size="13px" font-style="normal" font-weight="bold" text-decoration="none" x="215.619140625" y="315.5">update</text></g></g><g transform="translate(-62,-86) scale(1,1)"><path fill="#C0C0C0" stroke="none" d="M 211 426 L 273.44091796875 426 L 273.44091796875 466 L 211 466 L 221.25 446.5" opacity="0.2"/></g><g transform="translate(-62,-86) scale(1,1)"><path fill="#ffffff" stroke="none" d="M 204 419 L 266.44091796875 419 L 266.44091796875 459 L 204 459 L 214.25 439.5"/></g><g transform="translate(-62,-86) scale(1,1)"><path fill="none" stroke="#000000" d="M 204 419 L 266.44091796875 419 L 266.44091796875 459 L 204 459 L 214.25 439.5 L 204 419" stroke-miterlimit="10"/></g><g transform="translate(-62,-86) scale(1,1)"><g><path fill="none" stroke="none"/><text fill="#000000" stroke="none" font-family="Arial" font-size="13px" font-style="normal" font-weight="bold" text-decoration="none" x="211.37548828125" y="438.5">interrupt</text></g></g><g transform="translate(-62,-86) scale(1,1)"><path fill="#C0C0C0" stroke="none" d="M 231 208.5 L 242.5 199 L 253 208.5 L 242.5 217 L 231 208.5" opacity="0.2"/></g><g transform="translate(-62,-86) scale(1,1)"><path fill="#ffffff" stroke="none" d="M 224 201 L 235 192 L 246 201 L 235 210 L 224 201"/></g><g transform="translate(-62,-86) scale(1,1)"><path fill="none" stroke="#000000" d="M 224 201 L 235 192 L 246 201 L 235 210 L 224 201 L 224 201" stroke-miterlimit="10"/></g><g transform="translate(-62,-86) scale(1,1)"><path fill="none" stroke="#000000" d="M 178 439 L 203 439" stroke-miterlimit="10"/></g><g transform="translate(-62,-86) scale(1,1)"><path fill="none" stroke="#000000" d="M 192.83732514237585 443.209517756016 L 203 439 L 192.83732514237585 434.790482243984" stroke-miterlimit="10"/></g><g transform="translate(-62,-86) scale(1,1)"><path fill="none" stroke="#000000" d="M 235 156 L 235 191" stroke-miterlimit="10"/></g><g transform="translate(-62,-86) scale(1,1)"><path fill="none" stroke="#000000" d="M 230.790482243984 180.83732514237585 L 235 191 L 239.209517756016 180.83732514237585" stroke-miterlimit="10"/></g><g transform="translate(-62,-86) scale(1,1)"><path fill="none" stroke="#000000" d="M 235 211 L 235 231" stroke-miterlimit="10"/></g><g transform="translate(-62,-86) scale(1,1)"><path fill="none" stroke="#000000" d="M 230.790482243984 220.83732514237585 L 235 231 L 239.209517756016 220.83732514237585" stroke-miterlimit="10"/></g><g transform="translate(-62,-86) scale(1,1)"><g><path fill="none" stroke="none"/><text fill="#000000" stroke="none" font-family="Arial" font-size="13px" font-style="normal" font-weight="normal" text-decoration="none" x="196.5" y="219.5"> [true]</text></g></g><g transform="translate(-62,-86) scale(1,1)"><path fill="none" stroke="#000000" d="M 235 273 L 235 295" stroke-miterlimit="10"/></g><g transform="translate(-62,-86) scale(1,1)"><path fill="none" stroke="#000000" d="M 230.790482243984 284.83732514237585 L 235 295 L 239.209517756016 284.83732514237585" stroke-miterlimit="10"/></g><g transform="translate(-62,-86) scale(1,1)"><path fill="none" stroke="#000000" d="M 235 337 L 235 359" stroke-miterlimit="10"/></g><g transform="translate(-62,-86) scale(1,1)"><path fill="none" stroke="#000000" d="M 230.790482243984 348.83732514237585 L 235 359 L 239.209517756016 348.83732514237585" stroke-miterlimit="10"/></g><g transform="translate(-62,-86) scale(1,1)"><path fill="none" stroke="#000000" d="M 235 401 L 235 418" stroke-miterlimit="10"/></g><g transform="translate(-62,-86) scale(1,1)"><path fill="none" stroke="#000000" d="M 230.790482243984 407.83732514237585 L 235 418 L 239.209517756016 407.83732514237585" stroke-miterlimit="10"/></g><g transform="translate(-62,-86) scale(1,1)"><path fill="none" stroke="#000000" d="M 266 444 L 320 444 L 320 200 L 246 200" stroke-miterlimit="10"/></g><g transform="translate(-62,-86) scale(1,1)"><path fill="none" stroke="#000000" d="M 256.16267485762415 195.790482243984 L 246 200 L 256.16267485762415 204.209517756016" stroke-miterlimit="10"/></g><g transform="translate(-62,-86) scale(1,1)"><path fill="none" stroke="#000000" d="M 224 200 L 104 200 L 104 500 L 223 500" stroke-miterlimit="10"/></g><g transform="translate(-62,-86) scale(1,1)"><path fill="none" stroke="#000000" d="M 212.83732514237585 504.209517756016 L 223 500 L 212.83732514237585 495.790482243984" stroke-miterlimit="10"/></g><g transform="translate(-62,-86) scale(1,1)"><path fill="#C0C0C0" stroke="none" d="M 223 367 L 262 367 Q 272 367 272 377 L 272 397 Q 272 407 262 407 L 223 407 Q 213 407 213 397 L 213 377 Q 213 367 223 367 Z" opacity="0.2"/></g><g transform="translate(-62,-86) scale(1,1)"><path fill="#ffffff" stroke="none" d="M 216 360 L 255 360 Q 265 360 265 370 L 265 390 Q 265 400 255 400 L 216 400 Q 206 400 206 390 L 206 370 Q 206 360 216 360 Z"/></g><g transform="translate(-62,-86) scale(1,1)"><path fill="none" stroke="#000000" d="M 216 360 L 255 360 Q 265 360 265 370 L 265 390 Q 265 400 255 400 L 216 400 Q 206 400 206 390 L 206 370 Q 206 360 216 360 Z" stroke-miterlimit="10"/></g><g transform="translate(-62,-86) scale(1,1)"><g><path fill="none" stroke="none"/><text fill="#000000" stroke="none" font-family="Arial" font-size="13px" font-style="normal" font-weight="bold" text-decoration="none" x="216.7109375" y="379.5">render</text></g></g><g transform="translate(-62,-86) scale(1,1)"><path fill="#ffffff" stroke="none" d="M 136.83544921875 415 L 159.83544921875 415 L 136.83544921875 438 L 159.83544921875 438 L 136.83544921875 415"/></g><g transform="translate(-62,-86) scale(1,1)"><path fill="none" stroke="#000000" d="M 136.83544921875 415 L 159.83544921875 415 L 136.83544921875 438 L 159.83544921875 438 L 136.83544921875 415 L 136.83544921875 415" stroke-miterlimit="10"/></g><g transform="translate(-62,-86) scale(1,1)"><g><path fill="none" stroke="none"/><text fill="#000000" stroke="none" font-family="Arial" font-size="13px" font-style="normal" font-weight="bold" text-decoration="none" x="132.79638671875" y="457.5">sleep</text></g></g><g transform="translate(-62,-86) scale(1,1)"><path fill="#C0C0C0" stroke="none" d="M 230 507.5 C 230 500.59644 235.59644 495 242.5 495 C 249.40356 495 255 500.59644 255 507.5 C 255 514.40356 249.40356 520 242.5 520 C 235.59644 520 230 514.40356 230 507.5 Z" opacity="0.2"/></g><g transform="translate(-62,-86) scale(1,1)"><path fill="none" stroke="#000000" d="M 223 500.5 C 223 493.59644 228.59644 488 235.5 488 C 242.40356 488 248 493.59644 248 500.5 C 248 507.40356 242.40356 513 235.5 513 C 228.59644 513 223 507.40356 223 500.5 Z" stroke-miterlimit="10"/></g><g transform="translate(-62,-86) scale(1,1)"><path fill="#000000" stroke="none" d="M 228 500.5 C 228 496.357864 231.357864 493 235.5 493 C 239.642136 493 243 496.357864 243 500.5 C 243 504.642136 239.642136 508 235.5 508 C 231.357864 508 228 504.642136 228 500.5 Z"/></g></g></svg>