<svg version="1.1" xmlns="http://www.w3.org/2000/svg" xmlns:xlink="http://www.w3.org/1999/xlink" width="526.74169921875" height="213"><defs/><g><g transform="translate(-30,-174) scale(1,1)"><rect fill="#C0C0C0" stroke="none" x="47" y="191" width="120.63623046875" height="57" opacity="0.2"/></g><g transform="translate(-30,-174) scale(1,1)"><rect fill="#ffffff" stroke="none" x="40" y="184" width="120.63623046875" height="57"/></g><g transform="translate(-30,-174) scale(1,1)"><path fill="none" stroke="#000000" d="M 40 184 L 160.63623046875 184 L 160.63623046875 241 L 40 241 L 40 184 Z Z" stroke-miterlimit="10"/></g><g transform="translate(-30,-174) scale(1,1)"><path fill="none" stroke="#000000" d="M 40 209 L 160.63623046875 209" stroke-miterlimit="10"/></g><g transform="translate(-30,-174) scale(1,1)"><path fill="none" stroke="#000000" d="M 40 219 L 160.63623046875 219" stroke-miterlimit="10"/></g><g transform="translate(-30,-174) scale(1,1)"><g><path fill="none" stroke="none"/><text fill="#000000" stroke="none" font-family="Arial" font-size="13px" font-style="normal" font-weight="bold" text-decoration="none" x="77.917236328125" y="203.5">Context</text></g></g><g transform="translate(-30,-174) scale(1,1)"><g><path fill="none" stroke="none"/><text fill="#000000" stroke="none" font-family="Arial" font-size="13px" font-style="normal" font-weight="normal" text-decoration="none" x="45" y="236.5">+ContextInterface()</text></g></g><g transform="translate(-30,-174) scale(1,1)"><rect fill="#C0C0C0" stroke="none" x="288" y="191" width="130.74169921875" height="57" opacity="0.2"/></g><g transform="translate(-30,-174) scale(1,1)"><rect fill="#ffffff" stroke="none" x="281" y="184" width="130.74169921875" height="57"/></g><g transform="translate(-30,-174) scale(1,1)"><path fill="none" stroke="#000000" d="M 281 184 L 411.74169921875 184 L 411.74169921875 241 L 281 241 L 281 184 Z Z" stroke-miterlimit="10"/></g><g transform="translate(-30,-174) scale(1,1)"><path fill="none" stroke="#000000" d="M 281 209 L 411.74169921875 209" stroke-miterlimit="10"/></g><g transform="translate(-30,-174) scale(1,1)"><path fill="none" stroke="#000000" d="M 281 219 L 411.74169921875 219" stroke-miterlimit="10"/></g><g transform="translate(-30,-174) scale(1,1)"><g><path fill="none" stroke="none"/><text fill="#000000" stroke="none" font-family="Arial" font-size="13px" font-style="italic" font-weight="bold" text-decoration="none" x="322.1640625" y="203.5">Strategy</text></g></g><g transform="translate(-30,-174) scale(1,1)"><g><path fill="none" stroke="none"/><text fill="#000000" stroke="none" font-family="Arial" font-size="13px" font-style="italic" font-weight="normal" text-decoration="none" x="286" y="236.5">+AlgorithmInterface()</text></g></g><g transform="translate(-30,-174) scale(1,1)"><rect fill="#C0C0C0" stroke="none" x="151" y="327" width="130.74169921875" height="57" opacity="0.2"/></g><g transform="translate(-30,-174) scale(1,1)"><rect fill="#ffffff" stroke="none" x="144" y="320" width="130.74169921875" height="57"/></g><g transform="translate(-30,-174) scale(1,1)"><path fill="none" stroke="#000000" d="M 144 320 L 274.74169921875 320 L 274.74169921875 377 L 144 377 L 144 320 Z Z" stroke-miterlimit="10"/></g><g transform="translate(-30,-174) scale(1,1)"><path fill="none" stroke="#000000" d="M 144 345 L 274.74169921875 345" stroke-miterlimit="10"/></g><g transform="translate(-30,-174) scale(1,1)"><path fill="none" stroke="#000000" d="M 144 355 L 274.74169921875 355" stroke-miterlimit="10"/></g><g transform="translate(-30,-174) scale(1,1)"><g><path fill="none" stroke="none"/><text fill="#000000" stroke="none" font-family="Arial" font-size="13px" font-style="normal" font-weight="bold" text-decoration="none" x="154.4541015625" y="339.5">ConcreteStrategyA</text></g></g><g transform="translate(-30,-174) scale(1,1)"><g><path fill="none" stroke="none"/><text fill="#000000" stroke="none" font-family="Arial" font-size="13px" font-style="normal" font-weight="normal" text-decoration="none" x="149" y="372.5">+AlgorithmInterface()</text></g></g><g transform="translate(-30,-174) scale(1,1)"><rect fill="#C0C0C0" stroke="none" x="290" y="327" width="127.1298828125" height="57" opacity="0.2"/></g><g transform="translate(-30,-174) scale(1,1)"><rect fill="#ffffff" stroke="none" x="283" y="320" width="127.1298828125" height="57"/></g><g transform="translate(-30,-174) scale(1,1)"><path fill="none" stroke="#000000" d="M 283 320 L 410.1298828125 320 L 410.1298828125 377 L 283 377 L 283 320 Z Z" stroke-miterlimit="10"/></g><g transform="translate(-30,-174) scale(1,1)"><path fill="none" stroke="#000000" d="M 283 345 L 410.1298828125 345" stroke-miterlimit="10"/></g><g transform="translate(-30,-174) scale(1,1)"><path fill="none" stroke="#000000" d="M 283 355 L 410.1298828125 355" stroke-miterlimit="10"/></g><g transform="translate(-30,-174) scale(1,1)"><g><path fill="none" stroke="none"/><text fill="#000000" stroke="none" font-family="Arial" font-size="13px" font-style="normal" font-weight="bold" text-decoration="none" x="291.648193359375" y="339.5">ConcreteStrategyB</text></g></g><g transform="translate(-30,-174) scale(1,1)"><g><path fill="none" stroke="none"/><text fill="#000000" stroke="none" font-family="Arial" font-size="13px" font-style="normal" font-weight="normal" text-decoration="none" x="288" y="372.5">+AlgorithmInterace()</text></g></g><g transform="translate(-30,-174) scale(1,1)"><rect fill="#C0C0C0" stroke="none" x="423" y="327" width="130.74169921875" height="57" opacity="0.2"/></g><g transform="translate(-30,-174) scale(1,1)"><rect fill="#ffffff" stroke="none" x="416" y="320" width="130.74169921875" height="57"/></g><g transform="translate(-30,-174) scale(1,1)"><path fill="none" stroke="#000000" d="M 416 320 L 546.74169921875 320 L 546.74169921875 377 L 416 377 L 416 320 Z Z" stroke-miterlimit="10"/></g><g transform="translate(-30,-174) scale(1,1)"><path fill="none" stroke="#000000" d="M 416 345 L 546.74169921875 345" stroke-miterlimit="10"/></g><g transform="translate(-30,-174) scale(1,1)"><path fill="none" stroke="#000000" d="M 416 355 L 546.74169921875 355" stroke-miterlimit="10"/></g><g transform="translate(-30,-174) scale(1,1)"><g><path fill="none" stroke="none"/><text fill="#000000" stroke="none" font-family="Arial" font-size="13px" font-style="normal" font-weight="bold" text-decoration="none" x="426.095458984375" y="339.5">ConcreteStrategyC</text></g></g><g transform="translate(-30,-174) scale(1,1)"><g><path fill="none" stroke="none"/><text fill="#000000" stroke="none" font-family="Arial" font-size="13px" font-style="normal" font-weight="normal" text-decoration="none" x="421" y="372.5">+AlgorithmInterface()</text></g></g><g transform="translate(-30,-174) scale(1,1)"><path fill="none" stroke="#000000" d="M 280 212 L 162 212" stroke-miterlimit="10"/></g><g transform="translate(-30,-174) scale(1,1)"><path fill="#FFFFFF" stroke="none" d="M 172.16267485762415 207.790482243984 L 162 212 L 172.16267485762415 216.209517756016 L 184 212"/></g><g transform="translate(-30,-174) scale(1,1)"><path fill="none" stroke="#000000" d="M 172.16267485762415 207.790482243984 L 162 212 L 172.16267485762415 216.209517756016 L 184 212 L 172.16267485762415 207.790482243984" stroke-miterlimit="10"/></g><g transform="translate(-30,-174) scale(1,1)"><g><path fill="none" stroke="none"/><text fill="#000000" stroke="none" font-family="Arial" font-size="13px" font-style="normal" font-weight="normal" text-decoration="none" x="224.5" y="203.5">+strategy</text></g></g><g transform="translate(-30,-174) scale(1,1)"><path fill="none" stroke="#000000" d="M 215 320 L 215 288 L 345 288 L 345 241" stroke-miterlimit="10"/></g><g transform="translate(-30,-174) scale(1,1)"><path fill="#FFFFFF" stroke="none" d="M 353.419035512032 261.3253497152483 L 345 241 L 336.580964487968 261.3253497152483"/></g><g transform="translate(-30,-174) scale(1,1)"><path fill="none" stroke="#000000" d="M 353.419035512032 261.3253497152483 L 345 241 L 336.580964487968 261.3253497152483 L 353.419035512032 261.3253497152483" stroke-miterlimit="10"/></g><g transform="translate(-30,-174) scale(1,1)"><path fill="none" stroke="#000000" d="M 344 320 L 344 288 L 345 288 L 345 241" stroke-miterlimit="10"/></g><g transform="translate(-30,-174) scale(1,1)"><path fill="#FFFFFF" stroke="none" d="M 353.419035512032 261.3253497152483 L 345 241 L 336.580964487968 261.3253497152483"/></g><g transform="translate(-30,-174) scale(1,1)"><path fill="none" stroke="#000000" d="M 353.419035512032 261.3253497152483 L 345 241 L 336.580964487968 261.3253497152483 L 353.419035512032 261.3253497152483" stroke-miterlimit="10"/></g><g transform="translate(-30,-174) scale(1,1)"><path fill="none" stroke="#000000" d="M 487 320 L 487 288 L 345 288 L 345 241" stroke-miterlimit="10"/></g><g transform="translate(-30,-174) scale(1,1)"><path fill="#FFFFFF" stroke="none" d="M 353.419035512032 261.3253497152483 L 345 241 L 336.580964487968 261.3253497152483"/></g><g transform="translate(-30,-174) scale(1,1)"><path fill="none" stroke="#000000" d="M 353.419035512032 261.3253497152483 L 345 241 L 336.580964487968 261.3253497152483 L 353.419035512032 261.3253497152483" stroke-miterlimit="10"/></g></g></svg>