<svg xmlns="http://www.w3.org/2000/svg" xmlns:xlink="http://www.w3.org/1999/xlink" xmlns:lucid="lucid" width="1767.6" height="893.7"><g transform="translate(137.14281856842382 -152.09621649989367)" lucid:page-tab-id="hqs9bbuCSnN2"><path d="M203.86 178.1c0-3.32 2.7-6 6-6h257.4c3.3 0 6 2.68 6 6v159c0 3.3-2.7 6-6 6h-257.4c-3.3 0-6-2.7-6-6z" stroke="#fff" stroke-width="3" fill-opacity="0"/><path d="M203.86 214.76h269.4m-269.4 64.17h269.4" stroke="#fff" stroke-width="3" fill="none"/><use xlink:href="#a" transform="matrix(1,0,0,1,211.86111956371434,180.09621649989367) translate(104.19135802469137 17.944444444444443)"/><use xlink:href="#b" transform="matrix(1,0,0,1,215.86111956371434,286.92954983322704) translate(0 28.944444444444443)"/><use xlink:href="#c" transform="matrix(1,0,0,1,215.86111956371434,286.92954983322704) translate(19.1358024691358 28.944444444444443)"/><use xlink:href="#d" transform="matrix(1,0,0,1,215.86111956371434,286.92954983322704) translate(115.37037037037035 28.944444444444443)"/><path d="M203.86 519.44c0-3.3 2.7-6 6-6h257.4c3.3 0 6 2.7 6 6v159c0 3.32-2.7 6-6 6h-257.4c-3.3 0-6-2.68-6-6z" stroke="#fff" stroke-width="3" fill-opacity="0"/><path d="M203.86 556.1h269.4m-269.4 64.18h269.4" stroke="#fff" stroke-width="3" fill="none"/><use xlink:href="#e" transform="matrix(1,0,0,1,211.86111956371434,521.4444444444447) translate(87.18518518518519 17.944444444444443)"/><use xlink:href="#f" transform="matrix(1,0,0,1,215.86111956371434,564.1111111111113) translate(0 28.944444444444443)"/><use xlink:href="#g" transform="matrix(1,0,0,1,215.86111956371434,564.1111111111113) translate(13.518518518518519 28.944444444444443)"/><use xlink:href="#h" transform="matrix(1,0,0,1,215.86111956371434,564.1111111111113) translate(75.18518518518519 28.944444444444443)"/><use xlink:href="#i" transform="matrix(1,0,0,1,215.86111956371434,564.1111111111113) translate(87.53086419753087 28.944444444444443)"/><use xlink:href="#j" transform="matrix(1,0,0,1,215.86111956371434,628.2777777777779) translate(0 28.944444444444443)"/><use xlink:href="#k" transform="matrix(1,0,0,1,215.86111956371434,628.2777777777779) translate(19.1358024691358 28.944444444444443)"/><use xlink:href="#l" transform="matrix(1,0,0,1,215.86111956371434,628.2777777777779) translate(115.37037037037035 28.944444444444443)"/><path d="M524.87 519.44c0-3.3 2.68-6 6-6h257.38c3.32 0 6 2.7 6 6v159c0 3.32-2.68 6-6 6H530.87c-3.32 0-6-2.68-6-6z" stroke="#fff" stroke-width="3" fill-opacity="0"/><path d="M524.87 556.1h269.38M524.87 620.3h269.38" stroke="#fff" stroke-width="3" fill="none"/><use xlink:href="#m" transform="matrix(1,0,0,1,532.8650576958526,521.4444444444447) translate(72.77160493827161 17.944444444444443)"/><path d="M-117.14 517.44c0-3.3 2.68-6 6-6h257.4c3.3 0 6 2.7 6 6v159c0 3.32-2.7 6-6 6h-257.4c-3.32 0-6-2.68-6-6z" stroke="#fff" stroke-width="3" fill-opacity="0"/><path d="M-117.14 554.1h269.4m-269.4 64.18h269.4" stroke="#fff" stroke-width="3" fill="none"/><use xlink:href="#n" transform="matrix(1,0,0,1,-109.14281856842382,519.4444444444447) translate(87.58641975308642 17.944444444444443)"/><use xlink:href="#f" transform="matrix(1,0,0,1,-105.14281856842382,562.1111111111113) translate(0 28.944444444444443)"/><use xlink:href="#o" transform="matrix(1,0,0,1,-105.14281856842382,562.1111111111113) translate(13.518518518518519 28.944444444444443)"/><use xlink:href="#h" transform="matrix(1,0,0,1,-105.14281856842382,562.1111111111113) translate(72.71604938271605 28.944444444444443)"/><use xlink:href="#p" transform="matrix(1,0,0,1,-105.14281856842382,562.1111111111113) translate(85.06172839506173 28.944444444444443)"/><use xlink:href="#j" transform="matrix(1,0,0,1,-105.14281856842382,626.2777777777779) translate(0 28.944444444444443)"/><use xlink:href="#k" transform="matrix(1,0,0,1,-105.14281856842382,626.2777777777779) translate(19.1358024691358 28.944444444444443)"/><use xlink:href="#l" transform="matrix(1,0,0,1,-105.14281856842382,626.2777777777779) translate(115.37037037037035 28.944444444444443)"/><path d="M364.87 860.8c0-3.32 2.68-6 6-6h257.38c3.32 0 6 2.68 6 6v159c0 3.3-2.68 6-6 6H370.87c-3.32 0-6-2.7-6-6z" stroke="#fff" stroke-width="3" fill-opacity="0"/><path d="M364.87 897.46h269.38m-269.38 64.17h269.38" stroke="#fff" stroke-width="3" fill="none"/><use xlink:href="#q" transform="matrix(1,0,0,1,372.8650576958526,862.7926723889957) translate(107.24691358024691 17.944444444444443)"/><use xlink:href="#j" transform="matrix(1,0,0,1,376.8650576958526,969.626005722329) translate(0 28.944444444444443)"/><use xlink:href="#k" transform="matrix(1,0,0,1,376.8650576958526,969.626005722329) translate(19.1358024691358 28.944444444444443)"/><use xlink:href="#l" transform="matrix(1,0,0,1,376.8650576958526,969.626005722329) translate(115.37037037037035 28.944444444444443)"/><path d="M685.98 860.8c0-3.32 2.68-6 6-6h257.4c3.3 0 6 2.68 6 6v159c0 3.3-2.7 6-6 6h-257.4c-3.32 0-6-2.7-6-6z" stroke="#fff" stroke-width="3" fill-opacity="0"/><path d="M685.98 897.46h269.4m-269.4 64.17h269.4" stroke="#fff" stroke-width="3" fill="none"/><use xlink:href="#r" transform="matrix(1,0,0,1,693.9753789727365,862.7926723889957) translate(106.07407407407408 17.944444444444443)"/><use xlink:href="#j" transform="matrix(1,0,0,1,697.9753789727365,969.626005722329) translate(0 28.944444444444443)"/><use xlink:href="#k" transform="matrix(1,0,0,1,697.9753789727365,969.626005722329) translate(19.1358024691358 28.944444444444443)"/><use xlink:href="#l" transform="matrix(1,0,0,1,697.9753789727365,969.626005722329) translate(115.37037037037035 28.944444444444443)"/><path d="M499.56 851.8V775.6c0-3.32 2.7-6 6-6h148c3.3 0 6-2.7 6-6v-51.7" stroke="#fff" stroke-width="3" fill="none"/><path d="M501.06 853.3h-3v-1.55h3z" stroke="#fff" stroke-width=".05" fill="#fff"/><path d="M659.56 688.9l12.73 21.5h-25.47z" stroke="#fff" stroke-width="3" fill="#fff"/><path d="M820.67 851.8V775.6c0-3.32-2.7-6-6-6h-149.1c-3.32 0-6-2.7-6-6v-51.7" stroke="#fff" stroke-width="3" fill="none"/><path d="M822.17 853.3h-3v-1.55h3z" stroke="#fff" stroke-width=".05" fill="#fff"/><path d="M659.56 688.9l12.73 21.5h-25.47z" stroke="#fff" stroke-width="3" fill="#fff"/><path d="M659.56 510.44v-76.17c0-3.3-2.7-6-6-6h-309c-3.32 0-6-2.7-6-6v-51.7" stroke="#fff" stroke-width="3" fill="none"/><path d="M661.06 511.94h-3v-1.53h3z" stroke="#fff" stroke-width=".05" fill="#fff"/><path d="M338.56 347.54l12.72 21.52h-25.45z" stroke="#fff" stroke-width="3" fill="#fff"/><path d="M17.55 508.44v-75.17c0-3.3 2.7-6 6-6h309c3.32 0 6-2.7 6-6v-50.7" stroke="#fff" stroke-width="3" fill="none"/><path d="M19.05 509.94h-3v-1.53h3z" stroke="#fff" stroke-width=".05" fill="#fff"/><path d="M338.56 347.54l12.72 21.52h-25.45z" stroke="#fff" stroke-width="3" fill="#fff"/><path d="M707.63 510.44V298.68c0-3.3-2.7-6-6-6H477.48" stroke="#fff" stroke-width="3" fill="none"/><path d="M709.13 511.94h-3v-1.53h3z" stroke="#fff" stroke-width=".05" fill="#fff"/><path d="M494.9 282.5l-17.2 10.18 17.2 10.18" stroke="#fff" stroke-width="3" fill="none"/><use xlink:href="#s" transform="matrix(1,0,0,1,496.1260650760223,257.16498113202204) translate(0 14.222222222222223)"/><path d="M756.27 510.44V222.92c0-3.3-2.68-6-6-6h-272.8" stroke="#fff" stroke-width="3" fill="none"/><path d="M757.77 511.94h-3v-1.53h3z" stroke="#fff" stroke-width=".05" fill="#fff"/><path d="M494.9 206.74l-17.2 10.18 17.2 10.18" stroke="#fff" stroke-width="3" fill="none"/><use xlink:href="#t" transform="matrix(1,0,0,1,494.12063183010184,181.40964206851868) translate(0 14.222222222222223)"/><path d="M1174 178.1c0-3.32 2.7-6 6-6h257.4c3.32 0 6 2.68 6 6v239c0 3.3-2.68 6-6 6H1180c-3.3 0-6-2.7-6-6z" stroke="#fff" stroke-width="3" fill-opacity="0"/><path d="M1174 214.76h269.4M1174 278.93h269.4" stroke="#fff" stroke-width="3" fill="none"/><use xlink:href="#u" transform="matrix(1,0,0,1,1182.0141191947607,180.09621649989367) translate(96.44444444444444 17.944444444444443)"/><use xlink:href="#b" transform="matrix(1,0,0,1,1186.0141191947607,286.92954983322704) translate(0 28.94444444444445)"/><use xlink:href="#v" transform="matrix(1,0,0,1,1186.0141191947607,286.92954983322704) translate(19.1358024691358 28.94444444444445)"/><use xlink:href="#w" transform="matrix(1,0,0,1,1186.0141191947607,286.92954983322704) translate(83.14814814814814 28.94444444444445)"/><use xlink:href="#x" transform="matrix(1,0,0,1,1186.0141191947607,286.92954983322704) translate(95.49382716049382 28.94444444444445)"/><use xlink:href="#b" transform="matrix(1,0,0,1,1186.0141191947607,286.92954983322704) translate(0 55.61111111111112)"/><use xlink:href="#y" transform="matrix(1,0,0,1,1186.0141191947607,286.92954983322704) translate(19.1358024691358 55.61111111111112)"/><use xlink:href="#z" transform="matrix(1,0,0,1,1186.0141191947607,286.92954983322704) translate(88.08641975308642 55.61111111111112)"/><use xlink:href="#b" transform="matrix(1,0,0,1,1186.0141191947607,286.92954983322704) translate(0 82.27777777777777)"/><use xlink:href="#A" transform="matrix(1,0,0,1,1186.0141191947607,286.92954983322704) translate(19.1358024691358 82.27777777777777)"/><use xlink:href="#w" transform="matrix(1,0,0,1,1186.0141191947607,286.92954983322704) translate(89.25925925925925 82.27777777777777)"/><use xlink:href="#B" transform="matrix(1,0,0,1,1186.0141191947607,286.92954983322704) translate(101.60493827160494 82.27777777777777)"/><use xlink:href="#b" transform="matrix(1,0,0,1,1186.0141191947607,286.92954983322704) translate(0 108.94444444444446)"/><use xlink:href="#C" transform="matrix(1,0,0,1,1186.0141191947607,286.92954983322704) translate(19.1358024691358 108.94444444444446)"/><use xlink:href="#w" transform="matrix(1,0,0,1,1186.0141191947607,286.92954983322704) translate(83.14814814814814 108.94444444444446)"/><use xlink:href="#D" transform="matrix(1,0,0,1,1186.0141191947607,286.92954983322704) translate(95.49382716049382 108.94444444444446)"/><path d="M1014 517.44c0-3.3 2.7-6 6-6h257.4c3.32 0 6 2.7 6 6v266c0 3.32-2.68 6-6 6H1020c-3.3 0-6-2.68-6-6z" stroke="#fff" stroke-width="3" fill-opacity="0"/><path d="M1014 554.1h269.4M1014 644.95h269.4" stroke="#fff" stroke-width="3" fill="none"/><g><use xlink:href="#E" transform="matrix(1,0,0,1,1022.0141191947607,519.4444444444447) translate(44.654320987654344 17.944444444444443)"/></g><g><use xlink:href="#f" transform="matrix(1,0,0,1,1026.0141191947607,562.1111111111113) translate(0 28.611111111111114)"/><use xlink:href="#F" transform="matrix(1,0,0,1,1026.0141191947607,562.1111111111113) translate(13.518518518518519 28.611111111111114)"/><use xlink:href="#h" transform="matrix(1,0,0,1,1026.0141191947607,562.1111111111113) translate(55.49382716049383 28.611111111111114)"/><use xlink:href="#G" transform="matrix(1,0,0,1,1026.0141191947607,562.1111111111113) translate(67.8395061728395 28.611111111111114)"/><use xlink:href="#H" transform="matrix(1,0,0,1,1026.0141191947607,562.1111111111113) translate(0 55.27777777777778)"/><use xlink:href="#I" transform="matrix(1,0,0,1,1026.0141191947607,562.1111111111113) translate(13.518518518518519 55.27777777777778)"/><use xlink:href="#h" transform="matrix(1,0,0,1,1026.0141191947607,562.1111111111113) translate(50.49382716049383 55.27777777777778)"/><use xlink:href="#p" transform="matrix(1,0,0,1,1026.0141191947607,562.1111111111113) translate(62.839506172839506 55.27777777777778)"/></g><g><use xlink:href="#j" transform="matrix(1,0,0,1,1026.0141191947607,652.9444444444447) translate(0 28.94444444444445)"/><use xlink:href="#J" transform="matrix(1,0,0,1,1026.0141191947607,652.9444444444447) translate(19.1358024691358 28.94444444444445)"/><use xlink:href="#h" transform="matrix(1,0,0,1,1026.0141191947607,652.9444444444447) translate(83.14814814814814 28.94444444444445)"/><use xlink:href="#K" transform="matrix(1,0,0,1,1026.0141191947607,652.9444444444447) translate(95.49382716049382 28.94444444444445)"/><use xlink:href="#j" transform="matrix(1,0,0,1,1026.0141191947607,652.9444444444447) translate(0 55.61111111111112)"/><use xlink:href="#L" transform="matrix(1,0,0,1,1026.0141191947607,652.9444444444447) translate(19.1358024691358 55.61111111111112)"/><use xlink:href="#M" transform="matrix(1,0,0,1,1026.0141191947607,652.9444444444447) translate(88.08641975308642 55.61111111111112)"/><use xlink:href="#j" transform="matrix(1,0,0,1,1026.0141191947607,652.9444444444447) translate(0 82.27777777777777)"/><use xlink:href="#N" transform="matrix(1,0,0,1,1026.0141191947607,652.9444444444447) translate(19.1358024691358 82.27777777777777)"/><use xlink:href="#h" transform="matrix(1,0,0,1,1026.0141191947607,652.9444444444447) translate(89.25925925925925 82.27777777777777)"/><use xlink:href="#O" transform="matrix(1,0,0,1,1026.0141191947607,652.9444444444447) translate(101.60493827160494 82.27777777777777)"/><use xlink:href="#j" transform="matrix(1,0,0,1,1026.0141191947607,652.9444444444447) translate(0 108.94444444444446)"/><use xlink:href="#P" transform="matrix(1,0,0,1,1026.0141191947607,652.9444444444447) translate(19.1358024691358 108.94444444444446)"/><use xlink:href="#h" transform="matrix(1,0,0,1,1026.0141191947607,652.9444444444447) translate(83.14814814814814 108.94444444444446)"/><use xlink:href="#Q" transform="matrix(1,0,0,1,1026.0141191947607,652.9444444444447) translate(95.49382716049382 108.94444444444446)"/></g><path d="M1148.7 508.44v-35.17c0-3.3 2.7-6 6-6h148c3.32 0 6-2.7 6-6v-10.7" stroke="#fff" stroke-width="3" fill="none"/><path d="M1150.2 509.94h-3v-1.53h3z" stroke="#fff" stroke-width=".05" fill="#fff"/><path d="M1308.7 427.54l12.73 21.52h-25.45z" stroke="#fff" stroke-width="3" fill="#fff"/><path d="M1341.07 519.44c0-3.3 2.7-6 6-6h257.4c3.3 0 6 2.7 6 6v239c0 3.32-2.7 6-6 6h-257.4c-3.3 0-6-2.68-6-6z" stroke="#fff" stroke-width="3" fill-opacity="0"/><path d="M1341.07 556.1h269.4m-269.4 64.18h269.4" stroke="#fff" stroke-width="3" fill="none"/><g><use xlink:href="#R" transform="matrix(1,0,0,1,1349.072138075451,521.4444444444447) translate(43.48148148148151 17.944444444444443)"/></g><g><use xlink:href="#f" transform="matrix(1,0,0,1,1353.072138075451,564.1111111111113) translate(0 28.944444444444443)"/><use xlink:href="#I" transform="matrix(1,0,0,1,1353.072138075451,564.1111111111113) translate(13.518518518518519 28.944444444444443)"/><use xlink:href="#h" transform="matrix(1,0,0,1,1353.072138075451,564.1111111111113) translate(50.49382716049383 28.944444444444443)"/><use xlink:href="#i" transform="matrix(1,0,0,1,1353.072138075451,564.1111111111113) translate(62.839506172839506 28.944444444444443)"/></g><g><use xlink:href="#j" transform="matrix(1,0,0,1,1353.072138075451,628.2777777777779) translate(0 28.94444444444445)"/><use xlink:href="#J" transform="matrix(1,0,0,1,1353.072138075451,628.2777777777779) translate(19.1358024691358 28.94444444444445)"/><use xlink:href="#h" transform="matrix(1,0,0,1,1353.072138075451,628.2777777777779) translate(83.14814814814814 28.94444444444445)"/><use xlink:href="#K" transform="matrix(1,0,0,1,1353.072138075451,628.2777777777779) translate(95.49382716049382 28.94444444444445)"/><use xlink:href="#j" transform="matrix(1,0,0,1,1353.072138075451,628.2777777777779) translate(0 55.61111111111112)"/><use xlink:href="#L" transform="matrix(1,0,0,1,1353.072138075451,628.2777777777779) translate(19.1358024691358 55.61111111111112)"/><use xlink:href="#M" transform="matrix(1,0,0,1,1353.072138075451,628.2777777777779) translate(88.08641975308642 55.61111111111112)"/><use xlink:href="#j" transform="matrix(1,0,0,1,1353.072138075451,628.2777777777779) translate(0 82.27777777777777)"/><use xlink:href="#N" transform="matrix(1,0,0,1,1353.072138075451,628.2777777777779) translate(19.1358024691358 82.27777777777777)"/><use xlink:href="#h" transform="matrix(1,0,0,1,1353.072138075451,628.2777777777779) translate(89.25925925925925 82.27777777777777)"/><use xlink:href="#O" transform="matrix(1,0,0,1,1353.072138075451,628.2777777777779) translate(101.60493827160494 82.27777777777777)"/><use xlink:href="#j" transform="matrix(1,0,0,1,1353.072138075451,628.2777777777779) translate(0 108.94444444444446)"/><use xlink:href="#P" transform="matrix(1,0,0,1,1353.072138075451,628.2777777777779) translate(19.1358024691358 108.94444444444446)"/><use xlink:href="#h" transform="matrix(1,0,0,1,1353.072138075451,628.2777777777779) translate(83.14814814814814 108.94444444444446)"/><use xlink:href="#Q" transform="matrix(1,0,0,1,1353.072138075451,628.2777777777779) translate(95.49382716049382 108.94444444444446)"/></g><path d="M1475.77 510.44v-36.17c0-3.3-2.7-6-6-6H1314.7c-3.3 0-6-2.7-6-6v-11.7" stroke="#fff" stroke-width="3" fill="none"/><path d="M1477.27 511.94h-3v-1.53h3z" stroke="#fff" stroke-width=".05" fill="#fff"/><path d="M1308.7 427.54l12.73 21.52h-25.45z" stroke="#fff" stroke-width="3" fill="#fff"/><defs><path fill="#fff" d="M11 0l48-248h184l-5 28H87l-15 79h140l-5 27H67L50-27h158l-5 27H11" id="S"/><path fill="#fff" d="M124 0L87-78 21 0h-35l86-98-46-92h33l34 74 61-74h37l-83 92 50 98h-34" id="T"/><path fill="#fff" d="M67-162c32-53 139-36 121 50C175-51 163 2 97 4 68 4 52-11 42-31 38 6 28 39 22 75H-9l50-265h29c-1 10 0 20-3 28zm89 36c0-26-10-43-35-43-54 0-67 50-69 103-1 29 14 45 42 46 53 0 62-58 62-106" id="U"/><path fill="#fff" d="M66-151c12-25 30-51 66-40l-6 26C45-176 58-65 38 0H6l36-190h30" id="V"/><g id="a"><use transform="matrix(0.06172839506172839,0,0,0.06172839506172839,0,0)" xlink:href="#S"/><use transform="matrix(0.06172839506172839,0,0,0.06172839506172839,14.814814814814813,0)" xlink:href="#T"/><use transform="matrix(0.06172839506172839,0,0,0.06172839506172839,25.925925925925924,0)" xlink:href="#U"/><use transform="matrix(0.06172839506172839,0,0,0.06172839506172839,38.2716049382716,0)" xlink:href="#V"/></g><path fill="#fff" d="M123-107v75H97v-75H23v-26h74v-75h26v75h75v26h-75" id="W"/><use transform="matrix(0.06172839506172839,0,0,0.06172839506172839,0,0)" xlink:href="#W" id="b"/><path fill="#fff" d="M165-48c-4 18 1 34 23 27l-3 20c-29 8-62 0-52-35h-2C116-14 99 4 63 4 30 4 8-16 8-49c0-68 71-67 138-67 10-26 0-56-31-54-26 1-42 9-47 31l-32-5c8-67 160-71 144 15-5 28-9 54-15 81zM42-50c3 52 80 24 89-6 7-12 7-24 11-38-47 1-103-4-100 44" id="X"/><path fill="#fff" d="M44-68c0 29 11 47 38 47 30 0 42-19 51-41l28 9C148-21 126 4 82 4 31 4 10-29 12-85c3-77 74-140 146-93 12 8 15 23 18 40l-31 5c-1-22-13-36-36-36-52 0-65 49-65 101" id="Y"/><path fill="#fff" d="M111-194c62-3 86 47 72 106H45c-7 38 6 69 45 68 27-1 43-14 53-32l24 11C152-15 129 4 87 4 38 3 12-23 12-71c0-70 32-119 99-123zm44 81c14-66-71-72-95-28-4 8-8 17-11 28h106" id="Z"/><path fill="#fff" d="M51-54c-9 22 5 41 31 30L79-1C43 14 10-4 19-52l22-115H19l5-23h22l19-43h21l-9 43h35l-4 23H73" id="aa"/><path fill="#fff" d="M17-49c1-102 45-165 103-212h30C92-210 49-145 49-46 49 4 63 43 85 75H54C30 43 18 2 17-49" id="ab"/><path fill="#fff" d="M89 0H52L20-190h33L74-25l89-165h34" id="ac"/><path fill="#fff" d="M44-154l7-36h35l-8 36H44zM14 0l7-36h35L49 0H14" id="ad"/><g id="c"><use transform="matrix(0.06172839506172839,0,0,0.06172839506172839,0,0)" xlink:href="#X"/><use transform="matrix(0.06172839506172839,0,0,0.06172839506172839,12.345679012345679,0)" xlink:href="#Y"/><use transform="matrix(0.06172839506172839,0,0,0.06172839506172839,23.45679012345679,0)" xlink:href="#Y"/><use transform="matrix(0.06172839506172839,0,0,0.06172839506172839,34.5679012345679,0)" xlink:href="#Z"/><use transform="matrix(0.06172839506172839,0,0,0.06172839506172839,46.913580246913575,0)" xlink:href="#U"/><use transform="matrix(0.06172839506172839,0,0,0.06172839506172839,59.25925925925925,0)" xlink:href="#aa"/><use transform="matrix(0.06172839506172839,0,0,0.06172839506172839,65.43209876543209,0)" xlink:href="#ab"/><use transform="matrix(0.06172839506172839,0,0,0.06172839506172839,72.77777777777777,0)" xlink:href="#ac"/><use transform="matrix(0.06172839506172839,0,0,0.06172839506172839,83.88888888888889,0)" xlink:href="#ad"/></g><path fill="#fff" d="M119 0H84L31-248h34l41 218 126-218h36" id="ae"/><path fill="#fff" d="M50-231l6-30h32l-6 30H50zM6 0l37-190h31L37 0H6" id="af"/><path fill="#fff" d="M55-144c13 50 104 24 104 88C159 21 15 23 1-39l26-10c6 40 102 42 102-4-13-50-104-23-104-87 0-71 143-71 148-8l-29 4c-5-35-85-37-89 0" id="ag"/><path fill="#fff" d="M30-147c31-64 166-65 159 27C183-49 158 1 86 4 9 8 1-88 30-147zM88-20c53 0 68-48 68-100 0-31-11-51-44-50-52 1-68 46-68 97 0 32 13 53 44 53" id="ah"/><path fill="#fff" d="M98-137C97-35 54 29-4 75h-31C23 23 67-41 67-140c0-50-15-89-37-121h31c24 32 36 73 37 124" id="ai"/><g id="d"><use transform="matrix(0.06172839506172839,0,0,0.06172839506172839,0,0)" xlink:href="#ae"/><use transform="matrix(0.06172839506172839,0,0,0.06172839506172839,14.382716049382715,0)" xlink:href="#af"/><use transform="matrix(0.06172839506172839,0,0,0.06172839506172839,19.25925925925926,0)" xlink:href="#ag"/><use transform="matrix(0.06172839506172839,0,0,0.06172839506172839,30.37037037037037,0)" xlink:href="#af"/><use transform="matrix(0.06172839506172839,0,0,0.06172839506172839,35.24691358024691,0)" xlink:href="#aa"/><use transform="matrix(0.06172839506172839,0,0,0.06172839506172839,41.41975308641975,0)" xlink:href="#ah"/><use transform="matrix(0.06172839506172839,0,0,0.06172839506172839,53.76543209876543,0)" xlink:href="#V"/><use transform="matrix(0.06172839506172839,0,0,0.06172839506172839,61.11111111111111,0)" xlink:href="#ai"/></g><path fill="#fff" d="M137 0h-34L2-248h35l83 218 83-218h36" id="aj"/><path fill="#fff" d="M141-36C126-15 110 5 73 4 37 3 15-17 15-53c-1-64 63-63 125-63 3-35-9-54-41-54-24 1-41 7-42 31l-33-3c5-37 33-52 76-52 45 0 72 20 72 64v82c-1 20 7 32 28 27v20c-31 9-61-2-59-35zM48-53c0 20 12 33 32 33 41-3 63-29 60-74-43 2-92-5-92 41" id="ak"/><path fill="#fff" d="M114-163C36-179 61-72 57 0H25l-1-190h30c1 12-1 29 2 39 6-27 23-49 58-41v29" id="al"/><path fill="#fff" d="M24-231v-30h32v30H24zM24 0v-190h32V0H24" id="am"/><path fill="#fff" d="M115-194c53 0 69 39 70 98 0 66-23 100-70 100C84 3 66-7 56-30L54 0H23l1-261h32v101c10-23 28-34 59-34zm-8 174c40 0 45-34 45-75 0-40-5-75-45-74-42 0-51 32-51 76 0 43 10 73 51 73" id="an"/><path fill="#fff" d="M24 0v-261h32V0H24" id="ao"/><path fill="#fff" d="M100-194c63 0 86 42 84 106H49c0 40 14 67 53 68 26 1 43-12 49-29l28 8c-11 28-37 45-77 45C44 4 14-33 15-96c1-61 26-98 85-98zm52 81c6-60-76-77-97-28-3 7-6 17-6 28h103" id="ap"/><g id="e"><use transform="matrix(0.06172839506172839,0,0,0.06172839506172839,0,0)" xlink:href="#aj"/><use transform="matrix(0.06172839506172839,0,0,0.06172839506172839,13.148148148148147,0)" xlink:href="#ak"/><use transform="matrix(0.06172839506172839,0,0,0.06172839506172839,25.493827160493826,0)" xlink:href="#al"/><use transform="matrix(0.06172839506172839,0,0,0.06172839506172839,32.839506172839506,0)" xlink:href="#am"/><use transform="matrix(0.06172839506172839,0,0,0.06172839506172839,37.71604938271605,0)" xlink:href="#ak"/><use transform="matrix(0.06172839506172839,0,0,0.06172839506172839,50.06172839506173,0)" xlink:href="#an"/><use transform="matrix(0.06172839506172839,0,0,0.06172839506172839,62.407407407407405,0)" xlink:href="#ao"/><use transform="matrix(0.06172839506172839,0,0,0.06172839506172839,67.28395061728395,0)" xlink:href="#ap"/></g><path fill="#fff" d="M16-82v-28h88v28H16" id="aq"/><use transform="matrix(0.06172839506172839,0,0,0.06172839506172839,0,0)" xlink:href="#aq" id="f"/><path fill="#fff" d="M117-194c89-4 53 116 60 194h-32v-121c0-31-8-49-39-48C34-167 62-67 57 0H25l-1-190h30c1 10-1 24 2 32 11-22 29-35 61-36" id="ar"/><path fill="#fff" d="M210-169c-67 3-38 105-44 169h-31v-121c0-29-5-50-35-48C34-165 62-65 56 0H25l-1-190h30c1 10-1 24 2 32 10-44 99-50 107 0 11-21 27-35 58-36 85-2 47 119 55 194h-31v-121c0-29-5-49-35-48" id="as"/><g id="g"><use transform="matrix(0.06172839506172839,0,0,0.06172839506172839,0,0)" xlink:href="#ar"/><use transform="matrix(0.06172839506172839,0,0,0.06172839506172839,12.345679012345679,0)" xlink:href="#ak"/><use transform="matrix(0.06172839506172839,0,0,0.06172839506172839,24.691358024691358,0)" xlink:href="#as"/><use transform="matrix(0.06172839506172839,0,0,0.06172839506172839,43.148148148148145,0)" xlink:href="#ap"/></g><path fill="#fff" d="M33-154v-36h34v36H33zM33 0v-36h34V0H33" id="at"/><use transform="matrix(0.06172839506172839,0,0,0.06172839506172839,0,0)" xlink:href="#at" id="h"/><path fill="#fff" d="M185-189c-5-48-123-54-124 2 14 75 158 14 163 119 3 78-121 87-175 55-17-10-28-26-33-46l33-7c5 56 141 63 141-1 0-78-155-14-162-118-5-82 145-84 179-34 5 7 8 16 11 25" id="au"/><path fill="#fff" d="M59-47c-2 24 18 29 38 22v24C64 9 27 4 27-40v-127H5v-23h24l9-43h21v43h35v23H59v120" id="av"/><path fill="#fff" d="M177-190C167-65 218 103 67 71c-23-6-38-20-44-43l32-5c15 47 100 32 89-28v-30C133-14 115 1 83 1 29 1 15-40 15-95c0-56 16-97 71-98 29-1 48 16 59 35 1-10 0-23 2-32h30zM94-22c36 0 50-32 50-73 0-42-14-75-50-75-39 0-46 34-46 75s6 73 46 73" id="aw"/><g id="i"><use transform="matrix(0.06172839506172839,0,0,0.06172839506172839,0,0)" xlink:href="#au"/><use transform="matrix(0.06172839506172839,0,0,0.06172839506172839,14.814814814814813,0)" xlink:href="#av"/><use transform="matrix(0.06172839506172839,0,0,0.06172839506172839,20.98765432098765,0)" xlink:href="#al"/><use transform="matrix(0.06172839506172839,0,0,0.06172839506172839,28.33333333333333,0)" xlink:href="#am"/><use transform="matrix(0.06172839506172839,0,0,0.06172839506172839,33.20987654320987,0)" xlink:href="#ar"/><use transform="matrix(0.06172839506172839,0,0,0.06172839506172839,45.55555555555555,0)" xlink:href="#aw"/></g><path fill="#fff" d="M118-107v75H92v-75H18v-26h74v-75h26v75h74v26h-74" id="ax"/><use transform="matrix(0.06172839506172839,0,0,0.06172839506172839,0,0)" xlink:href="#ax" id="j"/><path fill="#fff" d="M96-169c-40 0-48 33-48 73s9 75 48 75c24 0 41-14 43-38l32 2c-6 37-31 61-74 61-59 0-76-41-82-99-10-93 101-131 147-64 4 7 5 14 7 22l-32 3c-4-21-16-35-41-35" id="ay"/><path fill="#fff" d="M115-194c55 1 70 41 70 98S169 2 115 4C84 4 66-9 55-30l1 105H24l-1-265h31l2 30c10-21 28-34 59-34zm-8 174c40 0 45-34 45-75s-6-73-45-74c-42 0-51 32-51 76 0 43 10 73 51 73" id="az"/><path fill="#fff" d="M87 75C49 33 22-17 22-94c0-76 28-126 65-167h31c-38 41-64 92-64 168S80 34 118 75H87" id="aA"/><path fill="#fff" d="M108 0H70L1-190h34L89-25l56-165h34" id="aB"/><g id="k"><use transform="matrix(0.06172839506172839,0,0,0.06172839506172839,0,0)" xlink:href="#ak"/><use transform="matrix(0.06172839506172839,0,0,0.06172839506172839,12.345679012345679,0)" xlink:href="#ay"/><use transform="matrix(0.06172839506172839,0,0,0.06172839506172839,23.45679012345679,0)" xlink:href="#ay"/><use transform="matrix(0.06172839506172839,0,0,0.06172839506172839,34.5679012345679,0)" xlink:href="#ap"/><use transform="matrix(0.06172839506172839,0,0,0.06172839506172839,46.913580246913575,0)" xlink:href="#az"/><use transform="matrix(0.06172839506172839,0,0,0.06172839506172839,59.25925925925925,0)" xlink:href="#av"/><use transform="matrix(0.06172839506172839,0,0,0.06172839506172839,65.43209876543209,0)" xlink:href="#aA"/><use transform="matrix(0.06172839506172839,0,0,0.06172839506172839,72.77777777777777,0)" xlink:href="#aB"/><use transform="matrix(0.06172839506172839,0,0,0.06172839506172839,83.88888888888889,0)" xlink:href="#at"/></g><path fill="#fff" d="M135-143c-3-34-86-38-87 0 15 53 115 12 119 90S17 21 10-45l28-5c4 36 97 45 98 0-10-56-113-15-118-90-4-57 82-63 122-42 12 7 21 19 24 35" id="aC"/><path fill="#fff" d="M100-194c62-1 85 37 85 99 1 63-27 99-86 99S16-35 15-95c0-66 28-99 85-99zM99-20c44 1 53-31 53-75 0-43-8-75-51-75s-53 32-53 75 10 74 51 75" id="aD"/><path fill="#fff" d="M33-261c38 41 65 92 65 168S71 34 33 75H2C39 34 66-17 66-93S39-220 2-261h31" id="aE"/><g id="l"><use transform="matrix(0.06172839506172839,0,0,0.06172839506172839,0,0)" xlink:href="#aj"/><use transform="matrix(0.06172839506172839,0,0,0.06172839506172839,14.382716049382715,0)" xlink:href="#am"/><use transform="matrix(0.06172839506172839,0,0,0.06172839506172839,19.25925925925926,0)" xlink:href="#aC"/><use transform="matrix(0.06172839506172839,0,0,0.06172839506172839,30.37037037037037,0)" xlink:href="#am"/><use transform="matrix(0.06172839506172839,0,0,0.06172839506172839,35.24691358024691,0)" xlink:href="#av"/><use transform="matrix(0.06172839506172839,0,0,0.06172839506172839,41.41975308641975,0)" xlink:href="#aD"/><use transform="matrix(0.06172839506172839,0,0,0.06172839506172839,53.76543209876543,0)" xlink:href="#al"/><use transform="matrix(0.06172839506172839,0,0,0.06172839506172839,61.11111111111111,0)" xlink:href="#aE"/></g><path fill="#fff" d="M219-77C219 17 104-2 11 0l48-248c73 2 169-15 169 57 0 38-24 54-60 60 29 5 51 21 51 54zm-26-111c0-44-62-31-105-33l-16 79c55 0 121 9 121-46zm-7 110c-1-49-69-36-119-38L50-27c61-1 137 12 136-51" id="aF"/><path fill="#fff" d="M67-158c22-48 132-52 116 29L158 0h-32l25-140c3-38-53-32-70-12C52-117 51-52 38 0H6l36-190h30" id="aG"/><path fill="#fff" d="M198-190L69 30C53 58 25 83-20 72c4-11-1-27 19-22 33-1 43-29 59-52L20-190h32L79-34l84-156h35" id="aH"/><g id="m"><use transform="matrix(0.06172839506172839,0,0,0.06172839506172839,0,0)" xlink:href="#aF"/><use transform="matrix(0.06172839506172839,0,0,0.06172839506172839,14.814814814814813,0)" xlink:href="#af"/><use transform="matrix(0.06172839506172839,0,0,0.06172839506172839,19.691358024691354,0)" xlink:href="#aG"/><use transform="matrix(0.06172839506172839,0,0,0.06172839506172839,32.03703703703703,0)" xlink:href="#X"/><use transform="matrix(0.06172839506172839,0,0,0.06172839506172839,44.38271604938271,0)" xlink:href="#V"/><use transform="matrix(0.06172839506172839,0,0,0.06172839506172839,51.728395061728385,0)" xlink:href="#aH"/><use transform="matrix(0.06172839506172839,0,0,0.06172839506172839,62.83950617283949,0)" xlink:href="#S"/><use transform="matrix(0.06172839506172839,0,0,0.06172839506172839,77.6543209876543,0)" xlink:href="#T"/><use transform="matrix(0.06172839506172839,0,0,0.06172839506172839,88.76543209876542,0)" xlink:href="#U"/><use transform="matrix(0.06172839506172839,0,0,0.06172839506172839,101.1111111111111,0)" xlink:href="#V"/></g><path fill="#fff" d="M190 0L58-211 59 0H30v-248h39L202-35l-2-213h31V0h-41" id="aI"/><path fill="#fff" d="M84 4C-5 8 30-112 23-190h32v120c0 31 7 50 39 49 72-2 45-101 50-169h31l1 190h-30c-1-10 1-25-2-33-11 22-28 36-60 37" id="aJ"/><g id="n"><use transform="matrix(0.06172839506172839,0,0,0.06172839506172839,0,0)" xlink:href="#aI"/><use transform="matrix(0.06172839506172839,0,0,0.06172839506172839,15.987654320987653,0)" xlink:href="#aJ"/><use transform="matrix(0.06172839506172839,0,0,0.06172839506172839,28.333333333333332,0)" xlink:href="#as"/><use transform="matrix(0.06172839506172839,0,0,0.06172839506172839,46.79012345679012,0)" xlink:href="#an"/><use transform="matrix(0.06172839506172839,0,0,0.06172839506172839,59.1358024691358,0)" xlink:href="#ap"/><use transform="matrix(0.06172839506172839,0,0,0.06172839506172839,71.48148148148148,0)" xlink:href="#al"/></g><g id="o"><use transform="matrix(0.06172839506172839,0,0,0.06172839506172839,0,0)" xlink:href="#aB"/><use transform="matrix(0.06172839506172839,0,0,0.06172839506172839,11.11111111111111,0)" xlink:href="#ak"/><use transform="matrix(0.06172839506172839,0,0,0.06172839506172839,23.45679012345679,0)" xlink:href="#ao"/><use transform="matrix(0.06172839506172839,0,0,0.06172839506172839,28.333333333333336,0)" xlink:href="#aJ"/><use transform="matrix(0.06172839506172839,0,0,0.06172839506172839,40.67901234567901,0)" xlink:href="#ap"/></g><path fill="#fff" d="M33 0v-248h34V0H33" id="aK"/><g id="p"><use transform="matrix(0.06172839506172839,0,0,0.06172839506172839,0,0)" xlink:href="#aK"/><use transform="matrix(0.06172839506172839,0,0,0.06172839506172839,6.172839506172839,0)" xlink:href="#ar"/><use transform="matrix(0.06172839506172839,0,0,0.06172839506172839,18.51851851851852,0)" xlink:href="#av"/></g><path fill="#fff" d="M187 0l-14-72H61L19 0h-37l149-248h38L221 0h-34zm-19-99l-22-123L76-99h92" id="aL"/><path fill="#fff" d="M133-28C103 26-5 8 13-77c13-62 24-115 90-117 29-1 46 15 56 35l19-102h32L160 0h-30zM45-64c-2 27 10 43 35 43 54-1 69-50 69-103 0-29-15-46-42-46-53-1-58 58-62 106" id="aM"/><g id="q"><use transform="matrix(0.06172839506172839,0,0,0.06172839506172839,0,0)" xlink:href="#aL"/><use transform="matrix(0.06172839506172839,0,0,0.06172839506172839,14.814814814814813,0)" xlink:href="#aM"/><use transform="matrix(0.06172839506172839,0,0,0.06172839506172839,27.160493827160494,0)" xlink:href="#aM"/></g><path fill="#fff" d="M222 0l43-216c-8 16-17 34-26 49L143 0h-22L81-216 41 0H11l48-248h42l38 208 116-208h45L252 0h-30" id="aN"/><path fill="#fff" d="M67 3c-93-2-31-127-26-193h32L48-50c-3 39 53 32 70 12 30-34 30-101 43-152h32L157 0h-30c1-10 6-24 4-33-14 20-29 37-64 36" id="aO"/><path fill="#fff" d="M6 0l50-261h32L37 0H6" id="aP"/><g id="r"><use transform="matrix(0.06172839506172839,0,0,0.06172839506172839,0,0)" xlink:href="#aN"/><use transform="matrix(0.06172839506172839,0,0,0.06172839506172839,18.456790123456788,0)" xlink:href="#aO"/><use transform="matrix(0.06172839506172839,0,0,0.06172839506172839,30.80246913580247,0)" xlink:href="#aP"/><use transform="matrix(0.06172839506172839,0,0,0.06172839506172839,35.67901234567901,0)" xlink:href="#aa"/></g><path fill="#fff" d="M135-150c-39-12-60 13-60 57V0H25l-1-190h47c2 13-1 29 3 40 6-28 27-53 61-41v41" id="aQ"/><path fill="#fff" d="M25-224v-37h50v37H25zM25 0v-190h50V0H25" id="aR"/><path fill="#fff" d="M195-6C206 82 75 100 31 46c-4-6-6-13-8-21l49-6c3 16 16 24 34 25 40 0 42-37 40-79-11 22-30 35-61 35-53 0-70-43-70-97 0-56 18-96 73-97 30 0 46 14 59 34l2-30h47zm-90-29c32 0 41-27 41-63 0-35-9-62-40-62-32 0-39 29-40 63 0 36 9 62 39 62" id="aS"/><path fill="#fff" d="M114-157C55-157 80-60 75 0H25v-261h50l-1 109c12-26 28-41 61-42 86-1 58 113 63 194h-50c-7-57 23-157-34-157" id="aT"/><path fill="#fff" d="M115-3C79 11 28 4 28-45v-112H4v-33h27l15-45h31v45h36v33H77v99c-1 23 16 31 38 25v30" id="aU"/><g id="s"><use transform="matrix(0.04938271604938272,0,0,0.04938271604938272,0,0)" xlink:href="#aQ"/><use transform="matrix(0.04938271604938272,0,0,0.04938271604938272,6.913580246913581,0)" xlink:href="#aR"/><use transform="matrix(0.04938271604938272,0,0,0.04938271604938272,11.851851851851853,0)" xlink:href="#aS"/><use transform="matrix(0.04938271604938272,0,0,0.04938271604938272,22.666666666666668,0)" xlink:href="#aT"/><use transform="matrix(0.04938271604938272,0,0,0.04938271604938272,33.48148148148148,0)" xlink:href="#aU"/></g><path fill="#fff" d="M25 0v-261h50V0H25" id="aV"/><path fill="#fff" d="M185-48c-13 30-37 53-82 52C43 2 14-33 14-96s30-98 90-98c62 0 83 45 84 108H66c0 31 8 55 39 56 18 0 30-7 34-22zm-45-69c5-46-57-63-70-21-2 6-4 13-4 21h74" id="aW"/><path fill="#fff" d="M121-226c-27-7-43 5-38 36h38v33H83V0H34v-157H6v-33h28c-9-59 32-81 87-68v32" id="aX"/><g id="t"><use transform="matrix(0.04938271604938272,0,0,0.04938271604938272,0,0)" xlink:href="#aV"/><use transform="matrix(0.04938271604938272,0,0,0.04938271604938272,4.938271604938272,0)" xlink:href="#aW"/><use transform="matrix(0.04938271604938272,0,0,0.04938271604938272,14.814814814814817,0)" xlink:href="#aX"/><use transform="matrix(0.04938271604938272,0,0,0.04938271604938272,20.69135802469136,0)" xlink:href="#aU"/></g><g id="u"><use transform="matrix(0.06172839506172839,0,0,0.06172839506172839,0,0)" xlink:href="#ae"/><use transform="matrix(0.06172839506172839,0,0,0.06172839506172839,14.382716049382715,0)" xlink:href="#af"/><use transform="matrix(0.06172839506172839,0,0,0.06172839506172839,19.25925925925926,0)" xlink:href="#ag"/><use transform="matrix(0.06172839506172839,0,0,0.06172839506172839,30.37037037037037,0)" xlink:href="#af"/><use transform="matrix(0.06172839506172839,0,0,0.06172839506172839,35.24691358024691,0)" xlink:href="#aa"/><use transform="matrix(0.06172839506172839,0,0,0.06172839506172839,41.41975308641975,0)" xlink:href="#ah"/><use transform="matrix(0.06172839506172839,0,0,0.06172839506172839,53.76543209876543,0)" xlink:href="#V"/></g><g id="v"><use transform="matrix(0.06172839506172839,0,0,0.06172839506172839,0,0)" xlink:href="#ac"/><use transform="matrix(0.06172839506172839,0,0,0.06172839506172839,11.11111111111111,0)" xlink:href="#af"/><use transform="matrix(0.06172839506172839,0,0,0.06172839506172839,15.987654320987653,0)" xlink:href="#ag"/><use transform="matrix(0.06172839506172839,0,0,0.06172839506172839,27.098765432098766,0)" xlink:href="#af"/><use transform="matrix(0.06172839506172839,0,0,0.06172839506172839,31.975308641975307,0)" xlink:href="#aa"/><use transform="matrix(0.06172839506172839,0,0,0.06172839506172839,38.14814814814815,0)" xlink:href="#ab"/><use transform="matrix(0.06172839506172839,0,0,0.06172839506172839,45.49382716049383,0)" xlink:href="#aG"/></g><use transform="matrix(0.06172839506172839,0,0,0.06172839506172839,0,0)" xlink:href="#ad" id="w"/><path fill="#fff" d="M173 0L80-213 41 0H11l48-248h37l94 214 40-214h30L212 0h-39" id="aY"/><path fill="#fff" d="M248-111c6-24 9-61-24-58-72 9-57 108-77 169h-31l26-142c3-37-50-30-64-10C52-115 50-51 37 0H6l36-190h30c-1 10-6 24-4 32 13-43 101-52 105 5 13-22 29-41 61-41 90 0 28 129 23 194h-31" id="aZ"/><path fill="#fff" d="M68-162c25-46 127-43 121 31C183-60 169 1 98 4 69 5 53-11 43-31L36 0H5l52-261h31zm88 36c2-27-9-43-34-43-55 0-70 51-70 103 0 29 15 45 43 46 52 0 58-58 61-106" id="ba"/><g id="x"><use transform="matrix(0.06172839506172839,0,0,0.06172839506172839,0,0)" xlink:href="#aY"/><use transform="matrix(0.06172839506172839,0,0,0.06172839506172839,15.987654320987653,0)" xlink:href="#aO"/><use transform="matrix(0.06172839506172839,0,0,0.06172839506172839,28.333333333333332,0)" xlink:href="#aZ"/><use transform="matrix(0.06172839506172839,0,0,0.06172839506172839,46.79012345679012,0)" xlink:href="#ba"/><use transform="matrix(0.06172839506172839,0,0,0.06172839506172839,59.1358024691358,0)" xlink:href="#Z"/><use transform="matrix(0.06172839506172839,0,0,0.06172839506172839,71.48148148148148,0)" xlink:href="#V"/><use transform="matrix(0.06172839506172839,0,0,0.06172839506172839,78.82716049382717,0)" xlink:href="#ai"/></g><g id="y"><use transform="matrix(0.06172839506172839,0,0,0.06172839506172839,0,0)" xlink:href="#ac"/><use transform="matrix(0.06172839506172839,0,0,0.06172839506172839,11.11111111111111,0)" xlink:href="#af"/><use transform="matrix(0.06172839506172839,0,0,0.06172839506172839,15.987654320987653,0)" xlink:href="#ag"/><use transform="matrix(0.06172839506172839,0,0,0.06172839506172839,27.098765432098766,0)" xlink:href="#af"/><use transform="matrix(0.06172839506172839,0,0,0.06172839506172839,31.975308641975307,0)" xlink:href="#aa"/><use transform="matrix(0.06172839506172839,0,0,0.06172839506172839,38.14814814814815,0)" xlink:href="#ab"/><use transform="matrix(0.06172839506172839,0,0,0.06172839506172839,45.49382716049383,0)" xlink:href="#ac"/><use transform="matrix(0.06172839506172839,0,0,0.06172839506172839,56.60493827160494,0)" xlink:href="#ad"/></g><g id="z"><use transform="matrix(0.06172839506172839,0,0,0.06172839506172839,0,0)" xlink:href="#ae"/><use transform="matrix(0.06172839506172839,0,0,0.06172839506172839,14.012345679012345,0)" xlink:href="#X"/><use transform="matrix(0.06172839506172839,0,0,0.06172839506172839,26.358024691358025,0)" xlink:href="#V"/><use transform="matrix(0.06172839506172839,0,0,0.06172839506172839,33.7037037037037,0)" xlink:href="#af"/><use transform="matrix(0.06172839506172839,0,0,0.06172839506172839,38.58024691358025,0)" xlink:href="#X"/><use transform="matrix(0.06172839506172839,0,0,0.06172839506172839,50.925925925925924,0)" xlink:href="#ba"/><use transform="matrix(0.06172839506172839,0,0,0.06172839506172839,63.2716049382716,0)" xlink:href="#aP"/><use transform="matrix(0.06172839506172839,0,0,0.06172839506172839,68.14814814814814,0)" xlink:href="#Z"/><use transform="matrix(0.06172839506172839,0,0,0.06172839506172839,80.49382716049382,0)" xlink:href="#ai"/></g><g id="A"><use transform="matrix(0.06172839506172839,0,0,0.06172839506172839,0,0)" xlink:href="#ac"/><use transform="matrix(0.06172839506172839,0,0,0.06172839506172839,11.11111111111111,0)" xlink:href="#af"/><use transform="matrix(0.06172839506172839,0,0,0.06172839506172839,15.987654320987653,0)" xlink:href="#ag"/><use transform="matrix(0.06172839506172839,0,0,0.06172839506172839,27.098765432098766,0)" xlink:href="#af"/><use transform="matrix(0.06172839506172839,0,0,0.06172839506172839,31.975308641975307,0)" xlink:href="#aa"/><use transform="matrix(0.06172839506172839,0,0,0.06172839506172839,38.14814814814815,0)" xlink:href="#ab"/><use transform="matrix(0.06172839506172839,0,0,0.06172839506172839,45.49382716049383,0)" xlink:href="#aZ"/></g><g id="B"><use transform="matrix(0.06172839506172839,0,0,0.06172839506172839,0,0)" xlink:href="#aN"/><use transform="matrix(0.06172839506172839,0,0,0.06172839506172839,18.456790123456788,0)" xlink:href="#aO"/><use transform="matrix(0.06172839506172839,0,0,0.06172839506172839,30.80246913580247,0)" xlink:href="#aP"/><use transform="matrix(0.06172839506172839,0,0,0.06172839506172839,35.67901234567901,0)" xlink:href="#aa"/><use transform="matrix(0.06172839506172839,0,0,0.06172839506172839,41.851851851851855,0)" xlink:href="#ai"/></g><g id="C"><use transform="matrix(0.06172839506172839,0,0,0.06172839506172839,0,0)" xlink:href="#ac"/><use transform="matrix(0.06172839506172839,0,0,0.06172839506172839,11.11111111111111,0)" xlink:href="#af"/><use transform="matrix(0.06172839506172839,0,0,0.06172839506172839,15.987654320987653,0)" xlink:href="#ag"/><use transform="matrix(0.06172839506172839,0,0,0.06172839506172839,27.098765432098766,0)" xlink:href="#af"/><use transform="matrix(0.06172839506172839,0,0,0.06172839506172839,31.975308641975307,0)" xlink:href="#aa"/><use transform="matrix(0.06172839506172839,0,0,0.06172839506172839,38.14814814814815,0)" xlink:href="#ab"/><use transform="matrix(0.06172839506172839,0,0,0.06172839506172839,45.49382716049383,0)" xlink:href="#X"/></g><g id="D"><use transform="matrix(0.06172839506172839,0,0,0.06172839506172839,0,0)" xlink:href="#aL"/><use transform="matrix(0.06172839506172839,0,0,0.06172839506172839,14.814814814814813,0)" xlink:href="#aM"/><use transform="matrix(0.06172839506172839,0,0,0.06172839506172839,27.160493827160494,0)" xlink:href="#aM"/><use transform="matrix(0.06172839506172839,0,0,0.06172839506172839,39.50617283950617,0)" xlink:href="#ai"/></g><path fill="#fff" d="M30 0v-248h187v28H63v79h144v27H63v87h162V0H30" id="bb"/><g id="E"><use transform="matrix(0.06172839506172839,0,0,0.06172839506172839,0,0)" xlink:href="#bb"/><use transform="matrix(0.06172839506172839,0,0,0.06172839506172839,14.814814814814813,0)" xlink:href="#aB"/><use transform="matrix(0.06172839506172839,0,0,0.06172839506172839,25.925925925925924,0)" xlink:href="#ak"/><use transform="matrix(0.06172839506172839,0,0,0.06172839506172839,38.2716049382716,0)" xlink:href="#ao"/><use transform="matrix(0.06172839506172839,0,0,0.06172839506172839,43.148148148148145,0)" xlink:href="#aJ"/><use transform="matrix(0.06172839506172839,0,0,0.06172839506172839,55.49382716049382,0)" xlink:href="#ak"/><use transform="matrix(0.06172839506172839,0,0,0.06172839506172839,67.8395061728395,0)" xlink:href="#av"/><use transform="matrix(0.06172839506172839,0,0,0.06172839506172839,74.01234567901234,0)" xlink:href="#am"/><use transform="matrix(0.06172839506172839,0,0,0.06172839506172839,78.88888888888889,0)" xlink:href="#aD"/><use transform="matrix(0.06172839506172839,0,0,0.06172839506172839,91.23456790123457,0)" xlink:href="#ar"/><use transform="matrix(0.06172839506172839,0,0,0.06172839506172839,103.58024691358025,0)" xlink:href="#aj"/><use transform="matrix(0.06172839506172839,0,0,0.06172839506172839,117.96296296296296,0)" xlink:href="#am"/><use transform="matrix(0.06172839506172839,0,0,0.06172839506172839,122.8395061728395,0)" xlink:href="#aC"/><use transform="matrix(0.06172839506172839,0,0,0.06172839506172839,133.9506172839506,0)" xlink:href="#am"/><use transform="matrix(0.06172839506172839,0,0,0.06172839506172839,138.82716049382714,0)" xlink:href="#av"/><use transform="matrix(0.06172839506172839,0,0,0.06172839506172839,144.99999999999997,0)" xlink:href="#aD"/><use transform="matrix(0.06172839506172839,0,0,0.06172839506172839,157.34567901234564,0)" xlink:href="#al"/></g><g id="F"><use transform="matrix(0.06172839506172839,0,0,0.06172839506172839,0,0)" xlink:href="#ap"/><use transform="matrix(0.06172839506172839,0,0,0.06172839506172839,12.345679012345679,0)" xlink:href="#ar"/><use transform="matrix(0.06172839506172839,0,0,0.06172839506172839,24.691358024691358,0)" xlink:href="#aB"/></g><path fill="#fff" d="M240 0l2-218c-23 76-54 145-80 218h-23L58-218 59 0H30v-248h44l77 211c21-75 51-140 76-211h43V0h-30" id="bc"/><g id="G"><use transform="matrix(0.06172839506172839,0,0,0.06172839506172839,0,0)" xlink:href="#bc"/><use transform="matrix(0.06172839506172839,0,0,0.06172839506172839,18.456790123456788,0)" xlink:href="#ak"/><use transform="matrix(0.06172839506172839,0,0,0.06172839506172839,30.80246913580247,0)" xlink:href="#az"/></g><use transform="matrix(0.06172839506172839,0,0,0.06172839506172839,0,0)" xlink:href="#aq" id="H"/><g id="I"><use transform="matrix(0.06172839506172839,0,0,0.06172839506172839,0,0)" xlink:href="#al"/><use transform="matrix(0.06172839506172839,0,0,0.06172839506172839,7.345679012345679,0)" xlink:href="#ap"/><use transform="matrix(0.06172839506172839,0,0,0.06172839506172839,19.691358024691358,0)" xlink:href="#aC"/></g><g id="J"><use transform="matrix(0.06172839506172839,0,0,0.06172839506172839,0,0)" xlink:href="#aB"/><use transform="matrix(0.06172839506172839,0,0,0.06172839506172839,11.11111111111111,0)" xlink:href="#am"/><use transform="matrix(0.06172839506172839,0,0,0.06172839506172839,15.987654320987653,0)" xlink:href="#aC"/><use transform="matrix(0.06172839506172839,0,0,0.06172839506172839,27.098765432098766,0)" xlink:href="#am"/><use transform="matrix(0.06172839506172839,0,0,0.06172839506172839,31.975308641975307,0)" xlink:href="#av"/><use transform="matrix(0.06172839506172839,0,0,0.06172839506172839,38.14814814814815,0)" xlink:href="#aA"/><use transform="matrix(0.06172839506172839,0,0,0.06172839506172839,45.49382716049383,0)" xlink:href="#ar"/></g><g id="K"><use transform="matrix(0.06172839506172839,0,0,0.06172839506172839,0,0)" xlink:href="#aI"/><use transform="matrix(0.06172839506172839,0,0,0.06172839506172839,15.987654320987653,0)" xlink:href="#aJ"/><use transform="matrix(0.06172839506172839,0,0,0.06172839506172839,28.333333333333332,0)" xlink:href="#as"/><use transform="matrix(0.06172839506172839,0,0,0.06172839506172839,46.79012345679012,0)" xlink:href="#an"/><use transform="matrix(0.06172839506172839,0,0,0.06172839506172839,59.1358024691358,0)" xlink:href="#ap"/><use transform="matrix(0.06172839506172839,0,0,0.06172839506172839,71.48148148148148,0)" xlink:href="#al"/><use transform="matrix(0.06172839506172839,0,0,0.06172839506172839,78.82716049382717,0)" xlink:href="#aE"/></g><g id="L"><use transform="matrix(0.06172839506172839,0,0,0.06172839506172839,0,0)" xlink:href="#aB"/><use transform="matrix(0.06172839506172839,0,0,0.06172839506172839,11.11111111111111,0)" xlink:href="#am"/><use transform="matrix(0.06172839506172839,0,0,0.06172839506172839,15.987654320987653,0)" xlink:href="#aC"/><use transform="matrix(0.06172839506172839,0,0,0.06172839506172839,27.098765432098766,0)" xlink:href="#am"/><use transform="matrix(0.06172839506172839,0,0,0.06172839506172839,31.975308641975307,0)" xlink:href="#av"/><use transform="matrix(0.06172839506172839,0,0,0.06172839506172839,38.14814814814815,0)" xlink:href="#aA"/><use transform="matrix(0.06172839506172839,0,0,0.06172839506172839,45.49382716049383,0)" xlink:href="#aB"/><use transform="matrix(0.06172839506172839,0,0,0.06172839506172839,56.60493827160494,0)" xlink:href="#at"/></g><g id="M"><use transform="matrix(0.06172839506172839,0,0,0.06172839506172839,0,0)" xlink:href="#aj"/><use transform="matrix(0.06172839506172839,0,0,0.06172839506172839,13.148148148148147,0)" xlink:href="#ak"/><use transform="matrix(0.06172839506172839,0,0,0.06172839506172839,25.493827160493826,0)" xlink:href="#al"/><use transform="matrix(0.06172839506172839,0,0,0.06172839506172839,32.839506172839506,0)" xlink:href="#am"/><use transform="matrix(0.06172839506172839,0,0,0.06172839506172839,37.71604938271605,0)" xlink:href="#ak"/><use transform="matrix(0.06172839506172839,0,0,0.06172839506172839,50.06172839506173,0)" xlink:href="#an"/><use transform="matrix(0.06172839506172839,0,0,0.06172839506172839,62.407407407407405,0)" xlink:href="#ao"/><use transform="matrix(0.06172839506172839,0,0,0.06172839506172839,67.28395061728395,0)" xlink:href="#ap"/><use transform="matrix(0.06172839506172839,0,0,0.06172839506172839,79.62962962962963,0)" xlink:href="#aE"/></g><g id="N"><use transform="matrix(0.06172839506172839,0,0,0.06172839506172839,0,0)" xlink:href="#aB"/><use transform="matrix(0.06172839506172839,0,0,0.06172839506172839,11.11111111111111,0)" xlink:href="#am"/><use transform="matrix(0.06172839506172839,0,0,0.06172839506172839,15.987654320987653,0)" xlink:href="#aC"/><use transform="matrix(0.06172839506172839,0,0,0.06172839506172839,27.098765432098766,0)" xlink:href="#am"/><use transform="matrix(0.06172839506172839,0,0,0.06172839506172839,31.975308641975307,0)" xlink:href="#av"/><use transform="matrix(0.06172839506172839,0,0,0.06172839506172839,38.14814814814815,0)" xlink:href="#aA"/><use transform="matrix(0.06172839506172839,0,0,0.06172839506172839,45.49382716049383,0)" xlink:href="#as"/></g><g id="O"><use transform="matrix(0.06172839506172839,0,0,0.06172839506172839,0,0)" xlink:href="#bc"/><use transform="matrix(0.06172839506172839,0,0,0.06172839506172839,18.456790123456788,0)" xlink:href="#aJ"/><use transform="matrix(0.06172839506172839,0,0,0.06172839506172839,30.80246913580247,0)" xlink:href="#ao"/><use transform="matrix(0.06172839506172839,0,0,0.06172839506172839,35.67901234567901,0)" xlink:href="#av"/><use transform="matrix(0.06172839506172839,0,0,0.06172839506172839,41.851851851851855,0)" xlink:href="#aE"/></g><g id="P"><use transform="matrix(0.06172839506172839,0,0,0.06172839506172839,0,0)" xlink:href="#aB"/><use transform="matrix(0.06172839506172839,0,0,0.06172839506172839,11.11111111111111,0)" xlink:href="#am"/><use transform="matrix(0.06172839506172839,0,0,0.06172839506172839,15.987654320987653,0)" xlink:href="#aC"/><use transform="matrix(0.06172839506172839,0,0,0.06172839506172839,27.098765432098766,0)" xlink:href="#am"/><use transform="matrix(0.06172839506172839,0,0,0.06172839506172839,31.975308641975307,0)" xlink:href="#av"/><use transform="matrix(0.06172839506172839,0,0,0.06172839506172839,38.14814814814815,0)" xlink:href="#aA"/><use transform="matrix(0.06172839506172839,0,0,0.06172839506172839,45.49382716049383,0)" xlink:href="#ak"/></g><path fill="#fff" d="M205 0l-28-72H64L36 0H1l101-248h38L239 0h-34zm-38-99l-47-123c-12 45-31 82-46 123h93" id="bd"/><path fill="#fff" d="M85-194c31 0 48 13 60 33l-1-100h32l1 261h-30c-2-10 0-23-3-31C134-8 116 4 85 4 32 4 16-35 15-94c0-66 23-100 70-100zm9 24c-40 0-46 34-46 75 0 40 6 74 45 74 42 0 51-32 51-76 0-42-9-74-50-73" id="be"/><g id="Q"><use transform="matrix(0.06172839506172839,0,0,0.06172839506172839,0,0)" xlink:href="#bd"/><use transform="matrix(0.06172839506172839,0,0,0.06172839506172839,14.814814814814813,0)" xlink:href="#be"/><use transform="matrix(0.06172839506172839,0,0,0.06172839506172839,27.160493827160494,0)" xlink:href="#be"/><use transform="matrix(0.06172839506172839,0,0,0.06172839506172839,39.50617283950617,0)" xlink:href="#aE"/></g><path fill="#fff" d="M63-220v92h138v28H63V0H30v-248h175v28H63" id="bf"/><g id="R"><use transform="matrix(0.06172839506172839,0,0,0.06172839506172839,0,0)" xlink:href="#bf"/><use transform="matrix(0.06172839506172839,0,0,0.06172839506172839,13.518518518518517,0)" xlink:href="#aD"/><use transform="matrix(0.06172839506172839,0,0,0.06172839506172839,25.864197530864196,0)" xlink:href="#al"/><use transform="matrix(0.06172839506172839,0,0,0.06172839506172839,33.20987654320987,0)" xlink:href="#as"/><use transform="matrix(0.06172839506172839,0,0,0.06172839506172839,51.66666666666666,0)" xlink:href="#ak"/><use transform="matrix(0.06172839506172839,0,0,0.06172839506172839,64.01234567901234,0)" xlink:href="#av"/><use transform="matrix(0.06172839506172839,0,0,0.06172839506172839,70.18518518518518,0)" xlink:href="#av"/><use transform="matrix(0.06172839506172839,0,0,0.06172839506172839,76.35802469135801,0)" xlink:href="#am"/><use transform="matrix(0.06172839506172839,0,0,0.06172839506172839,81.23456790123456,0)" xlink:href="#ar"/><use transform="matrix(0.06172839506172839,0,0,0.06172839506172839,93.58024691358024,0)" xlink:href="#aw"/><use transform="matrix(0.06172839506172839,0,0,0.06172839506172839,105.92592592592592,0)" xlink:href="#aj"/><use transform="matrix(0.06172839506172839,0,0,0.06172839506172839,120.30864197530863,0)" xlink:href="#am"/><use transform="matrix(0.06172839506172839,0,0,0.06172839506172839,125.18518518518518,0)" xlink:href="#aC"/><use transform="matrix(0.06172839506172839,0,0,0.06172839506172839,136.29629629629628,0)" xlink:href="#am"/><use transform="matrix(0.06172839506172839,0,0,0.06172839506172839,141.1728395061728,0)" xlink:href="#av"/><use transform="matrix(0.06172839506172839,0,0,0.06172839506172839,147.34567901234564,0)" xlink:href="#aD"/><use transform="matrix(0.06172839506172839,0,0,0.06172839506172839,159.6913580246913,0)" xlink:href="#al"/></g></defs></g></svg>