<svg xmlns="http://www.w3.org/2000/svg" xmlns:xlink="http://www.w3.org/1999/xlink" xmlns:lucid="lucid" width="1416.62" height="725.64"><g transform="translate(-60.49420172601515 -68.44444444449618)" lucid:page-tab-id="0_0"><path d="M686.14 94.44c0-3.3 2.68-6 6-6h148c3.3 0 6 2.7 6 6v114c0 3.32-2.7 6-6 6h-148c-3.32 0-6-2.68-6-6z" stroke="#fff" stroke-width="3" fill-opacity="0"/><use xlink:href="#a" transform="matrix(1,0,0,1,694.1359897518832,96.44444444449618) translate(43.69753086419753 59.44444444444444)"/><path d="M937.78 407.44c0-3.3 2.68-6 6-6h229.33c3.32 0 6 2.7 6 6v186c0 3.32-2.68 6-6 6H943.8c-3.32 0-6-2.68-6-6z" stroke="#fff" stroke-width="3" fill-opacity="0"/><path d="M937.78 444.1h241.33M937.8 508.3h241.33" stroke="#fff" stroke-width="3" fill="none"/><use xlink:href="#b" transform="matrix(1,0,0,1,945.7777777777518,409.44444444444446) translate(31.271604938271622 17.944444444444443)"/><use xlink:href="#c" transform="matrix(1,0,0,1,949.7777777777518,516.2777777777778) translate(0 28.611111111111114)"/><use xlink:href="#d" transform="matrix(1,0,0,1,949.7777777777518,516.2777777777778) translate(19.1358024691358 28.611111111111114)"/><use xlink:href="#e" transform="matrix(1,0,0,1,949.7777777777518,516.2777777777778) translate(83.14814814814814 28.611111111111114)"/><use xlink:href="#f" transform="matrix(1,0,0,1,949.7777777777518,516.2777777777778) translate(95.49382716049382 28.611111111111114)"/><use xlink:href="#c" transform="matrix(1,0,0,1,949.7777777777518,516.2777777777778) translate(0 55.27777777777778)"/><use xlink:href="#d" transform="matrix(1,0,0,1,949.7777777777518,516.2777777777778) translate(19.1358024691358 55.27777777777778)"/><use xlink:href="#e" transform="matrix(1,0,0,1,949.7777777777518,516.2777777777778) translate(83.14814814814814 55.27777777777778)"/><use xlink:href="#g" transform="matrix(1,0,0,1,949.7777777777518,516.2777777777778) translate(95.49382716049382 55.27777777777778)"/><path d="M1215.78 407.44c0-3.3 2.68-6 6-6h229.33c3.32 0 6 2.7 6 6v186c0 3.32-2.68 6-6 6H1221.8c-3.32 0-6-2.68-6-6z" stroke="#fff" stroke-width="3" fill-opacity="0"/><path d="M1215.78 444.1h241.33M1215.8 508.3h241.33" stroke="#fff" stroke-width="3" fill="none"/><use xlink:href="#b" transform="matrix(1,0,0,1,1223.7777777777774,409.44444444444446) translate(31.271604938271622 17.944444444444443)"/><use xlink:href="#c" transform="matrix(1,0,0,1,1227.7777777777774,516.2777777777778) translate(0 28.611111111111114)"/><use xlink:href="#d" transform="matrix(1,0,0,1,1227.7777777777774,516.2777777777778) translate(19.1358024691358 28.611111111111114)"/><use xlink:href="#e" transform="matrix(1,0,0,1,1227.7777777777774,516.2777777777778) translate(83.14814814814814 28.611111111111114)"/><use xlink:href="#f" transform="matrix(1,0,0,1,1227.7777777777774,516.2777777777778) translate(95.49382716049382 28.611111111111114)"/><use xlink:href="#c" transform="matrix(1,0,0,1,1227.7777777777774,516.2777777777778) translate(0 55.27777777777778)"/><use xlink:href="#d" transform="matrix(1,0,0,1,1227.7777777777774,516.2777777777778) translate(19.1358024691358 55.27777777777778)"/><use xlink:href="#e" transform="matrix(1,0,0,1,1227.7777777777774,516.2777777777778) translate(83.14814814814814 55.27777777777778)"/><use xlink:href="#g" transform="matrix(1,0,0,1,1227.7777777777774,516.2777777777778) translate(95.49382716049382 55.27777777777778)"/><path d="M1058.44 398.44v-4.17m0-5.56v-8.33m0-5.56v-8.33m0-5.56v-8.33m0-5.56v-8.33m0-5.56v-4.16l.82-3.02 2.16-2.16 3.02-.82h4.6m6.14 0h9.2m6.13 0h9.2m6.14 0h9.2m6.14 0h9.2m6.13 0h4.6l3.04-.8 2.15-2.17.8-3.03v-4.5m0-6v-9m0-6.02v-9m0-6v-4.5" stroke="#fff" stroke-width="3" fill="none"/><path d="M1059.94 399.94h-3v-1.53h3z" stroke="#fff" stroke-width=".05" fill="#fff"/><path d="M1147.1 248.9l12.74 21.5h-25.45z" stroke="#fff" stroke-width="3" fill="#fff"/><path d="M1336.44 398.44v-4.17m0-5.56v-8.33m0-5.56v-8.33m0-5.56v-8.33m0-5.56v-8.33m0-5.56v-4.16l-.8-3.02-2.17-2.16-3.03-.82h-4.8m-6.4 0h-9.6m-6.4 0h-9.6m-6.4 0h-9.6m-6.4 0h-9.6m-6.4 0h-4.8l-3.02-.8-2.16-2.17-.82-3.03v-4.5m0-6v-9m0-6.02v-9m0-6v-4.5" stroke="#fff" stroke-width="3" fill="none"/><path d="M1337.94 399.94h-3v-1.53h3z" stroke="#fff" stroke-width=".05" fill="#fff"/><path d="M1244.44 248.9l12.73 21.5h-25.45z" stroke="#fff" stroke-width="3" fill="#fff"/><path d="M1074.1 94.44c0-3.3 2.7-6 6-6h229.34c3.32 0 6 2.7 6 6v144c0 3.32-2.68 6-6 6H1080.1c-3.3 0-6-2.68-6-6z" stroke="#fff" stroke-width="3" fill-opacity="0"/><path d="M1074.1 147.64h241.34" stroke="#fff" stroke-width="3" fill="none"/><use xlink:href="#h" transform="matrix(1,0,0,1,1082.111111111085,96.44444444449618) translate(54.574999999999996 14.799999999999999)"/><use xlink:href="#i" transform="matrix(1,0,0,1,1082.111111111085,96.44444444449618) translate(85.225 36.4)"/><use xlink:href="#c" transform="matrix(1,0,0,1,1086.111111111085,155.64444444449617) translate(0 31.611111111111114)"/><use xlink:href="#d" transform="matrix(1,0,0,1,1086.111111111085,155.64444444449617) translate(19.1358024691358 31.611111111111114)"/><use xlink:href="#e" transform="matrix(1,0,0,1,1086.111111111085,155.64444444449617) translate(83.14814814814814 31.611111111111114)"/><use xlink:href="#f" transform="matrix(1,0,0,1,1086.111111111085,155.64444444449617) translate(95.49382716049382 31.611111111111114)"/><use xlink:href="#c" transform="matrix(1,0,0,1,1086.111111111085,155.64444444449617) translate(0 58.27777777777778)"/><use xlink:href="#d" transform="matrix(1,0,0,1,1086.111111111085,155.64444444449617) translate(19.1358024691358 58.27777777777778)"/><use xlink:href="#e" transform="matrix(1,0,0,1,1086.111111111085,155.64444444449617) translate(83.14814814814814 58.27777777777778)"/><use xlink:href="#g" transform="matrix(1,0,0,1,1086.111111111085,155.64444444449617) translate(95.49382716049382 58.27777777777778)"/><path d="M80.5 407.44c0-3.3 2.68-6 6-6h229.33c3.3 0 6 2.7 6 6v159c0 3.32-2.7 6-6 6H86.5c-3.32 0-6-2.68-6-6z" stroke="#fff" stroke-width="3" fill-opacity="0"/><path d="M80.5 444.1h241.33M80.5 508.3h241.33" stroke="#fff" stroke-width="3" fill="none"/><use xlink:href="#j" transform="matrix(1,0,0,1,88.49420172601515,409.4444444444445) translate(19.913580246913597 17.944444444444443)"/><use xlink:href="#k" transform="matrix(1,0,0,1,92.49420172601515,516.2777777777778) translate(0 28.944444444444443)"/><use xlink:href="#l" transform="matrix(1,0,0,1,92.49420172601515,516.2777777777778) translate(19.1358024691358 28.944444444444443)"/><use xlink:href="#e" transform="matrix(1,0,0,1,92.49420172601515,516.2777777777778) translate(125.18518518518518 28.944444444444443)"/><use xlink:href="#m" transform="matrix(1,0,0,1,92.49420172601515,516.2777777777778) translate(137.53086419753086 28.944444444444443)"/><path d="M358.5 407.44c0-3.3 2.68-6 6-6h229.33c3.3 0 6 2.7 6 6v159c0 3.32-2.7 6-6 6H364.5c-3.32 0-6-2.68-6-6z" stroke="#fff" stroke-width="3" fill-opacity="0"/><path d="M358.5 444.1h241.33M358.5 508.3h241.33" stroke="#fff" stroke-width="3" fill="none"/><use xlink:href="#n" transform="matrix(1,0,0,1,366.49420172604107,409.4444444444445) translate(19.913580246913597 17.944444444444443)"/><use xlink:href="#k" transform="matrix(1,0,0,1,370.49420172604107,516.2777777777778) translate(0 28.944444444444443)"/><use xlink:href="#l" transform="matrix(1,0,0,1,370.49420172604107,516.2777777777778) translate(19.1358024691358 28.944444444444443)"/><use xlink:href="#e" transform="matrix(1,0,0,1,370.49420172604107,516.2777777777778) translate(125.18518518518518 28.944444444444443)"/><use xlink:href="#m" transform="matrix(1,0,0,1,370.49420172604107,516.2777777777778) translate(137.53086419753086 28.944444444444443)"/><path d="M201.16 398.44v-4.95m0-6.6V377m0-6.6v-9.9m0-6.6V344m0-6.6v-9.9m0-6.6v-4.96l.82-3.02 2.15-2.16 3.03-.82h4.6m6.1 0h9.2m6.1 0h9.18m6.12 0h9.18m6.12 0h9.18m6.12 0h4.6l3.02-.8 2.15-2.17.82-3.03v-4.35m0-5.8v-8.72m0-5.8v-8.7m0-5.8v-8.7m0-5.82v-4.35" stroke="#fff" stroke-width="3" fill="none"/><path d="M202.66 399.94h-3v-1.53h3z" stroke="#fff" stroke-width=".05" fill="#fff"/><path d="M289.65 222.9l12.72 21.5h-25.45z" stroke="#fff" stroke-width="3" fill="#fff"/><path d="M479.16 398.44v-4.95m0-6.6V377m0-6.6v-9.9m0-6.6V344m0-6.6v-9.9m0-6.6v-4.96l-.82-3.02-2.15-2.16-3.04-.82h-4.8m-6.37 0h-9.6m-6.38 0h-9.57m-6.4 0h-9.57m-6.38 0h-9.58m-6.38 0h-4.8l-3.02-.8-2.15-2.17-.82-3.03v-4.35m0-5.8v-8.72m0-5.8v-8.7m0-5.8v-8.7m0-5.82v-4.35" stroke="#fff" stroke-width="3" fill="none"/><path d="M480.66 399.94h-3v-1.53h3z" stroke="#fff" stroke-width=".05" fill="#fff"/><path d="M387.35 222.9l12.72 21.5h-25.45z" stroke="#fff" stroke-width="3" fill="#fff"/><path d="M216.83 94.44c0-3.3 2.68-6 6-6h229.33c3.3 0 6 2.7 6 6v118c0 3.32-2.7 6-6 6H222.83c-3.32 0-6-2.68-6-6z" stroke="#fff" stroke-width="3" fill-opacity="0"/><path d="M216.83 147.64h241.33" stroke="#fff" stroke-width="3" fill="none"/><g><use xlink:href="#h" transform="matrix(1,0,0,1,224.82753505934846,96.44444444449618) translate(54.574999999999996 14.799999999999999)"/><use xlink:href="#o" transform="matrix(1,0,0,1,224.82753505934846,96.44444444449618) translate(78.05 36.4)"/></g><g><use xlink:href="#k" transform="matrix(1,0,0,1,228.82753505934846,155.64444444449617) translate(0 31.944444444444443)"/><use xlink:href="#l" transform="matrix(1,0,0,1,228.82753505934846,155.64444444449617) translate(19.1358024691358 31.944444444444443)"/><use xlink:href="#e" transform="matrix(1,0,0,1,228.82753505934846,155.64444444449617) translate(125.18518518518518 31.944444444444443)"/><use xlink:href="#m" transform="matrix(1,0,0,1,228.82753505934846,155.64444444449617) translate(137.53086419753086 31.944444444444443)"/></g><path d="M653.5 151.44H462.4" stroke="#fff" stroke-width="3" fill="none"/><path d="M682.5 151.44l-14.83 14.85-15.16-14.86 15.17-14.84z" stroke="#fff" stroke-width="3" fill="#fff"/><path d="M479.82 141.26l-17.2 10.18 17.2 10.2M849.14 151.44h220.74" stroke="#fff" stroke-width="3" fill="none"/><path d="M849.17 152.94h-1.53v-3h1.53z" stroke="#fff" stroke-width=".05" fill="#fff"/><path d="M1052.45 161.63l17.2-10.2-17.2-10.17" stroke="#fff" stroke-width="3" fill="none"/><path d="M196 654.1H455l24 24v96H196z" stroke="#fff" stroke-width="3" fill-opacity="0"/><path d="M454.98 655.52v22.57h22.57" stroke="#fff" stroke-width="3" fill-opacity="0"/><g><use xlink:href="#p" transform="matrix(1,0,0,1,201.00937162892944,659.0869741100646) translate(0 31.52777777777778)"/><use xlink:href="#q" transform="matrix(1,0,0,1,201.00937162892944,659.0869741100646) translate(106.04938271604938 31.52777777777778)"/><use xlink:href="#r" transform="matrix(1,0,0,1,201.00937162892944,659.0869741100646) translate(118.39506172839506 31.52777777777778)"/><use xlink:href="#s" transform="matrix(1,0,0,1,201.00937162892944,659.0869741100646) translate(193.02469135802468 31.52777777777778)"/><use xlink:href="#t" transform="matrix(1,0,0,1,201.00937162892944,659.0869741100646) translate(0 58.19444444444445)"/><use xlink:href="#u" transform="matrix(1,0,0,1,201.00937162892944,659.0869741100646) translate(24.691358024691358 58.19444444444445)"/><use xlink:href="#v" transform="matrix(1,0,0,1,201.00937162892944,659.0869741100646) translate(0 84.86111111111111)"/></g><path d="M193 714.1h-4.08m-5.44 0h-8.17m-5.44 0h-8.17m-5.45 0h-4.1l-3.02-.83-2.15-2.15-.82-3.03v-4.43m0-5.9v-8.84m0-5.9v-8.84m0-5.9v-8.85m0-5.9v-8.84m0-5.88v-8.84m0-5.9v-8.84m0-5.9v-8.84m0-5.9v-8.84m0-5.9v-4.42" stroke="#fff" stroke-width="3" fill="none"/><path d="M194.5 715.6h-1.53v-3h1.54zM147.66 575.48h-3v-1.54h3z" stroke="#fff" stroke-width=".05" fill="#fff"/><path d="M481.98 714.1h4.97m6.64 0h9.93m6.64 0h9.95m6.63 0h4.97l3.03-.83 2.15-2.15.82-3.03v-4.43m0-5.9v-8.84m0-5.9v-8.84m0-5.9v-8.85m0-5.9v-8.84m0-5.88v-8.84m0-5.9v-8.84m0-5.9v-8.84m0-5.9v-8.84m0-5.9v-4.42" stroke="#fff" stroke-width="3" fill="none"/><path d="M482.02 715.6h-1.54v-3h1.54zM539.22 575.48h-3v-1.54h3z" stroke="#fff" stroke-width=".05" fill="#fff"/><defs><path fill="#fff" d="M212-179c-10-28-35-45-73-45-59 0-87 40-87 99 0 60 29 101 89 101 43 0 62-24 78-52l27 14C228-24 195 4 139 4 59 4 22-46 18-125c-6-104 99-153 187-111 19 9 31 26 39 46" id="w"/><path fill="#fff" d="M24 0v-261h32V0H24" id="x"/><path fill="#fff" d="M24-231v-30h32v30H24zM24 0v-190h32V0H24" id="y"/><path fill="#fff" d="M100-194c63 0 86 42 84 106H49c0 40 14 67 53 68 26 1 43-12 49-29l28 8c-11 28-37 45-77 45C44 4 14-33 15-96c1-61 26-98 85-98zm52 81c6-60-76-77-97-28-3 7-6 17-6 28h103" id="z"/><path fill="#fff" d="M117-194c89-4 53 116 60 194h-32v-121c0-31-8-49-39-48C34-167 62-67 57 0H25l-1-190h30c1 10-1 24 2 32 11-22 29-35 61-36" id="A"/><path fill="#fff" d="M59-47c-2 24 18 29 38 22v24C64 9 27 4 27-40v-127H5v-23h24l9-43h21v43h35v23H59v120" id="B"/><g id="a"><use transform="matrix(0.06172839506172839,0,0,0.06172839506172839,0,0)" xlink:href="#w"/><use transform="matrix(0.06172839506172839,0,0,0.06172839506172839,15.987654320987653,0)" xlink:href="#x"/><use transform="matrix(0.06172839506172839,0,0,0.06172839506172839,20.864197530864196,0)" xlink:href="#y"/><use transform="matrix(0.06172839506172839,0,0,0.06172839506172839,25.74074074074074,0)" xlink:href="#z"/><use transform="matrix(0.06172839506172839,0,0,0.06172839506172839,38.08641975308642,0)" xlink:href="#A"/><use transform="matrix(0.06172839506172839,0,0,0.06172839506172839,50.432098765432094,0)" xlink:href="#B"/></g><path fill="#fff" d="M100-194c62-1 85 37 85 99 1 63-27 99-86 99S16-35 15-95c0-66 28-99 85-99zM99-20c44 1 53-31 53-75 0-43-8-75-51-75s-53 32-53 75 10 74 51 75" id="C"/><path fill="#fff" d="M96-169c-40 0-48 33-48 73s9 75 48 75c24 0 41-14 43-38l32 2c-6 37-31 61-74 61-59 0-76-41-82-99-10-93 101-131 147-64 4 7 5 14 7 22l-32 3c-4-21-16-35-41-35" id="D"/><path fill="#fff" d="M114-163C36-179 61-72 57 0H25l-1-190h30c1 12-1 29 2 39 6-27 23-49 58-41v29" id="E"/><path fill="#fff" d="M137 0h-34L2-248h35l83 218 83-218h36" id="F"/><path fill="#fff" d="M135-143c-3-34-86-38-87 0 15 53 115 12 119 90S17 21 10-45l28-5c4 36 97 45 98 0-10-56-113-15-118-90-4-57 82-63 122-42 12 7 21 19 24 35" id="G"/><path fill="#fff" d="M27 0v-27h64v-190l-56 39v-29l58-41h29v221h61V0H27" id="H"/><g id="b"><use transform="matrix(0.06172839506172839,0,0,0.06172839506172839,0,0)" xlink:href="#w"/><use transform="matrix(0.06172839506172839,0,0,0.06172839506172839,15.987654320987653,0)" xlink:href="#C"/><use transform="matrix(0.06172839506172839,0,0,0.06172839506172839,28.333333333333332,0)" xlink:href="#A"/><use transform="matrix(0.06172839506172839,0,0,0.06172839506172839,40.67901234567901,0)" xlink:href="#D"/><use transform="matrix(0.06172839506172839,0,0,0.06172839506172839,51.79012345679013,0)" xlink:href="#E"/><use transform="matrix(0.06172839506172839,0,0,0.06172839506172839,59.135802469135804,0)" xlink:href="#z"/><use transform="matrix(0.06172839506172839,0,0,0.06172839506172839,71.48148148148148,0)" xlink:href="#B"/><use transform="matrix(0.06172839506172839,0,0,0.06172839506172839,77.65432098765432,0)" xlink:href="#z"/><use transform="matrix(0.06172839506172839,0,0,0.06172839506172839,90,0)" xlink:href="#F"/><use transform="matrix(0.06172839506172839,0,0,0.06172839506172839,104.38271604938271,0)" xlink:href="#y"/><use transform="matrix(0.06172839506172839,0,0,0.06172839506172839,109.25925925925925,0)" xlink:href="#G"/><use transform="matrix(0.06172839506172839,0,0,0.06172839506172839,120.37037037037037,0)" xlink:href="#y"/><use transform="matrix(0.06172839506172839,0,0,0.06172839506172839,125.24691358024691,0)" xlink:href="#B"/><use transform="matrix(0.06172839506172839,0,0,0.06172839506172839,131.41975308641975,0)" xlink:href="#C"/><use transform="matrix(0.06172839506172839,0,0,0.06172839506172839,143.76543209876542,0)" xlink:href="#E"/><use transform="matrix(0.06172839506172839,0,0,0.06172839506172839,151.1111111111111,0)" xlink:href="#H"/></g><path fill="#fff" d="M118-107v75H92v-75H18v-26h74v-75h26v75h74v26h-74" id="I"/><use transform="matrix(0.06172839506172839,0,0,0.06172839506172839,0,0)" xlink:href="#I" id="c"/><path fill="#fff" d="M108 0H70L1-190h34L89-25l56-165h34" id="J"/><path fill="#fff" d="M87 75C49 33 22-17 22-94c0-76 28-126 65-167h31c-38 41-64 92-64 168S80 34 118 75H87" id="K"/><g id="d"><use transform="matrix(0.06172839506172839,0,0,0.06172839506172839,0,0)" xlink:href="#J"/><use transform="matrix(0.06172839506172839,0,0,0.06172839506172839,11.11111111111111,0)" xlink:href="#y"/><use transform="matrix(0.06172839506172839,0,0,0.06172839506172839,15.987654320987653,0)" xlink:href="#G"/><use transform="matrix(0.06172839506172839,0,0,0.06172839506172839,27.098765432098766,0)" xlink:href="#y"/><use transform="matrix(0.06172839506172839,0,0,0.06172839506172839,31.975308641975307,0)" xlink:href="#B"/><use transform="matrix(0.06172839506172839,0,0,0.06172839506172839,38.14814814814815,0)" xlink:href="#K"/><use transform="matrix(0.06172839506172839,0,0,0.06172839506172839,45.49382716049383,0)" xlink:href="#z"/></g><path fill="#fff" d="M33-154v-36h34v36H33zM33 0v-36h34V0H33" id="L"/><use transform="matrix(0.06172839506172839,0,0,0.06172839506172839,0,0)" xlink:href="#L" id="e"/><path fill="#fff" d="M30 0v-248h187v28H63v79h144v27H63v87h162V0H30" id="M"/><path fill="#fff" d="M210-169c-67 3-38 105-44 169h-31v-121c0-29-5-50-35-48C34-165 62-65 56 0H25l-1-190h30c1 10-1 24 2 32 10-44 99-50 107 0 11-21 27-35 58-36 85-2 47 119 55 194h-31v-121c0-29-5-49-35-48" id="N"/><path fill="#fff" d="M205 0l-28-72H64L36 0H1l101-248h38L239 0h-34zm-38-99l-47-123c-12 45-31 82-46 123h93" id="O"/><path fill="#fff" d="M33-261c38 41 65 92 65 168S71 34 33 75H2C39 34 66-17 66-93S39-220 2-261h31" id="P"/><g id="f"><use transform="matrix(0.06172839506172839,0,0,0.06172839506172839,0,0)" xlink:href="#M"/><use transform="matrix(0.06172839506172839,0,0,0.06172839506172839,14.814814814814813,0)" xlink:href="#x"/><use transform="matrix(0.06172839506172839,0,0,0.06172839506172839,19.691358024691354,0)" xlink:href="#z"/><use transform="matrix(0.06172839506172839,0,0,0.06172839506172839,32.03703703703703,0)" xlink:href="#N"/><use transform="matrix(0.06172839506172839,0,0,0.06172839506172839,50.49382716049382,0)" xlink:href="#z"/><use transform="matrix(0.06172839506172839,0,0,0.06172839506172839,62.8395061728395,0)" xlink:href="#A"/><use transform="matrix(0.06172839506172839,0,0,0.06172839506172839,75.18518518518518,0)" xlink:href="#B"/><use transform="matrix(0.06172839506172839,0,0,0.06172839506172839,81.35802469135801,0)" xlink:href="#O"/><use transform="matrix(0.06172839506172839,0,0,0.06172839506172839,96.17283950617282,0)" xlink:href="#P"/></g><path fill="#fff" d="M160-131c35 5 61 23 61 61C221 17 115-2 30 0v-248c76 3 177-17 177 60 0 33-19 50-47 57zm-97-11c50-1 110 9 110-42 0-47-63-36-110-37v79zm0 115c55-2 124 14 124-45 0-56-70-42-124-44v89" id="Q"/><g id="g"><use transform="matrix(0.06172839506172839,0,0,0.06172839506172839,0,0)" xlink:href="#M"/><use transform="matrix(0.06172839506172839,0,0,0.06172839506172839,14.814814814814813,0)" xlink:href="#x"/><use transform="matrix(0.06172839506172839,0,0,0.06172839506172839,19.691358024691354,0)" xlink:href="#z"/><use transform="matrix(0.06172839506172839,0,0,0.06172839506172839,32.03703703703703,0)" xlink:href="#N"/><use transform="matrix(0.06172839506172839,0,0,0.06172839506172839,50.49382716049382,0)" xlink:href="#z"/><use transform="matrix(0.06172839506172839,0,0,0.06172839506172839,62.8395061728395,0)" xlink:href="#A"/><use transform="matrix(0.06172839506172839,0,0,0.06172839506172839,75.18518518518518,0)" xlink:href="#B"/><use transform="matrix(0.06172839506172839,0,0,0.06172839506172839,81.35802469135801,0)" xlink:href="#Q"/><use transform="matrix(0.06172839506172839,0,0,0.06172839506172839,96.17283950617282,0)" xlink:href="#P"/></g><path fill="#fff" d="M15-91v-56l181-69v40L49-119l147 57v40" id="R"/><path fill="#fff" d="M25-224v-37h50v37H25zM25 0v-190h50V0H25" id="S"/><path fill="#fff" d="M135-194c87-1 58 113 63 194h-50c-7-57 23-157-34-157-59 0-34 97-39 157H25l-1-190h47c2 12-1 28 3 38 12-26 28-41 61-42" id="T"/><path fill="#fff" d="M115-3C79 11 28 4 28-45v-112H4v-33h27l15-45h31v45h36v33H77v99c-1 23 16 31 38 25v30" id="U"/><path fill="#fff" d="M185-48c-13 30-37 53-82 52C43 2 14-33 14-96s30-98 90-98c62 0 83 45 84 108H66c0 31 8 55 39 56 18 0 30-7 34-22zm-45-69c5-46-57-63-70-21-2 6-4 13-4 21h74" id="V"/><path fill="#fff" d="M135-150c-39-12-60 13-60 57V0H25l-1-190h47c2 13-1 29 3 40 6-28 27-53 61-41v41" id="W"/><path fill="#fff" d="M121-226c-27-7-43 5-38 36h38v33H83V0H34v-157H6v-33h28c-9-59 32-81 87-68v32" id="X"/><path fill="#fff" d="M133-34C117-15 103 5 69 4 32 3 11-16 11-54c-1-60 55-63 116-61 1-26-3-47-28-47-18 1-26 9-28 27l-52-2c7-38 36-58 82-57s74 22 75 68l1 82c-1 14 12 18 25 15v27c-30 8-71 5-69-32zm-48 3c29 0 43-24 42-57-32 0-66-3-65 30 0 17 8 27 23 27" id="Y"/><path fill="#fff" d="M190-63c-7 42-38 67-86 67-59 0-84-38-90-98-12-110 154-137 174-36l-49 2c-2-19-15-32-35-32-30 0-35 28-38 64-6 74 65 87 74 30" id="Z"/><path fill="#fff" d="M15-22v-40l146-57-146-57v-40l181 69v56" id="aa"/><g id="h"><use transform="matrix(0.05,0,0,0.05,0,0)" xlink:href="#R"/><use transform="matrix(0.05,0,0,0.05,10.5,0)" xlink:href="#R"/><use transform="matrix(0.05,0,0,0.05,21,0)" xlink:href="#S"/><use transform="matrix(0.05,0,0,0.05,26,0)" xlink:href="#T"/><use transform="matrix(0.05,0,0,0.05,36.95,0)" xlink:href="#U"/><use transform="matrix(0.05,0,0,0.05,42.900000000000006,0)" xlink:href="#V"/><use transform="matrix(0.05,0,0,0.05,52.900000000000006,0)" xlink:href="#W"/><use transform="matrix(0.05,0,0,0.05,59.900000000000006,0)" xlink:href="#X"/><use transform="matrix(0.05,0,0,0.05,65.85000000000001,0)" xlink:href="#Y"/><use transform="matrix(0.05,0,0,0.05,75.85000000000001,0)" xlink:href="#Z"/><use transform="matrix(0.05,0,0,0.05,85.85000000000001,0)" xlink:href="#V"/><use transform="matrix(0.05,0,0,0.05,95.85000000000001,0)" xlink:href="#aa"/><use transform="matrix(0.05,0,0,0.05,106.35000000000001,0)" xlink:href="#aa"/></g><path fill="#fff" d="M147 0H94L2-248h55l64 206c17-72 42-137 63-206h54" id="ab"/><path fill="#fff" d="M137-138c1-29-70-34-71-4 15 46 118 7 119 86 1 83-164 76-172 9l43-7c4 19 20 25 44 25 33 8 57-30 24-41C81-84 22-81 20-136c-2-80 154-74 161-7" id="ac"/><path fill="#fff" d="M110-194c64 0 96 36 96 99 0 64-35 99-97 99-61 0-95-36-95-99 0-62 34-99 96-99zm-1 164c35 0 45-28 45-65 0-40-10-65-43-65-34 0-45 26-45 65 0 36 10 65 43 65" id="ad"/><g id="i"><use transform="matrix(0.05,0,0,0.05,0,0)" xlink:href="#ab"/><use transform="matrix(0.05,0,0,0.05,11.65,0)" xlink:href="#S"/><use transform="matrix(0.05,0,0,0.05,16.65,0)" xlink:href="#ac"/><use transform="matrix(0.05,0,0,0.05,26.649999999999995,0)" xlink:href="#S"/><use transform="matrix(0.05,0,0,0.05,31.649999999999995,0)" xlink:href="#U"/><use transform="matrix(0.05,0,0,0.05,37.6,0)" xlink:href="#ad"/><use transform="matrix(0.05,0,0,0.05,48.550000000000004,0)" xlink:href="#W"/></g><g id="j"><use transform="matrix(0.06172839506172839,0,0,0.06172839506172839,0,0)" xlink:href="#w"/><use transform="matrix(0.06172839506172839,0,0,0.06172839506172839,15.987654320987653,0)" xlink:href="#C"/><use transform="matrix(0.06172839506172839,0,0,0.06172839506172839,28.333333333333332,0)" xlink:href="#A"/><use transform="matrix(0.06172839506172839,0,0,0.06172839506172839,40.67901234567901,0)" xlink:href="#D"/><use transform="matrix(0.06172839506172839,0,0,0.06172839506172839,51.79012345679013,0)" xlink:href="#E"/><use transform="matrix(0.06172839506172839,0,0,0.06172839506172839,59.135802469135804,0)" xlink:href="#z"/><use transform="matrix(0.06172839506172839,0,0,0.06172839506172839,71.48148148148148,0)" xlink:href="#B"/><use transform="matrix(0.06172839506172839,0,0,0.06172839506172839,77.65432098765432,0)" xlink:href="#z"/><use transform="matrix(0.06172839506172839,0,0,0.06172839506172839,90,0)" xlink:href="#M"/><use transform="matrix(0.06172839506172839,0,0,0.06172839506172839,104.81481481481481,0)" xlink:href="#x"/><use transform="matrix(0.06172839506172839,0,0,0.06172839506172839,109.69135802469135,0)" xlink:href="#z"/><use transform="matrix(0.06172839506172839,0,0,0.06172839506172839,122.03703703703704,0)" xlink:href="#N"/><use transform="matrix(0.06172839506172839,0,0,0.06172839506172839,140.49382716049382,0)" xlink:href="#z"/><use transform="matrix(0.06172839506172839,0,0,0.06172839506172839,152.8395061728395,0)" xlink:href="#A"/><use transform="matrix(0.06172839506172839,0,0,0.06172839506172839,165.18518518518516,0)" xlink:href="#B"/><use transform="matrix(0.06172839506172839,0,0,0.06172839506172839,171.358024691358,0)" xlink:href="#O"/></g><path fill="#fff" d="M123-107v75H97v-75H23v-26h74v-75h26v75h75v26h-75" id="ae"/><use transform="matrix(0.06172839506172839,0,0,0.06172839506172839,0,0)" xlink:href="#ae" id="k"/><path fill="#fff" d="M141-36C126-15 110 5 73 4 37 3 15-17 15-53c-1-64 63-63 125-63 3-35-9-54-41-54-24 1-41 7-42 31l-33-3c5-37 33-52 76-52 45 0 72 20 72 64v82c-1 20 7 32 28 27v20c-31 9-61-2-59-35zM48-53c0 20 12 33 32 33 41-3 63-29 60-74-43 2-92-5-92 41" id="af"/><path fill="#fff" d="M115-194c55 1 70 41 70 98S169 2 115 4C84 4 66-9 55-30l1 105H24l-1-265h31l2 30c10-21 28-34 59-34zm-8 174c40 0 45-34 45-75s-6-73-45-74c-42 0-51 32-51 76 0 43 10 73 51 73" id="ag"/><g id="l"><use transform="matrix(0.06172839506172839,0,0,0.06172839506172839,0,0)" xlink:href="#af"/><use transform="matrix(0.06172839506172839,0,0,0.06172839506172839,12.345679012345679,0)" xlink:href="#D"/><use transform="matrix(0.06172839506172839,0,0,0.06172839506172839,23.45679012345679,0)" xlink:href="#D"/><use transform="matrix(0.06172839506172839,0,0,0.06172839506172839,34.5679012345679,0)" xlink:href="#z"/><use transform="matrix(0.06172839506172839,0,0,0.06172839506172839,46.913580246913575,0)" xlink:href="#ag"/><use transform="matrix(0.06172839506172839,0,0,0.06172839506172839,59.25925925925925,0)" xlink:href="#B"/><use transform="matrix(0.06172839506172839,0,0,0.06172839506172839,65.43209876543209,0)" xlink:href="#K"/><use transform="matrix(0.06172839506172839,0,0,0.06172839506172839,72.77777777777777,0)" xlink:href="#J"/><use transform="matrix(0.06172839506172839,0,0,0.06172839506172839,83.88888888888889,0)" xlink:href="#y"/><use transform="matrix(0.06172839506172839,0,0,0.06172839506172839,88.76543209876543,0)" xlink:href="#G"/></g><g id="m"><use transform="matrix(0.06172839506172839,0,0,0.06172839506172839,0,0)" xlink:href="#F"/><use transform="matrix(0.06172839506172839,0,0,0.06172839506172839,14.382716049382715,0)" xlink:href="#y"/><use transform="matrix(0.06172839506172839,0,0,0.06172839506172839,19.25925925925926,0)" xlink:href="#G"/><use transform="matrix(0.06172839506172839,0,0,0.06172839506172839,30.37037037037037,0)" xlink:href="#y"/><use transform="matrix(0.06172839506172839,0,0,0.06172839506172839,35.24691358024691,0)" xlink:href="#B"/><use transform="matrix(0.06172839506172839,0,0,0.06172839506172839,41.41975308641975,0)" xlink:href="#C"/><use transform="matrix(0.06172839506172839,0,0,0.06172839506172839,53.76543209876543,0)" xlink:href="#E"/><use transform="matrix(0.06172839506172839,0,0,0.06172839506172839,61.11111111111111,0)" xlink:href="#P"/></g><g id="n"><use transform="matrix(0.06172839506172839,0,0,0.06172839506172839,0,0)" xlink:href="#w"/><use transform="matrix(0.06172839506172839,0,0,0.06172839506172839,15.987654320987653,0)" xlink:href="#C"/><use transform="matrix(0.06172839506172839,0,0,0.06172839506172839,28.333333333333332,0)" xlink:href="#A"/><use transform="matrix(0.06172839506172839,0,0,0.06172839506172839,40.67901234567901,0)" xlink:href="#D"/><use transform="matrix(0.06172839506172839,0,0,0.06172839506172839,51.79012345679013,0)" xlink:href="#E"/><use transform="matrix(0.06172839506172839,0,0,0.06172839506172839,59.135802469135804,0)" xlink:href="#z"/><use transform="matrix(0.06172839506172839,0,0,0.06172839506172839,71.48148148148148,0)" xlink:href="#B"/><use transform="matrix(0.06172839506172839,0,0,0.06172839506172839,77.65432098765432,0)" xlink:href="#z"/><use transform="matrix(0.06172839506172839,0,0,0.06172839506172839,90,0)" xlink:href="#M"/><use transform="matrix(0.06172839506172839,0,0,0.06172839506172839,104.81481481481481,0)" xlink:href="#x"/><use transform="matrix(0.06172839506172839,0,0,0.06172839506172839,109.69135802469135,0)" xlink:href="#z"/><use transform="matrix(0.06172839506172839,0,0,0.06172839506172839,122.03703703703704,0)" xlink:href="#N"/><use transform="matrix(0.06172839506172839,0,0,0.06172839506172839,140.49382716049382,0)" xlink:href="#z"/><use transform="matrix(0.06172839506172839,0,0,0.06172839506172839,152.8395061728395,0)" xlink:href="#A"/><use transform="matrix(0.06172839506172839,0,0,0.06172839506172839,165.18518518518516,0)" xlink:href="#B"/><use transform="matrix(0.06172839506172839,0,0,0.06172839506172839,171.358024691358,0)" xlink:href="#Q"/></g><path fill="#fff" d="M24 0v-248h195v40H76v63h132v40H76v65h150V0H24" id="ah"/><path fill="#fff" d="M25 0v-261h50V0H25" id="ai"/><path fill="#fff" d="M220-157c-53 9-28 100-34 157h-49v-107c1-27-5-49-29-50C55-147 81-57 75 0H25l-1-190h47c2 12-1 28 3 38 10-53 101-56 108 0 13-22 24-43 59-42 82 1 51 116 57 194h-49v-107c-1-25-5-48-29-50" id="aj"/><g id="o"><use transform="matrix(0.05,0,0,0.05,0,0)" xlink:href="#ah"/><use transform="matrix(0.05,0,0,0.05,12,0)" xlink:href="#ai"/><use transform="matrix(0.05,0,0,0.05,17,0)" xlink:href="#V"/><use transform="matrix(0.05,0,0,0.05,27,0)" xlink:href="#aj"/><use transform="matrix(0.05,0,0,0.05,43,0)" xlink:href="#V"/><use transform="matrix(0.05,0,0,0.05,53,0)" xlink:href="#T"/><use transform="matrix(0.05,0,0,0.05,63.95,0)" xlink:href="#U"/></g><g id="p"><use transform="matrix(0.06172839506172839,0,0,0.06172839506172839,0,0)" xlink:href="#af"/><use transform="matrix(0.06172839506172839,0,0,0.06172839506172839,12.345679012345679,0)" xlink:href="#D"/><use transform="matrix(0.06172839506172839,0,0,0.06172839506172839,23.45679012345679,0)" xlink:href="#D"/><use transform="matrix(0.06172839506172839,0,0,0.06172839506172839,34.5679012345679,0)" xlink:href="#z"/><use transform="matrix(0.06172839506172839,0,0,0.06172839506172839,46.913580246913575,0)" xlink:href="#ag"/><use transform="matrix(0.06172839506172839,0,0,0.06172839506172839,59.25925925925925,0)" xlink:href="#B"/><use transform="matrix(0.06172839506172839,0,0,0.06172839506172839,65.43209876543209,0)" xlink:href="#K"/><use transform="matrix(0.06172839506172839,0,0,0.06172839506172839,72.77777777777777,0)" xlink:href="#J"/><use transform="matrix(0.06172839506172839,0,0,0.06172839506172839,83.88888888888889,0)" xlink:href="#y"/><use transform="matrix(0.06172839506172839,0,0,0.06172839506172839,88.76543209876543,0)" xlink:href="#G"/></g><use transform="matrix(0.06172839506172839,0,0,0.06172839506172839,0,0)" xlink:href="#L" id="q"/><g id="r"><use transform="matrix(0.06172839506172839,0,0,0.06172839506172839,0,0)" xlink:href="#F"/><use transform="matrix(0.06172839506172839,0,0,0.06172839506172839,14.382716049382715,0)" xlink:href="#y"/><use transform="matrix(0.06172839506172839,0,0,0.06172839506172839,19.25925925925926,0)" xlink:href="#G"/><use transform="matrix(0.06172839506172839,0,0,0.06172839506172839,30.37037037037037,0)" xlink:href="#y"/><use transform="matrix(0.06172839506172839,0,0,0.06172839506172839,35.24691358024691,0)" xlink:href="#B"/><use transform="matrix(0.06172839506172839,0,0,0.06172839506172839,41.41975308641975,0)" xlink:href="#C"/><use transform="matrix(0.06172839506172839,0,0,0.06172839506172839,53.76543209876543,0)" xlink:href="#E"/><use transform="matrix(0.06172839506172839,0,0,0.06172839506172839,61.11111111111111,0)" xlink:href="#P"/></g><path fill="#fff" d="M39-94c74 12-11 154 75 146v23c-44 4-70-10-70-52C44-23 55-84 6-82v-22c81 4-7-162 84-157h24v23c-82-15-2 131-75 144" id="ak"/><use transform="matrix(0.06172839506172839,0,0,0.06172839506172839,0,0)" xlink:href="#ak" id="s"/><path fill="#fff" d="M33 0v-38h34V0H33" id="al"/><path fill="#fff" d="M106-169C34-169 62-67 57 0H25v-261h32l-1 103c12-21 28-36 61-36 89 0 53 116 60 194h-32v-121c2-32-8-49-39-48" id="am"/><path fill="#fff" d="M68-36c1 33-1 63-14 82H32c9-13 17-26 17-46H33v-36h35zM33-154v-36h35v36H33" id="an"/><g id="u"><use transform="matrix(0.06172839506172839,0,0,0.06172839506172839,0,0)" xlink:href="#J"/><use transform="matrix(0.06172839506172839,0,0,0.06172839506172839,11.11111111111111,0)" xlink:href="#y"/><use transform="matrix(0.06172839506172839,0,0,0.06172839506172839,15.987654320987653,0)" xlink:href="#G"/><use transform="matrix(0.06172839506172839,0,0,0.06172839506172839,27.098765432098766,0)" xlink:href="#al"/><use transform="matrix(0.06172839506172839,0,0,0.06172839506172839,33.27160493827161,0)" xlink:href="#J"/><use transform="matrix(0.06172839506172839,0,0,0.06172839506172839,44.38271604938272,0)" xlink:href="#y"/><use transform="matrix(0.06172839506172839,0,0,0.06172839506172839,49.25925925925927,0)" xlink:href="#G"/><use transform="matrix(0.06172839506172839,0,0,0.06172839506172839,60.37037037037038,0)" xlink:href="#y"/><use transform="matrix(0.06172839506172839,0,0,0.06172839506172839,65.24691358024693,0)" xlink:href="#B"/><use transform="matrix(0.06172839506172839,0,0,0.06172839506172839,71.41975308641976,0)" xlink:href="#K"/><use transform="matrix(0.06172839506172839,0,0,0.06172839506172839,78.76543209876544,0)" xlink:href="#B"/><use transform="matrix(0.06172839506172839,0,0,0.06172839506172839,84.93827160493828,0)" xlink:href="#am"/><use transform="matrix(0.06172839506172839,0,0,0.06172839506172839,97.28395061728396,0)" xlink:href="#y"/><use transform="matrix(0.06172839506172839,0,0,0.06172839506172839,102.16049382716051,0)" xlink:href="#G"/><use transform="matrix(0.06172839506172839,0,0,0.06172839506172839,113.27160493827162,0)" xlink:href="#P"/><use transform="matrix(0.06172839506172839,0,0,0.06172839506172839,120.6172839506173,0)" xlink:href="#an"/></g><path fill="#fff" d="M76-40C78 24 84 88 6 75V52C86 64 9-79 80-94c-40-6-34-59-34-106 1-29-11-41-40-38v-23c44-4 70 10 70 52 0 47-12 108 38 105v22c-26 1-39 14-38 42" id="ao"/><use transform="matrix(0.06172839506172839,0,0,0.06172839506172839,0,0)" xlink:href="#ao" id="v"/></defs></g></svg>