<svg xmlns="http://www.w3.org/2000/svg" xmlns:xlink="http://www.w3.org/1999/xlink" xmlns:lucid="lucid" width="840" height="620"><g transform="translate(-80 -100)" lucid:page-tab-id="-T3qXCH_ULFb"><path d="M400 126a6 6 0 0 1 6-6h148a6 6 0 0 1 6 6v68a6 6 0 0 1-6 6H406a6 6 0 0 1-6-6z" stroke="#fff" stroke-width="3" fill-opacity="0"/><use xlink:href="#a" transform="matrix(1,0,0,1,405,125) translate(20.740740740740733 26.52777777777778)"/><use xlink:href="#b" transform="matrix(1,0,0,1,405,125) translate(53.425925925925924 53.19444444444445)"/><path d="M260 286a6 6 0 0 1 6-6h148a6 6 0 0 1 6 6v68a6 6 0 0 1-6 6H266a6 6 0 0 1-6-6z" stroke="#fff" stroke-width="3" fill-opacity="0"/><use xlink:href="#a" transform="matrix(1,0,0,1,265,285) translate(20.740740740740733 26.52777777777778)"/><use xlink:href="#b" transform="matrix(1,0,0,1,265,285) translate(53.425925925925924 53.19444444444445)"/><path d="M520 286a6 6 0 0 1 6-6h148a6 6 0 0 1 6 6v68a6 6 0 0 1-6 6H526a6 6 0 0 1-6-6z" stroke="#fff" stroke-width="3" fill-opacity="0"/><use xlink:href="#a" transform="matrix(1,0,0,1,525,285) translate(20.740740740740733 26.52777777777778)"/><use xlink:href="#b" transform="matrix(1,0,0,1,525,285) translate(53.425925925925924 53.19444444444445)"/><path d="M900 320c0 22.1-26.86 40-60 40s-60-17.9-60-40 26.86-40 60-40 60 17.9 60 40z" stroke="#fff" stroke-width="3" fill-opacity="0"/><use xlink:href="#c" transform="matrix(1,0,0,1,785,285) translate(34.043209876543216 39.96527777777778)"/><path d="M460 446a6 6 0 0 1 6-6h148a6 6 0 0 1 6 6v68a6 6 0 0 1-6 6H466a6 6 0 0 1-6-6z" stroke="#fff" stroke-width="3" fill-opacity="0"/><use xlink:href="#a" transform="matrix(1,0,0,1,465,445) translate(20.740740740740733 26.52777777777778)"/><use xlink:href="#b" transform="matrix(1,0,0,1,465,445) translate(53.425925925925924 53.19444444444445)"/><path d="M840 480c0 22.1-26.86 40-60 40s-60-17.9-60-40 26.86-40 60-40 60 17.9 60 40z" stroke="#fff" stroke-width="3" fill-opacity="0"/><use xlink:href="#d" transform="matrix(1,0,0,1,725,445) translate(27.87037037037037 39.96527777777778)"/><path d="M900 660c0 22.1-26.86 40-60 40s-60-17.9-60-40 26.86-40 60-40 60 17.9 60 40z" stroke="#fff" stroke-width="3" fill-opacity="0"/><use xlink:href="#e" transform="matrix(1,0,0,1,785,625) translate(26.728395061728396 39.96527777777778)"/><path d="M600 660c0 22.1-26.86 40-60 40s-60-17.9-60-40 26.86-40 60-40 60 17.9 60 40z" stroke="#fff" stroke-width="3" fill-opacity="0"/><use xlink:href="#c" transform="matrix(1,0,0,1,485,625) translate(34.043209876543216 39.96527777777778)"/><path d="M280 660c0 22.1-26.86 40-60 40s-60-17.9-60-40 26.86-40 60-40 60 17.9 60 40z" stroke="#fff" stroke-width="3" fill-opacity="0"/><use xlink:href="#e" transform="matrix(1,0,0,1,165,625) translate(26.728395061728396 39.96527777777778)"/><path d="M420 480c0 22.1-26.86 40-60 40s-60-17.9-60-40 26.86-40 60-40 60 17.9 60 40z" stroke="#fff" stroke-width="3" fill-opacity="0"/><use xlink:href="#d" transform="matrix(1,0,0,1,305,445) translate(27.87037037037037 39.96527777777778)"/><path d="M220 480c0 22.1-26.86 40-60 40s-60-17.9-60-40 26.86-40 60-40 60 17.9 60 40z" stroke="#fff" stroke-width="3" fill-opacity="0"/><use xlink:href="#c" transform="matrix(1,0,0,1,105,445) translate(34.043209876543216 39.96527777777778)"/><path d="M339.08 361.86L160.92 438.1" stroke="#fff" stroke-width="2" fill="none"/><path d="M339.45 362.8l-.57-1.34h3.66zM161.14 438.55l-1.14-.05-2.77.1 3.32-1.42z" stroke="#fff" stroke-width=".05" fill="#fff"/><path d="M340.25 362.43l19.5 75.1" stroke="#fff" stroke-width="2" fill="none"/><path d="M341.23 362.2l-1.94.5-.33-1.24h2.06zM361.04 438.54l-1.04-.04-1.02.04-.2-.78 1.93-.5z" stroke="#fff" stroke-width=".05" fill="#fff"/><path d="M599.4 362.25l-58.8 75.5" stroke="#fff" stroke-width="2" fill="none"/><path d="M600.16 362.9l-1.58-1.24.15-.2h2.54zM541.42 438.34l-.15.2h-2.54l1.1-1.43z" stroke="#fff" stroke-width=".05" fill="#fff"/><path d="M600.92 361.86l178.16 76.25" stroke="#fff" stroke-width="2" fill="none"/><path d="M600.55 362.8l-3.1-1.34h3.67zM782.8 438.62l-2.8-.12-1.13.04.58-1.36z" stroke="#fff" stroke-width=".05" fill="#fff"/><path d="M539.04 521.75L220.96 618.2" stroke="#fff" stroke-width="2" fill="none"/><path d="M543.16 521.55l-3.85 1.17-.37-1.26h4.2zM221.1 618.54l-1.1-.04-3.1.1-.06-.2 3.85-1.16z" stroke="#fff" stroke-width=".05" fill="#fff"/><path d="M540 522.46v95.04" stroke="#fff" stroke-width="2" fill="none"/><path d="M541 522.5h-2v-1.04h2zM541 618.54l-1-.04-1 .03v-1.06h2z" stroke="#fff" stroke-width=".05" fill="#fff"/><path d="M540.95 521.77l298.1 96.42" stroke="#fff" stroke-width="2" fill="none"/><path d="M540.67 522.73l-3.83-1.24v-.04h4.24zM843.16 618.47l-.05.16-3.1-.13-1.1.04.43-1.3z" stroke="#fff" stroke-width=".05" fill="#fff"/><path d="M479.12 201.95l-138.24 76.1" stroke="#fff" stroke-width="2" fill="none"/><path d="M479.58 202.83l-.75-1.37h3.25zM341.17 278.54h-3.25l2.5-1.37z" stroke="#fff" stroke-width=".05" fill="#fff"/><path d="M480.84 202l118.32 76" stroke="#fff" stroke-width="2" fill="none"/><path d="M480.32 202.86l-2.17-1.4h3.07zM601.85 278.54h-3.07l.9-1.4z" stroke="#fff" stroke-width=".05" fill="#fff"/><path d="M480.98 201.67l358.04 76.62" stroke="#fff" stroke-width="2" fill="none"/><path d="M480.8 202.66l-3.94-.85.07-.34h4.12zM843.14 278.15l-.1.47-3.04-.12-1.06.04.27-1.23z" stroke="#fff" stroke-width=".05" fill="#fff"/><defs><path fill="#fff" d="M212-179c-10-28-35-45-73-45-59 0-87 40-87 99 0 60 29 101 89 101 43 0 62-24 78-52l27 14C228-24 195 4 139 4 59 4 22-46 18-125c-6-104 99-153 187-111 19 9 31 26 39 46" id="f"/><path fill="#fff" d="M100-194c62-1 85 37 85 99 1 63-27 99-86 99S16-35 15-95c0-66 28-99 85-99zM99-20c44 1 53-31 53-75 0-43-8-75-51-75s-53 32-53 75 10 74 51 75" id="g"/><path fill="#fff" d="M210-169c-67 3-38 105-44 169h-31v-121c0-29-5-50-35-48C34-165 62-65 56 0H25l-1-190h30c1 10-1 24 2 32 10-44 99-50 107 0 11-21 27-35 58-36 85-2 47 119 55 194h-31v-121c0-29-5-49-35-48" id="h"/><path fill="#fff" d="M115-194c55 1 70 41 70 98S169 2 115 4C84 4 66-9 55-30l1 105H24l-1-265h31l2 30c10-21 28-34 59-34zm-8 174c40 0 45-34 45-75s-6-73-45-74c-42 0-51 32-51 76 0 43 10 73 51 73" id="i"/><path fill="#fff" d="M84 4C-5 8 30-112 23-190h32v120c0 31 7 50 39 49 72-2 45-101 50-169h31l1 190h-30c-1-10 1-25-2-33-11 22-28 36-60 37" id="j"/><path fill="#fff" d="M117-194c89-4 53 116 60 194h-32v-121c0-31-8-49-39-48C34-167 62-67 57 0H25l-1-190h30c1 10-1 24 2 32 11-22 29-35 61-36" id="k"/><path fill="#fff" d="M85-194c31 0 48 13 60 33l-1-100h32l1 261h-30c-2-10 0-23-3-31C134-8 116 4 85 4 32 4 16-35 15-94c0-66 23-100 70-100zm9 24c-40 0-46 34-46 75 0 40 6 74 45 74 42 0 51-32 51-76 0-42-9-74-50-73" id="l"/><g id="a"><use transform="matrix(0.06172839506172839,0,0,0.06172839506172839,0,0)" xlink:href="#f"/><use transform="matrix(0.06172839506172839,0,0,0.06172839506172839,15.987654320987653,0)" xlink:href="#g"/><use transform="matrix(0.06172839506172839,0,0,0.06172839506172839,28.333333333333332,0)" xlink:href="#h"/><use transform="matrix(0.06172839506172839,0,0,0.06172839506172839,46.79012345679012,0)" xlink:href="#i"/><use transform="matrix(0.06172839506172839,0,0,0.06172839506172839,59.1358024691358,0)" xlink:href="#g"/><use transform="matrix(0.06172839506172839,0,0,0.06172839506172839,71.48148148148148,0)" xlink:href="#j"/><use transform="matrix(0.06172839506172839,0,0,0.06172839506172839,83.82716049382717,0)" xlink:href="#k"/><use transform="matrix(0.06172839506172839,0,0,0.06172839506172839,96.17283950617285,0)" xlink:href="#l"/></g><path fill="#fff" d="M33 0v-248h34V0H33" id="m"/><path fill="#fff" d="M59-47c-2 24 18 29 38 22v24C64 9 27 4 27-40v-127H5v-23h24l9-43h21v43h35v23H59v120" id="n"/><path fill="#fff" d="M100-194c63 0 86 42 84 106H49c0 40 14 67 53 68 26 1 43-12 49-29l28 8c-11 28-37 45-77 45C44 4 14-33 15-96c1-61 26-98 85-98zm52 81c6-60-76-77-97-28-3 7-6 17-6 28h103" id="o"/><g id="b"><use transform="matrix(0.06172839506172839,0,0,0.06172839506172839,0,0)" xlink:href="#m"/><use transform="matrix(0.06172839506172839,0,0,0.06172839506172839,6.172839506172839,0)" xlink:href="#n"/><use transform="matrix(0.06172839506172839,0,0,0.06172839506172839,12.345679012345679,0)" xlink:href="#o"/><use transform="matrix(0.06172839506172839,0,0,0.06172839506172839,24.691358024691358,0)" xlink:href="#h"/></g><path fill="#fff" d="M30 0v-248h33v221h125V0H30" id="p"/><path fill="#fff" d="M24-231v-30h32v30H24zM24 0v-190h32V0H24" id="q"/><g id="c"><use transform="matrix(0.06172839506172839,0,0,0.06172839506172839,0,0)" xlink:href="#p"/><use transform="matrix(0.06172839506172839,0,0,0.06172839506172839,12.345679012345679,0)" xlink:href="#q"/><use transform="matrix(0.06172839506172839,0,0,0.06172839506172839,17.22222222222222,0)" xlink:href="#k"/><use transform="matrix(0.06172839506172839,0,0,0.06172839506172839,29.5679012345679,0)" xlink:href="#o"/></g><path fill="#fff" d="M141-36C126-15 110 5 73 4 37 3 15-17 15-53c-1-64 63-63 125-63 3-35-9-54-41-54-24 1-41 7-42 31l-33-3c5-37 33-52 76-52 45 0 72 20 72 64v82c-1 20 7 32 28 27v20c-31 9-61-2-59-35zM48-53c0 20 12 33 32 33 41-3 63-29 60-74-43 2-92-5-92 41" id="r"/><path fill="#fff" d="M115-194c53 0 69 39 70 98 0 66-23 100-70 100C84 3 66-7 56-30L54 0H23l1-261h32v101c10-23 28-34 59-34zm-8 174c40 0 45-34 45-75 0-40-5-75-45-74-42 0-51 32-51 76 0 43 10 73 51 73" id="s"/><path fill="#fff" d="M24 0v-261h32V0H24" id="t"/><g id="d"><use transform="matrix(0.06172839506172839,0,0,0.06172839506172839,0,0)" xlink:href="#p"/><use transform="matrix(0.06172839506172839,0,0,0.06172839506172839,12.345679012345679,0)" xlink:href="#r"/><use transform="matrix(0.06172839506172839,0,0,0.06172839506172839,24.691358024691358,0)" xlink:href="#s"/><use transform="matrix(0.06172839506172839,0,0,0.06172839506172839,37.03703703703704,0)" xlink:href="#o"/><use transform="matrix(0.06172839506172839,0,0,0.06172839506172839,49.382716049382715,0)" xlink:href="#t"/></g><path fill="#fff" d="M114-163C36-179 61-72 57 0H25l-1-190h30c1 12-1 29 2 39 6-27 23-49 58-41v29" id="u"/><path fill="#fff" d="M96-169c-40 0-48 33-48 73s9 75 48 75c24 0 41-14 43-38l32 2c-6 37-31 61-74 61-59 0-76-41-82-99-10-93 101-131 147-64 4 7 5 14 7 22l-32 3c-4-21-16-35-41-35" id="v"/><g id="e"><use transform="matrix(0.06172839506172839,0,0,0.06172839506172839,0,0)" xlink:href="#f"/><use transform="matrix(0.06172839506172839,0,0,0.06172839506172839,15.987654320987653,0)" xlink:href="#q"/><use transform="matrix(0.06172839506172839,0,0,0.06172839506172839,20.864197530864196,0)" xlink:href="#u"/><use transform="matrix(0.06172839506172839,0,0,0.06172839506172839,28.209876543209873,0)" xlink:href="#v"/><use transform="matrix(0.06172839506172839,0,0,0.06172839506172839,39.32098765432099,0)" xlink:href="#t"/><use transform="matrix(0.06172839506172839,0,0,0.06172839506172839,44.19753086419753,0)" xlink:href="#o"/></g></defs></g></svg>