<svg xmlns="http://www.w3.org/2000/svg" xmlns:xlink="http://www.w3.org/1999/xlink" xmlns:lucid="lucid" width="1240" height="895.5"><g transform="translate(-180 -60)" lucid:page-tab-id="tB3qqe-_-Ekp"><path d="M380 126a6 6 0 0 1 6-6h108a6 6 0 0 1 6 6v48a6 6 0 0 1-6 6H386a6 6 0 0 1-6-6z" stroke="#fff" stroke-width="3" fill-opacity="0"/><use xlink:href="#a" transform="matrix(1,0,0,1,380,120) translate(40.73 33.15)"/><path d="M440 182.46v3m0 3.97v5.97m0 3.98v5.98m0 3.98v5.97m0 4v5.96m0 3.98v5.98m0 3.98v5.97m0 3.98v5.97m0 3.98v5.97m0 4v5.96m0 3.98V285m0 3.98v5.97m0 4v5.96m0 3.97v5.97m0 3.98v5.97m0 3.98v5.97m0 3.98v5.97m0 3.98v5.97m0 3.98v5.98m0 4v5.96m0 3.98v5.97m0 4v5.97m0 3.98v5.97m0 3.98v5.97m0 3.98v5.98m0 3.98v5.98m0 3.98v5.97m0 3.98v6m0 3.97v5.97m0 3.98v5.97m0 3.97v5.98m0 3.98V494m0 3.98v5.97m0 3.98v5.97m0 4v5.96m0 3.98v5.97m0 4v5.96m0 4v5.96m0 3.98v5.97m0 3.98v5.97m0 4v5.96m0 3.98v5.97m0 3.98v5.98m0 3.98v5.98m0 3.98v5.97m0 3.97v5.97m0 3.98v5.98m0 3.98v5.97m0 3.98v5.97m0 3.98v5.98m0 3.98v5.97m0 4v5.96m0 3.98v5.98m0 3.98v5.97m0 3.98v5.97m0 3.98v5.98m0 3.98v5.97m0 3.98v5.98m0 3.98v5.97m0 4v5.96m0 3.97v5.97m0 3.98v5.97m0 3.98v5.97m0 3.98v5.97m0 3.98v5.97m0 4v5.96m0 4v5.96m0 3.98v5.97m0 4v5.97m0 3.98v5.97m0 3.98v5.97m0 3.98v5.98m0 3.98v5.98m0 3.98v5.97m0 3.98v3" stroke="#fff" stroke-width="2" fill="none"/><path d="M441 182.5h-2v-1.04h2z" stroke="#fff" stroke-width=".05" fill="#fff"/><path d="M440 918.97V920" stroke="#fff" stroke-width="2" fill="none"/><path d="M910 126a6 6 0 0 1 6-6h128a6 6 0 0 1 6 6v48a6 6 0 0 1-6 6H916a6 6 0 0 1-6-6z" stroke="#fff" stroke-width="3" fill-opacity="0"/><use xlink:href="#b" transform="matrix(1,0,0,1,910,120) translate(14.554999999999994 33.15)"/><path d="M980 182.46v3m0 3.97v5.97m0 3.98v5.98m0 3.98v5.97m0 4v5.96m0 3.98v5.98m0 3.98v5.97m0 3.98v5.97m0 3.98v5.97m0 4v5.96m0 3.98V285m0 3.98v5.97m0 4v5.96m0 3.97v5.97m0 3.98v5.97m0 3.98v5.97m0 3.98v5.97m0 3.98v5.97m0 3.98v5.98m0 4v5.96m0 3.98v5.97m0 4v5.97m0 3.98v5.97m0 3.98v5.97m0 3.98v5.98m0 3.98v5.98m0 3.98v5.97m0 3.98v6m0 3.97v5.97m0 3.98v5.97m0 3.97v5.98m0 3.98V494m0 3.98v5.97m0 3.98v5.97m0 4v5.96m0 3.98v5.97m0 4v5.96m0 4v5.96m0 3.98v5.97m0 3.98v5.97m0 4v5.96m0 3.98v5.97m0 3.98v5.98m0 3.98v5.98m0 3.98v5.97m0 3.97v5.97m0 3.98v5.98m0 3.98v5.97m0 3.98v5.97m0 3.98v5.98m0 3.98v5.97m0 4v5.96m0 3.98v5.98m0 3.98v5.97m0 3.98v5.97m0 3.98v5.98m0 3.98v5.97m0 3.98v5.98m0 3.98v5.97m0 4v5.96m0 3.97v5.97m0 3.98v5.97m0 3.98v5.97m0 3.98v5.97m0 3.98v5.97m0 4v5.96m0 4v5.96m0 3.98v5.97m0 4v5.97m0 3.98v5.97m0 3.98v5.97m0 3.98v5.98m0 3.98v5.98m0 3.98v5.97m0 3.98v3" stroke="#fff" stroke-width="2" fill="none"/><path d="M981 182.5h-2v-1.04h2z" stroke="#fff" stroke-width=".05" fill="#fff"/><path d="M980 918.97V920" stroke="#fff" stroke-width="2" fill="none"/><path d="M1280 126a6 6 0 0 1 6-6h108a6 6 0 0 1 6 6v48a6 6 0 0 1-6 6h-108a6 6 0 0 1-6-6z" stroke="#fff" stroke-width="3" fill-opacity="0"/><use xlink:href="#c" transform="matrix(1,0,0,1,1280,120) translate(35.555 33.15)"/><path d="M1340 182.46v3m0 3.97v5.97m0 3.98v5.98m0 3.98v5.97m0 4v5.96m0 3.98v5.98m0 3.98v5.97m0 3.98v5.97m0 3.98v5.97m0 4v5.96m0 3.98V285m0 3.98v5.97m0 4v5.96m0 3.97v5.97m0 3.98v5.97m0 3.98v5.97m0 3.98v5.97m0 3.98v5.97m0 3.98v5.98m0 4v5.96m0 3.98v5.97m0 4v5.97m0 3.98v5.97m0 3.98v5.97m0 3.98v5.98m0 3.98v5.98m0 3.98v5.97m0 3.98v6m0 3.97v5.97m0 3.98v5.97m0 3.97v5.98m0 3.98V494m0 3.98v5.97m0 3.98v5.97m0 4v5.96m0 3.98v5.97m0 4v5.96m0 4v5.96m0 3.98v5.97m0 3.98v5.97m0 4v5.96m0 3.98v5.97m0 3.98v5.98m0 3.98v5.98m0 3.98v5.97m0 3.97v5.97m0 3.98v5.98m0 3.98v5.97m0 3.98v5.97m0 3.98v5.98m0 3.98v5.97m0 4v5.96m0 3.98v5.98m0 3.98v5.97m0 3.98v5.97m0 3.98v5.98m0 3.98v5.97m0 3.98v5.98m0 3.98v5.97m0 4v5.96m0 3.97v5.97m0 3.98v5.97m0 3.98v5.97m0 3.98v5.97m0 3.98v5.97m0 4v5.96m0 4v5.96m0 3.98v5.97m0 4v5.97m0 3.98v5.97m0 3.98v5.97m0 3.98v5.98m0 3.98v5.98m0 3.98v5.97m0 3.98v3" stroke="#fff" stroke-width="2" fill="none"/><path d="M1341 182.5h-2v-1.04h2z" stroke="#fff" stroke-width=".05" fill="#fff"/><path d="M1340 918.97V920" stroke="#fff" stroke-width="2" fill="none"/><path d="M1100 306a6 6 0 0 1 6-6h108a6 6 0 0 1 6 6v48a6 6 0 0 1-6 6h-108a6 6 0 0 1-6-6z" stroke="#fff" stroke-width="3" fill-opacity="0"/><use xlink:href="#d" transform="matrix(1,0,0,1,1100,300) translate(43.029999999999994 33.15)"/><path d="M1160 362.46v2.98m0 3.98v5.96m0 3.98v5.96m0 3.98v5.96m0 3.97v5.97m0 3.97v5.97m0 3.97v5.97m0 3.98V435m0 4v5.95m0 3.98v5.96m0 3.96v5.97m0 3.97v5.96m0 3.98v5.96m0 3.98v5.96m0 3.98v5.96m0 3.97v5.97m0 3.97v5.96m0 3.97v5.96m0 3.97v5.96m0 3.98v5.97m0 3.97v5.97m0 3.98v5.97m0 3.97v5.96m0 3.98v5.96m0 3.98v5.96m0 3.98v5.96m0 3.97v5.97m0 3.97v5.97m0 3.98v5.96m0 4v5.95m0 3.98v5.96m0 3.96v5.97m0 3.97v5.97m0 3.97v5.96m0 3.98v5.96m0 3.98v5.96m0 3.98v5.96m0 3.97v5.96m0 3.97v5.96m0 3.97v5.96m0 3.98v5.97m0 3.98v5.96m0 3.98v5.97m0 3.97v5.97m0 3.96v5.96m0 3.98v5.96m0 3.98v5.96m0 3.98v5.96m0 3.97v5.98m0 3.97v5.96m0 4v5.95m0 3.98v5.96m0 3.97v5.96m0 3.97v5.97m0 3.97v5.97m0 3.98v5.96m0 3.98V919" stroke="#fff" stroke-width="2" fill="none"/><path d="M1161 362.5h-2v-1.04h2z" stroke="#fff" stroke-width=".05" fill="#fff"/><path d="M1160 918.97V920" stroke="#fff" stroke-width="2" fill="none"/><path d="M680 306a6 6 0 0 1 6-6h128a6 6 0 0 1 6 6v48a6 6 0 0 1-6 6H686a6 6 0 0 1-6-6z" stroke="#fff" stroke-width="3" fill-opacity="0"/><use xlink:href="#e" transform="matrix(1,0,0,1,680,300) translate(11.604999999999992 33.15)"/><path d="M750 362.46v2.98m0 3.96v5.95m0 3.96v5.96m0 3.96v5.95m0 3.97v5.94m0 3.97V415m0 3.96v5.94m0 3.97v5.95m0 3.96v5.95m0 3.96v5.94m0 3.96v5.95m0 3.96v5.96m0 3.97v5.94m0 3.97v5.94m0 3.97v5.95m0 3.96v5.95m0 3.97v5.95m0 3.96v5.95m0 3.96v5.94m0 3.97v5.95m0 3.97v5.94m0 3.97v5.95m0 3.96v5.95m0 3.95v5.95m0 3.96v5.95m0 3.97v5.95m0 3.97v5.93m0 3.97v5.94m0 3.97v5.96m0 3.96v5.95m0 3.96v5.95m0 3.96v5.95m0 3.95v5.95m0 3.97v5.94m0 3.98v5.94m0 3.97v5.93m0 3.97v5.95m0 3.96v5.96m0 3.96v5.95m0 3.96v5.95m0 3.96v5.95m0 3.96v5.94m0 3.97v5.94m0 3.98v5.95m0 3.96v5.94m0 3.96v5.95m0 3.96v5.96m0 3.96v5.95m0 3.97v5.94m0 3.97v5.94m0 3.96V861m0 3.97v5.95m0 3.96v5.95m0 3.96v5.94m0 3.96v5.95m0 3.97v5.94m0 3.97v2.97" stroke="#fff" stroke-width="2" fill="none"/><path d="M751 362.5h-2v-1.04h2z" stroke="#fff" stroke-width=".05" fill="#fff"/><path d="M750 917.47v1.03" stroke="#fff" stroke-width="2" fill="none"/><path d="M420 226a6 6 0 0 1 6-6h28a6 6 0 0 1 6 6v388a6 6 0 0 1-6 6h-28a6 6 0 0 1-6-6z" stroke="#fff" stroke-width="3" fill="#282c33"/><path d="M462.45 330.23h107.43a.1.1 0 0 0 .1-.12.1.1 0 0 1 .12-.1h89.93" stroke="#fff" stroke-width="2" fill="none"/><path d="M462.47 331.23h-1.02v-2h1.02z" stroke="#fff" stroke-width=".05" fill="#fff"/><path d="M675.3 330l-14.27 4.64v-9.28z" stroke="#fff" stroke-width="2" fill="#fff"/><use xlink:href="#f" transform="matrix(1,0,0,1,543.8331923276072,304.6684125601569) translate(0 14.222222222222223)"/><path d="M822.46 330h257.57" stroke="#fff" stroke-width="2" fill="none"/><path d="M822.5 331h-1.03v-2h1.02z" stroke="#fff" stroke-width=".05" fill="#fff"/><path d="M1095.3 330l-14.27 4.64v-9.28z" stroke="#fff" stroke-width="2" fill="#fff"/><use xlink:href="#f" transform="matrix(1,0,0,1,915.8157049109303,304.66666666666663) translate(0 14.222222222222223)"/><path d="M960 406a6 6 0 0 1 6-6h28a6 6 0 0 1 6 6v208a6 6 0 0 1-6 6h-28a6 6 0 0 1-6-6z" stroke="#fff" stroke-width="3" fill="#282c33"/><path d="M462.46 421.33h247.52l.02.03h247.45" stroke="#fff" stroke-width="2" fill="none"/><path d="M462.5 422.33h-1.04v-2h1.03z" stroke="#fff" stroke-width=".05" fill="#fff"/><path d="M939.92 410.67l18.08 10.7" stroke="#fff" stroke-width="2" fill="none"/><use xlink:href="#g" transform="matrix(1,0,0,1,578.4784955485575,395.99773974043416) translate(0 14.222222222222223)"/><path d="M730 486a6 6 0 0 1 6-6h28a6 6 0 0 1 6 6v108a6 6 0 0 1-6 6h-28a6 6 0 0 1-6-6z" stroke="#fff" stroke-width="3" fill="#282c33"/><path d="M957.53 490.7h-92.48a.07.07 0 0 0-.07.06.07.07 0 0 1-.07.07H772.5" stroke="#fff" stroke-width="2" fill="none"/><path d="M958.53 491.7h-1.03v-2h1.03z" stroke="#fff" stroke-width=".05" fill="#fff"/><path d="M790 480.14l-18.06 10.7" stroke="#fff" stroke-width="2" fill="none"/><use xlink:href="#h" transform="matrix(1,0,0,1,831.9478020601902,494.82665830109437) translate(0 14.222222222222223)"/><path d="M1320 526a6 6 0 0 1 6-6h28a6 6 0 0 1 6 6v68a6 6 0 0 1-6 6h-28a6 6 0 0 1-6-6z" stroke="#fff" stroke-width="3" fill="#282c33"/><path d="M772.46 540H1300" stroke="#fff" stroke-width="2" fill="none"/><path d="M772.5 541h-1.04v-2h1.03z" stroke="#fff" stroke-width=".05" fill="#fff"/><path d="M1315.28 540l-14.27 4.65v-9.27z" stroke="#fff" stroke-width="2" fill="#fff"/><use xlink:href="#i" transform="matrix(1,0,0,1,1020.8313253550364,514.6806507270202) translate(0 14.222222222222223)"/><path d="M772.5 577.3h3.07m4.1 0h6.17m4.1 0h6.18m4.1 0h6.17m4.1 0h6.16m4.1 0h6.17m4.1 0h6.17m4.1 0h6.18m4.1 0h6.17m4.1 0H865v-.02h.02v-.08l.02-.02.02-.02h.02l.02-.02h3.2m4.3 0H879m4.28 0h6.43m4.28 0h6.44m4.28 0h6.42m4.3 0h6.4m4.3 0h6.42m4.3 0h3.2" stroke="#fff" stroke-width="2" fill="none"/><path d="M772.5 578.3h-1v-2h1z" stroke="#fff" stroke-width=".05" fill="#fff"/><path d="M955.32 577.14l-14.26 4.64v-9.27z" stroke="#fff" stroke-width="2" fill="#fff"/><path d="M957.63 615.35h-2.97m-3.95 0h-5.92m-3.96 0h-5.93m-3.97 0H925m-3.96 0h-5.93m-3.94 0h-5.94m-3.95 0h-5.93m-3.96 0h-5.93m-3.96 0h-5.94m-3.96 0h-5.93m-3.95 0h-5.94m-3.95 0h-5.94m-3.96 0H836m-3.95 0h-5.93m-3.96 0h-5.93m-3.96 0h-5.93m-3.95 0h-5.95m-3.95 0h-5.93m-3.96 0h-5.92m-3.96 0h-5.93m-3.97 0h-5.93m-3.95 0H747m-3.94 0h-5.94m-3.95 0h-5.93m-3.96 0h-5.93m-3.96 0H710.3l-.05-.04-.05-.02-.04-.04-.04-.04-.03-.05-.04-.06v-.07l-.02-.06v-.11l-.04-.05-.03-.05-.04-.05-.04-.04-.06-.03-.06-.02h-3.06m-4 0h-5.98m-4 0h-6m-4 0h-5.98m-4 0h-6m-4 0h-5.98m-4 0h-6m-4 0h-5.98m-4 0h-6m-4 0h-5.98m-4 0h-6m-4 0h-5.98m-4 0h-6m-4 0h-5.98m-4 0h-6m-4 0h-5.98m-4 0h-6m-3.98 0h-6m-4 0h-6m-3.98 0h-6m-4 0h-6m-3.98 0h-6m-4 0h-6m-3.98 0h-3" stroke="#fff" stroke-width="2" fill="none"/><path d="M958.57 615.12l.3 1.2v.03h-1.26v-2h.97z" stroke="#fff" stroke-width=".05" fill="#fff"/><path d="M464.7 614.6l14.26-4.64v9.27z" stroke="#fff" stroke-width="2" fill="#fff"/><path d="M730 646a6 6 0 0 1 6-6h28a6 6 0 0 1 6 6v68a6 6 0 0 1-6 6h-28a6 6 0 0 1-6-6z" stroke="#fff" stroke-width="3" fill="#282c33"/><path d="M462.5 653.33H727.46M462.53 653.33h-1.03M709.92 664.03l18.08-10.7" stroke="#fff" stroke-width="2" fill="none"/><use xlink:href="#j" transform="matrix(1,0,0,1,509.37446662727285,628.0000102499932) translate(0 14.222222222222223)"/><path d="M1140 666a6 6 0 0 1 6-6h28a6 6 0 0 1 6 6v48a6 6 0 0 1-6 6h-28a6 6 0 0 1-6-6z" stroke="#fff" stroke-width="3" fill="#282c33"/><path d="M772.46 681.33H1120" stroke="#fff" stroke-width="2" fill="none"/><path d="M772.5 682.33h-1.03v-2h1.02z" stroke="#fff" stroke-width=".05" fill="#fff"/><path d="M1135.3 681.34l-14.28 4.64v-9.27z" stroke="#fff" stroke-width="2" fill="#fff"/><use xlink:href="#k" transform="matrix(1,0,0,1,828.9733626263765,655.9978266565432) translate(0 14.222222222222223)"/><path d="M727.56 706.6h-3.05m-4.07 0h-6.1m-4.1 0h-6.1m-4.08 0h-6.12m-4.07 0h-6.12m-4.08 0h-6.1m-4.1 0h-6.1m-4.08 0h-6.1m-4.1 0H643m-4.08 0h-6.12m-4.07 0h-6.1m-4.1 0h-6.1m-4.08 0h-6.1m-4.1 0h-3.09v.06h-3.16m-4.18 0h-6.27m-4.17 0h-6.28m-4.18 0h-6.27m-4.18 0h-6.27m-4.2 0h-6.26m-4.2 0h-6.26m-4.18 0h-6.28m-4.18 0h-6.27m-4.18 0h-6.28m-4.18 0h-6.28m-4.18 0H480" stroke="#fff" stroke-width="2" fill="none"/><path d="M728.57 707.6h-1.03v-2h1.02z" stroke="#fff" stroke-width=".05" fill="#fff"/><path d="M464.74 706.67l14.26-4.64v9.27z" stroke="#fff" stroke-width="2" fill="#fff"/><path d="M960 746a6 6 0 0 1 6-6h28a6 6 0 0 1 6 6v148a6 6 0 0 1-6 6h-28a6 6 0 0 1-6-6z" stroke="#fff" stroke-width="3" fill="#282c33"/><path d="M462.5 760H710v.02h247.45M462.53 760h-1.03M939.92 770.7L958 760.03" stroke="#fff" stroke-width="2" fill="none"/><use xlink:href="#l" transform="matrix(1,0,0,1,491.0393204143174,734.6666666666667) translate(0 14.222222222222223)"/><path d="M730 786a6 6 0 0 1 6-6h28a6 6 0 0 1 6 6v28a6 6 0 0 1-6 6h-28a6 6 0 0 1-6-6z" stroke="#fff" stroke-width="3" fill="#282c33"/><path d="M957.53 797.36H865l-.02-.02h-75.02" stroke="#fff" stroke-width="2" fill="none"/><path d="M958.53 798.36h-1.03v-2h1.03z" stroke="#fff" stroke-width=".05" fill="#fff"/><path d="M774.7 797.34l14.26-4.64v9.27z" stroke="#fff" stroke-width="2" fill="#fff"/><use xlink:href="#m" transform="matrix(1,0,0,1,843.3607605740781,801.3599996085508) translate(0 14.222222222222223)"/><path d="M1002.46 822.66h314.99" stroke="#fff" stroke-width="2" fill="none"/><path d="M1002.5 823.66h-1.03v-2h1.02z" stroke="#fff" stroke-width=".05" fill="#fff"/><path d="M1299.92 833.36l18.07-10.7" stroke="#fff" stroke-width="2" fill="none"/><use xlink:href="#n" transform="matrix(1,0,0,1,1103.3897988610404,797.3289495167483) translate(0 14.222222222222223)"/><path d="M1320 806a6 6 0 0 1 6-6h28a6 6 0 0 1 6 6v68a6 6 0 0 1-6 6h-28a6 6 0 0 1-6-6z" stroke="#fff" stroke-width="3" fill="#282c33"/><path d="M1317.55 849.3H890.03v.02H480" stroke="#fff" stroke-width="2" fill="none"/><path d="M1318.55 850.3h-1.03v-2h1.03z" stroke="#fff" stroke-width=".05" fill="#fff"/><path d="M464.74 849.33L479 844.7v9.27z" stroke="#fff" stroke-width="2" fill="#fff"/><use xlink:href="#o" transform="matrix(1,0,0,1,854.073301921795,853.3332383456722) translate(0 14.222222222222223)"/><path d="M1317.57 873.22h-2.95m-3.94 0h-5.9m-3.94 0h-5.9m-3.95 0h-5.9m-3.95 0h-5.9m-3.94 0h-5.9m-3.94 0h-5.9m-3.94 0h-5.9m-3.94 0h-5.9m-3.95 0h-5.9m-3.94 0h-5.92m-3.93 0h-5.9m-3.95 0h-5.9m-3.94 0h-5.9m-3.95 0h-5.9m-3.93 0h-5.9m-3.94 0h-2.98v.02h-.02v.06H1157m-4 0h-6m-4 0h-6m-4 0h-6m-4 0h-6m-4 0h-6m-4 0h-6m-4 0h-6m-4 0h-6m-4 0h-6m-4 0h-6m-4 0h-6m-4 0h-6m-4 0h-6m-4 0h-3" stroke="#fff" stroke-width="2" fill="none"/><path d="M1318.57 874.22h-1.02v-2h1.02z" stroke="#fff" stroke-width=".05" fill="#fff"/><path d="M1004.73 873.3l14.26-4.63v9.27z" stroke="#fff" stroke-width="2" fill="#fff"/><path d="M957.57 893.95h-2.97m-3.95 0h-5.94m-3.95 0h-5.94m-3.95 0h-5.93m-3.96 0h-5.94m-3.96 0h-5.94m-3.96 0h-5.93m-3.96 0h-5.94m-3.96 0h-5.94m-3.96 0h-5.93m-3.96 0h-5.94m-3.96 0h-5.94m-3.95 0h-5.95m-3.96 0h-5.95m-3.96 0h-5.95m-3.95 0h-5.94m-3.96 0h-5.94m-3.96 0h-5.93m-3.96 0h-5.93m-3.96 0h-5.93m-3.96 0h-5.92m-3.96 0h-5.94m-3.96 0h-5.94m-3.95 0H727m-3.97 0h-5.94m-3.97 0H710.12l-.03.02h-.03v.03h-.02V894.1h-.02v.03l-.02.02-.02.03h-.03l-.02.02h-3m-4 0h-6m-4 0h-6m-4 0h-6m-4 0h-6m-4 0h-5.98m-4 0h-6m-4 0h-6m-4 0h-6m-4 0h-6m-4 0h-6m-4 0h-5.98m-4 0h-6m-4 0h-6m-4 0h-6m-4 0h-6m-4 0h-6m-4 0h-6m-3.98 0h-6m-4 0h-6m-4 0h-6m-4 0h-6m-4 0h-6m-4 0h-3" stroke="#fff" stroke-width="2" fill="none"/><path d="M958.57 894.95h-1.02v-2h1.02z" stroke="#fff" stroke-width=".05" fill="#fff"/><path d="M464.74 894.2l14.26-4.64v9.27z" stroke="#fff" stroke-width="2" fill="#fff"/><path d="M420 646a6 6 0 0 1 6-6h28a6 6 0 0 1 6 6v248a6 6 0 0 1-6 6h-28a6 6 0 0 1-6-6z" stroke="#fff" stroke-width="3" fill="#282c33"/><path d="M242.25 92.25c0 6.77-5.48 12.25-12.25 12.25s-12.25-5.48-12.25-12.25S223.23 80 230 80s12.25 5.48 12.25 12.25z" stroke="#fff" stroke-width="3" fill-opacity="0"/><path d="M230 104.5v28.3a17.7 17.7 0 0 0 3.65 10.76L260 178m-30-39.2L200 178m0-61.25h60" stroke="#fff" stroke-width="3" fill="none"/><path d="M200 86a6 6 0 0 1 6-6h48a6 6 0 0 1 6 6v108a6 6 0 0 1-6 6h-48a6 6 0 0 1-6-6z" fill="none"/><use xlink:href="#p" transform="matrix(1,0,0,1,120,178) translate(84.10493827160494 17.77777777777778)"/><path d="M230 207v3m0 3.97v5.97m0 3.98v5.97m0 3.97v5.97m0 4v5.96m0 3.98v5.97m0 3.98v5.97m0 3.98v5.97m0 4v5.96m0 4v5.96m0 3.98v5.97m0 4v5.97m0 3.98v5.97m0 3.98v5.97m0 3.98v5.97m0 3.98v5.98m0 3.98v5.97m0 3.98v5.98m0 3.98v5.97m0 4v5.96m0 3.97v5.97m0 3.98V419m0 3.97v5.98m0 3.98v5.97m0 3.98v5.97m0 3.98v5.97m0 3.98v5.98m0 3.98v5.97m0 4v5.96m0 3.98v5.97m0 4v5.97m0 3.98v5.97m0 3.98v5.97m0 3.98v5.98m0 3.98v5.98m0 3.98v5.97m0 3.98v5.98m0 3.98v5.98m0 3.98v5.97m0 3.97v5.97m0 3.98v5.97m0 3.98v5.97m0 3.98V628m0 3.98v5.97m0 3.98v5.97m0 4v5.96m0 3.98v5.97m0 4v5.96m0 3.98v5.98m0 3.98v5.97m0 3.98v5.97m0 3.98v5.97m0 3.98v5.98m0 3.98v5.98m0 3.98v5.97m0 3.98v5.98m0 4v5.96m0 3.98v5.97m0 3.97v5.97m0 3.98v5.98m0 3.98v5.97m0 3.98v5.97m0 3.98v5.97m0 3.98V837m0 4v5.96m0 3.98v5.97m0 4v5.96m0 4v5.96m0 3.98v5.97m0 3.98v5.97m0 3.98v5.97m0 4v5.96m0 3.98v5.98m0 3.98v5.97m0 3.98v3M230 207.03V206M230 943.47v1.03M417.45 238.7h-93.2v-.02H231M399.92 249.38l18.07-10.7M231.03 238.67H230" stroke="#fff" stroke-width="2" fill="none"/><use xlink:href="#q" transform="matrix(1,0,0,1,275.95436572500915,242.68695399790403) translate(0 14.222222222222223)"/><use xlink:href="#r" transform="matrix(1,0,0,1,275.95436572500915,242.68695399790403) translate(60.14814814814816 14.222222222222223)"/><path d="M417.46 280.07H324.3a.03.03 0 0 1-.04-.04.03.03 0 0 0-.04-.03H231M399.93 290.76l18.07-10.7M231.03 280H230" stroke="#fff" stroke-width="2" fill="none"/><use xlink:href="#s" transform="matrix(1,0,0,1,297.68436424204646,284.0664380089369) translate(0 14.222222222222223)"/><path d="M417.45 660.02h-93.2V660H231M399.92 670.7L418 660.03M231.03 660H230" stroke="#fff" stroke-width="2" fill="none"/><use xlink:href="#t" transform="matrix(1,0,0,1,297.6832662725261,664.0211505235276) translate(0 14.222222222222223)"/><defs><path fill="#fff" d="M137 0h-34L2-248h35l83 218 83-218h36" id="u"/><path fill="#fff" d="M24-231v-30h32v30H24zM24 0v-190h32V0H24" id="v"/><path fill="#fff" d="M100-194c63 0 86 42 84 106H49c0 40 14 67 53 68 26 1 43-12 49-29l28 8c-11 28-37 45-77 45C44 4 14-33 15-96c1-61 26-98 85-98zm52 81c6-60-76-77-97-28-3 7-6 17-6 28h103" id="w"/><path fill="#fff" d="M206 0h-36l-40-164L89 0H53L-1-190h32L70-26l43-164h34l41 164 42-164h31" id="x"/><g id="a"><use transform="matrix(0.05,0,0,0.05,0,0)" xlink:href="#u"/><use transform="matrix(0.05,0,0,0.05,11.65,0)" xlink:href="#v"/><use transform="matrix(0.05,0,0,0.05,15.600000000000001,0)" xlink:href="#w"/><use transform="matrix(0.05,0,0,0.05,25.6,0)" xlink:href="#x"/><path fill="#fff" d="M-.9 1.25h40.35v1.32H-.9z"/></g><path fill="#fff" d="M84 4C-5 8 30-112 23-190h32v120c0 31 7 50 39 49 72-2 45-101 50-169h31l1 190h-30c-1-10 1-25-2-33-11 22-28 36-60 37" id="y"/><path fill="#fff" d="M117-194c89-4 53 116 60 194h-32v-121c0-31-8-49-39-48C34-167 62-67 57 0H25l-1-190h30c1 10-1 24 2 32 11-22 29-35 61-36" id="z"/><path fill="#fff" d="M85-194c31 0 48 13 60 33l-1-100h32l1 261h-30c-2-10 0-23-3-31C134-8 116 4 85 4 32 4 16-35 15-94c0-66 23-100 70-100zm9 24c-40 0-46 34-46 75 0 40 6 74 45 74 42 0 51-32 51-76 0-42-9-74-50-73" id="A"/><path fill="#fff" d="M100-194c62-1 85 37 85 99 1 63-27 99-86 99S16-35 15-95c0-66 28-99 85-99zM99-20c44 1 53-31 53-75 0-43-8-75-51-75s-53 32-53 75 10 74 51 75" id="B"/><path fill="#fff" d="M240 0l2-218c-23 76-54 145-80 218h-23L58-218 59 0H30v-248h44l77 211c21-75 51-140 76-211h43V0h-30" id="C"/><path fill="#fff" d="M141-36C126-15 110 5 73 4 37 3 15-17 15-53c-1-64 63-63 125-63 3-35-9-54-41-54-24 1-41 7-42 31l-33-3c5-37 33-52 76-52 45 0 72 20 72 64v82c-1 20 7 32 28 27v20c-31 9-61-2-59-35zM48-53c0 20 12 33 32 33 41-3 63-29 60-74-43 2-92-5-92 41" id="D"/><path fill="#fff" d="M177-190C167-65 218 103 67 71c-23-6-38-20-44-43l32-5c15 47 100 32 89-28v-30C133-14 115 1 83 1 29 1 15-40 15-95c0-56 16-97 71-98 29-1 48 16 59 35 1-10 0-23 2-32h30zM94-22c36 0 50-32 50-73 0-42-14-75-50-75-39 0-46 34-46 75s6 73 46 73" id="E"/><path fill="#fff" d="M114-163C36-179 61-72 57 0H25l-1-190h30c1 12-1 29 2 39 6-27 23-49 58-41v29" id="F"/><g id="b"><use transform="matrix(0.05,0,0,0.05,0,0)" xlink:href="#y"/><use transform="matrix(0.05,0,0,0.05,10,0)" xlink:href="#z"/><use transform="matrix(0.05,0,0,0.05,20,0)" xlink:href="#A"/><use transform="matrix(0.05,0,0,0.05,30,0)" xlink:href="#B"/><use transform="matrix(0.05,0,0,0.05,40,0)" xlink:href="#C"/><use transform="matrix(0.05,0,0,0.05,54.95,0)" xlink:href="#D"/><use transform="matrix(0.05,0,0,0.05,64.95,0)" xlink:href="#z"/><use transform="matrix(0.05,0,0,0.05,74.95,0)" xlink:href="#D"/><use transform="matrix(0.05,0,0,0.05,84.95,0)" xlink:href="#E"/><use transform="matrix(0.05,0,0,0.05,94.95,0)" xlink:href="#w"/><use transform="matrix(0.05,0,0,0.05,104.95,0)" xlink:href="#F"/><path fill="#fff" d="M-.9 1.25h112.7v1.32H-.9z"/></g><path fill="#fff" d="M24 0v-261h32V0H24" id="G"/><g id="c"><use transform="matrix(0.05,0,0,0.05,0,0)" xlink:href="#C"/><use transform="matrix(0.05,0,0,0.05,14.950000000000001,0)" xlink:href="#B"/><use transform="matrix(0.05,0,0,0.05,24.950000000000003,0)" xlink:href="#A"/><use transform="matrix(0.05,0,0,0.05,34.95,0)" xlink:href="#w"/><use transform="matrix(0.05,0,0,0.05,44.95,0)" xlink:href="#G"/><path fill="#fff" d="M-.9 1.25h50.7v1.32H-.9z"/></g><path fill="#fff" d="M30 0v-248h33v221h125V0H30" id="H"/><g id="d"><use transform="matrix(0.05,0,0,0.05,0,0)" xlink:href="#H"/><use transform="matrix(0.05,0,0,0.05,10,0)" xlink:href="#v"/><use transform="matrix(0.05,0,0,0.05,13.949999999999998,0)" xlink:href="#z"/><use transform="matrix(0.05,0,0,0.05,23.95,0)" xlink:href="#w"/><path fill="#fff" d="M-.9 1.25h35.75v1.32H-.9z"/></g><path fill="#fff" d="M212-179c-10-28-35-45-73-45-59 0-87 40-87 99 0 60 29 101 89 101 43 0 62-24 78-52l27 14C228-24 195 4 139 4 59 4 22-46 18-125c-6-104 99-153 187-111 19 9 31 26 39 46" id="I"/><path fill="#fff" d="M210-169c-67 3-38 105-44 169h-31v-121c0-29-5-50-35-48C34-165 62-65 56 0H25l-1-190h30c1 10-1 24 2 32 10-44 99-50 107 0 11-21 27-35 58-36 85-2 47 119 55 194h-31v-121c0-29-5-49-35-48" id="J"/><g id="e"><use transform="matrix(0.05,0,0,0.05,0,0)" xlink:href="#H"/><use transform="matrix(0.05,0,0,0.05,10,0)" xlink:href="#v"/><use transform="matrix(0.05,0,0,0.05,13.949999999999998,0)" xlink:href="#z"/><use transform="matrix(0.05,0,0,0.05,23.95,0)" xlink:href="#w"/><use transform="matrix(0.05,0,0,0.05,33.95,0)" xlink:href="#I"/><use transform="matrix(0.05,0,0,0.05,46.900000000000006,0)" xlink:href="#B"/><use transform="matrix(0.05,0,0,0.05,56.900000000000006,0)" xlink:href="#J"/><use transform="matrix(0.05,0,0,0.05,71.85000000000001,0)" xlink:href="#J"/><use transform="matrix(0.05,0,0,0.05,86.80000000000001,0)" xlink:href="#D"/><use transform="matrix(0.05,0,0,0.05,96.80000000000001,0)" xlink:href="#z"/><use transform="matrix(0.05,0,0,0.05,106.80000000000001,0)" xlink:href="#A"/><path fill="#fff" d="M-.9 1.25h118.6v1.32H-.9z"/></g><path fill="#fff" d="M190-63c-7 42-38 67-86 67-59 0-84-38-90-98-12-110 154-137 174-36l-49 2c-2-19-15-32-35-32-30 0-35 28-38 64-6 74 65 87 74 30" id="K"/><path fill="#fff" d="M135-150c-39-12-60 13-60 57V0H25l-1-190h47c2 13-1 29 3 40 6-28 27-53 61-41v41" id="L"/><path fill="#fff" d="M185-48c-13 30-37 53-82 52C43 2 14-33 14-96s30-98 90-98c62 0 83 45 84 108H66c0 31 8 55 39 56 18 0 30-7 34-22zm-45-69c5-46-57-63-70-21-2 6-4 13-4 21h74" id="M"/><path fill="#fff" d="M133-34C117-15 103 5 69 4 32 3 11-16 11-54c-1-60 55-63 116-61 1-26-3-47-28-47-18 1-26 9-28 27l-52-2c7-38 36-58 82-57s74 22 75 68l1 82c-1 14 12 18 25 15v27c-30 8-71 5-69-32zm-48 3c29 0 43-24 42-57-32 0-66-3-65 30 0 17 8 27 23 27" id="N"/><path fill="#fff" d="M115-3C79 11 28 4 28-45v-112H4v-33h27l15-45h31v45h36v33H77v99c-1 23 16 31 38 25v30" id="O"/><g id="f"><use transform="matrix(0.04938271604938272,0,0,0.04938271604938272,0,0)" xlink:href="#K"/><use transform="matrix(0.04938271604938272,0,0,0.04938271604938272,9.876543209876544,0)" xlink:href="#L"/><use transform="matrix(0.04938271604938272,0,0,0.04938271604938272,16.790123456790127,0)" xlink:href="#M"/><use transform="matrix(0.04938271604938272,0,0,0.04938271604938272,26.666666666666668,0)" xlink:href="#N"/><use transform="matrix(0.04938271604938272,0,0,0.04938271604938272,36.543209876543216,0)" xlink:href="#O"/><use transform="matrix(0.04938271604938272,0,0,0.04938271604938272,42.41975308641976,0)" xlink:href="#M"/></g><path fill="#fff" d="M135-194c52 0 70 43 70 98 0 56-19 99-73 100-30 1-46-15-58-35L72 0H24l1-261h50v104c11-23 29-37 60-37zM114-30c31 0 40-27 40-66 0-37-7-63-39-63s-41 28-41 65c0 36 8 64 40 64" id="P"/><path fill="#fff" d="M195-6C206 82 75 100 31 46c-4-6-6-13-8-21l49-6c3 16 16 24 34 25 40 0 42-37 40-79-11 22-30 35-61 35-53 0-70-43-70-97 0-56 18-96 73-97 30 0 46 14 59 34l2-30h47zm-90-29c32 0 41-27 41-63 0-35-9-62-40-62-32 0-39 29-40 63 0 36 9 62 39 62" id="Q"/><path fill="#fff" d="M25-224v-37h50v37H25zM25 0v-190h50V0H25" id="R"/><path fill="#fff" d="M135-194c87-1 58 113 63 194h-50c-7-57 23-157-34-157-59 0-34 97-39 157H25l-1-190h47c2 12-1 28 3 38 12-26 28-41 61-42" id="S"/><path fill="#fff" d="M67-125c0 53 21 87 73 88 37 1 54-22 65-47l45 17C233-25 199 4 140 4 58 4 20-42 15-125 8-235 124-281 211-232c18 10 29 29 36 50l-46 12c-8-25-30-41-62-41-52 0-71 34-72 86" id="T"/><path fill="#fff" d="M110-194c64 0 96 36 96 99 0 64-35 99-97 99-61 0-95-36-95-99 0-62 34-99 96-99zm-1 164c35 0 45-28 45-65 0-40-10-65-43-65-34 0-45 26-45 65 0 36 10 65 43 65" id="U"/><path fill="#fff" d="M220-157c-53 9-28 100-34 157h-49v-107c1-27-5-49-29-50C55-147 81-57 75 0H25l-1-190h47c2 12-1 28 3 38 10-53 101-56 108 0 13-22 24-43 59-42 82 1 51 116 57 194h-49v-107c-1-25-5-48-29-50" id="V"/><path fill="#fff" d="M88-194c31-1 46 15 58 34l-1-101h50l1 261h-48c-2-10 0-23-3-31C134-8 116 4 84 4 32 4 16-41 15-95c0-56 19-97 73-99zm17 164c33 0 40-30 41-66 1-37-9-64-41-64s-38 30-39 65c0 43 13 65 39 65" id="W"/><path fill="#fff" d="M67-93c0 74 22 123 53 168H70C40 30 18-18 18-93s22-123 52-168h50c-32 44-53 94-53 168" id="X"/><path fill="#fff" d="M25 0v-261h50V0H25" id="Y"/><path fill="#fff" d="M102-93c0 74-22 123-52 168H0C30 29 54-18 53-93c0-74-22-123-53-168h50c30 45 52 94 52 168" id="Z"/><g id="g"><use transform="matrix(0.04938271604938272,0,0,0.04938271604938272,0,0)" xlink:href="#P"/><use transform="matrix(0.04938271604938272,0,0,0.04938271604938272,10.814814814814815,0)" xlink:href="#M"/><use transform="matrix(0.04938271604938272,0,0,0.04938271604938272,20.69135802469136,0)" xlink:href="#Q"/><use transform="matrix(0.04938271604938272,0,0,0.04938271604938272,31.506172839506174,0)" xlink:href="#R"/><use transform="matrix(0.04938271604938272,0,0,0.04938271604938272,36.44444444444445,0)" xlink:href="#S"/><use transform="matrix(0.04938271604938272,0,0,0.04938271604938272,47.25925925925927,0)" xlink:href="#T"/><use transform="matrix(0.04938271604938272,0,0,0.04938271604938272,60.0493827160494,0)" xlink:href="#U"/><use transform="matrix(0.04938271604938272,0,0,0.04938271604938272,70.8641975308642,0)" xlink:href="#V"/><use transform="matrix(0.04938271604938272,0,0,0.04938271604938272,86.66666666666667,0)" xlink:href="#V"/><use transform="matrix(0.04938271604938272,0,0,0.04938271604938272,102.46913580246914,0)" xlink:href="#N"/><use transform="matrix(0.04938271604938272,0,0,0.04938271604938272,112.34567901234568,0)" xlink:href="#S"/><use transform="matrix(0.04938271604938272,0,0,0.04938271604938272,123.16049382716051,0)" xlink:href="#W"/><use transform="matrix(0.04938271604938272,0,0,0.04938271604938272,133.97530864197532,0)" xlink:href="#X"/><use transform="matrix(0.04938271604938272,0,0,0.04938271604938272,139.85185185185185,0)" xlink:href="#Y"/><use transform="matrix(0.04938271604938272,0,0,0.04938271604938272,144.79012345679013,0)" xlink:href="#R"/><use transform="matrix(0.04938271604938272,0,0,0.04938271604938272,149.7283950617284,0)" xlink:href="#S"/><use transform="matrix(0.04938271604938272,0,0,0.04938271604938272,160.54320987654322,0)" xlink:href="#M"/><use transform="matrix(0.04938271604938272,0,0,0.04938271604938272,170.41975308641975,0)" xlink:href="#T"/><use transform="matrix(0.04938271604938272,0,0,0.04938271604938272,183.20987654320987,0)" xlink:href="#U"/><use transform="matrix(0.04938271604938272,0,0,0.04938271604938272,194.02469135802468,0)" xlink:href="#V"/><use transform="matrix(0.04938271604938272,0,0,0.04938271604938272,209.82716049382717,0)" xlink:href="#V"/><use transform="matrix(0.04938271604938272,0,0,0.04938271604938272,225.62962962962965,0)" xlink:href="#N"/><use transform="matrix(0.04938271604938272,0,0,0.04938271604938272,235.5061728395062,0)" xlink:href="#S"/><use transform="matrix(0.04938271604938272,0,0,0.04938271604938272,246.32098765432102,0)" xlink:href="#W"/><use transform="matrix(0.04938271604938272,0,0,0.04938271604938272,257.1358024691358,0)" xlink:href="#Z"/></g><path fill="#fff" d="M144 0l-44-69L55 0H2l70-98-66-92h53l41 62 40-62h54l-67 91 71 99h-54" id="aa"/><path fill="#fff" d="M85 4C-2 5 27-109 22-190h50c7 57-23 150 33 157 60-5 35-97 40-157h50l1 190h-47c-2-12 1-28-3-38-12 25-28 42-61 42" id="ab"/><g id="h"><use transform="matrix(0.04938271604938272,0,0,0.04938271604938272,0,0)" xlink:href="#M"/><use transform="matrix(0.04938271604938272,0,0,0.04938271604938272,9.876543209876544,0)" xlink:href="#aa"/><use transform="matrix(0.04938271604938272,0,0,0.04938271604938272,19.75308641975309,0)" xlink:href="#M"/><use transform="matrix(0.04938271604938272,0,0,0.04938271604938272,29.629629629629633,0)" xlink:href="#K"/><use transform="matrix(0.04938271604938272,0,0,0.04938271604938272,39.50617283950618,0)" xlink:href="#ab"/><use transform="matrix(0.04938271604938272,0,0,0.04938271604938272,50.320987654320994,0)" xlink:href="#O"/><use transform="matrix(0.04938271604938272,0,0,0.04938271604938272,56.19753086419754,0)" xlink:href="#M"/></g><path fill="#fff" d="M24 0v-248h52V0H24" id="ac"/><g id="i"><use transform="matrix(0.04938271604938272,0,0,0.04938271604938272,0,0)" xlink:href="#N"/><use transform="matrix(0.04938271604938272,0,0,0.04938271604938272,9.876543209876544,0)" xlink:href="#W"/><use transform="matrix(0.04938271604938272,0,0,0.04938271604938272,20.69135802469136,0)" xlink:href="#W"/><use transform="matrix(0.04938271604938272,0,0,0.04938271604938272,31.506172839506174,0)" xlink:href="#ac"/><use transform="matrix(0.04938271604938272,0,0,0.04938271604938272,36.44444444444445,0)" xlink:href="#O"/><use transform="matrix(0.04938271604938272,0,0,0.04938271604938272,42.320987654320994,0)" xlink:href="#M"/><use transform="matrix(0.04938271604938272,0,0,0.04938271604938272,52.19753086419754,0)" xlink:href="#V"/><use transform="matrix(0.04938271604938272,0,0,0.04938271604938272,68.00000000000001,0)" xlink:href="#X"/><use transform="matrix(0.04938271604938272,0,0,0.04938271604938272,73.87654320987656,0)" xlink:href="#Y"/><use transform="matrix(0.04938271604938272,0,0,0.04938271604938272,78.81481481481484,0)" xlink:href="#R"/><use transform="matrix(0.04938271604938272,0,0,0.04938271604938272,83.75308641975312,0)" xlink:href="#S"/><use transform="matrix(0.04938271604938272,0,0,0.04938271604938272,94.56790123456793,0)" xlink:href="#M"/><use transform="matrix(0.04938271604938272,0,0,0.04938271604938272,104.44444444444447,0)" xlink:href="#Z"/></g><path fill="#fff" d="M137-138c1-29-70-34-71-4 15 46 118 7 119 86 1 83-164 76-172 9l43-7c4 19 20 25 44 25 33 8 57-30 24-41C81-84 22-81 20-136c-2-80 154-74 161-7" id="ad"/><path fill="#fff" d="M24 0v-248h52v208h133V0H24" id="ae"/><path fill="#fff" d="M24-248c93 1 206-16 204 79-1 75-69 88-152 82V0H24v-248zm52 121c47 0 100 7 100-41 0-47-54-39-100-39v80" id="af"/><path fill="#fff" d="M135-194c53 0 70 44 70 98 0 56-19 98-73 100-31 1-45-17-59-34 3 33 2 69 2 105H25l-1-265h48c2 10 0 23 3 31 11-24 29-35 60-35zM114-30c33 0 39-31 40-66 0-38-9-64-40-64-56 0-55 130 0 130" id="ag"/><path fill="#fff" d="M182-182c0 78-84 86-111 141h115V0H12c-6-101 99-100 120-180 1-22-12-31-33-32-23 0-32 14-35 34l-49-3c5-45 32-70 84-70 51 0 83 22 83 69" id="ah"/><g id="j"><use transform="matrix(0.04938271604938272,0,0,0.04938271604938272,0,0)" xlink:href="#ad"/><use transform="matrix(0.04938271604938272,0,0,0.04938271604938272,9.876543209876544,0)" xlink:href="#M"/><use transform="matrix(0.04938271604938272,0,0,0.04938271604938272,19.75308641975309,0)" xlink:href="#O"/><use transform="matrix(0.04938271604938272,0,0,0.04938271604938272,25.629629629629633,0)" xlink:href="#ae"/><use transform="matrix(0.04938271604938272,0,0,0.04938271604938272,36.44444444444445,0)" xlink:href="#R"/><use transform="matrix(0.04938271604938272,0,0,0.04938271604938272,41.38271604938272,0)" xlink:href="#S"/><use transform="matrix(0.04938271604938272,0,0,0.04938271604938272,52.19753086419754,0)" xlink:href="#M"/><use transform="matrix(0.04938271604938272,0,0,0.04938271604938272,62.074074074074076,0)" xlink:href="#af"/><use transform="matrix(0.04938271604938272,0,0,0.04938271604938272,73.92592592592594,0)" xlink:href="#U"/><use transform="matrix(0.04938271604938272,0,0,0.04938271604938272,84.74074074074075,0)" xlink:href="#R"/><use transform="matrix(0.04938271604938272,0,0,0.04938271604938272,89.67901234567901,0)" xlink:href="#S"/><use transform="matrix(0.04938271604938272,0,0,0.04938271604938272,100.49382716049382,0)" xlink:href="#O"/><use transform="matrix(0.04938271604938272,0,0,0.04938271604938272,106.37037037037035,0)" xlink:href="#X"/><use transform="matrix(0.04938271604938272,0,0,0.04938271604938272,112.2469135802469,0)" xlink:href="#ag"/><use transform="matrix(0.04938271604938272,0,0,0.04938271604938272,123.06172839506172,0)" xlink:href="#U"/><use transform="matrix(0.04938271604938272,0,0,0.04938271604938272,133.87654320987653,0)" xlink:href="#R"/><use transform="matrix(0.04938271604938272,0,0,0.04938271604938272,138.8148148148148,0)" xlink:href="#S"/><use transform="matrix(0.04938271604938272,0,0,0.04938271604938272,149.62962962962962,0)" xlink:href="#O"/><use transform="matrix(0.04938271604938272,0,0,0.04938271604938272,155.50617283950615,0)" xlink:href="#ah"/><use transform="matrix(0.04938271604938272,0,0,0.04938271604938272,165.38271604938268,0)" xlink:href="#Z"/></g><g id="k"><use transform="matrix(0.04938271604938272,0,0,0.04938271604938272,0,0)" xlink:href="#ad"/><use transform="matrix(0.04938271604938272,0,0,0.04938271604938272,9.876543209876544,0)" xlink:href="#M"/><use transform="matrix(0.04938271604938272,0,0,0.04938271604938272,19.75308641975309,0)" xlink:href="#O"/><use transform="matrix(0.04938271604938272,0,0,0.04938271604938272,25.629629629629633,0)" xlink:href="#af"/><use transform="matrix(0.04938271604938272,0,0,0.04938271604938272,37.48148148148149,0)" xlink:href="#U"/><use transform="matrix(0.04938271604938272,0,0,0.04938271604938272,48.296296296296305,0)" xlink:href="#R"/><use transform="matrix(0.04938271604938272,0,0,0.04938271604938272,53.23456790123457,0)" xlink:href="#S"/><use transform="matrix(0.04938271604938272,0,0,0.04938271604938272,64.0493827160494,0)" xlink:href="#O"/><use transform="matrix(0.04938271604938272,0,0,0.04938271604938272,69.92592592592594,0)" xlink:href="#ah"/><use transform="matrix(0.04938271604938272,0,0,0.04938271604938272,79.80246913580248,0)" xlink:href="#X"/><use transform="matrix(0.04938271604938272,0,0,0.04938271604938272,85.67901234567903,0)" xlink:href="#ag"/><use transform="matrix(0.04938271604938272,0,0,0.04938271604938272,96.49382716049384,0)" xlink:href="#U"/><use transform="matrix(0.04938271604938272,0,0,0.04938271604938272,107.30864197530865,0)" xlink:href="#R"/><use transform="matrix(0.04938271604938272,0,0,0.04938271604938272,112.2469135802469,0)" xlink:href="#S"/><use transform="matrix(0.04938271604938272,0,0,0.04938271604938272,123.06172839506172,0)" xlink:href="#O"/><use transform="matrix(0.04938271604938272,0,0,0.04938271604938272,128.93827160493825,0)" xlink:href="#ah"/><use transform="matrix(0.04938271604938272,0,0,0.04938271604938272,138.81481481481478,0)" xlink:href="#Z"/></g><g id="l"><use transform="matrix(0.04938271604938272,0,0,0.04938271604938272,0,0)" xlink:href="#M"/><use transform="matrix(0.04938271604938272,0,0,0.04938271604938272,9.876543209876544,0)" xlink:href="#S"/><use transform="matrix(0.04938271604938272,0,0,0.04938271604938272,20.69135802469136,0)" xlink:href="#W"/><use transform="matrix(0.04938271604938272,0,0,0.04938271604938272,31.506172839506174,0)" xlink:href="#T"/><use transform="matrix(0.04938271604938272,0,0,0.04938271604938272,44.296296296296305,0)" xlink:href="#U"/><use transform="matrix(0.04938271604938272,0,0,0.04938271604938272,55.111111111111114,0)" xlink:href="#V"/><use transform="matrix(0.04938271604938272,0,0,0.04938271604938272,70.9135802469136,0)" xlink:href="#V"/><use transform="matrix(0.04938271604938272,0,0,0.04938271604938272,86.71604938271606,0)" xlink:href="#N"/><use transform="matrix(0.04938271604938272,0,0,0.04938271604938272,96.59259259259261,0)" xlink:href="#S"/><use transform="matrix(0.04938271604938272,0,0,0.04938271604938272,107.40740740740742,0)" xlink:href="#W"/><use transform="matrix(0.04938271604938272,0,0,0.04938271604938272,118.22222222222223,0)" xlink:href="#X"/><use transform="matrix(0.04938271604938272,0,0,0.04938271604938272,124.09876543209877,0)" xlink:href="#Y"/><use transform="matrix(0.04938271604938272,0,0,0.04938271604938272,129.03703703703704,0)" xlink:href="#R"/><use transform="matrix(0.04938271604938272,0,0,0.04938271604938272,133.97530864197532,0)" xlink:href="#S"/><use transform="matrix(0.04938271604938272,0,0,0.04938271604938272,144.79012345679013,0)" xlink:href="#M"/><use transform="matrix(0.04938271604938272,0,0,0.04938271604938272,154.66666666666669,0)" xlink:href="#T"/><use transform="matrix(0.04938271604938272,0,0,0.04938271604938272,167.4567901234568,0)" xlink:href="#U"/><use transform="matrix(0.04938271604938272,0,0,0.04938271604938272,178.27160493827162,0)" xlink:href="#V"/><use transform="matrix(0.04938271604938272,0,0,0.04938271604938272,194.0740740740741,0)" xlink:href="#V"/><use transform="matrix(0.04938271604938272,0,0,0.04938271604938272,209.87654320987662,0)" xlink:href="#N"/><use transform="matrix(0.04938271604938272,0,0,0.04938271604938272,219.75308641975312,0)" xlink:href="#S"/><use transform="matrix(0.04938271604938272,0,0,0.04938271604938272,230.56790123456793,0)" xlink:href="#W"/><use transform="matrix(0.04938271604938272,0,0,0.04938271604938272,241.38271604938274,0)" xlink:href="#Z"/></g><g id="m"><use transform="matrix(0.04938271604938272,0,0,0.04938271604938272,0,0)" xlink:href="#M"/><use transform="matrix(0.04938271604938272,0,0,0.04938271604938272,9.876543209876544,0)" xlink:href="#S"/><use transform="matrix(0.04938271604938272,0,0,0.04938271604938272,20.69135802469136,0)" xlink:href="#W"/><use transform="matrix(0.04938271604938272,0,0,0.04938271604938272,31.506172839506174,0)" xlink:href="#X"/><use transform="matrix(0.04938271604938272,0,0,0.04938271604938272,37.38271604938272,0)" xlink:href="#Z"/></g><path fill="#fff" d="M114-157C55-157 80-60 75 0H25v-261h50l-1 109c12-26 28-41 61-42 86-1 58 113 63 194h-50c-7-57 23-157-34-157" id="ai"/><g id="n"><use transform="matrix(0.04938271604938272,0,0,0.04938271604938272,0,0)" xlink:href="#ad"/><use transform="matrix(0.04938271604938272,0,0,0.04938271604938272,9.876543209876544,0)" xlink:href="#M"/><use transform="matrix(0.04938271604938272,0,0,0.04938271604938272,19.75308641975309,0)" xlink:href="#O"/><use transform="matrix(0.04938271604938272,0,0,0.04938271604938272,25.629629629629633,0)" xlink:href="#T"/><use transform="matrix(0.04938271604938272,0,0,0.04938271604938272,38.41975308641976,0)" xlink:href="#ai"/><use transform="matrix(0.04938271604938272,0,0,0.04938271604938272,49.23456790123458,0)" xlink:href="#N"/><use transform="matrix(0.04938271604938272,0,0,0.04938271604938272,59.111111111111114,0)" xlink:href="#S"/><use transform="matrix(0.04938271604938272,0,0,0.04938271604938272,69.92592592592594,0)" xlink:href="#Q"/><use transform="matrix(0.04938271604938272,0,0,0.04938271604938272,80.74074074074075,0)" xlink:href="#M"/><use transform="matrix(0.04938271604938272,0,0,0.04938271604938272,90.61728395061729,0)" xlink:href="#W"/><use transform="matrix(0.04938271604938272,0,0,0.04938271604938272,101.4320987654321,0)" xlink:href="#X"/><use transform="matrix(0.04938271604938272,0,0,0.04938271604938272,107.30864197530865,0)" xlink:href="#Z"/></g><path fill="#fff" d="M121-226c-27-7-43 5-38 36h38v33H83V0H34v-157H6v-33h28c-9-59 32-81 87-68v32" id="aj"/><g id="o"><use transform="matrix(0.04938271604938272,0,0,0.04938271604938272,0,0)" xlink:href="#L"/><use transform="matrix(0.04938271604938272,0,0,0.04938271604938272,6.913580246913581,0)" xlink:href="#M"/><use transform="matrix(0.04938271604938272,0,0,0.04938271604938272,16.790123456790127,0)" xlink:href="#aj"/><use transform="matrix(0.04938271604938272,0,0,0.04938271604938272,22.66666666666667,0)" xlink:href="#L"/><use transform="matrix(0.04938271604938272,0,0,0.04938271604938272,29.580246913580254,0)" xlink:href="#M"/><use transform="matrix(0.04938271604938272,0,0,0.04938271604938272,39.4567901234568,0)" xlink:href="#ad"/><use transform="matrix(0.04938271604938272,0,0,0.04938271604938272,49.33333333333334,0)" xlink:href="#ai"/><use transform="matrix(0.04938271604938272,0,0,0.04938271604938272,60.14814814814817,0)" xlink:href="#X"/><use transform="matrix(0.04938271604938272,0,0,0.04938271604938272,66.0246913580247,0)" xlink:href="#Z"/></g><path fill="#fff" d="M205 0l-28-72H64L36 0H1l101-248h38L239 0h-34zm-38-99l-47-123c-12 45-31 82-46 123h93" id="ak"/><path fill="#fff" d="M96-169c-40 0-48 33-48 73s9 75 48 75c24 0 41-14 43-38l32 2c-6 37-31 61-74 61-59 0-76-41-82-99-10-93 101-131 147-64 4 7 5 14 7 22l-32 3c-4-21-16-35-41-35" id="al"/><path fill="#fff" d="M59-47c-2 24 18 29 38 22v24C64 9 27 4 27-40v-127H5v-23h24l9-43h21v43h35v23H59v120" id="am"/><g id="p"><use transform="matrix(0.06172839506172839,0,0,0.06172839506172839,0,0)" xlink:href="#ak"/><use transform="matrix(0.06172839506172839,0,0,0.06172839506172839,14.814814814814813,0)" xlink:href="#al"/><use transform="matrix(0.06172839506172839,0,0,0.06172839506172839,25.925925925925924,0)" xlink:href="#am"/><use transform="matrix(0.06172839506172839,0,0,0.06172839506172839,32.098765432098766,0)" xlink:href="#B"/><use transform="matrix(0.06172839506172839,0,0,0.06172839506172839,44.44444444444444,0)" xlink:href="#F"/></g><g id="q"><use transform="matrix(0.04938271604938272,0,0,0.04938271604938272,0,0)" xlink:href="#T"/><use transform="matrix(0.04938271604938272,0,0,0.04938271604938272,12.790123456790125,0)" xlink:href="#L"/><use transform="matrix(0.04938271604938272,0,0,0.04938271604938272,19.703703703703706,0)" xlink:href="#M"/><use transform="matrix(0.04938271604938272,0,0,0.04938271604938272,29.58024691358025,0)" xlink:href="#N"/><use transform="matrix(0.04938271604938272,0,0,0.04938271604938272,39.4567901234568,0)" xlink:href="#O"/><use transform="matrix(0.04938271604938272,0,0,0.04938271604938272,45.33333333333334,0)" xlink:href="#M"/></g><g id="r"><use transform="matrix(0.04938271604938272,0,0,0.04938271604938272,0,0)" xlink:href="#ae"/><use transform="matrix(0.04938271604938272,0,0,0.04938271604938272,10.814814814814815,0)" xlink:href="#ac"/><use transform="matrix(0.04938271604938272,0,0,0.04938271604938272,15.753086419753087,0)" xlink:href="#S"/><use transform="matrix(0.04938271604938272,0,0,0.04938271604938272,26.567901234567902,0)" xlink:href="#M"/></g><path fill="#fff" d="M23 0v-37h61v-169l-59 37v-38l62-41h46v211h57V0H23" id="an"/><g id="s"><use transform="matrix(0.04938271604938272,0,0,0.04938271604938272,0,0)" xlink:href="#ag"/><use transform="matrix(0.04938271604938272,0,0,0.04938271604938272,10.814814814814815,0)" xlink:href="#U"/><use transform="matrix(0.04938271604938272,0,0,0.04938271604938272,21.62962962962963,0)" xlink:href="#R"/><use transform="matrix(0.04938271604938272,0,0,0.04938271604938272,26.567901234567902,0)" xlink:href="#S"/><use transform="matrix(0.04938271604938272,0,0,0.04938271604938272,37.382716049382715,0)" xlink:href="#O"/><use transform="matrix(0.04938271604938272,0,0,0.04938271604938272,43.25925925925926,0)" xlink:href="#an"/></g><g id="t"><use transform="matrix(0.04938271604938272,0,0,0.04938271604938272,0,0)" xlink:href="#ag"/><use transform="matrix(0.04938271604938272,0,0,0.04938271604938272,10.814814814814815,0)" xlink:href="#U"/><use transform="matrix(0.04938271604938272,0,0,0.04938271604938272,21.62962962962963,0)" xlink:href="#R"/><use transform="matrix(0.04938271604938272,0,0,0.04938271604938272,26.567901234567902,0)" xlink:href="#S"/><use transform="matrix(0.04938271604938272,0,0,0.04938271604938272,37.382716049382715,0)" xlink:href="#O"/><use transform="matrix(0.04938271604938272,0,0,0.04938271604938272,43.25925925925926,0)" xlink:href="#ah"/></g></defs></g></svg>