<svg version="1.1" xmlns="http://www.w3.org/2000/svg" xmlns:xlink="http://www.w3.org/1999/xlink" width="341.57080078125" height="252"><defs/><g><g transform="translate(-198,-238) scale(1,1)"><rect fill="#C0C0C0" stroke="none" x="327" y="255" width="89.57080078125" height="102" opacity="0.2"/></g><g transform="translate(-198,-238) scale(1,1)"><rect fill="#ffffff" stroke="none" x="320" y="248" width="89.57080078125" height="102"/></g><g transform="translate(-198,-238) scale(1,1)"><path fill="none" stroke="#000000" d="M 320 248 L 409.57080078125 248 L 409.57080078125 350 L 320 350 L 320 248 Z Z" stroke-miterlimit="10"/></g><g transform="translate(-198,-238) scale(1,1)"><path fill="none" stroke="#000000" d="M 320 273 L 409.57080078125 273" stroke-miterlimit="10"/></g><g transform="translate(-198,-238) scale(1,1)"><path fill="none" stroke="#000000" d="M 320 283 L 409.57080078125 283" stroke-miterlimit="10"/></g><g transform="translate(-198,-238) scale(1,1)"><g><path fill="none" stroke="none"/><text fill="#000000" stroke="none" font-family="Arial" font-size="13px" font-style="normal" font-weight="bold" text-decoration="none" x="349.976318359375" y="267.5">Duck</text></g></g><g transform="translate(-198,-238) scale(1,1)"><g><path fill="none" stroke="none"/><text fill="#000000" stroke="none" font-family="Arial" font-size="13px" font-style="normal" font-weight="normal" text-decoration="none" x="325" y="300.5">+quack()</text></g></g><g transform="translate(-198,-238) scale(1,1)"><g><path fill="none" stroke="none"/><text fill="#000000" stroke="none" font-family="Arial" font-size="13px" font-style="normal" font-weight="normal" text-decoration="none" x="325" y="315.5">+swim()</text></g></g><g transform="translate(-198,-238) scale(1,1)"><g><path fill="none" stroke="none"/><text fill="#000000" stroke="none" font-family="Arial" font-size="13px" font-style="normal" font-weight="normal" text-decoration="none" x="325" y="330.5">+display()</text></g></g><g transform="translate(-198,-238) scale(1,1)"><g><path fill="none" stroke="none"/><text fill="#000000" stroke="none" font-family="Arial" font-size="13px" font-style="normal" font-weight="normal" text-decoration="none" x="325" y="345.5">+fly()</text></g></g><g transform="translate(-198,-238) scale(1,1)"><rect fill="#C0C0C0" stroke="none" x="215" y="415" width="89.57080078125" height="57" opacity="0.2"/></g><g transform="translate(-198,-238) scale(1,1)"><rect fill="#ffffff" stroke="none" x="208" y="408" width="89.57080078125" height="57"/></g><g transform="translate(-198,-238) scale(1,1)"><path fill="none" stroke="#000000" d="M 208 408 L 297.57080078125 408 L 297.57080078125 465 L 208 465 L 208 408 Z Z" stroke-miterlimit="10"/></g><g transform="translate(-198,-238) scale(1,1)"><path fill="none" stroke="#000000" d="M 208 433 L 297.57080078125 433" stroke-miterlimit="10"/></g><g transform="translate(-198,-238) scale(1,1)"><path fill="none" stroke="#000000" d="M 208 443 L 297.57080078125 443" stroke-miterlimit="10"/></g><g transform="translate(-198,-238) scale(1,1)"><g><path fill="none" stroke="none"/><text fill="#000000" stroke="none" font-family="Arial" font-size="13px" font-style="normal" font-weight="bold" text-decoration="none" x="216.6640625" y="427.5">MallardDuck</text></g></g><g transform="translate(-198,-238) scale(1,1)"><g><path fill="none" stroke="none"/><text fill="#000000" stroke="none" font-family="Arial" font-size="13px" font-style="normal" font-weight="normal" text-decoration="none" x="213" y="460.5">+display()</text></g></g><g transform="translate(-198,-238) scale(1,1)"><rect fill="#C0C0C0" stroke="none" x="327" y="415" width="95.68994140625" height="57" opacity="0.2"/></g><g transform="translate(-198,-238) scale(1,1)"><rect fill="#ffffff" stroke="none" x="320" y="408" width="95.68994140625" height="57"/></g><g transform="translate(-198,-238) scale(1,1)"><path fill="none" stroke="#000000" d="M 320 408 L 415.68994140625 408 L 415.68994140625 465 L 320 465 L 320 408 Z Z" stroke-miterlimit="10"/></g><g transform="translate(-198,-238) scale(1,1)"><path fill="none" stroke="#000000" d="M 320 433 L 415.68994140625 433" stroke-miterlimit="10"/></g><g transform="translate(-198,-238) scale(1,1)"><path fill="none" stroke="#000000" d="M 320 443 L 415.68994140625 443" stroke-miterlimit="10"/></g><g transform="translate(-198,-238) scale(1,1)"><g><path fill="none" stroke="none"/><text fill="#000000" stroke="none" font-family="Arial" font-size="13px" font-style="normal" font-weight="bold" text-decoration="none" x="326.65185546875" y="427.5">RedheadDuck</text></g></g><g transform="translate(-198,-238) scale(1,1)"><g><path fill="none" stroke="none"/><text fill="#000000" stroke="none" font-family="Arial" font-size="13px" font-style="normal" font-weight="normal" text-decoration="none" x="325" y="460.5">+display()</text></g></g><g transform="translate(-198,-238) scale(1,1)"><path fill="none" stroke="#000000" d="M 252 408 L 252 387 L 365 387 L 365 350" stroke-miterlimit="10"/></g><g transform="translate(-198,-238) scale(1,1)"><path fill="#FFFFFF" stroke="none" d="M 373.419035512032 370.3253497152483 L 365 350 L 356.580964487968 370.3253497152483"/></g><g transform="translate(-198,-238) scale(1,1)"><path fill="none" stroke="#000000" d="M 373.419035512032 370.3253497152483 L 365 350 L 356.580964487968 370.3253497152483 L 373.419035512032 370.3253497152483" stroke-miterlimit="10"/></g><g transform="translate(-198,-238) scale(1,1)"><path fill="none" stroke="#000000" d="M 367 408 L 367 387 L 365 387 L 365 350" stroke-miterlimit="10"/></g><g transform="translate(-198,-238) scale(1,1)"><path fill="#FFFFFF" stroke="none" d="M 373.419035512032 370.3253497152483 L 365 350 L 356.580964487968 370.3253497152483"/></g><g transform="translate(-198,-238) scale(1,1)"><path fill="none" stroke="#000000" d="M 373.419035512032 370.3253497152483 L 365 350 L 356.580964487968 370.3253497152483 L 373.419035512032 370.3253497152483" stroke-miterlimit="10"/></g><g transform="translate(-198,-238) scale(1,1)"><rect fill="#C0C0C0" stroke="none" x="447" y="415" width="89.57080078125" height="72" opacity="0.2"/></g><g transform="translate(-198,-238) scale(1,1)"><rect fill="#ffffff" stroke="none" x="440" y="408" width="89.57080078125" height="72"/></g><g transform="translate(-198,-238) scale(1,1)"><path fill="none" stroke="#000000" d="M 440 408 L 529.57080078125 408 L 529.57080078125 480 L 440 480 L 440 408 Z Z" stroke-miterlimit="10"/></g><g transform="translate(-198,-238) scale(1,1)"><path fill="none" stroke="#000000" d="M 440 433 L 529.57080078125 433" stroke-miterlimit="10"/></g><g transform="translate(-198,-238) scale(1,1)"><path fill="none" stroke="#000000" d="M 440 443 L 529.57080078125 443" stroke-miterlimit="10"/></g><g transform="translate(-198,-238) scale(1,1)"><g><path fill="none" stroke="none"/><text fill="#000000" stroke="none" font-family="Arial" font-size="13px" font-style="normal" font-weight="bold" text-decoration="none" x="448.65771484375" y="427.5">RubberDuck</text></g></g><g transform="translate(-198,-238) scale(1,1)"><g><path fill="none" stroke="none"/><text fill="#000000" stroke="none" font-family="Arial" font-size="13px" font-style="normal" font-weight="normal" text-decoration="none" x="445" y="460.5">+quack()</text></g></g><g transform="translate(-198,-238) scale(1,1)"><g><path fill="none" stroke="none"/><text fill="#000000" stroke="none" font-family="Arial" font-size="13px" font-style="normal" font-weight="normal" text-decoration="none" x="445" y="475.5">+display()</text></g></g><g transform="translate(-198,-238) scale(1,1)"><path fill="none" stroke="#000000" d="M 484 408 L 484 387 L 365 387 L 365 350" stroke-miterlimit="10"/></g><g transform="translate(-198,-238) scale(1,1)"><path fill="#FFFFFF" stroke="none" d="M 373.419035512032 370.3253497152483 L 365 350 L 356.580964487968 370.3253497152483"/></g><g transform="translate(-198,-238) scale(1,1)"><path fill="none" stroke="#000000" d="M 373.419035512032 370.3253497152483 L 365 350 L 356.580964487968 370.3253497152483 L 373.419035512032 370.3253497152483" stroke-miterlimit="10"/></g></g></svg>