<svg version="1.1" xmlns="http://www.w3.org/2000/svg" xmlns:xlink="http://www.w3.org/1999/xlink" width="564.1181640625" height="184"><defs/><g><g transform="translate(-166,-110) scale(1,1)"><rect fill="#C0C0C0" stroke="none" x="223" y="127" width="166.85986328125" height="72" opacity="0.2"/></g><g transform="translate(-166,-110) scale(1,1)"><rect fill="#ffffff" stroke="none" x="216" y="120" width="166.85986328125" height="72"/></g><g transform="translate(-166,-110) scale(1,1)"><path fill="none" stroke="#000000" d="M 216 120 L 382.85986328125 120 L 382.85986328125 192 L 216 192 L 216 120 Z Z" stroke-miterlimit="10"/></g><g transform="translate(-166,-110) scale(1,1)"><path fill="none" stroke="#000000" d="M 216 145 L 382.85986328125 145" stroke-miterlimit="10"/></g><g transform="translate(-166,-110) scale(1,1)"><path fill="none" stroke="#000000" d="M 216 155 L 382.85986328125 155" stroke-miterlimit="10"/></g><g transform="translate(-166,-110) scale(1,1)"><g><path fill="none" stroke="none"/><text fill="#000000" stroke="none" font-family="Arial" font-size="13px" font-style="normal" font-weight="bold" text-decoration="none" x="282.811767578125" y="139.5">Client</text></g></g><g transform="translate(-166,-110) scale(1,1)"><g><path fill="none" stroke="none"/><text fill="#000000" stroke="none" font-family="Arial" font-size="13px" font-style="normal" font-weight="normal" text-decoration="none" x="221" y="172.5">+performOperation()</text></g></g><g transform="translate(-166,-110) scale(1,1)"><g><path fill="none" stroke="none"/><text fill="#000000" stroke="none" font-family="Arial" font-size="13px" font-style="normal" font-weight="normal" text-decoration="none" x="221" y="187.5">+setAlgorithm(a: Algorithm)</text></g></g><g transform="translate(-166,-110) scale(1,1)"><rect fill="#C0C0C0" stroke="none" x="519" y="127" width="89.57080078125" height="57" opacity="0.2"/></g><g transform="translate(-166,-110) scale(1,1)"><rect fill="#ffffff" stroke="none" x="512" y="120" width="89.57080078125" height="57"/></g><g transform="translate(-166,-110) scale(1,1)"><path fill="none" stroke="#000000" d="M 512 120 L 601.57080078125 120 L 601.57080078125 177 L 512 177 L 512 120 Z Z" stroke-miterlimit="10"/></g><g transform="translate(-166,-110) scale(1,1)"><path fill="none" stroke="#000000" d="M 512 145 L 601.57080078125 145" stroke-miterlimit="10"/></g><g transform="translate(-166,-110) scale(1,1)"><path fill="none" stroke="#000000" d="M 512 155 L 601.57080078125 155" stroke-miterlimit="10"/></g><g transform="translate(-166,-110) scale(1,1)"><g><path fill="none" stroke="none"/><text fill="#000000" stroke="none" font-family="Arial" font-size="13px" font-style="normal" font-weight="bold" text-decoration="none" x="529.331787109375" y="139.5">Algorithm</text></g></g><g transform="translate(-166,-110) scale(1,1)"><g><path fill="none" stroke="none"/><text fill="#000000" stroke="none" font-family="Arial" font-size="13px" font-style="normal" font-weight="normal" text-decoration="none" x="517" y="172.5">+operation()</text></g></g><g transform="translate(-166,-110) scale(1,1)"><rect fill="#C0C0C0" stroke="none" x="415" y="247" width="133.9599609375" height="44" opacity="0.2"/></g><g transform="translate(-166,-110) scale(1,1)"><rect fill="#ffffff" stroke="none" x="408" y="240" width="133.9599609375" height="44"/></g><g transform="translate(-166,-110) scale(1,1)"><path fill="none" stroke="#000000" d="M 408 240 L 541.9599609375 240 L 541.9599609375 284 L 408 284 L 408 240 Z Z" stroke-miterlimit="10"/></g><g transform="translate(-166,-110) scale(1,1)"><path fill="none" stroke="#000000" d="M 408 265 L 541.9599609375 265" stroke-miterlimit="10"/></g><g transform="translate(-166,-110) scale(1,1)"><path fill="none" stroke="#000000" d="M 408 275 L 541.9599609375 275" stroke-miterlimit="10"/></g><g transform="translate(-166,-110) scale(1,1)"><g><path fill="none" stroke="none"/><text fill="#000000" stroke="none" font-family="Arial" font-size="13px" font-style="normal" font-weight="bold" text-decoration="none" x="417.536865234375" y="259.5">ConcreteAlgorithm1</text></g></g><g transform="translate(-166,-110) scale(1,1)"><rect fill="#C0C0C0" stroke="none" x="591" y="247" width="136.1181640625" height="44" opacity="0.2"/></g><g transform="translate(-166,-110) scale(1,1)"><rect fill="#ffffff" stroke="none" x="584" y="240" width="136.1181640625" height="44"/></g><g transform="translate(-166,-110) scale(1,1)"><path fill="none" stroke="#000000" d="M 584 240 L 720.1181640625 240 L 720.1181640625 284 L 584 284 L 584 240 Z Z" stroke-miterlimit="10"/></g><g transform="translate(-166,-110) scale(1,1)"><path fill="none" stroke="#000000" d="M 584 265 L 720.1181640625 265" stroke-miterlimit="10"/></g><g transform="translate(-166,-110) scale(1,1)"><path fill="none" stroke="#000000" d="M 584 275 L 720.1181640625 275" stroke-miterlimit="10"/></g><g transform="translate(-166,-110) scale(1,1)"><g><path fill="none" stroke="none"/><text fill="#000000" stroke="none" font-family="Arial" font-size="13px" font-style="normal" font-weight="bold" text-decoration="none" x="593.536865234375" y="259.5">ConcreteAlgorithmN</text></g></g><g transform="translate(-166,-110) scale(1,1)"><path fill="none" stroke="#000000" d="M 491 239 L 534 178" stroke-miterlimit="10"/></g><g transform="translate(-166,-110) scale(1,1)"><path fill="#FFFFFF" stroke="none" d="M 529.1706133804136 199.46338801025036 L 534 178 L 515.4082007630327 189.7620151816049"/></g><g transform="translate(-166,-110) scale(1,1)"><path fill="none" stroke="#000000" d="M 529.1706133804136 199.46338801025036 L 534 178 L 515.4082007630327 189.7620151816049 L 529.1706133804136 199.46338801025036" stroke-miterlimit="10"/></g><g transform="translate(-166,-110) scale(1,1)"><path fill="none" stroke="#000000" d="M 633 239 L 581 178" stroke-miterlimit="10"/></g><g transform="translate(-166,-110) scale(1,1)"><path fill="#FFFFFF" stroke="none" d="M 600.5927620768215 188.00618179932124 L 581 178 L 587.7787359226096 198.92961393078053"/></g><g transform="translate(-166,-110) scale(1,1)"><path fill="none" stroke="#000000" d="M 600.5927620768215 188.00618179932124 L 581 178 L 587.7787359226096 198.92961393078053 L 600.5927620768215 188.00618179932124" stroke-miterlimit="10"/></g><g transform="translate(-166,-110) scale(1,1)"><path fill="none" stroke="#000000" d="M 383 153 L 512 153" stroke-miterlimit="10"/></g><g transform="translate(-166,-110) scale(1,1)"><g><path fill="none" stroke="none"/><text fill="#000000" stroke="none" font-family="Arial" font-size="13px" font-style="normal" font-weight="normal" text-decoration="none" x="457.13134765625" y="143.5">-strategy</text></g></g><g transform="translate(-166,-110) scale(1,1)"><path fill="#ffffff" stroke="none" d="M 176 208 L 295.7568359375 208 L 305.7568359375 218 L 305.7568359375 246 L 176 246 L 176 208"/></g><g transform="translate(-166,-110) scale(1,1)"><path fill="none" stroke="#000000" d="M 176 208 L 295.7568359375 208 L 305.7568359375 218 L 305.7568359375 246 L 176 246 L 176 208 L 176 208" stroke-miterlimit="10"/></g><g transform="translate(-166,-110) scale(1,1)"><path fill="none" stroke="#000000" d="M 295.7568359375 208 L 295.7568359375 218 L 305.7568359375 218 L 295.7568359375 208" stroke-miterlimit="10"/></g><g transform="translate(-166,-110) scale(1,1)"><g><path fill="none" stroke="none"/><text fill="#000000" stroke="none" font-family="Arial" font-size="13px" font-style="normal" font-weight="normal" text-decoration="none" x="181" y="226">strategy.operation()</text></g></g><g transform="translate(-166,-110) scale(1,1)"><path fill="none" stroke="#000000" d="M 192 208 L 192 160 L 216 160" stroke-miterlimit="10" stroke-dasharray="3"/></g></g></svg>