<svg version="1.1" xmlns="http://www.w3.org/2000/svg" xmlns:xlink="http://www.w3.org/1999/xlink" width="347.68994140625" height="237"><defs/><g><g transform="translate(-198,-238) scale(1,1)"><rect fill="#C0C0C0" stroke="none" x="327" y="255" width="89.57080078125" height="87" opacity="0.2"/></g><g transform="translate(-198,-238) scale(1,1)"><rect fill="#ffffff" stroke="none" x="320" y="248" width="89.57080078125" height="87"/></g><g transform="translate(-198,-238) scale(1,1)"><path fill="none" stroke="#000000" d="M 320 248 L 409.57080078125 248 L 409.57080078125 335 L 320 335 L 320 248 Z Z" stroke-miterlimit="10"/></g><g transform="translate(-198,-238) scale(1,1)"><path fill="none" stroke="#000000" d="M 320 273 L 409.57080078125 273" stroke-miterlimit="10"/></g><g transform="translate(-198,-238) scale(1,1)"><path fill="none" stroke="#000000" d="M 320 283 L 409.57080078125 283" stroke-miterlimit="10"/></g><g transform="translate(-198,-238) scale(1,1)"><g><path fill="none" stroke="none"/><text fill="#000000" stroke="none" font-family="Arial" font-size="13px" font-style="normal" font-weight="bold" text-decoration="none" x="349.976318359375" y="267.5">Duck</text></g></g><g transform="translate(-198,-238) scale(1,1)"><g><path fill="none" stroke="none"/><text fill="#000000" stroke="none" font-family="Arial" font-size="13px" font-style="normal" font-weight="normal" text-decoration="none" x="325" y="300.5">+quack()</text></g></g><g transform="translate(-198,-238) scale(1,1)"><g><path fill="none" stroke="none"/><text fill="#000000" stroke="none" font-family="Arial" font-size="13px" font-style="normal" font-weight="normal" text-decoration="none" x="325" y="315.5">+swim()</text></g></g><g transform="translate(-198,-238) scale(1,1)"><g><path fill="none" stroke="none"/><text fill="#000000" stroke="none" font-family="Arial" font-size="13px" font-style="normal" font-weight="normal" text-decoration="none" x="325" y="330.5">+display()</text></g></g><g transform="translate(-198,-238) scale(1,1)"><rect fill="#C0C0C0" stroke="none" x="215" y="415" width="89.57080078125" height="57" opacity="0.2"/></g><g transform="translate(-198,-238) scale(1,1)"><rect fill="#ffffff" stroke="none" x="208" y="408" width="89.57080078125" height="57"/></g><g transform="translate(-198,-238) scale(1,1)"><path fill="none" stroke="#000000" d="M 208 408 L 297.57080078125 408 L 297.57080078125 465 L 208 465 L 208 408 Z Z" stroke-miterlimit="10"/></g><g transform="translate(-198,-238) scale(1,1)"><path fill="none" stroke="#000000" d="M 208 433 L 297.57080078125 433" stroke-miterlimit="10"/></g><g transform="translate(-198,-238) scale(1,1)"><path fill="none" stroke="#000000" d="M 208 443 L 297.57080078125 443" stroke-miterlimit="10"/></g><g transform="translate(-198,-238) scale(1,1)"><g><path fill="none" stroke="none"/><text fill="#000000" stroke="none" font-family="Arial" font-size="13px" font-style="normal" font-weight="bold" text-decoration="none" x="216.6640625" y="427.5">MallardDuck</text></g></g><g transform="translate(-198,-238) scale(1,1)"><g><path fill="none" stroke="none"/><text fill="#000000" stroke="none" font-family="Arial" font-size="13px" font-style="normal" font-weight="normal" text-decoration="none" x="213" y="460.5">+display()</text></g></g><g transform="translate(-198,-238) scale(1,1)"><rect fill="#C0C0C0" stroke="none" x="447" y="415" width="95.68994140625" height="57" opacity="0.2"/></g><g transform="translate(-198,-238) scale(1,1)"><rect fill="#ffffff" stroke="none" x="440" y="408" width="95.68994140625" height="57"/></g><g transform="translate(-198,-238) scale(1,1)"><path fill="none" stroke="#000000" d="M 440 408 L 535.68994140625 408 L 535.68994140625 465 L 440 465 L 440 408 Z Z" stroke-miterlimit="10"/></g><g transform="translate(-198,-238) scale(1,1)"><path fill="none" stroke="#000000" d="M 440 433 L 535.68994140625 433" stroke-miterlimit="10"/></g><g transform="translate(-198,-238) scale(1,1)"><path fill="none" stroke="#000000" d="M 440 443 L 535.68994140625 443" stroke-miterlimit="10"/></g><g transform="translate(-198,-238) scale(1,1)"><g><path fill="none" stroke="none"/><text fill="#000000" stroke="none" font-family="Arial" font-size="13px" font-style="normal" font-weight="bold" text-decoration="none" x="446.65185546875" y="427.5">RedheadDuck</text></g></g><g transform="translate(-198,-238) scale(1,1)"><g><path fill="none" stroke="none"/><text fill="#000000" stroke="none" font-family="Arial" font-size="13px" font-style="normal" font-weight="normal" text-decoration="none" x="445" y="460.5">+display()</text></g></g><g transform="translate(-198,-238) scale(1,1)"><path fill="none" stroke="#000000" d="M 252 408 L 252 379 L 365 379 L 365 335" stroke-miterlimit="10"/></g><g transform="translate(-198,-238) scale(1,1)"><path fill="#FFFFFF" stroke="none" d="M 373.419035512032 355.3253497152483 L 365 335 L 356.580964487968 355.3253497152483"/></g><g transform="translate(-198,-238) scale(1,1)"><path fill="none" stroke="#000000" d="M 373.419035512032 355.3253497152483 L 365 335 L 356.580964487968 355.3253497152483 L 373.419035512032 355.3253497152483" stroke-miterlimit="10"/></g><g transform="translate(-198,-238) scale(1,1)"><path fill="none" stroke="#000000" d="M 487 408 L 487 379 L 365 379 L 365 335" stroke-miterlimit="10"/></g><g transform="translate(-198,-238) scale(1,1)"><path fill="#FFFFFF" stroke="none" d="M 373.419035512032 355.3253497152483 L 365 335 L 356.580964487968 355.3253497152483"/></g><g transform="translate(-198,-238) scale(1,1)"><path fill="none" stroke="#000000" d="M 373.419035512032 355.3253497152483 L 365 335 L 356.580964487968 355.3253497152483 L 373.419035512032 355.3253497152483" stroke-miterlimit="10"/></g></g></svg>