<svg version="1.1" xmlns="http://www.w3.org/2000/svg" xmlns:xlink="http://www.w3.org/1999/xlink" width="453.57080078125" height="383"><defs/><g><g transform="translate(-198,-268) scale(1,1)"><rect fill="#C0C0C0" stroke="none" x="391" y="285" width="89.57080078125" height="72" opacity="0.2"/></g><g transform="translate(-198,-268) scale(1,1)"><rect fill="#ffffff" stroke="none" x="384" y="278" width="89.57080078125" height="72"/></g><g transform="translate(-198,-268) scale(1,1)"><path fill="none" stroke="#000000" d="M 384 278 L 473.57080078125 278 L 473.57080078125 350 L 384 350 L 384 278 Z Z" stroke-miterlimit="10"/></g><g transform="translate(-198,-268) scale(1,1)"><path fill="none" stroke="#000000" d="M 384 303 L 473.57080078125 303" stroke-miterlimit="10"/></g><g transform="translate(-198,-268) scale(1,1)"><path fill="none" stroke="#000000" d="M 384 313 L 473.57080078125 313" stroke-miterlimit="10"/></g><g transform="translate(-198,-268) scale(1,1)"><g><path fill="none" stroke="none"/><text fill="#000000" stroke="none" font-family="Arial" font-size="13px" font-style="normal" font-weight="bold" text-decoration="none" x="413.976318359375" y="297.5">Duck</text></g></g><g transform="translate(-198,-268) scale(1,1)"><g><path fill="none" stroke="none"/><text fill="#000000" stroke="none" font-family="Arial" font-size="13px" font-style="normal" font-weight="normal" text-decoration="none" x="389" y="330.5">+swim()</text></g></g><g transform="translate(-198,-268) scale(1,1)"><g><path fill="none" stroke="none"/><text fill="#000000" stroke="none" font-family="Arial" font-size="13px" font-style="normal" font-weight="normal" text-decoration="none" x="389" y="345.5">+display()</text></g></g><g transform="translate(-198,-268) scale(1,1)"><rect fill="#C0C0C0" stroke="none" x="215" y="415" width="89.57080078125" height="57" opacity="0.2"/></g><g transform="translate(-198,-268) scale(1,1)"><rect fill="#ffffff" stroke="none" x="208" y="408" width="89.57080078125" height="57"/></g><g transform="translate(-198,-268) scale(1,1)"><path fill="none" stroke="#000000" d="M 208 408 L 297.57080078125 408 L 297.57080078125 465 L 208 465 L 208 408 Z Z" stroke-miterlimit="10"/></g><g transform="translate(-198,-268) scale(1,1)"><path fill="none" stroke="#000000" d="M 208 433 L 297.57080078125 433" stroke-miterlimit="10"/></g><g transform="translate(-198,-268) scale(1,1)"><path fill="none" stroke="#000000" d="M 208 443 L 297.57080078125 443" stroke-miterlimit="10"/></g><g transform="translate(-198,-268) scale(1,1)"><g><path fill="none" stroke="none"/><text fill="#000000" stroke="none" font-family="Arial" font-size="13px" font-style="normal" font-weight="bold" text-decoration="none" x="216.6640625" y="427.5">MallardDuck</text></g></g><g transform="translate(-198,-268) scale(1,1)"><g><path fill="none" stroke="none"/><text fill="#000000" stroke="none" font-family="Arial" font-size="13px" font-style="normal" font-weight="normal" text-decoration="none" x="213" y="460.5">+display()</text></g></g><g transform="translate(-198,-268) scale(1,1)"><rect fill="#C0C0C0" stroke="none" x="327" y="415" width="95.68994140625" height="57" opacity="0.2"/></g><g transform="translate(-198,-268) scale(1,1)"><rect fill="#ffffff" stroke="none" x="320" y="408" width="95.68994140625" height="57"/></g><g transform="translate(-198,-268) scale(1,1)"><path fill="none" stroke="#000000" d="M 320 408 L 415.68994140625 408 L 415.68994140625 465 L 320 465 L 320 408 Z Z" stroke-miterlimit="10"/></g><g transform="translate(-198,-268) scale(1,1)"><path fill="none" stroke="#000000" d="M 320 433 L 415.68994140625 433" stroke-miterlimit="10"/></g><g transform="translate(-198,-268) scale(1,1)"><path fill="none" stroke="#000000" d="M 320 443 L 415.68994140625 443" stroke-miterlimit="10"/></g><g transform="translate(-198,-268) scale(1,1)"><g><path fill="none" stroke="none"/><text fill="#000000" stroke="none" font-family="Arial" font-size="13px" font-style="normal" font-weight="bold" text-decoration="none" x="326.65185546875" y="427.5">RedheadDuck</text></g></g><g transform="translate(-198,-268) scale(1,1)"><g><path fill="none" stroke="none"/><text fill="#000000" stroke="none" font-family="Arial" font-size="13px" font-style="normal" font-weight="normal" text-decoration="none" x="325" y="460.5">+display()</text></g></g><g transform="translate(-198,-268) scale(1,1)"><path fill="none" stroke="#000000" d="M 252 408 L 252 387 L 428 387 L 428 350" stroke-miterlimit="10"/></g><g transform="translate(-198,-268) scale(1,1)"><path fill="#FFFFFF" stroke="none" d="M 436.419035512032 370.3253497152483 L 428 350 L 419.580964487968 370.3253497152483"/></g><g transform="translate(-198,-268) scale(1,1)"><path fill="none" stroke="#000000" d="M 436.419035512032 370.3253497152483 L 428 350 L 419.580964487968 370.3253497152483 L 436.419035512032 370.3253497152483" stroke-miterlimit="10"/></g><g transform="translate(-198,-268) scale(1,1)"><path fill="none" stroke="#000000" d="M 367 408 L 367 387 L 428 387 L 428 350" stroke-miterlimit="10"/></g><g transform="translate(-198,-268) scale(1,1)"><path fill="#FFFFFF" stroke="none" d="M 436.419035512032 370.3253497152483 L 428 350 L 419.580964487968 370.3253497152483"/></g><g transform="translate(-198,-268) scale(1,1)"><path fill="none" stroke="#000000" d="M 436.419035512032 370.3253497152483 L 428 350 L 419.580964487968 370.3253497152483 L 436.419035512032 370.3253497152483" stroke-miterlimit="10"/></g><g transform="translate(-198,-268) scale(1,1)"><rect fill="#C0C0C0" stroke="none" x="447" y="415" width="89.57080078125" height="72" opacity="0.2"/></g><g transform="translate(-198,-268) scale(1,1)"><rect fill="#ffffff" stroke="none" x="440" y="408" width="89.57080078125" height="72"/></g><g transform="translate(-198,-268) scale(1,1)"><path fill="none" stroke="#000000" d="M 440 408 L 529.57080078125 408 L 529.57080078125 480 L 440 480 L 440 408 Z Z" stroke-miterlimit="10"/></g><g transform="translate(-198,-268) scale(1,1)"><path fill="none" stroke="#000000" d="M 440 433 L 529.57080078125 433" stroke-miterlimit="10"/></g><g transform="translate(-198,-268) scale(1,1)"><path fill="none" stroke="#000000" d="M 440 443 L 529.57080078125 443" stroke-miterlimit="10"/></g><g transform="translate(-198,-268) scale(1,1)"><g><path fill="none" stroke="none"/><text fill="#000000" stroke="none" font-family="Arial" font-size="13px" font-style="normal" font-weight="bold" text-decoration="none" x="448.65771484375" y="427.5">RubberDuck</text></g></g><g transform="translate(-198,-268) scale(1,1)"><g><path fill="none" stroke="none"/><text fill="#000000" stroke="none" font-family="Arial" font-size="13px" font-style="normal" font-weight="normal" text-decoration="none" x="445" y="460.5">+display()</text></g></g><g transform="translate(-198,-268) scale(1,1)"><g><path fill="none" stroke="none"/><text fill="#000000" stroke="none" font-family="Arial" font-size="13px" font-style="normal" font-weight="normal" text-decoration="none" x="445" y="475.5">+quack()</text></g></g><g transform="translate(-198,-268) scale(1,1)"><path fill="none" stroke="#000000" d="M 484 408 L 484 387 L 428 387 L 428 350" stroke-miterlimit="10"/></g><g transform="translate(-198,-268) scale(1,1)"><path fill="#FFFFFF" stroke="none" d="M 436.419035512032 370.3253497152483 L 428 350 L 419.580964487968 370.3253497152483"/></g><g transform="translate(-198,-268) scale(1,1)"><path fill="none" stroke="#000000" d="M 436.419035512032 370.3253497152483 L 428 350 L 419.580964487968 370.3253497152483 L 436.419035512032 370.3253497152483" stroke-miterlimit="10"/></g><g transform="translate(-198,-268) scale(1,1)"><rect fill="#C0C0C0" stroke="none" x="559" y="415" width="89.57080078125" height="87" opacity="0.2"/></g><g transform="translate(-198,-268) scale(1,1)"><rect fill="#ffffff" stroke="none" x="552" y="408" width="89.57080078125" height="87"/></g><g transform="translate(-198,-268) scale(1,1)"><path fill="none" stroke="#000000" d="M 552 408 L 641.57080078125 408 L 641.57080078125 495 L 552 495 L 552 408 Z Z" stroke-miterlimit="10"/></g><g transform="translate(-198,-268) scale(1,1)"><path fill="none" stroke="#000000" d="M 552 433 L 641.57080078125 433" stroke-miterlimit="10"/></g><g transform="translate(-198,-268) scale(1,1)"><path fill="none" stroke="#000000" d="M 552 443 L 641.57080078125 443" stroke-miterlimit="10"/></g><g transform="translate(-198,-268) scale(1,1)"><g><path fill="none" stroke="none"/><text fill="#000000" stroke="none" font-family="Arial" font-size="13px" font-style="normal" font-weight="bold" text-decoration="none" x="563.55224609375" y="427.5">DecoyDuck</text></g></g><g transform="translate(-198,-268) scale(1,1)"><g><path fill="none" stroke="none"/><text fill="#000000" stroke="none" font-family="Arial" font-size="13px" font-style="normal" font-weight="normal" text-decoration="none" x="557" y="460.5">+display()</text></g></g><g transform="translate(-198,-268) scale(1,1)"><g><path fill="none" stroke="none"/><text fill="#000000" stroke="none" font-family="Arial" font-size="13px" font-style="normal" font-weight="normal" text-decoration="none" x="557" y="475.5">+quack()</text></g></g><g transform="translate(-198,-268) scale(1,1)"><g><path fill="none" stroke="none"/><text fill="#000000" stroke="none" font-family="Arial" font-size="13px" font-style="normal" font-weight="normal" text-decoration="none" x="557" y="490.5">+fly()</text></g></g><g transform="translate(-198,-268) scale(1,1)"><path fill="none" stroke="#000000" d="M 596 408 L 596 387 L 428 387 L 428 350" stroke-miterlimit="10"/></g><g transform="translate(-198,-268) scale(1,1)"><path fill="#FFFFFF" stroke="none" d="M 436.419035512032 370.3253497152483 L 428 350 L 419.580964487968 370.3253497152483"/></g><g transform="translate(-198,-268) scale(1,1)"><path fill="none" stroke="#000000" d="M 436.419035512032 370.3253497152483 L 428 350 L 419.580964487968 370.3253497152483 L 436.419035512032 370.3253497152483" stroke-miterlimit="10"/></g><g transform="translate(-198,-268) scale(1,1)"><rect fill="#C0C0C0" stroke="none" x="279" y="551" width="89.57080078125" height="60" opacity="0.2"/></g><g transform="translate(-198,-268) scale(1,1)"><rect fill="#ffffff" stroke="none" x="272" y="544" width="89.57080078125" height="60"/></g><g transform="translate(-198,-268) scale(1,1)"><path fill="none" stroke="#000000" d="M 272 544 L 361.57080078125 544 L 361.57080078125 604 L 272 604 L 272 544 Z Z" stroke-miterlimit="10"/></g><g transform="translate(-198,-268) scale(1,1)"><path fill="none" stroke="#000000" d="M 272 582 L 361.57080078125 582" stroke-miterlimit="10"/></g><g transform="translate(-198,-268) scale(1,1)"><g><path fill="none" stroke="none"/><text fill="#000000" stroke="none" font-family="Arial" font-size="13px" font-style="normal" font-weight="normal" text-decoration="none" x="284.625" y="561.5">«interface»</text></g></g><g transform="translate(-198,-268) scale(1,1)"><g><path fill="none" stroke="none"/><text fill="#000000" stroke="none" font-family="Arial" font-size="13px" font-style="normal" font-weight="bold" text-decoration="none" x="295.831787109375" y="576.5">Flyable</text></g></g><g transform="translate(-198,-268) scale(1,1)"><g><path fill="none" stroke="none"/><text fill="#000000" stroke="none" font-family="Arial" font-size="13px" font-style="normal" font-weight="normal" text-decoration="none" x="277" y="599.5">+fly()</text></g></g><g transform="translate(-198,-268) scale(1,1)"><rect fill="#C0C0C0" stroke="none" x="399" y="551" width="89.57080078125" height="60" opacity="0.2"/></g><g transform="translate(-198,-268) scale(1,1)"><rect fill="#ffffff" stroke="none" x="392" y="544" width="89.57080078125" height="60"/></g><g transform="translate(-198,-268) scale(1,1)"><path fill="none" stroke="#000000" d="M 392 544 L 481.57080078125 544 L 481.57080078125 604 L 392 604 L 392 544 Z Z" stroke-miterlimit="10"/></g><g transform="translate(-198,-268) scale(1,1)"><path fill="none" stroke="#000000" d="M 392 582 L 481.57080078125 582" stroke-miterlimit="10"/></g><g transform="translate(-198,-268) scale(1,1)"><g><path fill="none" stroke="none"/><text fill="#000000" stroke="none" font-family="Arial" font-size="13px" font-style="normal" font-weight="normal" text-decoration="none" x="404.625" y="561.5">«interface»</text></g></g><g transform="translate(-198,-268) scale(1,1)"><g><path fill="none" stroke="none"/><text fill="#000000" stroke="none" font-family="Arial" font-size="13px" font-style="normal" font-weight="bold" text-decoration="none" x="405.71044921875" y="576.5">Quackable</text></g></g><g transform="translate(-198,-268) scale(1,1)"><g><path fill="none" stroke="none"/><text fill="#000000" stroke="none" font-family="Arial" font-size="13px" font-style="normal" font-weight="normal" text-decoration="none" x="397" y="599.5">+quack()</text></g></g><g transform="translate(-198,-268) scale(1,1)"><path fill="none" stroke="#000000" d="M 266 465 L 266 520 L 304 520 L 304 544" stroke-miterlimit="10" stroke-dasharray="3"/></g><g transform="translate(-198,-268) scale(1,1)"><path fill="#FFFFFF" stroke="none" d="M 295.580964487968 523.6746502847517 L 304 544 L 312.419035512032 523.6746502847517"/></g><g transform="translate(-198,-268) scale(1,1)"><path fill="none" stroke="#000000" d="M 295.580964487968 523.6746502847517 L 304 544 L 312.419035512032 523.6746502847517 L 295.580964487968 523.6746502847517" stroke-miterlimit="10"/></g><g transform="translate(-198,-268) scale(1,1)"><path fill="none" stroke="#000000" d="M 352 465 L 352 520 L 328 520 L 328 544" stroke-miterlimit="10" stroke-dasharray="3"/></g><g transform="translate(-198,-268) scale(1,1)"><path fill="#FFFFFF" stroke="none" d="M 319.580964487968 523.6746502847517 L 328 544 L 336.419035512032 523.6746502847517"/></g><g transform="translate(-198,-268) scale(1,1)"><path fill="none" stroke="#000000" d="M 319.580964487968 523.6746502847517 L 328 544 L 336.419035512032 523.6746502847517 L 319.580964487968 523.6746502847517" stroke-miterlimit="10"/></g><g transform="translate(-198,-268) scale(1,1)"><path fill="none" stroke="#000000" d="M 382 465 L 382 520 L 424 520 L 424 544" stroke-miterlimit="10" stroke-dasharray="3"/></g><g transform="translate(-198,-268) scale(1,1)"><path fill="#FFFFFF" stroke="none" d="M 415.580964487968 523.6746502847517 L 424 544 L 432.419035512032 523.6746502847517"/></g><g transform="translate(-198,-268) scale(1,1)"><path fill="none" stroke="#000000" d="M 415.580964487968 523.6746502847517 L 424 544 L 432.419035512032 523.6746502847517 L 415.580964487968 523.6746502847517" stroke-miterlimit="10"/></g><g transform="translate(-198,-268) scale(1,1)"><path fill="none" stroke="#000000" d="M 488 480 L 488 520 L 448 520 L 448 544" stroke-miterlimit="10" stroke-dasharray="3"/></g><g transform="translate(-198,-268) scale(1,1)"><path fill="#FFFFFF" stroke="none" d="M 439.580964487968 523.6746502847517 L 448 544 L 456.419035512032 523.6746502847517"/></g><g transform="translate(-198,-268) scale(1,1)"><path fill="none" stroke="#000000" d="M 439.580964487968 523.6746502847517 L 448 544 L 456.419035512032 523.6746502847517 L 439.580964487968 523.6746502847517" stroke-miterlimit="10"/></g><g transform="translate(-198,-268) scale(1,1)"><path fill="none" stroke="#000000" d="M 224 465 L 224 640 L 440 640 L 440 604" stroke-miterlimit="10" stroke-dasharray="3"/></g><g transform="translate(-198,-268) scale(1,1)"><path fill="#FFFFFF" stroke="none" d="M 448.419035512032 624.3253497152483 L 440 604 L 431.580964487968 624.3253497152483"/></g><g transform="translate(-198,-268) scale(1,1)"><path fill="none" stroke="#000000" d="M 448.419035512032 624.3253497152483 L 440 604 L 431.580964487968 624.3253497152483 L 448.419035512032 624.3253497152483" stroke-miterlimit="10"/></g></g></svg>