<svg version="1.1" xmlns="http://www.w3.org/2000/svg" xmlns:xlink="http://www.w3.org/1999/xlink" width="611.24267578125" height="317"><defs/><g><g transform="translate(-118,-158) scale(1,1)"><rect fill="#C0C0C0" stroke="none" x="383" y="247" width="107.61083984375" height="102" opacity="0.2"/></g><g transform="translate(-118,-158) scale(1,1)"><rect fill="#ffffff" stroke="none" x="376" y="240" width="107.61083984375" height="102"/></g><g transform="translate(-118,-158) scale(1,1)"><path fill="none" stroke="#000000" d="M 376 240 L 483.61083984375 240 L 483.61083984375 342 L 376 342 L 376 240 Z Z" stroke-miterlimit="10"/></g><g transform="translate(-118,-158) scale(1,1)"><path fill="none" stroke="#000000" d="M 376 265 L 483.61083984375 265" stroke-miterlimit="10"/></g><g transform="translate(-118,-158) scale(1,1)"><path fill="none" stroke="#000000" d="M 376 275 L 483.61083984375 275" stroke-miterlimit="10"/></g><g transform="translate(-118,-158) scale(1,1)"><g><path fill="none" stroke="none"/><text fill="#000000" stroke="none" font-family="Arial" font-size="13px" font-style="normal" font-weight="bold" text-decoration="none" x="414.996337890625" y="259.5">Duck</text></g></g><g transform="translate(-118,-158) scale(1,1)"><g><path fill="none" stroke="none"/><text fill="#000000" stroke="none" font-family="Arial" font-size="13px" font-style="normal" font-weight="normal" text-decoration="none" x="381" y="292.5">+swim()</text></g></g><g transform="translate(-118,-158) scale(1,1)"><g><path fill="none" stroke="none"/><text fill="#000000" stroke="none" font-family="Arial" font-size="13px" font-style="italic" font-weight="normal" text-decoration="none" x="381" y="307.5">+display()</text></g></g><g transform="translate(-118,-158) scale(1,1)"><g><path fill="none" stroke="none"/><text fill="#000000" stroke="none" font-family="Arial" font-size="13px" font-style="normal" font-weight="normal" text-decoration="none" x="381" y="322.5">+performFly()</text></g></g><g transform="translate(-118,-158) scale(1,1)"><g><path fill="none" stroke="none"/><text fill="#000000" stroke="none" font-family="Arial" font-size="13px" font-style="normal" font-weight="normal" text-decoration="none" x="381" y="337.5">+performQuack()</text></g></g><g transform="translate(-118,-158) scale(1,1)"><rect fill="#C0C0C0" stroke="none" x="215" y="415" width="89.57080078125" height="57" opacity="0.2"/></g><g transform="translate(-118,-158) scale(1,1)"><rect fill="#ffffff" stroke="none" x="208" y="408" width="89.57080078125" height="57"/></g><g transform="translate(-118,-158) scale(1,1)"><path fill="none" stroke="#000000" d="M 208 408 L 297.57080078125 408 L 297.57080078125 465 L 208 465 L 208 408 Z Z" stroke-miterlimit="10"/></g><g transform="translate(-118,-158) scale(1,1)"><path fill="none" stroke="#000000" d="M 208 433 L 297.57080078125 433" stroke-miterlimit="10"/></g><g transform="translate(-118,-158) scale(1,1)"><path fill="none" stroke="#000000" d="M 208 443 L 297.57080078125 443" stroke-miterlimit="10"/></g><g transform="translate(-118,-158) scale(1,1)"><g><path fill="none" stroke="none"/><text fill="#000000" stroke="none" font-family="Arial" font-size="13px" font-style="normal" font-weight="bold" text-decoration="none" x="216.6640625" y="427.5">MallardDuck</text></g></g><g transform="translate(-118,-158) scale(1,1)"><g><path fill="none" stroke="none"/><text fill="#000000" stroke="none" font-family="Arial" font-size="13px" font-style="normal" font-weight="normal" text-decoration="none" x="213" y="460.5">+display()</text></g></g><g transform="translate(-118,-158) scale(1,1)"><rect fill="#C0C0C0" stroke="none" x="327" y="415" width="95.68994140625" height="57" opacity="0.2"/></g><g transform="translate(-118,-158) scale(1,1)"><rect fill="#ffffff" stroke="none" x="320" y="408" width="95.68994140625" height="57"/></g><g transform="translate(-118,-158) scale(1,1)"><path fill="none" stroke="#000000" d="M 320 408 L 415.68994140625 408 L 415.68994140625 465 L 320 465 L 320 408 Z Z" stroke-miterlimit="10"/></g><g transform="translate(-118,-158) scale(1,1)"><path fill="none" stroke="#000000" d="M 320 433 L 415.68994140625 433" stroke-miterlimit="10"/></g><g transform="translate(-118,-158) scale(1,1)"><path fill="none" stroke="#000000" d="M 320 443 L 415.68994140625 443" stroke-miterlimit="10"/></g><g transform="translate(-118,-158) scale(1,1)"><g><path fill="none" stroke="none"/><text fill="#000000" stroke="none" font-family="Arial" font-size="13px" font-style="normal" font-weight="bold" text-decoration="none" x="326.65185546875" y="427.5">RedheadDuck</text></g></g><g transform="translate(-118,-158) scale(1,1)"><g><path fill="none" stroke="none"/><text fill="#000000" stroke="none" font-family="Arial" font-size="13px" font-style="normal" font-weight="normal" text-decoration="none" x="325" y="460.5">+display()</text></g></g><g transform="translate(-118,-158) scale(1,1)"><path fill="none" stroke="#000000" d="M 252 408 L 252 387 L 428 387 L 428 342" stroke-miterlimit="10"/></g><g transform="translate(-118,-158) scale(1,1)"><path fill="#FFFFFF" stroke="none" d="M 436.419035512032 362.3253497152483 L 428 342 L 419.580964487968 362.3253497152483"/></g><g transform="translate(-118,-158) scale(1,1)"><path fill="none" stroke="#000000" d="M 436.419035512032 362.3253497152483 L 428 342 L 419.580964487968 362.3253497152483 L 436.419035512032 362.3253497152483" stroke-miterlimit="10"/></g><g transform="translate(-118,-158) scale(1,1)"><path fill="none" stroke="#000000" d="M 367 408 L 367 387 L 428 387 L 428 342" stroke-miterlimit="10"/></g><g transform="translate(-118,-158) scale(1,1)"><path fill="#FFFFFF" stroke="none" d="M 436.419035512032 362.3253497152483 L 428 342 L 419.580964487968 362.3253497152483"/></g><g transform="translate(-118,-158) scale(1,1)"><path fill="none" stroke="#000000" d="M 436.419035512032 362.3253497152483 L 428 342 L 419.580964487968 362.3253497152483 L 436.419035512032 362.3253497152483" stroke-miterlimit="10"/></g><g transform="translate(-118,-158) scale(1,1)"><rect fill="#C0C0C0" stroke="none" x="447" y="415" width="89.57080078125" height="57" opacity="0.2"/></g><g transform="translate(-118,-158) scale(1,1)"><rect fill="#ffffff" stroke="none" x="440" y="408" width="89.57080078125" height="57"/></g><g transform="translate(-118,-158) scale(1,1)"><path fill="none" stroke="#000000" d="M 440 408 L 529.57080078125 408 L 529.57080078125 465 L 440 465 L 440 408 Z Z" stroke-miterlimit="10"/></g><g transform="translate(-118,-158) scale(1,1)"><path fill="none" stroke="#000000" d="M 440 433 L 529.57080078125 433" stroke-miterlimit="10"/></g><g transform="translate(-118,-158) scale(1,1)"><path fill="none" stroke="#000000" d="M 440 443 L 529.57080078125 443" stroke-miterlimit="10"/></g><g transform="translate(-118,-158) scale(1,1)"><g><path fill="none" stroke="none"/><text fill="#000000" stroke="none" font-family="Arial" font-size="13px" font-style="normal" font-weight="bold" text-decoration="none" x="448.65771484375" y="427.5">RubberDuck</text></g></g><g transform="translate(-118,-158) scale(1,1)"><g><path fill="none" stroke="none"/><text fill="#000000" stroke="none" font-family="Arial" font-size="13px" font-style="normal" font-weight="normal" text-decoration="none" x="445" y="460.5">+display()</text></g></g><g transform="translate(-118,-158) scale(1,1)"><path fill="none" stroke="#000000" d="M 484 408 L 484 387 L 428 387 L 428 342" stroke-miterlimit="10"/></g><g transform="translate(-118,-158) scale(1,1)"><path fill="#FFFFFF" stroke="none" d="M 436.419035512032 362.3253497152483 L 428 342 L 419.580964487968 362.3253497152483"/></g><g transform="translate(-118,-158) scale(1,1)"><path fill="none" stroke="#000000" d="M 436.419035512032 362.3253497152483 L 428 342 L 419.580964487968 362.3253497152483 L 436.419035512032 362.3253497152483" stroke-miterlimit="10"/></g><g transform="translate(-118,-158) scale(1,1)"><rect fill="#C0C0C0" stroke="none" x="559" y="415" width="89.57080078125" height="57" opacity="0.2"/></g><g transform="translate(-118,-158) scale(1,1)"><rect fill="#ffffff" stroke="none" x="552" y="408" width="89.57080078125" height="57"/></g><g transform="translate(-118,-158) scale(1,1)"><path fill="none" stroke="#000000" d="M 552 408 L 641.57080078125 408 L 641.57080078125 465 L 552 465 L 552 408 Z Z" stroke-miterlimit="10"/></g><g transform="translate(-118,-158) scale(1,1)"><path fill="none" stroke="#000000" d="M 552 433 L 641.57080078125 433" stroke-miterlimit="10"/></g><g transform="translate(-118,-158) scale(1,1)"><path fill="none" stroke="#000000" d="M 552 443 L 641.57080078125 443" stroke-miterlimit="10"/></g><g transform="translate(-118,-158) scale(1,1)"><g><path fill="none" stroke="none"/><text fill="#000000" stroke="none" font-family="Arial" font-size="13px" font-style="normal" font-weight="bold" text-decoration="none" x="563.55224609375" y="427.5">DecoyDuck</text></g></g><g transform="translate(-118,-158) scale(1,1)"><g><path fill="none" stroke="none"/><text fill="#000000" stroke="none" font-family="Arial" font-size="13px" font-style="normal" font-weight="normal" text-decoration="none" x="557" y="460.5">+display()</text></g></g><g transform="translate(-118,-158) scale(1,1)"><path fill="none" stroke="#000000" d="M 596 408 L 596 387 L 428 387 L 428 342" stroke-miterlimit="10"/></g><g transform="translate(-118,-158) scale(1,1)"><path fill="#FFFFFF" stroke="none" d="M 436.419035512032 362.3253497152483 L 428 342 L 419.580964487968 362.3253497152483"/></g><g transform="translate(-118,-158) scale(1,1)"><path fill="none" stroke="#000000" d="M 436.419035512032 362.3253497152483 L 428 342 L 419.580964487968 362.3253497152483 L 436.419035512032 362.3253497152483" stroke-miterlimit="10"/></g><g transform="translate(-118,-158) scale(1,1)"><rect fill="#C0C0C0" stroke="none" x="199" y="175" width="89.57080078125" height="57" opacity="0.2"/></g><g transform="translate(-118,-158) scale(1,1)"><rect fill="#ffffff" stroke="none" x="192" y="168" width="89.57080078125" height="57"/></g><g transform="translate(-118,-158) scale(1,1)"><path fill="none" stroke="#000000" d="M 192 168 L 281.57080078125 168 L 281.57080078125 225 L 192 225 L 192 168 Z Z" stroke-miterlimit="10"/></g><g transform="translate(-118,-158) scale(1,1)"><path fill="none" stroke="#000000" d="M 192 193 L 281.57080078125 193" stroke-miterlimit="10"/></g><g transform="translate(-118,-158) scale(1,1)"><path fill="none" stroke="#000000" d="M 192 203 L 281.57080078125 203" stroke-miterlimit="10"/></g><g transform="translate(-118,-158) scale(1,1)"><g><path fill="none" stroke="none"/><text fill="#000000" stroke="none" font-family="Arial" font-size="13px" font-style="normal" font-weight="bold" text-decoration="none" x="202.466796875" y="187.5">FlyBehavior</text></g></g><g transform="translate(-118,-158) scale(1,1)"><g><path fill="none" stroke="none"/><text fill="#000000" stroke="none" font-family="Arial" font-size="13px" font-style="normal" font-weight="normal" text-decoration="none" x="197" y="220.5">+fly()</text></g></g><g transform="translate(-118,-158) scale(1,1)"><rect fill="#C0C0C0" stroke="none" x="575" y="175" width="104.37353515625" height="57" opacity="0.2"/></g><g transform="translate(-118,-158) scale(1,1)"><rect fill="#ffffff" stroke="none" x="568" y="168" width="104.37353515625" height="57"/></g><g transform="translate(-118,-158) scale(1,1)"><path fill="none" stroke="#000000" d="M 568 168 L 672.37353515625 168 L 672.37353515625 225 L 568 225 L 568 168 Z Z" stroke-miterlimit="10"/></g><g transform="translate(-118,-158) scale(1,1)"><path fill="none" stroke="#000000" d="M 568 193 L 672.37353515625 193" stroke-miterlimit="10"/></g><g transform="translate(-118,-158) scale(1,1)"><path fill="none" stroke="#000000" d="M 568 203 L 672.37353515625 203" stroke-miterlimit="10"/></g><g transform="translate(-118,-158) scale(1,1)"><g><path fill="none" stroke="none"/><text fill="#000000" stroke="none" font-family="Arial" font-size="13px" font-style="normal" font-weight="bold" text-decoration="none" x="575.746826171875" y="187.5">QuackBehavior</text></g></g><g transform="translate(-118,-158) scale(1,1)"><g><path fill="none" stroke="none"/><text fill="#000000" stroke="none" font-family="Arial" font-size="13px" font-style="normal" font-weight="normal" text-decoration="none" x="573" y="220.5">+quack()</text></g></g><g transform="translate(-118,-158) scale(1,1)"><rect fill="#C0C0C0" stroke="none" x="135" y="287" width="94.69970703125" height="44" opacity="0.2"/></g><g transform="translate(-118,-158) scale(1,1)"><rect fill="#ffffff" stroke="none" x="128" y="280" width="94.69970703125" height="44"/></g><g transform="translate(-118,-158) scale(1,1)"><path fill="none" stroke="#000000" d="M 128 280 L 222.69970703125 280 L 222.69970703125 324 L 128 324 L 128 280 Z Z" stroke-miterlimit="10"/></g><g transform="translate(-118,-158) scale(1,1)"><path fill="none" stroke="#000000" d="M 128 305 L 222.69970703125 305" stroke-miterlimit="10"/></g><g transform="translate(-118,-158) scale(1,1)"><path fill="none" stroke="#000000" d="M 128 315 L 222.69970703125 315" stroke-miterlimit="10"/></g><g transform="translate(-118,-158) scale(1,1)"><g><path fill="none" stroke="none"/><text fill="#000000" stroke="none" font-family="Arial" font-size="13px" font-style="normal" font-weight="bold" text-decoration="none" x="135.626220703125" y="299.5">FlyWithWings</text></g></g><g transform="translate(-118,-158) scale(1,1)"><rect fill="#C0C0C0" stroke="none" x="271" y="287" width="56.6708984375" height="44" opacity="0.2"/></g><g transform="translate(-118,-158) scale(1,1)"><rect fill="#ffffff" stroke="none" x="264" y="280" width="56.6708984375" height="44"/></g><g transform="translate(-118,-158) scale(1,1)"><path fill="none" stroke="#000000" d="M 264 280 L 320.6708984375 280 L 320.6708984375 324 L 264 324 L 264 280 Z Z" stroke-miterlimit="10"/></g><g transform="translate(-118,-158) scale(1,1)"><path fill="none" stroke="#000000" d="M 264 305 L 320.6708984375 305" stroke-miterlimit="10"/></g><g transform="translate(-118,-158) scale(1,1)"><path fill="none" stroke="#000000" d="M 264 315 L 320.6708984375 315" stroke-miterlimit="10"/></g><g transform="translate(-118,-158) scale(1,1)"><g><path fill="none" stroke="none"/><text fill="#000000" stroke="none" font-family="Arial" font-size="13px" font-style="normal" font-weight="bold" text-decoration="none" x="269.94091796875" y="299.5">CantFly</text></g></g><g transform="translate(-118,-158) scale(1,1)"><path fill="none" stroke="#000000" d="M 175 280 L 175 260 L 237 260 L 237 225" stroke-miterlimit="10"/></g><g transform="translate(-118,-158) scale(1,1)"><path fill="#FFFFFF" stroke="none" d="M 245.41903551203197 245.3253497152483 L 237 225 L 228.58096448796803 245.3253497152483"/></g><g transform="translate(-118,-158) scale(1,1)"><path fill="none" stroke="#000000" d="M 245.41903551203197 245.3253497152483 L 237 225 L 228.58096448796803 245.3253497152483 L 245.41903551203197 245.3253497152483" stroke-miterlimit="10"/></g><g transform="translate(-118,-158) scale(1,1)"><path fill="none" stroke="#000000" d="M 292 280 L 292 260 L 237 260 L 237 225" stroke-miterlimit="10"/></g><g transform="translate(-118,-158) scale(1,1)"><path fill="#FFFFFF" stroke="none" d="M 245.41903551203197 245.3253497152483 L 237 225 L 228.58096448796803 245.3253497152483"/></g><g transform="translate(-118,-158) scale(1,1)"><path fill="none" stroke="#000000" d="M 245.41903551203197 245.3253497152483 L 237 225 L 228.58096448796803 245.3253497152483 L 245.41903551203197 245.3253497152483" stroke-miterlimit="10"/></g><g transform="translate(-118,-158) scale(1,1)"><rect fill="#C0C0C0" stroke="none" x="527" y="287" width="54.525390625" height="44" opacity="0.2"/></g><g transform="translate(-118,-158) scale(1,1)"><rect fill="#ffffff" stroke="none" x="520" y="280" width="54.525390625" height="44"/></g><g transform="translate(-118,-158) scale(1,1)"><path fill="none" stroke="#000000" d="M 520 280 L 574.525390625 280 L 574.525390625 324 L 520 324 L 520 280 Z Z" stroke-miterlimit="10"/></g><g transform="translate(-118,-158) scale(1,1)"><path fill="none" stroke="#000000" d="M 520 305 L 574.525390625 305" stroke-miterlimit="10"/></g><g transform="translate(-118,-158) scale(1,1)"><path fill="none" stroke="#000000" d="M 520 315 L 574.525390625 315" stroke-miterlimit="10"/></g><g transform="translate(-118,-158) scale(1,1)"><g><path fill="none" stroke="none"/><text fill="#000000" stroke="none" font-family="Arial" font-size="13px" font-style="normal" font-weight="bold" text-decoration="none" x="525.944091796875" y="299.5">Silence</text></g></g><g transform="translate(-118,-158) scale(1,1)"><rect fill="#C0C0C0" stroke="none" x="599" y="287" width="50.919921875" height="44" opacity="0.2"/></g><g transform="translate(-118,-158) scale(1,1)"><rect fill="#ffffff" stroke="none" x="592" y="280" width="50.919921875" height="44"/></g><g transform="translate(-118,-158) scale(1,1)"><path fill="none" stroke="#000000" d="M 592 280 L 642.919921875 280 L 642.919921875 324 L 592 324 L 592 280 Z Z" stroke-miterlimit="10"/></g><g transform="translate(-118,-158) scale(1,1)"><path fill="none" stroke="#000000" d="M 592 305 L 642.919921875 305" stroke-miterlimit="10"/></g><g transform="translate(-118,-158) scale(1,1)"><path fill="none" stroke="#000000" d="M 592 315 L 642.919921875 315" stroke-miterlimit="10"/></g><g transform="translate(-118,-158) scale(1,1)"><g><path fill="none" stroke="none"/><text fill="#000000" stroke="none" font-family="Arial" font-size="13px" font-style="normal" font-weight="bold" text-decoration="none" x="598.674072265625" y="299.5">Quack</text></g></g><g transform="translate(-118,-158) scale(1,1)"><rect fill="#C0C0C0" stroke="none" x="671" y="287" width="55.24267578125" height="44" opacity="0.2"/></g><g transform="translate(-118,-158) scale(1,1)"><rect fill="#ffffff" stroke="none" x="664" y="280" width="55.24267578125" height="44"/></g><g transform="translate(-118,-158) scale(1,1)"><path fill="none" stroke="#000000" d="M 664 280 L 719.24267578125 280 L 719.24267578125 324 L 664 324 L 664 280 Z Z" stroke-miterlimit="10"/></g><g transform="translate(-118,-158) scale(1,1)"><path fill="none" stroke="#000000" d="M 664 305 L 719.24267578125 305" stroke-miterlimit="10"/></g><g transform="translate(-118,-158) scale(1,1)"><path fill="none" stroke="#000000" d="M 664 315 L 719.24267578125 315" stroke-miterlimit="10"/></g><g transform="translate(-118,-158) scale(1,1)"><g><path fill="none" stroke="none"/><text fill="#000000" stroke="none" font-family="Arial" font-size="13px" font-style="normal" font-weight="bold" text-decoration="none" x="669.575927734375" y="299.5">Squeak</text></g></g><g transform="translate(-118,-158) scale(1,1)"><path fill="none" stroke="#000000" d="M 547 280 L 547 260 L 620 260 L 620 225" stroke-miterlimit="10"/></g><g transform="translate(-118,-158) scale(1,1)"><path fill="#FFFFFF" stroke="none" d="M 628.419035512032 245.3253497152483 L 620 225 L 611.580964487968 245.3253497152483"/></g><g transform="translate(-118,-158) scale(1,1)"><path fill="none" stroke="#000000" d="M 628.419035512032 245.3253497152483 L 620 225 L 611.580964487968 245.3253497152483 L 628.419035512032 245.3253497152483" stroke-miterlimit="10"/></g><g transform="translate(-118,-158) scale(1,1)"><path fill="none" stroke="#000000" d="M 617 280 L 617 260 L 620 260 L 620 225" stroke-miterlimit="10"/></g><g transform="translate(-118,-158) scale(1,1)"><path fill="#FFFFFF" stroke="none" d="M 628.419035512032 245.3253497152483 L 620 225 L 611.580964487968 245.3253497152483"/></g><g transform="translate(-118,-158) scale(1,1)"><path fill="none" stroke="#000000" d="M 628.419035512032 245.3253497152483 L 620 225 L 611.580964487968 245.3253497152483 L 628.419035512032 245.3253497152483" stroke-miterlimit="10"/></g><g transform="translate(-118,-158) scale(1,1)"><path fill="none" stroke="#000000" d="M 691 280 L 691 260 L 620 260 L 620 225" stroke-miterlimit="10"/></g><g transform="translate(-118,-158) scale(1,1)"><path fill="#FFFFFF" stroke="none" d="M 628.419035512032 245.3253497152483 L 620 225 L 611.580964487968 245.3253497152483"/></g><g transform="translate(-118,-158) scale(1,1)"><path fill="none" stroke="#000000" d="M 628.419035512032 245.3253497152483 L 620 225 L 611.580964487968 245.3253497152483 L 628.419035512032 245.3253497152483" stroke-miterlimit="10"/></g><g transform="translate(-118,-158) scale(1,1)"><path fill="none" stroke="#000000" d="M 408 240 L 408 200 L 282 200" stroke-miterlimit="10"/></g><g transform="translate(-118,-158) scale(1,1)"><g><path fill="none" stroke="none"/><text fill="#000000" stroke="none" font-family="Arial" font-size="13px" font-style="normal" font-weight="normal" text-decoration="none" x="289.13134765625" y="196.5">-flyBehavior</text></g></g><g transform="translate(-118,-158) scale(1,1)"><path fill="none" stroke="#000000" d="M 456 240 L 456 200 L 568 200" stroke-miterlimit="10"/></g><g transform="translate(-118,-158) scale(1,1)"><g><path fill="none" stroke="none"/><text fill="#000000" stroke="none" font-family="Arial" font-size="13px" font-style="normal" font-weight="normal" text-decoration="none" x="473.13134765625" y="195.5">-quackBehavior</text></g></g></g></svg>