<svg xmlns="http://www.w3.org/2000/svg" xmlns:xlink="http://www.w3.org/1999/xlink" xmlns:lucid="lucid" width="1600" height="951"><g transform="translate(-80 -80)" lucid:page-tab-id="ZEDX8QU.tPXK"><path d="M100 106c0-3.3 2.7-6 6-6h148c3.3 0 6 2.7 6 6v68c0 3.3-2.7 6-6 6H106c-3.3 0-6-2.7-6-6z" stroke="#fff" stroke-width="3" fill-opacity="0"/><use xlink:href="#a" transform="matrix(1,0,0,1,100,100) translate(64.03 44.4)"/><path d="M180 182.5v4.02m0 8.04v8.05m0 8.05v8.04m0 8.04v8.04m0 8.04v8.05m0 8.04v8.05m0 8.05v8.04m0 8.04v8.05m0 8.04v8.04m0 8.06v8.04m0 8.04v8.05m0 8.03v8.04m0 8.05v8.04m0 8.04v8.05m0 8.04v8.03m0 8.05v8.04m0 8.04v8.05m0 8.05V460m0 8.04v8.04m0 8.04v8.05m0 8.04v8.05m0 8.05v8.04m0 8.04v8.05m0 8.04v8.04m0 8.06v8.04m0 8.04v8.05m0 8.03v8.04m0 8.04v8.06m0 8.04v8.04m0 8.05v8.03m0 8.04v8.05m0 8.04v8.04m0 8.05v8.04m0 8.03v8.05m0 8.04v8.04m0 8.05v8.05m0 8.04v8.04m0 8.04v8.04m0 8.05v8.04m0 8.05v8.05m0 8.04v8.04m0 8.05v8.04m0 8.04v8.06m0 8.04v8.04m0 8.05v8.03m0 8.04v8.05m0 8.04v8.04m0 8.05v8.04m0 8.03v8.05m0 8.04v8.04m0 8.05v8.05m0 8.04v8.04m0 8.04v4.02" stroke="#fff" stroke-width="2" fill="none"/><path d="M181 182.53h-2v-1.03h2z" stroke="#fff" stroke-width=".05" fill="#fff"/><path d="M180 1018.97v1.03" stroke="#fff" stroke-width="2" fill="none"/><path d="M300 106c0-3.3 2.7-6 6-6h148c3.3 0 6 2.7 6 6v68c0 3.3-2.7 6-6 6H306c-3.3 0-6-2.7-6-6z" stroke="#fff" stroke-width="3" fill-opacity="0"/><use xlink:href="#b" transform="matrix(1,0,0,1,300,100) translate(60.055 44.4)"/><path d="M380 182.5v4.02m0 8.04v8.05m0 8.05v8.04m0 8.04v8.04m0 8.04v8.05m0 8.04v8.05m0 8.05v8.04m0 8.04v8.05m0 8.04v8.04m0 8.06v8.04m0 8.04v8.05m0 8.03v8.04m0 8.05v8.04m0 8.04v8.05m0 8.04v8.03m0 8.05v8.04m0 8.04v8.05m0 8.05V460m0 8.04v8.04m0 8.04v8.05m0 8.04v8.05m0 8.05v8.04m0 8.04v8.05m0 8.04v8.04m0 8.06v8.04m0 8.04v8.05m0 8.03v8.04m0 8.04v8.06m0 8.04v8.04m0 8.05v8.03m0 8.04v8.05m0 8.04v8.04m0 8.05v8.04m0 8.03v8.05m0 8.04v8.04m0 8.05v8.05m0 8.04v8.04m0 8.04v8.04m0 8.05v8.04m0 8.05v8.05m0 8.04v8.04m0 8.05v8.04m0 8.04v8.06m0 8.04v8.04m0 8.05v8.03m0 8.04v8.05m0 8.04v8.04m0 8.05v8.04m0 8.03v8.05m0 8.04v8.04m0 8.05v8.05m0 8.04v8.04m0 8.04v4.02" stroke="#fff" stroke-width="2" fill="none"/><path d="M381 182.53h-2v-1.03h2z" stroke="#fff" stroke-width=".05" fill="#fff"/><path d="M380 1018.97v1.03" stroke="#fff" stroke-width="2" fill="none"/><path d="M500 106c0-3.3 2.7-6 6-6h148c3.3 0 6 2.7 6 6v68c0 3.3-2.7 6-6 6H506c-3.3 0-6-2.7-6-6z" stroke="#fff" stroke-width="3" fill-opacity="0"/><use xlink:href="#c" transform="matrix(1,0,0,1,500,100) translate(60.055 44.4)"/><path d="M580 182.5v4.02m0 8.04v8.05m0 8.05v8.04m0 8.04v8.04m0 8.04v8.05m0 8.04v8.05m0 8.05v8.04m0 8.04v8.05m0 8.04v8.04m0 8.06v8.04m0 8.04v8.05m0 8.03v8.04m0 8.05v8.04m0 8.04v8.05m0 8.04v8.03m0 8.05v8.04m0 8.04v8.05m0 8.05V460m0 8.04v8.04m0 8.04v8.05m0 8.04v8.05m0 8.05v8.04m0 8.04v8.05m0 8.04v8.04m0 8.06v8.04m0 8.04v8.05m0 8.03v8.04m0 8.04v8.06m0 8.04v8.04m0 8.05v8.03m0 8.04v8.05m0 8.04v8.04m0 8.05v8.04m0 8.03v8.05m0 8.04v8.04m0 8.05v8.05m0 8.04v8.04m0 8.04v8.04m0 8.05v8.04m0 8.05v8.05m0 8.04v8.04m0 8.05v8.04m0 8.04v8.06m0 8.04v8.04m0 8.05v8.03m0 8.04v8.05m0 8.04v8.04m0 8.05v8.04m0 8.03v8.05m0 8.04v8.04m0 8.05v8.05m0 8.04v8.04m0 8.04v4.02" stroke="#fff" stroke-width="2" fill="none"/><path d="M581 182.53h-2v-1.03h2z" stroke="#fff" stroke-width=".05" fill="#fff"/><path d="M580 1018.97v1.03" stroke="#fff" stroke-width="2" fill="none"/><path d="M700 106c0-3.3 2.7-6 6-6h148c3.3 0 6 2.7 6 6v68c0 3.3-2.7 6-6 6H706c-3.3 0-6-2.7-6-6z" stroke="#fff" stroke-width="3" fill-opacity="0"/><use xlink:href="#d" transform="matrix(1,0,0,1,700,100) translate(37.55499999999999 44.4)"/><path d="M780 182.5v4.02m0 8.04v8.05m0 8.05v8.04m0 8.04v8.04m0 8.04v8.05m0 8.04v8.05m0 8.05v8.04m0 8.04v8.05m0 8.04v8.04m0 8.06v8.04m0 8.04v8.05m0 8.03v8.04m0 8.05v8.04m0 8.04v8.05m0 8.04v8.03m0 8.05v8.04m0 8.04v8.05m0 8.05V460m0 8.04v8.04m0 8.04v8.05m0 8.04v8.05m0 8.05v8.04m0 8.04v8.05m0 8.04v8.04m0 8.06v8.04m0 8.04v8.05m0 8.03v8.04m0 8.04v8.06m0 8.04v8.04m0 8.05v8.03m0 8.04v8.05m0 8.04v8.04m0 8.05v8.04m0 8.03v8.05m0 8.04v8.04m0 8.05v8.05m0 8.04v8.04m0 8.04v8.04m0 8.05v8.04m0 8.05v8.05m0 8.04v8.04m0 8.05v8.04m0 8.04v8.06m0 8.04v8.04m0 8.05v8.03m0 8.04v8.05m0 8.04v8.04m0 8.05v8.04m0 8.03v8.05m0 8.04v8.04m0 8.05v8.05m0 8.04v8.04m0 8.04v4.02" stroke="#fff" stroke-width="2" fill="none"/><path d="M781 182.53h-2v-1.03h2z" stroke="#fff" stroke-width=".05" fill="#fff"/><path d="M780 1018.97v1.03" stroke="#fff" stroke-width="2" fill="none"/><path d="M160 226c0-3.3 2.7-6 6-6h28c3.3 0 6 2.7 6 6v248c0 3.3-2.7 6-6 6h-28c-3.3 0-6-2.7-6-6z" stroke="#fff" stroke-width="3" fill="#4c535d"/><path d="M180 246c0-3.3 2.7-6 6-6h28c3.3 0 6 2.7 6 6v48c0 3.3-2.7 6-6 6h-28c-3.3 0-6-2.7-6-6z" stroke="#fff" stroke-width="3" fill="#4c535d"/><path d="M202.17 224.6h53.33c3.3 0 6 2.68 6 6v22.58c0 3.3-2.7 6-6 6H240" stroke="#fff" stroke-width="2" fill="none"/><path d="M202.2 225.6h-.76l-.54-2h1.3z" stroke="#fff" stroke-width=".05" fill="#fff"/><path d="M224.74 259.18l14.26-4.64v9.28z" stroke="#fff" stroke-width="2" fill="#fff"/><use xlink:href="#e" transform="matrix(1,0,0,1,269.5,221.0554125886311) translate(0 14.222222222222223)"/><path d="M202.5 320h140.67" stroke="#fff" stroke-width="2" fill="none"/><path d="M202.53 321h-1.03v-2h1.03z" stroke="#fff" stroke-width=".05" fill="#fff"/><path d="M358.43 320l-14.26 4.64v-9.28z" stroke="#fff" stroke-width="2" fill="#fff"/><use xlink:href="#f" transform="matrix(1,0,0,1,230.9272661486262,294.66666666666663) translate(0 14.222222222222223)"/><path d="M360 326c0-3.3 2.7-6 6-6h28c3.3 0 6 2.7 6 6v48c0 3.3-2.7 6-6 6h-28c-3.3 0-6-2.7-6-6zM560 366c0-3.3 2.7-6 6-6h28c3.3 0 6 2.7 6 6v108c0 3.3-2.7 6-6 6h-28c-3.3 0-6-2.7-6-6z" stroke="#fff" stroke-width="3" fill="#4c535d"/><path d="M402.5 364h137.98" stroke="#fff" stroke-width="2" fill="none"/><path d="M402.53 365h-1.03v-2h1.03z" stroke="#fff" stroke-width=".05" fill="#fff"/><path d="M555.75 364l-14.27 4.64v-9.27z" stroke="#fff" stroke-width="2" fill="#fff"/><use xlink:href="#g" transform="matrix(1,0,0,1,450.1938604572932,338.66893504761356) translate(0 14.222222222222223)"/><path d="M557.5 468.82h-4.02m-8.05 0h-8.05m-8.05 0h-8.05m-8.05 0h-8.05m-8.05 0h-8.05m-8.05 0h-8.05m-8.05 0h-8.05m-8.05 0h-8.05m-8.05 0h-8.05m-8.05 0h-8.05m-8.05 0h-8.05m-8.05 0h-8.05m-8.05 0h-8.04m-8.06 0h-8.05m-8.06 0h-8.05m-8.06 0H312m-8.06 0h-8.05m-8.06 0h-8.05m-8.06 0h-8.05m-8.06 0h-8.05m-8.06 0h-8.05m-8.06 0h-8.05m-8.06 0h-4.02" stroke="#fff" stroke-width="2" fill="none"/><path d="M558.5 469.82h-1.03v-2h1.03z" stroke="#fff" stroke-width=".05" fill="#fff"/><path d="M220.68 458.64l-17.22 10.18 17.22 10.2" stroke="#fff" stroke-width="2" fill="none"/><use xlink:href="#h" transform="matrix(1,0,0,1,282.08641975308643,472.8244785554631) translate(0 14.222222222222223)"/><path d="M160 556c0-3.3 2.7-6 6-6h28c3.3 0 6 2.7 6 6v248c0 3.3-2.7 6-6 6h-28c-3.3 0-6-2.7-6-6z" stroke="#fff" stroke-width="3" fill="#4c535d"/><path d="M180 576c0-3.3 2.7-6 6-6h28c3.3 0 6 2.7 6 6v48c0 3.3-2.7 6-6 6h-28c-3.3 0-6-2.7-6-6z" stroke="#fff" stroke-width="3" fill="#4c535d"/><path d="M202.5 650h140.67" stroke="#fff" stroke-width="2" fill="none"/><path d="M202.53 651h-1.03v-2h1.03z" stroke="#fff" stroke-width=".05" fill="#fff"/><path d="M358.43 650l-14.26 4.64v-9.28z" stroke="#fff" stroke-width="2" fill="#fff"/><use xlink:href="#f" transform="matrix(1,0,0,1,230.9272661486262,624.6666666666666) translate(0 14.222222222222223)"/><path d="M360 656c0-3.3 2.7-6 6-6h28c3.3 0 6 2.7 6 6v48c0 3.3-2.7 6-6 6h-28c-3.3 0-6-2.7-6-6zM560 696c0-3.3 2.7-6 6-6h28c3.3 0 6 2.7 6 6v58c0 3.3-2.7 6-6 6h-28c-3.3 0-6-2.7-6-6z" stroke="#fff" stroke-width="3" fill="#4c535d"/><path d="M402.5 694h137.98" stroke="#fff" stroke-width="2" fill="none"/><path d="M402.53 695h-1.03v-2h1.03z" stroke="#fff" stroke-width=".05" fill="#fff"/><path d="M555.75 694l-14.27 4.64v-9.27z" stroke="#fff" stroke-width="2" fill="#fff"/><use xlink:href="#g" transform="matrix(1,0,0,1,450.1938604572932,668.6689350476136) translate(0 14.222222222222223)"/><path d="M757.5 798.82h-3.96m-7.92 0h-7.9m-7.93 0h-7.93m-7.9 0h-7.93m-7.92 0h-7.9m-7.93 0h-7.93m-7.9 0h-7.93m-7.92 0h-7.9m-7.93 0h-7.93m-7.92 0h-7.9m-7.93 0h-7.92m-7.9 0h-7.93m-7.92 0h-7.9m-7.93 0h-7.92m-7.9 0h-7.93m-7.92 0h-7.9m-7.93 0h-7.92m-7.92 0h-7.9m-7.93 0h-7.92m-7.9 0h-7.93m-7.92 0h-7.9m-7.93 0h-7.92m-7.9 0h-7.93m-7.92 0h-7.92m-7.9 0h-7.93m-7.92 0h-7.9m-7.92 0h-7.92m-7.9 0h-7.93m-7.92 0h-7.9m-7.92 0h-7.92m-7.9 0h-7.93m-7.92 0h-7.9m-7.92 0h-7.92m-7.92 0h-7.9m-7.93 0h-7.9m-7.92 0h-3.96" stroke="#fff" stroke-width="2" fill="none"/><path d="M758.5 799.82h-1.03v-2h1.03z" stroke="#fff" stroke-width=".05" fill="#fff"/><path d="M220.68 788.64l-17.22 10.18 17.22 10.2" stroke="#fff" stroke-width="2" fill="none"/><use xlink:href="#h" transform="matrix(1,0,0,1,439.08641975308643,802.8244785554632) translate(0 14.222222222222223)"/><path d="M760 746c0-3.3 2.7-6 6-6h28c3.3 0 6 2.7 6 6v188c0 3.3-2.7 6-6 6h-28c-3.3 0-6-2.7-6-6z" stroke="#fff" stroke-width="3" fill="#4c535d"/><path d="M640 390h68l12 12v48h-80z" stroke="#fff" stroke-width="3" fill-opacity="0"/><path d="M708 391.43V402h10.57" stroke="#fff" stroke-width="3" fill-opacity="0"/><use xlink:href="#i" transform="matrix(1,0,0,1,645,395.00000000000006) translate(11.635802469135804 30.52777777777778)"/><path d="M602.5 750H740" stroke="#fff" stroke-width="2" fill="none"/><path d="M602.53 751h-1.03v-2h1.03z" stroke="#fff" stroke-width=".05" fill="#fff"/><path d="M755.26 750L741 754.64v-9.28z" stroke="#fff" stroke-width="2" fill="#fff"/><use xlink:href="#j" transform="matrix(1,0,0,1,659.2592592592592,724.6666666666667) translate(0 14.222222222222223)"/><path d="M820 810h104l16 16v64H820z" stroke="#fff" stroke-width="3" fill-opacity="0"/><path d="M924 811.43V826h14.57" stroke="#fff" stroke-width="3" fill-opacity="0"/><use xlink:href="#k" transform="matrix(1,0,0,1,825,815) translate(13.141975308641975 26.52777777777778)"/><use xlink:href="#l" transform="matrix(1,0,0,1,825,815) translate(30.925925925925927 53.19444444444445)"/><path d="M900 106c0-3.3 2.7-6 6-6h148c3.3 0 6 2.7 6 6v68c0 3.3-2.7 6-6 6H906c-3.3 0-6-2.7-6-6z" stroke="#fff" stroke-width="3" fill-opacity="0"/><use xlink:href="#m" transform="matrix(1,0,0,1,900,100) translate(62.73 44.4)"/><path d="M980 182.5v4.02m0 8.04v8.05m0 8.05v8.04m0 8.04v8.04m0 8.04v8.05m0 8.04v8.05m0 8.05v8.04m0 8.04v8.05m0 8.04v8.04m0 8.06v8.04m0 8.04v8.05m0 8.03v8.04m0 8.05v8.04m0 8.04v8.05m0 8.04v8.03m0 8.05v8.04m0 8.04v8.05m0 8.05V460m0 8.04v8.04m0 8.04v8.05m0 8.04v8.05m0 8.05v8.04m0 8.04v8.05m0 8.04v8.04m0 8.06v8.04m0 8.04v8.05m0 8.03v8.04m0 8.04v8.06m0 8.04v8.04m0 8.05v8.03m0 8.04v8.05m0 8.04v8.04m0 8.05v8.04m0 8.03v8.05m0 8.04v8.04m0 8.05v8.05m0 8.04v8.04m0 8.04v8.04m0 8.05v8.04m0 8.05v8.05m0 8.04v8.04m0 8.05v8.04m0 8.04v8.06m0 8.04v8.04m0 8.05v8.03m0 8.04v8.05m0 8.04v8.04m0 8.05v8.04m0 8.03v8.05m0 8.04v8.04m0 8.05v8.05m0 8.04v8.04m0 8.04v4.02" stroke="#fff" stroke-width="2" fill="none"/><path d="M981 182.53h-2v-1.03h2z" stroke="#fff" stroke-width=".05" fill="#fff"/><path d="M980 1018.97v1.03" stroke="#fff" stroke-width="2" fill="none"/><path d="M1100 106c0-3.3 2.7-6 6-6h148c3.3 0 6 2.7 6 6v68c0 3.3-2.7 6-6 6h-148c-3.3 0-6-2.7-6-6z" stroke="#fff" stroke-width="3" fill-opacity="0"/><use xlink:href="#n" transform="matrix(1,0,0,1,1100,100) translate(28.57999999999999 44.4)"/><path d="M1180 182.5v4.02m0 8.04v8.05m0 8.05v8.04m0 8.04v8.04m0 8.04v8.05m0 8.04v8.05m0 8.05v8.04m0 8.04v8.05m0 8.04v8.04m0 8.06v8.04m0 8.04v8.05m0 8.03v8.04m0 8.05v8.04m0 8.04v8.05m0 8.04v8.03m0 8.05v8.04m0 8.04v8.05m0 8.05V460m0 8.04v8.04m0 8.04v8.05m0 8.04v8.05m0 8.05v8.04m0 8.04v8.05m0 8.04v8.04m0 8.06v8.04m0 8.04v8.05m0 8.03v8.04m0 8.04v8.06m0 8.04v8.04m0 8.05v8.03m0 8.04v8.05m0 8.04v8.04m0 8.05v8.04m0 8.03v8.05m0 8.04v8.04m0 8.05v8.05m0 8.04v8.04m0 8.04v8.04m0 8.05v8.04m0 8.05v8.05m0 8.04v8.04m0 8.05v8.04m0 8.04v8.06m0 8.04v8.04m0 8.05v8.03m0 8.04v8.05m0 8.04v8.04m0 8.05v8.04m0 8.03v8.05m0 8.04v8.04m0 8.05v8.05m0 8.04v8.04m0 8.04v4.02" stroke="#fff" stroke-width="2" fill="none"/><path d="M1181 182.53h-2v-1.03h2z" stroke="#fff" stroke-width=".05" fill="#fff"/><path d="M1180 1018.97v1.03" stroke="#fff" stroke-width="2" fill="none"/><path d="M1300 106c0-3.3 2.7-6 6-6h148c3.3 0 6 2.7 6 6v68c0 3.3-2.7 6-6 6h-148c-3.3 0-6-2.7-6-6z" stroke="#fff" stroke-width="3" fill-opacity="0"/><use xlink:href="#o" transform="matrix(1,0,0,1,1300,100) translate(49.529999999999994 44.4)"/><path d="M1380 182.5v4.02m0 8.04v8.05m0 8.05v8.04m0 8.04v8.04m0 8.04v8.05m0 8.04v8.05m0 8.05v8.04m0 8.04v8.05m0 8.04v8.04m0 8.06v8.04m0 8.04v8.05m0 8.03v8.04m0 8.05v8.04m0 8.04v8.05m0 8.04v8.03m0 8.05v8.04m0 8.04v8.05m0 8.05V460m0 8.04v8.04m0 8.04v8.05m0 8.04v8.05m0 8.05v8.04m0 8.04v8.05m0 8.04v8.04m0 8.06v8.04m0 8.04v8.05m0 8.03v8.04m0 8.04v8.06m0 8.04v8.04m0 8.05v8.03m0 8.04v8.05m0 8.04v8.04m0 8.05v8.04m0 8.03v8.05m0 8.04v8.04m0 8.05v8.05m0 8.04v8.04m0 8.04v8.04m0 8.05v8.04m0 8.05v8.05m0 8.04v8.04m0 8.05v8.04m0 8.04v8.06m0 8.04v8.04m0 8.05v8.03m0 8.04v8.05m0 8.04v8.04m0 8.05v8.04m0 8.03v8.05m0 8.04v8.04m0 8.05v8.05m0 8.04v8.04m0 8.04v4.02" stroke="#fff" stroke-width="2" fill="none"/><path d="M1381 182.53h-2v-1.03h2z" stroke="#fff" stroke-width=".05" fill="#fff"/><path d="M1380 1018.97v1.03" stroke="#fff" stroke-width="2" fill="none"/><path d="M1500 106c0-3.3 2.7-6 6-6h148c3.3 0 6 2.7 6 6v68c0 3.3-2.7 6-6 6h-148c-3.3 0-6-2.7-6-6z" stroke="#fff" stroke-width="3" fill-opacity="0"/><use xlink:href="#p" transform="matrix(1,0,0,1,1500,100) translate(37.05499999999999 44.4)"/><path d="M1580 182.5v4.02m0 8.04v8.05m0 8.05v8.04m0 8.04v8.04m0 8.04v8.05m0 8.04v8.05m0 8.05v8.04m0 8.04v8.05m0 8.04v8.04m0 8.06v8.04m0 8.04v8.05m0 8.03v8.04m0 8.05v8.04m0 8.04v8.05m0 8.04v8.03m0 8.05v8.04m0 8.04v8.05m0 8.05V460m0 8.04v8.04m0 8.04v8.05m0 8.04v8.05m0 8.05v8.04m0 8.04v8.05m0 8.04v8.04m0 8.06v8.04m0 8.04v8.05m0 8.03v8.04m0 8.04v8.06m0 8.04v8.04m0 8.05v8.03m0 8.04v8.05m0 8.04v8.04m0 8.05v8.04m0 8.03v8.05m0 8.04v8.04m0 8.05v8.05m0 8.04v8.04m0 8.04v8.04m0 8.05v8.04m0 8.05v8.05m0 8.04v8.04m0 8.05v8.04m0 8.04v8.06m0 8.04v8.04m0 8.05v8.03m0 8.04v8.05m0 8.04v8.04m0 8.05v8.04m0 8.03v8.05m0 8.04v8.04m0 8.05v8.05m0 8.04v8.04m0 8.04v4.02" stroke="#fff" stroke-width="2" fill="none"/><path d="M1581 182.53h-2v-1.03h2z" stroke="#fff" stroke-width=".05" fill="#fff"/><path d="M1580 1018.97v1.03" stroke="#fff" stroke-width="2" fill="none"/><path d="M960 924.75c0-3.3 2.7-6 6-6h28c3.3 0 6 2.7 6 6v58c0 3.32-2.7 6-6 6h-28c-3.3 0-6-2.68-6-6z" stroke="#fff" stroke-width="3" fill="#4c535d"/><path d="M802.5 930.48H940" stroke="#fff" stroke-width="2" fill="none"/><path d="M802.53 931.48h-1.03v-2h1.03z" stroke="#fff" stroke-width=".05" fill="#fff"/><path d="M955.26 930.48L941 935.1v-9.26z" stroke="#fff" stroke-width="2" fill="#fff"/><use xlink:href="#j" transform="matrix(1,0,0,1,859.2592592592592,905.1447593435781) translate(0 14.222222222222223)"/><defs><path fill="#fff" d="M30-248c118-7 216 8 213 122C240-48 200 0 122 0H30v-248zM63-27c89 8 146-16 146-99s-60-101-146-95v194" id="q"/><path fill="#fff" d="M100-194c63 0 86 42 84 106H49c0 40 14 67 53 68 26 1 43-12 49-29l28 8c-11 28-37 45-77 45C44 4 14-33 15-96c1-61 26-98 85-98zm52 81c6-60-76-77-97-28-3 7-6 17-6 28h103" id="r"/><path fill="#fff" d="M108 0H70L1-190h34L89-25l56-165h34" id="s"/><g id="a"><use transform="matrix(0.05,0,0,0.05,0,0)" xlink:href="#q"/><use transform="matrix(0.05,0,0,0.05,12.950000000000001,0)" xlink:href="#r"/><use transform="matrix(0.05,0,0,0.05,22.950000000000003,0)" xlink:href="#s"/><path fill="#fff" d="M-.9 1.25h33.75v1.32H-.9z"/></g><path fill="#fff" d="M185-189c-5-48-123-54-124 2 14 75 158 14 163 119 3 78-121 87-175 55-17-10-28-26-33-46l33-7c5 56 141 63 141-1 0-78-155-14-162-118-5-82 145-84 179-34 5 7 8 16 11 25" id="t"/><path fill="#fff" d="M212-179c-10-28-35-45-73-45-59 0-87 40-87 99 0 60 29 101 89 101 43 0 62-24 78-52l27 14C228-24 195 4 139 4 59 4 22-46 18-125c-6-104 99-153 187-111 19 9 31 26 39 46" id="u"/><path fill="#fff" d="M240 0l2-218c-23 76-54 145-80 218h-23L58-218 59 0H30v-248h44l77 211c21-75 51-140 76-211h43V0h-30" id="v"/><g id="b"><use transform="matrix(0.05,0,0,0.05,0,0)" xlink:href="#t"/><use transform="matrix(0.05,0,0,0.05,12,0)" xlink:href="#u"/><use transform="matrix(0.05,0,0,0.05,24.950000000000003,0)" xlink:href="#v"/><path fill="#fff" d="M-.9 1.25h41.7v1.32H-.9z"/></g><path fill="#fff" d="M160-131c35 5 61 23 61 61C221 17 115-2 30 0v-248c76 3 177-17 177 60 0 33-19 50-47 57zm-97-11c50-1 110 9 110-42 0-47-63-36-110-37v79zm0 115c55-2 124 14 124-45 0-56-70-42-124-44v89" id="w"/><path fill="#fff" d="M84 4C-5 8 30-112 23-190h32v120c0 31 7 50 39 49 72-2 45-101 50-169h31l1 190h-30c-1-10 1-25-2-33-11 22-28 36-60 37" id="x"/><path fill="#fff" d="M24-231v-30h32v30H24zM24 0v-190h32V0H24" id="y"/><path fill="#fff" d="M24 0v-261h32V0H24" id="z"/><path fill="#fff" d="M85-194c31 0 48 13 60 33l-1-100h32l1 261h-30c-2-10 0-23-3-31C134-8 116 4 85 4 32 4 16-35 15-94c0-66 23-100 70-100zm9 24c-40 0-46 34-46 75 0 40 6 74 45 74 42 0 51-32 51-76 0-42-9-74-50-73" id="A"/><g id="c"><use transform="matrix(0.05,0,0,0.05,0,0)" xlink:href="#w"/><use transform="matrix(0.05,0,0,0.05,12,0)" xlink:href="#x"/><use transform="matrix(0.05,0,0,0.05,22,0)" xlink:href="#y"/><use transform="matrix(0.05,0,0,0.05,25.950000000000003,0)" xlink:href="#z"/><use transform="matrix(0.05,0,0,0.05,29.899999999999995,0)" xlink:href="#A"/><path fill="#fff" d="M-.9 1.25h41.7v1.32H-.9z"/></g><path fill="#fff" d="M33 0v-248h34V0H33" id="B"/><path fill="#fff" d="M117-194c89-4 53 116 60 194h-32v-121c0-31-8-49-39-48C34-167 62-67 57 0H25l-1-190h30c1 10-1 24 2 32 11-22 29-35 61-36" id="C"/><path fill="#fff" d="M59-47c-2 24 18 29 38 22v24C64 9 27 4 27-40v-127H5v-23h24l9-43h21v43h35v23H59v120" id="D"/><path fill="#fff" d="M177-190C167-65 218 103 67 71c-23-6-38-20-44-43l32-5c15 47 100 32 89-28v-30C133-14 115 1 83 1 29 1 15-40 15-95c0-56 16-97 71-98 29-1 48 16 59 35 1-10 0-23 2-32h30zM94-22c36 0 50-32 50-73 0-42-14-75-50-75-39 0-46 34-46 75s6 73 46 73" id="E"/><path fill="#fff" d="M114-163C36-179 61-72 57 0H25l-1-190h30c1 12-1 29 2 39 6-27 23-49 58-41v29" id="F"/><path fill="#fff" d="M141-36C126-15 110 5 73 4 37 3 15-17 15-53c-1-64 63-63 125-63 3-35-9-54-41-54-24 1-41 7-42 31l-33-3c5-37 33-52 76-52 45 0 72 20 72 64v82c-1 20 7 32 28 27v20c-31 9-61-2-59-35zM48-53c0 20 12 33 32 33 41-3 63-29 60-74-43 2-92-5-92 41" id="G"/><path fill="#fff" d="M100-194c62-1 85 37 85 99 1 63-27 99-86 99S16-35 15-95c0-66 28-99 85-99zM99-20c44 1 53-31 53-75 0-43-8-75-51-75s-53 32-53 75 10 74 51 75" id="H"/><g id="d"><use transform="matrix(0.05,0,0,0.05,0,0)" xlink:href="#B"/><use transform="matrix(0.05,0,0,0.05,5,0)" xlink:href="#C"/><use transform="matrix(0.05,0,0,0.05,15,0)" xlink:href="#D"/><use transform="matrix(0.05,0,0,0.05,20,0)" xlink:href="#r"/><use transform="matrix(0.05,0,0,0.05,30,0)" xlink:href="#E"/><use transform="matrix(0.05,0,0,0.05,40,0)" xlink:href="#F"/><use transform="matrix(0.05,0,0,0.05,45.95,0)" xlink:href="#G"/><use transform="matrix(0.05,0,0,0.05,55.95,0)" xlink:href="#D"/><use transform="matrix(0.05,0,0,0.05,60.95,0)" xlink:href="#y"/><use transform="matrix(0.05,0,0,0.05,64.9,0)" xlink:href="#H"/><use transform="matrix(0.05,0,0,0.05,74.9,0)" xlink:href="#C"/><path fill="#fff" d="M-.9 1.25h86.7v1.32H-.9z"/></g><path fill="#fff" d="M24 0v-248h52v208h133V0H24" id="I"/><path fill="#fff" d="M110-194c64 0 96 36 96 99 0 64-35 99-97 99-61 0-95-36-95-99 0-62 34-99 96-99zm-1 164c35 0 45-28 45-65 0-40-10-65-43-65-34 0-45 26-45 65 0 36 10 65 43 65" id="J"/><path fill="#fff" d="M190-63c-7 42-38 67-86 67-59 0-84-38-90-98-12-110 154-137 174-36l-49 2c-2-19-15-32-35-32-30 0-35 28-38 64-6 74 65 87 74 30" id="K"/><path fill="#fff" d="M133-34C117-15 103 5 69 4 32 3 11-16 11-54c-1-60 55-63 116-61 1-26-3-47-28-47-18 1-26 9-28 27l-52-2c7-38 36-58 82-57s74 22 75 68l1 82c-1 14 12 18 25 15v27c-30 8-71 5-69-32zm-48 3c29 0 43-24 42-57-32 0-66-3-65 30 0 17 8 27 23 27" id="L"/><path fill="#fff" d="M25 0v-261h50V0H25" id="M"/><g id="e"><use transform="matrix(0.04938271604938272,0,0,0.04938271604938272,0,0)" xlink:href="#I"/><use transform="matrix(0.04938271604938272,0,0,0.04938271604938272,10.814814814814815,0)" xlink:href="#J"/><use transform="matrix(0.04938271604938272,0,0,0.04938271604938272,21.62962962962963,0)" xlink:href="#K"/><use transform="matrix(0.04938271604938272,0,0,0.04938271604938272,31.506172839506174,0)" xlink:href="#L"/><use transform="matrix(0.04938271604938272,0,0,0.04938271604938272,41.38271604938272,0)" xlink:href="#M"/></g><path fill="#fff" d="M67-125c0 53 21 87 73 88 37 1 54-22 65-47l45 17C233-25 199 4 140 4 58 4 20-42 15-125 8-235 124-281 211-232c18 10 29 29 36 50l-46 12c-8-25-30-41-62-41-52 0-71 34-72 86" id="N"/><path fill="#fff" d="M114-157C55-157 80-60 75 0H25v-261h50l-1 109c12-26 28-41 61-42 86-1 58 113 63 194h-50c-7-57 23-157-34-157" id="O"/><path fill="#fff" d="M185-48c-13 30-37 53-82 52C43 2 14-33 14-96s30-98 90-98c62 0 83 45 84 108H66c0 31 8 55 39 56 18 0 30-7 34-22zm-45-69c5-46-57-63-70-21-2 6-4 13-4 21h74" id="P"/><path fill="#fff" d="M147 0L96-86 75-71V0H25v-261h50v150l67-79h53l-66 74L201 0h-54" id="Q"/><path fill="#fff" d="M25-224v-37h50v37H25zM25 0v-190h50V0H25" id="R"/><path fill="#fff" d="M135-194c87-1 58 113 63 194h-50c-7-57 23-157-34-157-59 0-34 97-39 157H25l-1-190h47c2 12-1 28 3 38 12-26 28-41 61-42" id="S"/><g id="f"><use transform="matrix(0.04938271604938272,0,0,0.04938271604938272,0,0)" xlink:href="#N"/><use transform="matrix(0.04938271604938272,0,0,0.04938271604938272,12.790123456790125,0)" xlink:href="#O"/><use transform="matrix(0.04938271604938272,0,0,0.04938271604938272,23.60493827160494,0)" xlink:href="#P"/><use transform="matrix(0.04938271604938272,0,0,0.04938271604938272,33.48148148148148,0)" xlink:href="#K"/><use transform="matrix(0.04938271604938272,0,0,0.04938271604938272,43.358024691358025,0)" xlink:href="#Q"/><use transform="matrix(0.04938271604938272,0,0,0.04938271604938272,53.23456790123457,0)" xlink:href="#R"/><use transform="matrix(0.04938271604938272,0,0,0.04938271604938272,58.17283950617284,0)" xlink:href="#S"/></g><path fill="#fff" d="M136-208V0H84v-208H4v-40h212v40h-80" id="T"/><path fill="#fff" d="M135-150c-39-12-60 13-60 57V0H25l-1-190h47c2 13-1 29 3 40 6-28 27-53 61-41v41" id="U"/><path fill="#fff" d="M195-6C206 82 75 100 31 46c-4-6-6-13-8-21l49-6c3 16 16 24 34 25 40 0 42-37 40-79-11 22-30 35-61 35-53 0-70-43-70-97 0-56 18-96 73-97 30 0 46 14 59 34l2-30h47zm-90-29c32 0 41-27 41-63 0-35-9-62-40-62-32 0-39 29-40 63 0 36 9 62 39 62" id="V"/><g id="g"><use transform="matrix(0.04938271604938272,0,0,0.04938271604938272,0,0)" xlink:href="#T"/><use transform="matrix(0.04938271604938272,0,0,0.04938271604938272,9.82716049382716,0)" xlink:href="#U"/><use transform="matrix(0.04938271604938272,0,0,0.04938271604938272,16.74074074074074,0)" xlink:href="#R"/><use transform="matrix(0.04938271604938272,0,0,0.04938271604938272,21.679012345679013,0)" xlink:href="#V"/><use transform="matrix(0.04938271604938272,0,0,0.04938271604938272,32.49382716049383,0)" xlink:href="#V"/><use transform="matrix(0.04938271604938272,0,0,0.04938271604938272,43.308641975308646,0)" xlink:href="#P"/><use transform="matrix(0.04938271604938272,0,0,0.04938271604938272,53.18518518518519,0)" xlink:href="#U"/></g><path fill="#fff" d="M76-208v77h127v40H76V0H24v-248h183v40H76" id="W"/><path fill="#fff" d="M88-194c31-1 46 15 58 34l-1-101h50l1 261h-48c-2-10 0-23-3-31C134-8 116 4 84 4 32 4 16-41 15-95c0-56 19-97 73-99zm17 164c33 0 40-30 41-66 1-37-9-64-41-64s-38 30-39 65c0 43 13 65 39 65" id="X"/><path fill="#fff" d="M135-194c52 0 70 43 70 98 0 56-19 99-73 100-30 1-46-15-58-35L72 0H24l1-261h50v104c11-23 29-37 60-37zM114-30c31 0 40-27 40-66 0-37-7-63-39-63s-41 28-41 65c0 36 8 64 40 64" id="Y"/><g id="h"><use transform="matrix(0.04938271604938272,0,0,0.04938271604938272,0,0)" xlink:href="#W"/><use transform="matrix(0.04938271604938272,0,0,0.04938271604938272,10.814814814814815,0)" xlink:href="#P"/><use transform="matrix(0.04938271604938272,0,0,0.04938271604938272,20.69135802469136,0)" xlink:href="#P"/><use transform="matrix(0.04938271604938272,0,0,0.04938271604938272,30.567901234567906,0)" xlink:href="#X"/><use transform="matrix(0.04938271604938272,0,0,0.04938271604938272,41.38271604938272,0)" xlink:href="#Y"/><use transform="matrix(0.04938271604938272,0,0,0.04938271604938272,52.19753086419754,0)" xlink:href="#L"/><use transform="matrix(0.04938271604938272,0,0,0.04938271604938272,62.074074074074076,0)" xlink:href="#K"/><use transform="matrix(0.04938271604938272,0,0,0.04938271604938272,71.95061728395063,0)" xlink:href="#Q"/></g><path fill="#fff" d="M63-220v92h138v28H63V0H30v-248h175v28H63" id="Z"/><path fill="#fff" d="M135-143c-3-34-86-38-87 0 15 53 115 12 119 90S17 21 10-45l28-5c4 36 97 45 98 0-10-56-113-15-118-90-4-57 82-63 122-42 12 7 21 19 24 35" id="aa"/><g id="i"><use transform="matrix(0.06172839506172839,0,0,0.06172839506172839,0,0)" xlink:href="#Z"/><use transform="matrix(0.06172839506172839,0,0,0.06172839506172839,13.518518518518517,0)" xlink:href="#G"/><use transform="matrix(0.06172839506172839,0,0,0.06172839506172839,25.864197530864196,0)" xlink:href="#y"/><use transform="matrix(0.06172839506172839,0,0,0.06172839506172839,30.74074074074074,0)" xlink:href="#z"/><use transform="matrix(0.06172839506172839,0,0,0.06172839506172839,35.617283950617285,0)" xlink:href="#aa"/></g><path fill="#fff" d="M24-248c93 1 206-16 204 79-1 75-69 88-152 82V0H24v-248zm52 121c47 0 100 7 100-41 0-47-54-39-100-39v80" id="ab"/><path fill="#fff" d="M137-138c1-29-70-34-71-4 15 46 118 7 119 86 1 83-164 76-172 9l43-7c4 19 20 25 44 25 33 8 57-30 24-41C81-84 22-81 20-136c-2-80 154-74 161-7" id="ac"/><g id="j"><use transform="matrix(0.04938271604938272,0,0,0.04938271604938272,0,0)" xlink:href="#ab"/><use transform="matrix(0.04938271604938272,0,0,0.04938271604938272,11.851851851851853,0)" xlink:href="#L"/><use transform="matrix(0.04938271604938272,0,0,0.04938271604938272,21.7283950617284,0)" xlink:href="#ac"/><use transform="matrix(0.04938271604938272,0,0,0.04938271604938272,31.60493827160494,0)" xlink:href="#ac"/></g><g id="k"><use transform="matrix(0.06172839506172839,0,0,0.06172839506172839,0,0)" xlink:href="#v"/><use transform="matrix(0.06172839506172839,0,0,0.06172839506172839,18.456790123456788,0)" xlink:href="#G"/><use transform="matrix(0.06172839506172839,0,0,0.06172839506172839,30.80246913580247,0)" xlink:href="#C"/><use transform="matrix(0.06172839506172839,0,0,0.06172839506172839,43.148148148148145,0)" xlink:href="#x"/><use transform="matrix(0.06172839506172839,0,0,0.06172839506172839,55.49382716049382,0)" xlink:href="#G"/><use transform="matrix(0.06172839506172839,0,0,0.06172839506172839,67.8395061728395,0)" xlink:href="#z"/></g><path fill="#fff" d="M143 4C61 4 22-44 18-125c-5-107 100-154 193-111 17 8 29 25 37 43l-32 9c-13-25-37-40-76-40-61 0-88 39-88 99 0 61 29 100 91 101 35 0 62-11 79-27v-45h-74v-28h105v86C228-13 192 4 143 4" id="ad"/><g id="l"><use transform="matrix(0.06172839506172839,0,0,0.06172839506172839,0,0)" xlink:href="#ad"/><use transform="matrix(0.06172839506172839,0,0,0.06172839506172839,17.28395061728395,0)" xlink:href="#G"/><use transform="matrix(0.06172839506172839,0,0,0.06172839506172839,29.629629629629626,0)" xlink:href="#D"/><use transform="matrix(0.06172839506172839,0,0,0.06172839506172839,35.80246913580247,0)" xlink:href="#r"/></g><path fill="#fff" d="M232-93c-1 65-40 97-104 97C67 4 28-28 28-90v-158h33c8 89-33 224 67 224 102 0 64-133 71-224h33v155" id="ae"/><path fill="#fff" d="M205 0l-28-72H64L36 0H1l101-248h38L239 0h-34zm-38-99l-47-123c-12 45-31 82-46 123h93" id="af"/><path fill="#fff" d="M127-220V0H93v-220H8v-28h204v28h-85" id="ag"/><g id="m"><use transform="matrix(0.05,0,0,0.05,0,0)" xlink:href="#ae"/><use transform="matrix(0.05,0,0,0.05,12.950000000000001,0)" xlink:href="#af"/><use transform="matrix(0.05,0,0,0.05,23.6,0)" xlink:href="#ag"/><path fill="#fff" d="M-.9 1.25h36.35v1.32H-.9z"/></g><path fill="#fff" d="M30-248c87 1 191-15 191 75 0 78-77 80-158 76V0H30v-248zm33 125c57 0 124 11 124-50 0-59-68-47-124-48v98" id="ah"/><path fill="#fff" d="M101-234c-31-9-42 10-38 44h38v23H63V0H32v-167H5v-23h27c-7-52 17-82 69-68v24" id="ai"/><path fill="#fff" d="M210-169c-67 3-38 105-44 169h-31v-121c0-29-5-50-35-48C34-165 62-65 56 0H25l-1-190h30c1 10-1 24 2 32 10-44 99-50 107 0 11-21 27-35 58-36 85-2 47 119 55 194h-31v-121c0-29-5-49-35-48" id="aj"/><path fill="#fff" d="M96-169c-40 0-48 33-48 73s9 75 48 75c24 0 41-14 43-38l32 2c-6 37-31 61-74 61-59 0-76-41-82-99-10-93 101-131 147-64 4 7 5 14 7 22l-32 3c-4-21-16-35-41-35" id="ak"/><g id="n"><use transform="matrix(0.05,0,0,0.05,0,0)" xlink:href="#ah"/><use transform="matrix(0.05,0,0,0.05,12,0)" xlink:href="#r"/><use transform="matrix(0.05,0,0,0.05,22,0)" xlink:href="#F"/><use transform="matrix(0.05,0,0,0.05,27.950000000000003,0)" xlink:href="#ai"/><use transform="matrix(0.05,0,0,0.05,32.95,0)" xlink:href="#H"/><use transform="matrix(0.05,0,0,0.05,42.95,0)" xlink:href="#F"/><use transform="matrix(0.05,0,0,0.05,48.900000000000006,0)" xlink:href="#aj"/><use transform="matrix(0.05,0,0,0.05,63.85,0)" xlink:href="#G"/><use transform="matrix(0.05,0,0,0.05,73.85000000000001,0)" xlink:href="#C"/><use transform="matrix(0.05,0,0,0.05,83.85000000000001,0)" xlink:href="#ak"/><use transform="matrix(0.05,0,0,0.05,92.85000000000001,0)" xlink:href="#r"/><path fill="#fff" d="M-.9 1.25h104.65v1.32H-.9z"/></g><g id="o"><use transform="matrix(0.05,0,0,0.05,0,0)" xlink:href="#t"/><use transform="matrix(0.05,0,0,0.05,12,0)" xlink:href="#D"/><use transform="matrix(0.05,0,0,0.05,17,0)" xlink:href="#G"/><use transform="matrix(0.05,0,0,0.05,27,0)" xlink:href="#E"/><use transform="matrix(0.05,0,0,0.05,37,0)" xlink:href="#y"/><use transform="matrix(0.05,0,0,0.05,40.95,0)" xlink:href="#C"/><use transform="matrix(0.05,0,0,0.05,50.95,0)" xlink:href="#E"/><path fill="#fff" d="M-.9 1.25h62.75v1.32H-.9z"/></g><g id="p"><use transform="matrix(0.05,0,0,0.05,0,0)" xlink:href="#ah"/><use transform="matrix(0.05,0,0,0.05,12,0)" xlink:href="#F"/><use transform="matrix(0.05,0,0,0.05,17.95,0)" xlink:href="#H"/><use transform="matrix(0.05,0,0,0.05,27.950000000000003,0)" xlink:href="#A"/><use transform="matrix(0.05,0,0,0.05,37.95,0)" xlink:href="#x"/><use transform="matrix(0.05,0,0,0.05,47.95,0)" xlink:href="#ak"/><use transform="matrix(0.05,0,0,0.05,56.95,0)" xlink:href="#D"/><use transform="matrix(0.05,0,0,0.05,61.95,0)" xlink:href="#y"/><use transform="matrix(0.05,0,0,0.05,65.9,0)" xlink:href="#H"/><use transform="matrix(0.05,0,0,0.05,75.9,0)" xlink:href="#C"/><path fill="#fff" d="M-.9 1.25h87.7v1.32H-.9z"/></g></defs></g></svg>