<svg xmlns="http://www.w3.org/2000/svg" xmlns:xlink="http://www.w3.org/1999/xlink" xmlns:lucid="lucid" width="760" height="483"><g transform="translate(-200 -100)" lucid:page-tab-id="0_0"><path d="M220 126c0-3.3 2.7-6 6-6h148c3.3 0 6 2.7 6 6v68c0 3.3-2.7 6-6 6H226c-3.3 0-6-2.7-6-6z" stroke="#fff" stroke-width="3" fill-opacity="0"/><use xlink:href="#a" transform="matrix(1,0,0,1,220,120) translate(64.03 44.4)"/><path d="M300 202.5v4m0 8.02v8m0 8.02v8m0 8.02v8m0 8.02v8m0 8.02v8m0 8.02v8.02m0 8v8.02m0 8v8.02m0 8v8.02m0 8v8.02m0 8v8.02m0 8.02v8m0 8.02v8m0 8.02v8m0 8.02v8m0 8.02v8m0 8.02v8m0 8.03v8m0 8v8.02m0 8v8.02m0 8v8.02m0 8V559m0 8V571" stroke="#fff" stroke-width="2" fill="none"/><path d="M301 202.53h-2v-1.03h2z" stroke="#fff" stroke-width=".05" fill="#fff"/><path d="M300 570.97V572" stroke="#fff" stroke-width="2" fill="none"/><path d="M500 126c0-3.3 2.7-6 6-6h148c3.3 0 6 2.7 6 6v68c0 3.3-2.7 6-6 6H506c-3.3 0-6-2.7-6-6z" stroke="#fff" stroke-width="3" fill-opacity="0"/><use xlink:href="#b" transform="matrix(1,0,0,1,500,120) translate(60.055 44.4)"/><path d="M580 202.5v3.96m0 7.93v7.9m0 7.93v7.93m0 7.92V254m0 7.93v7.92m0 7.93v7.92m0 7.92v7.93m0 7.92v7.93m0 7.92v7.92m0 7.93v7.92m0 7.92v7.92m0 7.92v7.93m0 7.9v7.94m0 7.92v7.92m0 7.93v7.93m0 7.93v7.92m0 7.92v7.93m0 7.92v7.92m0 7.93v7.92m0 7.93v7.92m0 7.92v7.92m0 7.92v7.93m0 7.92v7.9m0 7.94V567" stroke="#fff" stroke-width="2" fill="none"/><path d="M581 202.53h-2v-1.03h2z" stroke="#fff" stroke-width=".05" fill="#fff"/><path d="M580 566.97V568" stroke="#fff" stroke-width="2" fill="none"/><path d="M780 126c0-3.3 2.7-6 6-6h148c3.3 0 6 2.7 6 6v68c0 3.3-2.7 6-6 6H786c-3.3 0-6-2.7-6-6z" stroke="#fff" stroke-width="3" fill-opacity="0"/><use xlink:href="#c" transform="matrix(1,0,0,1,780,120) translate(60.055 44.4)"/><path d="M860 202.5v4m0 7.97v7.98m0 8v7.97m0 7.98v7.98m0 7.98v8m0 7.97v7.98m0 8v7.97m0 8v7.97m0 7.98v7.98m0 7.98v7.98m0 8v7.97m0 7.98v8m0 7.97v8m0 7.97v7.98m0 7.98v7.98m0 8v7.97m0 7.98v7.98m0 8v7.98m0 7.98v7.98m0 7.98v7.98m0 7.98v8m0 7.97v7.98m0 7.98v8m0 7.98v4" stroke="#fff" stroke-width="2" fill="none"/><path d="M861 202.53h-2v-1.03h2z" stroke="#fff" stroke-width=".05" fill="#fff"/><path d="M860 569.64v1.03" stroke="#fff" stroke-width="2" fill="none"/><path d="M280 266c0-3.3 2.7-6 6-6h28c3.3 0 6 2.7 6 6v248c0 3.3-2.7 6-6 6h-28c-3.3 0-6-2.7-6-6z" stroke="#fff" stroke-width="3" fill="#4c535d"/><path d="M300 286c0-3.3 2.7-6 6-6h28c3.3 0 6 2.7 6 6v48c0 3.3-2.7 6-6 6h-28c-3.3 0-6-2.7-6-6z" stroke="#fff" stroke-width="3" fill="#4c535d"/><path d="M322.17 264.6h53.33c3.3 0 6 2.68 6 6v22.58c0 3.3-2.7 6-6 6H360" stroke="#fff" stroke-width="2" fill="none"/><path d="M322.2 265.6h-.76l-.54-2h1.3z" stroke="#fff" stroke-width=".05" fill="#fff"/><path d="M344.74 299.18l14.26-4.64v9.28z" stroke="#fff" stroke-width="2" fill="#fff"/><use xlink:href="#d" transform="matrix(1,0,0,1,389.5,261.05541258863104) translate(0 14.222222222222223)"/><path d="M322.5 360h220.67" stroke="#fff" stroke-width="2" fill="none"/><path d="M322.53 361h-1.03v-2h1.03z" stroke="#fff" stroke-width=".05" fill="#fff"/><path d="M558.43 360l-14.26 4.64v-9.28z" stroke="#fff" stroke-width="2" fill="#fff"/><use xlink:href="#e" transform="matrix(1,0,0,1,407.0909431677264,334.66666666666663) translate(0 14.222222222222223)"/><path d="M560 366c0-3.3 2.7-6 6-6h28c3.3 0 6 2.7 6 6v48c0 3.3-2.7 6-6 6h-28c-3.3 0-6-2.7-6-6zM840 406c0-3.3 2.7-6 6-6h28c3.3 0 6 2.7 6 6v108c0 3.3-2.7 6-6 6h-28c-3.3 0-6-2.7-6-6z" stroke="#fff" stroke-width="3" fill="#4c535d"/><path d="M602.5 404h217.98" stroke="#fff" stroke-width="2" fill="none"/><path d="M602.53 405h-1.03v-2h1.03z" stroke="#fff" stroke-width=".05" fill="#fff"/><path d="M835.75 404l-14.27 4.64v-9.27z" stroke="#fff" stroke-width="2" fill="#fff"/><use xlink:href="#f" transform="matrix(1,0,0,1,690.1938604572931,378.66893504761373) translate(0 14.222222222222223)"/><path d="M837.5 508.82h-4.02m-8.05 0h-8.05m-8.04 0h-8.05m-8.06 0h-8.04m-8.05 0h-8.05m-8.05 0H753m-8.04 0h-8.05m-8.03 0h-8.05m-8.05 0h-8.04m-8.05 0h-8.05m-8.04 0h-8.06m-8.05 0h-8.05m-8.05 0h-8.05m-8.05 0h-8.04m-8.05 0h-8.04m-8.04 0h-8.05m-8.05 0H576m-8.03 0h-8.02m-8.02 0h-8.03m-8.02 0h-8.02m-8.02 0h-8.02m-8.02 0h-8.02m-8.02 0h-8.03m-8.02 0h-8m-8.03 0h-8.02m-8.02 0h-8.02m-8 0h-8.04m-8.02 0h-8.02m-8.02 0h-8.02m-8.02 0h-8.02m-8.03 0h-8m-8.03 0h-8.02m-8.02 0h-4" stroke="#fff" stroke-width="2" fill="none"/><path d="M838.5 509.82h-1.03v-2h1.03z" stroke="#fff" stroke-width=".05" fill="#fff"/><path d="M340.68 498.64l-17.2 10.18 17.2 10.2" stroke="#fff" stroke-width="2" fill="none"/><use xlink:href="#g" transform="matrix(1,0,0,1,486.83713070117045,512.8244785554632) translate(0 14.222222222222223)"/><defs><path fill="#fff" d="M30-248c118-7 216 8 213 122C240-48 200 0 122 0H30v-248zM63-27c89 8 146-16 146-99s-60-101-146-95v194" id="h"/><path fill="#fff" d="M100-194c63 0 86 42 84 106H49c0 40 14 67 53 68 26 1 43-12 49-29l28 8c-11 28-37 45-77 45C44 4 14-33 15-96c1-61 26-98 85-98zm52 81c6-60-76-77-97-28-3 7-6 17-6 28h103" id="i"/><path fill="#fff" d="M108 0H70L1-190h34L89-25l56-165h34" id="j"/><g id="a"><use transform="matrix(0.05,0,0,0.05,0,0)" xlink:href="#h"/><use transform="matrix(0.05,0,0,0.05,12.950000000000001,0)" xlink:href="#i"/><use transform="matrix(0.05,0,0,0.05,22.950000000000003,0)" xlink:href="#j"/><path fill="#fff" d="M-.9 1.25h33.75v1.32H-.9z"/></g><path fill="#fff" d="M185-189c-5-48-123-54-124 2 14 75 158 14 163 119 3 78-121 87-175 55-17-10-28-26-33-46l33-7c5 56 141 63 141-1 0-78-155-14-162-118-5-82 145-84 179-34 5 7 8 16 11 25" id="k"/><path fill="#fff" d="M212-179c-10-28-35-45-73-45-59 0-87 40-87 99 0 60 29 101 89 101 43 0 62-24 78-52l27 14C228-24 195 4 139 4 59 4 22-46 18-125c-6-104 99-153 187-111 19 9 31 26 39 46" id="l"/><path fill="#fff" d="M240 0l2-218c-23 76-54 145-80 218h-23L58-218 59 0H30v-248h44l77 211c21-75 51-140 76-211h43V0h-30" id="m"/><g id="b"><use transform="matrix(0.05,0,0,0.05,0,0)" xlink:href="#k"/><use transform="matrix(0.05,0,0,0.05,12,0)" xlink:href="#l"/><use transform="matrix(0.05,0,0,0.05,24.950000000000003,0)" xlink:href="#m"/><path fill="#fff" d="M-.9 1.25h41.7v1.32H-.9z"/></g><path fill="#fff" d="M160-131c35 5 61 23 61 61C221 17 115-2 30 0v-248c76 3 177-17 177 60 0 33-19 50-47 57zm-97-11c50-1 110 9 110-42 0-47-63-36-110-37v79zm0 115c55-2 124 14 124-45 0-56-70-42-124-44v89" id="n"/><path fill="#fff" d="M84 4C-5 8 30-112 23-190h32v120c0 31 7 50 39 49 72-2 45-101 50-169h31l1 190h-30c-1-10 1-25-2-33-11 22-28 36-60 37" id="o"/><path fill="#fff" d="M24-231v-30h32v30H24zM24 0v-190h32V0H24" id="p"/><path fill="#fff" d="M24 0v-261h32V0H24" id="q"/><path fill="#fff" d="M85-194c31 0 48 13 60 33l-1-100h32l1 261h-30c-2-10 0-23-3-31C134-8 116 4 85 4 32 4 16-35 15-94c0-66 23-100 70-100zm9 24c-40 0-46 34-46 75 0 40 6 74 45 74 42 0 51-32 51-76 0-42-9-74-50-73" id="r"/><g id="c"><use transform="matrix(0.05,0,0,0.05,0,0)" xlink:href="#n"/><use transform="matrix(0.05,0,0,0.05,12,0)" xlink:href="#o"/><use transform="matrix(0.05,0,0,0.05,22,0)" xlink:href="#p"/><use transform="matrix(0.05,0,0,0.05,25.950000000000003,0)" xlink:href="#q"/><use transform="matrix(0.05,0,0,0.05,29.899999999999995,0)" xlink:href="#r"/><path fill="#fff" d="M-.9 1.25h41.7v1.32H-.9z"/></g><path fill="#fff" d="M24 0v-248h52v208h133V0H24" id="s"/><path fill="#fff" d="M110-194c64 0 96 36 96 99 0 64-35 99-97 99-61 0-95-36-95-99 0-62 34-99 96-99zm-1 164c35 0 45-28 45-65 0-40-10-65-43-65-34 0-45 26-45 65 0 36 10 65 43 65" id="t"/><path fill="#fff" d="M190-63c-7 42-38 67-86 67-59 0-84-38-90-98-12-110 154-137 174-36l-49 2c-2-19-15-32-35-32-30 0-35 28-38 64-6 74 65 87 74 30" id="u"/><path fill="#fff" d="M133-34C117-15 103 5 69 4 32 3 11-16 11-54c-1-60 55-63 116-61 1-26-3-47-28-47-18 1-26 9-28 27l-52-2c7-38 36-58 82-57s74 22 75 68l1 82c-1 14 12 18 25 15v27c-30 8-71 5-69-32zm-48 3c29 0 43-24 42-57-32 0-66-3-65 30 0 17 8 27 23 27" id="v"/><path fill="#fff" d="M25 0v-261h50V0H25" id="w"/><g id="d"><use transform="matrix(0.04938271604938272,0,0,0.04938271604938272,0,0)" xlink:href="#s"/><use transform="matrix(0.04938271604938272,0,0,0.04938271604938272,10.814814814814815,0)" xlink:href="#t"/><use transform="matrix(0.04938271604938272,0,0,0.04938271604938272,21.62962962962963,0)" xlink:href="#u"/><use transform="matrix(0.04938271604938272,0,0,0.04938271604938272,31.506172839506174,0)" xlink:href="#v"/><use transform="matrix(0.04938271604938272,0,0,0.04938271604938272,41.38271604938272,0)" xlink:href="#w"/></g><path fill="#fff" d="M67-125c0 53 21 87 73 88 37 1 54-22 65-47l45 17C233-25 199 4 140 4 58 4 20-42 15-125 8-235 124-281 211-232c18 10 29 29 36 50l-46 12c-8-25-30-41-62-41-52 0-71 34-72 86" id="x"/><path fill="#fff" d="M114-157C55-157 80-60 75 0H25v-261h50l-1 109c12-26 28-41 61-42 86-1 58 113 63 194h-50c-7-57 23-157-34-157" id="y"/><path fill="#fff" d="M185-48c-13 30-37 53-82 52C43 2 14-33 14-96s30-98 90-98c62 0 83 45 84 108H66c0 31 8 55 39 56 18 0 30-7 34-22zm-45-69c5-46-57-63-70-21-2 6-4 13-4 21h74" id="z"/><path fill="#fff" d="M147 0L96-86 75-71V0H25v-261h50v150l67-79h53l-66 74L201 0h-54" id="A"/><path fill="#fff" d="M25-224v-37h50v37H25zM25 0v-190h50V0H25" id="B"/><path fill="#fff" d="M135-194c87-1 58 113 63 194h-50c-7-57 23-157-34-157-59 0-34 97-39 157H25l-1-190h47c2 12-1 28 3 38 12-26 28-41 61-42" id="C"/><g id="e"><use transform="matrix(0.04938271604938272,0,0,0.04938271604938272,0,0)" xlink:href="#x"/><use transform="matrix(0.04938271604938272,0,0,0.04938271604938272,12.790123456790125,0)" xlink:href="#y"/><use transform="matrix(0.04938271604938272,0,0,0.04938271604938272,23.60493827160494,0)" xlink:href="#z"/><use transform="matrix(0.04938271604938272,0,0,0.04938271604938272,33.48148148148148,0)" xlink:href="#u"/><use transform="matrix(0.04938271604938272,0,0,0.04938271604938272,43.358024691358025,0)" xlink:href="#A"/><use transform="matrix(0.04938271604938272,0,0,0.04938271604938272,53.23456790123457,0)" xlink:href="#B"/><use transform="matrix(0.04938271604938272,0,0,0.04938271604938272,58.17283950617284,0)" xlink:href="#C"/></g><path fill="#fff" d="M136-208V0H84v-208H4v-40h212v40h-80" id="D"/><path fill="#fff" d="M135-150c-39-12-60 13-60 57V0H25l-1-190h47c2 13-1 29 3 40 6-28 27-53 61-41v41" id="E"/><path fill="#fff" d="M195-6C206 82 75 100 31 46c-4-6-6-13-8-21l49-6c3 16 16 24 34 25 40 0 42-37 40-79-11 22-30 35-61 35-53 0-70-43-70-97 0-56 18-96 73-97 30 0 46 14 59 34l2-30h47zm-90-29c32 0 41-27 41-63 0-35-9-62-40-62-32 0-39 29-40 63 0 36 9 62 39 62" id="F"/><g id="f"><use transform="matrix(0.04938271604938272,0,0,0.04938271604938272,0,0)" xlink:href="#D"/><use transform="matrix(0.04938271604938272,0,0,0.04938271604938272,9.82716049382716,0)" xlink:href="#E"/><use transform="matrix(0.04938271604938272,0,0,0.04938271604938272,16.74074074074074,0)" xlink:href="#B"/><use transform="matrix(0.04938271604938272,0,0,0.04938271604938272,21.679012345679013,0)" xlink:href="#F"/><use transform="matrix(0.04938271604938272,0,0,0.04938271604938272,32.49382716049383,0)" xlink:href="#F"/><use transform="matrix(0.04938271604938272,0,0,0.04938271604938272,43.308641975308646,0)" xlink:href="#z"/><use transform="matrix(0.04938271604938272,0,0,0.04938271604938272,53.18518518518519,0)" xlink:href="#E"/></g><path fill="#fff" d="M76-208v77h127v40H76V0H24v-248h183v40H76" id="G"/><path fill="#fff" d="M88-194c31-1 46 15 58 34l-1-101h50l1 261h-48c-2-10 0-23-3-31C134-8 116 4 84 4 32 4 16-41 15-95c0-56 19-97 73-99zm17 164c33 0 40-30 41-66 1-37-9-64-41-64s-38 30-39 65c0 43 13 65 39 65" id="H"/><path fill="#fff" d="M135-194c52 0 70 43 70 98 0 56-19 99-73 100-30 1-46-15-58-35L72 0H24l1-261h50v104c11-23 29-37 60-37zM114-30c31 0 40-27 40-66 0-37-7-63-39-63s-41 28-41 65c0 36 8 64 40 64" id="I"/><g id="g"><use transform="matrix(0.04938271604938272,0,0,0.04938271604938272,0,0)" xlink:href="#G"/><use transform="matrix(0.04938271604938272,0,0,0.04938271604938272,10.814814814814815,0)" xlink:href="#z"/><use transform="matrix(0.04938271604938272,0,0,0.04938271604938272,20.69135802469136,0)" xlink:href="#z"/><use transform="matrix(0.04938271604938272,0,0,0.04938271604938272,30.567901234567906,0)" xlink:href="#H"/><use transform="matrix(0.04938271604938272,0,0,0.04938271604938272,41.38271604938272,0)" xlink:href="#I"/><use transform="matrix(0.04938271604938272,0,0,0.04938271604938272,52.19753086419754,0)" xlink:href="#v"/><use transform="matrix(0.04938271604938272,0,0,0.04938271604938272,62.074074074074076,0)" xlink:href="#u"/><use transform="matrix(0.04938271604938272,0,0,0.04938271604938272,71.95061728395063,0)" xlink:href="#A"/></g></defs></g></svg>