<svg xmlns="http://www.w3.org/2000/svg" xmlns:xlink="http://www.w3.org/1999/xlink" xmlns:lucid="lucid" width="1180" height="585"><g transform="translate(-80 -47.5)" lucid:page-tab-id="MVQW2p8xUMm1"><path d="M100 306c0-3.3 2.7-6 6-6h168c3.3 0 6 2.7 6 6v68c0 3.3-2.7 6-6 6H106c-3.3 0-6-2.7-6-6z" stroke="#fff" stroke-width="3" fill-opacity="0"/><use xlink:href="#a" transform="matrix(1,0,0,1,108,308) translate(48.14197530864198 36.44444444444444)"/><path d="M740 506c0-3.3 2.7-6 6-6h168c3.3 0 6 2.7 6 6v68c0 3.3-2.7 6-6 6H746c-3.3 0-6-2.7-6-6z" stroke="#fff" stroke-width="3" fill-opacity="0"/><use xlink:href="#b" transform="matrix(1,0,0,1,748,508) translate(56.69135802469136 36.44444444444444)"/><path d="M740 106c0-3.3 2.7-6 6-6h168c3.3 0 6 2.7 6 6v68c0 3.3-2.7 6-6 6H746c-3.3 0-6-2.7-6-6z" stroke="#fff" stroke-width="3" fill-opacity="0"/><use xlink:href="#c" transform="matrix(1,0,0,1,748,108) translate(41.351851851851855 36.44444444444444)"/><path d="M737.5 140h-33c-3.3 0-6 2.7-6 6v389.33c0 3.32 2.7 6 6 6h33" stroke="#fff" stroke-width="2" fill="none"/><path d="M738.5 141h-1.03v-2h1.03zM738.5 542.33h-1.03v-2h1.03z" stroke="#fff" stroke-width=".05" fill="#fff"/><use xlink:href="#d" transform="matrix(1,0,0,1,714.9103541694427,114.4) translate(0 14.4)"/><use xlink:href="#e" transform="matrix(1,0,0,1,706.5,515.7333333333335) translate(0 14.4)"/><path d="M922.5 140h33c3.3 0 6 2.7 6 6v382.67c0 3.3-2.7 6-6 6h-33" stroke="#fff" stroke-width="2" fill="none"/><path d="M922.53 141h-1.03v-2h1.03zM922.53 535.67h-1.03v-2h1.03z" stroke="#fff" stroke-width=".05" fill="#fff"/><use xlink:href="#e" transform="matrix(1,0,0,1,926.5,144) translate(0 14.4)"/><use xlink:href="#e" transform="matrix(1,0,0,1,927.9205807627911,538.6666666666666) translate(0 14.4)"/><path d="M420 276c0-3.3 2.7-6 6-6h168c3.3 0 6 2.7 6 6v128c0 3.3-2.7 6-6 6H426c-3.3 0-6-2.7-6-6z" stroke="#fff" stroke-width="3" fill-opacity="0"/><path d="M420 312.67h180m-180 48.66h180" stroke="#fff" stroke-width="3" fill="none"/><use xlink:href="#f" transform="matrix(1,0,0,1,428,278) translate(41.351851851851855 17.944444444444443)"/><use xlink:href="#g" transform="matrix(1,0,0,1,432,320.6666666666667) translate(0 20.944444444444443)"/><path d="M1060 276c0-3.3 2.7-6 6-6h168c3.3 0 6 2.7 6 6v128c0 3.3-2.7 6-6 6h-168c-3.3 0-6-2.7-6-6z" stroke="#fff" stroke-width="3" fill-opacity="0"/><path d="M1060 312.67h180m-180 48.66h180" stroke="#fff" stroke-width="3" fill="none"/><use xlink:href="#h" transform="matrix(1,0,0,1,1068,278) translate(53.66666666666667 17.944444444444443)"/><use xlink:href="#i" transform="matrix(1,0,0,1,1072,320.6666666666667) translate(0 20.944444444444443)"/><path d="M190 297.5v-233c0-3.3 2.7-6 6-6h628c3.3 0 6 2.7 6 6v33" stroke="#fff" stroke-width="2" fill="none"/><path d="M191 298.5h-2v-1.03h2zM831 98.5h-2v-1.03h2z" stroke="#fff" stroke-width=".05" fill="#fff"/><use xlink:href="#d" transform="matrix(1,0,0,1,198,277.7) translate(0 14.4)"/><use xlink:href="#e" transform="matrix(1,0,0,1,838,77.6999999999994) translate(0 14.4)"/><path d="M190 382.5v233c0 3.3 2.7 6 6 6h628c3.3 0 6-2.7 6-6v-33" stroke="#fff" stroke-width="2" fill="none"/><path d="M191 382.53h-2v-1.03h2zM831 582.53h-2v-1.03h2z" stroke="#fff" stroke-width=".05" fill="#fff"/><use xlink:href="#d" transform="matrix(1,0,0,1,172,385.9330336198029) translate(0 14.4)"/><use xlink:href="#e" transform="matrix(1,0,0,1,795,583.8729557698982) translate(0 14.4)"/><path d="M602.5 340h2.85m3.8 0h5.7m3.8 0h5.7m3.8 0h5.7m3.8 0h5.7m3.8 0h5.7m3.8 0h5.7m3.8 0h5.7m3.8 0h5.7m3.8 0h5.7m3.8 0h2.85" stroke="#fff" stroke-width="2" fill="none"/><path d="M602.53 341h-1.03v-2h1.03z" stroke="#fff" stroke-width=".05" fill="#fff"/><path d="M697.47 340h1.03M1057.5 340h-2.85m-3.8 0h-5.7m-3.8 0h-5.7m-3.8 0h-5.7m-3.8 0h-5.7m-3.8 0h-5.7m-3.8 0h-5.7m-3.8 0h-5.7m-3.8 0h-5.7m-3.8 0h-5.7m-3.8 0h-2.85" stroke="#fff" stroke-width="2" fill="none"/><path d="M1058.5 341h-1.03v-2h1.03z" stroke="#fff" stroke-width=".05" fill="#fff"/><path d="M962.53 340h-1.03M921.5 540" stroke="#fff" stroke-width="2" fill="none"/><path stroke="#fff" stroke-width=".05" fill="#fff"/><path stroke="#fff" stroke-width=".05" fill="#fff"/><defs><path fill="#fff" d="M30 0v-248h33v221h125V0H30" id="j"/><path fill="#fff" d="M24-231v-30h32v30H24zM24 0v-190h32V0H24" id="k"/><path fill="#fff" d="M115-194c53 0 69 39 70 98 0 66-23 100-70 100C84 3 66-7 56-30L54 0H23l1-261h32v101c10-23 28-34 59-34zm-8 174c40 0 45-34 45-75 0-40-5-75-45-74-42 0-51 32-51 76 0 43 10 73 51 73" id="l"/><path fill="#fff" d="M114-163C36-179 61-72 57 0H25l-1-190h30c1 12-1 29 2 39 6-27 23-49 58-41v29" id="m"/><path fill="#fff" d="M141-36C126-15 110 5 73 4 37 3 15-17 15-53c-1-64 63-63 125-63 3-35-9-54-41-54-24 1-41 7-42 31l-33-3c5-37 33-52 76-52 45 0 72 20 72 64v82c-1 20 7 32 28 27v20c-31 9-61-2-59-35zM48-53c0 20 12 33 32 33 41-3 63-29 60-74-43 2-92-5-92 41" id="n"/><path fill="#fff" d="M179-190L93 31C79 59 56 82 12 73V49c39 6 53-20 64-50L1-190h34L92-34l54-156h33" id="o"/><g id="a"><use transform="matrix(0.06172839506172839,0,0,0.06172839506172839,0,0)" xlink:href="#j"/><use transform="matrix(0.06172839506172839,0,0,0.06172839506172839,12.345679012345679,0)" xlink:href="#k"/><use transform="matrix(0.06172839506172839,0,0,0.06172839506172839,17.22222222222222,0)" xlink:href="#l"/><use transform="matrix(0.06172839506172839,0,0,0.06172839506172839,29.5679012345679,0)" xlink:href="#m"/><use transform="matrix(0.06172839506172839,0,0,0.06172839506172839,36.913580246913575,0)" xlink:href="#n"/><use transform="matrix(0.06172839506172839,0,0,0.06172839506172839,49.25925925925925,0)" xlink:href="#m"/><use transform="matrix(0.06172839506172839,0,0,0.06172839506172839,56.60493827160493,0)" xlink:href="#o"/></g><path fill="#fff" d="M160-131c35 5 61 23 61 61C221 17 115-2 30 0v-248c76 3 177-17 177 60 0 33-19 50-47 57zm-97-11c50-1 110 9 110-42 0-47-63-36-110-37v79zm0 115c55-2 124 14 124-45 0-56-70-42-124-44v89" id="p"/><path fill="#fff" d="M100-194c62-1 85 37 85 99 1 63-27 99-86 99S16-35 15-95c0-66 28-99 85-99zM99-20c44 1 53-31 53-75 0-43-8-75-51-75s-53 32-53 75 10 74 51 75" id="q"/><path fill="#fff" d="M143 0L79-87 56-68V0H24v-261h32v163l83-92h37l-77 82L181 0h-38" id="r"/><g id="b"><use transform="matrix(0.06172839506172839,0,0,0.06172839506172839,0,0)" xlink:href="#p"/><use transform="matrix(0.06172839506172839,0,0,0.06172839506172839,14.814814814814813,0)" xlink:href="#q"/><use transform="matrix(0.06172839506172839,0,0,0.06172839506172839,27.160493827160494,0)" xlink:href="#q"/><use transform="matrix(0.06172839506172839,0,0,0.06172839506172839,39.50617283950617,0)" xlink:href="#r"/></g><path fill="#fff" d="M240 0l2-218c-23 76-54 145-80 218h-23L58-218 59 0H30v-248h44l77 211c21-75 51-140 76-211h43V0h-30" id="s"/><path fill="#fff" d="M100-194c63 0 86 42 84 106H49c0 40 14 67 53 68 26 1 43-12 49-29l28 8c-11 28-37 45-77 45C44 4 14-33 15-96c1-61 26-98 85-98zm52 81c6-60-76-77-97-28-3 7-6 17-6 28h103" id="t"/><path fill="#fff" d="M210-169c-67 3-38 105-44 169h-31v-121c0-29-5-50-35-48C34-165 62-65 56 0H25l-1-190h30c1 10-1 24 2 32 10-44 99-50 107 0 11-21 27-35 58-36 85-2 47 119 55 194h-31v-121c0-29-5-49-35-48" id="u"/><g id="c"><use transform="matrix(0.06172839506172839,0,0,0.06172839506172839,0,0)" xlink:href="#s"/><use transform="matrix(0.06172839506172839,0,0,0.06172839506172839,18.456790123456788,0)" xlink:href="#t"/><use transform="matrix(0.06172839506172839,0,0,0.06172839506172839,30.80246913580247,0)" xlink:href="#u"/><use transform="matrix(0.06172839506172839,0,0,0.06172839506172839,49.25925925925925,0)" xlink:href="#l"/><use transform="matrix(0.06172839506172839,0,0,0.06172839506172839,61.60493827160493,0)" xlink:href="#t"/><use transform="matrix(0.06172839506172839,0,0,0.06172839506172839,73.9506172839506,0)" xlink:href="#m"/></g><path fill="#fff" d="M27 0v-27h64v-190l-56 39v-29l58-41h29v221h61V0H27" id="v"/><use transform="matrix(0.05,0,0,0.05,0,0)" xlink:href="#v" id="d"/><path fill="#fff" d="M101-251c68 0 85 55 85 127S166 4 100 4C33 4 14-52 14-124c0-73 17-127 87-127zm-1 229c47 0 54-49 54-102s-4-102-53-102c-51 0-55 48-55 102 0 53 5 102 54 102" id="w"/><path fill="#fff" d="M33 0v-38h34V0H33" id="x"/><path fill="#fff" d="M80-196l47-18 7 23-49 13 32 44-20 13-27-46-27 45-21-12 33-44-49-13 8-23 47 19-2-53h23" id="y"/><g id="e"><use transform="matrix(0.05,0,0,0.05,0,0)" xlink:href="#w"/><use transform="matrix(0.05,0,0,0.05,10,0)" xlink:href="#x"/><use transform="matrix(0.05,0,0,0.05,15,0)" xlink:href="#x"/><use transform="matrix(0.05,0,0,0.05,20,0)" xlink:href="#y"/></g><path fill="#fff" d="M206 0h-36l-40-164L89 0H53L-1-190h32L70-26l43-164h34l41 164 42-164h31" id="z"/><path fill="#fff" d="M135-143c-3-34-86-38-87 0 15 53 115 12 119 90S17 21 10-45l28-5c4 36 97 45 98 0-10-56-113-15-118-90-4-57 82-63 122-42 12 7 21 19 24 35" id="A"/><g id="f"><use transform="matrix(0.06172839506172839,0,0,0.06172839506172839,0,0)" xlink:href="#p"/><use transform="matrix(0.06172839506172839,0,0,0.06172839506172839,14.814814814814813,0)" xlink:href="#q"/><use transform="matrix(0.06172839506172839,0,0,0.06172839506172839,27.160493827160494,0)" xlink:href="#m"/><use transform="matrix(0.06172839506172839,0,0,0.06172839506172839,34.50617283950617,0)" xlink:href="#m"/><use transform="matrix(0.06172839506172839,0,0,0.06172839506172839,41.85185185185185,0)" xlink:href="#q"/><use transform="matrix(0.06172839506172839,0,0,0.06172839506172839,54.197530864197525,0)" xlink:href="#z"/><use transform="matrix(0.06172839506172839,0,0,0.06172839506172839,70.18518518518518,0)" xlink:href="#A"/></g><path fill="#fff" d="M16-82v-28h88v28H16" id="B"/><path fill="#fff" d="M85-194c31 0 48 13 60 33l-1-100h32l1 261h-30c-2-10 0-23-3-31C134-8 116 4 85 4 32 4 16-35 15-94c0-66 23-100 70-100zm9 24c-40 0-46 34-46 75 0 40 6 74 45 74 42 0 51-32 51-76 0-42-9-74-50-73" id="C"/><path fill="#fff" d="M84 4C-5 8 30-112 23-190h32v120c0 31 7 50 39 49 72-2 45-101 50-169h31l1 190h-30c-1-10 1-25-2-33-11 22-28 36-60 37" id="D"/><path fill="#fff" d="M30-248c118-7 216 8 213 122C240-48 200 0 122 0H30v-248zM63-27c89 8 146-16 146-99s-60-101-146-95v194" id="E"/><path fill="#fff" d="M59-47c-2 24 18 29 38 22v24C64 9 27 4 27-40v-127H5v-23h24l9-43h21v43h35v23H59v120" id="F"/><g id="g"><use transform="matrix(0.06172839506172839,0,0,0.06172839506172839,0,0)" xlink:href="#B"/><use transform="matrix(0.06172839506172839,0,0,0.06172839506172839,13.518518518518519,0)" xlink:href="#C"/><use transform="matrix(0.06172839506172839,0,0,0.06172839506172839,25.864197530864196,0)" xlink:href="#D"/><use transform="matrix(0.06172839506172839,0,0,0.06172839506172839,38.20987654320987,0)" xlink:href="#t"/><use transform="matrix(0.06172839506172839,0,0,0.06172839506172839,50.55555555555555,0)" xlink:href="#E"/><use transform="matrix(0.06172839506172839,0,0,0.06172839506172839,66.5432098765432,0)" xlink:href="#n"/><use transform="matrix(0.06172839506172839,0,0,0.06172839506172839,78.88888888888889,0)" xlink:href="#F"/><use transform="matrix(0.06172839506172839,0,0,0.06172839506172839,85.06172839506172,0)" xlink:href="#t"/></g><path fill="#fff" d="M197 0v-115H63V0H30v-248h33v105h134v-105h34V0h-34" id="G"/><path fill="#fff" d="M24 0v-261h32V0H24" id="H"/><g id="h"><use transform="matrix(0.06172839506172839,0,0,0.06172839506172839,0,0)" xlink:href="#G"/><use transform="matrix(0.06172839506172839,0,0,0.06172839506172839,15.987654320987653,0)" xlink:href="#q"/><use transform="matrix(0.06172839506172839,0,0,0.06172839506172839,28.333333333333332,0)" xlink:href="#H"/><use transform="matrix(0.06172839506172839,0,0,0.06172839506172839,33.20987654320987,0)" xlink:href="#C"/><use transform="matrix(0.06172839506172839,0,0,0.06172839506172839,45.55555555555555,0)" xlink:href="#A"/></g><g id="i"><use transform="matrix(0.06172839506172839,0,0,0.06172839506172839,0,0)" xlink:href="#B"/><use transform="matrix(0.06172839506172839,0,0,0.06172839506172839,13.518518518518519,0)" xlink:href="#C"/><use transform="matrix(0.06172839506172839,0,0,0.06172839506172839,25.864197530864196,0)" xlink:href="#n"/><use transform="matrix(0.06172839506172839,0,0,0.06172839506172839,38.20987654320987,0)" xlink:href="#F"/><use transform="matrix(0.06172839506172839,0,0,0.06172839506172839,44.382716049382715,0)" xlink:href="#t"/></g></defs></g></svg>