<svg xmlns="http://www.w3.org/2000/svg" xmlns:xlink="http://www.w3.org/1999/xlink" xmlns:lucid="lucid" width="1360" height="787.06"><g transform="translate(-320 -280)" lucid:page-tab-id="DGf_N7OXM.2C"><path d="M0 0h1760v1360H0z" fill="#fff"/><path d="M1360 929.53c0-3.3 2.7-6 6-6h239.3c3.32 0 6 2.7 6 6v48c0 3.3-2.68 6-6 6H1366c-3.3 0-6-2.7-6-6z" fill="none"/><use xlink:href="#a" transform="matrix(1,0,0,1,1360.0000000000007,923.5294117647059) translate(0 21.111111111111114)"/><use xlink:href="#b" transform="matrix(1,0,0,1,1360.0000000000007,923.5294117647059) translate(110.8641975308642 21.111111111111114)"/><use xlink:href="#c" transform="matrix(1,0,0,1,1360.0000000000007,923.5294117647059) translate(144.07407407407408 21.111111111111114)"/><use xlink:href="#d" transform="matrix(1,0,0,1,1360.0000000000007,923.5294117647059) translate(0 47.777777777777786)"/><path d="M360 506c0-3.3 2.7-6 6-6h188c3.3 0 6 2.7 6 6v88c0 3.3-2.7 6-6 6H366c-3.3 0-6-2.7-6-6z" stroke="#5e5e5e" stroke-width="4" fill="#e5e5e5"/><path d="M340 521c0-3.3 2.7-6 6-6h28c3.3 0 6 2.7 6 6v8c0 3.3-2.7 6-6 6h-28c-3.3 0-6-2.7-6-6zM340 571c0-3.3 2.7-6 6-6h28c3.3 0 6 2.7 6 6v8c0 3.3-2.7 6-6 6h-28c-3.3 0-6-2.7-6-6z" stroke="#5e5e5e" stroke-width="4" fill="#e5e5e5"/><use xlink:href="#e" transform="matrix(1,0,0,1,384,510) translate(7.160493827160494 17.77777777777778)"/><use xlink:href="#f" transform="matrix(1,0,0,1,384,510) translate(77.5 44.44444444444444)"/><use xlink:href="#g" transform="matrix(1,0,0,1,384,510) translate(7.839506172839506 71.11111111111111)"/><use xlink:href="#h" transform="matrix(1,0,0,1,384,510) translate(60.80246913580247 71.11111111111111)"/><path d="M680 506c0-3.3 2.7-6 6-6h188c3.3 0 6 2.7 6 6v88c0 3.3-2.7 6-6 6H686c-3.3 0-6-2.7-6-6z" stroke="#5e5e5e" stroke-width="4" fill="url(#i)"/><path d="M660 521c0-3.3 2.7-6 6-6h28c3.3 0 6 2.7 6 6v8c0 3.3-2.7 6-6 6h-28c-3.3 0-6-2.7-6-6z" stroke="#5e5e5e" stroke-width="4" fill="url(#j)"/><path d="M660 571c0-3.3 2.7-6 6-6h28c3.3 0 6 2.7 6 6v8c0 3.3-2.7 6-6 6h-28c-3.3 0-6-2.7-6-6z" stroke="#5e5e5e" stroke-width="4" fill="url(#k)"/><use xlink:href="#e" transform="matrix(1,0,0,1,704,510) translate(7.160493827160494 17.77777777777778)"/><use xlink:href="#l" transform="matrix(1,0,0,1,704,510) translate(38.672839506172835 44.44444444444444)"/><use xlink:href="#m" transform="matrix(1,0,0,1,704,510) translate(14.598765432098759 71.11111111111111)"/><path d="M1100 506c0-3.3 2.7-6 6-6h188c3.3 0 6 2.7 6 6v88c0 3.3-2.7 6-6 6h-188c-3.3 0-6-2.7-6-6z" stroke="#5e5e5e" stroke-width="4" fill="#e5e5e5"/><path d="M1080 521c0-3.3 2.7-6 6-6h28c3.3 0 6 2.7 6 6v8c0 3.3-2.7 6-6 6h-28c-3.3 0-6-2.7-6-6zM1080 571c0-3.3 2.7-6 6-6h28c3.3 0 6 2.7 6 6v8c0 3.3-2.7 6-6 6h-28c-3.3 0-6-2.7-6-6z" stroke="#5e5e5e" stroke-width="4" fill="#e5e5e5"/><use xlink:href="#n" transform="matrix(1,0,0,1,1124,510) translate(29.96913580246914 17.77777777777778)"/><use xlink:href="#o" transform="matrix(1,0,0,1,1124,510) translate(77.5 44.44444444444444)"/><use xlink:href="#p" transform="matrix(1,0,0,1,1124,510) translate(31.23456790123457 71.11111111111111)"/><path d="M680 706c0-3.3 2.7-6 6-6h188c3.3 0 6 2.7 6 6v88c0 3.3-2.7 6-6 6H686c-3.3 0-6-2.7-6-6z" stroke="#5e5e5e" stroke-width="4" fill="#fff"/><path d="M660 721c0-3.3 2.7-6 6-6h28c3.3 0 6 2.7 6 6v8c0 3.3-2.7 6-6 6h-28c-3.3 0-6-2.7-6-6zM660 771c0-3.3 2.7-6 6-6h28c3.3 0 6 2.7 6 6v8c0 3.3-2.7 6-6 6h-28c-3.3 0-6-2.7-6-6z" stroke="#5e5e5e" stroke-width="4" fill="#fff"/><use xlink:href="#e" transform="matrix(1,0,0,1,704,710) translate(7.160493827160494 17.77777777777778)"/><use xlink:href="#l" transform="matrix(1,0,0,1,704,710) translate(38.672839506172835 44.44444444444444)"/><use xlink:href="#m" transform="matrix(1,0,0,1,704,710) translate(14.598765432098759 71.11111111111111)"/><path d="M940 706c0-3.3 2.7-6 6-6h188c3.3 0 6 2.7 6 6v88c0 3.3-2.7 6-6 6H946c-3.3 0-6-2.7-6-6z" stroke="#5e5e5e" stroke-width="4" fill="url(#q)"/><path d="M920 721c0-3.3 2.7-6 6-6h28c3.3 0 6 2.7 6 6v8c0 3.3-2.7 6-6 6h-28c-3.3 0-6-2.7-6-6z" stroke="#5e5e5e" stroke-width="4" fill="url(#r)"/><path d="M920 771c0-3.3 2.7-6 6-6h28c3.3 0 6 2.7 6 6v8c0 3.3-2.7 6-6 6h-28c-3.3 0-6-2.7-6-6z" stroke="#5e5e5e" stroke-width="4" fill="url(#s)"/><use xlink:href="#t" transform="matrix(1,0,0,1,964,710) translate(14.567901234567898 17.77777777777778)"/><use xlink:href="#f" transform="matrix(1,0,0,1,964,710) translate(77.5 44.44444444444444)"/><use xlink:href="#u" transform="matrix(1,0,0,1,964,710) translate(13.981481481481481 71.11111111111111)"/><use xlink:href="#v" transform="matrix(1,0,0,1,964,710) translate(67.00617283950618 71.11111111111111)"/><path d="M1200 706c0-3.3 2.7-6 6-6h188c3.3 0 6 2.7 6 6v88c0 3.3-2.7 6-6 6h-188c-3.3 0-6-2.7-6-6z" stroke="#5e5e5e" stroke-width="4" fill="url(#w)"/><path d="M1180 721c0-3.3 2.7-6 6-6h28c3.3 0 6 2.7 6 6v8c0 3.3-2.7 6-6 6h-28c-3.3 0-6-2.7-6-6z" stroke="#5e5e5e" stroke-width="4" fill="url(#x)"/><path d="M1180 771c0-3.3 2.7-6 6-6h28c3.3 0 6 2.7 6 6v8c0 3.3-2.7 6-6 6h-28c-3.3 0-6-2.7-6-6z" stroke="#5e5e5e" stroke-width="4" fill="url(#y)"/><use xlink:href="#z" transform="matrix(1,0,0,1,1224,710) translate(19.537037037037045 17.77777777777778)"/><use xlink:href="#A" transform="matrix(1,0,0,1,1224,710) translate(15.895061728395063 44.44444444444444)"/><use xlink:href="#B" transform="matrix(1,0,0,1,1224,710) translate(108.30246913580247 44.44444444444444)"/><use xlink:href="#C" transform="matrix(1,0,0,1,1224,710) translate(33.73456790123456 71.11111111111111)"/><path d="M1460 706c0-3.3 2.7-6 6-6h188c3.3 0 6 2.7 6 6v88c0 3.3-2.7 6-6 6h-188c-3.3 0-6-2.7-6-6z" stroke="#5e5e5e" stroke-width="4" fill="url(#D)"/><path d="M1440 721c0-3.3 2.7-6 6-6h28c3.3 0 6 2.7 6 6v8c0 3.3-2.7 6-6 6h-28c-3.3 0-6-2.7-6-6z" stroke="#5e5e5e" stroke-width="4" fill="url(#E)"/><path d="M1440 771c0-3.3 2.7-6 6-6h28c3.3 0 6 2.7 6 6v8c0 3.3-2.7 6-6 6h-28c-3.3 0-6-2.7-6-6z" stroke="#5e5e5e" stroke-width="4" fill="url(#F)"/><use xlink:href="#n" transform="matrix(1,0,0,1,1484,710) translate(29.96913580246914 17.77777777777778)"/><use xlink:href="#f" transform="matrix(1,0,0,1,1484,710) translate(77.5 44.44444444444444)"/><use xlink:href="#A" transform="matrix(1,0,0,1,1484,710) translate(15.895061728395063 71.11111111111111)"/><use xlink:href="#G" transform="matrix(1,0,0,1,1484,710) translate(108.30246913580247 71.11111111111111)"/><path d="M680 906c0-3.3 2.7-6 6-6h188c3.3 0 6 2.7 6 6v88c0 3.3-2.7 6-6 6H686c-3.3 0-6-2.7-6-6z" stroke="#5e5e5e" stroke-width="4" fill="#fff"/><path d="M660 921c0-3.3 2.7-6 6-6h28c3.3 0 6 2.7 6 6v8c0 3.3-2.7 6-6 6h-28c-3.3 0-6-2.7-6-6zM660 971c0-3.3 2.7-6 6-6h28c3.3 0 6 2.7 6 6v8c0 3.3-2.7 6-6 6h-28c-3.3 0-6-2.7-6-6z" stroke="#5e5e5e" stroke-width="4" fill="#fff"/><use xlink:href="#n" transform="matrix(1,0,0,1,704,910) translate(29.96913580246914 17.77777777777778)"/><use xlink:href="#f" transform="matrix(1,0,0,1,704,910) translate(77.5 44.44444444444444)"/><use xlink:href="#H" transform="matrix(1,0,0,1,704,910) translate(23.20987654320988 71.11111111111111)"/><use xlink:href="#G" transform="matrix(1,0,0,1,704,910) translate(100.98765432098764 71.11111111111111)"/><path d="M940 906c0-3.3 2.7-6 6-6h188c3.3 0 6 2.7 6 6v88c0 3.3-2.7 6-6 6H946c-3.3 0-6-2.7-6-6z" stroke="#5e5e5e" stroke-width="4" fill="#fff"/><path d="M920 921c0-3.3 2.7-6 6-6h28c3.3 0 6 2.7 6 6v8c0 3.3-2.7 6-6 6h-28c-3.3 0-6-2.7-6-6zM920 971c0-3.3 2.7-6 6-6h28c3.3 0 6 2.7 6 6v8c0 3.3-2.7 6-6 6h-28c-3.3 0-6-2.7-6-6z" stroke="#5e5e5e" stroke-width="4" fill="#fff"/><use xlink:href="#z" transform="matrix(1,0,0,1,964,910) translate(19.537037037037045 17.77777777777778)"/><use xlink:href="#H" transform="matrix(1,0,0,1,964,910) translate(23.20987654320988 44.44444444444444)"/><use xlink:href="#B" transform="matrix(1,0,0,1,964,910) translate(100.98765432098764 44.44444444444444)"/><use xlink:href="#C" transform="matrix(1,0,0,1,964,910) translate(33.73456790123456 71.11111111111111)"/><path d="M680 306c0-3.3 2.7-6 6-6h188c3.3 0 6 2.7 6 6v88c0 3.3-2.7 6-6 6H686c-3.3 0-6-2.7-6-6z" stroke="#5e5e5e" stroke-width="4" fill="#e5e5e5"/><path d="M660 321c0-3.3 2.7-6 6-6h28c3.3 0 6 2.7 6 6v8c0 3.3-2.7 6-6 6h-28c-3.3 0-6-2.7-6-6zM660 371c0-3.3 2.7-6 6-6h28c3.3 0 6 2.7 6 6v8c0 3.3-2.7 6-6 6h-28c-3.3 0-6-2.7-6-6z" stroke="#5e5e5e" stroke-width="4" fill="#e5e5e5"/><use xlink:href="#e" transform="matrix(1,0,0,1,704,310) translate(7.160493827160494 17.77777777777778)"/><use xlink:href="#I" transform="matrix(1,0,0,1,704,310) translate(7.839506172839492 44.44444444444444)"/><use xlink:href="#m" transform="matrix(1,0,0,1,704,310) translate(14.598765432098759 71.11111111111111)"/><path d="M940 306c0-3.3 2.7-6 6-6h188c3.3 0 6 2.7 6 6v88c0 3.3-2.7 6-6 6H946c-3.3 0-6-2.7-6-6z" stroke="#5e5e5e" stroke-width="4" fill="#e5e5e5"/><path d="M920 321c0-3.3 2.7-6 6-6h28c3.3 0 6 2.7 6 6v8c0 3.3-2.7 6-6 6h-28c-3.3 0-6-2.7-6-6zM920 371c0-3.3 2.7-6 6-6h28c3.3 0 6 2.7 6 6v8c0 3.3-2.7 6-6 6h-28c-3.3 0-6-2.7-6-6z" stroke="#5e5e5e" stroke-width="4" fill="#e5e5e5"/><use xlink:href="#t" transform="matrix(1,0,0,1,964,310) translate(14.567901234567898 17.77777777777778)"/><use xlink:href="#f" transform="matrix(1,0,0,1,964,310) translate(77.5 44.44444444444444)"/><use xlink:href="#u" transform="matrix(1,0,0,1,964,310) translate(15.833333333333343 71.11111111111111)"/><use xlink:href="#J" transform="matrix(1,0,0,1,964,310) translate(68.85802469135803 71.11111111111111)"/><path d="M1200 306c0-3.3 2.7-6 6-6h188c3.3 0 6 2.7 6 6v88c0 3.3-2.7 6-6 6h-188c-3.3 0-6-2.7-6-6z" stroke="#5e5e5e" stroke-width="4" fill="#e5e5e5"/><path d="M1180 321c0-3.3 2.7-6 6-6h28c3.3 0 6 2.7 6 6v8c0 3.3-2.7 6-6 6h-28c-3.3 0-6-2.7-6-6zM1180 371c0-3.3 2.7-6 6-6h28c3.3 0 6 2.7 6 6v8c0 3.3-2.7 6-6 6h-28c-3.3 0-6-2.7-6-6z" stroke="#5e5e5e" stroke-width="4" fill="#e5e5e5"/><use xlink:href="#z" transform="matrix(1,0,0,1,1224,310) translate(19.537037037037045 17.77777777777778)"/><use xlink:href="#K" transform="matrix(1,0,0,1,1224,310) translate(36.85185185185185 44.44444444444444)"/><use xlink:href="#B" transform="matrix(1,0,0,1,1224,310) translate(87.34567901234567 44.44444444444444)"/><use xlink:href="#C" transform="matrix(1,0,0,1,1224,310) translate(33.73456790123456 71.11111111111111)"/><path d="M1460 306c0-3.3 2.7-6 6-6h188c3.3 0 6 2.7 6 6v88c0 3.3-2.7 6-6 6h-188c-3.3 0-6-2.7-6-6z" stroke="#5e5e5e" stroke-width="4" fill="#e5e5e5"/><path d="M1440 321c0-3.3 2.7-6 6-6h28c3.3 0 6 2.7 6 6v8c0 3.3-2.7 6-6 6h-28c-3.3 0-6-2.7-6-6zM1440 371c0-3.3 2.7-6 6-6h28c3.3 0 6 2.7 6 6v8c0 3.3-2.7 6-6 6h-28c-3.3 0-6-2.7-6-6z" stroke="#5e5e5e" stroke-width="4" fill="#e5e5e5"/><use xlink:href="#n" transform="matrix(1,0,0,1,1484,310) translate(29.96913580246914 17.77777777777778)"/><use xlink:href="#f" transform="matrix(1,0,0,1,1484,310) translate(77.5 44.44444444444444)"/><use xlink:href="#K" transform="matrix(1,0,0,1,1484,310) translate(36.85185185185185 71.11111111111111)"/><use xlink:href="#G" transform="matrix(1,0,0,1,1484,310) translate(87.34567901234567 71.11111111111111)"/><path d="M557.04 497.13l111.44-81.7" stroke="#5e5e5e" stroke-width="4" fill="none"/><path d="M558.26 498.7l-.36.28-3.63-.98h-1.8l3.43-2.5z" fill="#5e5e5e"/><path d="M681.6 405.83L672.83 418l-5.48-7.48z" stroke="#5e5e5e" stroke-width="4" fill="#5e5e5e"/><path d="M559.85 602l104.12 83.04" stroke="#5e5e5e" stroke-width="4" fill="none"/><path d="M561.14 600.47l-2.5 3.12-2.6-2.08 2.03-.55 1.64-1.64z" fill="#5e5e5e"/><path d="M676.7 695.18l-14.06-5.27 5.78-7.24z" stroke="#5e5e5e" stroke-width="4" fill="#5e5e5e"/><path d="M564 550h91.26" stroke="#5e5e5e" stroke-width="4" fill="none"/><path d="M564.05 552H562v-4h2.05z" fill="#5e5e5e"/><path d="M671.53 550l-14.27 4.64v-9.28z" stroke="#5e5e5e" stroke-width="4" fill="#5e5e5e"/><path d="M864.95 496.58l77.98-78.45" stroke="#5e5e5e" stroke-width="4" fill="none"/><path d="M866.4 497.96l-.04.04h-5.63l2.84-2.86z" fill="#5e5e5e"/><path d="M954.4 406.6l-6.77 13.38-6.57-6.54z" stroke="#5e5e5e" stroke-width="4" fill="#5e5e5e"/><path d="M884 350h31.26" stroke="#5e5e5e" stroke-width="4" fill="none"/><path d="M884.05 352H882v-4h2.05z" fill="#5e5e5e"/><path d="M931.53 350l-14.27 4.64v-9.28z" stroke="#5e5e5e" stroke-width="4" fill="#5e5e5e"/><path d="M1144 350h31.26" stroke="#5e5e5e" stroke-width="4" fill="none"/><path d="M1144.05 352H1142v-4h2.05z" fill="#5e5e5e"/><path d="M1191.53 350l-14.27 4.64v-9.28z" stroke="#5e5e5e" stroke-width="4" fill="#5e5e5e"/><path d="M1404 350h31.26" stroke="#5e5e5e" stroke-width="4" fill="none"/><path d="M1404.05 352H1402v-4h2.05z" fill="#5e5e5e"/><path d="M1451.53 350l-14.27 4.64v-9.28z" stroke="#5e5e5e" stroke-width="4" fill="#5e5e5e"/><path d="M1126.1 404v45.22c0 .43-.33.78-.76.78s-.78.35-.78.78v24.48" stroke="#5e5e5e" stroke-width="4" fill="none"/><path d="M1128.1 404.05h-4V402h4z" fill="#5e5e5e"/><path d="M1124.56 491.53l-4.63-14.27h9.27z" stroke="#5e5e5e" stroke-width="4" fill="#5e5e5e"/><path d="M996.72 404v271.26" stroke="#5e5e5e" stroke-width="4" fill="none"/><path d="M998.72 404.05h-4V402h4z" fill="#5e5e5e"/><path d="M996.72 691.53l-4.63-14.27h9.26z" stroke="#5e5e5e" stroke-width="4" fill="#5e5e5e"/><path d="M770 804v71.26" stroke="#5e5e5e" stroke-width="4" fill="none"/><path d="M772 804.05h-4V802h4z" fill="#5e5e5e"/><path d="M770 891.53l-4.64-14.27h9.28z" stroke="#5e5e5e" stroke-width="4" fill="#5e5e5e"/><path d="M877.5 803.1l51.6 77.2" stroke="#5e5e5e" stroke-width="4" fill="none"/><path d="M879.2 802.02l-3.33 2.22-1.52-2.26 3.72-1 .25-.26z" fill="#5e5e5e"/><path d="M938.15 893.84l-11.78-9.3 7.7-5.14z" stroke="#5e5e5e" stroke-width="4" fill="#5e5e5e"/><path d="M1030 804v71.26" stroke="#5e5e5e" stroke-width="4" fill="none"/><path d="M1032 804.05h-4V802h4z" fill="#5e5e5e"/><path d="M1030 891.53l-4.64-14.27h9.28z" stroke="#5e5e5e" stroke-width="4" fill="#5e5e5e"/><path d="M1144 750h31.26" stroke="#5e5e5e" stroke-width="4" fill="none"/><path d="M1144.05 752H1142v-4h2.05z" fill="#5e5e5e"/><path d="M1191.53 750l-14.27 4.64v-9.28z" stroke="#5e5e5e" stroke-width="4" fill="#5e5e5e"/><path d="M1404 750h31.26" stroke="#5e5e5e" stroke-width="4" fill="none"/><path d="M1404.05 752H1402v-4h2.05z" fill="#5e5e5e"/><path d="M1451.53 750l-14.27 4.64v-9.28z" stroke="#5e5e5e" stroke-width="4" fill="#5e5e5e"/><path d="M936 950h-31.26" stroke="#5e5e5e" stroke-width="4" fill="none"/><path d="M938 952h-2.05v-4H938z" fill="#5e5e5e"/><path d="M888.47 950l14.27-4.64v9.28z" stroke="#5e5e5e" stroke-width="4" fill="#5e5e5e"/><path d="M1260 869.53c0-3.3 2.7-6 6-6h68c3.3 0 6 2.7 6 6v40.94c0 3.3-2.7 6-6 6h-68c-3.3 0-6-2.7-6-6z" stroke="#5e5e5e" stroke-width="2" fill="#e5e5e5"/><path d="M1240 872.76c0-3.3 2.7-6 6-6h28c3.3 0 6 2.7 6 6v8c0 3.32-2.7 6-6 6h-28c-3.3 0-6-2.68-6-6zM1240 899.24c0-3.32 2.7-6 6-6h28c3.3 0 6 2.68 6 6v8c0 3.3-2.7 6-6 6h-28c-3.3 0-6-2.7-6-6z" stroke="#5e5e5e" stroke-width="2" fill="#e5e5e5"/><path d="M1260 933.06c0-3.3 2.7-6 6-6h68c3.3 0 6 2.7 6 6V974c0 3.3-2.7 6-6 6h-68c-3.3 0-6-2.7-6-6z" stroke="#5e5e5e" stroke-width="2" fill="url(#L)"/><path d="M1240 936.3c0-3.32 2.7-6 6-6h28c3.3 0 6 2.68 6 6v8c0 3.3-2.7 6-6 6h-28c-3.3 0-6-2.7-6-6z" stroke="#5e5e5e" stroke-width="2" fill="url(#M)"/><path d="M1240 962.76c0-3.3 2.7-6 6-6h28c3.3 0 6 2.7 6 6v8c0 3.32-2.7 6-6 6h-28c-3.3 0-6-2.68-6-6z" stroke="#5e5e5e" stroke-width="2" fill="url(#N)"/><path d="M1260 996.6c0-3.33 2.7-6 6-6h68c3.3 0 6 2.67 6 6v40.93c0 3.3-2.7 6-6 6h-68c-3.3 0-6-2.7-6-6z" stroke="#5e5e5e" stroke-width="2" fill="#fff"/><path d="M1240 999.82c0-3.3 2.7-6 6-6h28c3.3 0 6 2.7 6 6v8c0 3.32-2.7 6-6 6h-28c-3.3 0-6-2.68-6-6zM1240 1026.3c0-3.32 2.7-6 6-6h28c3.3 0 6 2.68 6 6v8c0 3.3-2.7 6-6 6h-28c-3.3 0-6-2.7-6-6z" stroke="#5e5e5e" stroke-width="2" fill="#fff"/><path d="M1360 993.06c0-3.3 2.7-6 6-6h239.3c3.32 0 6 2.7 6 6v48c0 3.3-2.68 6-6 6H1366c-3.3 0-6-2.7-6-6z" fill="none"/><g><use xlink:href="#O" transform="matrix(1,0,0,1,1360.0000000000007,987.0588235294117) translate(0 34.44444444444444)"/><use xlink:href="#d" transform="matrix(1,0,0,1,1360.0000000000007,987.0588235294117) translate(77.77777777777777 34.44444444444444)"/></g><path d="M1360 866c0-3.3 2.7-6 6-6h239.3c3.32 0 6 2.7 6 6v48c0 3.3-2.68 6-6 6H1366c-3.3 0-6-2.7-6-6z" fill="none"/><g><use xlink:href="#P" transform="matrix(1,0,0,1,1360.0000000000007,860) translate(0 21.111111111111114)"/><use xlink:href="#b" transform="matrix(1,0,0,1,1360.0000000000007,860) translate(50.49382716049383 21.111111111111114)"/><use xlink:href="#Q" transform="matrix(1,0,0,1,1360.0000000000007,860) translate(83.70370370370371 21.111111111111114)"/><use xlink:href="#d" transform="matrix(1,0,0,1,1360.0000000000007,860) translate(0 47.777777777777786)"/></g><defs><path fill="#333" d="M127-220V0H93v-220H8v-28h204v28h-85" id="R"/><path fill="#333" d="M100-194c63 0 86 42 84 106H49c0 40 14 67 53 68 26 1 43-12 49-29l28 8c-11 28-37 45-77 45C44 4 14-33 15-96c1-61 26-98 85-98zm52 81c6-60-76-77-97-28-3 7-6 17-6 28h103" id="S"/><path fill="#333" d="M210-169c-67 3-38 105-44 169h-31v-121c0-29-5-50-35-48C34-165 62-65 56 0H25l-1-190h30c1 10-1 24 2 32 10-44 99-50 107 0 11-21 27-35 58-36 85-2 47 119 55 194h-31v-121c0-29-5-49-35-48" id="T"/><path fill="#333" d="M115-194c55 1 70 41 70 98S169 2 115 4C84 4 66-9 55-30l1 105H24l-1-265h31l2 30c10-21 28-34 59-34zm-8 174c40 0 45-34 45-75s-6-73-45-74c-42 0-51 32-51 76 0 43 10 73 51 73" id="U"/><path fill="#333" d="M100-194c62-1 85 37 85 99 1 63-27 99-86 99S16-35 15-95c0-66 28-99 85-99zM99-20c44 1 53-31 53-75 0-43-8-75-51-75s-53 32-53 75 10 74 51 75" id="V"/><path fill="#333" d="M114-163C36-179 61-72 57 0H25l-1-190h30c1 12-1 29 2 39 6-27 23-49 58-41v29" id="W"/><path fill="#333" d="M141-36C126-15 110 5 73 4 37 3 15-17 15-53c-1-64 63-63 125-63 3-35-9-54-41-54-24 1-41 7-42 31l-33-3c5-37 33-52 76-52 45 0 72 20 72 64v82c-1 20 7 32 28 27v20c-31 9-61-2-59-35zM48-53c0 20 12 33 32 33 41-3 63-29 60-74-43 2-92-5-92 41" id="X"/><path fill="#333" d="M179-190L93 31C79 59 56 82 12 73V49c39 6 53-20 64-50L1-190h34L92-34l54-156h33" id="Y"/><g id="a"><use transform="matrix(0.06172839506172839,0,0,0.06172839506172839,0,0)" xlink:href="#R"/><use transform="matrix(0.06172839506172839,0,0,0.06172839506172839,11.049382716049381,0)" xlink:href="#S"/><use transform="matrix(0.06172839506172839,0,0,0.06172839506172839,23.39506172839506,0)" xlink:href="#T"/><use transform="matrix(0.06172839506172839,0,0,0.06172839506172839,41.85185185185185,0)" xlink:href="#U"/><use transform="matrix(0.06172839506172839,0,0,0.06172839506172839,54.197530864197525,0)" xlink:href="#V"/><use transform="matrix(0.06172839506172839,0,0,0.06172839506172839,66.5432098765432,0)" xlink:href="#W"/><use transform="matrix(0.06172839506172839,0,0,0.06172839506172839,73.88888888888889,0)" xlink:href="#X"/><use transform="matrix(0.06172839506172839,0,0,0.06172839506172839,86.23456790123457,0)" xlink:href="#W"/><use transform="matrix(0.06172839506172839,0,0,0.06172839506172839,93.58024691358025,0)" xlink:href="#Y"/></g><path fill="#333" d="M87 75C49 33 22-17 22-94c0-76 28-126 65-167h31c-38 41-64 92-64 168S80 34 118 75H87" id="Z"/><g id="b"><use transform="matrix(0.06172839506172839,0,0,0.06172839506172839,0,0)" xlink:href="#Z"/><use transform="matrix(0.06172839506172839,0,0,0.06172839506172839,7.345679012345679,0)" xlink:href="#V"/><use transform="matrix(0.06172839506172839,0,0,0.06172839506172839,19.691358024691358,0)" xlink:href="#W"/></g><path fill="#333" d="M135-143c-3-34-86-38-87 0 15 53 115 12 119 90S17 21 10-45l28-5c4 36 97 45 98 0-10-56-113-15-118-90-4-57 82-63 122-42 12 7 21 19 24 35" id="aa"/><path fill="#333" d="M59-47c-2 24 18 29 38 22v24C64 9 27 4 27-40v-127H5v-23h24l9-43h21v43h35v23H59v120" id="ab"/><path fill="#333" d="M85-194c31 0 48 13 60 33l-1-100h32l1 261h-30c-2-10 0-23-3-31C134-8 116 4 85 4 32 4 16-35 15-94c0-66 23-100 70-100zm9 24c-40 0-46 34-46 75 0 40 6 74 45 74 42 0 51-32 51-76 0-42-9-74-50-73" id="ac"/><path fill="#333" d="M33-261c38 41 65 92 65 168S71 34 33 75H2C39 34 66-17 66-93S39-220 2-261h31" id="ad"/><g id="c"><use transform="matrix(0.06172839506172839,0,0,0.06172839506172839,0,0)" xlink:href="#W"/><use transform="matrix(0.06172839506172839,0,0,0.06172839506172839,7.345679012345679,0)" xlink:href="#S"/><use transform="matrix(0.06172839506172839,0,0,0.06172839506172839,19.691358024691358,0)" xlink:href="#aa"/><use transform="matrix(0.06172839506172839,0,0,0.06172839506172839,30.80246913580247,0)" xlink:href="#ab"/><use transform="matrix(0.06172839506172839,0,0,0.06172839506172839,36.97530864197531,0)" xlink:href="#V"/><use transform="matrix(0.06172839506172839,0,0,0.06172839506172839,49.32098765432099,0)" xlink:href="#W"/><use transform="matrix(0.06172839506172839,0,0,0.06172839506172839,56.666666666666664,0)" xlink:href="#S"/><use transform="matrix(0.06172839506172839,0,0,0.06172839506172839,69.01234567901234,0)" xlink:href="#ac"/><use transform="matrix(0.06172839506172839,0,0,0.06172839506172839,81.35802469135803,0)" xlink:href="#ad"/></g><path fill="#333" d="M212-179c-10-28-35-45-73-45-59 0-87 40-87 99 0 60 29 101 89 101 43 0 62-24 78-52l27 14C228-24 195 4 139 4 59 4 22-46 18-125c-6-104 99-153 187-111 19 9 31 26 39 46" id="ae"/><path fill="#333" d="M117-194c89-4 53 116 60 194h-32v-121c0-31-8-49-39-48C34-167 62-67 57 0H25l-1-190h30c1 10-1 24 2 32 11-22 29-35 61-36" id="af"/><g id="d"><use transform="matrix(0.06172839506172839,0,0,0.06172839506172839,0,0)" xlink:href="#ae"/><use transform="matrix(0.06172839506172839,0,0,0.06172839506172839,15.987654320987653,0)" xlink:href="#V"/><use transform="matrix(0.06172839506172839,0,0,0.06172839506172839,28.333333333333332,0)" xlink:href="#T"/><use transform="matrix(0.06172839506172839,0,0,0.06172839506172839,46.79012345679012,0)" xlink:href="#U"/><use transform="matrix(0.06172839506172839,0,0,0.06172839506172839,59.1358024691358,0)" xlink:href="#V"/><use transform="matrix(0.06172839506172839,0,0,0.06172839506172839,71.48148148148148,0)" xlink:href="#af"/><use transform="matrix(0.06172839506172839,0,0,0.06172839506172839,83.82716049382717,0)" xlink:href="#S"/><use transform="matrix(0.06172839506172839,0,0,0.06172839506172839,96.17283950617285,0)" xlink:href="#af"/><use transform="matrix(0.06172839506172839,0,0,0.06172839506172839,108.51851851851853,0)" xlink:href="#ab"/></g><path fill="#333" d="M18-100v-36l175-74v27L42-118l151 64v27" id="ag"/><path fill="#333" d="M101-234c-31-9-42 10-38 44h38v23H63V0H32v-167H5v-23h27c-7-52 17-82 69-68v24" id="ah"/><path fill="#333" d="M84 4C-5 8 30-112 23-190h32v120c0 31 7 50 39 49 72-2 45-101 50-169h31l1 190h-30c-1-10 1-25-2-33-11 22-28 36-60 37" id="ai"/><path fill="#333" d="M96-169c-40 0-48 33-48 73s9 75 48 75c24 0 41-14 43-38l32 2c-6 37-31 61-74 61-59 0-76-41-82-99-10-93 101-131 147-64 4 7 5 14 7 22l-32 3c-4-21-16-35-41-35" id="aj"/><path fill="#333" d="M24-231v-30h32v30H24zM24 0v-190h32V0H24" id="ak"/><path fill="#333" d="M18-27v-27l151-64-151-65v-27l175 74v36" id="al"/><g id="e"><use transform="matrix(0.06172839506172839,0,0,0.06172839506172839,0,0)" xlink:href="#ag"/><use transform="matrix(0.06172839506172839,0,0,0.06172839506172839,12.962962962962962,0)" xlink:href="#ag"/><use transform="matrix(0.06172839506172839,0,0,0.06172839506172839,25.925925925925924,0)" xlink:href="#ah"/><use transform="matrix(0.06172839506172839,0,0,0.06172839506172839,32.098765432098766,0)" xlink:href="#ai"/><use transform="matrix(0.06172839506172839,0,0,0.06172839506172839,44.44444444444444,0)" xlink:href="#af"/><use transform="matrix(0.06172839506172839,0,0,0.06172839506172839,56.79012345679012,0)" xlink:href="#aj"/><use transform="matrix(0.06172839506172839,0,0,0.06172839506172839,67.90123456790123,0)" xlink:href="#ab"/><use transform="matrix(0.06172839506172839,0,0,0.06172839506172839,74.07407407407406,0)" xlink:href="#ak"/><use transform="matrix(0.06172839506172839,0,0,0.06172839506172839,78.9506172839506,0)" xlink:href="#V"/><use transform="matrix(0.06172839506172839,0,0,0.06172839506172839,91.29629629629629,0)" xlink:href="#af"/><use transform="matrix(0.06172839506172839,0,0,0.06172839506172839,103.64197530864197,0)" xlink:href="#aa"/><use transform="matrix(0.06172839506172839,0,0,0.06172839506172839,114.75308641975309,0)" xlink:href="#al"/><use transform="matrix(0.06172839506172839,0,0,0.06172839506172839,127.71604938271604,0)" xlink:href="#al"/></g><path fill="#333" d="M232-93c-1 65-40 97-104 97C67 4 28-28 28-90v-158h33c8 89-33 224 67 224 102 0 64-133 71-224h33v155" id="am"/><g id="g"><use transform="matrix(0.06172839506172839,0,0,0.06172839506172839,0,0)" xlink:href="#am"/><use transform="matrix(0.06172839506172839,0,0,0.06172839506172839,15.987654320987653,0)" xlink:href="#aa"/><use transform="matrix(0.06172839506172839,0,0,0.06172839506172839,27.098765432098766,0)" xlink:href="#S"/><use transform="matrix(0.06172839506172839,0,0,0.06172839506172839,39.44444444444444,0)" xlink:href="#W"/></g><path fill="#333" d="M33 0v-248h34V0H33" id="an"/><g id="h"><use transform="matrix(0.06172839506172839,0,0,0.06172839506172839,0,0)" xlink:href="#an"/><use transform="matrix(0.06172839506172839,0,0,0.06172839506172839,6.172839506172839,0)" xlink:href="#af"/><use transform="matrix(0.06172839506172839,0,0,0.06172839506172839,18.51851851851852,0)" xlink:href="#ab"/><use transform="matrix(0.06172839506172839,0,0,0.06172839506172839,24.691358024691358,0)" xlink:href="#S"/><use transform="matrix(0.06172839506172839,0,0,0.06172839506172839,37.03703703703704,0)" xlink:href="#W"/><use transform="matrix(0.06172839506172839,0,0,0.06172839506172839,44.382716049382715,0)" xlink:href="#ah"/><use transform="matrix(0.06172839506172839,0,0,0.06172839506172839,50.55555555555556,0)" xlink:href="#X"/><use transform="matrix(0.06172839506172839,0,0,0.06172839506172839,62.901234567901234,0)" xlink:href="#aj"/><use transform="matrix(0.06172839506172839,0,0,0.06172839506172839,74.01234567901234,0)" xlink:href="#S"/></g><linearGradient gradientUnits="userSpaceOnUse" id="i" x1="660" y1="500" x2="660" y2="600"><stop offset="0%" stop-color="#fff"/><stop offset="20%" stop-color="#fff"/><stop offset="100%" stop-color="#dbdbdb"/></linearGradient><linearGradient gradientUnits="userSpaceOnUse" id="j" x1="660" y1="500" x2="660" y2="600"><stop offset="0%" stop-color="#fff"/><stop offset="20%" stop-color="#fff"/><stop offset="100%" stop-color="#dbdbdb"/></linearGradient><linearGradient gradientUnits="userSpaceOnUse" id="k" x1="660" y1="500" x2="660" y2="600"><stop offset="0%" stop-color="#fff"/><stop offset="20%" stop-color="#fff"/><stop offset="100%" stop-color="#dbdbdb"/></linearGradient><path fill="#333" d="M233-177c-1 41-23 64-60 70L243 0h-38l-65-103H63V0H30v-248c88 3 205-21 203 71zM63-129c60-2 137 13 137-47 0-61-80-42-137-45v92" id="ao"/><g id="l"><use transform="matrix(0.06172839506172839,0,0,0.06172839506172839,0,0)" xlink:href="#ao"/><use transform="matrix(0.06172839506172839,0,0,0.06172839506172839,15.987654320987653,0)" xlink:href="#S"/><use transform="matrix(0.06172839506172839,0,0,0.06172839506172839,28.333333333333332,0)" xlink:href="#aa"/><use transform="matrix(0.06172839506172839,0,0,0.06172839506172839,39.44444444444444,0)" xlink:href="#ab"/><use transform="matrix(0.06172839506172839,0,0,0.06172839506172839,45.617283950617285,0)" xlink:href="#V"/><use transform="matrix(0.06172839506172839,0,0,0.06172839506172839,57.96296296296296,0)" xlink:href="#W"/><use transform="matrix(0.06172839506172839,0,0,0.06172839506172839,65.30864197530865,0)" xlink:href="#S"/></g><g id="m"><use transform="matrix(0.06172839506172839,0,0,0.06172839506172839,0,0)" xlink:href="#ae"/><use transform="matrix(0.06172839506172839,0,0,0.06172839506172839,15.987654320987653,0)" xlink:href="#V"/><use transform="matrix(0.06172839506172839,0,0,0.06172839506172839,28.333333333333332,0)" xlink:href="#T"/><use transform="matrix(0.06172839506172839,0,0,0.06172839506172839,46.79012345679012,0)" xlink:href="#U"/><use transform="matrix(0.06172839506172839,0,0,0.06172839506172839,59.1358024691358,0)" xlink:href="#V"/><use transform="matrix(0.06172839506172839,0,0,0.06172839506172839,71.48148148148148,0)" xlink:href="#af"/><use transform="matrix(0.06172839506172839,0,0,0.06172839506172839,83.82716049382717,0)" xlink:href="#S"/><use transform="matrix(0.06172839506172839,0,0,0.06172839506172839,96.17283950617285,0)" xlink:href="#af"/><use transform="matrix(0.06172839506172839,0,0,0.06172839506172839,108.51851851851853,0)" xlink:href="#ab"/><use transform="matrix(0.06172839506172839,0,0,0.06172839506172839,114.69135802469137,0)" xlink:href="#aa"/></g><g id="n"><use transform="matrix(0.06172839506172839,0,0,0.06172839506172839,0,0)" xlink:href="#ag"/><use transform="matrix(0.06172839506172839,0,0,0.06172839506172839,12.962962962962962,0)" xlink:href="#ag"/><use transform="matrix(0.06172839506172839,0,0,0.06172839506172839,25.925925925925924,0)" xlink:href="#ac"/><use transform="matrix(0.06172839506172839,0,0,0.06172839506172839,38.2716049382716,0)" xlink:href="#X"/><use transform="matrix(0.06172839506172839,0,0,0.06172839506172839,50.61728395061728,0)" xlink:href="#ab"/><use transform="matrix(0.06172839506172839,0,0,0.06172839506172839,56.79012345679012,0)" xlink:href="#X"/><use transform="matrix(0.06172839506172839,0,0,0.06172839506172839,69.1358024691358,0)" xlink:href="#al"/><use transform="matrix(0.06172839506172839,0,0,0.06172839506172839,82.09876543209876,0)" xlink:href="#al"/></g><path fill="#333" d="M240 0l2-218c-23 76-54 145-80 218h-23L58-218 59 0H30v-248h44l77 211c21-75 51-140 76-211h43V0h-30" id="ap"/><g id="p"><use transform="matrix(0.06172839506172839,0,0,0.06172839506172839,0,0)" xlink:href="#ap"/><use transform="matrix(0.06172839506172839,0,0,0.06172839506172839,18.456790123456788,0)" xlink:href="#S"/><use transform="matrix(0.06172839506172839,0,0,0.06172839506172839,30.80246913580247,0)" xlink:href="#ab"/><use transform="matrix(0.06172839506172839,0,0,0.06172839506172839,36.97530864197531,0)" xlink:href="#X"/><use transform="matrix(0.06172839506172839,0,0,0.06172839506172839,49.32098765432099,0)" xlink:href="#ac"/><use transform="matrix(0.06172839506172839,0,0,0.06172839506172839,61.666666666666664,0)" xlink:href="#X"/><use transform="matrix(0.06172839506172839,0,0,0.06172839506172839,74.01234567901234,0)" xlink:href="#ab"/><use transform="matrix(0.06172839506172839,0,0,0.06172839506172839,80.18518518518518,0)" xlink:href="#X"/></g><linearGradient gradientUnits="userSpaceOnUse" id="q" x1="920" y1="700" x2="920" y2="800"><stop offset="0%" stop-color="#fff"/><stop offset="20%" stop-color="#fff"/><stop offset="100%" stop-color="#dbdbdb"/></linearGradient><linearGradient gradientUnits="userSpaceOnUse" id="r" x1="920" y1="700" x2="920" y2="800"><stop offset="0%" stop-color="#fff"/><stop offset="20%" stop-color="#fff"/><stop offset="100%" stop-color="#dbdbdb"/></linearGradient><linearGradient gradientUnits="userSpaceOnUse" id="s" x1="920" y1="700" x2="920" y2="800"><stop offset="0%" stop-color="#fff"/><stop offset="20%" stop-color="#fff"/><stop offset="100%" stop-color="#dbdbdb"/></linearGradient><g id="t"><use transform="matrix(0.06172839506172839,0,0,0.06172839506172839,0,0)" xlink:href="#ag"/><use transform="matrix(0.06172839506172839,0,0,0.06172839506172839,12.962962962962962,0)" xlink:href="#ag"/><use transform="matrix(0.06172839506172839,0,0,0.06172839506172839,25.925925925925924,0)" xlink:href="#aa"/><use transform="matrix(0.06172839506172839,0,0,0.06172839506172839,37.03703703703704,0)" xlink:href="#ai"/><use transform="matrix(0.06172839506172839,0,0,0.06172839506172839,49.382716049382715,0)" xlink:href="#U"/><use transform="matrix(0.06172839506172839,0,0,0.06172839506172839,61.72839506172839,0)" xlink:href="#U"/><use transform="matrix(0.06172839506172839,0,0,0.06172839506172839,74.07407407407408,0)" xlink:href="#V"/><use transform="matrix(0.06172839506172839,0,0,0.06172839506172839,86.41975308641976,0)" xlink:href="#W"/><use transform="matrix(0.06172839506172839,0,0,0.06172839506172839,93.76543209876544,0)" xlink:href="#ab"/><use transform="matrix(0.06172839506172839,0,0,0.06172839506172839,99.93827160493828,0)" xlink:href="#al"/><use transform="matrix(0.06172839506172839,0,0,0.06172839506172839,112.90123456790124,0)" xlink:href="#al"/></g><path fill="#333" d="M30-248c118-7 216 8 213 122C240-48 200 0 122 0H30v-248zM63-27c89 8 146-16 146-99s-60-101-146-95v194" id="aq"/><g id="u"><use transform="matrix(0.06172839506172839,0,0,0.06172839506172839,0,0)" xlink:href="#aq"/><use transform="matrix(0.06172839506172839,0,0,0.06172839506172839,15.987654320987653,0)" xlink:href="#X"/><use transform="matrix(0.06172839506172839,0,0,0.06172839506172839,28.333333333333332,0)" xlink:href="#ab"/><use transform="matrix(0.06172839506172839,0,0,0.06172839506172839,34.50617283950617,0)" xlink:href="#X"/></g><path fill="#333" d="M30 0v-248h33v221h125V0H30" id="ar"/><g id="v"><use transform="matrix(0.06172839506172839,0,0,0.06172839506172839,0,0)" xlink:href="#ar"/><use transform="matrix(0.06172839506172839,0,0,0.06172839506172839,12.345679012345679,0)" xlink:href="#V"/><use transform="matrix(0.06172839506172839,0,0,0.06172839506172839,24.691358024691358,0)" xlink:href="#aj"/><use transform="matrix(0.06172839506172839,0,0,0.06172839506172839,35.80246913580247,0)" xlink:href="#X"/><use transform="matrix(0.06172839506172839,0,0,0.06172839506172839,48.148148148148145,0)" xlink:href="#ab"/><use transform="matrix(0.06172839506172839,0,0,0.06172839506172839,54.32098765432099,0)" xlink:href="#V"/><use transform="matrix(0.06172839506172839,0,0,0.06172839506172839,66.66666666666667,0)" xlink:href="#W"/></g><linearGradient gradientUnits="userSpaceOnUse" id="w" x1="1180" y1="700" x2="1180" y2="800"><stop offset="0%" stop-color="#fff"/><stop offset="20%" stop-color="#fff"/><stop offset="100%" stop-color="#dbdbdb"/></linearGradient><linearGradient gradientUnits="userSpaceOnUse" id="x" x1="1180" y1="700" x2="1180" y2="800"><stop offset="0%" stop-color="#fff"/><stop offset="20%" stop-color="#fff"/><stop offset="100%" stop-color="#dbdbdb"/></linearGradient><linearGradient gradientUnits="userSpaceOnUse" id="y" x1="1180" y1="700" x2="1180" y2="800"><stop offset="0%" stop-color="#fff"/><stop offset="20%" stop-color="#fff"/><stop offset="100%" stop-color="#dbdbdb"/></linearGradient><path fill="#333" d="M160-131c35 5 61 23 61 61C221 17 115-2 30 0v-248c76 3 177-17 177 60 0 33-19 50-47 57zm-97-11c50-1 110 9 110-42 0-47-63-36-110-37v79zm0 115c55-2 124 14 124-45 0-56-70-42-124-44v89" id="as"/><path fill="#333" d="M185-189c-5-48-123-54-124 2 14 75 158 14 163 119 3 78-121 87-175 55-17-10-28-26-33-46l33-7c5 56 141 63 141-1 0-78-155-14-162-118-5-82 145-84 179-34 5 7 8 16 11 25" id="at"/><g id="z"><use transform="matrix(0.06172839506172839,0,0,0.06172839506172839,0,0)" xlink:href="#ag"/><use transform="matrix(0.06172839506172839,0,0,0.06172839506172839,12.962962962962962,0)" xlink:href="#ag"/><use transform="matrix(0.06172839506172839,0,0,0.06172839506172839,25.925925925925924,0)" xlink:href="#aq"/><use transform="matrix(0.06172839506172839,0,0,0.06172839506172839,41.913580246913575,0)" xlink:href="#as"/><use transform="matrix(0.06172839506172839,0,0,0.06172839506172839,56.72839506172839,0)" xlink:href="#ap"/><use transform="matrix(0.06172839506172839,0,0,0.06172839506172839,75.18518518518518,0)" xlink:href="#at"/><use transform="matrix(0.06172839506172839,0,0,0.06172839506172839,89.99999999999999,0)" xlink:href="#al"/><use transform="matrix(0.06172839506172839,0,0,0.06172839506172839,102.96296296296295,0)" xlink:href="#al"/></g><path fill="#333" d="M24 0v-261h32V0H24" id="au"/><g id="A"><use transform="matrix(0.06172839506172839,0,0,0.06172839506172839,0,0)" xlink:href="#ao"/><use transform="matrix(0.06172839506172839,0,0,0.06172839506172839,15.987654320987653,0)" xlink:href="#S"/><use transform="matrix(0.06172839506172839,0,0,0.06172839506172839,28.333333333333332,0)" xlink:href="#aa"/><use transform="matrix(0.06172839506172839,0,0,0.06172839506172839,39.44444444444444,0)" xlink:href="#ak"/><use transform="matrix(0.06172839506172839,0,0,0.06172839506172839,44.32098765432099,0)" xlink:href="#ac"/><use transform="matrix(0.06172839506172839,0,0,0.06172839506172839,56.666666666666664,0)" xlink:href="#ai"/><use transform="matrix(0.06172839506172839,0,0,0.06172839506172839,69.01234567901234,0)" xlink:href="#X"/><use transform="matrix(0.06172839506172839,0,0,0.06172839506172839,81.35802469135803,0)" xlink:href="#au"/></g><g id="B"><use transform="matrix(0.06172839506172839,0,0,0.06172839506172839,0,0)" xlink:href="#aq"/><use transform="matrix(0.06172839506172839,0,0,0.06172839506172839,15.987654320987653,0)" xlink:href="#as"/></g><path fill="#333" d="M177-190C167-65 218 103 67 71c-23-6-38-20-44-43l32-5c15 47 100 32 89-28v-30C133-14 115 1 83 1 29 1 15-40 15-95c0-56 16-97 71-98 29-1 48 16 59 35 1-10 0-23 2-32h30zM94-22c36 0 50-32 50-73 0-42-14-75-50-75-39 0-46 34-46 75s6 73 46 73" id="av"/><g id="C"><use transform="matrix(0.06172839506172839,0,0,0.06172839506172839,0,0)" xlink:href="#ap"/><use transform="matrix(0.06172839506172839,0,0,0.06172839506172839,18.456790123456788,0)" xlink:href="#X"/><use transform="matrix(0.06172839506172839,0,0,0.06172839506172839,30.80246913580247,0)" xlink:href="#af"/><use transform="matrix(0.06172839506172839,0,0,0.06172839506172839,43.148148148148145,0)" xlink:href="#X"/><use transform="matrix(0.06172839506172839,0,0,0.06172839506172839,55.49382716049382,0)" xlink:href="#av"/><use transform="matrix(0.06172839506172839,0,0,0.06172839506172839,67.8395061728395,0)" xlink:href="#S"/><use transform="matrix(0.06172839506172839,0,0,0.06172839506172839,80.18518518518519,0)" xlink:href="#W"/></g><linearGradient gradientUnits="userSpaceOnUse" id="D" x1="1440" y1="700" x2="1440" y2="800"><stop offset="0%" stop-color="#fff"/><stop offset="20%" stop-color="#fff"/><stop offset="100%" stop-color="#dbdbdb"/></linearGradient><linearGradient gradientUnits="userSpaceOnUse" id="E" x1="1440" y1="700" x2="1440" y2="800"><stop offset="0%" stop-color="#fff"/><stop offset="20%" stop-color="#fff"/><stop offset="100%" stop-color="#dbdbdb"/></linearGradient><linearGradient gradientUnits="userSpaceOnUse" id="F" x1="1440" y1="700" x2="1440" y2="800"><stop offset="0%" stop-color="#fff"/><stop offset="20%" stop-color="#fff"/><stop offset="100%" stop-color="#dbdbdb"/></linearGradient><g id="G"><use transform="matrix(0.06172839506172839,0,0,0.06172839506172839,0,0)" xlink:href="#aq"/><use transform="matrix(0.06172839506172839,0,0,0.06172839506172839,15.987654320987653,0)" xlink:href="#as"/></g><g id="H"><use transform="matrix(0.06172839506172839,0,0,0.06172839506172839,0,0)" xlink:href="#ar"/><use transform="matrix(0.06172839506172839,0,0,0.06172839506172839,12.345679012345679,0)" xlink:href="#S"/><use transform="matrix(0.06172839506172839,0,0,0.06172839506172839,24.691358024691358,0)" xlink:href="#av"/><use transform="matrix(0.06172839506172839,0,0,0.06172839506172839,37.03703703703704,0)" xlink:href="#X"/><use transform="matrix(0.06172839506172839,0,0,0.06172839506172839,49.382716049382715,0)" xlink:href="#aj"/><use transform="matrix(0.06172839506172839,0,0,0.06172839506172839,60.49382716049382,0)" xlink:href="#Y"/></g><g id="I"><use transform="matrix(0.06172839506172839,0,0,0.06172839506172839,0,0)" xlink:href="#ao"/><use transform="matrix(0.06172839506172839,0,0,0.06172839506172839,15.987654320987653,0)" xlink:href="#S"/><use transform="matrix(0.06172839506172839,0,0,0.06172839506172839,28.333333333333332,0)" xlink:href="#S"/><use transform="matrix(0.06172839506172839,0,0,0.06172839506172839,40.67901234567901,0)" xlink:href="#af"/><use transform="matrix(0.06172839506172839,0,0,0.06172839506172839,53.02469135802469,0)" xlink:href="#av"/><use transform="matrix(0.06172839506172839,0,0,0.06172839506172839,65.37037037037037,0)" xlink:href="#ak"/><use transform="matrix(0.06172839506172839,0,0,0.06172839506172839,70.24691358024691,0)" xlink:href="#af"/><use transform="matrix(0.06172839506172839,0,0,0.06172839506172839,82.5925925925926,0)" xlink:href="#S"/><use transform="matrix(0.06172839506172839,0,0,0.06172839506172839,94.93827160493828,0)" xlink:href="#S"/><use transform="matrix(0.06172839506172839,0,0,0.06172839506172839,107.28395061728396,0)" xlink:href="#W"/><use transform="matrix(0.06172839506172839,0,0,0.06172839506172839,114.62962962962965,0)" xlink:href="#S"/><use transform="matrix(0.06172839506172839,0,0,0.06172839506172839,126.97530864197533,0)" xlink:href="#ac"/></g><path fill="#333" d="M143 0L79-87 56-68V0H24v-261h32v163l83-92h37l-77 82L181 0h-38" id="aw"/><g id="J"><use transform="matrix(0.06172839506172839,0,0,0.06172839506172839,0,0)" xlink:href="#as"/><use transform="matrix(0.06172839506172839,0,0,0.06172839506172839,14.814814814814813,0)" xlink:href="#X"/><use transform="matrix(0.06172839506172839,0,0,0.06172839506172839,27.160493827160494,0)" xlink:href="#af"/><use transform="matrix(0.06172839506172839,0,0,0.06172839506172839,39.50617283950617,0)" xlink:href="#aw"/><use transform="matrix(0.06172839506172839,0,0,0.06172839506172839,50.61728395061728,0)" xlink:href="#S"/><use transform="matrix(0.06172839506172839,0,0,0.06172839506172839,62.962962962962955,0)" xlink:href="#W"/></g><path fill="#333" d="M190 0L58-211 59 0H30v-248h39L202-35l-2-213h31V0h-41" id="ax"/><path fill="#333" d="M206 0h-36l-40-164L89 0H53L-1-190h32L70-26l43-164h34l41 164 42-164h31" id="ay"/><g id="K"><use transform="matrix(0.06172839506172839,0,0,0.06172839506172839,0,0)" xlink:href="#ax"/><use transform="matrix(0.06172839506172839,0,0,0.06172839506172839,15.987654320987653,0)" xlink:href="#S"/><use transform="matrix(0.06172839506172839,0,0,0.06172839506172839,28.333333333333332,0)" xlink:href="#ay"/></g><linearGradient gradientUnits="userSpaceOnUse" id="L" x1="1240" y1="927.06" x2="1240" y2="980"><stop offset="0%" stop-color="#fff"/><stop offset="20%" stop-color="#fff"/><stop offset="100%" stop-color="#dbdbdb"/></linearGradient><linearGradient gradientUnits="userSpaceOnUse" id="M" x1="1240" y1="927.06" x2="1240" y2="980"><stop offset="0%" stop-color="#fff"/><stop offset="20%" stop-color="#fff"/><stop offset="100%" stop-color="#dbdbdb"/></linearGradient><linearGradient gradientUnits="userSpaceOnUse" id="N" x1="1240" y1="927.06" x2="1240" y2="980"><stop offset="0%" stop-color="#fff"/><stop offset="20%" stop-color="#fff"/><stop offset="100%" stop-color="#dbdbdb"/></linearGradient><g id="O"><use transform="matrix(0.06172839506172839,0,0,0.06172839506172839,0,0)" xlink:href="#ar"/><use transform="matrix(0.06172839506172839,0,0,0.06172839506172839,12.345679012345679,0)" xlink:href="#S"/><use transform="matrix(0.06172839506172839,0,0,0.06172839506172839,24.691358024691358,0)" xlink:href="#av"/><use transform="matrix(0.06172839506172839,0,0,0.06172839506172839,37.03703703703704,0)" xlink:href="#X"/><use transform="matrix(0.06172839506172839,0,0,0.06172839506172839,49.382716049382715,0)" xlink:href="#aj"/><use transform="matrix(0.06172839506172839,0,0,0.06172839506172839,60.49382716049382,0)" xlink:href="#Y"/></g><g id="P"><use transform="matrix(0.06172839506172839,0,0,0.06172839506172839,0,0)" xlink:href="#ax"/><use transform="matrix(0.06172839506172839,0,0,0.06172839506172839,15.987654320987653,0)" xlink:href="#S"/><use transform="matrix(0.06172839506172839,0,0,0.06172839506172839,28.333333333333332,0)" xlink:href="#ay"/></g><g id="Q"><use transform="matrix(0.06172839506172839,0,0,0.06172839506172839,0,0)" xlink:href="#W"/><use transform="matrix(0.06172839506172839,0,0,0.06172839506172839,7.345679012345679,0)" xlink:href="#S"/><use transform="matrix(0.06172839506172839,0,0,0.06172839506172839,19.691358024691358,0)" xlink:href="#S"/><use transform="matrix(0.06172839506172839,0,0,0.06172839506172839,32.03703703703704,0)" xlink:href="#af"/><use transform="matrix(0.06172839506172839,0,0,0.06172839506172839,44.382716049382715,0)" xlink:href="#av"/><use transform="matrix(0.06172839506172839,0,0,0.06172839506172839,56.72839506172839,0)" xlink:href="#ak"/><use transform="matrix(0.06172839506172839,0,0,0.06172839506172839,61.60493827160494,0)" xlink:href="#af"/><use transform="matrix(0.06172839506172839,0,0,0.06172839506172839,73.95061728395062,0)" xlink:href="#S"/><use transform="matrix(0.06172839506172839,0,0,0.06172839506172839,86.2962962962963,0)" xlink:href="#S"/><use transform="matrix(0.06172839506172839,0,0,0.06172839506172839,98.64197530864199,0)" xlink:href="#W"/><use transform="matrix(0.06172839506172839,0,0,0.06172839506172839,105.98765432098767,0)" xlink:href="#S"/><use transform="matrix(0.06172839506172839,0,0,0.06172839506172839,118.33333333333336,0)" xlink:href="#ac"/><use transform="matrix(0.06172839506172839,0,0,0.06172839506172839,130.67901234567904,0)" xlink:href="#ad"/></g></defs></g></svg>