<svg version="1.1" xmlns="http://www.w3.org/2000/svg" xmlns:xlink="http://www.w3.org/1999/xlink" width="519.0908203125" height="484"><defs/><g><g transform="translate(-38,-46) scale(1,1)"><rect fill="#ffffff" stroke="none" x="48" y="56" width="176" height="21"/></g><g transform="translate(-38,-46) scale(1,1)"><path fill="none" stroke="#000000" d="M 48 56 L 224 56 L 224 77 L 48 77 L 48 56 Z Z" stroke-miterlimit="10" stroke-width="2"/></g><g transform="translate(-38,-46) scale(1,1)"><path fill="none" stroke="#000000" d="M 48 520 L 48 56 L 224 56 L 224 520" stroke-miterlimit="10" stroke-width="2"/></g><g transform="translate(-38,-46) scale(1,1)"><g><path fill="none" stroke="none"/><text fill="#000000" stroke="none" font-family="Arial" font-size="13px" font-style="normal" font-weight="normal" text-decoration="none" x="80.724609375" y="73">In-house Customer</text></g></g><g transform="translate(-38,-46) scale(1,1)"><rect fill="#ffffff" stroke="none" x="224" y="56" width="200" height="21"/></g><g transform="translate(-38,-46) scale(1,1)"><path fill="none" stroke="#000000" d="M 224 56 L 424 56 L 424 77 L 224 77 L 224 56 Z Z" stroke-miterlimit="10" stroke-width="2"/></g><g transform="translate(-38,-46) scale(1,1)"><path fill="none" stroke="#000000" d="M 224 520 L 224 56 L 424 56 L 424 520" stroke-miterlimit="10" stroke-width="2"/></g><g transform="translate(-38,-46) scale(1,1)"><g><path fill="none" stroke="none"/><text fill="#000000" stroke="none" font-family="Arial" font-size="13px" font-style="normal" font-weight="normal" text-decoration="none" x="255.715087890625" y="73">Purchasing Department</text></g></g><g transform="translate(-38,-46) scale(1,1)"><rect fill="#ffffff" stroke="none" x="424" y="56" width="123.0908203125" height="21"/></g><g transform="translate(-38,-46) scale(1,1)"><path fill="none" stroke="#000000" d="M 424 56 L 547.0908203125 56 L 547.0908203125 77 L 424 77 L 424 56 Z Z" stroke-miterlimit="10" stroke-width="2"/></g><g transform="translate(-38,-46) scale(1,1)"><path fill="none" stroke="#000000" d="M 424 520 L 424 56 L 547.0908203125 56 L 547.0908203125 520" stroke-miterlimit="10" stroke-width="2"/></g><g transform="translate(-38,-46) scale(1,1)"><g><path fill="none" stroke="none"/><text fill="#000000" stroke="none" font-family="Arial" font-size="13px" font-style="normal" font-weight="normal" text-decoration="none" x="464.944091796875" y="73">Vendor</text></g></g><g transform="translate(-38,-46) scale(1,1)"><path fill="#C0C0C0" stroke="none" d="M 73 135 L 206.50439453125 135 Q 216.50439453125 135 216.50439453125 145 L 216.50439453125 165 Q 216.50439453125 175 206.50439453125 175 L 73 175 Q 63 175 63 165 L 63 145 Q 63 135 73 135 Z" opacity="0.2"/></g><g transform="translate(-38,-46) scale(1,1)"><path fill="#ffffff" stroke="none" d="M 66 128 L 199.50439453125 128 Q 209.50439453125 128 209.50439453125 138 L 209.50439453125 158 Q 209.50439453125 168 199.50439453125 168 L 66 168 Q 56 168 56 158 L 56 138 Q 56 128 66 128 Z"/></g><g transform="translate(-38,-46) scale(1,1)"><path fill="none" stroke="#000000" d="M 66 128 L 199.50439453125 128 Q 209.50439453125 128 209.50439453125 138 L 209.50439453125 158 Q 209.50439453125 168 199.50439453125 168 L 66 168 Q 56 168 56 158 L 56 138 Q 56 128 66 128 Z" stroke-miterlimit="10"/></g><g transform="translate(-38,-46) scale(1,1)"><g><path fill="none" stroke="none"/><text fill="#000000" stroke="none" font-family="Arial" font-size="13px" font-style="normal" font-weight="bold" text-decoration="none" x="64.825927734375" y="147.5">Make purchase request</text></g></g><g transform="translate(-38,-46) scale(1,1)"><path fill="#C0C0C0" stroke="none" d="M 302 208.5 L 313.5 199 L 324 208.5 L 313.5 217 L 302 208.5" opacity="0.2"/></g><g transform="translate(-38,-46) scale(1,1)"><path fill="#ffffff" stroke="none" d="M 295 201 L 306 192 L 317 201 L 306 210 L 295 201"/></g><g transform="translate(-38,-46) scale(1,1)"><path fill="none" stroke="#000000" d="M 295 201 L 306 192 L 317 201 L 306 210 L 295 201 L 295 201" stroke-miterlimit="10"/></g><g transform="translate(-38,-46) scale(1,1)"><path fill="none" stroke="#000000" d="M 210 152 L 304 152 L 304 192" stroke-miterlimit="10"/></g><g transform="translate(-38,-46) scale(1,1)"><path fill="none" stroke="#000000" d="M 299.790482243984 181.83732514237585 L 304 192 L 308.209517756016 181.83732514237585" stroke-miterlimit="10"/></g><g transform="translate(-38,-46) scale(1,1)"><g><path fill="none" stroke="none"/><text fill="#000000" stroke="none" font-family="Arial" font-size="13px" font-style="normal" font-weight="normal" text-decoration="none" x="311.706298828125" y="180.5">cost &lt; 1500?</text></g></g><g transform="translate(-38,-46) scale(1,1)"><path fill="#C0C0C0" stroke="none" d="M 337 255 L 401.841796875 255 Q 411.841796875 255 411.841796875 265 L 411.841796875 285 Q 411.841796875 295 401.841796875 295 L 337 295 Q 327 295 327 285 L 327 265 Q 327 255 337 255 Z" opacity="0.2"/></g><g transform="translate(-38,-46) scale(1,1)"><path fill="#ffffff" stroke="none" d="M 330 248 L 394.841796875 248 Q 404.841796875 248 404.841796875 258 L 404.841796875 278 Q 404.841796875 288 394.841796875 288 L 330 288 Q 320 288 320 278 L 320 258 Q 320 248 330 248 Z"/></g><g transform="translate(-38,-46) scale(1,1)"><path fill="none" stroke="#000000" d="M 330 248 L 394.841796875 248 Q 404.841796875 248 404.841796875 258 L 404.841796875 278 Q 404.841796875 288 394.841796875 288 L 330 288 Q 320 288 320 278 L 320 258 Q 320 248 330 248 Z" stroke-miterlimit="10"/></g><g transform="translate(-38,-46) scale(1,1)"><g><path fill="none" stroke="none"/><text fill="#000000" stroke="none" font-family="Arial" font-size="13px" font-style="normal" font-weight="bold" text-decoration="none" x="327.010498046875" y="267.5">Request Bid</text></g></g><g transform="translate(-38,-46) scale(1,1)"><path fill="#C0C0C0" stroke="none" d="M 465 295 L 529.12451171875 295 Q 539.12451171875 295 539.12451171875 305 L 539.12451171875 325 Q 539.12451171875 335 529.12451171875 335 L 465 335 Q 455 335 455 325 L 455 305 Q 455 295 465 295 Z" opacity="0.2"/></g><g transform="translate(-38,-46) scale(1,1)"><path fill="#ffffff" stroke="none" d="M 458 288 L 522.12451171875 288 Q 532.12451171875 288 532.12451171875 298 L 532.12451171875 318 Q 532.12451171875 328 522.12451171875 328 L 458 328 Q 448 328 448 318 L 448 298 Q 448 288 458 288 Z"/></g><g transform="translate(-38,-46) scale(1,1)"><path fill="none" stroke="#000000" d="M 458 288 L 522.12451171875 288 Q 532.12451171875 288 532.12451171875 298 L 532.12451171875 318 Q 532.12451171875 328 522.12451171875 328 L 458 328 Q 448 328 448 318 L 448 298 Q 448 288 458 288 Z" stroke-miterlimit="10"/></g><g transform="translate(-38,-46) scale(1,1)"><g><path fill="none" stroke="none"/><text fill="#000000" stroke="none" font-family="Arial" font-size="13px" font-style="normal" font-weight="bold" text-decoration="none" x="455.013671875" y="307.5">Develop Bid</text></g></g><g transform="translate(-38,-46) scale(1,1)"><path fill="none" stroke="#000000" d="M 405 264 L 488 264 L 488 288" stroke-miterlimit="10"/></g><g transform="translate(-38,-46) scale(1,1)"><path fill="none" stroke="#000000" d="M 483.790482243984 277.83732514237585 L 488 288 L 492.209517756016 277.83732514237585" stroke-miterlimit="10"/></g><g transform="translate(-38,-46) scale(1,1)"><path fill="#C0C0C0" stroke="none" d="M 345 335 L 396.8544921875 335 Q 406.8544921875 335 406.8544921875 345 L 406.8544921875 365 Q 406.8544921875 375 396.8544921875 375 L 345 375 Q 335 375 335 365 L 335 345 Q 335 335 345 335 Z" opacity="0.2"/></g><g transform="translate(-38,-46) scale(1,1)"><path fill="#ffffff" stroke="none" d="M 338 328 L 389.8544921875 328 Q 399.8544921875 328 399.8544921875 338 L 399.8544921875 358 Q 399.8544921875 368 389.8544921875 368 L 338 368 Q 328 368 328 358 L 328 338 Q 328 328 338 328 Z"/></g><g transform="translate(-38,-46) scale(1,1)"><path fill="none" stroke="#000000" d="M 338 328 L 389.8544921875 328 Q 399.8544921875 328 399.8544921875 338 L 399.8544921875 358 Q 399.8544921875 368 389.8544921875 368 L 338 368 Q 328 368 328 358 L 328 338 Q 328 328 338 328 Z" stroke-miterlimit="10"/></g><g transform="translate(-38,-46) scale(1,1)"><g><path fill="none" stroke="none"/><text fill="#000000" stroke="none" font-family="Arial" font-size="13px" font-style="normal" font-weight="bold" text-decoration="none" x="334.661376953125" y="347.5">Select Bid</text></g></g><g transform="translate(-38,-46) scale(1,1)"><path fill="none" stroke="#000000" d="M 490 328 L 490 352 L 400 352" stroke-miterlimit="10"/></g><g transform="translate(-38,-46) scale(1,1)"><path fill="none" stroke="#000000" d="M 410.16267485762415 347.790482243984 L 400 352 L 410.16267485762415 356.209517756016" stroke-miterlimit="10"/></g><g transform="translate(-38,-46) scale(1,1)"><path fill="#C0C0C0" stroke="none" d="M 257 407 L 384.7216796875 407 Q 394.7216796875 407 394.7216796875 417 L 394.7216796875 437 Q 394.7216796875 447 384.7216796875 447 L 257 447 Q 247 447 247 437 L 247 417 Q 247 407 257 407 Z" opacity="0.2"/></g><g transform="translate(-38,-46) scale(1,1)"><path fill="#ffffff" stroke="none" d="M 250 400 L 377.7216796875 400 Q 387.7216796875 400 387.7216796875 410 L 387.7216796875 430 Q 387.7216796875 440 377.7216796875 440 L 250 440 Q 240 440 240 430 L 240 410 Q 240 400 250 400 Z"/></g><g transform="translate(-38,-46) scale(1,1)"><path fill="none" stroke="#000000" d="M 250 400 L 377.7216796875 400 Q 387.7216796875 400 387.7216796875 410 L 387.7216796875 430 Q 387.7216796875 440 377.7216796875 440 L 250 440 Q 240 440 240 430 L 240 410 Q 240 400 250 400 Z" stroke-miterlimit="10"/></g><g transform="translate(-38,-46) scale(1,1)"><g><path fill="none" stroke="none"/><text fill="#000000" stroke="none" font-family="Arial" font-size="13px" font-style="normal" font-weight="bold" text-decoration="none" x="248.825927734375" y="419.5">Create purchase order</text></g></g><g transform="translate(-38,-46) scale(1,1)"><path fill="none" stroke="#000000" d="M 360 368 L 360 400" stroke-miterlimit="10"/></g><g transform="translate(-38,-46) scale(1,1)"><path fill="none" stroke="#000000" d="M 355.790482243984 389.83732514237585 L 360 400 L 364.209517756016 389.83732514237585" stroke-miterlimit="10"/></g><g transform="translate(-38,-46) scale(1,1)"><path fill="none" stroke="#000000" d="M 295 200 L 272 200 L 272 400" stroke-miterlimit="10"/></g><g transform="translate(-38,-46) scale(1,1)"><path fill="none" stroke="#000000" d="M 267.790482243984 389.83732514237585 L 272 400 L 276.209517756016 389.83732514237585" stroke-miterlimit="10"/></g><g transform="translate(-38,-46) scale(1,1)"><g><path fill="none" stroke="none"/><text fill="#000000" stroke="none" font-family="Arial" font-size="13px" font-style="normal" font-weight="normal" text-decoration="none" x="246.5" y="195.5"> [Yes]</text></g></g><g transform="translate(-38,-46) scale(1,1)"><path fill="none" stroke="#000000" d="M 317 200 L 360 200 L 360 248" stroke-miterlimit="10"/></g><g transform="translate(-38,-46) scale(1,1)"><path fill="none" stroke="#000000" d="M 355.790482243984 237.83732514237585 L 360 248 L 364.209517756016 237.83732514237585" stroke-miterlimit="10"/></g><g transform="translate(-38,-46) scale(1,1)"><g><path fill="none" stroke="none"/><text fill="#000000" stroke="none" font-family="Arial" font-size="13px" font-style="normal" font-weight="normal" text-decoration="none" x="360.5" y="205.5"> [No]</text></g></g><g transform="translate(-38,-46) scale(1,1)"><path fill="#C0C0C0" stroke="none" d="M 127 112.5 C 127 107.2532944 131.2532944 103 136.5 103 C 141.7467056 103 146 107.2532944 146 112.5 C 146 117.7467056 141.7467056 122 136.5 122 C 131.2532944 122 127 117.7467056 127 112.5 Z" opacity="0.2"/></g><g transform="translate(-38,-46) scale(1,1)"><path fill="#000000" stroke="none" d="M 120 105.5 C 120 100.2532944 124.2532944 96 129.5 96 C 134.7467056 96 139 100.2532944 139 105.5 C 139 110.7467056 134.7467056 115 129.5 115 C 124.2532944 115 120 110.7467056 120 105.5 Z"/></g><g transform="translate(-38,-46) scale(1,1)"><path fill="#C0C0C0" stroke="none" d="M 319 499.5 C 319 492.59644 324.59644 487 331.5 487 C 338.40356 487 344 492.59644 344 499.5 C 344 506.40356 338.40356 512 331.5 512 C 324.59644 512 319 506.40356 319 499.5 Z" opacity="0.2"/></g><g transform="translate(-38,-46) scale(1,1)"><path fill="none" stroke="#000000" d="M 312 492.5 C 312 485.59644 317.59644 480 324.5 480 C 331.40356 480 337 485.59644 337 492.5 C 337 499.40356 331.40356 505 324.5 505 C 317.59644 505 312 499.40356 312 492.5 Z" stroke-miterlimit="10"/></g><g transform="translate(-38,-46) scale(1,1)"><path fill="#000000" stroke="none" d="M 317 492.5 C 317 488.357864 320.357864 485 324.5 485 C 328.642136 485 332 488.357864 332 492.5 C 332 496.642136 328.642136 500 324.5 500 C 320.357864 500 317 496.642136 317 492.5 Z"/></g><g transform="translate(-38,-46) scale(1,1)"><path fill="none" stroke="#000000" d="M 130 115 L 130 128" stroke-miterlimit="10"/></g><g transform="translate(-38,-46) scale(1,1)"><path fill="none" stroke="#000000" d="M 125.79048224398402 117.83732514237585 L 130 128 L 134.209517756016 117.83732514237585" stroke-miterlimit="10"/></g><g transform="translate(-38,-46) scale(1,1)"><path fill="none" stroke="#000000" d="M 316 440 L 316 480" stroke-miterlimit="10"/></g><g transform="translate(-38,-46) scale(1,1)"><path fill="none" stroke="#000000" d="M 311.790482243984 469.83732514237585 L 316 480 L 320.209517756016 469.83732514237585" stroke-miterlimit="10"/></g></g></svg>