<svg xmlns="http://www.w3.org/2000/svg" xmlns:xlink="http://www.w3.org/1999/xlink" xmlns:lucid="lucid" width="480" height="480"><g transform="translate(-500 -240)" lucid:page-tab-id="0_0"><path d="M759.75 279.75c0 10.9-8.84 19.75-19.75 19.75-10.9 0-19.75-8.84-19.75-19.75 0-10.9 8.84-19.75 19.75-19.75 10.9 0 19.75 8.84 19.75 19.75z" stroke="#fff" stroke-width="3" fill-opacity="0"/><path d="M740 299.5v49.3c0 3.3 1.44 8.27 3.2 11.07L780 418m-40-63.2L700 418m0-98.75h80" stroke="#fff" stroke-width="3" fill="none"/><path d="M700 266c0-3.3 2.7-6 6-6h68c3.3 0 6 2.7 6 6v168c0 3.3-2.7 6-6 6h-68c-3.3 0-6-2.7-6-6z" fill="none"/><use xlink:href="#a" transform="matrix(1,0,0,1,620,418) translate(96.60493827160494 17.77777777777778)"/><path d="M520 506c0-3.3 2.7-6 6-6h148c3.3 0 6 2.7 6 6v48c0 3.3-2.7 6-6 6H526c-3.3 0-6-2.7-6-6z" stroke="#fff" stroke-width="3" fill-opacity="0"/><use xlink:href="#b" transform="matrix(1,0,0,1,528,508) translate(24.006172839506164 26.444444444444443)"/><path d="M800 506c0-3.3 2.7-6 6-6h148c3.3 0 6 2.7 6 6v48c0 3.3-2.7 6-6 6H806c-3.3 0-6-2.7-6-6z" stroke="#fff" stroke-width="3" fill-opacity="0"/><use xlink:href="#c" transform="matrix(1,0,0,1,808,508) translate(48.20370370370371 26.444444444444443)"/><path d="M660 646c0-3.3 2.7-6 6-6h148c3.3 0 6 2.7 6 6v48c0 3.3-2.7 6-6 6H666c-3.3 0-6-2.7-6-6z" stroke="#fff" stroke-width="3" fill-opacity="0"/><use xlink:href="#d" transform="matrix(1,0,0,1,668,648) translate(41.81481481481482 26.444444444444443)"/><path d="M600.47 562.38l49.25 91.33" stroke="#fff" stroke-width="2" fill="none"/><path d="M601.37 561.93l-1.76.95-.74-1.38h2.28z" stroke="#fff" stroke-width=".05" fill="#fff"/><path d="M656.96 667.15L646.1 656.8l8.17-4.4z" stroke="#fff" stroke-width="2" fill="#fff"/><path d="M821.97 669.12l57.56-106.74" stroke="#fff" stroke-width="2" fill="none"/><path d="M822.87 669.57l-1.37 2.54v-3.27zM880.4 562.88l-1.77-.95.23-.43h2.28z" stroke="#fff" stroke-width=".05" fill="#fff"/><path d="M637.34 485.17l63.23-65.65" stroke="#fff" stroke-width="2" fill="none"/><path d="M626.74 496.17l6.56-13.5 6.68 6.44z" stroke="#fff" stroke-width="2" fill="#fff"/><path d="M700.56 419.54l2.8-2.9M793.27 430.24l85.94 67.64" stroke="#fff" stroke-width="2" fill="none"/><path d="M781.28 420.8l14.07 5.18-5.73 7.3z" stroke="#fff" stroke-width="2" fill="#fff"/><path d="M881.62 498.5h-2.93l1.1-1.42z" stroke="#fff" stroke-width=".05" fill="#fff"/><path d="M682.5 530h115" stroke="#fff" stroke-width="2" fill="none"/><path d="M682.53 531h-1.03v-2h1.03zM798.5 531h-1.03v-2h1.03z" stroke="#fff" stroke-width=".05" fill="#fff"/><defs><path fill="#fff" d="M232-93c-1 65-40 97-104 97C67 4 28-28 28-90v-158h33c8 89-33 224 67 224 102 0 64-133 71-224h33v155" id="e"/><path fill="#fff" d="M135-143c-3-34-86-38-87 0 15 53 115 12 119 90S17 21 10-45l28-5c4 36 97 45 98 0-10-56-113-15-118-90-4-57 82-63 122-42 12 7 21 19 24 35" id="f"/><path fill="#fff" d="M100-194c63 0 86 42 84 106H49c0 40 14 67 53 68 26 1 43-12 49-29l28 8c-11 28-37 45-77 45C44 4 14-33 15-96c1-61 26-98 85-98zm52 81c6-60-76-77-97-28-3 7-6 17-6 28h103" id="g"/><path fill="#fff" d="M114-163C36-179 61-72 57 0H25l-1-190h30c1 12-1 29 2 39 6-27 23-49 58-41v29" id="h"/><g id="a"><use transform="matrix(0.06172839506172839,0,0,0.06172839506172839,0,0)" xlink:href="#e"/><use transform="matrix(0.06172839506172839,0,0,0.06172839506172839,15.987654320987653,0)" xlink:href="#f"/><use transform="matrix(0.06172839506172839,0,0,0.06172839506172839,27.098765432098766,0)" xlink:href="#g"/><use transform="matrix(0.06172839506172839,0,0,0.06172839506172839,39.44444444444444,0)" xlink:href="#h"/></g><path fill="#fff" d="M212-179c-10-28-35-45-73-45-59 0-87 40-87 99 0 60 29 101 89 101 43 0 62-24 78-52l27 14C228-24 195 4 139 4 59 4 22-46 18-125c-6-104 99-153 187-111 19 9 31 26 39 46" id="i"/><path fill="#fff" d="M100-194c62-1 85 37 85 99 1 63-27 99-86 99S16-35 15-95c0-66 28-99 85-99zM99-20c44 1 53-31 53-75 0-43-8-75-51-75s-53 32-53 75 10 74 51 75" id="j"/><path fill="#fff" d="M117-194c89-4 53 116 60 194h-32v-121c0-31-8-49-39-48C34-167 62-67 57 0H25l-1-190h30c1 10-1 24 2 32 11-22 29-35 61-36" id="k"/><path fill="#fff" d="M59-47c-2 24 18 29 38 22v24C64 9 27 4 27-40v-127H5v-23h24l9-43h21v43h35v23H59v120" id="l"/><path fill="#fff" d="M24 0v-261h32V0H24" id="m"/><g id="b"><use transform="matrix(0.06172839506172839,0,0,0.06172839506172839,0,0)" xlink:href="#i"/><use transform="matrix(0.06172839506172839,0,0,0.06172839506172839,15.987654320987653,0)" xlink:href="#j"/><use transform="matrix(0.06172839506172839,0,0,0.06172839506172839,28.333333333333332,0)" xlink:href="#k"/><use transform="matrix(0.06172839506172839,0,0,0.06172839506172839,40.67901234567901,0)" xlink:href="#l"/><use transform="matrix(0.06172839506172839,0,0,0.06172839506172839,46.851851851851855,0)" xlink:href="#h"/><use transform="matrix(0.06172839506172839,0,0,0.06172839506172839,54.19753086419753,0)" xlink:href="#j"/><use transform="matrix(0.06172839506172839,0,0,0.06172839506172839,66.54320987654322,0)" xlink:href="#m"/><use transform="matrix(0.06172839506172839,0,0,0.06172839506172839,71.41975308641976,0)" xlink:href="#m"/><use transform="matrix(0.06172839506172839,0,0,0.06172839506172839,76.2962962962963,0)" xlink:href="#g"/><use transform="matrix(0.06172839506172839,0,0,0.06172839506172839,88.64197530864199,0)" xlink:href="#h"/></g><path fill="#fff" d="M137 0h-34L2-248h35l83 218 83-218h36" id="n"/><path fill="#fff" d="M24-231v-30h32v30H24zM24 0v-190h32V0H24" id="o"/><path fill="#fff" d="M206 0h-36l-40-164L89 0H53L-1-190h32L70-26l43-164h34l41 164 42-164h31" id="p"/><g id="c"><use transform="matrix(0.06172839506172839,0,0,0.06172839506172839,0,0)" xlink:href="#n"/><use transform="matrix(0.06172839506172839,0,0,0.06172839506172839,14.382716049382715,0)" xlink:href="#o"/><use transform="matrix(0.06172839506172839,0,0,0.06172839506172839,19.25925925925926,0)" xlink:href="#g"/><use transform="matrix(0.06172839506172839,0,0,0.06172839506172839,31.604938271604937,0)" xlink:href="#p"/></g><path fill="#fff" d="M240 0l2-218c-23 76-54 145-80 218h-23L58-218 59 0H30v-248h44l77 211c21-75 51-140 76-211h43V0h-30" id="q"/><path fill="#fff" d="M85-194c31 0 48 13 60 33l-1-100h32l1 261h-30c-2-10 0-23-3-31C134-8 116 4 85 4 32 4 16-35 15-94c0-66 23-100 70-100zm9 24c-40 0-46 34-46 75 0 40 6 74 45 74 42 0 51-32 51-76 0-42-9-74-50-73" id="r"/><g id="d"><use transform="matrix(0.06172839506172839,0,0,0.06172839506172839,0,0)" xlink:href="#q"/><use transform="matrix(0.06172839506172839,0,0,0.06172839506172839,18.456790123456788,0)" xlink:href="#j"/><use transform="matrix(0.06172839506172839,0,0,0.06172839506172839,30.80246913580247,0)" xlink:href="#r"/><use transform="matrix(0.06172839506172839,0,0,0.06172839506172839,43.148148148148145,0)" xlink:href="#g"/><use transform="matrix(0.06172839506172839,0,0,0.06172839506172839,55.49382716049382,0)" xlink:href="#m"/></g></defs></g></svg>