<svg xmlns="http://www.w3.org/2000/svg" xmlns:xlink="http://www.w3.org/1999/xlink" xmlns:lucid="lucid" width="780" height="620"><g transform="translate(-340 -140)" lucid:page-tab-id="g8rnQqHBjKU8"><path d="M620 166c0-3.3 2.7-6 6-6h208c3.3 0 6 2.7 6 6v128c0 3.3-2.7 6-6 6H626c-3.3 0-6-2.7-6-6z" stroke="#fff" stroke-width="3" fill-opacity="0"/><path d="M620 202.67h220m-220 48.66h220" stroke="#fff" stroke-width="3" fill="none"/><use xlink:href="#a" transform="matrix(1,0,0,1,628,168) translate(80.42592592592592 17.944444444444443)"/><use xlink:href="#b" transform="matrix(1,0,0,1,632,259.33333333333337) translate(0 20.944444444444443)"/><use xlink:href="#c" transform="matrix(1,0,0,1,632,259.33333333333337) translate(19.1358024691358 20.944444444444443)"/><use xlink:href="#d" transform="matrix(1,0,0,1,632,259.33333333333337) translate(104.07407407407408 20.944444444444443)"/><use xlink:href="#e" transform="matrix(1,0,0,1,632,259.33333333333337) translate(116.41975308641976 20.944444444444443)"/><path d="M730 377.5v-51.52" stroke="#fff" stroke-width="2" fill="none"/><path d="M731 378.5h-2v-1.03h2z" stroke="#fff" stroke-width=".05" fill="#fff"/><path d="M730 303.46l12.73 21.52h-25.46z" stroke="#fff" stroke-width="2" fill="#fff"/><path d="M620 606c0-3.3 2.7-6 6-6h208c3.3 0 6 2.7 6 6v128c0 3.3-2.7 6-6 6H626c-3.3 0-6-2.7-6-6z" stroke="#fff" stroke-width="3" fill-opacity="0"/><path d="M620 642.67h220m-220 48.66h220" stroke="#fff" stroke-width="3" fill="none"/><use xlink:href="#f" transform="matrix(1,0,0,1,628,608) translate(49.037037037037024 17.944444444444443)"/><use xlink:href="#g" transform="matrix(1,0,0,1,632,699.3333333333333) translate(0 20.944444444444443)"/><use xlink:href="#h" transform="matrix(1,0,0,1,632,699.3333333333333) translate(19.1358024691358 20.944444444444443)"/><use xlink:href="#i" transform="matrix(1,0,0,1,632,699.3333333333333) translate(104.07407407407408 20.944444444444443)"/><use xlink:href="#j" transform="matrix(1,0,0,1,632,699.3333333333333) translate(116.41975308641976 20.944444444444443)"/><path d="M880 606c0-3.3 2.7-6 6-6h208c3.3 0 6 2.7 6 6v128c0 3.3-2.7 6-6 6H886c-3.3 0-6-2.7-6-6z" stroke="#fff" stroke-width="3" fill-opacity="0"/><path d="M880 642.67h220m-220 48.66h220" stroke="#fff" stroke-width="3" fill="none"/><use xlink:href="#k" transform="matrix(1,0,0,1,888,608) translate(49.716049382716044 17.944444444444443)"/><use xlink:href="#g" transform="matrix(1,0,0,1,892,699.3333333333333) translate(0 20.944444444444443)"/><use xlink:href="#h" transform="matrix(1,0,0,1,892,699.3333333333333) translate(19.1358024691358 20.944444444444443)"/><use xlink:href="#i" transform="matrix(1,0,0,1,892,699.3333333333333) translate(104.07407407407408 20.944444444444443)"/><use xlink:href="#j" transform="matrix(1,0,0,1,892,699.3333333333333) translate(116.41975308641976 20.944444444444443)"/><path d="M360 606c0-3.3 2.7-6 6-6h208c3.3 0 6 2.7 6 6v128c0 3.3-2.7 6-6 6H366c-3.3 0-6-2.7-6-6z" stroke="#fff" stroke-width="3" fill-opacity="0"/><path d="M360 642.67h220m-220 48.66h220" stroke="#fff" stroke-width="3" fill="none"/><use xlink:href="#l" transform="matrix(1,0,0,1,368,608) translate(43.5432098765432 17.944444444444443)"/><use xlink:href="#g" transform="matrix(1,0,0,1,372,699.3333333333333) translate(0 20.944444444444443)"/><use xlink:href="#h" transform="matrix(1,0,0,1,372,699.3333333333333) translate(19.1358024691358 20.944444444444443)"/><use xlink:href="#i" transform="matrix(1,0,0,1,372,699.3333333333333) translate(104.07407407407408 20.944444444444443)"/><use xlink:href="#j" transform="matrix(1,0,0,1,372,699.3333333333333) translate(116.41975308641976 20.944444444444443)"/><path d="M470 597.5V559c0-3.3 2.7-6 6-6h248c3.3 0 6-2.7 6-6v-15.02" stroke="#fff" stroke-width="2" fill="none"/><path d="M471 598.5h-2v-1.03h2z" stroke="#fff" stroke-width=".05" fill="#fff"/><path d="M730 509.46l12.73 21.52h-25.46z" stroke="#fff" stroke-width="2" fill="#fff"/><path d="M730 597.5v-65.52" stroke="#fff" stroke-width="2" fill="none"/><path d="M731 598.5h-2v-1.03h2z" stroke="#fff" stroke-width=".05" fill="#fff"/><path d="M730 509.46l12.73 21.52h-25.46z" stroke="#fff" stroke-width="2" fill="#fff"/><path d="M990 597.5V559c0-3.3-2.7-6-6-6H736c-3.3 0-6-2.7-6-6v-15.02" stroke="#fff" stroke-width="2" fill="none"/><path d="M991 598.5h-2v-1.03h2z" stroke="#fff" stroke-width=".05" fill="#fff"/><path d="M730 509.46l12.73 21.52h-25.46z" stroke="#fff" stroke-width="2" fill="#fff"/><path d="M650 386c0-3.3 2.7-6 6-6h148c3.3 0 6 2.7 6 6v114c0 3.3-2.7 6-6 6H656c-3.3 0-6-2.7-6-6z" stroke="#fff" stroke-width="3" fill-opacity="0"/><g><use xlink:href="#m" transform="matrix(1,0,0,1,658,388) translate(43.72839506172839 59.44444444444444)"/></g><defs><path fill="#fff" d="M14 0l48-248h34L48 0H14" id="n"/><path fill="#fff" d="M51-54c-9 22 5 41 31 30L79-1C43 14 10-4 19-52l22-115H19l5-23h22l19-43h21l-9 43h35l-4 23H73" id="o"/><path fill="#fff" d="M111-194c62-3 86 47 72 106H45c-7 38 6 69 45 68 27-1 43-14 53-32l24 11C152-15 129 4 87 4 38 3 12-23 12-71c0-70 32-119 99-123zm44 81c14-66-71-72-95-28-4 8-8 17-11 28h106" id="p"/><path fill="#fff" d="M248-111c6-24 9-61-24-58-72 9-57 108-77 169h-31l26-142c3-37-50-30-64-10C52-115 50-51 37 0H6l36-190h30c-1 10-6 24-4 32 13-43 101-52 105 5 13-22 29-41 61-41 90 0 28 129 23 194h-31" id="q"/><g id="a"><use transform="matrix(0.06172839506172839,0,0,0.06172839506172839,0,0)" xlink:href="#n"/><use transform="matrix(0.06172839506172839,0,0,0.06172839506172839,6.172839506172839,0)" xlink:href="#o"/><use transform="matrix(0.06172839506172839,0,0,0.06172839506172839,12.345679012345679,0)" xlink:href="#p"/><use transform="matrix(0.06172839506172839,0,0,0.06172839506172839,24.691358024691358,0)" xlink:href="#q"/></g><path fill="#fff" d="M123-107v75H97v-75H23v-26h74v-75h26v75h75v26h-75" id="r"/><use transform="matrix(0.06172839506172839,0,0,0.06172839506172839,0,0)" xlink:href="#r" id="b"/><path fill="#fff" d="M66-151c12-25 30-51 66-40l-6 26C45-176 58-65 38 0H6l36-190h30" id="s"/><path fill="#fff" d="M67-158c22-48 132-52 116 29L158 0h-32l25-140c3-38-53-32-70-12C52-117 51-52 38 0H6l36-190h30" id="t"/><path fill="#fff" d="M133-28C103 26-5 8 13-77c13-62 24-115 90-117 29-1 46 15 56 35l19-102h32L160 0h-30zM45-64c-2 27 10 43 35 43 54-1 69-50 69-103 0-29-15-46-42-46-53-1-58 58-62 106" id="u"/><path fill="#fff" d="M17-49c1-102 45-165 103-212h30C92-210 49-145 49-46 49 4 63 43 85 75H54C30 43 18 2 17-49" id="v"/><path fill="#fff" d="M98-137C97-35 54 29-4 75h-31C23 23 67-41 67-140c0-50-15-89-37-121h31c24 32 36 73 37 124" id="w"/><g id="c"><use transform="matrix(0.06172839506172839,0,0,0.06172839506172839,0,0)" xlink:href="#s"/><use transform="matrix(0.06172839506172839,0,0,0.06172839506172839,7.345679012345679,0)" xlink:href="#p"/><use transform="matrix(0.06172839506172839,0,0,0.06172839506172839,19.691358024691358,0)" xlink:href="#t"/><use transform="matrix(0.06172839506172839,0,0,0.06172839506172839,32.03703703703704,0)" xlink:href="#u"/><use transform="matrix(0.06172839506172839,0,0,0.06172839506172839,44.382716049382715,0)" xlink:href="#p"/><use transform="matrix(0.06172839506172839,0,0,0.06172839506172839,56.72839506172839,0)" xlink:href="#s"/><use transform="matrix(0.06172839506172839,0,0,0.06172839506172839,64.07407407407408,0)" xlink:href="#v"/><use transform="matrix(0.06172839506172839,0,0,0.06172839506172839,71.41975308641976,0)" xlink:href="#w"/></g><path fill="#fff" d="M44-154l7-36h35l-8 36H44zM14 0l7-36h35L49 0H14" id="x"/><use transform="matrix(0.06172839506172839,0,0,0.06172839506172839,0,0)" xlink:href="#x" id="d"/><path fill="#fff" d="M89 0H52L20-190h33L74-25l89-165h34" id="y"/><path fill="#fff" d="M30-147c31-64 166-65 159 27C183-49 158 1 86 4 9 8 1-88 30-147zM88-20c53 0 68-48 68-100 0-31-11-51-44-50-52 1-68 46-68 97 0 32 13 53 44 53" id="z"/><path fill="#fff" d="M50-231l6-30h32l-6 30H50zM6 0l37-190h31L37 0H6" id="A"/><g id="e"><use transform="matrix(0.06172839506172839,0,0,0.06172839506172839,0,0)" xlink:href="#y"/><use transform="matrix(0.06172839506172839,0,0,0.06172839506172839,11.11111111111111,0)" xlink:href="#z"/><use transform="matrix(0.06172839506172839,0,0,0.06172839506172839,23.45679012345679,0)" xlink:href="#A"/><use transform="matrix(0.06172839506172839,0,0,0.06172839506172839,28.333333333333336,0)" xlink:href="#u"/></g><path fill="#fff" d="M30 0v-248h187v28H63v79h144v27H63v87h162V0H30" id="B"/><path fill="#fff" d="M141-36C126-15 110 5 73 4 37 3 15-17 15-53c-1-64 63-63 125-63 3-35-9-54-41-54-24 1-41 7-42 31l-33-3c5-37 33-52 76-52 45 0 72 20 72 64v82c-1 20 7 32 28 27v20c-31 9-61-2-59-35zM48-53c0 20 12 33 32 33 41-3 63-29 60-74-43 2-92-5-92 41" id="C"/><path fill="#fff" d="M135-143c-3-34-86-38-87 0 15 53 115 12 119 90S17 21 10-45l28-5c4 36 97 45 98 0-10-56-113-15-118-90-4-57 82-63 122-42 12 7 21 19 24 35" id="D"/><path fill="#fff" d="M179-190L93 31C79 59 56 82 12 73V49c39 6 53-20 64-50L1-190h34L92-34l54-156h33" id="E"/><path fill="#fff" d="M212-179c-10-28-35-45-73-45-59 0-87 40-87 99 0 60 29 101 89 101 43 0 62-24 78-52l27 14C228-24 195 4 139 4 59 4 22-46 18-125c-6-104 99-153 187-111 19 9 31 26 39 46" id="F"/><path fill="#fff" d="M24-231v-30h32v30H24zM24 0v-190h32V0H24" id="G"/><path fill="#fff" d="M114-163C36-179 61-72 57 0H25l-1-190h30c1 12-1 29 2 39 6-27 23-49 58-41v29" id="H"/><path fill="#fff" d="M96-169c-40 0-48 33-48 73s9 75 48 75c24 0 41-14 43-38l32 2c-6 37-31 61-74 61-59 0-76-41-82-99-10-93 101-131 147-64 4 7 5 14 7 22l-32 3c-4-21-16-35-41-35" id="I"/><path fill="#fff" d="M24 0v-261h32V0H24" id="J"/><path fill="#fff" d="M100-194c63 0 86 42 84 106H49c0 40 14 67 53 68 26 1 43-12 49-29l28 8c-11 28-37 45-77 45C44 4 14-33 15-96c1-61 26-98 85-98zm52 81c6-60-76-77-97-28-3 7-6 17-6 28h103" id="K"/><g id="f"><use transform="matrix(0.06172839506172839,0,0,0.06172839506172839,0,0)" xlink:href="#B"/><use transform="matrix(0.06172839506172839,0,0,0.06172839506172839,14.814814814814813,0)" xlink:href="#C"/><use transform="matrix(0.06172839506172839,0,0,0.06172839506172839,27.160493827160494,0)" xlink:href="#D"/><use transform="matrix(0.06172839506172839,0,0,0.06172839506172839,38.27160493827161,0)" xlink:href="#E"/><use transform="matrix(0.06172839506172839,0,0,0.06172839506172839,49.38271604938272,0)" xlink:href="#F"/><use transform="matrix(0.06172839506172839,0,0,0.06172839506172839,65.37037037037038,0)" xlink:href="#G"/><use transform="matrix(0.06172839506172839,0,0,0.06172839506172839,70.24691358024693,0)" xlink:href="#H"/><use transform="matrix(0.06172839506172839,0,0,0.06172839506172839,77.59259259259261,0)" xlink:href="#I"/><use transform="matrix(0.06172839506172839,0,0,0.06172839506172839,88.70370370370372,0)" xlink:href="#J"/><use transform="matrix(0.06172839506172839,0,0,0.06172839506172839,93.58024691358027,0)" xlink:href="#K"/></g><path fill="#fff" d="M118-107v75H92v-75H18v-26h74v-75h26v75h74v26h-74" id="L"/><use transform="matrix(0.06172839506172839,0,0,0.06172839506172839,0,0)" xlink:href="#L" id="g"/><path fill="#fff" d="M117-194c89-4 53 116 60 194h-32v-121c0-31-8-49-39-48C34-167 62-67 57 0H25l-1-190h30c1 10-1 24 2 32 11-22 29-35 61-36" id="M"/><path fill="#fff" d="M85-194c31 0 48 13 60 33l-1-100h32l1 261h-30c-2-10 0-23-3-31C134-8 116 4 85 4 32 4 16-35 15-94c0-66 23-100 70-100zm9 24c-40 0-46 34-46 75 0 40 6 74 45 74 42 0 51-32 51-76 0-42-9-74-50-73" id="N"/><path fill="#fff" d="M87 75C49 33 22-17 22-94c0-76 28-126 65-167h31c-38 41-64 92-64 168S80 34 118 75H87" id="O"/><path fill="#fff" d="M33-261c38 41 65 92 65 168S71 34 33 75H2C39 34 66-17 66-93S39-220 2-261h31" id="P"/><g id="h"><use transform="matrix(0.06172839506172839,0,0,0.06172839506172839,0,0)" xlink:href="#H"/><use transform="matrix(0.06172839506172839,0,0,0.06172839506172839,7.345679012345679,0)" xlink:href="#K"/><use transform="matrix(0.06172839506172839,0,0,0.06172839506172839,19.691358024691358,0)" xlink:href="#M"/><use transform="matrix(0.06172839506172839,0,0,0.06172839506172839,32.03703703703704,0)" xlink:href="#N"/><use transform="matrix(0.06172839506172839,0,0,0.06172839506172839,44.382716049382715,0)" xlink:href="#K"/><use transform="matrix(0.06172839506172839,0,0,0.06172839506172839,56.72839506172839,0)" xlink:href="#H"/><use transform="matrix(0.06172839506172839,0,0,0.06172839506172839,64.07407407407408,0)" xlink:href="#O"/><use transform="matrix(0.06172839506172839,0,0,0.06172839506172839,71.41975308641976,0)" xlink:href="#P"/></g><path fill="#fff" d="M33-154v-36h34v36H33zM33 0v-36h34V0H33" id="Q"/><use transform="matrix(0.06172839506172839,0,0,0.06172839506172839,0,0)" xlink:href="#Q" id="i"/><path fill="#fff" d="M108 0H70L1-190h34L89-25l56-165h34" id="R"/><path fill="#fff" d="M100-194c62-1 85 37 85 99 1 63-27 99-86 99S16-35 15-95c0-66 28-99 85-99zM99-20c44 1 53-31 53-75 0-43-8-75-51-75s-53 32-53 75 10 74 51 75" id="S"/><g id="j"><use transform="matrix(0.06172839506172839,0,0,0.06172839506172839,0,0)" xlink:href="#R"/><use transform="matrix(0.06172839506172839,0,0,0.06172839506172839,11.11111111111111,0)" xlink:href="#S"/><use transform="matrix(0.06172839506172839,0,0,0.06172839506172839,23.45679012345679,0)" xlink:href="#G"/><use transform="matrix(0.06172839506172839,0,0,0.06172839506172839,28.333333333333336,0)" xlink:href="#N"/></g><path fill="#fff" d="M197 0v-115H63V0H30v-248h33v105h134v-105h34V0h-34" id="T"/><g id="k"><use transform="matrix(0.06172839506172839,0,0,0.06172839506172839,0,0)" xlink:href="#T"/><use transform="matrix(0.06172839506172839,0,0,0.06172839506172839,15.987654320987653,0)" xlink:href="#C"/><use transform="matrix(0.06172839506172839,0,0,0.06172839506172839,28.333333333333332,0)" xlink:href="#H"/><use transform="matrix(0.06172839506172839,0,0,0.06172839506172839,35.67901234567901,0)" xlink:href="#N"/><use transform="matrix(0.06172839506172839,0,0,0.06172839506172839,48.02469135802469,0)" xlink:href="#F"/><use transform="matrix(0.06172839506172839,0,0,0.06172839506172839,64.01234567901234,0)" xlink:href="#G"/><use transform="matrix(0.06172839506172839,0,0,0.06172839506172839,68.88888888888889,0)" xlink:href="#H"/><use transform="matrix(0.06172839506172839,0,0,0.06172839506172839,76.23456790123457,0)" xlink:href="#I"/><use transform="matrix(0.06172839506172839,0,0,0.06172839506172839,87.34567901234568,0)" xlink:href="#J"/><use transform="matrix(0.06172839506172839,0,0,0.06172839506172839,92.22222222222223,0)" xlink:href="#K"/></g><path fill="#fff" d="M185-189c-5-48-123-54-124 2 14 75 158 14 163 119 3 78-121 87-175 55-17-10-28-26-33-46l33-7c5 56 141 63 141-1 0-78-155-14-162-118-5-82 145-84 179-34 5 7 8 16 11 25" id="U"/><path fill="#fff" d="M206 0h-36l-40-164L89 0H53L-1-190h32L70-26l43-164h34l41 164 42-164h31" id="V"/><path fill="#fff" d="M177-190C167-65 218 103 67 71c-23-6-38-20-44-43l32-5c15 47 100 32 89-28v-30C133-14 115 1 83 1 29 1 15-40 15-95c0-56 16-97 71-98 29-1 48 16 59 35 1-10 0-23 2-32h30zM94-22c36 0 50-32 50-73 0-42-14-75-50-75-39 0-46 34-46 75s6 73 46 73" id="W"/><g id="l"><use transform="matrix(0.06172839506172839,0,0,0.06172839506172839,0,0)" xlink:href="#U"/><use transform="matrix(0.06172839506172839,0,0,0.06172839506172839,14.814814814814813,0)" xlink:href="#V"/><use transform="matrix(0.06172839506172839,0,0,0.06172839506172839,30.80246913580247,0)" xlink:href="#G"/><use transform="matrix(0.06172839506172839,0,0,0.06172839506172839,35.67901234567901,0)" xlink:href="#M"/><use transform="matrix(0.06172839506172839,0,0,0.06172839506172839,48.02469135802469,0)" xlink:href="#W"/><use transform="matrix(0.06172839506172839,0,0,0.06172839506172839,60.37037037037037,0)" xlink:href="#F"/><use transform="matrix(0.06172839506172839,0,0,0.06172839506172839,76.35802469135803,0)" xlink:href="#G"/><use transform="matrix(0.06172839506172839,0,0,0.06172839506172839,81.23456790123457,0)" xlink:href="#H"/><use transform="matrix(0.06172839506172839,0,0,0.06172839506172839,88.58024691358025,0)" xlink:href="#I"/><use transform="matrix(0.06172839506172839,0,0,0.06172839506172839,99.69135802469137,0)" xlink:href="#J"/><use transform="matrix(0.06172839506172839,0,0,0.06172839506172839,104.56790123456791,0)" xlink:href="#K"/></g><path fill="#fff" d="M125-24c46 0 70-25 89-51l25 16C214-24 183 4 123 4 8 4-5-146 60-208c32-50 158-61 191-5 5 7 9 14 11 22l-32 10c-9-28-33-43-69-43-74 0-108 51-108 125 0 46 24 75 72 75" id="X"/><path fill="#fff" d="M44-68c0 29 11 47 38 47 30 0 42-19 51-41l28 9C148-21 126 4 82 4 31 4 10-29 12-85c3-77 74-140 146-93 12 8 15 23 18 40l-31 5c-1-22-13-36-36-36-52 0-65 49-65 101" id="Y"/><path fill="#fff" d="M6 0l50-261h32L37 0H6" id="Z"/><g id="m"><use transform="matrix(0.06172839506172839,0,0,0.06172839506172839,0,0)" xlink:href="#X"/><use transform="matrix(0.06172839506172839,0,0,0.06172839506172839,15.987654320987653,0)" xlink:href="#A"/><use transform="matrix(0.06172839506172839,0,0,0.06172839506172839,20.864197530864196,0)" xlink:href="#s"/><use transform="matrix(0.06172839506172839,0,0,0.06172839506172839,28.209876543209873,0)" xlink:href="#Y"/><use transform="matrix(0.06172839506172839,0,0,0.06172839506172839,39.32098765432099,0)" xlink:href="#Z"/><use transform="matrix(0.06172839506172839,0,0,0.06172839506172839,44.19753086419753,0)" xlink:href="#p"/></g></defs></g></svg>