<svg xmlns="http://www.w3.org/2000/svg" xmlns:xlink="http://www.w3.org/1999/xlink" xmlns:lucid="lucid" width="560" height="540"><g transform="translate(-540 -200)" lucid:page-tab-id="_hsnud.tORf9"><path d="M560 226c0-3.3 2.7-6 6-6h148c3.3 0 6 2.7 6 6v68c0 3.3-2.7 6-6 6H566c-3.3 0-6-2.7-6-6z" stroke="#fff" stroke-width="3" fill-opacity="0"/><use xlink:href="#a" transform="matrix(1,0,0,1,568,228) translate(13.574999999999996 24.799999999999997)"/><use xlink:href="#b" transform="matrix(1,0,0,1,568,228) translate(38.14999999999999 46.4)"/><path d="M560 386c0-3.3 2.7-6 6-6h148c3.3 0 6 2.7 6 6v48c0 3.3-2.7 6-6 6H566c-3.3 0-6-2.7-6-6z" stroke="#fff" stroke-width="3" fill-opacity="0"/><use xlink:href="#c" transform="matrix(1,0,0,1,568,388) translate(12.7716049382716 26.444444444444443)"/><path d="M880 386c0-3.3 2.7-6 6-6h188c3.3 0 6 2.7 6 6v48c0 3.3-2.7 6-6 6H886c-3.3 0-6-2.7-6-6z" stroke="#fff" stroke-width="3" fill-opacity="0"/><use xlink:href="#d" transform="matrix(1,0,0,1,888,388) translate(19.901234567901227 26.444444444444443)"/><path d="M880 246c0-3.3 2.7-6 6-6h188c3.3 0 6 2.7 6 6v48c0 3.3-2.7 6-6 6H886c-3.3 0-6-2.7-6-6z" stroke="#fff" stroke-width="3" fill-opacity="0"/><use xlink:href="#e" transform="matrix(1,0,0,1,888,248) translate(19.839506172839506 26.444444444444443)"/><path d="M880 666c0-3.3 2.7-6 6-6h188c3.3 0 6 2.7 6 6v48c0 3.3-2.7 6-6 6H886c-3.3 0-6-2.7-6-6z" stroke="#fff" stroke-width="3" fill-opacity="0"/><use xlink:href="#f" transform="matrix(1,0,0,1,888,668) translate(34.06790123456789 26.444444444444443)"/><path d="M880 526c0-3.3 2.7-6 6-6h188c3.3 0 6 2.7 6 6v48c0 3.3-2.7 6-6 6H886c-3.3 0-6-2.7-6-6z" stroke="#fff" stroke-width="3" fill-opacity="0"/><use xlink:href="#g" transform="matrix(1,0,0,1,888,528) translate(34.00617283950616 26.444444444444443)"/><path d="M980 657.5v-51.52" stroke="#fff" stroke-width="2" fill="none"/><path d="M981 658.5h-2v-1.03h2z" stroke="#fff" stroke-width=".05" fill="#fff"/><path d="M980 583.46l12.73 21.52h-25.46z" stroke="#fff" stroke-width="2" fill="#fff"/><path d="M980 377.5v-51.52" stroke="#fff" stroke-width="2" fill="none"/><path d="M981 378.5h-2v-1.03h2z" stroke="#fff" stroke-width=".05" fill="#fff"/><path d="M980 303.46l12.73 21.52h-25.46z" stroke="#fff" stroke-width="2" fill="#fff"/><path d="M722.5 410h155" stroke="#fff" stroke-width="2" fill="none"/><path d="M722.53 411h-1.03v-2h1.03zM878.5 411h-1.03v-2h1.03z" stroke="#fff" stroke-width=".05" fill="#fff"/><use xlink:href="#h" transform="matrix(1,0,0,1,860.3950617283951,384.6666666666667) translate(0 14.222222222222223)"/><use xlink:href="#h" transform="matrix(1,0,0,1,731.0617283950618,414) translate(0 14.222222222222223)"/><path d="M640 442.5V684c0 3.3 2.7 6 6 6h231.5" stroke="#fff" stroke-width="2" fill="none"/><path d="M641 442.53h-2v-1.03h2zM878.5 691h-1.03v-2h1.03z" stroke="#fff" stroke-width=".05" fill="#fff"/><use xlink:href="#h" transform="matrix(1,0,0,1,859.0617283950618,664.6666666666666) translate(0 14.222222222222223)"/><use xlink:href="#h" transform="matrix(1,0,0,1,622.1234567901234,449.3333333333333) translate(0 14.222222222222223)"/><path d="M640 377.5v-3.1m0-4.1v-6.2m0-4.12v-6.18m0-4.12v-6.18m0-4.12v-6.18m0-4.13v-3.1" stroke="#fff" stroke-width="2" fill="none"/><path d="M641 378.5h-2v-1.03h2z" stroke="#fff" stroke-width=".05" fill="#fff"/><path d="M640 303.46l12.73 21.52h-25.46z" stroke="#fff" stroke-width="2" fill="#fff"/><defs><path fill="#fff" d="M15-91v-56l181-69v40L49-119l147 57v40" id="i"/><path fill="#fff" d="M25-224v-37h50v37H25zM25 0v-190h50V0H25" id="j"/><path fill="#fff" d="M135-194c87-1 58 113 63 194h-50c-7-57 23-157-34-157-59 0-34 97-39 157H25l-1-190h47c2 12-1 28 3 38 12-26 28-41 61-42" id="k"/><path fill="#fff" d="M115-3C79 11 28 4 28-45v-112H4v-33h27l15-45h31v45h36v33H77v99c-1 23 16 31 38 25v30" id="l"/><path fill="#fff" d="M185-48c-13 30-37 53-82 52C43 2 14-33 14-96s30-98 90-98c62 0 83 45 84 108H66c0 31 8 55 39 56 18 0 30-7 34-22zm-45-69c5-46-57-63-70-21-2 6-4 13-4 21h74" id="m"/><path fill="#fff" d="M135-150c-39-12-60 13-60 57V0H25l-1-190h47c2 13-1 29 3 40 6-28 27-53 61-41v41" id="n"/><path fill="#fff" d="M121-226c-27-7-43 5-38 36h38v33H83V0H34v-157H6v-33h28c-9-59 32-81 87-68v32" id="o"/><path fill="#fff" d="M133-34C117-15 103 5 69 4 32 3 11-16 11-54c-1-60 55-63 116-61 1-26-3-47-28-47-18 1-26 9-28 27l-52-2c7-38 36-58 82-57s74 22 75 68l1 82c-1 14 12 18 25 15v27c-30 8-71 5-69-32zm-48 3c29 0 43-24 42-57-32 0-66-3-65 30 0 17 8 27 23 27" id="p"/><path fill="#fff" d="M190-63c-7 42-38 67-86 67-59 0-84-38-90-98-12-110 154-137 174-36l-49 2c-2-19-15-32-35-32-30 0-35 28-38 64-6 74 65 87 74 30" id="q"/><path fill="#fff" d="M15-22v-40l146-57-146-57v-40l181 69v56" id="r"/><g id="a"><use transform="matrix(0.05,0,0,0.05,0,0)" xlink:href="#i"/><use transform="matrix(0.05,0,0,0.05,10.5,0)" xlink:href="#i"/><use transform="matrix(0.05,0,0,0.05,21,0)" xlink:href="#j"/><use transform="matrix(0.05,0,0,0.05,26,0)" xlink:href="#k"/><use transform="matrix(0.05,0,0,0.05,36.95,0)" xlink:href="#l"/><use transform="matrix(0.05,0,0,0.05,42.900000000000006,0)" xlink:href="#m"/><use transform="matrix(0.05,0,0,0.05,52.900000000000006,0)" xlink:href="#n"/><use transform="matrix(0.05,0,0,0.05,59.900000000000006,0)" xlink:href="#o"/><use transform="matrix(0.05,0,0,0.05,65.85000000000001,0)" xlink:href="#p"/><use transform="matrix(0.05,0,0,0.05,75.85000000000001,0)" xlink:href="#q"/><use transform="matrix(0.05,0,0,0.05,85.85000000000001,0)" xlink:href="#m"/><use transform="matrix(0.05,0,0,0.05,95.85000000000001,0)" xlink:href="#r"/><use transform="matrix(0.05,0,0,0.05,106.35000000000001,0)" xlink:href="#r"/></g><path fill="#fff" d="M176-78C186 10 51 31 16-35c-5-9-9-19-11-32l52-8c4 21 12 37 35 38 23 0 32-16 32-40v-130H75v-41h101v170" id="s"/><path fill="#fff" d="M182-130c37 4 62 22 62 59C244 23 116-4 24 0v-248c84 5 203-23 205 63 0 31-19 50-47 55zM76-148c40-3 101 13 101-30 0-44-60-28-101-31v61zm0 110c48-3 116 14 116-37 0-48-69-32-116-35v72" id="t"/><path fill="#fff" d="M85 4C-2 5 27-109 22-190h50c7 57-23 150 33 157 60-5 35-97 40-157h50l1 190h-47c-2-12 1-28-3-38-12 25-28 42-61 42" id="u"/><path fill="#fff" d="M110-194c64 0 96 36 96 99 0 64-35 99-97 99-61 0-95-36-95-99 0-62 34-99 96-99zm-1 164c35 0 45-28 45-65 0-40-10-65-43-65-34 0-45 26-45 65 0 36 10 65 43 65" id="v"/><g id="b"><use transform="matrix(0.05,0,0,0.05,0,0)" xlink:href="#s"/><use transform="matrix(0.05,0,0,0.05,10,0)" xlink:href="#t"/><use transform="matrix(0.05,0,0,0.05,22.950000000000003,0)" xlink:href="#u"/><use transform="matrix(0.05,0,0,0.05,33.900000000000006,0)" xlink:href="#l"/><use transform="matrix(0.05,0,0,0.05,39.85000000000001,0)" xlink:href="#l"/><use transform="matrix(0.05,0,0,0.05,45.80000000000001,0)" xlink:href="#v"/><use transform="matrix(0.05,0,0,0.05,56.750000000000014,0)" xlink:href="#k"/></g><path fill="#fff" d="M30 0v-248h33v221h125V0H30" id="w"/><path fill="#fff" d="M141-36C126-15 110 5 73 4 37 3 15-17 15-53c-1-64 63-63 125-63 3-35-9-54-41-54-24 1-41 7-42 31l-33-3c5-37 33-52 76-52 45 0 72 20 72 64v82c-1 20 7 32 28 27v20c-31 9-61-2-59-35zM48-53c0 20 12 33 32 33 41-3 63-29 60-74-43 2-92-5-92 41" id="x"/><path fill="#fff" d="M115-194c53 0 69 39 70 98 0 66-23 100-70 100C84 3 66-7 56-30L54 0H23l1-261h32v101c10-23 28-34 59-34zm-8 174c40 0 45-34 45-75 0-40-5-75-45-74-42 0-51 32-51 76 0 43 10 73 51 73" id="y"/><path fill="#fff" d="M100-194c63 0 86 42 84 106H49c0 40 14 67 53 68 26 1 43-12 49-29l28 8c-11 28-37 45-77 45C44 4 14-33 15-96c1-61 26-98 85-98zm52 81c6-60-76-77-97-28-3 7-6 17-6 28h103" id="z"/><path fill="#fff" d="M24 0v-261h32V0H24" id="A"/><path fill="#fff" d="M160-131c35 5 61 23 61 61C221 17 115-2 30 0v-248c76 3 177-17 177 60 0 33-19 50-47 57zm-97-11c50-1 110 9 110-42 0-47-63-36-110-37v79zm0 115c55-2 124 14 124-45 0-56-70-42-124-44v89" id="B"/><path fill="#fff" d="M84 4C-5 8 30-112 23-190h32v120c0 31 7 50 39 49 72-2 45-101 50-169h31l1 190h-30c-1-10 1-25-2-33-11 22-28 36-60 37" id="C"/><path fill="#fff" d="M59-47c-2 24 18 29 38 22v24C64 9 27 4 27-40v-127H5v-23h24l9-43h21v43h35v23H59v120" id="D"/><path fill="#fff" d="M100-194c62-1 85 37 85 99 1 63-27 99-86 99S16-35 15-95c0-66 28-99 85-99zM99-20c44 1 53-31 53-75 0-43-8-75-51-75s-53 32-53 75 10 74 51 75" id="E"/><path fill="#fff" d="M117-194c89-4 53 116 60 194h-32v-121c0-31-8-49-39-48C34-167 62-67 57 0H25l-1-190h30c1 10-1 24 2 32 11-22 29-35 61-36" id="F"/><g id="c"><use transform="matrix(0.06172839506172839,0,0,0.06172839506172839,0,0)" xlink:href="#w"/><use transform="matrix(0.06172839506172839,0,0,0.06172839506172839,12.345679012345679,0)" xlink:href="#x"/><use transform="matrix(0.06172839506172839,0,0,0.06172839506172839,24.691358024691358,0)" xlink:href="#y"/><use transform="matrix(0.06172839506172839,0,0,0.06172839506172839,37.03703703703704,0)" xlink:href="#z"/><use transform="matrix(0.06172839506172839,0,0,0.06172839506172839,49.382716049382715,0)" xlink:href="#A"/><use transform="matrix(0.06172839506172839,0,0,0.06172839506172839,54.25925925925926,0)" xlink:href="#B"/><use transform="matrix(0.06172839506172839,0,0,0.06172839506172839,69.07407407407408,0)" xlink:href="#C"/><use transform="matrix(0.06172839506172839,0,0,0.06172839506172839,81.41975308641976,0)" xlink:href="#D"/><use transform="matrix(0.06172839506172839,0,0,0.06172839506172839,87.5925925925926,0)" xlink:href="#D"/><use transform="matrix(0.06172839506172839,0,0,0.06172839506172839,93.76543209876543,0)" xlink:href="#E"/><use transform="matrix(0.06172839506172839,0,0,0.06172839506172839,106.11111111111111,0)" xlink:href="#F"/></g><path fill="#fff" d="M240 0l2-218c-23 76-54 145-80 218h-23L58-218 59 0H30v-248h44l77 211c21-75 51-140 76-211h43V0h-30" id="G"/><path fill="#fff" d="M135-143c-3-34-86-38-87 0 15 53 115 12 119 90S17 21 10-45l28-5c4 36 97 45 98 0-10-56-113-15-118-90-4-57 82-63 122-42 12 7 21 19 24 35" id="H"/><path fill="#fff" d="M197 0v-115H63V0H30v-248h33v105h134v-105h34V0h-34" id="I"/><path fill="#fff" d="M85-194c31 0 48 13 60 33l-1-100h32l1 261h-30c-2-10 0-23-3-31C134-8 116 4 85 4 32 4 16-35 15-94c0-66 23-100 70-100zm9 24c-40 0-46 34-46 75 0 40 6 74 45 74 42 0 51-32 51-76 0-42-9-74-50-73" id="J"/><path fill="#fff" d="M114-163C36-179 61-72 57 0H25l-1-190h30c1 12-1 29 2 39 6-27 23-49 58-41v29" id="K"/><g id="d"><use transform="matrix(0.06172839506172839,0,0,0.06172839506172839,0,0)" xlink:href="#G"/><use transform="matrix(0.06172839506172839,0,0,0.06172839506172839,18.456790123456788,0)" xlink:href="#E"/><use transform="matrix(0.06172839506172839,0,0,0.06172839506172839,30.80246913580247,0)" xlink:href="#C"/><use transform="matrix(0.06172839506172839,0,0,0.06172839506172839,43.148148148148145,0)" xlink:href="#H"/><use transform="matrix(0.06172839506172839,0,0,0.06172839506172839,54.25925925925925,0)" xlink:href="#z"/><use transform="matrix(0.06172839506172839,0,0,0.06172839506172839,66.60493827160494,0)" xlink:href="#I"/><use transform="matrix(0.06172839506172839,0,0,0.06172839506172839,82.5925925925926,0)" xlink:href="#x"/><use transform="matrix(0.06172839506172839,0,0,0.06172839506172839,94.93827160493828,0)" xlink:href="#F"/><use transform="matrix(0.06172839506172839,0,0,0.06172839506172839,107.28395061728396,0)" xlink:href="#J"/><use transform="matrix(0.06172839506172839,0,0,0.06172839506172839,119.62962962962965,0)" xlink:href="#A"/><use transform="matrix(0.06172839506172839,0,0,0.06172839506172839,124.50617283950619,0)" xlink:href="#z"/><use transform="matrix(0.06172839506172839,0,0,0.06172839506172839,136.85185185185188,0)" xlink:href="#K"/></g><path fill="#fff" d="M205 0l-28-72H64L36 0H1l101-248h38L239 0h-34zm-38-99l-47-123c-12 45-31 82-46 123h93" id="L"/><path fill="#fff" d="M115-194c55 1 70 41 70 98S169 2 115 4C84 4 66-9 55-30l1 105H24l-1-265h31l2 30c10-21 28-34 59-34zm-8 174c40 0 45-34 45-75s-6-73-45-74c-42 0-51 32-51 76 0 43 10 73 51 73" id="M"/><g id="e"><use transform="matrix(0.06172839506172839,0,0,0.06172839506172839,0,0)" xlink:href="#G"/><use transform="matrix(0.06172839506172839,0,0,0.06172839506172839,18.456790123456788,0)" xlink:href="#E"/><use transform="matrix(0.06172839506172839,0,0,0.06172839506172839,30.80246913580247,0)" xlink:href="#C"/><use transform="matrix(0.06172839506172839,0,0,0.06172839506172839,43.148148148148145,0)" xlink:href="#H"/><use transform="matrix(0.06172839506172839,0,0,0.06172839506172839,54.25925925925925,0)" xlink:href="#z"/><use transform="matrix(0.06172839506172839,0,0,0.06172839506172839,66.60493827160494,0)" xlink:href="#L"/><use transform="matrix(0.06172839506172839,0,0,0.06172839506172839,81.41975308641975,0)" xlink:href="#J"/><use transform="matrix(0.06172839506172839,0,0,0.06172839506172839,93.76543209876543,0)" xlink:href="#x"/><use transform="matrix(0.06172839506172839,0,0,0.06172839506172839,106.11111111111111,0)" xlink:href="#M"/><use transform="matrix(0.06172839506172839,0,0,0.06172839506172839,118.4567901234568,0)" xlink:href="#D"/><use transform="matrix(0.06172839506172839,0,0,0.06172839506172839,124.62962962962963,0)" xlink:href="#z"/><use transform="matrix(0.06172839506172839,0,0,0.06172839506172839,136.97530864197532,0)" xlink:href="#K"/></g><path fill="#fff" d="M194 0L95-120 63-95V0H30v-248h33v124l119-124h40L117-140 236 0h-42" id="N"/><path fill="#fff" d="M179-190L93 31C79 59 56 82 12 73V49c39 6 53-20 64-50L1-190h34L92-34l54-156h33" id="O"/><g id="f"><use transform="matrix(0.06172839506172839,0,0,0.06172839506172839,0,0)" xlink:href="#N"/><use transform="matrix(0.06172839506172839,0,0,0.06172839506172839,14.814814814814813,0)" xlink:href="#z"/><use transform="matrix(0.06172839506172839,0,0,0.06172839506172839,27.160493827160494,0)" xlink:href="#O"/><use transform="matrix(0.06172839506172839,0,0,0.06172839506172839,38.27160493827161,0)" xlink:href="#I"/><use transform="matrix(0.06172839506172839,0,0,0.06172839506172839,54.25925925925926,0)" xlink:href="#x"/><use transform="matrix(0.06172839506172839,0,0,0.06172839506172839,66.60493827160494,0)" xlink:href="#F"/><use transform="matrix(0.06172839506172839,0,0,0.06172839506172839,78.95061728395062,0)" xlink:href="#J"/><use transform="matrix(0.06172839506172839,0,0,0.06172839506172839,91.2962962962963,0)" xlink:href="#A"/><use transform="matrix(0.06172839506172839,0,0,0.06172839506172839,96.17283950617285,0)" xlink:href="#z"/><use transform="matrix(0.06172839506172839,0,0,0.06172839506172839,108.51851851851853,0)" xlink:href="#K"/></g><g id="g"><use transform="matrix(0.06172839506172839,0,0,0.06172839506172839,0,0)" xlink:href="#N"/><use transform="matrix(0.06172839506172839,0,0,0.06172839506172839,14.814814814814813,0)" xlink:href="#z"/><use transform="matrix(0.06172839506172839,0,0,0.06172839506172839,27.160493827160494,0)" xlink:href="#O"/><use transform="matrix(0.06172839506172839,0,0,0.06172839506172839,38.27160493827161,0)" xlink:href="#L"/><use transform="matrix(0.06172839506172839,0,0,0.06172839506172839,53.08641975308642,0)" xlink:href="#J"/><use transform="matrix(0.06172839506172839,0,0,0.06172839506172839,65.4320987654321,0)" xlink:href="#x"/><use transform="matrix(0.06172839506172839,0,0,0.06172839506172839,77.77777777777779,0)" xlink:href="#M"/><use transform="matrix(0.06172839506172839,0,0,0.06172839506172839,90.12345679012347,0)" xlink:href="#D"/><use transform="matrix(0.06172839506172839,0,0,0.06172839506172839,96.2962962962963,0)" xlink:href="#z"/><use transform="matrix(0.06172839506172839,0,0,0.06172839506172839,108.64197530864199,0)" xlink:href="#K"/></g><path fill="#fff" d="M23 0v-37h61v-169l-59 37v-38l62-41h46v211h57V0H23" id="P"/><use transform="matrix(0.04938271604938272,0,0,0.04938271604938272,0,0)" xlink:href="#P" id="h"/></defs></g></svg>