<svg xmlns="http://www.w3.org/2000/svg" xmlns:xlink="http://www.w3.org/1999/xlink" xmlns:lucid="lucid" width="1280" height="1651.67"><g transform="translate(1360 -260)" lucid:page-tab-id="y8OmSbWuwE-6"><path d="M-1177.75 292.25c0 6.77-5.48 12.25-12.25 12.25s-12.25-5.48-12.25-12.25S-1196.77 280-1190 280s12.25 5.48 12.25 12.25z" stroke="#fff" stroke-width="3" fill-opacity="0"/><path d="M-1190 304.5v28.3c0 3.3 1.63 8.13 3.65 10.76L-1160 378m-30-39.2l-30 39.2m0-61.25h60" stroke="#fff" stroke-width="3" fill="none"/><path d="M-1220 286c0-3.3 2.7-6 6-6h48c3.3 0 6 2.7 6 6v108c0 3.3-2.7 6-6 6h-48c-3.3 0-6-2.7-6-6z" fill="none"/><use xlink:href="#a" transform="matrix(1,0,0,1,-1300,378) translate(84.10493827160494 17.77777777777778)"/><path d="M-1000 306c0-3.3 2.7-6 6-6h148c3.3 0 6 2.7 6 6v68c0 3.3-2.7 6-6 6h-148c-3.3 0-6-2.7-6-6z" stroke="#fff" stroke-width="3" fill-opacity="0"/><use xlink:href="#b" transform="matrix(1,0,0,1,-1000,300) translate(60.73 44.4)"/><path d="M-680 306c0-3.3 2.7-6 6-6h148c3.3 0 6 2.7 6 6v68c0 3.3-2.7 6-6 6h-148c-3.3 0-6-2.7-6-6z" stroke="#fff" stroke-width="3" fill-opacity="0"/><use xlink:href="#c" transform="matrix(1,0,0,1,-680,300) translate(41.12999999999999 44.4)"/><path d="M-360 306c0-3.3 2.7-6 6-6h148c3.3 0 6 2.7 6 6v68c0 3.3-2.7 6-6 6h-148c-3.3 0-6-2.7-6-6z" stroke="#fff" stroke-width="3" fill-opacity="0"/><use xlink:href="#d" transform="matrix(1,0,0,1,-360,300) translate(55.555 44.4)"/><path d="M-920 382.5v3m0 4v5.98m0 4v5.98m0 4v5.98m0 4v5.98m0 4v5.98m0 4v5.98m0 4v5.98m0 4v6m0 3.98v6m0 3.98v6m0 3.98v6m0 3.98v6m0 3.98v6m0 3.98v6m0 4v5.97m0 4v6m0 4v5.98m0 4v5.98m0 4v5.98m0 4v5.98m0 4v5.98m0 4v5.98m0 4v6m0 3.98v6m0 3.98v6m0 3.98v6m0 3.98v6m0 3.98v6m0 4v5.97m0 4v6m0 3.98v6m0 3.98v6m0 4v5.98m0 4v5.98m0 4v5.98m0 4v5.98m0 4v5.98m0 4v6m0 3.98v6m0 3.98v6m0 3.98v6m0 3.98v6m0 3.98v6m0 4v5.97m0 4v6m0 3.98v6m0 3.98v6m0 3.98v6m0 4v5.98m0 4v5.98m0 4v5.98m0 4v6m0 3.98v6m0 3.98v6m0 3.98v6m0 3.98v6m0 3.98v6m0 3.98v6m0 4v5.97m0 4v5.98m0 4v5.98m0 4v5.98m0 4v5.98m0 4v5.98m0 4v5.98m0 4v5.98m0 4v6m0 3.98v6m0 3.98v6m0 3.98v6m0 3.98v6m0 3.98v6m0 3.98v6m0 4v5.98m0 4v5.98m0 4v5.98m0 4v5.98m0 4v5.98m0 4v5.98m0 4v5.98m0 4v5.98m0 4v6m0 3.98v6m0 3.98v6m0 3.98v6m0 3.98v6m0 3.98v6m0 4v5.97m0 4v6m0 3.98v6m0 3.98v6m0 4v5.98m0 4v5.98m0 4v5.98m0 4v5.98m0 4v5.98m0 4v6m0 3.98v6m0 3.98v6m0 3.98v6m0 3.98v6m0 3.98v6m0 4v5.97m0 4v6m0 3.98v6m0 3.98v6m0 3.98v6m0 4v5.98m0 4v5.98m0 4v5.98m0 4v6m0 3.98v6m0 3.98v6m0 3.98v6m0 3.98v6m0 3.98v6m0 3.98v6m0 4v5.97m0 4v5.98m0 4v5.98m0 4v5.98m0 4v5.98m0 4v5.98m0 4v5.98m0 4v5.98m0 4v6m0 3.98v6m0 3.98v6m0 3.98v6m0 3.98v6m0 3.98v6m0 4v5.97m0 4v6m0 3.98v6m0 4v5.98m0 4v5.98m0 4v5.98m0 4v5.98m0 4v5.98m0 4v5.98m0 4v6m0 3.98v6m0 3.98v6m0 3.98v6m0 3.98v6m0 3.98v6m0 4v5.97m0 4v6m0 3.98v6m0 3.98v6m0 4v5.98m0 4v3" stroke="#fff" stroke-width="2" fill="none"/><path d="M-919 382.53h-2v-1.03h2z" stroke="#fff" stroke-width=".05" fill="#fff"/><path d="M-920 1899.64v1.03M-600 382.5v3m0 4v6.03m0 4v6.02m0 4v6.02m0 4v6.02m0 4v6m0 4.02v6m0 4.02v6m0 4.02v6m0 4.02v6.02m0 4v6.02m0 4v6.02m0 4v6.02m0 4v6.02m0 4v6.02m0 4v6.02m0 4v6.02m0 4v6.02m0 4v6.02m0 4v6.02m0 4v6.03m0 4v6.02m0 4v6.02m0 4V616m0 4v6m0 4.02v6m0 4.02v6m0 4.02v6m0 4.02v6m0 4.02v6m0 4.02v6.02m0 4v6.02m0 4v6.02m0 4v6.02m0 4v6.02m0 4v6.02m0 4v6.02m0 4v6.02m0 4v6.02m0 4v6.02m0 4v6.03m0 4v6.02m0 4v6.02m0 4v6m0 4.02v6m0 4.02v6m0 4.02v6m0 4.02v6m0 4.02v6m0 4.02v6m0 4.02v6m0 4.02v6.02m0 4v6.02m0 4v6.02m0 4v6.02m0 4v6.02m0 4v6.02m0 4v6.02m0 4v6.02m0 4v6.02m0 4v6.02m0 4v6.03m0 4v6m0 4v6.03m0 4v6.02m0 4v6.02m0 4v6.02m0 4v6m0 4.02v6m0 4.02v6m0 4.02v6m0 4.02v6.02m0 4v6.02m0 4v6.02m0 4v6.02m0 4v6.02m0 4v6.02m0 4v6.02m0 4v6.02m0 4v6.02m0 4v6.02m0 4v6.02m0 4v6.03m0 4v6.02m0 4v6.02m0 4v6.02m0 4v6m0 4.02v6m0 4.02v6m0 4.02v6m0 4.02v6m0 4.02v6m0 4.02v6.02m0 4v6.02m0 4v6.02m0 4v6.02m0 4v6.02m0 4v6.02m0 4v6.02m0 4v6.02m0 4v6.02m0 4v6.02m0 4v6.03m0 4v6.02m0 4v6.02m0 4v6m0 4.02v6m0 4.02v6m0 4.02v6m0 4.02v6m0 4.02v6m0 4.02v6m0 4.02v6.02m0 4v6.02m0 4v6.02m0 4v6.02m0 4v6.02m0 4v6.02m0 4v6.02m0 4v6.02m0 4v6.02m0 4v6.02m0 4v6.02m0 4v6.03m0 4v6m0 4.02v6m0 4.02v6m0 4.02v6m0 4.02v6m0 4.02v6m0 4.02v6m0 4.02v6m0 4.02v6m0 4.02v6.02m0 4v6.02m0 4v6.02m0 4v6.02m0 4v6.02m0 4v6.02m0 4v6.02m0 4v6.02m0 4v6.02m0 4v6.02m0 4v6.03m0 4v6.03m0 4v6.02m0 4v6.02m0 4v6.02m0 4v6m0 4.02v6m0 4.02v6m0 4.02v3" stroke="#fff" stroke-width="2" fill="none"/><path d="M-599 382.53h-2v-1.03h2z" stroke="#fff" stroke-width=".05" fill="#fff"/><path d="M-600 1895.64v1.03M-280 382.5v3m0 3.98v6m0 3.98v6m0 3.98v5.98m0 4v5.98m0 4v5.98m0 4v5.97m0 4v5.98m0 4v5.98m0 4v5.98m0 4v5.98m0 4v5.98m0 4v5.97m0 4v6m0 3.98v6m0 3.98v6m0 3.98v5.98m0 4v5.98m0 4v5.98m0 4v5.97m0 4v5.98m0 4V595m0 4v5.98m0 4v5.98m0 4v5.98m0 4v5.97m0 4v6m0 3.98v6m0 3.98v5.98m0 4v5.98m0 4v5.98m0 4v5.97m0 4v5.98m0 4v5.98m0 4v5.97m0 4v5.98m0 4v5.98m0 4v5.98m0 4v5.97m0 4v6m0 3.98v6m0 3.98v5.98m0 4v5.98m0 4v5.98m0 4v5.97m0 4v5.98m0 4v5.98m0 4v5.97m0 4v5.98m0 4v5.98m0 4v5.97m0 4v5.98m0 4v6m0 3.98v5.98m0 4v5.98m0 4v5.98m0 4v5.98m0 4v5.97m0 4v5.98m0 4v5.98m0 4v5.97m0 4v5.98m0 4v5.98m0 4v5.97m0 4v5.98m0 4v6m0 3.98v5.98m0 4v5.98m0 4v5.98m0 4v5.97m0 3.98v6m0 3.98v6m0 3.98v5.98m0 4v5.98m0 4v5.98m0 4v5.97m0 4v5.98m0 4v5.98m0 4v6m0 3.98v5.98m0 4v5.98m0 4v5.98m0 4v5.97m0 3.98v6m0 3.98v6m0 3.98v5.98m0 4v5.98m0 4v5.98m0 4v5.97m0 4v5.98m0 4v5.98m0 4v5.98m0 4v5.98m0 4v5.98m0 4v5.97m0 4v6m0 3.98v6m0 3.98v5.98m0 4v5.98m0 4v5.98m0 4v5.98m0 4v5.97m0 4v5.98m0 4v5.98m0 4v5.98m0 4v5.98m0 4v5.98m0 4v5.97m0 4v6m0 3.98v6m0 3.98v5.98m0 4v5.98m0 4v5.98m0 4v5.97m0 4v5.98m0 4v5.98m0 4v5.97m0 4v5.98m0 4v5.98m0 4v5.97m0 4v5.98m0 4v6m0 3.98v6m0 3.98v5.98m0 4v5.98m0 4v5.98m0 4v5.97m0 4v5.98m0 4v5.98m0 4v5.97m0 4v5.98m0 4v5.98m0 4v5.97m0 4v5.98m0 4v6m0 3.98v5.98m0 4v5.98m0 4v5.98m0 4v5.97m0 4v5.97m0 4v5.98m0 4v5.97m0 4v5.98m0 4v5.98m0 4v5.98m0 4v5.97m0 4v5.98m0 4v6m0 3.98v5.98m0 4v5.98m0 4v5.98m0 4v2.98" stroke="#fff" stroke-width="2" fill="none"/><path d="M-279 382.53h-2v-1.03h2z" stroke="#fff" stroke-width=".05" fill="#fff"/><path d="M-280 1888.97v1.03M-1190 403.67v3m0 3.97v6m0 3.97v6m0 3.98v5.98m0 4v5.97m0 4v5.97m0 4v5.97m0 4v5.97m0 4v5.97m0 4v5.98m0 3.98v6m0 3.97v6m0 3.97v5.98m0 4v5.97m0 4v5.97m0 4v5.97m0 3.98v5.98m0 4v5.97m0 4v5.97m0 3.98v6m0 3.97v6m0 3.97V616m0 4v5.97m0 4v5.97m0 4v5.97m0 4v5.98m0 4v5.97m0 4v5.97m0 3.98v6m0 3.97v6m0 3.97v5.98m0 4v5.97m0 3.98v5.98m0 4v5.97m0 4v5.97m0 4v5.97m0 4v5.97m0 3.98v6m0 3.97v5.98m0 3.98v5.98m0 4v5.97m0 4v5.98m0 4v5.97m0 4v5.97m0 4v5.97m0 3.98v5.98m0 3.98v6m0 3.97v6m0 3.98v5.98m0 4v5.97m0 4v5.97m0 4v5.97m0 4v5.97m0 4V935m0 4v5.98m0 3.98v6m0 3.97v6m0 3.97v5.98m0 4v5.97m0 4v5.97m0 4v5.97m0 3.98v5.98m0 4v5.97m0 4v5.97m0 3.98v6m0 3.97v6m0 3.97v5.98m0 4v5.97m0 4v5.97m0 4v5.97m0 4v5.98m0 4v5.97m0 4v5.97m0 3.98v6m0 3.97v6m0 3.97v5.98m0 4v5.97m0 3.98v5.98m0 4v5.97m0 4v5.97m0 4v5.97m0 4v5.97m0 3.98v6m0 3.97v5.98m0 3.98v5.98m0 4v5.97m0 4v5.98m0 4v5.97m0 4v5.97m0 4v5.97m0 3.98v5.98m0 3.98v6m0 3.97v6m0 3.98v5.98m0 4v5.97m0 4v5.97m0 4v5.97m0 4v5.97m0 4v5.97m0 4v5.98m0 3.98v6m0 3.97v6m0 3.97v5.98m0 4v5.97m0 4v5.97m0 4v5.97m0 3.98v5.98m0 4v5.97m0 4v5.97m0 3.98v6m0 3.97v6m0 3.97v5.98m0 4v5.97m0 4v5.97m0 4v5.97m0 4v5.98m0 4v5.97m0 4v5.97m0 3.98v6m0 3.97v6m0 3.97v5.98m0 4v5.97m0 3.98v5.98m0 4v5.97m0 4v5.97m0 4v5.97m0 4v5.97m0 3.98v6m0 3.97v5.98m0 3.98v5.98m0 4v5.97m0 4v5.98m0 4v5.97m0 4v5.97m0 4v5.97m0 3.98v5.98m0 3.98v6m0 3.97v6m0 3.98v5.98m0 4v5.97m0 4v5.97m0 4v5.97m0 4v5.97m0 4v5.97m0 4v5.98m0 3.98v6m0 3.97v6m0 3.97v5.98m0 4v5.97m0 4v5.97m0 4v2.98M-1190 403.7v-1.03M-1190 1898.97v1.03" stroke="#fff" stroke-width="2" fill="none"/><path d="M-1210 426c0-3.3 2.7-6 6-6h28c3.3 0 6 2.7 6 6v1448c0 3.3-2.7 6-6 6h-28c-3.3 0-6-2.7-6-6zM-940 426c0-3.3 2.7-6 6-6h28c3.3 0 6 2.7 6 6v148c0 3.3-2.7 6-6 6h-28c-3.3 0-6-2.7-6-6z" stroke="#fff" stroke-width="3" fill="#282c33"/><path d="M-1167.5 445.33H-960" stroke="#fff" stroke-width="2" fill="none"/><path d="M-1167.47 446.33h-1.03v-2h1.03z" stroke="#fff" stroke-width=".05" fill="#fff"/><path d="M-944.74 445.33l-14.26 4.64v-9.27z" stroke="#fff" stroke-width="2" fill="#fff"/><use xlink:href="#e" transform="matrix(1,0,0,1,-1097.8395061728395,419.9999999999999) translate(0 14.222222222222223)"/><use xlink:href="#f" transform="matrix(1,0,0,1,-1097.8395061728395,419.9999999999999) translate(39.358024691358025 14.222222222222223)"/><path d="M-920 486c0-3.3 2.7-6 6-6h28c3.3 0 6 2.7 6 6v48c0 3.3-2.7 6-6 6h-28c-3.3 0-6-2.7-6-6z" stroke="#fff" stroke-width="3" fill="#282c33"/><path d="M-897.5 465.33h52.83c3.3 0 6 2.7 6 6v7.83c0 3.3-2.7 6-6 6h-15.5" stroke="#fff" stroke-width="2" fill="none"/><path d="M-897.47 466.33h-1.03v-2h1.03z" stroke="#fff" stroke-width=".05" fill="#fff"/><path d="M-875.44 485.16l14.27-4.64v9.28z" stroke="#fff" stroke-width="2" fill="#fff"/><use xlink:href="#g" transform="matrix(1,0,0,1,-830.6733061783464,454.6666666666666) translate(0 14.222222222222223)"/><use xlink:href="#h" transform="matrix(1,0,0,1,-830.6733061783464,454.6666666666666) translate(69.92592592592592 14.222222222222223)"/><path d="M-942.5 569.33h-3.07m-4.1 0h-6.13m-4.1 0H-966m-4.1 0h-6.13m-4.1 0h-6.13m-4.1 0h-6.12m-4.1 0h-6.13m-4.1 0h-6.13m-4.1 0h-6.13m-4.08 0h-6.13m-4.1 0h-6.14m-4.1 0h-6.23m-4.22 0h-6.32m-4.22 0h-6.34m-4.22 0h-6.33m-4.22 0h-6.34m-4.2 0h-6.34m-4.22 0h-6.34m-4.22 0h-6.33m-4.23 0h-6.33m-4.23 0h-3.17" stroke="#fff" stroke-width="2" fill="none"/><path d="M-941.5 570.33h-1.03v-2h1.03z" stroke="#fff" stroke-width=".05" fill="#fff"/><path d="M-1165.26 569.33l14.26-4.63v9.27z" stroke="#fff" stroke-width="2" fill="#fff"/><use xlink:href="#i" transform="matrix(1,0,0,1,-1133.3456790123457,573.3333333333334) translate(0 14.222222222222223)"/><path d="M-940 626c0-3.3 2.7-6 6-6h28c3.3 0 6 2.7 6 6v388c0 3.3-2.7 6-6 6h-28c-3.3 0-6-2.7-6-6z" stroke="#fff" stroke-width="3" fill="#282c33"/><path d="M-1167.5 641.33H-960" stroke="#fff" stroke-width="2" fill="none"/><path d="M-1167.47 642.33h-1.03v-2h1.03z" stroke="#fff" stroke-width=".05" fill="#fff"/><path d="M-944.74 641.33l-14.26 4.64v-9.27z" stroke="#fff" stroke-width="2" fill="#fff"/><use xlink:href="#j" transform="matrix(1,0,0,1,-1147.0493827160494,616.0000000000001) translate(0 14.222222222222223)"/><use xlink:href="#k" transform="matrix(1,0,0,1,-1147.0493827160494,616.0000000000001) translate(37.38271604938272 14.222222222222223)"/><use xlink:href="#l" transform="matrix(1,0,0,1,-1147.0493827160494,616.0000000000001) translate(73.82716049382717 14.222222222222223)"/><use xlink:href="#m" transform="matrix(1,0,0,1,-1147.0493827160494,616.0000000000001) translate(122.0246913580247 14.222222222222223)"/><use xlink:href="#n" transform="matrix(1,0,0,1,-1147.0493827160494,616.0000000000001) translate(143.65432098765433 14.222222222222223)"/><path d="M-920 676c0-3.3 2.7-6 6-6h28c3.3 0 6 2.7 6 6v48c0 3.3-2.7 6-6 6h-28c-3.3 0-6-2.7-6-6z" stroke="#fff" stroke-width="3" fill="#282c33"/><path d="M-897.5 648h53c3.3 0 6 2.7 6 6v29.33c0 3.32-2.7 6-6 6H-860" stroke="#fff" stroke-width="2" fill="none"/><path d="M-897.47 649h-1.03v-2h1.03z" stroke="#fff" stroke-width=".05" fill="#fff"/><path d="M-875.26 689.33l14.26-4.63v9.27z" stroke="#fff" stroke-width="2" fill="#fff"/><use xlink:href="#o" transform="matrix(1,0,0,1,-830.5,648) translate(0 14.222222222222223)"/><use xlink:href="#p" transform="matrix(1,0,0,1,-830.5,648) translate(74.02469135802471 14.222222222222223)"/><path d="M-620 746c0-3.3 2.7-6 6-6h28c3.3 0 6 2.7 6 6v148c0 3.3-2.7 6-6 6h-28c-3.3 0-6-2.7-6-6z" stroke="#fff" stroke-width="3" fill="#282c33"/><path d="M-897.5 752H-640" stroke="#fff" stroke-width="2" fill="none"/><path d="M-897.47 753h-1.03v-2h1.03z" stroke="#fff" stroke-width=".05" fill="#fff"/><path d="M-624.74 752l-14.26 4.64v-9.28z" stroke="#fff" stroke-width="2" fill="#fff"/><use xlink:href="#q" transform="matrix(1,0,0,1,-806.2962962962963,726.6666666666666) translate(0 14.222222222222223)"/><use xlink:href="#r" transform="matrix(1,0,0,1,-806.2962962962963,726.6666666666666) translate(48.296296296296305 14.222222222222223)"/><path d="M-300 766c0-3.3 2.7-6 6-6h28c3.3 0 6 2.7 6 6v108c0 3.3-2.7 6-6 6h-28c-3.3 0-6-2.7-6-6z" stroke="#fff" stroke-width="3" fill="#282c33"/><path d="M-577.5 774.67H-320" stroke="#fff" stroke-width="2" fill="none"/><path d="M-577.47 775.67h-1.03v-2h1.03z" stroke="#fff" stroke-width=".05" fill="#fff"/><path d="M-304.74 774.67L-319 779.3v-9.27z" stroke="#fff" stroke-width="2" fill="#fff"/><use xlink:href="#e" transform="matrix(1,0,0,1,-482.8395061728395,749.3333333333334) translate(0 14.222222222222223)"/><use xlink:href="#f" transform="matrix(1,0,0,1,-482.8395061728395,749.3333333333334) translate(39.358024691358025 14.222222222222223)"/><path d="M-302.5 814.53h-287.6c-.02 0-.05.03-.05.07 0 .04-.03.07-.07.07H-860.3" stroke="#fff" stroke-width="2" fill="none"/><path d="M-301.5 815.53h-1.03v-2h1.03z" stroke="#fff" stroke-width=".05" fill="#fff"/><path d="M-875.57 814.67l14.27-4.64v9.27z" stroke="#fff" stroke-width="2" fill="#fff"/><use xlink:href="#s" transform="matrix(1,0,0,1,-783.7505241317538,789.3333333333334) translate(0 14.222222222222223)"/><path d="M-920 816c0-3.3 2.7-6 6-6h28c3.3 0 6 2.7 6 6v48c0 3.3-2.7 6-6 6h-28c-3.3 0-6-2.7-6-6z" stroke="#fff" stroke-width="3" fill="#282c33"/><path d="M-877.5 854.67H-320" stroke="#fff" stroke-width="2" fill="none"/><path d="M-877.47 855.67h-1.03v-2h1.03z" stroke="#fff" stroke-width=".05" fill="#fff"/><path d="M-304.74 854.67L-319 859.3v-9.27z" stroke="#fff" stroke-width="2" fill="#fff"/><use xlink:href="#t" transform="matrix(1,0,0,1,-579.5308641975307,824.6980784177092) translate(0 14.222222222222223)"/><use xlink:href="#u" transform="matrix(1,0,0,1,-579.5308641975307,824.6980784177092) translate(51.308641975308646 14.222222222222223)"/><use xlink:href="#v" transform="matrix(1,0,0,1,-579.5308641975307,824.6980784177092) translate(66.61728395061729 14.222222222222223)"/><use xlink:href="#w" transform="matrix(1,0,0,1,-579.5308641975307,824.6980784177092) translate(191.7037037037037 14.222222222222223)"/><path d="M-920 926c0-3.3 2.7-6 6-6h28c3.3 0 6 2.7 6 6v48c0 3.3-2.7 6-6 6h-28c-3.3 0-6-2.7-6-6z" stroke="#fff" stroke-width="3" fill="#282c33"/><path d="M-897.5 896h53c3.3 0 6 2.7 6 6v28c0 3.3-2.7 6-6 6H-860" stroke="#fff" stroke-width="2" fill="none"/><path d="M-897.47 897h-1.03v-2h1.03z" stroke="#fff" stroke-width=".05" fill="#fff"/><path d="M-875.26 936l14.26-4.64v9.28z" stroke="#fff" stroke-width="2" fill="#fff"/><use xlink:href="#x" transform="matrix(1,0,0,1,-830.5000000000001,895.3333333333334) translate(0 14.222222222222223)"/><use xlink:href="#y" transform="matrix(1,0,0,1,-830.5000000000001,895.3333333333334) translate(66.02469135802471 14.222222222222223)"/><path d="M-942.5 1001.33H-1150" stroke="#fff" stroke-width="2" fill="none"/><path d="M-941.5 1002.33h-1.03v-2h1.03z" stroke="#fff" stroke-width=".05" fill="#fff"/><path d="M-1165.26 1001.33l14.26-4.63v9.27z" stroke="#fff" stroke-width="2" fill="#fff"/><use xlink:href="#z" transform="matrix(1,0,0,1,-1110.5555555555557,1005.3333333333334) translate(0 14.222222222222223)"/><use xlink:href="#h" transform="matrix(1,0,0,1,-1110.5555555555557,1005.3333333333334) translate(70.96296296296296 14.222222222222223)"/><path d="M-1340 1046c0-3.3 2.7-6 6-6h88c3.3 0 6 2.7 6 6v8c0 3.3-1.9 7.9-4.24 10.24l-1.52 1.52c-2.34 2.34-6.93 4.24-10.24 4.24h-78c-3.3 0-6-2.7-6-6z" fill-opacity="0"/><path d="M-1240 1040v20l-10 10h-90" stroke="#fff" stroke-width="3" fill="none"/><path d="M-1340 1046c0-3.3 2.7-6 6-6h1228c3.3 0 6 2.7 6 6v488c0 3.3-2.7 6-6 6h-1228c-3.3 0-6-2.7-6-6z" stroke="#fff" stroke-width="3" fill="none"/><use xlink:href="#A" transform="matrix(1,0,0,1,-1332,1040) translate(0 19.444444444444443)"/><path d="M-940 1086c0-3.3 2.7-6 6-6h28c3.3 0 6 2.7 6 6v428c0 3.3-2.7 6-6 6h-28c-3.3 0-6-2.7-6-6z" stroke="#fff" stroke-width="3" fill="#282c33"/><path d="M-1167.5 1100H-960" stroke="#fff" stroke-width="2" fill="none"/><path d="M-1167.47 1101h-1.03v-2h1.03z" stroke="#fff" stroke-width=".05" fill="#fff"/><path d="M-944.74 1100l-14.26 4.64v-9.28z" stroke="#fff" stroke-width="2" fill="#fff"/><use xlink:href="#B" transform="matrix(1,0,0,1,-1097.888888888889,1074.6666666666667) translate(0 14.222222222222223)"/><path d="M-920 1145.33c0-3.3 2.7-6 6-6h28c3.3 0 6 2.7 6 6v48c0 3.32-2.7 6-6 6h-28c-3.3 0-6-2.68-6-6z" stroke="#fff" stroke-width="3" fill="#282c33"/><path d="M-897.5 1120h53c3.3 0 6 2.7 6 6v26.67c0 3.3-2.7 6-6 6H-860" stroke="#fff" stroke-width="2" fill="none"/><path d="M-897.47 1121h-1.03v-2h1.03z" stroke="#fff" stroke-width=".05" fill="#fff"/><path d="M-875.26 1158.67l14.26-4.64v9.27z" stroke="#fff" stroke-width="2" fill="#fff"/><use xlink:href="#o" transform="matrix(1,0,0,1,-830.5,1118.6666666666665) translate(0 14.222222222222223)"/><use xlink:href="#p" transform="matrix(1,0,0,1,-830.5,1118.6666666666665) translate(74.02469135802471 14.222222222222223)"/><path d="M-620 1226c0-3.3 2.7-6 6-6h28c3.3 0 6 2.7 6 6v168c0 3.3-2.7 6-6 6h-28c-3.3 0-6-2.7-6-6z" stroke="#fff" stroke-width="3" fill="#282c33"/><path d="M-897.5 1237.33H-640" stroke="#fff" stroke-width="2" fill="none"/><path d="M-897.47 1238.33h-1.03v-2h1.03z" stroke="#fff" stroke-width=".05" fill="#fff"/><path d="M-624.74 1237.33l-14.26 4.64v-9.27z" stroke="#fff" stroke-width="2" fill="#fff"/><use xlink:href="#q" transform="matrix(1,0,0,1,-825.5555555555555,1211.9999999999998) translate(0 14.222222222222223)"/><use xlink:href="#C" transform="matrix(1,0,0,1,-825.5555555555555,1211.9999999999998) translate(48.296296296296305 14.222222222222223)"/><path d="M-300 1266c0-3.3 2.7-6 6-6h28c3.3 0 6 2.7 6 6v108c0 3.3-2.7 6-6 6h-28c-3.3 0-6-2.7-6-6z" stroke="#fff" stroke-width="3" fill="#282c33"/><path d="M-577.5 1270.67H-320" stroke="#fff" stroke-width="2" fill="none"/><path d="M-577.47 1271.67h-1.03v-2h1.03z" stroke="#fff" stroke-width=".05" fill="#fff"/><path d="M-304.74 1270.67l-14.26 4.63v-9.27z" stroke="#fff" stroke-width="2" fill="#fff"/><use xlink:href="#e" transform="matrix(1,0,0,1,-501.08641975308643,1245.3333333333335) translate(0 14.222222222222223)"/><use xlink:href="#C" transform="matrix(1,0,0,1,-501.08641975308643,1245.3333333333335) translate(39.358024691358025 14.222222222222223)"/><path d="M-302.5 1320H-880" stroke="#fff" stroke-width="2" fill="none"/><path d="M-301.5 1321h-1.03v-2h1.03z" stroke="#fff" stroke-width=".05" fill="#fff"/><path d="M-895.26 1320l14.26-4.64v9.28z" stroke="#fff" stroke-width="2" fill="#fff"/><use xlink:href="#s" transform="matrix(1,0,0,1,-774.4197530864196,1323.9999999999998) translate(0 14.222222222222223)"/><path d="M-897.5 1372H-320" stroke="#fff" stroke-width="2" fill="none"/><path d="M-897.47 1373h-1.03v-2h1.03z" stroke="#fff" stroke-width=".05" fill="#fff"/><path d="M-304.74 1372l-14.26 4.64v-9.28z" stroke="#fff" stroke-width="2" fill="#fff"/><use xlink:href="#t" transform="matrix(1,0,0,1,-576.530864197532,1342.0314117510425) translate(0 14.222222222222223)"/><use xlink:href="#u" transform="matrix(1,0,0,1,-576.530864197532,1342.0314117510425) translate(51.308641975308646 14.222222222222223)"/><use xlink:href="#v" transform="matrix(1,0,0,1,-576.530864197532,1342.0314117510425) translate(66.61728395061729 14.222222222222223)"/><use xlink:href="#w" transform="matrix(1,0,0,1,-576.530864197532,1342.0314117510425) translate(191.7037037037037 14.222222222222223)"/><path d="M-920 1446c0-3.3 2.7-6 6-6h28c3.3 0 6 2.7 6 6v48c0 3.3-2.7 6-6 6h-28c-3.3 0-6-2.7-6-6z" stroke="#fff" stroke-width="3" fill="#282c33"/><path d="M-897.5 1405.33h53c3.3 0 6 2.7 6 6v33.34c0 3.3-2.7 6-6 6H-860" stroke="#fff" stroke-width="2" fill="none"/><path d="M-897.47 1406.33h-1.03v-2h1.03z" stroke="#fff" stroke-width=".05" fill="#fff"/><path d="M-875.26 1450.67l14.26-4.64v9.27z" stroke="#fff" stroke-width="2" fill="#fff"/><use xlink:href="#x" transform="matrix(1,0,0,1,-830.5000000000001,1407.3333333333333) translate(0 14.222222222222223)"/><use xlink:href="#y" transform="matrix(1,0,0,1,-830.5000000000001,1407.3333333333333) translate(66.02469135802471 14.222222222222223)"/><path d="M-942.5 1509.33H-1150" stroke="#fff" stroke-width="2" fill="none"/><path d="M-941.5 1510.33h-1.03v-2h1.03z" stroke="#fff" stroke-width=".05" fill="#fff"/><path d="M-1165.26 1509.33l14.26-4.63v9.27z" stroke="#fff" stroke-width="2" fill="#fff"/><use xlink:href="#z" transform="matrix(1,0,0,1,-1110.5555555555557,1513.333333333333) translate(0 14.222222222222223)"/><use xlink:href="#h" transform="matrix(1,0,0,1,-1110.5555555555557,1513.333333333333) translate(70.96296296296296 14.222222222222223)"/><path d="M-620 1606c0-3.3 2.7-6 6-6h28c3.3 0 6 2.7 6 6v128c0 3.3-2.7 6-6 6h-28c-3.3 0-6-2.7-6-6zM-940 1586c0-3.3 2.7-6 6-6h28c3.3 0 6 2.7 6 6v268c0 3.3-2.7 6-6 6h-28c-3.3 0-6-2.7-6-6z" stroke="#fff" stroke-width="3" fill="#282c33"/><path d="M-1167.5 1596H-960" stroke="#fff" stroke-width="2" fill="none"/><path d="M-1167.47 1597h-1.03v-2h1.03z" stroke="#fff" stroke-width=".05" fill="#fff"/><path d="M-944.74 1596l-14.26 4.64v-9.28z" stroke="#fff" stroke-width="2" fill="#fff"/><use xlink:href="#D" transform="matrix(1,0,0,1,-1126.9506172839506,1549.3333333333335) translate(0 14.222222222222223)"/><use xlink:href="#E" transform="matrix(1,0,0,1,-1126.9506172839506,1549.3333333333335) translate(76.93827160493828 14.222222222222223)"/><use xlink:href="#F" transform="matrix(1,0,0,1,-1126.9506172839506,1549.3333333333335) translate(138.962962962963 14.222222222222223)"/><use xlink:href="#G" transform="matrix(1,0,0,1,-1126.9506172839506,1549.3333333333335) translate(0 35.55555555555556)"/><use xlink:href="#H" transform="matrix(1,0,0,1,-1126.9506172839506,1549.3333333333335) translate(61.086419753086425 35.55555555555556)"/><path d="M-897.5 1617.33H-640" stroke="#fff" stroke-width="2" fill="none"/><path d="M-897.47 1618.33h-1.03v-2h1.03z" stroke="#fff" stroke-width=".05" fill="#fff"/><path d="M-624.74 1617.33l-14.26 4.64v-9.27z" stroke="#fff" stroke-width="2" fill="#fff"/><g><use xlink:href="#s" transform="matrix(1,0,0,1,-785.0864197530864,1591.9999999999998) translate(0 14.222222222222223)"/></g><path d="M-300 1646c0-3.3 2.7-6 6-6h28c3.3 0 6 2.7 6 6v88c0 3.3-2.7 6-6 6h-28c-3.3 0-6-2.7-6-6z" stroke="#fff" stroke-width="3" fill="#282c33"/><path d="M-577.5 1648H-320" stroke="#fff" stroke-width="2" fill="none"/><path d="M-577.47 1649h-1.03v-2h1.03z" stroke="#fff" stroke-width=".05" fill="#fff"/><path d="M-304.74 1648l-14.26 4.64v-9.28z" stroke="#fff" stroke-width="2" fill="#fff"/><g><use xlink:href="#I" transform="matrix(1,0,0,1,-470.0246913580247,1622.6666666666667) translate(0 14.222222222222223)"/></g><path d="M-302.5 1669.33H-880" stroke="#fff" stroke-width="2" fill="none"/><path d="M-301.5 1670.33h-1.03v-2h1.03z" stroke="#fff" stroke-width=".05" fill="#fff"/><path d="M-895.26 1669.33l14.26-4.63v9.27z" stroke="#fff" stroke-width="2" fill="#fff"/><g><use xlink:href="#s" transform="matrix(1,0,0,1,-783.7530864197531,1673.333333333333) translate(0 14.222222222222223)"/></g><path d="M-897.5 1718.67H-320" stroke="#fff" stroke-width="2" fill="none"/><path d="M-897.47 1719.67h-1.03v-2h1.03z" stroke="#fff" stroke-width=".05" fill="#fff"/><path d="M-304.74 1718.67l-14.26 4.63v-9.27z" stroke="#fff" stroke-width="2" fill="#fff"/><g><use xlink:href="#t" transform="matrix(1,0,0,1,-576.8641975308649,1688.6980784177092) translate(0 14.222222222222223)"/><use xlink:href="#u" transform="matrix(1,0,0,1,-576.8641975308649,1688.6980784177092) translate(51.308641975308646 14.222222222222223)"/><use xlink:href="#v" transform="matrix(1,0,0,1,-576.8641975308649,1688.6980784177092) translate(66.61728395061729 14.222222222222223)"/><use xlink:href="#w" transform="matrix(1,0,0,1,-576.8641975308649,1688.6980784177092) translate(191.7037037037037 14.222222222222223)"/></g><path d="M-920 1766c0-3.3 2.7-6 6-6h28c3.3 0 6 2.7 6 6v48c0 3.3-2.7 6-6 6h-28c-3.3 0-6-2.7-6-6z" stroke="#fff" stroke-width="3" fill="#282c33"/><path d="M-897.5 1738.67h53c3.3 0 6 2.68 6 6v30.66c0 3.32-2.7 6-6 6H-860" stroke="#fff" stroke-width="2" fill="none"/><path d="M-897.47 1739.67h-1.03v-2h1.03z" stroke="#fff" stroke-width=".05" fill="#fff"/><path d="M-875.26 1781.33l14.26-4.63v9.27z" stroke="#fff" stroke-width="2" fill="#fff"/><g><use xlink:href="#x" transform="matrix(1,0,0,1,-830.5000000000001,1739.3333333333333) translate(0 14.222222222222223)"/><use xlink:href="#y" transform="matrix(1,0,0,1,-830.5000000000001,1739.3333333333333) translate(66.02469135802471 14.222222222222223)"/></g><path d="M-942.5 1849.33H-1150" stroke="#fff" stroke-width="2" fill="none"/><path d="M-941.5 1850.33h-1.03v-2h1.03z" stroke="#fff" stroke-width=".05" fill="#fff"/><path d="M-1165.26 1849.33l14.26-4.63v9.27z" stroke="#fff" stroke-width="2" fill="#fff"/><g><use xlink:href="#z" transform="matrix(1,0,0,1,-1110.5555555555557,1853.3333333333333) translate(0 14.222222222222223)"/><use xlink:href="#h" transform="matrix(1,0,0,1,-1110.5555555555557,1853.3333333333333) translate(70.96296296296296 14.222222222222223)"/></g><defs><path fill="#fff" d="M205 0l-28-72H64L36 0H1l101-248h38L239 0h-34zm-38-99l-47-123c-12 45-31 82-46 123h93" id="J"/><path fill="#fff" d="M96-169c-40 0-48 33-48 73s9 75 48 75c24 0 41-14 43-38l32 2c-6 37-31 61-74 61-59 0-76-41-82-99-10-93 101-131 147-64 4 7 5 14 7 22l-32 3c-4-21-16-35-41-35" id="K"/><path fill="#fff" d="M59-47c-2 24 18 29 38 22v24C64 9 27 4 27-40v-127H5v-23h24l9-43h21v43h35v23H59v120" id="L"/><path fill="#fff" d="M100-194c62-1 85 37 85 99 1 63-27 99-86 99S16-35 15-95c0-66 28-99 85-99zM99-20c44 1 53-31 53-75 0-43-8-75-51-75s-53 32-53 75 10 74 51 75" id="M"/><path fill="#fff" d="M114-163C36-179 61-72 57 0H25l-1-190h30c1 12-1 29 2 39 6-27 23-49 58-41v29" id="N"/><g id="a"><use transform="matrix(0.06172839506172839,0,0,0.06172839506172839,0,0)" xlink:href="#J"/><use transform="matrix(0.06172839506172839,0,0,0.06172839506172839,14.814814814814813,0)" xlink:href="#K"/><use transform="matrix(0.06172839506172839,0,0,0.06172839506172839,25.925925925925924,0)" xlink:href="#L"/><use transform="matrix(0.06172839506172839,0,0,0.06172839506172839,32.098765432098766,0)" xlink:href="#M"/><use transform="matrix(0.06172839506172839,0,0,0.06172839506172839,44.44444444444444,0)" xlink:href="#N"/></g><path fill="#fff" d="M137 0h-34L2-248h35l83 218 83-218h36" id="O"/><path fill="#fff" d="M24-231v-30h32v30H24zM24 0v-190h32V0H24" id="P"/><path fill="#fff" d="M100-194c63 0 86 42 84 106H49c0 40 14 67 53 68 26 1 43-12 49-29l28 8c-11 28-37 45-77 45C44 4 14-33 15-96c1-61 26-98 85-98zm52 81c6-60-76-77-97-28-3 7-6 17-6 28h103" id="Q"/><path fill="#fff" d="M206 0h-36l-40-164L89 0H53L-1-190h32L70-26l43-164h34l41 164 42-164h31" id="R"/><g id="b"><use transform="matrix(0.05,0,0,0.05,0,0)" xlink:href="#O"/><use transform="matrix(0.05,0,0,0.05,11.65,0)" xlink:href="#P"/><use transform="matrix(0.05,0,0,0.05,15.600000000000001,0)" xlink:href="#Q"/><use transform="matrix(0.05,0,0,0.05,25.6,0)" xlink:href="#R"/><path fill="#fff" d="M-.9 1.25h40.35v1.32H-.9z"/></g><path fill="#fff" d="M212-179c-10-28-35-45-73-45-59 0-87 40-87 99 0 60 29 101 89 101 43 0 62-24 78-52l27 14C228-24 195 4 139 4 59 4 22-46 18-125c-6-104 99-153 187-111 19 9 31 26 39 46" id="S"/><path fill="#fff" d="M117-194c89-4 53 116 60 194h-32v-121c0-31-8-49-39-48C34-167 62-67 57 0H25l-1-190h30c1 10-1 24 2 32 11-22 29-35 61-36" id="T"/><path fill="#fff" d="M24 0v-261h32V0H24" id="U"/><g id="c"><use transform="matrix(0.05,0,0,0.05,0,0)" xlink:href="#S"/><use transform="matrix(0.05,0,0,0.05,12.950000000000001,0)" xlink:href="#M"/><use transform="matrix(0.05,0,0,0.05,22.950000000000003,0)" xlink:href="#T"/><use transform="matrix(0.05,0,0,0.05,32.95,0)" xlink:href="#L"/><use transform="matrix(0.05,0,0,0.05,37.95,0)" xlink:href="#N"/><use transform="matrix(0.05,0,0,0.05,43.900000000000006,0)" xlink:href="#M"/><use transform="matrix(0.05,0,0,0.05,53.900000000000006,0)" xlink:href="#U"/><use transform="matrix(0.05,0,0,0.05,57.85,0)" xlink:href="#U"/><use transform="matrix(0.05,0,0,0.05,61.80000000000001,0)" xlink:href="#Q"/><use transform="matrix(0.05,0,0,0.05,71.80000000000001,0)" xlink:href="#N"/><path fill="#fff" d="M-.9 1.25h79.55v1.32H-.9z"/></g><path fill="#fff" d="M240 0l2-218c-23 76-54 145-80 218h-23L58-218 59 0H30v-248h44l77 211c21-75 51-140 76-211h43V0h-30" id="V"/><path fill="#fff" d="M85-194c31 0 48 13 60 33l-1-100h32l1 261h-30c-2-10 0-23-3-31C134-8 116 4 85 4 32 4 16-35 15-94c0-66 23-100 70-100zm9 24c-40 0-46 34-46 75 0 40 6 74 45 74 42 0 51-32 51-76 0-42-9-74-50-73" id="W"/><g id="d"><use transform="matrix(0.05,0,0,0.05,0,0)" xlink:href="#V"/><use transform="matrix(0.05,0,0,0.05,14.950000000000001,0)" xlink:href="#M"/><use transform="matrix(0.05,0,0,0.05,24.950000000000003,0)" xlink:href="#W"/><use transform="matrix(0.05,0,0,0.05,34.95,0)" xlink:href="#Q"/><use transform="matrix(0.05,0,0,0.05,44.95,0)" xlink:href="#U"/><path fill="#fff" d="M-.9 1.25h50.7v1.32H-.9z"/></g><path fill="#fff" d="M199 0l-22-63H83L61 0H9l90-248h61L250 0h-51zm-33-102l-36-108c-10 38-24 72-36 108h72" id="X"/><path fill="#fff" d="M88-194c31-1 46 15 58 34l-1-101h50l1 261h-48c-2-10 0-23-3-31C134-8 116 4 84 4 32 4 16-41 15-95c0-56 19-97 73-99zm17 164c33 0 40-30 41-66 1-37-9-64-41-64s-38 30-39 65c0 43 13 65 39 65" id="Y"/><g id="e"><use transform="matrix(0.04938271604938272,0,0,0.04938271604938272,0,0)" xlink:href="#X"/><use transform="matrix(0.04938271604938272,0,0,0.04938271604938272,12.790123456790125,0)" xlink:href="#Y"/><use transform="matrix(0.04938271604938272,0,0,0.04938271604938272,23.60493827160494,0)" xlink:href="#Y"/></g><path fill="#fff" d="M24 0v-248h52v208h133V0H24" id="Z"/><path fill="#fff" d="M133-34C117-15 103 5 69 4 32 3 11-16 11-54c-1-60 55-63 116-61 1-26-3-47-28-47-18 1-26 9-28 27l-52-2c7-38 36-58 82-57s74 22 75 68l1 82c-1 14 12 18 25 15v27c-30 8-71 5-69-32zm-48 3c29 0 43-24 42-57-32 0-66-3-65 30 0 17 8 27 23 27" id="aa"/><path fill="#fff" d="M135-194c52 0 70 43 70 98 0 56-19 99-73 100-30 1-46-15-58-35L72 0H24l1-261h50v104c11-23 29-37 60-37zM114-30c31 0 40-27 40-66 0-37-7-63-39-63s-41 28-41 65c0 36 8 64 40 64" id="ab"/><path fill="#fff" d="M185-48c-13 30-37 53-82 52C43 2 14-33 14-96s30-98 90-98c62 0 83 45 84 108H66c0 31 8 55 39 56 18 0 30-7 34-22zm-45-69c5-46-57-63-70-21-2 6-4 13-4 21h74" id="ac"/><path fill="#fff" d="M25 0v-261h50V0H25" id="ad"/><g id="f"><use transform="matrix(0.04938271604938272,0,0,0.04938271604938272,0,0)" xlink:href="#Z"/><use transform="matrix(0.04938271604938272,0,0,0.04938271604938272,10.814814814814815,0)" xlink:href="#aa"/><use transform="matrix(0.04938271604938272,0,0,0.04938271604938272,20.69135802469136,0)" xlink:href="#ab"/><use transform="matrix(0.04938271604938272,0,0,0.04938271604938272,31.506172839506174,0)" xlink:href="#ac"/><use transform="matrix(0.04938271604938272,0,0,0.04938271604938272,41.38271604938272,0)" xlink:href="#ad"/></g><path fill="#fff" d="M67-125c0 53 21 87 73 88 37 1 54-22 65-47l45 17C233-25 199 4 140 4 58 4 20-42 15-125 8-235 124-281 211-232c18 10 29 29 36 50l-46 12c-8-25-30-41-62-41-52 0-71 34-72 86" id="ae"/><path fill="#fff" d="M114-157C55-157 80-60 75 0H25v-261h50l-1 109c12-26 28-41 61-42 86-1 58 113 63 194h-50c-7-57 23-157-34-157" id="af"/><path fill="#fff" d="M135-194c87-1 58 113 63 194h-50c-7-57 23-157-34-157-59 0-34 97-39 157H25l-1-190h47c2 12-1 28 3 38 12-26 28-41 61-42" id="ag"/><path fill="#fff" d="M195-6C206 82 75 100 31 46c-4-6-6-13-8-21l49-6c3 16 16 24 34 25 40 0 42-37 40-79-11 22-30 35-61 35-53 0-70-43-70-97 0-56 18-96 73-97 30 0 46 14 59 34l2-30h47zm-90-29c32 0 41-27 41-63 0-35-9-62-40-62-32 0-39 29-40 63 0 36 9 62 39 62" id="ah"/><g id="g"><use transform="matrix(0.04938271604938272,0,0,0.04938271604938272,0,0)" xlink:href="#ae"/><use transform="matrix(0.04938271604938272,0,0,0.04938271604938272,12.790123456790125,0)" xlink:href="#af"/><use transform="matrix(0.04938271604938272,0,0,0.04938271604938272,23.60493827160494,0)" xlink:href="#aa"/><use transform="matrix(0.04938271604938272,0,0,0.04938271604938272,33.48148148148148,0)" xlink:href="#ag"/><use transform="matrix(0.04938271604938272,0,0,0.04938271604938272,44.2962962962963,0)" xlink:href="#ah"/><use transform="matrix(0.04938271604938272,0,0,0.04938271604938272,55.111111111111114,0)" xlink:href="#ac"/></g><path fill="#fff" d="M147 0H94L2-248h55l64 206c17-72 42-137 63-206h54" id="ai"/><path fill="#fff" d="M25-224v-37h50v37H25zM25 0v-190h50V0H25" id="aj"/><path fill="#fff" d="M231 0h-52l-39-155L100 0H48L-1-190h46L77-45c9-52 24-97 36-145h53l37 145 32-145h46" id="ak"/><g id="h"><use transform="matrix(0.04938271604938272,0,0,0.04938271604938272,0,0)" xlink:href="#ai"/><use transform="matrix(0.04938271604938272,0,0,0.04938271604938272,11.506172839506174,0)" xlink:href="#aj"/><use transform="matrix(0.04938271604938272,0,0,0.04938271604938272,16.444444444444446,0)" xlink:href="#ac"/><use transform="matrix(0.04938271604938272,0,0,0.04938271604938272,26.32098765432099,0)" xlink:href="#ak"/></g><path fill="#fff" d="M190-63c-7 42-38 67-86 67-59 0-84-38-90-98-12-110 154-137 174-36l-49 2c-2-19-15-32-35-32-30 0-35 28-38 64-6 74 65 87 74 30" id="al"/><path fill="#fff" d="M147 0L96-86 75-71V0H25v-261h50v150l67-79h53l-66 74L201 0h-54" id="am"/><path fill="#fff" d="M110-194c64 0 96 36 96 99 0 64-35 99-97 99-61 0-95-36-95-99 0-62 34-99 96-99zm-1 164c35 0 45-28 45-65 0-40-10-65-43-65-34 0-45 26-45 65 0 36 10 65 43 65" id="an"/><path fill="#fff" d="M220-157c-53 9-28 100-34 157h-49v-107c1-27-5-49-29-50C55-147 81-57 75 0H25l-1-190h47c2 12-1 28 3 38 10-53 101-56 108 0 13-22 24-43 59-42 82 1 51 116 57 194h-49v-107c-1-25-5-48-29-50" id="ao"/><path fill="#fff" d="M115-3C79 11 28 4 28-45v-112H4v-33h27l15-45h31v45h36v33H77v99c-1 23 16 31 38 25v30" id="ap"/><g id="i"><use transform="matrix(0.04938271604938272,0,0,0.04938271604938272,0,0)" xlink:href="#X"/><use transform="matrix(0.04938271604938272,0,0,0.04938271604938272,12.790123456790125,0)" xlink:href="#al"/><use transform="matrix(0.04938271604938272,0,0,0.04938271604938272,22.66666666666667,0)" xlink:href="#am"/><use transform="matrix(0.04938271604938272,0,0,0.04938271604938272,32.543209876543216,0)" xlink:href="#ag"/><use transform="matrix(0.04938271604938272,0,0,0.04938271604938272,43.35802469135803,0)" xlink:href="#an"/><use transform="matrix(0.04938271604938272,0,0,0.04938271604938272,54.17283950617284,0)" xlink:href="#ak"/><use transform="matrix(0.04938271604938272,0,0,0.04938271604938272,68.00000000000001,0)" xlink:href="#ad"/><use transform="matrix(0.04938271604938272,0,0,0.04938271604938272,72.93827160493828,0)" xlink:href="#ac"/><use transform="matrix(0.04938271604938272,0,0,0.04938271604938272,82.81481481481482,0)" xlink:href="#Y"/><use transform="matrix(0.04938271604938272,0,0,0.04938271604938272,93.62962962962963,0)" xlink:href="#ah"/><use transform="matrix(0.04938271604938272,0,0,0.04938271604938272,104.44444444444446,0)" xlink:href="#ac"/><use transform="matrix(0.04938271604938272,0,0,0.04938271604938272,114.320987654321,0)" xlink:href="#ao"/><use transform="matrix(0.04938271604938272,0,0,0.04938271604938272,130.12345679012347,0)" xlink:href="#ac"/><use transform="matrix(0.04938271604938272,0,0,0.04938271604938272,140,0)" xlink:href="#ag"/><use transform="matrix(0.04938271604938272,0,0,0.04938271604938272,150.8148148148148,0)" xlink:href="#ap"/></g><path fill="#fff" d="M121-226c-27-7-43 5-38 36h38v33H83V0H34v-157H6v-33h28c-9-59 32-81 87-68v32" id="aq"/><g id="j"><use transform="matrix(0.04938271604938272,0,0,0.04938271604938272,0,0)" xlink:href="#Z"/><use transform="matrix(0.04938271604938272,0,0,0.04938271604938272,10.814814814814815,0)" xlink:href="#ac"/><use transform="matrix(0.04938271604938272,0,0,0.04938271604938272,20.69135802469136,0)" xlink:href="#aq"/><use transform="matrix(0.04938271604938272,0,0,0.04938271604938272,26.567901234567902,0)" xlink:href="#ap"/></g><g id="k"><use transform="matrix(0.04938271604938272,0,0,0.04938271604938272,0,0)" xlink:href="#ac"/><use transform="matrix(0.04938271604938272,0,0,0.04938271604938272,9.876543209876544,0)" xlink:href="#ag"/><use transform="matrix(0.04938271604938272,0,0,0.04938271604938272,20.69135802469136,0)" xlink:href="#Y"/></g><path fill="#fff" d="M135-194c53 0 70 44 70 98 0 56-19 98-73 100-31 1-45-17-59-34 3 33 2 69 2 105H25l-1-265h48c2 10 0 23 3 31 11-24 29-35 60-35zM114-30c33 0 39-31 40-66 0-38-9-64-40-64-56 0-55 130 0 130" id="ar"/><g id="l"><use transform="matrix(0.04938271604938272,0,0,0.04938271604938272,0,0)" xlink:href="#ar"/><use transform="matrix(0.04938271604938272,0,0,0.04938271604938272,10.814814814814815,0)" xlink:href="#an"/><use transform="matrix(0.04938271604938272,0,0,0.04938271604938272,21.62962962962963,0)" xlink:href="#aj"/><use transform="matrix(0.04938271604938272,0,0,0.04938271604938272,26.567901234567902,0)" xlink:href="#ag"/><use transform="matrix(0.04938271604938272,0,0,0.04938271604938272,37.382716049382715,0)" xlink:href="#ap"/></g><g id="m"><use transform="matrix(0.04938271604938272,0,0,0.04938271604938272,0,0)" xlink:href="#an"/><use transform="matrix(0.04938271604938272,0,0,0.04938271604938272,10.814814814814815,0)" xlink:href="#aq"/></g><g id="n"><use transform="matrix(0.04938271604938272,0,0,0.04938271604938272,0,0)" xlink:href="#ad"/><use transform="matrix(0.04938271604938272,0,0,0.04938271604938272,4.938271604938272,0)" xlink:href="#aa"/><use transform="matrix(0.04938271604938272,0,0,0.04938271604938272,14.814814814814817,0)" xlink:href="#ab"/><use transform="matrix(0.04938271604938272,0,0,0.04938271604938272,25.629629629629633,0)" xlink:href="#ac"/><use transform="matrix(0.04938271604938272,0,0,0.04938271604938272,35.50617283950618,0)" xlink:href="#ad"/></g><path fill="#fff" d="M24-248c93 1 206-16 204 79-1 75-69 88-152 82V0H24v-248zm52 121c47 0 100 7 100-41 0-47-54-39-100-39v80" id="as"/><path fill="#fff" d="M135-150c-39-12-60 13-60 57V0H25l-1-190h47c2 13-1 29 3 40 6-28 27-53 61-41v41" id="at"/><path fill="#fff" d="M137-138c1-29-70-34-71-4 15 46 118 7 119 86 1 83-164 76-172 9l43-7c4 19 20 25 44 25 33 8 57-30 24-41C81-84 22-81 20-136c-2-80 154-74 161-7" id="au"/><g id="o"><use transform="matrix(0.04938271604938272,0,0,0.04938271604938272,0,0)" xlink:href="#as"/><use transform="matrix(0.04938271604938272,0,0,0.04938271604938272,11.851851851851853,0)" xlink:href="#at"/><use transform="matrix(0.04938271604938272,0,0,0.04938271604938272,18.765432098765434,0)" xlink:href="#an"/><use transform="matrix(0.04938271604938272,0,0,0.04938271604938272,29.58024691358025,0)" xlink:href="#al"/><use transform="matrix(0.04938271604938272,0,0,0.04938271604938272,39.45679012345679,0)" xlink:href="#ac"/><use transform="matrix(0.04938271604938272,0,0,0.04938271604938272,49.333333333333336,0)" xlink:href="#au"/><use transform="matrix(0.04938271604938272,0,0,0.04938271604938272,59.20987654320988,0)" xlink:href="#au"/></g><path fill="#fff" d="M24 0v-248h52V0H24" id="av"/><path fill="#fff" d="M85 4C-2 5 27-109 22-190h50c7 57-23 150 33 157 60-5 35-97 40-157h50l1 190h-47c-2-12 1-28-3-38-12 25-28 42-61 42" id="aw"/><g id="p"><use transform="matrix(0.04938271604938272,0,0,0.04938271604938272,0,0)" xlink:href="#av"/><use transform="matrix(0.04938271604938272,0,0,0.04938271604938272,4.938271604938272,0)" xlink:href="#ag"/><use transform="matrix(0.04938271604938272,0,0,0.04938271604938272,15.753086419753087,0)" xlink:href="#ar"/><use transform="matrix(0.04938271604938272,0,0,0.04938271604938272,26.567901234567902,0)" xlink:href="#aw"/><use transform="matrix(0.04938271604938272,0,0,0.04938271604938272,37.382716049382715,0)" xlink:href="#ap"/></g><path fill="#fff" d="M169-182c-1-43-94-46-97-3 18 66 151 10 154 114 3 95-165 93-204 36-6-8-10-19-12-30l50-8c3 46 112 56 116 5-17-69-150-10-154-114-4-87 153-88 188-35 5 8 8 18 10 28" id="ax"/><g id="q"><use transform="matrix(0.04938271604938272,0,0,0.04938271604938272,0,0)" xlink:href="#ax"/><use transform="matrix(0.04938271604938272,0,0,0.04938271604938272,11.851851851851853,0)" xlink:href="#ac"/><use transform="matrix(0.04938271604938272,0,0,0.04938271604938272,21.7283950617284,0)" xlink:href="#ag"/><use transform="matrix(0.04938271604938272,0,0,0.04938271604938272,32.543209876543216,0)" xlink:href="#Y"/></g><g id="r"><use transform="matrix(0.04938271604938272,0,0,0.04938271604938272,0,0)" xlink:href="#as"/><use transform="matrix(0.04938271604938272,0,0,0.04938271604938272,11.851851851851853,0)" xlink:href="#an"/><use transform="matrix(0.04938271604938272,0,0,0.04938271604938272,22.666666666666668,0)" xlink:href="#aj"/><use transform="matrix(0.04938271604938272,0,0,0.04938271604938272,27.60493827160494,0)" xlink:href="#ag"/><use transform="matrix(0.04938271604938272,0,0,0.04938271604938272,38.41975308641975,0)" xlink:href="#ap"/></g><path fill="#fff" d="M175 0L67-191c6 58 2 128 3 191H24v-248h59L193-55c-6-58-2-129-3-193h46V0h-61" id="ay"/><path fill="#fff" d="M123 10C108 53 80 86 19 72V37c35 8 53-11 59-39L3-190h52l48 148c12-52 28-100 44-148h51" id="az"/><g id="s"><use transform="matrix(0.04938271604938272,0,0,0.04938271604938272,0,0)" xlink:href="#ay"/><use transform="matrix(0.04938271604938272,0,0,0.04938271604938272,12.790123456790125,0)" xlink:href="#an"/><use transform="matrix(0.04938271604938272,0,0,0.04938271604938272,23.60493827160494,0)" xlink:href="#ap"/><use transform="matrix(0.04938271604938272,0,0,0.04938271604938272,29.481481481481485,0)" xlink:href="#aj"/><use transform="matrix(0.04938271604938272,0,0,0.04938271604938272,34.41975308641976,0)" xlink:href="#aq"/><use transform="matrix(0.04938271604938272,0,0,0.04938271604938272,40.296296296296305,0)" xlink:href="#az"/></g><g id="t"><use transform="matrix(0.04938271604938272,0,0,0.04938271604938272,0,0)" xlink:href="#aj"/><use transform="matrix(0.04938271604938272,0,0,0.04938271604938272,4.938271604938272,0)" xlink:href="#ap"/><use transform="matrix(0.04938271604938272,0,0,0.04938271604938272,10.814814814814817,0)" xlink:href="#ac"/><use transform="matrix(0.04938271604938272,0,0,0.04938271604938272,20.69135802469136,0)" xlink:href="#ao"/><use transform="matrix(0.04938271604938272,0,0,0.04938271604938272,36.49382716049383,0)" xlink:href="#au"/></g><path fill="#fff" d="M15-148v-39h180v39H15zm0 97v-39h180v39H15" id="aA"/><use transform="matrix(0.04938271604938272,0,0,0.04938271604938272,0,0)" xlink:href="#aA" id="u"/><path fill="#fff" d="M67-93c0 74 22 123 53 168H70C40 30 18-18 18-93s22-123 52-168h50c-32 44-53 94-53 168" id="aB"/><path fill="#fff" d="M24 0v-248h195v40H76v63h132v40H76v65h150V0H24" id="aC"/><path fill="#fff" d="M102-93c0 74-22 123-52 168H0C30 29 54-18 53-93c0-74-22-123-53-168h50c30 45 52 94 52 168" id="aD"/><g id="v"><use transform="matrix(0.04938271604938272,0,0,0.04938271604938272,0,0)" xlink:href="#aB"/><use transform="matrix(0.04938271604938272,0,0,0.04938271604938272,5.8765432098765435,0)" xlink:href="#aC"/><use transform="matrix(0.04938271604938272,0,0,0.04938271604938272,17.728395061728396,0)" xlink:href="#ag"/><use transform="matrix(0.04938271604938272,0,0,0.04938271604938272,28.543209876543205,0)" xlink:href="#aw"/><use transform="matrix(0.04938271604938272,0,0,0.04938271604938272,39.358024691358025,0)" xlink:href="#ao"/><use transform="matrix(0.04938271604938272,0,0,0.04938271604938272,55.1604938271605,0)" xlink:href="#ac"/><use transform="matrix(0.04938271604938272,0,0,0.04938271604938272,65.03703703703704,0)" xlink:href="#at"/><use transform="matrix(0.04938271604938272,0,0,0.04938271604938272,71.95061728395062,0)" xlink:href="#aa"/><use transform="matrix(0.04938271604938272,0,0,0.04938271604938272,81.82716049382717,0)" xlink:href="#ap"/><use transform="matrix(0.04938271604938272,0,0,0.04938271604938272,87.70370370370371,0)" xlink:href="#aj"/><use transform="matrix(0.04938271604938272,0,0,0.04938271604938272,92.64197530864197,0)" xlink:href="#an"/><use transform="matrix(0.04938271604938272,0,0,0.04938271604938272,103.45679012345677,0)" xlink:href="#ag"/><use transform="matrix(0.04938271604938272,0,0,0.04938271604938272,114.2716049382716,0)" xlink:href="#aD"/></g><g id="w"><use transform="matrix(0.04938271604938272,0,0,0.04938271604938272,0,0)" xlink:href="#ah"/><use transform="matrix(0.04938271604938272,0,0,0.04938271604938272,10.814814814814815,0)" xlink:href="#ac"/><use transform="matrix(0.04938271604938272,0,0,0.04938271604938272,20.69135802469136,0)" xlink:href="#ap"/><use transform="matrix(0.04938271604938272,0,0,0.04938271604938272,26.567901234567902,0)" xlink:href="#av"/><use transform="matrix(0.04938271604938272,0,0,0.04938271604938272,31.506172839506174,0)" xlink:href="#ap"/><use transform="matrix(0.04938271604938272,0,0,0.04938271604938272,37.38271604938272,0)" xlink:href="#ac"/><use transform="matrix(0.04938271604938272,0,0,0.04938271604938272,47.25925925925927,0)" xlink:href="#ao"/><use transform="matrix(0.04938271604938272,0,0,0.04938271604938272,63.061728395061735,0)" xlink:href="#au"/><use transform="matrix(0.04938271604938272,0,0,0.04938271604938272,72.93827160493828,0)" xlink:href="#aB"/><use transform="matrix(0.04938271604938272,0,0,0.04938271604938272,78.81481481481482,0)" xlink:href="#aD"/></g><path fill="#fff" d="M240-174c0 40-23 61-54 70L253 0h-59l-57-94H76V0H24v-248c93 4 217-23 216 74zM76-134c48-2 112 12 112-38 0-48-66-32-112-35v73" id="aE"/><g id="x"><use transform="matrix(0.04938271604938272,0,0,0.04938271604938272,0,0)" xlink:href="#aE"/><use transform="matrix(0.04938271604938272,0,0,0.04938271604938272,12.790123456790125,0)" xlink:href="#ac"/><use transform="matrix(0.04938271604938272,0,0,0.04938271604938272,22.66666666666667,0)" xlink:href="#ag"/><use transform="matrix(0.04938271604938272,0,0,0.04938271604938272,33.48148148148149,0)" xlink:href="#Y"/><use transform="matrix(0.04938271604938272,0,0,0.04938271604938272,44.296296296296305,0)" xlink:href="#ac"/><use transform="matrix(0.04938271604938272,0,0,0.04938271604938272,54.17283950617284,0)" xlink:href="#at"/></g><g id="y"><use transform="matrix(0.04938271604938272,0,0,0.04938271604938272,0,0)" xlink:href="#av"/><use transform="matrix(0.04938271604938272,0,0,0.04938271604938272,4.938271604938272,0)" xlink:href="#ap"/><use transform="matrix(0.04938271604938272,0,0,0.04938271604938272,10.814814814814817,0)" xlink:href="#ac"/><use transform="matrix(0.04938271604938272,0,0,0.04938271604938272,20.69135802469136,0)" xlink:href="#ao"/><use transform="matrix(0.04938271604938272,0,0,0.04938271604938272,36.49382716049383,0)" xlink:href="#au"/></g><g id="z"><use transform="matrix(0.04938271604938272,0,0,0.04938271604938272,0,0)" xlink:href="#aE"/><use transform="matrix(0.04938271604938272,0,0,0.04938271604938272,12.790123456790125,0)" xlink:href="#ac"/><use transform="matrix(0.04938271604938272,0,0,0.04938271604938272,22.66666666666667,0)" xlink:href="#aq"/><use transform="matrix(0.04938271604938272,0,0,0.04938271604938272,28.54320987654322,0)" xlink:href="#at"/><use transform="matrix(0.04938271604938272,0,0,0.04938271604938272,35.4567901234568,0)" xlink:href="#ac"/><use transform="matrix(0.04938271604938272,0,0,0.04938271604938272,45.33333333333334,0)" xlink:href="#au"/><use transform="matrix(0.04938271604938272,0,0,0.04938271604938272,55.209876543209894,0)" xlink:href="#af"/></g><path fill="#fff" d="M30 0v-248h33v221h125V0H30" id="aF"/><path fill="#fff" d="M115-194c55 1 70 41 70 98S169 2 115 4C84 4 66-9 55-30l1 105H24l-1-265h31l2 30c10-21 28-34 59-34zm-8 174c40 0 45-34 45-75s-6-73-45-74c-42 0-51 32-51 76 0 43 10 73 51 73" id="aG"/><g id="A"><use transform="matrix(0.06172839506172839,0,0,0.06172839506172839,0,0)" xlink:href="#aF"/><use transform="matrix(0.06172839506172839,0,0,0.06172839506172839,12.345679012345679,0)" xlink:href="#M"/><use transform="matrix(0.06172839506172839,0,0,0.06172839506172839,24.691358024691358,0)" xlink:href="#M"/><use transform="matrix(0.06172839506172839,0,0,0.06172839506172839,37.03703703703704,0)" xlink:href="#aG"/></g><path fill="#fff" d="M195 0l-88-114-31 24V0H24v-248h52v113l112-113h60L142-143 257 0h-62" id="aH"/><g id="B"><use transform="matrix(0.04938271604938272,0,0,0.04938271604938272,0,0)" xlink:href="#aH"/><use transform="matrix(0.04938271604938272,0,0,0.04938271604938272,12.790123456790125,0)" xlink:href="#ac"/><use transform="matrix(0.04938271604938272,0,0,0.04938271604938272,22.66666666666667,0)" xlink:href="#az"/><use transform="matrix(0.04938271604938272,0,0,0.04938271604938272,32.543209876543216,0)" xlink:href="#au"/><use transform="matrix(0.04938271604938272,0,0,0.04938271604938272,42.41975308641976,0)" xlink:href="#ap"/><use transform="matrix(0.04938271604938272,0,0,0.04938271604938272,48.296296296296305,0)" xlink:href="#at"/><use transform="matrix(0.04938271604938272,0,0,0.04938271604938272,55.209876543209894,0)" xlink:href="#an"/><use transform="matrix(0.04938271604938272,0,0,0.04938271604938272,66.0246913580247,0)" xlink:href="#am"/><use transform="matrix(0.04938271604938272,0,0,0.04938271604938272,75.90123456790124,0)" xlink:href="#ac"/></g><g id="C"><use transform="matrix(0.04938271604938272,0,0,0.04938271604938272,0,0)" xlink:href="#ae"/><use transform="matrix(0.04938271604938272,0,0,0.04938271604938272,12.790123456790125,0)" xlink:href="#af"/><use transform="matrix(0.04938271604938272,0,0,0.04938271604938272,23.60493827160494,0)" xlink:href="#aa"/><use transform="matrix(0.04938271604938272,0,0,0.04938271604938272,33.48148148148148,0)" xlink:href="#at"/><use transform="matrix(0.04938271604938272,0,0,0.04938271604938272,40.39506172839506,0)" xlink:href="#aa"/><use transform="matrix(0.04938271604938272,0,0,0.04938271604938272,50.27160493827161,0)" xlink:href="#al"/><use transform="matrix(0.04938271604938272,0,0,0.04938271604938272,60.14814814814815,0)" xlink:href="#ap"/><use transform="matrix(0.04938271604938272,0,0,0.04938271604938272,66.0246913580247,0)" xlink:href="#ac"/><use transform="matrix(0.04938271604938272,0,0,0.04938271604938272,75.90123456790124,0)" xlink:href="#at"/></g><g id="D"><use transform="matrix(0.04938271604938272,0,0,0.04938271604938272,0,0)" xlink:href="#ae"/><use transform="matrix(0.04938271604938272,0,0,0.04938271604938272,12.790123456790125,0)" xlink:href="#aa"/><use transform="matrix(0.04938271604938272,0,0,0.04938271604938272,22.66666666666667,0)" xlink:href="#at"/><use transform="matrix(0.04938271604938272,0,0,0.04938271604938272,29.580246913580254,0)" xlink:href="#at"/><use transform="matrix(0.04938271604938272,0,0,0.04938271604938272,36.49382716049384,0)" xlink:href="#aj"/><use transform="matrix(0.04938271604938272,0,0,0.04938271604938272,41.43209876543211,0)" xlink:href="#aa"/><use transform="matrix(0.04938271604938272,0,0,0.04938271604938272,51.30864197530866,0)" xlink:href="#ah"/><use transform="matrix(0.04938271604938272,0,0,0.04938271604938272,62.12345679012347,0)" xlink:href="#ac"/></g><g id="E"><use transform="matrix(0.04938271604938272,0,0,0.04938271604938272,0,0)" xlink:href="#aE"/><use transform="matrix(0.04938271604938272,0,0,0.04938271604938272,12.790123456790125,0)" xlink:href="#ac"/><use transform="matrix(0.04938271604938272,0,0,0.04938271604938272,22.66666666666667,0)" xlink:href="#ap"/><use transform="matrix(0.04938271604938272,0,0,0.04938271604938272,28.54320987654322,0)" xlink:href="#aw"/><use transform="matrix(0.04938271604938272,0,0,0.04938271604938272,39.35802469135803,0)" xlink:href="#at"/><use transform="matrix(0.04938271604938272,0,0,0.04938271604938272,46.271604938271615,0)" xlink:href="#ag"/></g><path fill="#fff" d="M4 7l51-268h42L46 7H4" id="aI"/><use transform="matrix(0.04938271604938272,0,0,0.04938271604938272,0,0)" xlink:href="#aI" id="F"/><path fill="#fff" d="M230 0l2-204L168 0h-37L68-204 70 0H24v-248h70l56 185 57-185h69V0h-46" id="aJ"/><g id="G"><use transform="matrix(0.04938271604938272,0,0,0.04938271604938272,0,0)" xlink:href="#aJ"/><use transform="matrix(0.04938271604938272,0,0,0.04938271604938272,14.765432098765434,0)" xlink:href="#an"/><use transform="matrix(0.04938271604938272,0,0,0.04938271604938272,25.58024691358025,0)" xlink:href="#aw"/><use transform="matrix(0.04938271604938272,0,0,0.04938271604938272,36.39506172839506,0)" xlink:href="#au"/><use transform="matrix(0.04938271604938272,0,0,0.04938271604938272,46.27160493827161,0)" xlink:href="#ac"/></g><g id="H"><use transform="matrix(0.04938271604938272,0,0,0.04938271604938272,0,0)" xlink:href="#ae"/><use transform="matrix(0.04938271604938272,0,0,0.04938271604938272,12.790123456790125,0)" xlink:href="#ad"/><use transform="matrix(0.04938271604938272,0,0,0.04938271604938272,17.7283950617284,0)" xlink:href="#aj"/><use transform="matrix(0.04938271604938272,0,0,0.04938271604938272,22.66666666666667,0)" xlink:href="#al"/><use transform="matrix(0.04938271604938272,0,0,0.04938271604938272,32.543209876543216,0)" xlink:href="#am"/></g><path fill="#fff" d="M238-95c0 69-44 99-111 99C63 4 22-25 22-93v-155h51v151c-1 38 19 59 55 60 90 1 49-130 58-211h52v153" id="aK"/><g id="I"><use transform="matrix(0.04938271604938272,0,0,0.04938271604938272,0,0)" xlink:href="#aK"/><use transform="matrix(0.04938271604938272,0,0,0.04938271604938272,12.790123456790125,0)" xlink:href="#ar"/><use transform="matrix(0.04938271604938272,0,0,0.04938271604938272,23.60493827160494,0)" xlink:href="#Y"/><use transform="matrix(0.04938271604938272,0,0,0.04938271604938272,34.41975308641975,0)" xlink:href="#aa"/><use transform="matrix(0.04938271604938272,0,0,0.04938271604938272,44.2962962962963,0)" xlink:href="#ap"/><use transform="matrix(0.04938271604938272,0,0,0.04938271604938272,50.17283950617284,0)" xlink:href="#ac"/></g></defs></g></svg>