<svg xmlns="http://www.w3.org/2000/svg" xmlns:xlink="http://www.w3.org/1999/xlink" xmlns:lucid="lucid" width="683" height="360"><g transform="translate(-277 -220)" lucid:page-tab-id="CVOmxRZZXAtF"><path d="M600 246c0-3.3 2.7-6 6-6h72c3.3 0 6 2.7 6 6v28c0 3.3-2.7 6-6 6h-72c-3.3 0-6-2.7-6-6z" fill="none"/><use xlink:href="#a" transform="matrix(1,0,0,1,600,240) translate(24.12962962962963 24.444444444444443)"/><path d="M500 340c0 44.18-35.82 80-80 80s-80-35.82-80-80 35.82-80 80-80 80 35.82 80 80z" stroke="#fff" stroke-width="3" fill-opacity="0"/><path d="M421 258.5h195.33" stroke="#fff" stroke-width="2" fill="none"/><path d="M421.03 258.53l-1-.03h-.74l-2.3.1v-1.1h4.03z" stroke="#fff" stroke-width=".05" fill="#fff"/><path d="M616.3 258.5h1.03M421 421.5h199.33" stroke="#fff" stroke-width="2" fill="none"/><path d="M419.98 421.5h.73l.33-.02v1.02H417v-1.1z" stroke="#fff" stroke-width=".05" fill="#fff"/><path d="M620.3 421.5h1.03M501.5 341v182" stroke="#fff" stroke-width="2" fill="none"/><path d="M502.5 341.03h-1.03l.03-1v-.74l-.1-2.3h1.1z" stroke="#fff" stroke-width=".05" fill="#fff"/><path d="M501.5 522.97V524M338.5 341v180.67" stroke="#fff" stroke-width="2" fill="none"/><path d="M338.5 339.98v.73l.02.33h-1.02V337h1.1z" stroke="#fff" stroke-width=".05" fill="#fff"/><path d="M338.5 521.64v1.03" stroke="#fff" stroke-width="2" fill="none"/><path d="M620 410c0-3.3 2.7-6 6-6h72c3.3 0 6 2.7 6 6v28c0 3.3-2.7 6-6 6h-72c-3.3 0-6-2.7-6-6z" fill="none"/><use xlink:href="#b" transform="matrix(1,0,0,1,620,404) translate(6.845679012345677 24.444444444444443)"/><path d="M460 526c0-3.3 2.7-6 6-6h72c3.3 0 6 2.7 6 6v28c0 3.3-2.7 6-6 6h-72c-3.3 0-6-2.7-6-6z" fill="none"/><use xlink:href="#c" transform="matrix(1,0,0,1,460,520) translate(16.135802469135804 24.444444444444443)"/><path d="M297 526c0-3.3 2.7-6 6-6h72c3.3 0 6 2.7 6 6v28c0 3.3-2.7 6-6 6h-72c-3.3 0-6-2.7-6-6z" fill="none"/><use xlink:href="#d" transform="matrix(1,0,0,1,297,520) translate(23.48148148148148 24.444444444444443)"/><path d="M780 266c0-3.3 2.7-6 6-6h148c3.3 0 6 2.7 6 6v48c0 3.3-2.7 6-6 6H786c-3.3 0-6-2.7-6-6z" stroke="#fff" stroke-width="3" fill-opacity="0"/><use xlink:href="#e" transform="matrix(1,0,0,1,785,265) translate(3.8628472222222427 40.38194444444443)"/><use xlink:href="#f" transform="matrix(1,0,0,1,785,265) translate(55.546875 40.38194444444443)"/><defs><path fill="#fff" d="M127-220V0H93v-220H8v-28h204v28h-85" id="g"/><path fill="#fff" d="M100-194c62-1 85 37 85 99 1 63-27 99-86 99S16-35 15-95c0-66 28-99 85-99zM99-20c44 1 53-31 53-75 0-43-8-75-51-75s-53 32-53 75 10 74 51 75" id="h"/><path fill="#fff" d="M115-194c55 1 70 41 70 98S169 2 115 4C84 4 66-9 55-30l1 105H24l-1-265h31l2 30c10-21 28-34 59-34zm-8 174c40 0 45-34 45-75s-6-73-45-74c-42 0-51 32-51 76 0 43 10 73 51 73" id="i"/><g id="a"><use transform="matrix(0.06172839506172839,0,0,0.06172839506172839,0,0)" xlink:href="#g"/><use transform="matrix(0.06172839506172839,0,0,0.06172839506172839,11.049382716049381,0)" xlink:href="#h"/><use transform="matrix(0.06172839506172839,0,0,0.06172839506172839,23.39506172839506,0)" xlink:href="#i"/></g><path fill="#fff" d="M160-131c35 5 61 23 61 61C221 17 115-2 30 0v-248c76 3 177-17 177 60 0 33-19 50-47 57zm-97-11c50-1 110 9 110-42 0-47-63-36-110-37v79zm0 115c55-2 124 14 124-45 0-56-70-42-124-44v89" id="j"/><path fill="#fff" d="M59-47c-2 24 18 29 38 22v24C64 9 27 4 27-40v-127H5v-23h24l9-43h21v43h35v23H59v120" id="k"/><path fill="#fff" d="M210-169c-67 3-38 105-44 169h-31v-121c0-29-5-50-35-48C34-165 62-65 56 0H25l-1-190h30c1 10-1 24 2 32 10-44 99-50 107 0 11-21 27-35 58-36 85-2 47 119 55 194h-31v-121c0-29-5-49-35-48" id="l"/><g id="b"><use transform="matrix(0.06172839506172839,0,0,0.06172839506172839,0,0)" xlink:href="#j"/><use transform="matrix(0.06172839506172839,0,0,0.06172839506172839,14.814814814814813,0)" xlink:href="#h"/><use transform="matrix(0.06172839506172839,0,0,0.06172839506172839,27.160493827160494,0)" xlink:href="#k"/><use transform="matrix(0.06172839506172839,0,0,0.06172839506172839,33.333333333333336,0)" xlink:href="#k"/><use transform="matrix(0.06172839506172839,0,0,0.06172839506172839,39.50617283950618,0)" xlink:href="#h"/><use transform="matrix(0.06172839506172839,0,0,0.06172839506172839,51.851851851851855,0)" xlink:href="#l"/></g><path fill="#fff" d="M233-177c-1 41-23 64-60 70L243 0h-38l-65-103H63V0H30v-248c88 3 205-21 203 71zM63-129c60-2 137 13 137-47 0-61-80-42-137-45v92" id="m"/><path fill="#fff" d="M24-231v-30h32v30H24zM24 0v-190h32V0H24" id="n"/><path fill="#fff" d="M177-190C167-65 218 103 67 71c-23-6-38-20-44-43l32-5c15 47 100 32 89-28v-30C133-14 115 1 83 1 29 1 15-40 15-95c0-56 16-97 71-98 29-1 48 16 59 35 1-10 0-23 2-32h30zM94-22c36 0 50-32 50-73 0-42-14-75-50-75-39 0-46 34-46 75s6 73 46 73" id="o"/><path fill="#fff" d="M106-169C34-169 62-67 57 0H25v-261h32l-1 103c12-21 28-36 61-36 89 0 53 116 60 194h-32v-121c2-32-8-49-39-48" id="p"/><g id="c"><use transform="matrix(0.06172839506172839,0,0,0.06172839506172839,0,0)" xlink:href="#m"/><use transform="matrix(0.06172839506172839,0,0,0.06172839506172839,15.987654320987653,0)" xlink:href="#n"/><use transform="matrix(0.06172839506172839,0,0,0.06172839506172839,20.864197530864196,0)" xlink:href="#o"/><use transform="matrix(0.06172839506172839,0,0,0.06172839506172839,33.20987654320987,0)" xlink:href="#p"/><use transform="matrix(0.06172839506172839,0,0,0.06172839506172839,45.55555555555555,0)" xlink:href="#k"/></g><path fill="#fff" d="M30 0v-248h33v221h125V0H30" id="q"/><path fill="#fff" d="M100-194c63 0 86 42 84 106H49c0 40 14 67 53 68 26 1 43-12 49-29l28 8c-11 28-37 45-77 45C44 4 14-33 15-96c1-61 26-98 85-98zm52 81c6-60-76-77-97-28-3 7-6 17-6 28h103" id="r"/><path fill="#fff" d="M101-234c-31-9-42 10-38 44h38v23H63V0H32v-167H5v-23h27c-7-52 17-82 69-68v24" id="s"/><g id="d"><use transform="matrix(0.06172839506172839,0,0,0.06172839506172839,0,0)" xlink:href="#q"/><use transform="matrix(0.06172839506172839,0,0,0.06172839506172839,12.345679012345679,0)" xlink:href="#r"/><use transform="matrix(0.06172839506172839,0,0,0.06172839506172839,24.691358024691358,0)" xlink:href="#s"/><use transform="matrix(0.06172839506172839,0,0,0.06172839506172839,30.864197530864196,0)" xlink:href="#k"/></g><path fill="#fff" d="M41-175l104-15 443-1266h299l440 1266 104 15V0H935v-175l101-18-64-200H500l-64 200 101 18V0H41v-175zm528-433h334l-164-513h-6" id="t"/><use transform="matrix(0.017361111111111105,0,0,0.017361111111111105,0,0)" xlink:href="#t" id="e"/><path fill="#fff" d="M56 0v-175l155-30v-1045l-155-30v-176h603v176l-156 30v1026h411l14-183h223V0H56" id="u"/><path fill="#fff" d="M544-1102c253 0 452 129 452 379 0 178-5 365 4 536l89 12V0H752c-15-34-28-72-35-113C652-39 556 21 420 21 216 21 74-100 74-301c0-101 43-177 122-235 102-75 307-89 507-83v-106c0-108-66-164-178-164-61 0-117 16-152 39l-19 116H134l1-240c102-67 241-128 409-128zM365-312c-2 76 55 117 134 117 90 0 167-46 204-100v-165H554c-108-4-187 55-189 148" id="v"/><path fill="#fff" d="M687-1102c303 0 422 266 422 591 0 298-133 533-420 532-140-1-224-63-283-154L385 0H133v-1354l-155-30v-176h446v593c57-78 137-135 263-135zm-72 896c174 0 203-141 203-326 0-183-35-343-205-343-96 0-155 44-189 110v457c35 64 95 102 191 102" id="w"/><path fill="#fff" d="M992-104C901-33 749 21 581 21 263 21 67-218 67-550c0-305 187-552 488-552 292 0 464 196 461 489v159H370l-2 6c9 137 97 247 244 245 144-2 201-29 301-81zM730-647c6-135-47-231-175-230-121 2-173 107-186 225l3 5h358" id="x"/><path fill="#fff" d="M32-1384v-176h448v1355l141 30V0H47v-175l141-30v-1149" id="y"/><g id="f"><use transform="matrix(0.017361111111111105,0,0,0.017361111111111105,0,0)" xlink:href="#u"/><use transform="matrix(0.017361111111111105,0,0,0.017361111111111105,20.833333333333325,0)" xlink:href="#v"/><use transform="matrix(0.017361111111111105,0,0,0.017361111111111105,39.809027777777764,0)" xlink:href="#w"/><use transform="matrix(0.017361111111111105,0,0,0.017361111111111105,60.31249999999998,0)" xlink:href="#x"/><use transform="matrix(0.017361111111111105,0,0,0.017361111111111105,79.2534722222222,0)" xlink:href="#y"/></g></defs></g></svg>