<svg version="1.1" xmlns="http://www.w3.org/2000/svg" xmlns:xlink="http://www.w3.org/1999/xlink" width="250.40087890625" height="192"><defs/><g><g transform="translate(-102,-150) scale(1,1)"><rect fill="#C0C0C0" stroke="none" x="119" y="167" width="55.9599609375" height="44" opacity="0.2"/></g><g transform="translate(-102,-150) scale(1,1)"><rect fill="#ffffff" stroke="none" x="112" y="160" width="55.9599609375" height="44"/></g><g transform="translate(-102,-150) scale(1,1)"><path fill="none" stroke="#000000" d="M 112 160 L 167.9599609375 160 L 167.9599609375 204 L 112 204 L 112 160 Z Z" stroke-miterlimit="10"/></g><g transform="translate(-102,-150) scale(1,1)"><path fill="none" stroke="#000000" d="M 112 185 L 167.9599609375 185" stroke-miterlimit="10"/></g><g transform="translate(-102,-150) scale(1,1)"><path fill="none" stroke="#000000" d="M 112 195 L 167.9599609375 195" stroke-miterlimit="10"/></g><g transform="translate(-102,-150) scale(1,1)"><g><path fill="none" stroke="none"/><text fill="#000000" stroke="none" font-family="Arial" font-size="13px" font-style="normal" font-weight="bold" text-decoration="none" x="117.582275390625" y="179.5">Cinema</text></g></g><g transform="translate(-102,-150) scale(1,1)"><rect fill="#C0C0C0" stroke="none" x="279" y="167" width="70.40087890625" height="44" opacity="0.2"/></g><g transform="translate(-102,-150) scale(1,1)"><rect fill="#ffffff" stroke="none" x="272" y="160" width="70.40087890625" height="44"/></g><g transform="translate(-102,-150) scale(1,1)"><path fill="none" stroke="#000000" d="M 272 160 L 342.40087890625 160 L 342.40087890625 204 L 272 204 L 272 160 Z Z" stroke-miterlimit="10"/></g><g transform="translate(-102,-150) scale(1,1)"><path fill="none" stroke="#000000" d="M 272 185 L 342.40087890625 185" stroke-miterlimit="10"/></g><g transform="translate(-102,-150) scale(1,1)"><path fill="none" stroke="#000000" d="M 272 195 L 342.40087890625 195" stroke-miterlimit="10"/></g><g transform="translate(-102,-150) scale(1,1)"><g><path fill="none" stroke="none"/><text fill="#000000" stroke="none" font-family="Arial" font-size="13px" font-style="normal" font-weight="bold" text-decoration="none" x="279.140625" y="179.5">BoxOffice</text></g></g><g transform="translate(-102,-150) scale(1,1)"><rect fill="#C0C0C0" stroke="none" x="121" y="295" width="50.919921875" height="44" opacity="0.2"/></g><g transform="translate(-102,-150) scale(1,1)"><rect fill="#ffffff" stroke="none" x="114" y="288" width="50.919921875" height="44"/></g><g transform="translate(-102,-150) scale(1,1)"><path fill="none" stroke="#000000" d="M 114 288 L 164.919921875 288 L 164.919921875 332 L 114 332 L 114 288 Z Z" stroke-miterlimit="10"/></g><g transform="translate(-102,-150) scale(1,1)"><path fill="none" stroke="#000000" d="M 114 313 L 164.919921875 313" stroke-miterlimit="10"/></g><g transform="translate(-102,-150) scale(1,1)"><path fill="none" stroke="#000000" d="M 114 323 L 164.919921875 323" stroke-miterlimit="10"/></g><g transform="translate(-102,-150) scale(1,1)"><g><path fill="none" stroke="none"/><text fill="#000000" stroke="none" font-family="Arial" font-size="13px" font-style="normal" font-weight="bold" text-decoration="none" x="122.121337890625" y="307.5">Movie</text></g></g><g transform="translate(-102,-150) scale(1,1)"><path fill="none" stroke="#000000" d="M 139 287 L 139 205" stroke-miterlimit="10"/></g><g transform="translate(-102,-150) scale(1,1)"><path fill="#FFFFFF" stroke="none" d="M 143.209517756016 215.16267485762415 L 139 205 L 134.790482243984 215.16267485762415 L 139 227"/></g><g transform="translate(-102,-150) scale(1,1)"><path fill="none" stroke="#000000" d="M 143.209517756016 215.16267485762415 L 139 205 L 134.790482243984 215.16267485762415 L 139 227 L 143.209517756016 215.16267485762415" stroke-miterlimit="10"/></g><g transform="translate(-102,-150) scale(1,1)"><g><path fill="none" stroke="none"/><text fill="#000000" stroke="none" font-family="Arial" font-size="13px" font-style="normal" font-weight="normal" text-decoration="none" x="148.5" y="271.5">*</text></g></g><g transform="translate(-102,-150) scale(1,1)"><g><path fill="none" stroke="none"/><text fill="#000000" stroke="none" font-family="Arial" font-size="13px" font-style="normal" font-weight="normal" text-decoration="none" x="148.5" y="232.5">*</text></g></g><g transform="translate(-102,-150) scale(1,1)"><path fill="none" stroke="#000000" d="M 271 182 L 169 182" stroke-miterlimit="10"/></g><g transform="translate(-102,-150) scale(1,1)"><path fill="#000000" stroke="none" d="M 179.16267485762415 177.790482243984 L 169 182 L 179.16267485762415 186.209517756016 L 191 182"/></g><g transform="translate(-102,-150) scale(1,1)"><path fill="none" stroke="#000000" d="M 179.16267485762415 177.790482243984 L 169 182 L 179.16267485762415 186.209517756016 L 191 182 L 179.16267485762415 177.790482243984" stroke-miterlimit="10"/></g><g transform="translate(-102,-150) scale(1,1)"><g><path fill="none" stroke="none"/><text fill="#000000" stroke="none" font-family="Arial" font-size="13px" font-style="normal" font-weight="normal" text-decoration="none" x="245.5" y="175.5">1</text></g></g><g transform="translate(-102,-150) scale(1,1)"><g><path fill="none" stroke="none"/><text fill="#000000" stroke="none" font-family="Arial" font-size="13px" font-style="normal" font-weight="normal" text-decoration="none" x="186.5" y="175.5">1</text></g></g></g></svg>