<svg version="1.1" xmlns="http://www.w3.org/2000/svg" xmlns:xlink="http://www.w3.org/1999/xlink" width="240.33544921875" height="64"><defs/><g><g transform="translate(-184,-148) scale(1,1)"><rect fill="#C0C0C0" stroke="none" x="201" y="165" width="50.919921875" height="44" opacity="0.2"/></g><g transform="translate(-184,-148) scale(1,1)"><rect fill="#ffffff" stroke="none" x="194" y="158" width="50.919921875" height="44"/></g><g transform="translate(-184,-148) scale(1,1)"><path fill="none" stroke="#000000" d="M 194 158 L 244.919921875 158 L 244.919921875 202 L 194 202 L 194 158 Z Z" stroke-miterlimit="10"/></g><g transform="translate(-184,-148) scale(1,1)"><path fill="none" stroke="#000000" d="M 194 183 L 244.919921875 183" stroke-miterlimit="10"/></g><g transform="translate(-184,-148) scale(1,1)"><path fill="none" stroke="#000000" d="M 194 193 L 244.919921875 193" stroke-miterlimit="10"/></g><g transform="translate(-184,-148) scale(1,1)"><g><path fill="none" stroke="none"/><text fill="#000000" stroke="none" font-family="Arial" font-size="13px" font-style="normal" font-weight="bold" text-decoration="none" x="208.986328125" y="177.5">Car</text></g></g><g transform="translate(-184,-148) scale(1,1)"><rect fill="#C0C0C0" stroke="none" x="369" y="165" width="52.33544921875" height="44" opacity="0.2"/></g><g transform="translate(-184,-148) scale(1,1)"><rect fill="#ffffff" stroke="none" x="362" y="158" width="52.33544921875" height="44"/></g><g transform="translate(-184,-148) scale(1,1)"><path fill="none" stroke="#000000" d="M 362 158 L 414.33544921875 158 L 414.33544921875 202 L 362 202 L 362 158 Z Z" stroke-miterlimit="10"/></g><g transform="translate(-184,-148) scale(1,1)"><path fill="none" stroke="#000000" d="M 362 183 L 414.33544921875 183" stroke-miterlimit="10"/></g><g transform="translate(-184,-148) scale(1,1)"><path fill="none" stroke="#000000" d="M 362 193 L 414.33544921875 193" stroke-miterlimit="10"/></g><g transform="translate(-184,-148) scale(1,1)"><g><path fill="none" stroke="none"/><text fill="#000000" stroke="none" font-family="Arial" font-size="13px" font-style="normal" font-weight="bold" text-decoration="none" x="367.92822265625" y="177.5">Engine</text></g></g><g transform="translate(-184,-148) scale(1,1)"><path fill="none" stroke="#000000" d="M 361 180 L 246 180" stroke-miterlimit="10"/></g><g transform="translate(-184,-148) scale(1,1)"><path fill="#FFFFFF" stroke="none" d="M 256.16267485762415 175.790482243984 L 246 180 L 256.16267485762415 184.209517756016 L 268 180"/></g><g transform="translate(-184,-148) scale(1,1)"><path fill="none" stroke="#000000" d="M 256.16267485762415 175.790482243984 L 246 180 L 256.16267485762415 184.209517756016 L 268 180 L 256.16267485762415 175.790482243984" stroke-miterlimit="10"/></g><g transform="translate(-184,-148) scale(1,1)"><g><path fill="none" stroke="none"/><text fill="#000000" stroke="none" font-family="Arial" font-size="13px" font-style="normal" font-weight="normal" text-decoration="none" x="335.5" y="173.5">1</text></g></g><g transform="translate(-184,-148) scale(1,1)"><g><path fill="none" stroke="none"/><text fill="#000000" stroke="none" font-family="Arial" font-size="13px" font-style="normal" font-weight="normal" text-decoration="none" x="263.5" y="173.5">1</text></g></g></g></svg>