<svg version="1.1" xmlns="http://www.w3.org/2000/svg" xmlns:xlink="http://www.w3.org/1999/xlink" width="238.919921875" height="64"><defs/><g><g transform="translate(-209,-132) scale(1,1)"><rect fill="#C0C0C0" stroke="none" x="226" y="149" width="50.919921875" height="44" opacity="0.2"/></g><g transform="translate(-209,-132) scale(1,1)"><rect fill="#ffffff" stroke="none" x="219" y="142" width="50.919921875" height="44"/></g><g transform="translate(-209,-132) scale(1,1)"><path fill="none" stroke="#000000" d="M 219 142 L 269.919921875 142 L 269.919921875 186 L 219 186 L 219 142 Z Z" stroke-miterlimit="10"/></g><g transform="translate(-209,-132) scale(1,1)"><path fill="none" stroke="#000000" d="M 219 167 L 269.919921875 167" stroke-miterlimit="10"/></g><g transform="translate(-209,-132) scale(1,1)"><path fill="none" stroke="#000000" d="M 219 177 L 269.919921875 177" stroke-miterlimit="10"/></g><g transform="translate(-209,-132) scale(1,1)"><g><path fill="none" stroke="none"/><text fill="#000000" stroke="none" font-family="Arial" font-size="13px" font-style="normal" font-weight="bold" text-decoration="none" x="229.64453125" y="161.5">Book</text></g></g><g transform="translate(-209,-132) scale(1,1)"><rect fill="#C0C0C0" stroke="none" x="394" y="149" width="50.919921875" height="44" opacity="0.2"/></g><g transform="translate(-209,-132) scale(1,1)"><rect fill="#ffffff" stroke="none" x="387" y="142" width="50.919921875" height="44"/></g><g transform="translate(-209,-132) scale(1,1)"><path fill="none" stroke="#000000" d="M 387 142 L 437.919921875 142 L 437.919921875 186 L 387 186 L 387 142 Z Z" stroke-miterlimit="10"/></g><g transform="translate(-209,-132) scale(1,1)"><path fill="none" stroke="#000000" d="M 387 167 L 437.919921875 167" stroke-miterlimit="10"/></g><g transform="translate(-209,-132) scale(1,1)"><path fill="none" stroke="#000000" d="M 387 177 L 437.919921875 177" stroke-miterlimit="10"/></g><g transform="translate(-209,-132) scale(1,1)"><g><path fill="none" stroke="none"/><text fill="#000000" stroke="none" font-family="Arial" font-size="13px" font-style="normal" font-weight="bold" text-decoration="none" x="397.279541015625" y="161.5">Page</text></g></g><g transform="translate(-209,-132) scale(1,1)"><path fill="none" stroke="#000000" d="M 386 164 L 271 164" stroke-miterlimit="10"/></g><g transform="translate(-209,-132) scale(1,1)"><path fill="#000000" stroke="none" d="M 281.16267485762415 159.790482243984 L 271 164 L 281.16267485762415 168.209517756016 L 293 164"/></g><g transform="translate(-209,-132) scale(1,1)"><path fill="none" stroke="#000000" d="M 281.16267485762415 159.790482243984 L 271 164 L 281.16267485762415 168.209517756016 L 293 164 L 281.16267485762415 159.790482243984" stroke-miterlimit="10"/></g><g transform="translate(-209,-132) scale(1,1)"><g><path fill="none" stroke="none"/><text fill="#000000" stroke="none" font-family="Arial" font-size="13px" font-style="normal" font-weight="normal" text-decoration="none" x="361.5" y="157.5">*</text></g></g><g transform="translate(-209,-132) scale(1,1)"><g><path fill="none" stroke="none"/><text fill="#000000" stroke="none" font-family="Arial" font-size="13px" font-style="normal" font-weight="normal" text-decoration="none" x="288.5" y="157.5">1</text></g></g></g></svg>