<svg version="1.1" xmlns="http://www.w3.org/2000/svg" xmlns:xlink="http://www.w3.org/1999/xlink" width="210.29248046875" height="400"><defs/><g><g transform="translate(-181,-70) scale(1,1)"><rect fill="#C0C0C0" stroke="none" x="199" y="199" width="189.29248046875" height="115" opacity="0.2"/></g><g transform="translate(-181,-70) scale(1,1)"><rect fill="#ffffff" stroke="none" x="192" y="192" width="189.29248046875" height="115"/></g><g transform="translate(-181,-70) scale(1,1)"><path fill="none" stroke="#000000" d="M 192 192 L 381.29248046875 192 L 381.29248046875 307 L 192 307 L 192 192 Z Z" stroke-miterlimit="10"/></g><g transform="translate(-181,-70) scale(1,1)"><path fill="none" stroke="#000000" d="M 192 217 L 381.29248046875 217" stroke-miterlimit="10"/></g><g transform="translate(-181,-70) scale(1,1)"><path fill="none" stroke="#000000" d="M 192 270 L 381.29248046875 270" stroke-miterlimit="10"/></g><g transform="translate(-181,-70) scale(1,1)"><g><path fill="none" stroke="none"/><text fill="#000000" stroke="none" font-family="Arial" font-size="13px" font-style="italic" font-weight="bold" text-decoration="none" x="238.62939453125" y="211.5">RectangularShape</text></g></g><g transform="translate(-181,-70) scale(1,1)"><g><path fill="none" stroke="none"/><text fill="#000000" stroke="none" font-family="Arial" font-size="13px" font-style="normal" font-weight="normal" text-decoration="none" x="197" y="234.5">-width: int</text></g></g><g transform="translate(-181,-70) scale(1,1)"><g><path fill="none" stroke="none"/><text fill="#000000" stroke="none" font-family="Arial" font-size="13px" font-style="normal" font-weight="normal" text-decoration="none" x="197" y="249.5">-height: int</text></g></g><g transform="translate(-181,-70) scale(1,1)"><g><path fill="none" stroke="none"/><text fill="#000000" stroke="none" font-family="Arial" font-size="13px" font-style="normal" font-weight="normal" text-decoration="none" x="197" y="264.5">+/area: double</text></g></g><g transform="translate(-181,-70) scale(1,1)"><g><path fill="none" stroke="none"/><text fill="#000000" stroke="none" font-family="Arial" font-size="13px" font-style="normal" font-weight="normal" text-decoration="none" x="197" y="287.5">+contains(x: int, y: int): boolean</text></g></g><g transform="translate(-181,-70) scale(1,1)"><g><path fill="none" stroke="none"/><text fill="#000000" stroke="none" font-family="Arial" font-size="13px" font-style="normal" font-weight="normal" text-decoration="none" x="197" y="302.5">+getArea(): double</text></g></g><g transform="translate(-181,-70) scale(1,1)"><rect fill="#C0C0C0" stroke="none" x="235" y="87" width="117.04345703125" height="60" opacity="0.2"/></g><g transform="translate(-181,-70) scale(1,1)"><rect fill="#ffffff" stroke="none" x="228" y="80" width="117.04345703125" height="60"/></g><g transform="translate(-181,-70) scale(1,1)"><path fill="none" stroke="#000000" d="M 228 80 L 345.04345703125 80 L 345.04345703125 140 L 228 140 L 228 80 Z Z" stroke-miterlimit="10"/></g><g transform="translate(-181,-70) scale(1,1)"><path fill="none" stroke="#000000" d="M 228 118 L 345.04345703125 118" stroke-miterlimit="10"/></g><g transform="translate(-181,-70) scale(1,1)"><g><path fill="none" stroke="none"/><text fill="#000000" stroke="none" font-family="Arial" font-size="13px" font-style="normal" font-weight="normal" text-decoration="none" x="254.361328125" y="97.5">«interface»</text></g></g><g transform="translate(-181,-70) scale(1,1)"><g><path fill="none" stroke="none"/><text fill="#000000" stroke="none" font-family="Arial" font-size="13px" font-style="normal" font-weight="bold" text-decoration="none" x="267.726318359375" y="112.5">Shape</text></g></g><g transform="translate(-181,-70) scale(1,1)"><g><path fill="none" stroke="none"/><text fill="#000000" stroke="none" font-family="Arial" font-size="13px" font-style="normal" font-weight="normal" text-decoration="none" x="233" y="135.5">+getArea(): double</text></g></g><g transform="translate(-181,-70) scale(1,1)"><rect fill="#C0C0C0" stroke="none" x="198" y="367" width="190.0224609375" height="100" opacity="0.2"/></g><g transform="translate(-181,-70) scale(1,1)"><rect fill="#ffffff" stroke="none" x="191" y="360" width="190.0224609375" height="100"/></g><g transform="translate(-181,-70) scale(1,1)"><path fill="none" stroke="#000000" d="M 191 360 L 381.0224609375 360 L 381.0224609375 460 L 191 460 L 191 360 Z Z" stroke-miterlimit="10"/></g><g transform="translate(-181,-70) scale(1,1)"><path fill="none" stroke="#000000" d="M 191 385 L 381.0224609375 385" stroke-miterlimit="10"/></g><g transform="translate(-181,-70) scale(1,1)"><path fill="none" stroke="#000000" d="M 191 423 L 381.0224609375 423" stroke-miterlimit="10"/></g><g transform="translate(-181,-70) scale(1,1)"><g><path fill="none" stroke="none"/><text fill="#000000" stroke="none" font-family="Arial" font-size="13px" font-style="normal" font-weight="bold" text-decoration="none" x="256.7421875" y="379.5">Rectangle</text></g></g><g transform="translate(-181,-70) scale(1,1)"><g><path fill="none" stroke="none"/><text fill="#000000" stroke="none" font-family="Arial" font-size="13px" font-style="normal" font-weight="normal" text-decoration="none" x="196" y="402.5">-x: int</text></g></g><g transform="translate(-181,-70) scale(1,1)"><g><path fill="none" stroke="none"/><text fill="#000000" stroke="none" font-family="Arial" font-size="13px" font-style="normal" font-weight="normal" text-decoration="none" x="196" y="417.5">-y: int</text></g></g><g transform="translate(-181,-70) scale(1,1)"><g><path fill="none" stroke="none"/><text fill="#000000" stroke="none" font-family="Arial" font-size="13px" font-style="normal" font-weight="normal" text-decoration="none" x="196" y="440.5">+Rectangle(x: int, y: int)</text></g></g><g transform="translate(-181,-70) scale(1,1)"><g><path fill="none" stroke="none"/><text fill="#000000" stroke="none" font-family="Arial" font-size="13px" font-style="normal" font-weight="normal" text-decoration="none" x="196" y="455.5">+distance(r: Rectangle): double</text></g></g><g transform="translate(-181,-70) scale(1,1)"><path fill="none" stroke="#000000" d="M 286 359 L 286 308" stroke-miterlimit="10"/></g><g transform="translate(-181,-70) scale(1,1)"><path fill="#FFFFFF" stroke="none" d="M 294.419035512032 328.3253497152483 L 286 308 L 277.580964487968 328.3253497152483"/></g><g transform="translate(-181,-70) scale(1,1)"><path fill="none" stroke="#000000" d="M 294.419035512032 328.3253497152483 L 286 308 L 277.580964487968 328.3253497152483 L 294.419035512032 328.3253497152483" stroke-miterlimit="10"/></g><g transform="translate(-181,-70) scale(1,1)"><path fill="none" stroke="#000000" d="M 286 191 L 286 141" stroke-miterlimit="10" stroke-dasharray="3"/></g><g transform="translate(-181,-70) scale(1,1)"><path fill="#FFFFFF" stroke="none" d="M 294.419035512032 161.3253497152483 L 286 141 L 277.580964487968 161.3253497152483"/></g><g transform="translate(-181,-70) scale(1,1)"><path fill="none" stroke="#000000" d="M 294.419035512032 161.3253497152483 L 286 141 L 277.580964487968 161.3253497152483 L 294.419035512032 161.3253497152483" stroke-miterlimit="10"/></g></g></svg>