<svg version="1.1" xmlns="http://www.w3.org/2000/svg" xmlns:xlink="http://www.w3.org/1999/xlink" width="384.7734375" height="239"><defs/><g><g transform="translate(-86,-206) scale(1,1)"><rect fill="#C0C0C0" stroke="none" x="103" y="223" width="119.89990234375" height="57" opacity="0.2"/></g><g transform="translate(-86,-206) scale(1,1)"><rect fill="#ffffff" stroke="none" x="96" y="216" width="119.89990234375" height="57"/></g><g transform="translate(-86,-206) scale(1,1)"><path fill="none" stroke="#000000" d="M 96 216 L 215.89990234375 216 L 215.89990234375 273 L 96 273 L 96 216 Z Z" stroke-miterlimit="10"/></g><g transform="translate(-86,-206) scale(1,1)"><path fill="none" stroke="#000000" d="M 96 241 L 215.89990234375 241" stroke-miterlimit="10"/></g><g transform="translate(-86,-206) scale(1,1)"><path fill="none" stroke="#000000" d="M 96 251 L 215.89990234375 251" stroke-miterlimit="10"/></g><g transform="translate(-86,-206) scale(1,1)"><g><path fill="none" stroke="none"/><text fill="#000000" stroke="none" font-family="Arial" font-size="13px" font-style="normal" font-weight="bold" text-decoration="none" x="118.727294921875" y="235.5">StudentBody</text></g></g><g transform="translate(-86,-206) scale(1,1)"><g><path fill="none" stroke="none"/><text fill="#000000" stroke="none" font-family="Arial" font-size="13px" font-style="normal" font-weight="normal" text-decoration="none" x="101" y="268.5">+main(args: String)</text><path fill="none" stroke="#000000" d="M 101 268.5 L 211.89990234375 268.5" stroke-miterlimit="10"/></g></g><g transform="translate(-86,-206) scale(1,1)"><rect fill="#C0C0C0" stroke="none" x="311" y="223" width="156.7734375" height="115" opacity="0.2"/></g><g transform="translate(-86,-206) scale(1,1)"><rect fill="#ffffff" stroke="none" x="304" y="216" width="156.7734375" height="115"/></g><g transform="translate(-86,-206) scale(1,1)"><path fill="none" stroke="#000000" d="M 304 216 L 460.7734375 216 L 460.7734375 331 L 304 331 L 304 216 Z Z" stroke-miterlimit="10"/></g><g transform="translate(-86,-206) scale(1,1)"><path fill="none" stroke="#000000" d="M 304 241 L 460.7734375 241" stroke-miterlimit="10"/></g><g transform="translate(-86,-206) scale(1,1)"><path fill="none" stroke="#000000" d="M 304 309 L 460.7734375 309" stroke-miterlimit="10"/></g><g transform="translate(-86,-206) scale(1,1)"><g><path fill="none" stroke="none"/><text fill="#000000" stroke="none" font-family="Arial" font-size="13px" font-style="normal" font-weight="bold" text-decoration="none" x="359.9794921875" y="235.5">Student</text></g></g><g transform="translate(-86,-206) scale(1,1)"><g><path fill="none" stroke="none"/><text fill="#000000" stroke="none" font-family="Arial" font-size="13px" font-style="normal" font-weight="normal" text-decoration="none" x="309" y="258.5">-firstName: String</text></g></g><g transform="translate(-86,-206) scale(1,1)"><g><path fill="none" stroke="none"/><text fill="#000000" stroke="none" font-family="Arial" font-size="13px" font-style="normal" font-weight="normal" text-decoration="none" x="309" y="273.5">-lastName: String</text></g></g><g transform="translate(-86,-206) scale(1,1)"><g><path fill="none" stroke="none"/><text fill="#000000" stroke="none" font-family="Arial" font-size="13px" font-style="normal" font-weight="normal" text-decoration="none" x="309" y="288.5">-homeAddress: Address</text></g></g><g transform="translate(-86,-206) scale(1,1)"><g><path fill="none" stroke="none"/><text fill="#000000" stroke="none" font-family="Arial" font-size="13px" font-style="normal" font-weight="normal" text-decoration="none" x="309" y="303.5">-schoolAddress: Address</text></g></g><g transform="translate(-86,-206) scale(1,1)"><g><path fill="none" stroke="none"/><text fill="#000000" stroke="none" font-family="Arial" font-size="13px" font-style="normal" font-weight="normal" text-decoration="none" x="309" y="326.5">+toString(): String</text></g></g><g transform="translate(-86,-206) scale(1,1)"><rect fill="#C0C0C0" stroke="none" x="103" y="327" width="134.71533203125" height="115" opacity="0.2"/></g><g transform="translate(-86,-206) scale(1,1)"><rect fill="#ffffff" stroke="none" x="96" y="320" width="134.71533203125" height="115"/></g><g transform="translate(-86,-206) scale(1,1)"><path fill="none" stroke="#000000" d="M 96 320 L 230.71533203125 320 L 230.71533203125 435 L 96 435 L 96 320 Z Z" stroke-miterlimit="10"/></g><g transform="translate(-86,-206) scale(1,1)"><path fill="none" stroke="#000000" d="M 96 345 L 230.71533203125 345" stroke-miterlimit="10"/></g><g transform="translate(-86,-206) scale(1,1)"><path fill="none" stroke="#000000" d="M 96 413 L 230.71533203125 413" stroke-miterlimit="10"/></g><g transform="translate(-86,-206) scale(1,1)"><g><path fill="none" stroke="none"/><text fill="#000000" stroke="none" font-family="Arial" font-size="13px" font-style="normal" font-weight="bold" text-decoration="none" x="139.5126953125" y="339.5">Address</text></g></g><g transform="translate(-86,-206) scale(1,1)"><g><path fill="none" stroke="none"/><text fill="#000000" stroke="none" font-family="Arial" font-size="13px" font-style="normal" font-weight="normal" text-decoration="none" x="101" y="362.5">-streetAddress: String</text></g></g><g transform="translate(-86,-206) scale(1,1)"><g><path fill="none" stroke="none"/><text fill="#000000" stroke="none" font-family="Arial" font-size="13px" font-style="normal" font-weight="normal" text-decoration="none" x="101" y="377.5">-city: String</text></g></g><g transform="translate(-86,-206) scale(1,1)"><g><path fill="none" stroke="none"/><text fill="#000000" stroke="none" font-family="Arial" font-size="13px" font-style="normal" font-weight="normal" text-decoration="none" x="101" y="392.5">-state: String</text></g></g><g transform="translate(-86,-206) scale(1,1)"><g><path fill="none" stroke="none"/><text fill="#000000" stroke="none" font-family="Arial" font-size="13px" font-style="normal" font-weight="normal" text-decoration="none" x="101" y="407.5">-zipCode: long</text></g></g><g transform="translate(-86,-206) scale(1,1)"><g><path fill="none" stroke="none"/><text fill="#000000" stroke="none" font-family="Arial" font-size="13px" font-style="normal" font-weight="normal" text-decoration="none" x="101" y="430.5">+toString(): String</text></g></g><g transform="translate(-86,-206) scale(1,1)"><path fill="none" stroke="#000000" d="M 232 344 L 303 311" stroke-miterlimit="10"/></g><g transform="translate(-86,-206) scale(1,1)"><path fill="#FFFFFF" stroke="none" d="M 295.55838923171007 319.1007671965852 L 303 311 L 292.0098791452724 311.4660939803103 L 283.0496374533631 320.2727037188594"/></g><g transform="translate(-86,-206) scale(1,1)"><path fill="none" stroke="#000000" d="M 295.55838923171007 319.1007671965852 L 303 311 L 292.0098791452724 311.4660939803103 L 283.0496374533631 320.2727037188594 L 295.55838923171007 319.1007671965852" stroke-miterlimit="10"/></g><g transform="translate(-86,-206) scale(1,1)"><path fill="none" stroke="#000000" d="M 216 248 L 304 248" stroke-miterlimit="10"/></g><g transform="translate(-86,-206) scale(1,1)"><g><path fill="none" stroke="none"/><text fill="#000000" stroke="none" font-family="Arial" font-size="13px" font-style="normal" font-weight="normal" text-decoration="none" x="233.5" y="266.5">1</text></g></g><g transform="translate(-86,-206) scale(1,1)"><g><path fill="none" stroke="none"/><text fill="#000000" stroke="none" font-family="Arial" font-size="13px" font-style="normal" font-weight="normal" text-decoration="none" x="271.5" y="266.5">100</text></g></g></g></svg>