<svg version="1.1" xmlns="http://www.w3.org/2000/svg" xmlns:xlink="http://www.w3.org/1999/xlink" width="363.5908203125" height="256"><defs/><g><g transform="translate(-70,-222) scale(1,1)"><rect fill="#C0C0C0" stroke="none" x="127" y="239" width="69.67724609375" height="44" opacity="0.2"/></g><g transform="translate(-70,-222) scale(1,1)"><rect fill="#ffffff" stroke="none" x="120" y="232" width="69.67724609375" height="44"/></g><g transform="translate(-70,-222) scale(1,1)"><path fill="none" stroke="#000000" d="M 120 232 L 189.67724609375 232 L 189.67724609375 276 L 120 276 L 120 232 Z Z" stroke-miterlimit="10"/></g><g transform="translate(-70,-222) scale(1,1)"><path fill="none" stroke="#000000" d="M 120 257 L 189.67724609375 257" stroke-miterlimit="10"/></g><g transform="translate(-70,-222) scale(1,1)"><path fill="none" stroke="#000000" d="M 120 267 L 189.67724609375 267" stroke-miterlimit="10"/></g><g transform="translate(-70,-222) scale(1,1)"><g><path fill="none" stroke="none"/><text fill="#000000" stroke="none" font-family="Arial" font-size="13px" font-style="normal" font-weight="bold" text-decoration="none" x="126.66455078125" y="251.5">Customer</text></g></g><g transform="translate(-70,-222) scale(1,1)"><rect fill="#C0C0C0" stroke="none" x="327" y="263" width="94.236328125" height="44" opacity="0.2"/></g><g transform="translate(-70,-222) scale(1,1)"><rect fill="#ffffff" stroke="none" x="320" y="256" width="94.236328125" height="44"/></g><g transform="translate(-70,-222) scale(1,1)"><path fill="none" stroke="#000000" d="M 320 256 L 414.236328125 256 L 414.236328125 300 L 320 300 L 320 256 Z Z" stroke-miterlimit="10"/></g><g transform="translate(-70,-222) scale(1,1)"><path fill="none" stroke="#000000" d="M 320 281 L 414.236328125 281" stroke-miterlimit="10"/></g><g transform="translate(-70,-222) scale(1,1)"><path fill="none" stroke="#000000" d="M 320 291 L 414.236328125 291" stroke-miterlimit="10"/></g><g transform="translate(-70,-222) scale(1,1)"><g><path fill="none" stroke="none"/><text fill="#000000" stroke="none" font-family="Arial" font-size="13px" font-style="normal" font-weight="bold" text-decoration="none" x="327.734130859375" y="275.5">RentalInvoice</text></g></g><g transform="translate(-70,-222) scale(1,1)"><rect fill="#C0C0C0" stroke="none" x="135" y="335" width="75.4599609375" height="44" opacity="0.2"/></g><g transform="translate(-70,-222) scale(1,1)"><rect fill="#ffffff" stroke="none" x="128" y="328" width="75.4599609375" height="44"/></g><g transform="translate(-70,-222) scale(1,1)"><path fill="none" stroke="#000000" d="M 128 328 L 203.4599609375 328 L 203.4599609375 372 L 128 372 L 128 328 Z Z" stroke-miterlimit="10"/></g><g transform="translate(-70,-222) scale(1,1)"><path fill="none" stroke="#000000" d="M 128 353 L 203.4599609375 353" stroke-miterlimit="10"/></g><g transform="translate(-70,-222) scale(1,1)"><path fill="none" stroke="#000000" d="M 128 363 L 203.4599609375 363" stroke-miterlimit="10"/></g><g transform="translate(-70,-222) scale(1,1)"><g><path fill="none" stroke="none"/><text fill="#000000" stroke="none" font-family="Arial" font-size="13px" font-style="italic" font-weight="bold" text-decoration="none" x="137.213134765625" y="347.5">RentalItem</text></g></g><g transform="translate(-70,-222) scale(1,1)"><rect fill="#C0C0C0" stroke="none" x="87" y="431" width="50.919921875" height="44" opacity="0.2"/></g><g transform="translate(-70,-222) scale(1,1)"><rect fill="#ffffff" stroke="none" x="80" y="424" width="50.919921875" height="44"/></g><g transform="translate(-70,-222) scale(1,1)"><path fill="none" stroke="#000000" d="M 80 424 L 130.919921875 424 L 130.919921875 468 L 80 468 L 80 424 Z Z" stroke-miterlimit="10"/></g><g transform="translate(-70,-222) scale(1,1)"><path fill="none" stroke="#000000" d="M 80 449 L 130.919921875 449" stroke-miterlimit="10"/></g><g transform="translate(-70,-222) scale(1,1)"><path fill="none" stroke="#000000" d="M 80 459 L 130.919921875 459" stroke-miterlimit="10"/></g><g transform="translate(-70,-222) scale(1,1)"><g><path fill="none" stroke="none"/><text fill="#000000" stroke="none" font-family="Arial" font-size="13px" font-style="normal" font-weight="bold" text-decoration="none" x="91.736328125" y="443.5">DVD</text></g></g><g transform="translate(-70,-222) scale(1,1)"><rect fill="#C0C0C0" stroke="none" x="151" y="431" width="50.919921875" height="44" opacity="0.2"/></g><g transform="translate(-70,-222) scale(1,1)"><rect fill="#ffffff" stroke="none" x="144" y="424" width="50.919921875" height="44"/></g><g transform="translate(-70,-222) scale(1,1)"><path fill="none" stroke="#000000" d="M 144 424 L 194.919921875 424 L 194.919921875 468 L 144 468 L 144 424 Z Z" stroke-miterlimit="10"/></g><g transform="translate(-70,-222) scale(1,1)"><path fill="none" stroke="#000000" d="M 144 449 L 194.919921875 449" stroke-miterlimit="10"/></g><g transform="translate(-70,-222) scale(1,1)"><path fill="none" stroke="#000000" d="M 144 459 L 194.919921875 459" stroke-miterlimit="10"/></g><g transform="translate(-70,-222) scale(1,1)"><g><path fill="none" stroke="none"/><text fill="#000000" stroke="none" font-family="Arial" font-size="13px" font-style="normal" font-weight="bold" text-decoration="none" x="156.094970703125" y="443.5">VHS</text></g></g><g transform="translate(-70,-222) scale(1,1)"><rect fill="#C0C0C0" stroke="none" x="215" y="431" width="50.919921875" height="44" opacity="0.2"/></g><g transform="translate(-70,-222) scale(1,1)"><rect fill="#ffffff" stroke="none" x="208" y="424" width="50.919921875" height="44"/></g><g transform="translate(-70,-222) scale(1,1)"><path fill="none" stroke="#000000" d="M 208 424 L 258.919921875 424 L 258.919921875 468 L 208 468 L 208 424 Z Z" stroke-miterlimit="10"/></g><g transform="translate(-70,-222) scale(1,1)"><path fill="none" stroke="#000000" d="M 208 449 L 258.919921875 449" stroke-miterlimit="10"/></g><g transform="translate(-70,-222) scale(1,1)"><path fill="none" stroke="#000000" d="M 208 459 L 258.919921875 459" stroke-miterlimit="10"/></g><g transform="translate(-70,-222) scale(1,1)"><g><path fill="none" stroke="none"/><text fill="#000000" stroke="none" font-family="Arial" font-size="13px" font-style="normal" font-weight="bold" text-decoration="none" x="215.759521484375" y="443.5">Game</text></g></g><g transform="translate(-70,-222) scale(1,1)"><rect fill="#C0C0C0" stroke="none" x="319" y="375" width="111.5908203125" height="44" opacity="0.2"/></g><g transform="translate(-70,-222) scale(1,1)"><rect fill="#ffffff" stroke="none" x="312" y="368" width="111.5908203125" height="44"/></g><g transform="translate(-70,-222) scale(1,1)"><path fill="none" stroke="#000000" d="M 312 368 L 423.5908203125 368 L 423.5908203125 412 L 312 412 L 312 368 Z Z" stroke-miterlimit="10"/></g><g transform="translate(-70,-222) scale(1,1)"><path fill="none" stroke="#000000" d="M 312 393 L 423.5908203125 393" stroke-miterlimit="10"/></g><g transform="translate(-70,-222) scale(1,1)"><path fill="none" stroke="#000000" d="M 312 403 L 423.5908203125 403" stroke-miterlimit="10"/></g><g transform="translate(-70,-222) scale(1,1)"><g><path fill="none" stroke="none"/><text fill="#000000" stroke="none" font-family="Arial" font-size="13px" font-style="normal" font-weight="bold" text-decoration="none" x="319.740478515625" y="387.5">CheckoutScreen</text></g></g><g transform="translate(-70,-222) scale(1,1)"><path fill="none" stroke="#000000" d="M 367 301 L 367 367" stroke-miterlimit="10"/></g><g transform="translate(-70,-222) scale(1,1)"><g><path fill="none" stroke="none"/><text fill="#000000" stroke="none" font-family="Arial" font-size="13px" font-style="normal" font-weight="normal" text-decoration="none" x="335.5" y="316.5">0..1</text></g></g><g transform="translate(-70,-222) scale(1,1)"><path fill="none" stroke="#000000" d="M 190 248 L 272 248 L 272 272 L 320 272" stroke-miterlimit="10"/></g><g transform="translate(-70,-222) scale(1,1)"><path fill="#FFFFFF" stroke="none" d="M 309.83732514237585 276.209517756016 L 320 272 L 309.83732514237585 267.790482243984 L 298 272"/></g><g transform="translate(-70,-222) scale(1,1)"><path fill="none" stroke="#000000" d="M 309.83732514237585 276.209517756016 L 320 272 L 309.83732514237585 267.790482243984 L 298 272 L 309.83732514237585 276.209517756016" stroke-miterlimit="10"/></g><g transform="translate(-70,-222) scale(1,1)"><g><path fill="none" stroke="none"/><text fill="#000000" stroke="none" font-family="Arial" font-size="13px" font-style="normal" font-weight="normal" text-decoration="none" x="207.5" y="266.5">1</text></g></g><g transform="translate(-70,-222) scale(1,1)"><path fill="none" stroke="#000000" d="M 203 336 L 272 336 L 272 288 L 320 288" stroke-miterlimit="10"/></g><g transform="translate(-70,-222) scale(1,1)"><path fill="#000000" stroke="none" d="M 309.83732514237585 292.209517756016 L 320 288 L 309.83732514237585 283.790482243984 L 298 288"/></g><g transform="translate(-70,-222) scale(1,1)"><path fill="none" stroke="#000000" d="M 309.83732514237585 292.209517756016 L 320 288 L 309.83732514237585 283.790482243984 L 298 288 L 309.83732514237585 292.209517756016" stroke-miterlimit="10"/></g><g transform="translate(-70,-222) scale(1,1)"><g><path fill="none" stroke="none"/><text fill="#000000" stroke="none" font-family="Arial" font-size="13px" font-style="normal" font-weight="normal" text-decoration="none" x="214.5" y="354.5">1..*</text></g></g><g transform="translate(-70,-222) scale(1,1)"><g><path fill="none" stroke="none"/><text fill="#000000" stroke="none" font-family="Arial" font-size="13px" font-style="normal" font-weight="normal" text-decoration="none" x="294.5" y="306.5">1</text></g></g><g transform="translate(-70,-222) scale(1,1)"><path fill="none" stroke="#000000" d="M 105 424 L 105 408 L 168 408 L 168 372" stroke-miterlimit="10"/></g><g transform="translate(-70,-222) scale(1,1)"><path fill="#FFFFFF" stroke="none" d="M 176.41903551203197 392.3253497152483 L 168 372 L 159.58096448796803 392.3253497152483"/></g><g transform="translate(-70,-222) scale(1,1)"><path fill="none" stroke="#000000" d="M 176.41903551203197 392.3253497152483 L 168 372 L 159.58096448796803 392.3253497152483 L 176.41903551203197 392.3253497152483" stroke-miterlimit="10"/></g><g transform="translate(-70,-222) scale(1,1)"><path fill="none" stroke="#000000" d="M 168 424 L 168 372" stroke-miterlimit="10"/></g><g transform="translate(-70,-222) scale(1,1)"><path fill="#FFFFFF" stroke="none" d="M 176.41903551203197 392.3253497152483 L 168 372 L 159.58096448796803 392.3253497152483"/></g><g transform="translate(-70,-222) scale(1,1)"><path fill="none" stroke="#000000" d="M 176.41903551203197 392.3253497152483 L 168 372 L 159.58096448796803 392.3253497152483 L 176.41903551203197 392.3253497152483" stroke-miterlimit="10"/></g><g transform="translate(-70,-222) scale(1,1)"><path fill="none" stroke="#000000" d="M 233 424 L 233 408 L 168 408 L 168 372" stroke-miterlimit="10"/></g><g transform="translate(-70,-222) scale(1,1)"><path fill="#FFFFFF" stroke="none" d="M 176.41903551203197 392.3253497152483 L 168 372 L 159.58096448796803 392.3253497152483"/></g><g transform="translate(-70,-222) scale(1,1)"><path fill="none" stroke="#000000" d="M 176.41903551203197 392.3253497152483 L 168 372 L 159.58096448796803 392.3253497152483 L 176.41903551203197 392.3253497152483" stroke-miterlimit="10"/></g></g></svg>