<svg xmlns="http://www.w3.org/2000/svg" xmlns:xlink="http://www.w3.org/1999/xlink" xmlns:lucid="lucid" width="1099.38" height="901.61"><g transform="translate(-232.44444444444434 -275.66666666662775)" lucid:page-tab-id="kUR8SHdj2tsA"><path d="M580.78 301.67c0-3.32 2.68-6 6-6h394.66c3.32 0 6 2.68 6 6v138c0 3.3-2.68 6-6 6H586.78c-3.32 0-6-2.7-6-6z" stroke="#fff" stroke-width="3" fill-opacity="0"/><path d="M580.78 354.87h406.66" stroke="#fff" stroke-width="3" fill="none"/><use xlink:href="#a" transform="matrix(1,0,0,1,588.7777777778291,303.66666666662775) translate(137.075 14.799999999999999)"/><use xlink:href="#b" transform="matrix(1,0,0,1,588.7777777778291,303.66666666662775) translate(126.67499999999998 36.4)"/><use xlink:href="#c" transform="matrix(1,0,0,1,592.7777777778291,362.86666666662774) translate(0 28.611111111111114)"/><use xlink:href="#d" transform="matrix(1,0,0,1,592.7777777778291,362.86666666662774) translate(19.1358024691358 28.611111111111114)"/><use xlink:href="#e" transform="matrix(1,0,0,1,592.7777777778291,362.86666666662774) translate(192.96296296296293 28.611111111111114)"/><use xlink:href="#f" transform="matrix(1,0,0,1,592.7777777778291,362.86666666662774) translate(205.3086419753086 28.611111111111114)"/><use xlink:href="#c" transform="matrix(1,0,0,1,592.7777777778291,362.86666666662774) translate(0 55.27777777777778)"/><use xlink:href="#g" transform="matrix(1,0,0,1,592.7777777778291,362.86666666662774) translate(19.1358024691358 55.27777777777778)"/><use xlink:href="#e" transform="matrix(1,0,0,1,592.7777777778291,362.86666666662774) translate(192.96296296296293 55.27777777777778)"/><use xlink:href="#h" transform="matrix(1,0,0,1,592.7777777778291,362.86666666662774) translate(205.3086419753086 55.27777777777778)"/><path d="M1133.78 313.67c0-3.32 2.68-6 6-6h148c3.3 0 6 2.68 6 6v114c0 3.3-2.7 6-6 6h-148c-3.32 0-6-2.7-6-6z" stroke="#fff" stroke-width="3" fill-opacity="0"/><use xlink:href="#i" transform="matrix(1,0,0,1,1141.7777777778294,315.66666666662775) translate(43.69753086419753 59.44444444444444)"/><path d="M335.1 553.56c0-3.32 2.7-6 6-6h401.34c3.32 0 6 2.68 6 6v144c0 3.3-2.68 6-6 6H341.1c-3.3 0-6-2.7-6-6z" stroke="#fff" stroke-width="3" fill-opacity="0"/><path d="M335.1 590.22h413.34m-413.33 43.5h413.34" stroke="#fff" stroke-width="3" fill="none"/><use xlink:href="#j" transform="matrix(1,0,0,1,343.11111111112405,555.5555555555038) translate(109.61728395061729 17.944444444444443)"/><use xlink:href="#c" transform="matrix(1,0,0,1,347.11111111112405,641.7222222221704) translate(0 18.611111111111114)"/><use xlink:href="#d" transform="matrix(1,0,0,1,347.11111111112405,641.7222222221704) translate(19.1358024691358 18.611111111111114)"/><use xlink:href="#e" transform="matrix(1,0,0,1,347.11111111112405,641.7222222221704) translate(192.96296296296293 18.611111111111114)"/><use xlink:href="#k" transform="matrix(1,0,0,1,347.11111111112405,641.7222222221704) translate(205.3086419753086 18.611111111111114)"/><use xlink:href="#c" transform="matrix(1,0,0,1,347.11111111112405,641.7222222221704) translate(0 45.277777777777786)"/><use xlink:href="#g" transform="matrix(1,0,0,1,347.11111111112405,641.7222222221704) translate(19.1358024691358 45.277777777777786)"/><use xlink:href="#e" transform="matrix(1,0,0,1,347.11111111112405,641.7222222221704) translate(192.96296296296293 45.277777777777786)"/><use xlink:href="#l" transform="matrix(1,0,0,1,347.11111111112405,641.7222222221704) translate(205.3086419753086 45.277777777777786)"/><path d="M816.44 553.56c0-3.32 2.7-6 6-6h401.34c3.3 0 6 2.68 6 6v144c0 3.3-2.7 6-6 6H822.44c-3.3 0-6-2.7-6-6z" stroke="#fff" stroke-width="3" fill-opacity="0"/><path d="M816.44 590.22h413.34m-413.34 43.5h413.34" stroke="#fff" stroke-width="3" fill="none"/><use xlink:href="#m" transform="matrix(1,0,0,1,824.444444444444,555.5555555555038) translate(109.61728395061729 17.944444444444443)"/><use xlink:href="#c" transform="matrix(1,0,0,1,828.444444444444,641.7222222221704) translate(0 18.611111111111114)"/><use xlink:href="#d" transform="matrix(1,0,0,1,828.444444444444,641.7222222221704) translate(19.1358024691358 18.611111111111114)"/><use xlink:href="#e" transform="matrix(1,0,0,1,828.444444444444,641.7222222221704) translate(192.96296296296293 18.611111111111114)"/><use xlink:href="#n" transform="matrix(1,0,0,1,828.444444444444,641.7222222221704) translate(205.3086419753086 18.611111111111114)"/><use xlink:href="#c" transform="matrix(1,0,0,1,828.444444444444,641.7222222221704) translate(0 45.277777777777786)"/><use xlink:href="#g" transform="matrix(1,0,0,1,828.444444444444,641.7222222221704) translate(19.1358024691358 45.277777777777786)"/><use xlink:href="#e" transform="matrix(1,0,0,1,828.444444444444,641.7222222221704) translate(192.96296296296293 45.277777777777786)"/><use xlink:href="#o" transform="matrix(1,0,0,1,828.444444444444,641.7222222221704) translate(205.3086419753086 45.277777777777786)"/><path d="M541.78 544.56v-4.2m0-5.6v-8.38m0-5.6v-8.38m0-5.6v-4.2l.82-3.02 2.15-2.15 3.03-.82h4.4m5.86 0h8.8m5.87 0h8.8m5.88 0h8.8m5.86 0h8.8m5.87 0h8.8m5.88 0h8.8m5.86 0h8.8m5.87 0h8.8m5.88 0h8.8m5.86 0h8.8m5.87 0h4.4l3.04-.8 2.15-2.16.8-3.03v-5.23m0-7v-5.24" stroke="#fff" stroke-width="3" fill="none"/><path d="M543.28 546.06h-3v-1.54h3z" stroke="#fff" stroke-width=".05" fill="#fff"/><path d="M715.1 450.1l12.74 21.53H702.4z" stroke="#fff" stroke-width="3" fill="#fff"/><path d="M1023.1 544.56v-4.2m0-5.6v-8.38m0-5.6v-8.38m0-5.6v-4.2l-.8-3.02-2.16-2.15-3.03-.82h-4.32m-5.77 0h-8.64m-5.77 0h-8.66m-5.77 0h-8.66m-5.76 0h-8.65m-5.78 0h-8.66m-5.77 0h-8.66m-5.77 0h-8.66m-5.76 0h-8.65m-5.78 0h-8.65m-5.77 0h-8.66m-5.77 0h-4.33l-3.02-.8-2.16-2.16-.82-3.03v-5.23m0-7v-5.24" stroke="#fff" stroke-width="3" fill="none"/><path d="M1024.6 546.06h-3v-1.54h3z" stroke="#fff" stroke-width=".05" fill="#fff"/><path d="M852.44 450.1l12.73 21.53h-25.45z" stroke="#fff" stroke-width="3" fill="#fff"/><path d="M455.44 792.22c0-3.3 2.7-6 6-6h161.34c3.3 0 6 2.7 6 6v108c0 3.32-2.7 6-6 6H461.44c-3.3 0-6-2.68-6-6z" stroke="#fff" stroke-width="3" fill-opacity="0"/><use xlink:href="#a" transform="matrix(1,0,0,1,463.4444444444768,794.2222222222481) translate(20.574999999999996 44.8)"/><use xlink:href="#p" transform="matrix(1,0,0,1,463.4444444444768,794.2222222222481) translate(2.2249999999999943 66.4)"/><path d="M351.78 989.1c0-3.3 2.68-6 6-6h148c3.3 0 6 2.7 6 6v114c0 3.32-2.7 6-6 6h-148c-3.32 0-6-2.68-6-6z" stroke="#fff" stroke-width="3" fill-opacity="0"/><use xlink:href="#q" transform="matrix(1,0,0,1,359.7777777777713,991.111111111124) translate(20.17901234567902 59.44444444444444)"/><path d="M571.78 989.1c0-3.3 2.68-6 6-6h148c3.3 0 6 2.7 6 6v114c0 3.32-2.7 6-6 6h-148c-3.32 0-6-2.68-6-6z" stroke="#fff" stroke-width="3" fill-opacity="0"/><use xlink:href="#r" transform="matrix(1,0,0,1,579.7777777778101,991.111111111124) translate(20.17901234567902 59.44444444444444)"/><path d="M431.78 980.1v-4.4m0-5.9v-8.83m0-5.9v-4.4l.82-3.03 2.15-2.15 3.03-.83h4.33m5.8 0h8.66m5.77 0H471m5.78 0h8.66m5.78 0h8.67m5.77 0H510l3.03-.82 2.15-2.16.82-3.03v-4.98" stroke="#fff" stroke-width="3" fill="none"/><path d="M433.28 981.6h-3v-1.53h3z" stroke="#fff" stroke-width=".05" fill="#fff"/><path d="M516 910.67l12.73 21.52h-25.46z" stroke="#fff" stroke-width="3" fill="#fff"/><path d="M651.78 980.1v-4.4m0-5.9v-8.83m0-5.9v-4.4l-.82-3.03-2.15-2.15-3.02-.83h-4.3m-5.72 0h-8.6m-5.7 0h-8.6m-5.72 0h-8.6m-5.7 0h-8.6m-5.72 0h-4.3l-3.03-.82-2.16-2.16-.82-3.03v-4.98" stroke="#fff" stroke-width="3" fill="none"/><path d="M653.28 981.6h-3v-1.53h3z" stroke="#fff" stroke-width=".05" fill="#fff"/><path d="M568.22 910.67l12.73 21.52H555.5z" stroke="#fff" stroke-width="3" fill="#fff"/><path d="M936.78 792.22c0-3.3 2.68-6 6-6h161.33c3.32 0 6 2.7 6 6v108c0 3.32-2.68 6-6 6H942.8c-3.32 0-6-2.68-6-6z" stroke="#fff" stroke-width="3" fill-opacity="0"/><use xlink:href="#a" transform="matrix(1,0,0,1,944.7777777777967,794.2222222222481) translate(20.574999999999996 44.8)"/><use xlink:href="#s" transform="matrix(1,0,0,1,944.7777777777967,794.2222222222481) translate(2.2249999999999943 66.4)"/><path d="M833.1 989.1c0-3.3 2.7-6 6-6h148c3.32 0 6 2.7 6 6v114c0 3.32-2.68 6-6 6h-148c-3.3 0-6-2.68-6-6z" stroke="#fff" stroke-width="3" fill-opacity="0"/><use xlink:href="#t" transform="matrix(1,0,0,1,841.1111111110912,991.111111111124) translate(20.17901234567902 59.44444444444444)"/><path d="M1053.1 989.1c0-3.3 2.7-6 6-6h148c3.32 0 6 2.7 6 6v114c0 3.32-2.68 6-6 6h-148c-3.3 0-6-2.68-6-6z" stroke="#fff" stroke-width="3" fill-opacity="0"/><use xlink:href="#u" transform="matrix(1,0,0,1,1061.11111111113,991.111111111124) translate(20.17901234567902 59.44444444444444)"/><path d="M913.1 980.1v-4.4m0-5.9v-8.83m0-5.9v-4.4l.83-3.03 2.15-2.15 3.03-.83h4.34m5.78 0h8.67m5.77 0h8.66m5.78 0h8.68m5.78 0h8.66m5.78 0h4.33l3.03-.82 2.15-2.16.83-3.03v-4.98" stroke="#fff" stroke-width="3" fill="none"/><path d="M914.6 981.6h-3v-1.53h3z" stroke="#fff" stroke-width=".05" fill="#fff"/><path d="M997.33 910.67l12.73 21.52H984.6z" stroke="#fff" stroke-width="3" fill="#fff"/><path d="M1133.1 980.1v-4.4m0-5.9v-8.83m0-5.9v-4.4l-.8-3.03-2.16-2.15-3.03-.83h-4.28m-5.73 0h-8.6m-5.72 0h-8.58m-5.73 0h-8.6m-5.7 0h-8.6m-5.72 0h-4.3l-3.02-.82-2.16-2.16-.8-3.03v-4.98" stroke="#fff" stroke-width="3" fill="none"/><path d="M1134.6 981.6h-3v-1.53h3z" stroke="#fff" stroke-width=".05" fill="#fff"/><path d="M1049.56 910.67l12.72 21.52h-25.45z" stroke="#fff" stroke-width="3" fill="#fff"/><path d="M813.44 625.56h-5.2m-6.92 0h-10.4m-6.92 0h-5.2l-3.03.8-2.15 2.17-.82 3.03v4.55m0 6.1v9.1m0 6.08v9.12m0 6.07v9.12m0 6.07v9.1m0 6.1v9.1m0 6.08v9.12m0 6.07v9.12m0 6.08v9.1m0 6.1v9.1m0 6.08v9.12m0 6.07v9.13m0 6.08v9.12m0 6.08v4.56" stroke="#fff" stroke-width="3" fill="none"/><path d="M814.94 627.06h-1.53v-3h1.54zM774.3 830.56h-3v-1.54h3z" stroke="#fff" stroke-width=".05" fill="#fff"/><path d="M772.8 863.4v4.4m0 5.9v8.83m0 5.9v8.83m0 5.9v8.83m0 5.88v8.83m0 5.9v8.84m0 5.9v8.83m0 5.9v8.82m0 5.9v8.82m0 5.9v8.83m0 5.9v8.83m0 5.9v8.82m0 5.9v4.4l-.82 3.04-2.15 2.15-3.03.8h-4.62m-6.16 0h-9.24m-6.16 0h-4.6" stroke="#fff" stroke-width="3" fill="none"/><path d="M774.3 863.43h-3v-1.54h3z" stroke="#fff" stroke-width=".05" fill="#fff"/><path d="M753.44 1035.93l-17.22 10.18 17.22 10.2M1270.8 851.17v4.36m0 5.8v8.73m0 5.8v8.74m0 5.8v8.73m0 5.8v8.73m0 5.82v8.72m0 5.8v8.73m0 5.82v8.72m0 5.8v8.73m0 5.8v8.73m0 5.82v8.72m0 5.8v8.73m0 5.82v8.72m0 5.8v4.37l-.82 3.04-2.15 2.15-3.03.8h-4.74m-6.33 0h-9.5m-6.32 0h-9.5m-6.32 0h-4.74" stroke="#fff" stroke-width="3" fill="none"/><path d="M1272.3 851.2h-3v-1.53h3z" stroke="#fff" stroke-width=".05" fill="#fff"/><path d="M1234.77 1035.93l-17.2 10.18 17.2 10.2M1232.78 625.56h4.8m6.4 0h9.6m6.42 0h4.8l3.03.8 2.15 2.17.82 3.03v4.63m0 6.16v9.27m0 6.17v9.27m0 6.17v9.27m0 6.18v9.27m0 6.17v9.27m0 6.16v9.27m0 6.17v9.27m0 6.17v9.27m0 6.18v9.27m0 6.17v9.27m0 6.16v9.27m0 6.17v4.63" stroke="#fff" stroke-width="3" fill="none"/><path d="M1232.82 627.06h-1.54v-3h1.54zM1272.3 818.33h-3v-1.54h3zM249.94 1144.4l.67 2.46 1.6 1.6 2.44.65h4.25v3h-4.65l-3.6-.96-2.73-2.72-.98-3.6v-4.74h3zm23.8 7.7h-8.9v-3h8.9zm14.82 0h-8.9v-3h8.9zm14.83 0h-8.9v-3h8.9zm14.83 0h-8.9v-3h8.9zm14.83 0h-8.9v-3h8.9zm14.83 0H339v-3h8.9zm14.83 0h-8.9v-3h8.9zm14.83 0h-8.9v-3h8.9zm14.83 0h-8.9v-3h8.9zm14.83 0h-8.9v-3h8.9zm14.83 0h-8.9v-3h8.9zm14.83 0H428v-3h8.9zm14.83 0h-8.9v-3h8.9zm14.83 0h-8.9v-3h8.9zm14.83 0h-8.9v-3h8.9zm14.83 0h-8.9v-3h8.9zm14.83 0h-8.9v-3h8.9zm10.7 0h-4.77v-3h4.75zm93.13 0H606v-3h8.9zm14.83 0h-8.9v-3h8.9zm14.83 0h-8.9v-3h8.9zm14.83 0h-8.9v-3h8.9zm14.83 0h-8.9v-3h8.9zm14.83 0h-8.9v-3h8.9zm14.83 0H695v-3h8.9zm14.83 0h-8.9v-3h8.9zm14.83 0h-8.9v-3h8.9zm14.83 0h-8.9v-3h8.9zm14.83 0h-8.9v-3h8.9zm14.83 0h-8.9v-3h8.9zm14.83 0H784v-3h8.9zm14.83 0h-8.9v-3h8.9zm14.83 0h-8.9v-3h8.9zm14.83 0h-8.9v-3h8.9zm14.83 0h-8.9v-3h8.9zm14.83 0h-8.9v-3h8.9zm14.83 0H873v-3h8.9zm14.83 0h-8.9v-3h8.9zm17.88-7.3l-.96 3.62-2.72 2.72-3.6.97h-4.66v-3h4.25l2.46-.65 1.6-1.6.65-2.44v-4.48h3zm-314.54 7.3h-6.26v-3h6.26zm-350.12-18.05h-3V1125h3zm664.67-.38h-3v-9.4h3zm-664.66-14.7h-3v-9.07h3zm664.67-.94h-3v-4.7h3zm-664.66-14.16h-3v-9.06h3zm0-15.1h-3v-9.05h3zm0-15.08h-3v-9.07h3zm0-15.1h-3v-9.06h3zm0-15.1h-3v-9.04h3zm0-15.08h-3v-9.05h3zm0-15.1h-3v-9.04h3zm0-15.08h-3v-9.05h3zm0-15.1h-3v-9.04h3zm0-15.08h-3V959h3zm0-15.1h-3v-9.04h3zm0-15.08h-3v-9.05h3zm0-15.1h-3v-9.04h3zm0-15.08h-3v-9.05h3zm0-15.1h-3v-9.04h3zm0-15.08h-3v-9.05h3zm0-15.1h-3v-9.04h3zm0-15.08h-3v-9.05h3zm0-15.1h-3v-9.04h3zm0-15.08h-3v-9.05h3zm0-15.1h-3v-9.04h3zm0-15.08h-3v-9.05h3zm0-15.1h-3v-9.04h3zm0-15.08h-3v-9.05h3zm0-15.1h-3v-9.04h3zm0-15.08h-3v-9.05h3zm0-15.1h-3v-9.04h3zm0-15.08h-3v-9.05h3zm0-15.1h-3v-9.04h3zm0-15.08h-3v-9.05h3zm0-15.1h-3v-9.04h3zm9.16-24.1h-4.46l-2.45.66-1.6 1.6-.66 2.43v4.33h-3v-4.72l.98-3.6 2.72-2.73 3.6-.97h4.86zm73 0h-4.65v-3h4.66zm-10.86 0h-9.32v-3h9.32zm-15.54 0h-9.32v-3h9.32zm-15.53 0h-9.32v-3h9.32zm-15.53 0h-9.32v-3h9.32z" stroke="#fff" stroke-width=".05" fill="#fff"/><path d="M333.6 627.06h-1.53v-3h1.54z" fill="#fff"/><path d="M333.64 627.08h-1.6v-3.05h1.6zm-1.54-3v2.95h1.5v-2.95zM924.58 1130l-2.58 1.54-8.9-15.04-8.88 15.04-2.58-1.53 11.47-19.4z" stroke="#fff" stroke-width=".05" fill="#fff"/><g><use xlink:href="#v" transform="matrix(1,0,0,1,521.753086419753,1139.9444444444573) translate(0 14.222222222222223)"/></g><path d="M332.1 672h-4.8m-6.4 0h-9.6m-6.4 0h-4.8l-3.04.82-2.15 2.15-.8 3.03v4.34m0 5.8v8.67m0 5.8v8.68m0 5.8v8.67m0 5.8v8.67m0 5.8v8.67m0 5.78v8.68m0 5.8v8.67m0 5.8v8.67m0 5.8v8.67m0 5.8v8.67m0 5.8v4.33" stroke="#fff" stroke-width="3" fill="none"/><path d="M333.6 673.5h-1.53v-3h1.54zM295.6 838.67h-3v-1.54h3z" stroke="#fff" stroke-width=".05" fill="#fff"/><path d="M294.1 871.5v4.6m0 6.13v9.2m0 6.13v9.2m0 6.13v9.18m0 6.13v9.2m0 6.14v9.2m0 6.13v9.2m0 6.13v9.2m0 6.13v9.2m0 6.13v9.2m0 6.12v9.2m0 6.13v4.6l.8 3.04 2.16 2.15 3.03.8h4.73m6.33 0h9.5m6.32 0h9.5m6.32 0h4.75" stroke="#fff" stroke-width="3" fill="none"/><path d="M295.6 871.54h-3V870h3z" stroke="#fff" stroke-width=".05" fill="#fff"/><path d="M330.12 1056.3l17.2-10.2-17.2-10.17" stroke="#fff" stroke-width="3" fill="none"/><path d="M253.06 838.67h82.05V870h-82.04z" fill-opacity="0"/><g><use xlink:href="#v" transform="matrix(1,0,0,1,258.0617283950746,843.6666666666666) translate(0 14.222222222222223)"/></g><path d="M731.78 830.56h82.05v31.33h-82.05z" fill-opacity="0"/><g><use xlink:href="#v" transform="matrix(1,0,0,1,736.7777777778101,835.5555555555813) translate(0 14.222222222222223)"/></g><path d="M1229.78 818.33h82.05v31.34h-82.05z" fill-opacity="0"/><g><use xlink:href="#v" transform="matrix(1,0,0,1,1234.7777777777774,823.3333333333334) translate(0 14.222222222222223)"/></g><path d="M990.44 370.67h140.34" stroke="#fff" stroke-width="3" fill="none"/><path d="M990.48 372.17h-1.54v-3h1.54zM1132.28 372.17h-1.54v-3h1.54z" stroke="#fff" stroke-width=".05" fill="#fff"/><g><use xlink:href="#w" transform="matrix(1,0,0,1,994.6172839506168,345.3333333332944) translate(0 14.222222222222223)"/></g><defs><path fill="#fff" d="M15-91v-56l181-69v40L49-119l147 57v40" id="x"/><path fill="#fff" d="M25-224v-37h50v37H25zM25 0v-190h50V0H25" id="y"/><path fill="#fff" d="M135-194c87-1 58 113 63 194h-50c-7-57 23-157-34-157-59 0-34 97-39 157H25l-1-190h47c2 12-1 28 3 38 12-26 28-41 61-42" id="z"/><path fill="#fff" d="M115-3C79 11 28 4 28-45v-112H4v-33h27l15-45h31v45h36v33H77v99c-1 23 16 31 38 25v30" id="A"/><path fill="#fff" d="M185-48c-13 30-37 53-82 52C43 2 14-33 14-96s30-98 90-98c62 0 83 45 84 108H66c0 31 8 55 39 56 18 0 30-7 34-22zm-45-69c5-46-57-63-70-21-2 6-4 13-4 21h74" id="B"/><path fill="#fff" d="M135-150c-39-12-60 13-60 57V0H25l-1-190h47c2 13-1 29 3 40 6-28 27-53 61-41v41" id="C"/><path fill="#fff" d="M121-226c-27-7-43 5-38 36h38v33H83V0H34v-157H6v-33h28c-9-59 32-81 87-68v32" id="D"/><path fill="#fff" d="M133-34C117-15 103 5 69 4 32 3 11-16 11-54c-1-60 55-63 116-61 1-26-3-47-28-47-18 1-26 9-28 27l-52-2c7-38 36-58 82-57s74 22 75 68l1 82c-1 14 12 18 25 15v27c-30 8-71 5-69-32zm-48 3c29 0 43-24 42-57-32 0-66-3-65 30 0 17 8 27 23 27" id="E"/><path fill="#fff" d="M190-63c-7 42-38 67-86 67-59 0-84-38-90-98-12-110 154-137 174-36l-49 2c-2-19-15-32-35-32-30 0-35 28-38 64-6 74 65 87 74 30" id="F"/><path fill="#fff" d="M15-22v-40l146-57-146-57v-40l181 69v56" id="G"/><g id="a"><use transform="matrix(0.05,0,0,0.05,0,0)" xlink:href="#x"/><use transform="matrix(0.05,0,0,0.05,10.5,0)" xlink:href="#x"/><use transform="matrix(0.05,0,0,0.05,21,0)" xlink:href="#y"/><use transform="matrix(0.05,0,0,0.05,26,0)" xlink:href="#z"/><use transform="matrix(0.05,0,0,0.05,36.95,0)" xlink:href="#A"/><use transform="matrix(0.05,0,0,0.05,42.900000000000006,0)" xlink:href="#B"/><use transform="matrix(0.05,0,0,0.05,52.900000000000006,0)" xlink:href="#C"/><use transform="matrix(0.05,0,0,0.05,59.900000000000006,0)" xlink:href="#D"/><use transform="matrix(0.05,0,0,0.05,65.85000000000001,0)" xlink:href="#E"/><use transform="matrix(0.05,0,0,0.05,75.85000000000001,0)" xlink:href="#F"/><use transform="matrix(0.05,0,0,0.05,85.85000000000001,0)" xlink:href="#B"/><use transform="matrix(0.05,0,0,0.05,95.85000000000001,0)" xlink:href="#G"/><use transform="matrix(0.05,0,0,0.05,106.35000000000001,0)" xlink:href="#G"/></g><path fill="#fff" d="M199 0l-22-63H83L61 0H9l90-248h61L250 0h-51zm-33-102l-36-108c-10 38-24 72-36 108h72" id="H"/><path fill="#fff" d="M135-194c52 0 70 43 70 98 0 56-19 99-73 100-30 1-46-15-58-35L72 0H24l1-261h50v104c11-23 29-37 60-37zM114-30c31 0 40-27 40-66 0-37-7-63-39-63s-41 28-41 65c0 36 8 64 40 64" id="I"/><path fill="#fff" d="M137-138c1-29-70-34-71-4 15 46 118 7 119 86 1 83-164 76-172 9l43-7c4 19 20 25 44 25 33 8 57-30 24-41C81-84 22-81 20-136c-2-80 154-74 161-7" id="J"/><path fill="#fff" d="M76-208v77h127v40H76V0H24v-248h183v40H76" id="K"/><path fill="#fff" d="M110-194c64 0 96 36 96 99 0 64-35 99-97 99-61 0-95-36-95-99 0-62 34-99 96-99zm-1 164c35 0 45-28 45-65 0-40-10-65-43-65-34 0-45 26-45 65 0 36 10 65 43 65" id="L"/><path fill="#fff" d="M123 10C108 53 80 86 19 72V37c35 8 53-11 59-39L3-190h52l48 148c12-52 28-100 44-148h51" id="M"/><g id="b"><use transform="matrix(0.05,0,0,0.05,0,0)" xlink:href="#H"/><use transform="matrix(0.05,0,0,0.05,12.950000000000001,0)" xlink:href="#I"/><use transform="matrix(0.05,0,0,0.05,23.900000000000002,0)" xlink:href="#J"/><use transform="matrix(0.05,0,0,0.05,33.900000000000006,0)" xlink:href="#A"/><use transform="matrix(0.05,0,0,0.05,39.85000000000001,0)" xlink:href="#C"/><use transform="matrix(0.05,0,0,0.05,46.85000000000001,0)" xlink:href="#E"/><use transform="matrix(0.05,0,0,0.05,56.85,0)" xlink:href="#F"/><use transform="matrix(0.05,0,0,0.05,66.85000000000001,0)" xlink:href="#A"/><use transform="matrix(0.05,0,0,0.05,72.80000000000001,0)" xlink:href="#K"/><use transform="matrix(0.05,0,0,0.05,83.75000000000001,0)" xlink:href="#E"/><use transform="matrix(0.05,0,0,0.05,93.75000000000001,0)" xlink:href="#F"/><use transform="matrix(0.05,0,0,0.05,103.75,0)" xlink:href="#A"/><use transform="matrix(0.05,0,0,0.05,109.7,0)" xlink:href="#L"/><use transform="matrix(0.05,0,0,0.05,120.65000000000003,0)" xlink:href="#C"/><use transform="matrix(0.05,0,0,0.05,127.65000000000003,0)" xlink:href="#M"/></g><path fill="#fff" d="M118-107v75H92v-75H18v-26h74v-75h26v75h74v26h-74" id="N"/><use transform="matrix(0.06172839506172839,0,0,0.06172839506172839,0,0)" xlink:href="#N" id="c"/><path fill="#fff" d="M96-169c-40 0-48 33-48 73s9 75 48 75c24 0 41-14 43-38l32 2c-6 37-31 61-74 61-59 0-76-41-82-99-10-93 101-131 147-64 4 7 5 14 7 22l-32 3c-4-21-16-35-41-35" id="O"/><path fill="#fff" d="M114-163C36-179 61-72 57 0H25l-1-190h30c1 12-1 29 2 39 6-27 23-49 58-41v29" id="P"/><path fill="#fff" d="M100-194c63 0 86 42 84 106H49c0 40 14 67 53 68 26 1 43-12 49-29l28 8c-11 28-37 45-77 45C44 4 14-33 15-96c1-61 26-98 85-98zm52 81c6-60-76-77-97-28-3 7-6 17-6 28h103" id="Q"/><path fill="#fff" d="M141-36C126-15 110 5 73 4 37 3 15-17 15-53c-1-64 63-63 125-63 3-35-9-54-41-54-24 1-41 7-42 31l-33-3c5-37 33-52 76-52 45 0 72 20 72 64v82c-1 20 7 32 28 27v20c-31 9-61-2-59-35zM48-53c0 20 12 33 32 33 41-3 63-29 60-74-43 2-92-5-92 41" id="R"/><path fill="#fff" d="M59-47c-2 24 18 29 38 22v24C64 9 27 4 27-40v-127H5v-23h24l9-43h21v43h35v23H59v120" id="S"/><path fill="#fff" d="M30-248c87 1 191-15 191 75 0 78-77 80-158 76V0H30v-248zm33 125c57 0 124 11 124-50 0-59-68-47-124-48v98" id="T"/><path fill="#fff" d="M100-194c62-1 85 37 85 99 1 63-27 99-86 99S16-35 15-95c0-66 28-99 85-99zM99-20c44 1 53-31 53-75 0-43-8-75-51-75s-53 32-53 75 10 74 51 75" id="U"/><path fill="#fff" d="M85-194c31 0 48 13 60 33l-1-100h32l1 261h-30c-2-10 0-23-3-31C134-8 116 4 85 4 32 4 16-35 15-94c0-66 23-100 70-100zm9 24c-40 0-46 34-46 75 0 40 6 74 45 74 42 0 51-32 51-76 0-42-9-74-50-73" id="V"/><path fill="#fff" d="M84 4C-5 8 30-112 23-190h32v120c0 31 7 50 39 49 72-2 45-101 50-169h31l1 190h-30c-1-10 1-25-2-33-11 22-28 36-60 37" id="W"/><path fill="#fff" d="M205 0l-28-72H64L36 0H1l101-248h38L239 0h-34zm-38-99l-47-123c-12 45-31 82-46 123h93" id="X"/><path fill="#fff" d="M87 75C49 33 22-17 22-94c0-76 28-126 65-167h31c-38 41-64 92-64 168S80 34 118 75H87" id="Y"/><path fill="#fff" d="M33-261c38 41 65 92 65 168S71 34 33 75H2C39 34 66-17 66-93S39-220 2-261h31" id="Z"/><g id="d"><use transform="matrix(0.06172839506172839,0,0,0.06172839506172839,0,0)" xlink:href="#O"/><use transform="matrix(0.06172839506172839,0,0,0.06172839506172839,11.11111111111111,0)" xlink:href="#P"/><use transform="matrix(0.06172839506172839,0,0,0.06172839506172839,18.45679012345679,0)" xlink:href="#Q"/><use transform="matrix(0.06172839506172839,0,0,0.06172839506172839,30.80246913580247,0)" xlink:href="#R"/><use transform="matrix(0.06172839506172839,0,0,0.06172839506172839,43.148148148148145,0)" xlink:href="#S"/><use transform="matrix(0.06172839506172839,0,0,0.06172839506172839,49.32098765432099,0)" xlink:href="#Q"/><use transform="matrix(0.06172839506172839,0,0,0.06172839506172839,61.666666666666664,0)" xlink:href="#T"/><use transform="matrix(0.06172839506172839,0,0,0.06172839506172839,76.48148148148148,0)" xlink:href="#P"/><use transform="matrix(0.06172839506172839,0,0,0.06172839506172839,83.82716049382717,0)" xlink:href="#U"/><use transform="matrix(0.06172839506172839,0,0,0.06172839506172839,96.17283950617285,0)" xlink:href="#V"/><use transform="matrix(0.06172839506172839,0,0,0.06172839506172839,108.51851851851853,0)" xlink:href="#W"/><use transform="matrix(0.06172839506172839,0,0,0.06172839506172839,120.86419753086422,0)" xlink:href="#O"/><use transform="matrix(0.06172839506172839,0,0,0.06172839506172839,131.97530864197532,0)" xlink:href="#S"/><use transform="matrix(0.06172839506172839,0,0,0.06172839506172839,138.14814814814815,0)" xlink:href="#X"/><use transform="matrix(0.06172839506172839,0,0,0.06172839506172839,152.96296296296296,0)" xlink:href="#Y"/><use transform="matrix(0.06172839506172839,0,0,0.06172839506172839,160.30864197530863,0)" xlink:href="#Z"/></g><path fill="#fff" d="M33-154v-36h34v36H33zM33 0v-36h34V0H33" id="aa"/><use transform="matrix(0.06172839506172839,0,0,0.06172839506172839,0,0)" xlink:href="#aa" id="e"/><path fill="#fff" d="M115-194c53 0 69 39 70 98 0 66-23 100-70 100C84 3 66-7 56-30L54 0H23l1-261h32v101c10-23 28-34 59-34zm-8 174c40 0 45-34 45-75 0-40-5-75-45-74-42 0-51 32-51 76 0 43 10 73 51 73" id="ab"/><path fill="#fff" d="M135-143c-3-34-86-38-87 0 15 53 115 12 119 90S17 21 10-45l28-5c4 36 97 45 98 0-10-56-113-15-118-90-4-57 82-63 122-42 12 7 21 19 24 35" id="ac"/><g id="f"><use transform="matrix(0.06172839506172839,0,0,0.06172839506172839,0,0)" xlink:href="#X"/><use transform="matrix(0.06172839506172839,0,0,0.06172839506172839,14.814814814814813,0)" xlink:href="#ab"/><use transform="matrix(0.06172839506172839,0,0,0.06172839506172839,27.160493827160494,0)" xlink:href="#ac"/><use transform="matrix(0.06172839506172839,0,0,0.06172839506172839,38.27160493827161,0)" xlink:href="#S"/><use transform="matrix(0.06172839506172839,0,0,0.06172839506172839,44.44444444444445,0)" xlink:href="#P"/><use transform="matrix(0.06172839506172839,0,0,0.06172839506172839,51.79012345679013,0)" xlink:href="#R"/><use transform="matrix(0.06172839506172839,0,0,0.06172839506172839,64.13580246913581,0)" xlink:href="#O"/><use transform="matrix(0.06172839506172839,0,0,0.06172839506172839,75.24691358024693,0)" xlink:href="#S"/><use transform="matrix(0.06172839506172839,0,0,0.06172839506172839,81.41975308641976,0)" xlink:href="#T"/><use transform="matrix(0.06172839506172839,0,0,0.06172839506172839,96.23456790123457,0)" xlink:href="#P"/><use transform="matrix(0.06172839506172839,0,0,0.06172839506172839,103.58024691358025,0)" xlink:href="#U"/><use transform="matrix(0.06172839506172839,0,0,0.06172839506172839,115.92592592592594,0)" xlink:href="#V"/><use transform="matrix(0.06172839506172839,0,0,0.06172839506172839,128.27160493827162,0)" xlink:href="#W"/><use transform="matrix(0.06172839506172839,0,0,0.06172839506172839,140.6172839506173,0)" xlink:href="#O"/><use transform="matrix(0.06172839506172839,0,0,0.06172839506172839,151.7283950617284,0)" xlink:href="#S"/><use transform="matrix(0.06172839506172839,0,0,0.06172839506172839,157.90123456790124,0)" xlink:href="#X"/></g><path fill="#fff" d="M160-131c35 5 61 23 61 61C221 17 115-2 30 0v-248c76 3 177-17 177 60 0 33-19 50-47 57zm-97-11c50-1 110 9 110-42 0-47-63-36-110-37v79zm0 115c55-2 124 14 124-45 0-56-70-42-124-44v89" id="ad"/><g id="g"><use transform="matrix(0.06172839506172839,0,0,0.06172839506172839,0,0)" xlink:href="#O"/><use transform="matrix(0.06172839506172839,0,0,0.06172839506172839,11.11111111111111,0)" xlink:href="#P"/><use transform="matrix(0.06172839506172839,0,0,0.06172839506172839,18.45679012345679,0)" xlink:href="#Q"/><use transform="matrix(0.06172839506172839,0,0,0.06172839506172839,30.80246913580247,0)" xlink:href="#R"/><use transform="matrix(0.06172839506172839,0,0,0.06172839506172839,43.148148148148145,0)" xlink:href="#S"/><use transform="matrix(0.06172839506172839,0,0,0.06172839506172839,49.32098765432099,0)" xlink:href="#Q"/><use transform="matrix(0.06172839506172839,0,0,0.06172839506172839,61.666666666666664,0)" xlink:href="#T"/><use transform="matrix(0.06172839506172839,0,0,0.06172839506172839,76.48148148148148,0)" xlink:href="#P"/><use transform="matrix(0.06172839506172839,0,0,0.06172839506172839,83.82716049382717,0)" xlink:href="#U"/><use transform="matrix(0.06172839506172839,0,0,0.06172839506172839,96.17283950617285,0)" xlink:href="#V"/><use transform="matrix(0.06172839506172839,0,0,0.06172839506172839,108.51851851851853,0)" xlink:href="#W"/><use transform="matrix(0.06172839506172839,0,0,0.06172839506172839,120.86419753086422,0)" xlink:href="#O"/><use transform="matrix(0.06172839506172839,0,0,0.06172839506172839,131.97530864197532,0)" xlink:href="#S"/><use transform="matrix(0.06172839506172839,0,0,0.06172839506172839,138.14814814814815,0)" xlink:href="#ad"/><use transform="matrix(0.06172839506172839,0,0,0.06172839506172839,152.96296296296296,0)" xlink:href="#Y"/><use transform="matrix(0.06172839506172839,0,0,0.06172839506172839,160.30864197530863,0)" xlink:href="#Z"/></g><g id="h"><use transform="matrix(0.06172839506172839,0,0,0.06172839506172839,0,0)" xlink:href="#X"/><use transform="matrix(0.06172839506172839,0,0,0.06172839506172839,14.814814814814813,0)" xlink:href="#ab"/><use transform="matrix(0.06172839506172839,0,0,0.06172839506172839,27.160493827160494,0)" xlink:href="#ac"/><use transform="matrix(0.06172839506172839,0,0,0.06172839506172839,38.27160493827161,0)" xlink:href="#S"/><use transform="matrix(0.06172839506172839,0,0,0.06172839506172839,44.44444444444445,0)" xlink:href="#P"/><use transform="matrix(0.06172839506172839,0,0,0.06172839506172839,51.79012345679013,0)" xlink:href="#R"/><use transform="matrix(0.06172839506172839,0,0,0.06172839506172839,64.13580246913581,0)" xlink:href="#O"/><use transform="matrix(0.06172839506172839,0,0,0.06172839506172839,75.24691358024693,0)" xlink:href="#S"/><use transform="matrix(0.06172839506172839,0,0,0.06172839506172839,81.41975308641976,0)" xlink:href="#T"/><use transform="matrix(0.06172839506172839,0,0,0.06172839506172839,96.23456790123457,0)" xlink:href="#P"/><use transform="matrix(0.06172839506172839,0,0,0.06172839506172839,103.58024691358025,0)" xlink:href="#U"/><use transform="matrix(0.06172839506172839,0,0,0.06172839506172839,115.92592592592594,0)" xlink:href="#V"/><use transform="matrix(0.06172839506172839,0,0,0.06172839506172839,128.27160493827162,0)" xlink:href="#W"/><use transform="matrix(0.06172839506172839,0,0,0.06172839506172839,140.6172839506173,0)" xlink:href="#O"/><use transform="matrix(0.06172839506172839,0,0,0.06172839506172839,151.7283950617284,0)" xlink:href="#S"/><use transform="matrix(0.06172839506172839,0,0,0.06172839506172839,157.90123456790124,0)" xlink:href="#ad"/></g><path fill="#fff" d="M212-179c-10-28-35-45-73-45-59 0-87 40-87 99 0 60 29 101 89 101 43 0 62-24 78-52l27 14C228-24 195 4 139 4 59 4 22-46 18-125c-6-104 99-153 187-111 19 9 31 26 39 46" id="ae"/><path fill="#fff" d="M24 0v-261h32V0H24" id="af"/><path fill="#fff" d="M24-231v-30h32v30H24zM24 0v-190h32V0H24" id="ag"/><path fill="#fff" d="M117-194c89-4 53 116 60 194h-32v-121c0-31-8-49-39-48C34-167 62-67 57 0H25l-1-190h30c1 10-1 24 2 32 11-22 29-35 61-36" id="ah"/><g id="i"><use transform="matrix(0.06172839506172839,0,0,0.06172839506172839,0,0)" xlink:href="#ae"/><use transform="matrix(0.06172839506172839,0,0,0.06172839506172839,15.987654320987653,0)" xlink:href="#af"/><use transform="matrix(0.06172839506172839,0,0,0.06172839506172839,20.864197530864196,0)" xlink:href="#ag"/><use transform="matrix(0.06172839506172839,0,0,0.06172839506172839,25.74074074074074,0)" xlink:href="#Q"/><use transform="matrix(0.06172839506172839,0,0,0.06172839506172839,38.08641975308642,0)" xlink:href="#ah"/><use transform="matrix(0.06172839506172839,0,0,0.06172839506172839,50.432098765432094,0)" xlink:href="#S"/></g><path fill="#fff" d="M63-220v92h138v28H63V0H30v-248h175v28H63" id="ai"/><path fill="#fff" d="M179-190L93 31C79 59 56 82 12 73V49c39 6 53-20 64-50L1-190h34L92-34l54-156h33" id="aj"/><g id="j"><use transform="matrix(0.06172839506172839,0,0,0.06172839506172839,0,0)" xlink:href="#ae"/><use transform="matrix(0.06172839506172839,0,0,0.06172839506172839,15.987654320987653,0)" xlink:href="#U"/><use transform="matrix(0.06172839506172839,0,0,0.06172839506172839,28.333333333333332,0)" xlink:href="#ah"/><use transform="matrix(0.06172839506172839,0,0,0.06172839506172839,40.67901234567901,0)" xlink:href="#O"/><use transform="matrix(0.06172839506172839,0,0,0.06172839506172839,51.79012345679013,0)" xlink:href="#P"/><use transform="matrix(0.06172839506172839,0,0,0.06172839506172839,59.135802469135804,0)" xlink:href="#Q"/><use transform="matrix(0.06172839506172839,0,0,0.06172839506172839,71.48148148148148,0)" xlink:href="#S"/><use transform="matrix(0.06172839506172839,0,0,0.06172839506172839,77.65432098765432,0)" xlink:href="#Q"/><use transform="matrix(0.06172839506172839,0,0,0.06172839506172839,90,0)" xlink:href="#ai"/><use transform="matrix(0.06172839506172839,0,0,0.06172839506172839,103.51851851851852,0)" xlink:href="#R"/><use transform="matrix(0.06172839506172839,0,0,0.06172839506172839,115.8641975308642,0)" xlink:href="#O"/><use transform="matrix(0.06172839506172839,0,0,0.06172839506172839,126.97530864197533,0)" xlink:href="#S"/><use transform="matrix(0.06172839506172839,0,0,0.06172839506172839,133.14814814814815,0)" xlink:href="#U"/><use transform="matrix(0.06172839506172839,0,0,0.06172839506172839,145.49382716049382,0)" xlink:href="#P"/><use transform="matrix(0.06172839506172839,0,0,0.06172839506172839,152.8395061728395,0)" xlink:href="#aj"/><use transform="matrix(0.06172839506172839,0,0,0.06172839506172839,163.9506172839506,0)" xlink:href="#X"/></g><path fill="#fff" d="M27 0v-27h64v-190l-56 39v-29l58-41h29v221h61V0H27" id="ak"/><g id="k"><use transform="matrix(0.06172839506172839,0,0,0.06172839506172839,0,0)" xlink:href="#T"/><use transform="matrix(0.06172839506172839,0,0,0.06172839506172839,14.814814814814813,0)" xlink:href="#P"/><use transform="matrix(0.06172839506172839,0,0,0.06172839506172839,22.160493827160494,0)" xlink:href="#U"/><use transform="matrix(0.06172839506172839,0,0,0.06172839506172839,34.50617283950617,0)" xlink:href="#V"/><use transform="matrix(0.06172839506172839,0,0,0.06172839506172839,46.85185185185185,0)" xlink:href="#W"/><use transform="matrix(0.06172839506172839,0,0,0.06172839506172839,59.197530864197525,0)" xlink:href="#O"/><use transform="matrix(0.06172839506172839,0,0,0.06172839506172839,70.30864197530863,0)" xlink:href="#S"/><use transform="matrix(0.06172839506172839,0,0,0.06172839506172839,76.48148148148147,0)" xlink:href="#X"/><use transform="matrix(0.06172839506172839,0,0,0.06172839506172839,91.29629629629628,0)" xlink:href="#ak"/></g><g id="l"><use transform="matrix(0.06172839506172839,0,0,0.06172839506172839,0,0)" xlink:href="#T"/><use transform="matrix(0.06172839506172839,0,0,0.06172839506172839,14.814814814814813,0)" xlink:href="#P"/><use transform="matrix(0.06172839506172839,0,0,0.06172839506172839,22.160493827160494,0)" xlink:href="#U"/><use transform="matrix(0.06172839506172839,0,0,0.06172839506172839,34.50617283950617,0)" xlink:href="#V"/><use transform="matrix(0.06172839506172839,0,0,0.06172839506172839,46.85185185185185,0)" xlink:href="#W"/><use transform="matrix(0.06172839506172839,0,0,0.06172839506172839,59.197530864197525,0)" xlink:href="#O"/><use transform="matrix(0.06172839506172839,0,0,0.06172839506172839,70.30864197530863,0)" xlink:href="#S"/><use transform="matrix(0.06172839506172839,0,0,0.06172839506172839,76.48148148148147,0)" xlink:href="#ad"/><use transform="matrix(0.06172839506172839,0,0,0.06172839506172839,91.29629629629628,0)" xlink:href="#ak"/></g><g id="m"><use transform="matrix(0.06172839506172839,0,0,0.06172839506172839,0,0)" xlink:href="#ae"/><use transform="matrix(0.06172839506172839,0,0,0.06172839506172839,15.987654320987653,0)" xlink:href="#U"/><use transform="matrix(0.06172839506172839,0,0,0.06172839506172839,28.333333333333332,0)" xlink:href="#ah"/><use transform="matrix(0.06172839506172839,0,0,0.06172839506172839,40.67901234567901,0)" xlink:href="#O"/><use transform="matrix(0.06172839506172839,0,0,0.06172839506172839,51.79012345679013,0)" xlink:href="#P"/><use transform="matrix(0.06172839506172839,0,0,0.06172839506172839,59.135802469135804,0)" xlink:href="#Q"/><use transform="matrix(0.06172839506172839,0,0,0.06172839506172839,71.48148148148148,0)" xlink:href="#S"/><use transform="matrix(0.06172839506172839,0,0,0.06172839506172839,77.65432098765432,0)" xlink:href="#Q"/><use transform="matrix(0.06172839506172839,0,0,0.06172839506172839,90,0)" xlink:href="#ai"/><use transform="matrix(0.06172839506172839,0,0,0.06172839506172839,103.51851851851852,0)" xlink:href="#R"/><use transform="matrix(0.06172839506172839,0,0,0.06172839506172839,115.8641975308642,0)" xlink:href="#O"/><use transform="matrix(0.06172839506172839,0,0,0.06172839506172839,126.97530864197533,0)" xlink:href="#S"/><use transform="matrix(0.06172839506172839,0,0,0.06172839506172839,133.14814814814815,0)" xlink:href="#U"/><use transform="matrix(0.06172839506172839,0,0,0.06172839506172839,145.49382716049382,0)" xlink:href="#P"/><use transform="matrix(0.06172839506172839,0,0,0.06172839506172839,152.8395061728395,0)" xlink:href="#aj"/><use transform="matrix(0.06172839506172839,0,0,0.06172839506172839,163.9506172839506,0)" xlink:href="#ad"/></g><path fill="#fff" d="M101-251c82-7 93 87 43 132L82-64C71-53 59-42 53-27h129V0H18c2-99 128-94 128-182 0-28-16-43-45-43s-46 15-49 41l-32-3c6-41 34-60 81-64" id="al"/><g id="n"><use transform="matrix(0.06172839506172839,0,0,0.06172839506172839,0,0)" xlink:href="#T"/><use transform="matrix(0.06172839506172839,0,0,0.06172839506172839,14.814814814814813,0)" xlink:href="#P"/><use transform="matrix(0.06172839506172839,0,0,0.06172839506172839,22.160493827160494,0)" xlink:href="#U"/><use transform="matrix(0.06172839506172839,0,0,0.06172839506172839,34.50617283950617,0)" xlink:href="#V"/><use transform="matrix(0.06172839506172839,0,0,0.06172839506172839,46.85185185185185,0)" xlink:href="#W"/><use transform="matrix(0.06172839506172839,0,0,0.06172839506172839,59.197530864197525,0)" xlink:href="#O"/><use transform="matrix(0.06172839506172839,0,0,0.06172839506172839,70.30864197530863,0)" xlink:href="#S"/><use transform="matrix(0.06172839506172839,0,0,0.06172839506172839,76.48148148148147,0)" xlink:href="#X"/><use transform="matrix(0.06172839506172839,0,0,0.06172839506172839,91.29629629629628,0)" xlink:href="#al"/></g><g id="o"><use transform="matrix(0.06172839506172839,0,0,0.06172839506172839,0,0)" xlink:href="#T"/><use transform="matrix(0.06172839506172839,0,0,0.06172839506172839,14.814814814814813,0)" xlink:href="#P"/><use transform="matrix(0.06172839506172839,0,0,0.06172839506172839,22.160493827160494,0)" xlink:href="#U"/><use transform="matrix(0.06172839506172839,0,0,0.06172839506172839,34.50617283950617,0)" xlink:href="#V"/><use transform="matrix(0.06172839506172839,0,0,0.06172839506172839,46.85185185185185,0)" xlink:href="#W"/><use transform="matrix(0.06172839506172839,0,0,0.06172839506172839,59.197530864197525,0)" xlink:href="#O"/><use transform="matrix(0.06172839506172839,0,0,0.06172839506172839,70.30864197530863,0)" xlink:href="#S"/><use transform="matrix(0.06172839506172839,0,0,0.06172839506172839,76.48148148148147,0)" xlink:href="#ad"/><use transform="matrix(0.06172839506172839,0,0,0.06172839506172839,91.29629629629628,0)" xlink:href="#al"/></g><path fill="#fff" d="M24-248c93 1 206-16 204 79-1 75-69 88-152 82V0H24v-248zm52 121c47 0 100 7 100-41 0-47-54-39-100-39v80" id="am"/><path fill="#fff" d="M88-194c31-1 46 15 58 34l-1-101h50l1 261h-48c-2-10 0-23-3-31C134-8 116 4 84 4 32 4 16-41 15-95c0-56 19-97 73-99zm17 164c33 0 40-30 41-66 1-37-9-64-41-64s-38 30-39 65c0 43 13 65 39 65" id="an"/><path fill="#fff" d="M85 4C-2 5 27-109 22-190h50c7 57-23 150 33 157 60-5 35-97 40-157h50l1 190h-47c-2-12 1-28-3-38-12 25-28 42-61 42" id="ao"/><g id="p"><use transform="matrix(0.05,0,0,0.05,0,0)" xlink:href="#H"/><use transform="matrix(0.05,0,0,0.05,12.950000000000001,0)" xlink:href="#I"/><use transform="matrix(0.05,0,0,0.05,23.900000000000002,0)" xlink:href="#J"/><use transform="matrix(0.05,0,0,0.05,33.900000000000006,0)" xlink:href="#A"/><use transform="matrix(0.05,0,0,0.05,39.85000000000001,0)" xlink:href="#C"/><use transform="matrix(0.05,0,0,0.05,46.85000000000001,0)" xlink:href="#E"/><use transform="matrix(0.05,0,0,0.05,56.85,0)" xlink:href="#F"/><use transform="matrix(0.05,0,0,0.05,66.85000000000001,0)" xlink:href="#A"/><use transform="matrix(0.05,0,0,0.05,72.80000000000001,0)" xlink:href="#am"/><use transform="matrix(0.05,0,0,0.05,84.80000000000001,0)" xlink:href="#C"/><use transform="matrix(0.05,0,0,0.05,91.80000000000001,0)" xlink:href="#L"/><use transform="matrix(0.05,0,0,0.05,102.75,0)" xlink:href="#an"/><use transform="matrix(0.05,0,0,0.05,113.7,0)" xlink:href="#ao"/><use transform="matrix(0.05,0,0,0.05,124.65000000000003,0)" xlink:href="#F"/><use transform="matrix(0.05,0,0,0.05,134.65000000000003,0)" xlink:href="#A"/><use transform="matrix(0.05,0,0,0.05,140.60000000000002,0)" xlink:href="#H"/></g><g id="q"><use transform="matrix(0.06172839506172839,0,0,0.06172839506172839,0,0)" xlink:href="#T"/><use transform="matrix(0.06172839506172839,0,0,0.06172839506172839,14.814814814814813,0)" xlink:href="#P"/><use transform="matrix(0.06172839506172839,0,0,0.06172839506172839,22.160493827160494,0)" xlink:href="#U"/><use transform="matrix(0.06172839506172839,0,0,0.06172839506172839,34.50617283950617,0)" xlink:href="#V"/><use transform="matrix(0.06172839506172839,0,0,0.06172839506172839,46.85185185185185,0)" xlink:href="#W"/><use transform="matrix(0.06172839506172839,0,0,0.06172839506172839,59.197530864197525,0)" xlink:href="#O"/><use transform="matrix(0.06172839506172839,0,0,0.06172839506172839,70.30864197530863,0)" xlink:href="#S"/><use transform="matrix(0.06172839506172839,0,0,0.06172839506172839,76.48148148148147,0)" xlink:href="#X"/><use transform="matrix(0.06172839506172839,0,0,0.06172839506172839,91.29629629629628,0)" xlink:href="#ak"/></g><g id="r"><use transform="matrix(0.06172839506172839,0,0,0.06172839506172839,0,0)" xlink:href="#T"/><use transform="matrix(0.06172839506172839,0,0,0.06172839506172839,14.814814814814813,0)" xlink:href="#P"/><use transform="matrix(0.06172839506172839,0,0,0.06172839506172839,22.160493827160494,0)" xlink:href="#U"/><use transform="matrix(0.06172839506172839,0,0,0.06172839506172839,34.50617283950617,0)" xlink:href="#V"/><use transform="matrix(0.06172839506172839,0,0,0.06172839506172839,46.85185185185185,0)" xlink:href="#W"/><use transform="matrix(0.06172839506172839,0,0,0.06172839506172839,59.197530864197525,0)" xlink:href="#O"/><use transform="matrix(0.06172839506172839,0,0,0.06172839506172839,70.30864197530863,0)" xlink:href="#S"/><use transform="matrix(0.06172839506172839,0,0,0.06172839506172839,76.48148148148147,0)" xlink:href="#X"/><use transform="matrix(0.06172839506172839,0,0,0.06172839506172839,91.29629629629628,0)" xlink:href="#al"/></g><path fill="#fff" d="M182-130c37 4 62 22 62 59C244 23 116-4 24 0v-248c84 5 203-23 205 63 0 31-19 50-47 55zM76-148c40-3 101 13 101-30 0-44-60-28-101-31v61zm0 110c48-3 116 14 116-37 0-48-69-32-116-35v72" id="ap"/><g id="s"><use transform="matrix(0.05,0,0,0.05,0,0)" xlink:href="#H"/><use transform="matrix(0.05,0,0,0.05,12.950000000000001,0)" xlink:href="#I"/><use transform="matrix(0.05,0,0,0.05,23.900000000000002,0)" xlink:href="#J"/><use transform="matrix(0.05,0,0,0.05,33.900000000000006,0)" xlink:href="#A"/><use transform="matrix(0.05,0,0,0.05,39.85000000000001,0)" xlink:href="#C"/><use transform="matrix(0.05,0,0,0.05,46.85000000000001,0)" xlink:href="#E"/><use transform="matrix(0.05,0,0,0.05,56.85,0)" xlink:href="#F"/><use transform="matrix(0.05,0,0,0.05,66.85000000000001,0)" xlink:href="#A"/><use transform="matrix(0.05,0,0,0.05,72.80000000000001,0)" xlink:href="#am"/><use transform="matrix(0.05,0,0,0.05,84.80000000000001,0)" xlink:href="#C"/><use transform="matrix(0.05,0,0,0.05,91.80000000000001,0)" xlink:href="#L"/><use transform="matrix(0.05,0,0,0.05,102.75,0)" xlink:href="#an"/><use transform="matrix(0.05,0,0,0.05,113.7,0)" xlink:href="#ao"/><use transform="matrix(0.05,0,0,0.05,124.65000000000003,0)" xlink:href="#F"/><use transform="matrix(0.05,0,0,0.05,134.65000000000003,0)" xlink:href="#A"/><use transform="matrix(0.05,0,0,0.05,140.60000000000002,0)" xlink:href="#ap"/></g><g id="t"><use transform="matrix(0.06172839506172839,0,0,0.06172839506172839,0,0)" xlink:href="#T"/><use transform="matrix(0.06172839506172839,0,0,0.06172839506172839,14.814814814814813,0)" xlink:href="#P"/><use transform="matrix(0.06172839506172839,0,0,0.06172839506172839,22.160493827160494,0)" xlink:href="#U"/><use transform="matrix(0.06172839506172839,0,0,0.06172839506172839,34.50617283950617,0)" xlink:href="#V"/><use transform="matrix(0.06172839506172839,0,0,0.06172839506172839,46.85185185185185,0)" xlink:href="#W"/><use transform="matrix(0.06172839506172839,0,0,0.06172839506172839,59.197530864197525,0)" xlink:href="#O"/><use transform="matrix(0.06172839506172839,0,0,0.06172839506172839,70.30864197530863,0)" xlink:href="#S"/><use transform="matrix(0.06172839506172839,0,0,0.06172839506172839,76.48148148148147,0)" xlink:href="#ad"/><use transform="matrix(0.06172839506172839,0,0,0.06172839506172839,91.29629629629628,0)" xlink:href="#ak"/></g><g id="u"><use transform="matrix(0.06172839506172839,0,0,0.06172839506172839,0,0)" xlink:href="#T"/><use transform="matrix(0.06172839506172839,0,0,0.06172839506172839,14.814814814814813,0)" xlink:href="#P"/><use transform="matrix(0.06172839506172839,0,0,0.06172839506172839,22.160493827160494,0)" xlink:href="#U"/><use transform="matrix(0.06172839506172839,0,0,0.06172839506172839,34.50617283950617,0)" xlink:href="#V"/><use transform="matrix(0.06172839506172839,0,0,0.06172839506172839,46.85185185185185,0)" xlink:href="#W"/><use transform="matrix(0.06172839506172839,0,0,0.06172839506172839,59.197530864197525,0)" xlink:href="#O"/><use transform="matrix(0.06172839506172839,0,0,0.06172839506172839,70.30864197530863,0)" xlink:href="#S"/><use transform="matrix(0.06172839506172839,0,0,0.06172839506172839,76.48148148148147,0)" xlink:href="#ad"/><use transform="matrix(0.06172839506172839,0,0,0.06172839506172839,91.29629629629628,0)" xlink:href="#al"/></g><g id="v"><use transform="matrix(0.04938271604938272,0,0,0.04938271604938272,0,0)" xlink:href="#x"/><use transform="matrix(0.04938271604938272,0,0,0.04938271604938272,10.370370370370372,0)" xlink:href="#x"/><use transform="matrix(0.04938271604938272,0,0,0.04938271604938272,20.740740740740744,0)" xlink:href="#ao"/><use transform="matrix(0.04938271604938272,0,0,0.04938271604938272,31.555555555555557,0)" xlink:href="#J"/><use transform="matrix(0.04938271604938272,0,0,0.04938271604938272,41.4320987654321,0)" xlink:href="#B"/><use transform="matrix(0.04938271604938272,0,0,0.04938271604938272,51.308641975308646,0)" xlink:href="#G"/><use transform="matrix(0.04938271604938272,0,0,0.04938271604938272,61.67901234567902,0)" xlink:href="#G"/></g><path fill="#fff" d="M14-72v-43h91v43H14" id="aq"/><g id="w"><use transform="matrix(0.04938271604938272,0,0,0.04938271604938272,0,0)" xlink:href="#aq"/><use transform="matrix(0.04938271604938272,0,0,0.04938271604938272,5.8765432098765435,0)" xlink:href="#D"/><use transform="matrix(0.04938271604938272,0,0,0.04938271604938272,11.753086419753087,0)" xlink:href="#E"/><use transform="matrix(0.04938271604938272,0,0,0.04938271604938272,21.629629629629633,0)" xlink:href="#F"/><use transform="matrix(0.04938271604938272,0,0,0.04938271604938272,31.506172839506174,0)" xlink:href="#A"/><use transform="matrix(0.04938271604938272,0,0,0.04938271604938272,37.38271604938272,0)" xlink:href="#L"/><use transform="matrix(0.04938271604938272,0,0,0.04938271604938272,48.19753086419754,0)" xlink:href="#C"/><use transform="matrix(0.04938271604938272,0,0,0.04938271604938272,55.111111111111114,0)" xlink:href="#M"/></g></defs></g></svg>