<svg xmlns="http://www.w3.org/2000/svg" xmlns:xlink="http://www.w3.org/1999/xlink" xmlns:lucid="lucid" width="1380" height="745"><g transform="translate(-140 -59.999999999999986)" lucid:page-tab-id="V~GUEufJG6Ym"><path d="M160 146c0-3.3 2.7-6 6-6h408c3.3 0 6 2.7 6 6v322c0 3.3-2.7 6-6 6H166c-3.3 0-6-2.7-6-6z" stroke="#fff" stroke-width="3" fill-opacity="0"/><path d="M160 199.2h420" stroke="#fff" stroke-width="3" fill="none"/><use xlink:href="#a" transform="matrix(1,0,0,1,168,148) translate(143.575 14.799999999999999)"/><use xlink:href="#b" transform="matrix(1,0,0,1,168,148) translate(164.575 36.4)"/><use xlink:href="#c" transform="matrix(1,0,0,1,172,207.2) translate(0 32.92881944444447)"/><use xlink:href="#d" transform="matrix(1,0,0,1,172,207.2) translate(18.098958333333332 32.92881944444447)"/><use xlink:href="#e" transform="matrix(1,0,0,1,172,207.2) translate(176.93142361111111 32.92881944444447)"/><use xlink:href="#f" transform="matrix(1,0,0,1,172,207.2) translate(187.81467013888889 32.92881944444447)"/><use xlink:href="#e" transform="matrix(1,0,0,1,172,207.2) translate(264.75694444444446 32.92881944444447)"/><use xlink:href="#g" transform="matrix(1,0,0,1,172,207.2) translate(275.64019097222223 32.92881944444447)"/><use xlink:href="#c" transform="matrix(1,0,0,1,172,207.2) translate(0 58.970486111111136)"/><use xlink:href="#h" transform="matrix(1,0,0,1,172,207.2) translate(18.098958333333332 58.970486111111136)"/><use xlink:href="#e" transform="matrix(1,0,0,1,172,207.2) translate(168.8693576388889 58.970486111111136)"/><use xlink:href="#i" transform="matrix(1,0,0,1,172,207.2) translate(179.75260416666669 58.970486111111136)"/><use xlink:href="#c" transform="matrix(1,0,0,1,172,207.2) translate(0 85.0121527777778)"/><use xlink:href="#j" transform="matrix(1,0,0,1,172,207.2) translate(18.098958333333332 85.0121527777778)"/><use xlink:href="#e" transform="matrix(1,0,0,1,172,207.2) translate(105.3276909722222 85.0121527777778)"/><use xlink:href="#i" transform="matrix(1,0,0,1,172,207.2) translate(116.21093749999997 85.0121527777778)"/><use xlink:href="#c" transform="matrix(1,0,0,1,172,207.2) translate(0 111.05381944444447)"/><use xlink:href="#k" transform="matrix(1,0,0,1,172,207.2) translate(18.098958333333332 111.05381944444447)"/><use xlink:href="#e" transform="matrix(1,0,0,1,172,207.2) translate(194.25998263888889 111.05381944444447)"/><use xlink:href="#f" transform="matrix(1,0,0,1,172,207.2) translate(205.14322916666666 111.05381944444447)"/><use xlink:href="#e" transform="matrix(1,0,0,1,172,207.2) translate(282.08550347222223 111.05381944444447)"/><use xlink:href="#g" transform="matrix(1,0,0,1,172,207.2) translate(292.96875 111.05381944444447)"/><use xlink:href="#c" transform="matrix(1,0,0,1,172,207.2) translate(0 137.09548611111114)"/><use xlink:href="#l" transform="matrix(1,0,0,1,172,207.2) translate(18.098958333333332 137.09548611111114)"/><use xlink:href="#e" transform="matrix(1,0,0,1,172,207.2) translate(186.1979166666667 137.09548611111114)"/><use xlink:href="#i" transform="matrix(1,0,0,1,172,207.2) translate(197.08116319444449 137.09548611111114)"/><use xlink:href="#c" transform="matrix(1,0,0,1,172,207.2) translate(0 163.13715277777777)"/><use xlink:href="#m" transform="matrix(1,0,0,1,172,207.2) translate(18.098958333333332 163.13715277777777)"/><use xlink:href="#e" transform="matrix(1,0,0,1,172,207.2) translate(122.65624999999999 163.13715277777777)"/><use xlink:href="#i" transform="matrix(1,0,0,1,172,207.2) translate(133.53949652777777 163.13715277777777)"/><use xlink:href="#c" transform="matrix(1,0,0,1,172,207.2) translate(0 189.17881944444446)"/><use xlink:href="#n" transform="matrix(1,0,0,1,172,207.2) translate(18.098958333333332 189.17881944444446)"/><use xlink:href="#e" transform="matrix(1,0,0,1,172,207.2) translate(78.38541666666667 189.17881944444446)"/><use xlink:href="#o" transform="matrix(1,0,0,1,172,207.2) translate(89.26866319444446 189.17881944444446)"/><use xlink:href="#c" transform="matrix(1,0,0,1,172,207.2) translate(0 215.2204861111111)"/><use xlink:href="#p" transform="matrix(1,0,0,1,172,207.2) translate(18.098958333333332 215.2204861111111)"/><use xlink:href="#c" transform="matrix(1,0,0,1,172,207.2) translate(0 241.26215277777777)"/><use xlink:href="#q" transform="matrix(1,0,0,1,172,207.2) translate(18.098958333333332 241.26215277777777)"/><use xlink:href="#e" transform="matrix(1,0,0,1,172,207.2) translate(109.75477430555554 241.26215277777777)"/><use xlink:href="#r" transform="matrix(1,0,0,1,172,207.2) translate(120.63802083333331 241.26215277777777)"/><path d="M740 146c0-3.3 2.7-6 6-6h408c3.3 0 6 2.7 6 6v322c0 3.3-2.7 6-6 6H746c-3.3 0-6-2.7-6-6z" stroke="#fff" stroke-width="3" fill-opacity="0"/><path d="M740 182.04h420m-420 42.04h420" stroke="#fff" stroke-width="3" fill="none"/><g><use xlink:href="#s" transform="matrix(1,0,0,1,748,148) translate(148.80989583333334 21.09548611111111)"/></g><g><use xlink:href="#c" transform="matrix(1,0,0,1,752,232.08333333333331) translate(0 20.92881944444447)"/><use xlink:href="#d" transform="matrix(1,0,0,1,752,232.08333333333331) translate(18.098958333333332 20.92881944444447)"/><use xlink:href="#e" transform="matrix(1,0,0,1,752,232.08333333333331) translate(176.93142361111111 20.92881944444447)"/><use xlink:href="#f" transform="matrix(1,0,0,1,752,232.08333333333331) translate(187.81467013888889 20.92881944444447)"/><use xlink:href="#e" transform="matrix(1,0,0,1,752,232.08333333333331) translate(264.75694444444446 20.92881944444447)"/><use xlink:href="#g" transform="matrix(1,0,0,1,752,232.08333333333331) translate(275.64019097222223 20.92881944444447)"/><use xlink:href="#c" transform="matrix(1,0,0,1,752,232.08333333333331) translate(0 46.970486111111136)"/><use xlink:href="#h" transform="matrix(1,0,0,1,752,232.08333333333331) translate(18.098958333333332 46.970486111111136)"/><use xlink:href="#e" transform="matrix(1,0,0,1,752,232.08333333333331) translate(168.8693576388889 46.970486111111136)"/><use xlink:href="#i" transform="matrix(1,0,0,1,752,232.08333333333331) translate(179.75260416666669 46.970486111111136)"/><use xlink:href="#c" transform="matrix(1,0,0,1,752,232.08333333333331) translate(0 73.0121527777778)"/><use xlink:href="#j" transform="matrix(1,0,0,1,752,232.08333333333331) translate(18.098958333333332 73.0121527777778)"/><use xlink:href="#e" transform="matrix(1,0,0,1,752,232.08333333333331) translate(105.3276909722222 73.0121527777778)"/><use xlink:href="#i" transform="matrix(1,0,0,1,752,232.08333333333331) translate(116.21093749999997 73.0121527777778)"/><use xlink:href="#c" transform="matrix(1,0,0,1,752,232.08333333333331) translate(0 99.05381944444447)"/><use xlink:href="#k" transform="matrix(1,0,0,1,752,232.08333333333331) translate(18.098958333333332 99.05381944444447)"/><use xlink:href="#e" transform="matrix(1,0,0,1,752,232.08333333333331) translate(194.25998263888889 99.05381944444447)"/><use xlink:href="#f" transform="matrix(1,0,0,1,752,232.08333333333331) translate(205.14322916666666 99.05381944444447)"/><use xlink:href="#e" transform="matrix(1,0,0,1,752,232.08333333333331) translate(282.08550347222223 99.05381944444447)"/><use xlink:href="#g" transform="matrix(1,0,0,1,752,232.08333333333331) translate(292.96875 99.05381944444447)"/><use xlink:href="#c" transform="matrix(1,0,0,1,752,232.08333333333331) translate(0 125.09548611111113)"/><use xlink:href="#l" transform="matrix(1,0,0,1,752,232.08333333333331) translate(18.098958333333332 125.09548611111113)"/><use xlink:href="#e" transform="matrix(1,0,0,1,752,232.08333333333331) translate(186.1979166666667 125.09548611111113)"/><use xlink:href="#i" transform="matrix(1,0,0,1,752,232.08333333333331) translate(197.08116319444449 125.09548611111113)"/><use xlink:href="#c" transform="matrix(1,0,0,1,752,232.08333333333331) translate(0 151.13715277777777)"/><use xlink:href="#m" transform="matrix(1,0,0,1,752,232.08333333333331) translate(18.098958333333332 151.13715277777777)"/><use xlink:href="#e" transform="matrix(1,0,0,1,752,232.08333333333331) translate(122.65624999999999 151.13715277777777)"/><use xlink:href="#i" transform="matrix(1,0,0,1,752,232.08333333333331) translate(133.53949652777777 151.13715277777777)"/><use xlink:href="#c" transform="matrix(1,0,0,1,752,232.08333333333331) translate(0 177.17881944444446)"/><use xlink:href="#n" transform="matrix(1,0,0,1,752,232.08333333333331) translate(18.098958333333332 177.17881944444446)"/><use xlink:href="#e" transform="matrix(1,0,0,1,752,232.08333333333331) translate(78.38541666666667 177.17881944444446)"/><use xlink:href="#o" transform="matrix(1,0,0,1,752,232.08333333333331) translate(89.26866319444446 177.17881944444446)"/><use xlink:href="#c" transform="matrix(1,0,0,1,752,232.08333333333331) translate(0 203.2204861111111)"/><use xlink:href="#p" transform="matrix(1,0,0,1,752,232.08333333333331) translate(18.098958333333332 203.2204861111111)"/><use xlink:href="#c" transform="matrix(1,0,0,1,752,232.08333333333331) translate(0 229.26215277777777)"/><use xlink:href="#q" transform="matrix(1,0,0,1,752,232.08333333333331) translate(18.098958333333332 229.26215277777777)"/><use xlink:href="#e" transform="matrix(1,0,0,1,752,232.08333333333331) translate(109.75477430555554 229.26215277777777)"/><use xlink:href="#r" transform="matrix(1,0,0,1,752,232.08333333333331) translate(120.63802083333331 229.26215277777777)"/></g><path d="M737.5 307h-3.04m-4.04 0h-6.07m-4.05 0h-6.07m-4.05 0h-6.07m-4.03 0H694m-4.05 0h-6.07m-4.05 0h-6.07m-4.04 0h-6.07m-4.05 0h-6.07m-4.05 0h-6.07m-4.03 0h-6.07m-4.05 0h-6.07m-4.05 0h-6.07m-4.04 0h-3.04" stroke="#fff" stroke-width="2" fill="none"/><path d="M738.5 308h-1.03v-2h1.03z" stroke="#fff" stroke-width=".05" fill="#fff"/><path d="M583.46 307l21.52-12.73v25.46z" stroke="#fff" stroke-width="2" fill="#fff"/><path d="M580 606c0-3.3 2.7-6 6-6h148c3.3 0 6 2.7 6 6v113c0 3.3-2.7 6-6 6H586c-3.3 0-6-2.7-6-6z" stroke="#fff" stroke-width="3" fill-opacity="0"/><g><use xlink:href="#t" transform="matrix(1,0,0,1,588,608) translate(43.29991319444444 62.095486111111114)"/></g><path d="M742.5 662.5h3.02m4.03 0h6.05m4.03 0h6.04m4.03 0h6.05m4.03 0h6.04m4.03 0h6.05m4.03 0h6.04m4.03 0h6.05m4.03 0h6.04m4.03 0h6.05m4.03 0h6.04m4.03 0h6.05m4.03 0h6.04m4.03 0h6.05m4.03 0h6.04m4.03 0h6.05m4.03 0h6.04m4.03 0h6.05m4.03 0h6.04m4.03 0h6.05m4.03 0H944l2.7-.73m2.57-2.57l.73-2.7v-3m0-3.97v-5.97m0-3.98v-5.98m0-3.98v-5.97m0-3.98v-5.97m0-4v-5.96m0-3.98v-5.97m0-4v-5.97m0-3.98v-5.97m0-3.98v-5.98m0-3.98v-5.97m0-3.98v-6m0-3.97v-5.97m0-3.98v-5.98m0-3.98v-5.97m0-3.98v-5.97m0-4v-5.96m0-3.98v-5.97m0-4v-2.98" stroke="#fff" stroke-width="2" fill="none"/><path d="M742.53 663.5h-1.03v-2h1.03z" stroke="#fff" stroke-width=".05" fill="#fff"/><path d="M960.18 494.68L950 477.46l-10.18 17.22M577.5 662.5H376c-3.3 0-6-2.7-6-6V477.32" stroke="#fff" stroke-width="2" fill="none"/><path d="M578.5 663.5h-1.03v-2h1.03z" stroke="#fff" stroke-width=".05" fill="#fff"/><path d="M380.18 494.68L370 477.46l-10.18 17.22" stroke="#fff" stroke-width="2" fill="none"/><path d="M1300 246c0-3.3 2.7-6 6-6h148c3.3 0 6 2.7 6 6v113c0 3.3-2.7 6-6 6h-148c-3.3 0-6-2.7-6-6z" stroke="#fff" stroke-width="3" fill-opacity="0"/><g><use xlink:href="#u" transform="matrix(1,0,0,1,1308,248) translate(21.4845920138889 62.095486111111114)"/></g><path d="M1162.5 307h134.18" stroke="#fff" stroke-width="2" fill="none"/><path d="M1162.53 308h-1.03v-2h1.03z" stroke="#fff" stroke-width=".05" fill="#fff"/><path d="M1279.32 317.18l17.22-10.18-17.22-10.18" stroke="#fff" stroke-width="2" fill="none"/><path d="M250 80h240v60H250z" fill="none"/><g><use xlink:href="#v" transform="matrix(1,0,0,1,250,80) translate(54.853515625000014 36.8359375)"/></g><path d="M840 80h240v60H840z" fill="none"/><g><use xlink:href="#w" transform="matrix(1,0,0,1,840,79.99999999999999) translate(84.8388671875 36.8359375)"/></g><path d="M540 725h240v60H540z" fill="none"/><g><use xlink:href="#x" transform="matrix(1,0,0,1,540,725) translate(94.5556640625 36.8359375)"/></g><path d="M1260 180h240v60h-240z" fill="none"/><g><use xlink:href="#y" transform="matrix(1,0,0,1,1260,180) translate(82.9248046875 36.8359375)"/></g><defs><path fill="#fff" d="M15-91v-56l181-69v40L49-119l147 57v40" id="z"/><path fill="#fff" d="M25-224v-37h50v37H25zM25 0v-190h50V0H25" id="A"/><path fill="#fff" d="M135-194c87-1 58 113 63 194h-50c-7-57 23-157-34-157-59 0-34 97-39 157H25l-1-190h47c2 12-1 28 3 38 12-26 28-41 61-42" id="B"/><path fill="#fff" d="M115-3C79 11 28 4 28-45v-112H4v-33h27l15-45h31v45h36v33H77v99c-1 23 16 31 38 25v30" id="C"/><path fill="#fff" d="M185-48c-13 30-37 53-82 52C43 2 14-33 14-96s30-98 90-98c62 0 83 45 84 108H66c0 31 8 55 39 56 18 0 30-7 34-22zm-45-69c5-46-57-63-70-21-2 6-4 13-4 21h74" id="D"/><path fill="#fff" d="M135-150c-39-12-60 13-60 57V0H25l-1-190h47c2 13-1 29 3 40 6-28 27-53 61-41v41" id="E"/><path fill="#fff" d="M121-226c-27-7-43 5-38 36h38v33H83V0H34v-157H6v-33h28c-9-59 32-81 87-68v32" id="F"/><path fill="#fff" d="M133-34C117-15 103 5 69 4 32 3 11-16 11-54c-1-60 55-63 116-61 1-26-3-47-28-47-18 1-26 9-28 27l-52-2c7-38 36-58 82-57s74 22 75 68l1 82c-1 14 12 18 25 15v27c-30 8-71 5-69-32zm-48 3c29 0 43-24 42-57-32 0-66-3-65 30 0 17 8 27 23 27" id="G"/><path fill="#fff" d="M190-63c-7 42-38 67-86 67-59 0-84-38-90-98-12-110 154-137 174-36l-49 2c-2-19-15-32-35-32-30 0-35 28-38 64-6 74 65 87 74 30" id="H"/><path fill="#fff" d="M15-22v-40l146-57-146-57v-40l181 69v56" id="I"/><g id="a"><use transform="matrix(0.05,0,0,0.05,0,0)" xlink:href="#z"/><use transform="matrix(0.05,0,0,0.05,10.5,0)" xlink:href="#z"/><use transform="matrix(0.05,0,0,0.05,21,0)" xlink:href="#A"/><use transform="matrix(0.05,0,0,0.05,26,0)" xlink:href="#B"/><use transform="matrix(0.05,0,0,0.05,36.95,0)" xlink:href="#C"/><use transform="matrix(0.05,0,0,0.05,42.900000000000006,0)" xlink:href="#D"/><use transform="matrix(0.05,0,0,0.05,52.900000000000006,0)" xlink:href="#E"/><use transform="matrix(0.05,0,0,0.05,59.900000000000006,0)" xlink:href="#F"/><use transform="matrix(0.05,0,0,0.05,65.85000000000001,0)" xlink:href="#G"/><use transform="matrix(0.05,0,0,0.05,75.85000000000001,0)" xlink:href="#H"/><use transform="matrix(0.05,0,0,0.05,85.85000000000001,0)" xlink:href="#D"/><use transform="matrix(0.05,0,0,0.05,95.85000000000001,0)" xlink:href="#I"/><use transform="matrix(0.05,0,0,0.05,106.35000000000001,0)" xlink:href="#I"/></g><path fill="#fff" d="M24 0v-248h52V0H24" id="J"/><g id="b"><use transform="matrix(0.05,0,0,0.05,0,0)" xlink:href="#J"/><use transform="matrix(0.05,0,0,0.05,5,0)" xlink:href="#B"/><use transform="matrix(0.05,0,0,0.05,15.950000000000001,0)" xlink:href="#C"/><use transform="matrix(0.05,0,0,0.05,21.900000000000002,0)" xlink:href="#D"/><use transform="matrix(0.05,0,0,0.05,31.900000000000002,0)" xlink:href="#E"/><use transform="matrix(0.05,0,0,0.05,38.900000000000006,0)" xlink:href="#F"/><use transform="matrix(0.05,0,0,0.05,44.85000000000001,0)" xlink:href="#G"/><use transform="matrix(0.05,0,0,0.05,54.85,0)" xlink:href="#H"/><use transform="matrix(0.05,0,0,0.05,64.85000000000001,0)" xlink:href="#D"/></g><path fill="#fff" d="M670-781h406v175H670v460H484v-460H78v-175h406v-425h186v425" id="K"/><use transform="matrix(0.010850694444444444,0,0,0.010850694444444444,0,0)" xlink:href="#K" id="c"/><path fill="#fff" d="M561-1102c238-4 403 126 403 351v498c0 99 13 178 38 237V0H808c-11-21-19-59-26-114C696-25 593 20 474 20c-199 0-368-130-365-320 4-251 214-359 490-356h180v-85c-1-135-86-212-229-212-115 0-232 67-233 171H131c20-205 206-316 430-320zM294-326c0 117 90 185 207 185 122 0 239-75 278-162v-222H634c-227 0-340 66-340 199" id="L"/><path fill="#fff" d="M520 20C244 20 95-247 95-550c0-298 151-550 427-552 127 0 227 43 301 130v-564h185V0H838l-9-116C755-25 652 20 520 20zm48-965c-210 0-288 177-288 416 0 218 87 392 286 392 117 0 203-53 257-158v-497c-55-102-140-153-255-153" id="M"/><path fill="#fff" d="M973-380H363L226 0H28l556-1456h168L1309 0h-197zM421-538h495l-248-681" id="N"/><path fill="#fff" d="M456 20C285 20 205-92 206-268v-671H9v-143h197v-262h185v262h202v143H391v671c-9 125 92 149 207 118V0c-49 13-96 20-142 20" id="O"/><path fill="#fff" d="M1175-1298H707V0H516v-1298H49v-158h1126v158" id="P"/><path fill="#fff" d="M341 0H156v-1082h185V0zm-91-1264c-68 0-108-42-109-105 0-62 41-107 109-107s110 44 110 107-42 105-110 105" id="Q"/><path fill="#fff" d="M341 0H156v-1536h185V0" id="R"/><path fill="#fff" d="M319-664C304-226 428 158 661 357l-38 113c-89-49-172-133-254-248C142-97 71-578 194-1025c67-244 240-513 429-618l38 122c-201 153-330 502-342 857" id="S"/><path fill="#fff" d="M497-251l268-831h189L566 0H425L33-1082h189" id="T"/><path fill="#fff" d="M491 20c-241-1-355-148-355-398v-704h185v699c0 164 67 246 200 246 141 0 235-53 282-158v-787h185V0H812l-4-107C736-22 630 20 491 20" id="U"/><path fill="#fff" d="M599-131c141 0 220-65 285-146l113 88C906-50 770 20 589 20 281 21 93-214 93-545c0-223 93-397 233-485 74-48 154-72 240-72 300 2 449 218 445 537v77H278c0 197 129 357 321 357zm227-509c-3-180-88-310-260-310-170 0-264 140-282 310h542" id="V"/><g id="d"><use transform="matrix(0.010850694444444444,0,0,0.010850694444444444,0,0)" xlink:href="#L"/><use transform="matrix(0.010850694444444444,0,0,0.010850694444444444,12.08767361111111,0)" xlink:href="#M"/><use transform="matrix(0.010850694444444444,0,0,0.010850694444444444,24.620225694444443,0)" xlink:href="#M"/><use transform="matrix(0.010850694444444444,0,0,0.010850694444444444,37.15277777777777,0)" xlink:href="#N"/><use transform="matrix(0.010850694444444444,0,0,0.010850694444444444,51.464843749999986,0)" xlink:href="#O"/><use transform="matrix(0.010850694444444444,0,0,0.010850694444444444,58.72395833333333,0)" xlink:href="#P"/><use transform="matrix(0.010850694444444444,0,0,0.010850694444444444,70.75737847222221,0)" xlink:href="#L"/><use transform="matrix(0.010850694444444444,0,0,0.010850694444444444,82.84505208333333,0)" xlink:href="#Q"/><use transform="matrix(0.010850694444444444,0,0,0.010850694444444444,88.23784722222221,0)" xlink:href="#R"/><use transform="matrix(0.010850694444444444,0,0,0.010850694444444444,93.63064236111111,0)" xlink:href="#S"/><use transform="matrix(0.010850694444444444,0,0,0.010850694444444444,101.22612847222221,0)" xlink:href="#T"/><use transform="matrix(0.010850694444444444,0,0,0.010850694444444444,111.82725694444441,0)" xlink:href="#L"/><use transform="matrix(0.010850694444444444,0,0,0.010850694444444444,123.91493055555556,0)" xlink:href="#R"/><use transform="matrix(0.010850694444444444,0,0,0.010850694444444444,129.30772569444443,0)" xlink:href="#U"/><use transform="matrix(0.010850694444444444,0,0,0.010850694444444444,141.5581597222222,0)" xlink:href="#V"/></g><path fill="#fff" d="M248 11c-71 0-114-43-114-108 0-67 42-112 114-112s116 45 116 112c-1 65-45 108-116 108zm1-883c-71 0-114-43-114-108 0-67 42-112 114-112s116 45 116 112c-1 65-45 108-116 108" id="W"/><use transform="matrix(0.010850694444444444,0,0,0.010850694444444444,0,0)" xlink:href="#W" id="e"/><path fill="#fff" d="M703-1476c426 0 599 333 586 795-11 408-187 701-584 701-422 0-587-333-587-793 0-282 106-507 280-617 89-56 190-86 305-86zm2 1333c312 0 393-279 393-632 0-308-116-536-395-536-269 0-394 232-394 523v107c-4 298 123 538 396 538" id="X"/><path fill="#fff" d="M634-1102c292 0 422 254 422 573 0 298-143 547-420 549-137 0-242-48-317-145L310 0H140v-1536h185v573c75-93 178-139 309-139zm-44 965c207 0 281-175 281-413 0-224-79-395-283-395-122 0-210 57-263 170v468c57 113 145 170 265 170" id="Y"/><path fill="#fff" d="M19 279c92 0 127-48 127-150v-1211h185V125c0 208-94 312-283 312-41 0-78-6-113-18V271c21 5 49 8 84 8zm216-1543c-68 0-107-42-108-105 0-61 42-107 108-107 68 0 110 44 110 107s-42 105-110 105" id="Z"/><path fill="#fff" d="M277-555c0 244 77 420 297 424 127 2 249-93 255-210h175C980-127 805 20 574 20 258 20 81-222 92-562c11-319 164-533 481-540 237-5 426 165 431 392H829c-7-133-115-242-256-240-209 4-296 166-296 395" id="aa"/><path fill="#fff" d="M38 357C331 141 457-487 337-984c-53-219-157-429-299-546l39-113c190 106 362 378 431 621 75 268 76 597 0 868C440 88 266 365 77 470" id="ab"/><g id="f"><use transform="matrix(0.010850694444444444,0,0,0.010850694444444444,0,0)" xlink:href="#X"/><use transform="matrix(0.010850694444444444,0,0,0.010850694444444444,15.277777777777777,0)" xlink:href="#Y"/><use transform="matrix(0.010850694444444444,0,0,0.010850694444444444,27.745225694444443,0)" xlink:href="#Z"/><use transform="matrix(0.010850694444444444,0,0,0.010850694444444444,33.05121527777778,0)" xlink:href="#V"/><use transform="matrix(0.010850694444444444,0,0,0.010850694444444444,44.82421875,0)" xlink:href="#aa"/><use transform="matrix(0.010850694444444444,0,0,0.010850694444444444,56.45616319444444,0)" xlink:href="#O"/><use transform="matrix(0.010850694444444444,0,0,0.010850694444444444,63.71527777777778,0)" xlink:href="#ab"/></g><path fill="#fff" d="M584 20C278 26 81-227 91-551c10-320 175-545 491-551 308-5 503 247 494 573-9 322-175 543-492 549zm-2-970c-208 0-305 185-305 421 0 216 106 398 307 398 211 0 307-186 307-420 0-214-109-399-309-399" id="ac"/><path fill="#fff" d="M589-945c-131 0-219 81-264 174V0H140v-1082h175l6 136c83-104 191-156 324-156 229 0 346 129 346 387V0H806v-716c-2-153-65-229-217-229" id="ad"/><g id="g"><use transform="matrix(0.010850694444444444,0,0,0.010850694444444444,0,0)" xlink:href="#Y"/><use transform="matrix(0.010850694444444444,0,0,0.010850694444444444,12.467447916666666,0)" xlink:href="#ac"/><use transform="matrix(0.010850694444444444,0,0,0.010850694444444444,25.14105902777778,0)" xlink:href="#ac"/><use transform="matrix(0.010850694444444444,0,0,0.010850694444444444,37.814670138888886,0)" xlink:href="#R"/><use transform="matrix(0.010850694444444444,0,0,0.010850694444444444,43.20746527777777,0)" xlink:href="#V"/><use transform="matrix(0.010850694444444444,0,0,0.010850694444444444,54.980468749999986,0)" xlink:href="#L"/><use transform="matrix(0.010850694444444444,0,0,0.010850694444444444,67.0681423611111,0)" xlink:href="#ad"/></g><path fill="#fff" d="M663-916c-163-27-288 18-338 148V0H140v-1082h180l3 125c61-97 147-145 258-145 36 0 63 5 82 14v172" id="ae"/><path fill="#fff" d="M1240-945c-141 0-250 95-250 227V0H804v-709c0-157-77-236-231-236-121 0-204 52-249 155V0H139v-1082h175l5 120c79-93 186-140 321-140 151 0 254 58 309 174 69-98 181-174 345-174 237 0 362 126 362 377V0h-185v-714c-2-159-67-231-231-231" id="af"/><g id="h"><use transform="matrix(0.010850694444444444,0,0,0.010850694444444444,0,0)" xlink:href="#ae"/><use transform="matrix(0.010850694444444444,0,0,0.010850694444444444,7.313368055555555,0)" xlink:href="#V"/><use transform="matrix(0.010850694444444444,0,0,0.010850694444444444,19.08637152777778,0)" xlink:href="#af"/><use transform="matrix(0.010850694444444444,0,0,0.010850694444444444,38.56336805555556,0)" xlink:href="#ac"/><use transform="matrix(0.010850694444444444,0,0,0.010850694444444444,51.07421875,0)" xlink:href="#T"/><use transform="matrix(0.010850694444444444,0,0,0.010850694444444444,61.69704861111112,0)" xlink:href="#V"/><use transform="matrix(0.010850694444444444,0,0,0.010850694444444444,73.47005208333334,0)" xlink:href="#N"/><use transform="matrix(0.010850694444444444,0,0,0.010850694444444444,87.78211805555556,0)" xlink:href="#O"/><use transform="matrix(0.010850694444444444,0,0,0.010850694444444444,95.04123263888889,0)" xlink:href="#P"/><use transform="matrix(0.010850694444444444,0,0,0.010850694444444444,107.07465277777777,0)" xlink:href="#L"/><use transform="matrix(0.010850694444444444,0,0,0.010850694444444444,119.16232638888889,0)" xlink:href="#Q"/><use transform="matrix(0.010850694444444444,0,0,0.010850694444444444,124.55512152777777,0)" xlink:href="#R"/><use transform="matrix(0.010850694444444444,0,0,0.010850694444444444,129.94791666666666,0)" xlink:href="#S"/><use transform="matrix(0.010850694444444444,0,0,0.010850694444444444,137.54340277777777,0)" xlink:href="#ab"/></g><g id="i"><use transform="matrix(0.010850694444444444,0,0,0.010850694444444444,0,0)" xlink:href="#X"/><use transform="matrix(0.010850694444444444,0,0,0.010850694444444444,15.277777777777777,0)" xlink:href="#Y"/><use transform="matrix(0.010850694444444444,0,0,0.010850694444444444,27.745225694444443,0)" xlink:href="#Z"/><use transform="matrix(0.010850694444444444,0,0,0.010850694444444444,33.05121527777778,0)" xlink:href="#V"/><use transform="matrix(0.010850694444444444,0,0,0.010850694444444444,44.82421875,0)" xlink:href="#aa"/><use transform="matrix(0.010850694444444444,0,0,0.010850694444444444,56.45616319444444,0)" xlink:href="#O"/></g><path fill="#fff" d="M521 20C240 20 96-239 96-550c0-303 147-552 427-552 132 0 235 47 309 140l9-120h169V-26c4 277-183 454-459 452-165-1-334-81-400-187l96-111c79 98 176 147 291 147 180 1 288-109 286-290v-93C750-23 649 20 521 20zm48-965c-209 0-287 178-287 416 0 217 86 392 285 392 117 0 202-53 257-159v-494c-57-103-142-155-255-155" id="ag"/><g id="j"><use transform="matrix(0.010850694444444444,0,0,0.010850694444444444,0,0)" xlink:href="#ag"/><use transform="matrix(0.010850694444444444,0,0,0.010850694444444444,12.467447916666666,0)" xlink:href="#V"/><use transform="matrix(0.010850694444444444,0,0,0.010850694444444444,24.24045138888889,0)" xlink:href="#O"/><use transform="matrix(0.010850694444444444,0,0,0.010850694444444444,31.499565972222218,0)" xlink:href="#P"/><use transform="matrix(0.010850694444444444,0,0,0.010850694444444444,43.53298611111111,0)" xlink:href="#L"/><use transform="matrix(0.010850694444444444,0,0,0.010850694444444444,55.62065972222221,0)" xlink:href="#Q"/><use transform="matrix(0.010850694444444444,0,0,0.010850694444444444,61.0134548611111,0)" xlink:href="#R"/><use transform="matrix(0.010850694444444444,0,0,0.010850694444444444,66.40624999999999,0)" xlink:href="#S"/><use transform="matrix(0.010850694444444444,0,0,0.010850694444444444,74.0017361111111,0)" xlink:href="#ab"/></g><path fill="#fff" d="M1288 0h-193v-673H361V0H169v-1456h192v626h734v-626h193V0" id="ah"/><g id="k"><use transform="matrix(0.010850694444444444,0,0,0.010850694444444444,0,0)" xlink:href="#L"/><use transform="matrix(0.010850694444444444,0,0,0.010850694444444444,12.08767361111111,0)" xlink:href="#M"/><use transform="matrix(0.010850694444444444,0,0,0.010850694444444444,24.620225694444443,0)" xlink:href="#M"/><use transform="matrix(0.010850694444444444,0,0,0.010850694444444444,37.15277777777777,0)" xlink:href="#N"/><use transform="matrix(0.010850694444444444,0,0,0.010850694444444444,51.464843749999986,0)" xlink:href="#O"/><use transform="matrix(0.010850694444444444,0,0,0.010850694444444444,58.72395833333333,0)" xlink:href="#ah"/><use transform="matrix(0.010850694444444444,0,0,0.010850694444444444,74.56597222222221,0)" xlink:href="#V"/><use transform="matrix(0.010850694444444444,0,0,0.010850694444444444,86.33897569444443,0)" xlink:href="#L"/><use transform="matrix(0.010850694444444444,0,0,0.010850694444444444,98.42664930555556,0)" xlink:href="#M"/><use transform="matrix(0.010850694444444444,0,0,0.010850694444444444,110.95920138888887,0)" xlink:href="#S"/><use transform="matrix(0.010850694444444444,0,0,0.010850694444444444,118.55468749999997,0)" xlink:href="#T"/><use transform="matrix(0.010850694444444444,0,0,0.010850694444444444,129.1558159722222,0)" xlink:href="#L"/><use transform="matrix(0.010850694444444444,0,0,0.010850694444444444,141.24348958333331,0)" xlink:href="#R"/><use transform="matrix(0.010850694444444444,0,0,0.010850694444444444,146.6362847222222,0)" xlink:href="#U"/><use transform="matrix(0.010850694444444444,0,0,0.010850694444444444,158.88671874999997,0)" xlink:href="#V"/></g><g id="l"><use transform="matrix(0.010850694444444444,0,0,0.010850694444444444,0,0)" xlink:href="#ae"/><use transform="matrix(0.010850694444444444,0,0,0.010850694444444444,7.313368055555555,0)" xlink:href="#V"/><use transform="matrix(0.010850694444444444,0,0,0.010850694444444444,19.08637152777778,0)" xlink:href="#af"/><use transform="matrix(0.010850694444444444,0,0,0.010850694444444444,38.56336805555556,0)" xlink:href="#ac"/><use transform="matrix(0.010850694444444444,0,0,0.010850694444444444,51.07421875,0)" xlink:href="#T"/><use transform="matrix(0.010850694444444444,0,0,0.010850694444444444,61.69704861111112,0)" xlink:href="#V"/><use transform="matrix(0.010850694444444444,0,0,0.010850694444444444,73.47005208333334,0)" xlink:href="#N"/><use transform="matrix(0.010850694444444444,0,0,0.010850694444444444,87.78211805555556,0)" xlink:href="#O"/><use transform="matrix(0.010850694444444444,0,0,0.010850694444444444,95.04123263888889,0)" xlink:href="#ah"/><use transform="matrix(0.010850694444444444,0,0,0.010850694444444444,110.88324652777777,0)" xlink:href="#V"/><use transform="matrix(0.010850694444444444,0,0,0.010850694444444444,122.65625,0)" xlink:href="#L"/><use transform="matrix(0.010850694444444444,0,0,0.010850694444444444,134.74392361111111,0)" xlink:href="#M"/><use transform="matrix(0.010850694444444444,0,0,0.010850694444444444,147.27647569444446,0)" xlink:href="#S"/><use transform="matrix(0.010850694444444444,0,0,0.010850694444444444,154.87196180555557,0)" xlink:href="#ab"/></g><g id="m"><use transform="matrix(0.010850694444444444,0,0,0.010850694444444444,0,0)" xlink:href="#ag"/><use transform="matrix(0.010850694444444444,0,0,0.010850694444444444,12.467447916666666,0)" xlink:href="#V"/><use transform="matrix(0.010850694444444444,0,0,0.010850694444444444,24.24045138888889,0)" xlink:href="#O"/><use transform="matrix(0.010850694444444444,0,0,0.010850694444444444,31.499565972222218,0)" xlink:href="#ah"/><use transform="matrix(0.010850694444444444,0,0,0.010850694444444444,47.34157986111111,0)" xlink:href="#V"/><use transform="matrix(0.010850694444444444,0,0,0.010850694444444444,59.11458333333333,0)" xlink:href="#L"/><use transform="matrix(0.010850694444444444,0,0,0.010850694444444444,71.20225694444444,0)" xlink:href="#M"/><use transform="matrix(0.010850694444444444,0,0,0.010850694444444444,83.73480902777777,0)" xlink:href="#S"/><use transform="matrix(0.010850694444444444,0,0,0.010850694444444444,91.33029513888889,0)" xlink:href="#ab"/></g><path fill="#fff" d="M538-131c121 0 232-49 232-156 0-50-20-88-56-117-73-60-334-92-420-143-92-55-162-110-162-238 0-190 192-317 400-317 223 0 414 129 413 338H759c0-108-110-186-227-186-119 0-215 53-215 159 0 45 18 78 53 101 76 52 331 90 416 139 98 57 169 115 169 251C955-92 760 20 538 20c-176 0-314-68-386-174-38-55-57-115-57-179h185c6 129 116 202 258 202" id="ai"/><path fill="#fff" d="M314-151h633V0H88v-136l597-793H97v-153h820v131" id="aj"/><g id="n"><use transform="matrix(0.010850694444444444,0,0,0.010850694444444444,0,0)" xlink:href="#ai"/><use transform="matrix(0.010850694444444444,0,0,0.010850694444444444,11.458333333333332,0)" xlink:href="#Q"/><use transform="matrix(0.010850694444444444,0,0,0.010850694444444444,16.85112847222222,0)" xlink:href="#aj"/><use transform="matrix(0.010850694444444444,0,0,0.010850694444444444,27.69097222222222,0)" xlink:href="#V"/><use transform="matrix(0.010850694444444444,0,0,0.010850694444444444,39.46397569444444,0)" xlink:href="#S"/><use transform="matrix(0.010850694444444444,0,0,0.010850694444444444,47.05946180555556,0)" xlink:href="#ab"/></g><g id="o"><use transform="matrix(0.010850694444444444,0,0,0.010850694444444444,0,0)" xlink:href="#Q"/><use transform="matrix(0.010850694444444444,0,0,0.010850694444444444,5.392795138888888,0)" xlink:href="#ad"/><use transform="matrix(0.010850694444444444,0,0,0.010850694444444444,17.65407986111111,0)" xlink:href="#O"/></g><g id="p"><use transform="matrix(0.010850694444444444,0,0,0.010850694444444444,0,0)" xlink:href="#aa"/><use transform="matrix(0.010850694444444444,0,0,0.010850694444444444,11.631944444444445,0)" xlink:href="#R"/><use transform="matrix(0.010850694444444444,0,0,0.010850694444444444,17.024739583333332,0)" xlink:href="#V"/><use transform="matrix(0.010850694444444444,0,0,0.010850694444444444,28.797743055555554,0)" xlink:href="#L"/><use transform="matrix(0.010850694444444444,0,0,0.010850694444444444,40.885416666666664,0)" xlink:href="#ae"/><use transform="matrix(0.010850694444444444,0,0,0.010850694444444444,48.404947916666664,0)" xlink:href="#S"/><use transform="matrix(0.010850694444444444,0,0,0.010850694444444444,56.00043402777778,0)" xlink:href="#ab"/></g><g id="q"><use transform="matrix(0.010850694444444444,0,0,0.010850694444444444,0,0)" xlink:href="#Q"/><use transform="matrix(0.010850694444444444,0,0,0.010850694444444444,5.392795138888888,0)" xlink:href="#O"/><use transform="matrix(0.010850694444444444,0,0,0.010850694444444444,12.651909722222221,0)" xlink:href="#V"/><use transform="matrix(0.010850694444444444,0,0,0.010850694444444444,24.424913194444443,0)" xlink:href="#ae"/><use transform="matrix(0.010850694444444444,0,0,0.010850694444444444,31.510416666666664,0)" xlink:href="#L"/><use transform="matrix(0.010850694444444444,0,0,0.010850694444444444,43.59809027777777,0)" xlink:href="#O"/><use transform="matrix(0.010850694444444444,0,0,0.010850694444444444,50.64019097222222,0)" xlink:href="#ac"/><use transform="matrix(0.010850694444444444,0,0,0.010850694444444444,63.31380208333333,0)" xlink:href="#ae"/><use transform="matrix(0.010850694444444444,0,0,0.010850694444444444,70.83333333333333,0)" xlink:href="#S"/><use transform="matrix(0.010850694444444444,0,0,0.010850694444444444,78.42881944444444,0)" xlink:href="#ab"/></g><path fill="#fff" d="M375 0H183v-1456h192V0" id="ak"/><g id="r"><use transform="matrix(0.010850694444444444,0,0,0.010850694444444444,0,0)" xlink:href="#ak"/><use transform="matrix(0.010850694444444444,0,0,0.010850694444444444,6.043836805555555,0)" xlink:href="#O"/><use transform="matrix(0.010850694444444444,0,0,0.010850694444444444,13.30295138888889,0)" xlink:href="#V"/><use transform="matrix(0.010850694444444444,0,0,0.010850694444444444,25.07595486111111,0)" xlink:href="#ae"/><use transform="matrix(0.010850694444444444,0,0,0.010850694444444444,32.16145833333333,0)" xlink:href="#L"/><use transform="matrix(0.010850694444444444,0,0,0.010850694444444444,44.24913194444444,0)" xlink:href="#O"/><use transform="matrix(0.010850694444444444,0,0,0.010850694444444444,51.2912326388889,0)" xlink:href="#ac"/><use transform="matrix(0.010850694444444444,0,0,0.010850694444444444,63.96484375,0)" xlink:href="#ae"/></g><path fill="#fff" d="M1222-777c17 480-206 763-650 777H169v-1456h411c408 9 627 269 642 679zm-190 4c3-312-149-522-447-525H361v1141h202c308 0 473-209 469-531v-85" id="al"/><path fill="#fff" d="M524 20C238 18 95-240 95-550c0-307 146-552 431-552 128 0 229 43 303 129l8-109h170V416H822v-516C747-20 648 20 524 20zm48-970c-208 0-292 182-292 421 0 219 92 398 290 398 110 0 194-49 252-146v-530c-59-95-142-143-250-143" id="am"/><path fill="#fff" d="M632-1102c291 0 422 251 422 573 0 297-141 548-419 549-131 0-235-42-310-125v521H140v-1498h169l9 120c75-93 180-140 314-140zm-53 971c207 0 290-180 290-419 0-218-92-395-292-395-112 0-196 50-252 149v517c55 99 140 148 254 148" id="an"/><g id="s"><use transform="matrix(0.010850694444444444,0,0,0.010850694444444444,0,0)" xlink:href="#al"/><use transform="matrix(0.010850694444444444,0,0,0.010850694444444444,14.572482638888888,0)" xlink:href="#V"/><use transform="matrix(0.010850694444444444,0,0,0.010850694444444444,26.345486111111104,0)" xlink:href="#am"/><use transform="matrix(0.010850694444444444,0,0,0.010850694444444444,38.97569444444444,0)" xlink:href="#U"/><use transform="matrix(0.010850694444444444,0,0,0.010850694444444444,51.22612847222222,0)" xlink:href="#V"/><use transform="matrix(0.010850694444444444,0,0,0.010850694444444444,62.99913194444444,0)" xlink:href="#ak"/><use transform="matrix(0.010850694444444444,0,0,0.010850694444444444,69.04296875,0)" xlink:href="#af"/><use transform="matrix(0.010850694444444444,0,0,0.010850694444444444,88.51996527777777,0)" xlink:href="#an"/><use transform="matrix(0.010850694444444444,0,0,0.010850694444444444,100.98741319444444,0)" xlink:href="#R"/></g><g id="t"><use transform="matrix(0.010850694444444444,0,0,0.010850694444444444,0,0)" xlink:href="#al"/><use transform="matrix(0.010850694444444444,0,0,0.010850694444444444,14.572482638888888,0)" xlink:href="#ae"/><use transform="matrix(0.010850694444444444,0,0,0.010850694444444444,22.092013888888886,0)" xlink:href="#Q"/><use transform="matrix(0.010850694444444444,0,0,0.010850694444444444,27.48480902777778,0)" xlink:href="#T"/><use transform="matrix(0.010850694444444444,0,0,0.010850694444444444,38.107638888888886,0)" xlink:href="#V"/><use transform="matrix(0.010850694444444444,0,0,0.010850694444444444,49.88064236111111,0)" xlink:href="#ae"/></g><path fill="#fff" d="M362-157h690V0H169v-1456h193v1299" id="ao"/><path fill="#fff" d="M442-501L326-380V0H141v-1536h185v929c135-169 291-317 436-475h225L566-630 1036 0H819" id="ap"/><g id="u"><use transform="matrix(0.010850694444444444,0,0,0.010850694444444444,0,0)" xlink:href="#ao"/><use transform="matrix(0.010850694444444444,0,0,0.010850694444444444,11.957465277777777,0)" xlink:href="#Q"/><use transform="matrix(0.010850694444444444,0,0,0.010850694444444444,17.350260416666664,0)" xlink:href="#ad"/><use transform="matrix(0.010850694444444444,0,0,0.010850694444444444,29.61154513888889,0)" xlink:href="#ap"/><use transform="matrix(0.010850694444444444,0,0,0.010850694444444444,40.65755208333333,0)" xlink:href="#V"/><use transform="matrix(0.010850694444444444,0,0,0.010850694444444444,52.43055555555556,0)" xlink:href="#M"/><use transform="matrix(0.010850694444444444,0,0,0.010850694444444444,64.96310763888889,0)" xlink:href="#ao"/><use transform="matrix(0.010850694444444444,0,0,0.010850694444444444,76.92057291666666,0)" xlink:href="#Q"/><use transform="matrix(0.010850694444444444,0,0,0.010850694444444444,82.31336805555554,0)" xlink:href="#ai"/><use transform="matrix(0.010850694444444444,0,0,0.010850694444444444,93.77170138888887,0)" xlink:href="#O"/></g><path fill="#dfe3e8" d="M688-137c238 0 323-102 359-325h193c-32 297-228 482-552 482-361 0-569-299-569-680 0-197 8-360 73-497 88-186 257-317 513-319 316-2 509 195 535 488h-193c-31-212-118-330-342-330-272 0-397 224-393 523v141c-3 282 115 517 376 517" id="aq"/><path fill="#dfe3e8" d="M341 0H156v-1536h185V0" id="ar"/><path fill="#dfe3e8" d="M341 0H156v-1082h185V0zm-91-1264c-68 0-108-42-109-105 0-62 41-107 109-107s110 44 110 107-42 105-110 105" id="as"/><path fill="#dfe3e8" d="M599-131c141 0 220-65 285-146l113 88C906-50 770 20 589 20 281 21 93-214 93-545c0-223 93-397 233-485 74-48 154-72 240-72 300 2 449 218 445 537v77H278c0 197 129 357 321 357zm227-509c-3-180-88-310-260-310-170 0-264 140-282 310h542" id="at"/><path fill="#dfe3e8" d="M589-945c-131 0-219 81-264 174V0H140v-1082h175l6 136c83-104 191-156 324-156 229 0 346 129 346 387V0H806v-716c-2-153-65-229-217-229" id="au"/><path fill="#dfe3e8" d="M456 20C285 20 205-92 206-268v-671H9v-143h197v-262h185v262h202v143H391v671c-9 125 92 149 207 118V0c-49 13-96 20-142 20" id="av"/><path fill="#dfe3e8" d="M375 0H183v-1456h192V0" id="aw"/><path fill="#dfe3e8" d="M663-916c-163-27-288 18-338 148V0H140v-1082h180l3 125c61-97 147-145 258-145 36 0 63 5 82 14v172" id="ax"/><path fill="#dfe3e8" d="M704-1390c-164-38-297 28-288 194v114h231v143H416V0H231v-939H60v-143h171v-111c-12-274 208-416 483-347" id="ay"/><path fill="#dfe3e8" d="M561-1102c238-4 403 126 403 351v498c0 99 13 178 38 237V0H808c-11-21-19-59-26-114C696-25 593 20 474 20c-199 0-368-130-365-320 4-251 214-359 490-356h180v-85c-1-135-86-212-229-212-115 0-232 67-233 171H131c20-205 206-316 430-320zM294-326c0 117 90 185 207 185 122 0 239-75 278-162v-222H634c-227 0-340 66-340 199" id="az"/><path fill="#dfe3e8" d="M277-555c0 244 77 420 297 424 127 2 249-93 255-210h175C980-127 805 20 574 20 258 20 81-222 92-562c11-319 164-533 481-540 237-5 426 165 431 392H829c-7-133-115-242-256-240-209 4-296 166-296 395" id="aA"/><g id="v"><use transform="matrix(0.009765624999999998,0,0,0.009765624999999998,0,0)" xlink:href="#aq"/><use transform="matrix(0.009765624999999998,0,0,0.009765624999999998,13.017578124999998,0)" xlink:href="#ar"/><use transform="matrix(0.009765624999999998,0,0,0.009765624999999998,17.871093749999996,0)" xlink:href="#as"/><use transform="matrix(0.009765624999999998,0,0,0.009765624999999998,22.724609374999996,0)" xlink:href="#at"/><use transform="matrix(0.009765624999999998,0,0,0.009765624999999998,33.32031249999999,0)" xlink:href="#au"/><use transform="matrix(0.009765624999999998,0,0,0.009765624999999998,44.35546874999999,0)" xlink:href="#av"/><use transform="matrix(0.009765624999999998,0,0,0.009765624999999998,50.88867187499999,0)" xlink:href="#aw"/><use transform="matrix(0.009765624999999998,0,0,0.009765624999999998,56.32812499999999,0)" xlink:href="#au"/><use transform="matrix(0.009765624999999998,0,0,0.009765624999999998,67.36328124999999,0)" xlink:href="#av"/><use transform="matrix(0.009765624999999998,0,0,0.009765624999999998,73.89648437499999,0)" xlink:href="#at"/><use transform="matrix(0.009765624999999998,0,0,0.009765624999999998,84.49218749999999,0)" xlink:href="#ax"/><use transform="matrix(0.009765624999999998,0,0,0.009765624999999998,91.40624999999999,0)" xlink:href="#ay"/><use transform="matrix(0.009765624999999998,0,0,0.009765624999999998,98.34960937499999,0)" xlink:href="#az"/><use transform="matrix(0.009765624999999998,0,0,0.009765624999999998,109.22851562499999,0)" xlink:href="#aA"/><use transform="matrix(0.009765624999999998,0,0,0.009765624999999998,119.69726562499999,0)" xlink:href="#at"/></g><path fill="#dfe3e8" d="M973-380H363L226 0H28l556-1456h168L1309 0h-197zM421-538h495l-248-681" id="aB"/><path fill="#dfe3e8" d="M520 20C244 20 95-247 95-550c0-298 151-550 427-552 127 0 227 43 301 130v-564h185V0H838l-9-116C755-25 652 20 520 20zm48-965c-210 0-288 177-288 416 0 218 87 392 286 392 117 0 203-53 257-158v-497c-55-102-140-153-255-153" id="aC"/><path fill="#dfe3e8" d="M632-1102c291 0 422 251 422 573 0 297-141 548-419 549-131 0-235-42-310-125v521H140v-1498h169l9 120c75-93 180-140 314-140zm-53 971c207 0 290-180 290-419 0-218-92-395-292-395-112 0-196 50-252 149v517c55 99 140 148 254 148" id="aD"/><g id="w"><use transform="matrix(0.009765624999999998,0,0,0.009765624999999998,0,0)" xlink:href="#aB"/><use transform="matrix(0.009765624999999998,0,0,0.009765624999999998,13.046874999999998,0)" xlink:href="#aC"/><use transform="matrix(0.009765624999999998,0,0,0.009765624999999998,24.326171874999996,0)" xlink:href="#az"/><use transform="matrix(0.009765624999999998,0,0,0.009765624999999998,35.20507812499999,0)" xlink:href="#aD"/><use transform="matrix(0.009765624999999998,0,0,0.009765624999999998,46.42578124999999,0)" xlink:href="#av"/><use transform="matrix(0.009765624999999998,0,0,0.009765624999999998,52.95898437499999,0)" xlink:href="#at"/><use transform="matrix(0.009765624999999998,0,0,0.009765624999999998,63.554687499999986,0)" xlink:href="#ax"/></g><g id="x"><use transform="matrix(0.009765624999999998,0,0,0.009765624999999998,0,0)" xlink:href="#aq"/><use transform="matrix(0.009765624999999998,0,0,0.009765624999999998,13.017578124999998,0)" xlink:href="#ar"/><use transform="matrix(0.009765624999999998,0,0,0.009765624999999998,17.871093749999996,0)" xlink:href="#as"/><use transform="matrix(0.009765624999999998,0,0,0.009765624999999998,22.724609374999996,0)" xlink:href="#at"/><use transform="matrix(0.009765624999999998,0,0,0.009765624999999998,33.32031249999999,0)" xlink:href="#au"/><use transform="matrix(0.009765624999999998,0,0,0.009765624999999998,44.35546874999999,0)" xlink:href="#av"/></g><g id="y"><use transform="matrix(0.009765624999999998,0,0,0.009765624999999998,0,0)" xlink:href="#aB"/><use transform="matrix(0.009765624999999998,0,0,0.009765624999999998,13.046874999999998,0)" xlink:href="#aC"/><use transform="matrix(0.009765624999999998,0,0,0.009765624999999998,24.326171874999996,0)" xlink:href="#az"/><use transform="matrix(0.009765624999999998,0,0,0.009765624999999998,35.20507812499999,0)" xlink:href="#aD"/><use transform="matrix(0.009765624999999998,0,0,0.009765624999999998,46.42578124999999,0)" xlink:href="#av"/><use transform="matrix(0.009765624999999998,0,0,0.009765624999999998,52.95898437499999,0)" xlink:href="#at"/><use transform="matrix(0.009765624999999998,0,0,0.009765624999999998,63.554687499999986,0)" xlink:href="#at"/></g></defs></g></svg>