<svg xmlns="http://www.w3.org/2000/svg" xmlns:xlink="http://www.w3.org/1999/xlink" xmlns:lucid="lucid" width="1161" height="1000"><g transform="translate(-99 -60)" lucid:page-tab-id="y-GUZif9enoX"><path d="M120 80h240v60H120z" fill="none"/><use xlink:href="#a" transform="matrix(1,0,0,1,120,80) translate(0 40.63368055555556)"/><use xlink:href="#b" transform="matrix(1,0,0,1,120,80) translate(98.37673611111109 40.63368055555556)"/><path d="M200 166c0-3.3 2.7-6 6-6h348c3.3 0 6 2.7 6 6v148c0 3.3-2.7 6-6 6H206c-3.3 0-6-2.7-6-6z" stroke="#fff" stroke-width="3" fill-opacity="0"/><path d="M200 219.2h360" stroke="#fff" stroke-width="3" fill="none"/><use xlink:href="#c" transform="matrix(1,0,0,1,208,168) translate(113.57499999999999 14.799999999999999)"/><use xlink:href="#d" transform="matrix(1,0,0,1,208,168) translate(109.64999999999999 36.4)"/><use xlink:href="#e" transform="matrix(1,0,0,1,212,227.2) translate(0 37.57465277777778)"/><use xlink:href="#f" transform="matrix(1,0,0,1,212,227.2) translate(18.098958333333332 37.57465277777778)"/><use xlink:href="#g" transform="matrix(1,0,0,1,212,227.2) translate(219.73741319444449 37.57465277777778)"/><use xlink:href="#h" transform="matrix(1,0,0,1,212,227.2) translate(230.62065972222226 37.57465277777778)"/><use xlink:href="#e" transform="matrix(1,0,0,1,212,227.2) translate(0 63.61631944444444)"/><use xlink:href="#i" transform="matrix(1,0,0,1,212,227.2) translate(18.098958333333332 63.61631944444444)"/><use xlink:href="#g" transform="matrix(1,0,0,1,212,227.2) translate(219.73741319444449 63.61631944444444)"/><use xlink:href="#j" transform="matrix(1,0,0,1,212,227.2) translate(230.62065972222226 63.61631944444444)"/><path d="M780 166c0-3.3 2.7-6 6-6h448c3.3 0 6 2.7 6 6v183c0 3.3-2.7 6-6 6H786c-3.3 0-6-2.7-6-6z" stroke="#fff" stroke-width="3" fill-opacity="0"/><path d="M780 202.04h460m-460 63.54h460" stroke="#fff" stroke-width="3" fill="none"/><use xlink:href="#k" transform="matrix(1,0,0,1,788,168) translate(180.80533854166669 21.09548611111111)"/><use xlink:href="#e" transform="matrix(1,0,0,1,792,273.5833333333333) translate(0 31.57465277777778)"/><use xlink:href="#l" transform="matrix(1,0,0,1,792,273.5833333333333) translate(18.098958333333332 31.57465277777778)"/><use xlink:href="#g" transform="matrix(1,0,0,1,792,273.5833333333333) translate(302.3220486111111 31.57465277777778)"/><use xlink:href="#m" transform="matrix(1,0,0,1,792,273.5833333333333) translate(313.20529513888886 31.57465277777778)"/><use xlink:href="#e" transform="matrix(1,0,0,1,792,273.5833333333333) translate(0 57.61631944444444)"/><use xlink:href="#n" transform="matrix(1,0,0,1,792,273.5833333333333) translate(18.098958333333332 57.61631944444444)"/><use xlink:href="#g" transform="matrix(1,0,0,1,792,273.5833333333333) translate(302.3220486111111 57.61631944444444)"/><use xlink:href="#o" transform="matrix(1,0,0,1,792,273.5833333333333) translate(313.20529513888886 57.61631944444444)"/><path d="M300 486c0-3.3 2.7-6 6-6h148c3.3 0 6 2.7 6 6v48c0 3.3-2.7 6-6 6H306c-3.3 0-6-2.7-6-6z" stroke="#fff" stroke-width="3" fill-opacity="0"/><use xlink:href="#p" transform="matrix(1,0,0,1,308,488) translate(43.728515625 29.59548611111111)"/><path d="M780 486c0-3.3 2.7-6 6-6h148c3.3 0 6 2.7 6 6v48c0 3.3-2.7 6-6 6H786c-3.3 0-6-2.7-6-6z" stroke="#fff" stroke-width="3" fill-opacity="0"/><use xlink:href="#q" transform="matrix(1,0,0,1,788,488) translate(32.932074652777786 29.59548611111111)"/><path d="M462.5 510h3.04m4.05 0h6.08m4.05 0h6.08m4.06 0h6.1m4.04 0h6.08m4.05 0h6.08m4.07 0h6.08m4.05 0h6.08m4.06 0h6.08m4.05 0h6.08m4.06 0h6.1m4.04 0h6.08m4.06 0h6.08m4.05 0h6.1m4.05 0h6.08m4.05 0h6.08m4.06 0h6.08m4.05 0h6.08m4.06 0h6.07m4.05 0h6.08m4.06 0h6.08m4.05 0h6.07m4.06 0h6.08m4.06 0h6.08m4.06 0h6.08m4.05 0h6.08m4.07 0h6.08m4.05 0h6.08m4.06 0h6.08m4.05 0h6.08m4.06 0h6.1m4.04 0h3.04" stroke="#fff" stroke-width="2" fill="none"/><path d="M462.53 511h-1.03v-2h1.03z" stroke="#fff" stroke-width=".05" fill="#fff"/><path d="M759.32 520.18L776.54 510l-17.22-10.18M942.5 510h61.5c3.3 0 6-2.7 6-6V358.32" stroke="#fff" stroke-width="2" fill="none"/><path d="M942.53 511h-1.03v-2h1.03z" stroke="#fff" stroke-width=".05" fill="#fff"/><path d="M1020.18 375.68L1010 358.46l-10.18 17.22M860 477.5v-3.06m0-4.1v-6.12m0-4.08V454m0-4.08v-6.13m0-4.1v-6.12m0-4.1v-6.12m0-4.08v-6.13m0-4.1V406l-.73-2.7m-2.57-2.57L854 400h-3m-3.97 0h-5.97m-4 0h-5.96m-4 0h-5.96m-3.98 0h-5.98m-3.98 0h-5.97m-4 0h-5.96m-3.98 0h-6m-3.97 0h-5.98m-3.98 0h-5.97m-4 0h-5.96m-3.98 0h-5.98m-3.98 0h-5.98m-3.98 0h-5.97m-4 0h-5.96m-3.97 0h-5.98m-3.98 0h-5.98m-4 0h-5.96m-4 0h-5.96m-3.98 0h-5.98m-3.98 0h-5.98m-3.98 0h-5.97m-3.98 0h-5.97m-3.98 0H622m-4 0h-5.97m-3.98 0h-5.97m-4 0h-5.96m-3.98 0h-5.98m-3.98 0h-5.98m-3.98 0h-5.97m-4 0h-5.96m-4 0h-5.97m-3.98 0h-5.98m-3.98 0h-5.98m-4 0h-5.96m-3.98 0h-5.98m-3.98 0h-5.98m-3.98 0h-5.97m-4 0h-5.97m-3.98 0h-5.98m-3.98 0h-6m-3.97 0h-5.97m-4 0h-5.96m-3.98 0h-5.98m-3.98 0h-5.97m-4 0h-5.97m-4 0h-5.96m-3.98 0h-3l-2.7-.73m-2.57-2.57L380 394v-2.88m0-3.84v-5.76m0-3.85v-5.76m0-3.83v-5.76m0-3.83v-5.76m0-3.84v-2.88" stroke="#fff" stroke-width="2" fill="none"/><path d="M861 478.5h-2v-1.03h2z" stroke="#fff" stroke-width=".05" fill="#fff"/><path d="M380 323.46l12.73 21.52h-25.46z" stroke="#fff" stroke-width="2" fill="#fff"/><path d="M230.67 322.5V504c0 3.3 2.68 6 6 6h60.83" stroke="#fff" stroke-width="2" fill="none"/><path d="M231.67 322.53h-2v-1.03h2zM298.5 511h-1.03v-2h1.03z" stroke="#fff" stroke-width=".05" fill="#fff"/><path d="M120 580h240v60H120z" fill="none"/><use xlink:href="#r" transform="matrix(1,0,0,1,120,580) translate(0 40.63368055555556)"/><use xlink:href="#b" transform="matrix(1,0,0,1,120,580) translate(85.02387152777776 40.63368055555556)"/><path d="M200 666c0-3.3 2.7-6 6-6h348c3.3 0 6 2.7 6 6v148c0 3.3-2.7 6-6 6H206c-3.3 0-6-2.7-6-6z" stroke="#fff" stroke-width="3" fill-opacity="0"/><path d="M200 719.2h360" stroke="#fff" stroke-width="3" fill="none"/><use xlink:href="#c" transform="matrix(1,0,0,1,208,668) translate(113.57499999999999 14.799999999999999)"/><use xlink:href="#d" transform="matrix(1,0,0,1,208,668) translate(109.64999999999999 36.4)"/><use xlink:href="#e" transform="matrix(1,0,0,1,212,727.2) translate(0 37.57465277777778)"/><use xlink:href="#f" transform="matrix(1,0,0,1,212,727.2) translate(18.098958333333332 37.57465277777778)"/><use xlink:href="#g" transform="matrix(1,0,0,1,212,727.2) translate(219.73741319444449 37.57465277777778)"/><use xlink:href="#h" transform="matrix(1,0,0,1,212,727.2) translate(230.62065972222226 37.57465277777778)"/><use xlink:href="#e" transform="matrix(1,0,0,1,212,727.2) translate(0 63.61631944444444)"/><use xlink:href="#i" transform="matrix(1,0,0,1,212,727.2) translate(18.098958333333332 63.61631944444444)"/><use xlink:href="#g" transform="matrix(1,0,0,1,212,727.2) translate(219.73741319444449 63.61631944444444)"/><use xlink:href="#j" transform="matrix(1,0,0,1,212,727.2) translate(230.62065972222226 63.61631944444444)"/><path d="M780 666c0-3.3 2.7-6 6-6h448c3.3 0 6 2.7 6 6v183c0 3.3-2.7 6-6 6H786c-3.3 0-6-2.7-6-6z" stroke="#fff" stroke-width="3" fill-opacity="0"/><path d="M780 702.04h460m-460 63.54h460" stroke="#fff" stroke-width="3" fill="none"/><g><use xlink:href="#k" transform="matrix(1,0,0,1,788,668) translate(180.80533854166669 21.09548611111111)"/></g><g><use xlink:href="#e" transform="matrix(1,0,0,1,792,773.5833333333333) translate(0 31.57465277777778)"/><use xlink:href="#l" transform="matrix(1,0,0,1,792,773.5833333333333) translate(18.098958333333332 31.57465277777778)"/><use xlink:href="#g" transform="matrix(1,0,0,1,792,773.5833333333333) translate(302.3220486111111 31.57465277777778)"/><use xlink:href="#m" transform="matrix(1,0,0,1,792,773.5833333333333) translate(313.20529513888886 31.57465277777778)"/><use xlink:href="#e" transform="matrix(1,0,0,1,792,773.5833333333333) translate(0 57.61631944444444)"/><use xlink:href="#n" transform="matrix(1,0,0,1,792,773.5833333333333) translate(18.098958333333332 57.61631944444444)"/><use xlink:href="#g" transform="matrix(1,0,0,1,792,773.5833333333333) translate(302.3220486111111 57.61631944444444)"/><use xlink:href="#o" transform="matrix(1,0,0,1,792,773.5833333333333) translate(313.20529513888886 57.61631944444444)"/></g><path d="M300 986c0-3.3 2.7-6 6-6h148c3.3 0 6 2.7 6 6v48c0 3.3-2.7 6-6 6H306c-3.3 0-6-2.7-6-6z" stroke="#fff" stroke-width="3" fill-opacity="0"/><g><use xlink:href="#p" transform="matrix(1,0,0,1,308,988) translate(43.728515625 29.59548611111111)"/></g><path d="M780 986c0-3.3 2.7-6 6-6h148c3.3 0 6 2.7 6 6v48c0 3.3-2.7 6-6 6H786c-3.3 0-6-2.7-6-6z" stroke="#fff" stroke-width="3" fill-opacity="0"/><g><use xlink:href="#q" transform="matrix(1,0,0,1,788,988) translate(32.932074652777786 29.59548611111111)"/></g><path d="M462.5 1010h3.04m4.05 0h6.08m4.05 0h6.08m4.06 0h6.1m4.04 0h6.08m4.05 0h6.08m4.07 0h6.08m4.05 0h6.08m4.06 0h6.08m4.05 0h6.08m4.06 0h6.1m4.04 0h6.08m4.06 0h6.08m4.05 0h6.1m4.05 0h6.08m4.05 0h6.08m4.06 0h6.08m4.05 0h6.08m4.06 0h6.07m4.05 0h6.08m4.06 0h6.08m4.05 0h6.07m4.06 0h6.08m4.06 0h6.08m4.06 0h6.08m4.05 0h6.08m4.07 0h6.08m4.05 0h6.08m4.06 0h6.08m4.05 0h6.08m4.06 0h6.1m4.04 0h3.04" stroke="#fff" stroke-width="2" fill="none"/><path d="M462.53 1011h-1.03v-2h1.03z" stroke="#fff" stroke-width=".05" fill="#fff"/><path d="M759.32 1020.18l17.22-10.18-17.22-10.18M888 977.5V916c0-3.3 2.7-6 6-6h110c3.3 0 6-2.7 6-6v-23.02" stroke="#fff" stroke-width="2" fill="none"/><path d="M889 978.5h-2v-1.03h2z" stroke="#fff" stroke-width=".05" fill="#fff"/><path d="M1010 858.46l12.73 21.52h-25.46z" stroke="#fff" stroke-width="2" fill="#fff"/><path d="M820.44 977.5v-3.08m0-4.1v-6.15m0-4.1v-6.15m0-4.1v-6.15m0-4.1v-6.15m0-4.1v-6.15m0-4.1V916l-.73-2.7m-2.56-2.57l-2.7-.73h-2.98m-4 0h-5.97m-4 0h-5.97m-4 0h-5.97m-3.98 0h-5.98m-4 0h-5.96m-4 0h-5.97m-3.98 0h-6m-3.98 0h-5.98m-3.98 0h-5.98m-3.98 0h-5.98m-4 0h-5.97m-3.98 0h-5.98m-4 0h-5.97m-4 0h-5.97m-3.98 0H662m-4 0h-5.97m-3.98 0h-5.98m-4 0h-5.96m-3.98 0h-5.98m-3.98 0h-5.98m-4 0h-5.96m-4 0h-5.97m-3.98 0h-5.98m-4 0h-5.98m-3.98 0h-5.98m-4 0h-5.96m-4 0h-5.97m-3.98 0h-5.98m-4 0h-5.97m-3.98 0h-5.98m-3.98 0h-5.98m-4 0h-5.97m-3.97 0h-5.98m-4 0h-5.96m-4 0h-5.98m-3.98 0h-5.98m-4 0h-5.97m-4 0h-5.97m-4 0h-5.96m-4 0h-5.97m-3.98 0h-5.98m-4 0h-5.97m-3.98 0h-3l-2.7-.73m-2.57-2.57L380 904v-2.9m0-3.87v-5.8m0-3.87v-5.8m0-3.87v-5.8m0-3.88v-5.8m0-3.87v-5.8m0-3.87v-2.9" stroke="#fff" stroke-width="2" fill="none"/><path d="M821.44 978.5h-2v-1.03h2z" stroke="#fff" stroke-width=".05" fill="#fff"/><path d="M380 823.46l12.73 21.52h-25.46z" stroke="#fff" stroke-width="2" fill="#fff"/><path d="M230.67 822.5V1004c0 3.3 2.68 6 6 6h60.83" stroke="#fff" stroke-width="2" fill="none"/><path d="M231.67 822.53h-2v-1.03h2zM298.5 1011h-1.03v-2h1.03z" stroke="#fff" stroke-width=".05" fill="#fff"/><defs><path fill="#fc9432" d="M1248-1138c106 220 104 603 2 820-91 195-274 338-542 338C281 20 86-300 86-759c0-291 115-515 296-629 182-114 467-115 648 0 94 60 166 141 218 250zM940-344c111-153 110-617 0-765-57-77-133-119-234-119s-177 41-233 118c-64 88-83 240-83 415 0 149 27 264 82 346s133 123 236 123c101 0 176-40 232-118" id="s"/><path fill="#fc9432" d="M663-1102c295 0 423 246 423 571 0 313-131 551-421 551-117 0-211-45-281-135L371 0H111v-1536h289v551c67-78 154-117 263-117zm-71 889c164 0 209-139 205-339-3-189-44-315-207-315-92 0-155 38-190 113v427c35 76 99 114 192 114" id="t"/><path fill="#fc9432" d="M417 59c1 237-132 380-369 378-50 0-98-6-143-17V191c122 27 222 1 222-130v-1143h290V59zM266-1212c-92 0-162-61-162-150s68-149 162-149 162 60 162 149-70 150-162 150" id="u"/><path fill="#fc9432" d="M1031-175C952-60 797 20 609 20 287 20 60-206 72-543c12-330 180-559 505-559 309 0 482 214 477 537v118H365c15 134 115 234 263 234 111 0 198-40 261-121zM770-644c5-139-62-226-194-224-130 1-191 97-208 224h402" id="v"/><path fill="#fc9432" d="M355-556c-2 203 30 338 206 343 102 3 181-63 182-161h271C1001-128 821 17 566 20 242 24 66-212 66-554c0-320 184-548 498-548 262 0 451 167 450 423H743c-1-108-75-193-184-189-162 6-202 123-204 312" id="w"/><path fill="#fc9432" d="M457-330c2 83 25 111 111 112 32 0 60-2 85-7V-6c-57 17-115 26-175 26-203 0-310-102-310-307v-583H10v-212h158v-266h289v266h185v212H457v540" id="x"/><g id="a"><use transform="matrix(0.015190972222222219,0,0,0.015190972222222219,0,0)" xlink:href="#s"/><use transform="matrix(0.015190972222222219,0,0,0.015190972222222219,21.480034722222218,0)" xlink:href="#t"/><use transform="matrix(0.015190972222222219,0,0,0.015190972222222219,38.995225694444436,0)" xlink:href="#u"/><use transform="matrix(0.015190972222222219,0,0,0.015190972222222219,47.07682291666666,0)" xlink:href="#v"/><use transform="matrix(0.015190972222222219,0,0,0.015190972222222219,63.89322916666665,0)" xlink:href="#w"/><use transform="matrix(0.015190972222222219,0,0,0.015190972222222219,80.11718749999999,0)" xlink:href="#x"/></g><path fill="#fc9432" d="M952-300H426L326 0H7l542-1456h278L1372 0h-319zM507-543h364l-183-545" id="y"/><path fill="#fc9432" d="M488 20C204 20 66-234 66-549c0-305 140-551 424-553 105 0 192 39 261 118v-552h290V0H780l-14-115C694-25 601 20 488 20zM355-528c0 176 51 314 207 314 89 0 152-38 189-113v-427c-36-75-98-113-187-113-139 0-209 113-209 339" id="z"/><path fill="#fc9432" d="M552-1102c254-4 435 134 435 383v469c1 103 15 180 43 233V0H738c-13-26-23-58-29-97C639-19 548 20 436 20 238 20 64-113 68-304c5-258 212-357 496-357h133c11-137-29-227-160-227-90 0-156 45-156 131H92c15-231 213-342 460-345zM357-325c0 76 61 124 142 124 88 0 168-45 198-105v-186H589c-152 2-232 51-232 167" id="A"/><path fill="#fc9432" d="M663-1102c295 0 422 250 422 571 0 300-141 549-420 551-109 0-198-38-265-114v510H111v-1498h268l10 106c70-84 161-126 274-126zm133 550c0-175-53-315-209-315-91 0-153 35-187 104v443c35 71 98 107 189 107 138 0 207-113 207-339" id="B"/><path fill="#fc9432" d="M719-811c-143-24-279 1-319 103V0H111v-1082h273l8 129c74-124 180-175 331-136" id="C"/><g id="b"><use transform="matrix(0.015190972222222219,0,0,0.015190972222222219,0,0)" xlink:href="#y"/><use transform="matrix(0.015190972222222219,0,0,0.015190972222222219,20.933159722222218,0)" xlink:href="#z"/><use transform="matrix(0.015190972222222219,0,0,0.015190972222222219,38.46354166666666,0)" xlink:href="#A"/><use transform="matrix(0.015190972222222219,0,0,0.015190972222222219,55.14322916666666,0)" xlink:href="#B"/><use transform="matrix(0.015190972222222219,0,0,0.015190972222222219,72.65842013888887,0)" xlink:href="#x"/><use transform="matrix(0.015190972222222219,0,0,0.015190972222222219,83.17057291666664,0)" xlink:href="#v"/><use transform="matrix(0.015190972222222219,0,0,0.015190972222222219,99.98697916666664,0)" xlink:href="#C"/></g><path fill="#fff" d="M15-91v-56l181-69v40L49-119l147 57v40" id="D"/><path fill="#fff" d="M25-224v-37h50v37H25zM25 0v-190h50V0H25" id="E"/><path fill="#fff" d="M135-194c87-1 58 113 63 194h-50c-7-57 23-157-34-157-59 0-34 97-39 157H25l-1-190h47c2 12-1 28 3 38 12-26 28-41 61-42" id="F"/><path fill="#fff" d="M115-3C79 11 28 4 28-45v-112H4v-33h27l15-45h31v45h36v33H77v99c-1 23 16 31 38 25v30" id="G"/><path fill="#fff" d="M185-48c-13 30-37 53-82 52C43 2 14-33 14-96s30-98 90-98c62 0 83 45 84 108H66c0 31 8 55 39 56 18 0 30-7 34-22zm-45-69c5-46-57-63-70-21-2 6-4 13-4 21h74" id="H"/><path fill="#fff" d="M135-150c-39-12-60 13-60 57V0H25l-1-190h47c2 13-1 29 3 40 6-28 27-53 61-41v41" id="I"/><path fill="#fff" d="M121-226c-27-7-43 5-38 36h38v33H83V0H34v-157H6v-33h28c-9-59 32-81 87-68v32" id="J"/><path fill="#fff" d="M133-34C117-15 103 5 69 4 32 3 11-16 11-54c-1-60 55-63 116-61 1-26-3-47-28-47-18 1-26 9-28 27l-52-2c7-38 36-58 82-57s74 22 75 68l1 82c-1 14 12 18 25 15v27c-30 8-71 5-69-32zm-48 3c29 0 43-24 42-57-32 0-66-3-65 30 0 17 8 27 23 27" id="K"/><path fill="#fff" d="M190-63c-7 42-38 67-86 67-59 0-84-38-90-98-12-110 154-137 174-36l-49 2c-2-19-15-32-35-32-30 0-35 28-38 64-6 74 65 87 74 30" id="L"/><path fill="#fff" d="M15-22v-40l146-57-146-57v-40l181 69v56" id="M"/><g id="c"><use transform="matrix(0.05,0,0,0.05,0,0)" xlink:href="#D"/><use transform="matrix(0.05,0,0,0.05,10.5,0)" xlink:href="#D"/><use transform="matrix(0.05,0,0,0.05,21,0)" xlink:href="#E"/><use transform="matrix(0.05,0,0,0.05,26,0)" xlink:href="#F"/><use transform="matrix(0.05,0,0,0.05,36.95,0)" xlink:href="#G"/><use transform="matrix(0.05,0,0,0.05,42.900000000000006,0)" xlink:href="#H"/><use transform="matrix(0.05,0,0,0.05,52.900000000000006,0)" xlink:href="#I"/><use transform="matrix(0.05,0,0,0.05,59.900000000000006,0)" xlink:href="#J"/><use transform="matrix(0.05,0,0,0.05,65.85000000000001,0)" xlink:href="#K"/><use transform="matrix(0.05,0,0,0.05,75.85000000000001,0)" xlink:href="#L"/><use transform="matrix(0.05,0,0,0.05,85.85000000000001,0)" xlink:href="#H"/><use transform="matrix(0.05,0,0,0.05,95.85000000000001,0)" xlink:href="#M"/><use transform="matrix(0.05,0,0,0.05,106.35000000000001,0)" xlink:href="#M"/></g><path fill="#fff" d="M67-125c0 53 21 87 73 88 37 1 54-22 65-47l45 17C233-25 199 4 140 4 58 4 20-42 15-125 8-235 124-281 211-232c18 10 29 29 36 50l-46 12c-8-25-30-41-62-41-52 0-71 34-72 86" id="N"/><path fill="#fff" d="M25 0v-261h50V0H25" id="O"/><path fill="#fff" d="M24 0v-248h52V0H24" id="P"/><g id="d"><use transform="matrix(0.05,0,0,0.05,0,0)" xlink:href="#N"/><use transform="matrix(0.05,0,0,0.05,12.950000000000001,0)" xlink:href="#O"/><use transform="matrix(0.05,0,0,0.05,17.950000000000003,0)" xlink:href="#E"/><use transform="matrix(0.05,0,0,0.05,22.950000000000003,0)" xlink:href="#H"/><use transform="matrix(0.05,0,0,0.05,32.95,0)" xlink:href="#F"/><use transform="matrix(0.05,0,0,0.05,43.900000000000006,0)" xlink:href="#G"/><use transform="matrix(0.05,0,0,0.05,49.85000000000001,0)" xlink:href="#P"/><use transform="matrix(0.05,0,0,0.05,54.85,0)" xlink:href="#F"/><use transform="matrix(0.05,0,0,0.05,65.80000000000001,0)" xlink:href="#G"/><use transform="matrix(0.05,0,0,0.05,71.75000000000001,0)" xlink:href="#H"/><use transform="matrix(0.05,0,0,0.05,81.75000000000001,0)" xlink:href="#I"/><use transform="matrix(0.05,0,0,0.05,88.75000000000001,0)" xlink:href="#J"/><use transform="matrix(0.05,0,0,0.05,94.70000000000002,0)" xlink:href="#K"/><use transform="matrix(0.05,0,0,0.05,104.7,0)" xlink:href="#L"/><use transform="matrix(0.05,0,0,0.05,114.7,0)" xlink:href="#H"/></g><path fill="#fff" d="M670-781h406v175H670v460H484v-460H78v-175h406v-425h186v425" id="Q"/><use transform="matrix(0.010850694444444444,0,0,0.010850694444444444,0,0)" xlink:href="#Q" id="e"/><path fill="#fff" d="M584 20C278 26 81-227 91-551c10-320 175-545 491-551 308-5 503 247 494 573-9 322-175 543-492 549zm-2-970c-208 0-305 185-305 421 0 216 106 398 307 398 211 0 307-186 307-420 0-214-109-399-309-399" id="R"/><path fill="#fff" d="M632-1102c291 0 422 251 422 573 0 297-141 548-419 549-131 0-235-42-310-125v521H140v-1498h169l9 120c75-93 180-140 314-140zm-53 971c207 0 290-180 290-419 0-218-92-395-292-395-112 0-196 50-252 149v517c55 99 140 148 254 148" id="S"/><path fill="#fff" d="M599-131c141 0 220-65 285-146l113 88C906-50 770 20 589 20 281 21 93-214 93-545c0-223 93-397 233-485 74-48 154-72 240-72 300 2 449 218 445 537v77H278c0 197 129 357 321 357zm227-509c-3-180-88-310-260-310-170 0-264 140-282 310h542" id="T"/><path fill="#fff" d="M663-916c-163-27-288 18-338 148V0H140v-1082h180l3 125c61-97 147-145 258-145 36 0 63 5 82 14v172" id="U"/><path fill="#fff" d="M561-1102c238-4 403 126 403 351v498c0 99 13 178 38 237V0H808c-11-21-19-59-26-114C696-25 593 20 474 20c-199 0-368-130-365-320 4-251 214-359 490-356h180v-85c-1-135-86-212-229-212-115 0-232 67-233 171H131c20-205 206-316 430-320zM294-326c0 117 90 185 207 185 122 0 239-75 278-162v-222H634c-227 0-340 66-340 199" id="V"/><path fill="#fff" d="M456 20C285 20 205-92 206-268v-671H9v-143h197v-262h185v262h202v143H391v671c-9 125 92 149 207 118V0c-49 13-96 20-142 20" id="W"/><path fill="#fff" d="M341 0H156v-1082h185V0zm-91-1264c-68 0-108-42-109-105 0-62 41-107 109-107s110 44 110 107-42 105-110 105" id="X"/><path fill="#fff" d="M589-945c-131 0-219 81-264 174V0H140v-1082h175l6 136c83-104 191-156 324-156 229 0 346 129 346 387V0H806v-716c-2-153-65-229-217-229" id="Y"/><path fill="#fff" d="M729 0H543v-1233l-373 137v-168l530-199h29V0" id="Z"/><path fill="#fff" d="M319-664C304-226 428 158 661 357l-38 113c-89-49-172-133-254-248C142-97 71-578 194-1025c67-244 240-513 429-618l38 122c-201 153-330 502-342 857" id="aa"/><path fill="#fff" d="M1240-945c-141 0-250 95-250 227V0H804v-709c0-157-77-236-231-236-121 0-204 52-249 155V0H139v-1082h175l5 120c79-93 186-140 321-140 151 0 254 58 309 174 69-98 181-174 345-174 237 0 362 126 362 377V0h-185v-714c-2-159-67-231-231-231" id="ab"/><path fill="#fff" d="M538-131c121 0 232-49 232-156 0-50-20-88-56-117-73-60-334-92-420-143-92-55-162-110-162-238 0-190 192-317 400-317 223 0 414 129 413 338H759c0-108-110-186-227-186-119 0-215 53-215 159 0 45 18 78 53 101 76 52 331 90 416 139 98 57 169 115 169 251C955-92 760 20 538 20c-176 0-314-68-386-174-38-55-57-115-57-179h185c6 129 116 202 258 202" id="ac"/><path fill="#fff" d="M38 357C331 141 457-487 337-984c-53-219-157-429-299-546l39-113c190 106 362 378 431 621 75 268 76 597 0 868C440 88 266 365 77 470" id="ad"/><g id="f"><use transform="matrix(0.010850694444444444,0,0,0.010850694444444444,0,0)" xlink:href="#R"/><use transform="matrix(0.010850694444444444,0,0,0.010850694444444444,12.67361111111111,0)" xlink:href="#S"/><use transform="matrix(0.010850694444444444,0,0,0.010850694444444444,25.14105902777778,0)" xlink:href="#T"/><use transform="matrix(0.010850694444444444,0,0,0.010850694444444444,36.9140625,0)" xlink:href="#U"/><use transform="matrix(0.010850694444444444,0,0,0.010850694444444444,43.99956597222222,0)" xlink:href="#V"/><use transform="matrix(0.010850694444444444,0,0,0.010850694444444444,56.08723958333333,0)" xlink:href="#W"/><use transform="matrix(0.010850694444444444,0,0,0.010850694444444444,63.346354166666664,0)" xlink:href="#X"/><use transform="matrix(0.010850694444444444,0,0,0.010850694444444444,68.73914930555556,0)" xlink:href="#R"/><use transform="matrix(0.010850694444444444,0,0,0.010850694444444444,81.41276041666667,0)" xlink:href="#Y"/><use transform="matrix(0.010850694444444444,0,0,0.010850694444444444,93.67404513888889,0)" xlink:href="#Z"/><use transform="matrix(0.010850694444444444,0,0,0.010850694444444444,106.15234375,0)" xlink:href="#aa"/><use transform="matrix(0.010850694444444444,0,0,0.010850694444444444,113.7478298611111,0)" xlink:href="#S"/><use transform="matrix(0.010850694444444444,0,0,0.010850694444444444,126.2152777777778,0)" xlink:href="#V"/><use transform="matrix(0.010850694444444444,0,0,0.010850694444444444,138.30295138888889,0)" xlink:href="#U"/><use transform="matrix(0.010850694444444444,0,0,0.010850694444444444,145.38845486111111,0)" xlink:href="#V"/><use transform="matrix(0.010850694444444444,0,0,0.010850694444444444,157.47612847222223,0)" xlink:href="#ab"/><use transform="matrix(0.010850694444444444,0,0,0.010850694444444444,176.953125,0)" xlink:href="#ac"/><use transform="matrix(0.010850694444444444,0,0,0.010850694444444444,188.41145833333331,0)" xlink:href="#ad"/></g><path fill="#fff" d="M248 11c-71 0-114-43-114-108 0-67 42-112 114-112s116 45 116 112c-1 65-45 108-116 108zm1-883c-71 0-114-43-114-108 0-67 42-112 114-112s116 45 116 112c-1 65-45 108-116 108" id="ae"/><use transform="matrix(0.010850694444444444,0,0,0.010850694444444444,0,0)" xlink:href="#ae" id="g"/><path fill="#fff" d="M1175-1298H707V0H516v-1298H49v-158h1126v158" id="af"/><path fill="#fff" d="M494-271l252-811h198L509 167C425 381 299 474 84 421V271c167 16 242-37 283-173l41-110L22-1082h202" id="ag"/><g id="h"><use transform="matrix(0.010850694444444444,0,0,0.010850694444444444,0,0)" xlink:href="#af"/><use transform="matrix(0.010850694444444444,0,0,0.010850694444444444,12.47829861111111,0)" xlink:href="#ag"/><use transform="matrix(0.010850694444444444,0,0,0.010850694444444444,22.99262152777778,0)" xlink:href="#S"/><use transform="matrix(0.010850694444444444,0,0,0.010850694444444444,35.46006944444444,0)" xlink:href="#T"/><use transform="matrix(0.010850694444444444,0,0,0.010850694444444444,47.233072916666664,0)" xlink:href="#Z"/></g><path fill="#fff" d="M569-1476c255 0 440 146 439 390 0 143-91 314-274 512L344-151h731V0H121v-133l504-560c75-85 125-155 155-207 105-184 6-424-211-424-183 0-293 113-291 297H93c-3-270 199-449 476-449" id="ah"/><g id="i"><use transform="matrix(0.010850694444444444,0,0,0.010850694444444444,0,0)" xlink:href="#R"/><use transform="matrix(0.010850694444444444,0,0,0.010850694444444444,12.67361111111111,0)" xlink:href="#S"/><use transform="matrix(0.010850694444444444,0,0,0.010850694444444444,25.14105902777778,0)" xlink:href="#T"/><use transform="matrix(0.010850694444444444,0,0,0.010850694444444444,36.9140625,0)" xlink:href="#U"/><use transform="matrix(0.010850694444444444,0,0,0.010850694444444444,43.99956597222222,0)" xlink:href="#V"/><use transform="matrix(0.010850694444444444,0,0,0.010850694444444444,56.08723958333333,0)" xlink:href="#W"/><use transform="matrix(0.010850694444444444,0,0,0.010850694444444444,63.346354166666664,0)" xlink:href="#X"/><use transform="matrix(0.010850694444444444,0,0,0.010850694444444444,68.73914930555556,0)" xlink:href="#R"/><use transform="matrix(0.010850694444444444,0,0,0.010850694444444444,81.41276041666667,0)" xlink:href="#Y"/><use transform="matrix(0.010850694444444444,0,0,0.010850694444444444,93.67404513888889,0)" xlink:href="#ah"/><use transform="matrix(0.010850694444444444,0,0,0.010850694444444444,106.15234375,0)" xlink:href="#aa"/><use transform="matrix(0.010850694444444444,0,0,0.010850694444444444,113.7478298611111,0)" xlink:href="#S"/><use transform="matrix(0.010850694444444444,0,0,0.010850694444444444,126.2152777777778,0)" xlink:href="#V"/><use transform="matrix(0.010850694444444444,0,0,0.010850694444444444,138.30295138888889,0)" xlink:href="#U"/><use transform="matrix(0.010850694444444444,0,0,0.010850694444444444,145.38845486111111,0)" xlink:href="#V"/><use transform="matrix(0.010850694444444444,0,0,0.010850694444444444,157.47612847222223,0)" xlink:href="#ab"/><use transform="matrix(0.010850694444444444,0,0,0.010850694444444444,176.953125,0)" xlink:href="#ac"/><use transform="matrix(0.010850694444444444,0,0,0.010850694444444444,188.41145833333331,0)" xlink:href="#ad"/></g><g id="j"><use transform="matrix(0.010850694444444444,0,0,0.010850694444444444,0,0)" xlink:href="#af"/><use transform="matrix(0.010850694444444444,0,0,0.010850694444444444,12.47829861111111,0)" xlink:href="#ag"/><use transform="matrix(0.010850694444444444,0,0,0.010850694444444444,22.99262152777778,0)" xlink:href="#S"/><use transform="matrix(0.010850694444444444,0,0,0.010850694444444444,35.46006944444444,0)" xlink:href="#T"/><use transform="matrix(0.010850694444444444,0,0,0.010850694444444444,47.233072916666664,0)" xlink:href="#ah"/></g><path fill="#fff" d="M973-380H363L226 0H28l556-1456h168L1309 0h-197zM421-538h495l-248-681" id="ai"/><path fill="#fff" d="M520 20C244 20 95-247 95-550c0-298 151-550 427-552 127 0 227 43 301 130v-564h185V0H838l-9-116C755-25 652 20 520 20zm48-965c-210 0-288 177-288 416 0 218 87 392 286 392 117 0 203-53 257-158v-497c-55-102-140-153-255-153" id="aj"/><g id="k"><use transform="matrix(0.010850694444444444,0,0,0.010850694444444444,0,0)" xlink:href="#ai"/><use transform="matrix(0.010850694444444444,0,0,0.010850694444444444,14.496527777777777,0)" xlink:href="#aj"/><use transform="matrix(0.010850694444444444,0,0,0.010850694444444444,27.029079861111104,0)" xlink:href="#V"/><use transform="matrix(0.010850694444444444,0,0,0.010850694444444444,39.116753472222214,0)" xlink:href="#S"/><use transform="matrix(0.010850694444444444,0,0,0.010850694444444444,51.58420138888888,0)" xlink:href="#W"/><use transform="matrix(0.010850694444444444,0,0,0.010850694444444444,58.84331597222221,0)" xlink:href="#T"/><use transform="matrix(0.010850694444444444,0,0,0.010850694444444444,70.61631944444443,0)" xlink:href="#T"/></g><path fill="#fff" d="M703-1476c426 0 599 333 586 795-11 408-187 701-584 701-422 0-587-333-587-793 0-282 106-507 280-617 89-56 190-86 305-86zm2 1333c312 0 393-279 393-632 0-308-116-536-395-536-269 0-394 232-394 523v107c-4 298 123 538 396 538" id="ak"/><g id="l"><use transform="matrix(0.010850694444444444,0,0,0.010850694444444444,0,0)" xlink:href="#V"/><use transform="matrix(0.010850694444444444,0,0,0.010850694444444444,12.08767361111111,0)" xlink:href="#aj"/><use transform="matrix(0.010850694444444444,0,0,0.010850694444444444,24.620225694444443,0)" xlink:href="#V"/><use transform="matrix(0.010850694444444444,0,0,0.010850694444444444,36.70789930555556,0)" xlink:href="#S"/><use transform="matrix(0.010850694444444444,0,0,0.010850694444444444,49.17534722222222,0)" xlink:href="#W"/><use transform="matrix(0.010850694444444444,0,0,0.010850694444444444,56.43446180555555,0)" xlink:href="#T"/><use transform="matrix(0.010850694444444444,0,0,0.010850694444444444,68.20746527777777,0)" xlink:href="#T"/><use transform="matrix(0.010850694444444444,0,0,0.010850694444444444,79.98046875,0)" xlink:href="#ak"/><use transform="matrix(0.010850694444444444,0,0,0.010850694444444444,95.25824652777777,0)" xlink:href="#S"/><use transform="matrix(0.010850694444444444,0,0,0.010850694444444444,107.72569444444444,0)" xlink:href="#T"/><use transform="matrix(0.010850694444444444,0,0,0.010850694444444444,119.49869791666666,0)" xlink:href="#U"/><use transform="matrix(0.010850694444444444,0,0,0.010850694444444444,126.58420138888889,0)" xlink:href="#V"/><use transform="matrix(0.010850694444444444,0,0,0.010850694444444444,138.671875,0)" xlink:href="#W"/><use transform="matrix(0.010850694444444444,0,0,0.010850694444444444,145.93098958333334,0)" xlink:href="#X"/><use transform="matrix(0.010850694444444444,0,0,0.010850694444444444,151.32378472222223,0)" xlink:href="#R"/><use transform="matrix(0.010850694444444444,0,0,0.010850694444444444,163.99739583333334,0)" xlink:href="#Y"/><use transform="matrix(0.010850694444444444,0,0,0.010850694444444444,176.25868055555557,0)" xlink:href="#Z"/><use transform="matrix(0.010850694444444444,0,0,0.010850694444444444,188.73697916666669,0)" xlink:href="#aa"/><use transform="matrix(0.010850694444444444,0,0,0.010850694444444444,196.3324652777778,0)" xlink:href="#S"/><use transform="matrix(0.010850694444444444,0,0,0.010850694444444444,208.79991319444449,0)" xlink:href="#V"/><use transform="matrix(0.010850694444444444,0,0,0.010850694444444444,220.8875868055556,0)" xlink:href="#U"/><use transform="matrix(0.010850694444444444,0,0,0.010850694444444444,227.9730902777778,0)" xlink:href="#V"/><use transform="matrix(0.010850694444444444,0,0,0.010850694444444444,240.0607638888889,0)" xlink:href="#ab"/><use transform="matrix(0.010850694444444444,0,0,0.010850694444444444,259.5377604166667,0)" xlink:href="#ac"/><use transform="matrix(0.010850694444444444,0,0,0.010850694444444444,270.99609375,0)" xlink:href="#ad"/></g><path fill="#fff" d="M631-137c179 0 314-70 314-231 0-71-25-127-75-166s-141-77-272-115c-165-47-285-106-360-175s-112-154-112-255c0-245 231-397 495-397 206 0 369 89 449 218 43 68 65 142 65 223H942c0-184-129-283-321-283-172 0-299 76-301 236 0 59 26 109 76 150s135 78 256 113c205 59 345 116 436 256 35 53 50 119 50 193-2 256-231 398-507 390C333 12 90-129 80-422h193c0 187 160 285 358 285" id="al"/><g id="m"><use transform="matrix(0.010850694444444444,0,0,0.010850694444444444,0,0)" xlink:href="#al"/><use transform="matrix(0.010850694444444444,0,0,0.010850694444444444,13.18359375,0)" xlink:href="#R"/><use transform="matrix(0.010850694444444444,0,0,0.010850694444444444,25.85720486111111,0)" xlink:href="#ab"/><use transform="matrix(0.010850694444444444,0,0,0.010850694444444444,45.334201388888886,0)" xlink:href="#T"/><use transform="matrix(0.010850694444444444,0,0,0.010850694444444444,57.10720486111111,0)" xlink:href="#af"/><use transform="matrix(0.010850694444444444,0,0,0.010850694444444444,69.58550347222221,0)" xlink:href="#ag"/><use transform="matrix(0.010850694444444444,0,0,0.010850694444444444,80.09982638888889,0)" xlink:href="#S"/><use transform="matrix(0.010850694444444444,0,0,0.010850694444444444,92.56727430555556,0)" xlink:href="#T"/><use transform="matrix(0.010850694444444444,0,0,0.010850694444444444,104.34027777777777,0)" xlink:href="#Z"/></g><g id="n"><use transform="matrix(0.010850694444444444,0,0,0.010850694444444444,0,0)" xlink:href="#V"/><use transform="matrix(0.010850694444444444,0,0,0.010850694444444444,12.08767361111111,0)" xlink:href="#aj"/><use transform="matrix(0.010850694444444444,0,0,0.010850694444444444,24.620225694444443,0)" xlink:href="#V"/><use transform="matrix(0.010850694444444444,0,0,0.010850694444444444,36.70789930555556,0)" xlink:href="#S"/><use transform="matrix(0.010850694444444444,0,0,0.010850694444444444,49.17534722222222,0)" xlink:href="#W"/><use transform="matrix(0.010850694444444444,0,0,0.010850694444444444,56.43446180555555,0)" xlink:href="#T"/><use transform="matrix(0.010850694444444444,0,0,0.010850694444444444,68.20746527777777,0)" xlink:href="#T"/><use transform="matrix(0.010850694444444444,0,0,0.010850694444444444,79.98046875,0)" xlink:href="#ak"/><use transform="matrix(0.010850694444444444,0,0,0.010850694444444444,95.25824652777777,0)" xlink:href="#S"/><use transform="matrix(0.010850694444444444,0,0,0.010850694444444444,107.72569444444444,0)" xlink:href="#T"/><use transform="matrix(0.010850694444444444,0,0,0.010850694444444444,119.49869791666666,0)" xlink:href="#U"/><use transform="matrix(0.010850694444444444,0,0,0.010850694444444444,126.58420138888889,0)" xlink:href="#V"/><use transform="matrix(0.010850694444444444,0,0,0.010850694444444444,138.671875,0)" xlink:href="#W"/><use transform="matrix(0.010850694444444444,0,0,0.010850694444444444,145.93098958333334,0)" xlink:href="#X"/><use transform="matrix(0.010850694444444444,0,0,0.010850694444444444,151.32378472222223,0)" xlink:href="#R"/><use transform="matrix(0.010850694444444444,0,0,0.010850694444444444,163.99739583333334,0)" xlink:href="#Y"/><use transform="matrix(0.010850694444444444,0,0,0.010850694444444444,176.25868055555557,0)" xlink:href="#ah"/><use transform="matrix(0.010850694444444444,0,0,0.010850694444444444,188.73697916666669,0)" xlink:href="#aa"/><use transform="matrix(0.010850694444444444,0,0,0.010850694444444444,196.3324652777778,0)" xlink:href="#S"/><use transform="matrix(0.010850694444444444,0,0,0.010850694444444444,208.79991319444449,0)" xlink:href="#V"/><use transform="matrix(0.010850694444444444,0,0,0.010850694444444444,220.8875868055556,0)" xlink:href="#U"/><use transform="matrix(0.010850694444444444,0,0,0.010850694444444444,227.9730902777778,0)" xlink:href="#V"/><use transform="matrix(0.010850694444444444,0,0,0.010850694444444444,240.0607638888889,0)" xlink:href="#ab"/><use transform="matrix(0.010850694444444444,0,0,0.010850694444444444,259.5377604166667,0)" xlink:href="#ac"/><use transform="matrix(0.010850694444444444,0,0,0.010850694444444444,270.99609375,0)" xlink:href="#ad"/></g><g id="o"><use transform="matrix(0.010850694444444444,0,0,0.010850694444444444,0,0)" xlink:href="#al"/><use transform="matrix(0.010850694444444444,0,0,0.010850694444444444,13.18359375,0)" xlink:href="#R"/><use transform="matrix(0.010850694444444444,0,0,0.010850694444444444,25.85720486111111,0)" xlink:href="#ab"/><use transform="matrix(0.010850694444444444,0,0,0.010850694444444444,45.334201388888886,0)" xlink:href="#T"/><use transform="matrix(0.010850694444444444,0,0,0.010850694444444444,57.10720486111111,0)" xlink:href="#af"/><use transform="matrix(0.010850694444444444,0,0,0.010850694444444444,69.58550347222221,0)" xlink:href="#ag"/><use transform="matrix(0.010850694444444444,0,0,0.010850694444444444,80.09982638888889,0)" xlink:href="#S"/><use transform="matrix(0.010850694444444444,0,0,0.010850694444444444,92.56727430555556,0)" xlink:href="#T"/><use transform="matrix(0.010850694444444444,0,0,0.010850694444444444,104.34027777777777,0)" xlink:href="#ah"/></g><path fill="#fff" d="M688-137c238 0 323-102 359-325h193c-32 297-228 482-552 482-361 0-569-299-569-680 0-197 8-360 73-497 88-186 257-317 513-319 316-2 509 195 535 488h-193c-31-212-118-330-342-330-272 0-397 224-393 523v141c-3 282 115 517 376 517" id="am"/><path fill="#fff" d="M341 0H156v-1536h185V0" id="an"/><g id="p"><use transform="matrix(0.010850694444444444,0,0,0.010850694444444444,0,0)" xlink:href="#am"/><use transform="matrix(0.010850694444444444,0,0,0.010850694444444444,14.463975694444445,0)" xlink:href="#an"/><use transform="matrix(0.010850694444444444,0,0,0.010850694444444444,19.856770833333332,0)" xlink:href="#X"/><use transform="matrix(0.010850694444444444,0,0,0.010850694444444444,25.24956597222222,0)" xlink:href="#T"/><use transform="matrix(0.010850694444444444,0,0,0.010850694444444444,37.02256944444444,0)" xlink:href="#Y"/><use transform="matrix(0.010850694444444444,0,0,0.010850694444444444,49.283854166666664,0)" xlink:href="#W"/></g><g id="q"><use transform="matrix(0.010850694444444444,0,0,0.010850694444444444,0,0)" xlink:href="#ai"/><use transform="matrix(0.010850694444444444,0,0,0.010850694444444444,14.496527777777777,0)" xlink:href="#aj"/><use transform="matrix(0.010850694444444444,0,0,0.010850694444444444,27.029079861111104,0)" xlink:href="#V"/><use transform="matrix(0.010850694444444444,0,0,0.010850694444444444,39.116753472222214,0)" xlink:href="#S"/><use transform="matrix(0.010850694444444444,0,0,0.010850694444444444,51.58420138888888,0)" xlink:href="#W"/><use transform="matrix(0.010850694444444444,0,0,0.010850694444444444,58.84331597222221,0)" xlink:href="#T"/><use transform="matrix(0.010850694444444444,0,0,0.010850694444444444,70.61631944444443,0)" xlink:href="#U"/></g><path fill="#fc9432" d="M687-225c189-1 272-84 286-260h300c-19 311-251 505-586 505C296 20 86-277 86-686c0-466 174-782 605-790 340-6 557 198 584 514H975c-15-183-92-268-284-268-100 0-173 38-225 108-63 84-76 264-76 443 0 157 24 272 72 345s122 109 225 109" id="ao"/><path fill="#fc9432" d="M416 0H126v-1536h290V0" id="ap"/><path fill="#fc9432" d="M529-185c94 0 168-33 168-114 0-35-18-63-53-83s-91-39-168-55C219-491 90-600 90-765c0-208 203-337 432-337 246 0 451 124 453 349H686c-2-91-62-143-165-143-86 0-151 41-153 117 0 32 16 57 46 77 63 43 257 69 335 100 151 60 229 153 229 291C978-13 554 93 282-28 162-81 60-190 56-344h274c5 106 86 159 199 159" id="aq"/><g id="r"><use transform="matrix(0.015190972222222219,0,0,0.015190972222222219,0,0)" xlink:href="#ao"/><use transform="matrix(0.015190972222222219,0,0,0.015190972222222219,20.35590277777777,0)" xlink:href="#ap"/><use transform="matrix(0.015190972222222219,0,0,0.015190972222222219,28.604600694444436,0)" xlink:href="#A"/><use transform="matrix(0.015190972222222219,0,0,0.015190972222222219,45.28428819444443,0)" xlink:href="#aq"/><use transform="matrix(0.015190972222222219,0,0,0.015190972222222219,61.28038194444443,0)" xlink:href="#aq"/></g></defs></g></svg>