<svg xmlns="http://www.w3.org/2000/svg" xmlns:xlink="http://www.w3.org/1999/xlink" xmlns:lucid="lucid" width="1960" height="1075"><g transform="translate(-140 -360)" lucid:page-tab-id="3UGUZuS4~6EK"><path d="M860 780h240v60H860z" fill="none"/><use xlink:href="#a" transform="matrix(1,0,0,1,860,780) translate(35.371093750000014 36.8359375)"/><path d="M240 846c0-3.3 2.7-6 6-6h348c3.3 0 6 2.7 6 6v209c0 3.3-2.7 6-6 6H246c-3.3 0-6-2.7-6-6z" stroke="#fff" stroke-width="3" fill-opacity="0"/><path d="M240 882.04h360m-360 63.54h360" stroke="#fff" stroke-width="3" fill="none"/><use xlink:href="#b" transform="matrix(1,0,0,1,248,848) translate(100.93880208333334 21.09548611111111)"/><use xlink:href="#c" transform="matrix(1,0,0,1,252,890.0416666666666) translate(0 31.59548611111111)"/><use xlink:href="#d" transform="matrix(1,0,0,1,252,890.0416666666666) translate(153.1467013888889 31.59548611111111)"/><use xlink:href="#e" transform="matrix(1,0,0,1,252,890.0416666666666) translate(164.02994791666669 31.59548611111111)"/><use xlink:href="#f" transform="matrix(1,0,0,1,252,953.5833333333333) translate(0 31.553819444444443)"/><use xlink:href="#g" transform="matrix(1,0,0,1,252,953.5833333333333) translate(18.098958333333332 31.553819444444443)"/><use xlink:href="#d" transform="matrix(1,0,0,1,252,953.5833333333333) translate(120.45355902777777 31.553819444444443)"/><use xlink:href="#h" transform="matrix(1,0,0,1,252,953.5833333333333) translate(131.33680555555554 31.553819444444443)"/><use xlink:href="#d" transform="matrix(1,0,0,1,252,953.5833333333333) translate(208.2790798611111 31.553819444444443)"/><use xlink:href="#i" transform="matrix(1,0,0,1,252,953.5833333333333) translate(219.16232638888886 31.553819444444443)"/><use xlink:href="#j" transform="matrix(1,0,0,1,252,953.5833333333333) translate(0 57.59548611111111)"/><use xlink:href="#k" transform="matrix(1,0,0,1,252,953.5833333333333) translate(18.098958333333332 57.59548611111111)"/><use xlink:href="#d" transform="matrix(1,0,0,1,252,953.5833333333333) translate(112.39149305555556 57.59548611111111)"/><use xlink:href="#l" transform="matrix(1,0,0,1,252,953.5833333333333) translate(123.27473958333334 57.59548611111111)"/><use xlink:href="#j" transform="matrix(1,0,0,1,252,953.5833333333333) translate(0 83.63715277777777)"/><use xlink:href="#m" transform="matrix(1,0,0,1,252,953.5833333333333) translate(18.098958333333332 83.63715277777777)"/><use xlink:href="#d" transform="matrix(1,0,0,1,252,953.5833333333333) translate(109.75477430555554 83.63715277777777)"/><use xlink:href="#n" transform="matrix(1,0,0,1,252,953.5833333333333) translate(120.63802083333331 83.63715277777777)"/><path d="M660 846c0-3.3 2.7-6 6-6h348c3.3 0 6 2.7 6 6v235c0 3.3-2.7 6-6 6H666c-3.3 0-6-2.7-6-6z" stroke="#fff" stroke-width="3" fill-opacity="0"/><path d="M660 882.04h360m-360 89.6h360" stroke="#fff" stroke-width="3" fill="none"/><use xlink:href="#o" transform="matrix(1,0,0,1,668,848) translate(114.56727430555556 21.09548611111111)"/><use xlink:href="#p" transform="matrix(1,0,0,1,672,890.0416666666666) translate(0 31.57465277777778)"/><use xlink:href="#d" transform="matrix(1,0,0,1,672,890.0416666666666) translate(61.100260416666664 31.57465277777778)"/><use xlink:href="#q" transform="matrix(1,0,0,1,672,890.0416666666666) translate(71.98350694444444 31.57465277777778)"/><use xlink:href="#r" transform="matrix(1,0,0,1,672,890.0416666666666) translate(0 57.61631944444444)"/><use xlink:href="#d" transform="matrix(1,0,0,1,672,890.0416666666666) translate(47.26562499999999 57.61631944444444)"/><use xlink:href="#e" transform="matrix(1,0,0,1,672,890.0416666666666) translate(58.14887152777777 57.61631944444444)"/><use xlink:href="#f" transform="matrix(1,0,0,1,672,979.625) translate(0 31.553819444444443)"/><use xlink:href="#g" transform="matrix(1,0,0,1,672,979.625) translate(18.098958333333332 31.553819444444443)"/><use xlink:href="#d" transform="matrix(1,0,0,1,672,979.625) translate(120.45355902777777 31.553819444444443)"/><use xlink:href="#h" transform="matrix(1,0,0,1,672,979.625) translate(131.33680555555554 31.553819444444443)"/><use xlink:href="#d" transform="matrix(1,0,0,1,672,979.625) translate(208.2790798611111 31.553819444444443)"/><use xlink:href="#s" transform="matrix(1,0,0,1,672,979.625) translate(219.16232638888886 31.553819444444443)"/><use xlink:href="#f" transform="matrix(1,0,0,1,672,979.625) translate(0 57.59548611111111)"/><use xlink:href="#k" transform="matrix(1,0,0,1,672,979.625) translate(18.098958333333332 57.59548611111111)"/><use xlink:href="#d" transform="matrix(1,0,0,1,672,979.625) translate(112.39149305555556 57.59548611111111)"/><use xlink:href="#t" transform="matrix(1,0,0,1,672,979.625) translate(123.27473958333334 57.59548611111111)"/><use xlink:href="#f" transform="matrix(1,0,0,1,672,979.625) translate(0 83.63715277777777)"/><use xlink:href="#m" transform="matrix(1,0,0,1,672,979.625) translate(18.098958333333332 83.63715277777777)"/><use xlink:href="#d" transform="matrix(1,0,0,1,672,979.625) translate(109.75477430555554 83.63715277777777)"/><use xlink:href="#n" transform="matrix(1,0,0,1,672,979.625) translate(120.63802083333331 83.63715277777777)"/><path d="M240 1226c0-3.3 2.7-6 6-6h348c3.3 0 6 2.7 6 6v183c0 3.3-2.7 6-6 6H246c-3.3 0-6-2.7-6-6z" stroke="#fff" stroke-width="3" fill-opacity="0"/><path d="M240 1262.04h360m-360 89.6l360-.02" stroke="#fff" stroke-width="3" fill="none"/><use xlink:href="#u" transform="matrix(1,0,0,1,248,1228) translate(145.58940972222223 21.09548611111111)"/><use xlink:href="#v" transform="matrix(1,0,0,1,252,1270.0416666666667) translate(0 31.57465277777778)"/><use xlink:href="#w" transform="matrix(1,0,0,1,252,1270.0416666666667) translate(11.631944444444443 31.57465277777778)"/><use xlink:href="#d" transform="matrix(1,0,0,1,252,1270.0416666666667) translate(61.100260416666664 31.57465277777778)"/><use xlink:href="#l" transform="matrix(1,0,0,1,252,1270.0416666666667) translate(71.98350694444444 31.57465277777778)"/><use xlink:href="#x" transform="matrix(1,0,0,1,252,1270.0416666666667) translate(0 57.61631944444444)"/><use xlink:href="#y" transform="matrix(1,0,0,1,252,1270.0416666666667) translate(11.631944444444443 57.61631944444444)"/><use xlink:href="#d" transform="matrix(1,0,0,1,252,1270.0416666666667) translate(59.44010416666667 57.61631944444444)"/><use xlink:href="#z" transform="matrix(1,0,0,1,252,1270.0416666666667) translate(70.32335069444446 57.61631944444444)"/><path d="M332 1063.5v153.18" stroke="#fff" stroke-width="2" fill="none"/><path d="M333 1063.53h-2v-1.03h2z" stroke="#fff" stroke-width=".05" fill="#fff"/><path d="M321.82 1199.32l10.18 17.22 10.18-17.22" stroke="#fff" stroke-width="2" fill="none"/><use xlink:href="#A" transform="matrix(1,0,0,1,350.1808283150074,1194.8291307661134) translate(0 16.493055555555557)"/><path d="M498.46 1061v155.68M498.46 1061.03V1060M488.28 1199.32l10.18 17.22 10.18-17.22" stroke="#fff" stroke-width="2" fill="none"/><use xlink:href="#B" transform="matrix(1,0,0,1,516.6373452360801,1195.180899655966) translate(0 16.493055555555557)"/><use xlink:href="#C" transform="matrix(1,0,0,1,516.6373452360801,1195.180899655966) translate(11.319444444444446 16.493055555555557)"/><path d="M1220 846c0-3.3 2.7-6 6-6h348c3.3 0 6 2.7 6 6v209c0 3.3-2.7 6-6 6h-348c-3.3 0-6-2.7-6-6z" stroke="#fff" stroke-width="3" fill-opacity="0"/><path d="M1220 882.04h360m-360 63.54h360" stroke="#fff" stroke-width="3" fill="none"/><use xlink:href="#D" transform="matrix(1,0,0,1,1228,848) translate(78.82508680555554 21.09548611111111)"/><use xlink:href="#E" transform="matrix(1,0,0,1,1232,890.0416666666666) translate(0 31.59548611111111)"/><use xlink:href="#d" transform="matrix(1,0,0,1,1232,890.0416666666666) translate(80.18663194444444 31.59548611111111)"/><use xlink:href="#e" transform="matrix(1,0,0,1,1232,890.0416666666666) translate(91.06987847222223 31.59548611111111)"/><use xlink:href="#f" transform="matrix(1,0,0,1,1232,953.5833333333333) translate(0 31.553819444444443)"/><use xlink:href="#F" transform="matrix(1,0,0,1,1232,953.5833333333333) translate(18.098958333333332 31.553819444444443)"/><use xlink:href="#d" transform="matrix(1,0,0,1,1232,953.5833333333333) translate(120.59461805555553 31.553819444444443)"/><use xlink:href="#i" transform="matrix(1,0,0,1,1232,953.5833333333333) translate(131.47786458333331 31.553819444444443)"/><use xlink:href="#j" transform="matrix(1,0,0,1,1232,953.5833333333333) translate(0 57.59548611111111)"/><use xlink:href="#G" transform="matrix(1,0,0,1,1232,953.5833333333333) translate(18.098958333333332 57.59548611111111)"/><use xlink:href="#d" transform="matrix(1,0,0,1,1232,953.5833333333333) translate(81.22829861111111 57.59548611111111)"/><use xlink:href="#l" transform="matrix(1,0,0,1,1232,953.5833333333333) translate(92.11154513888889 57.59548611111111)"/><use xlink:href="#j" transform="matrix(1,0,0,1,1232,953.5833333333333) translate(0 83.63715277777777)"/><use xlink:href="#k" transform="matrix(1,0,0,1,1232,953.5833333333333) translate(18.098958333333332 83.63715277777777)"/><use xlink:href="#d" transform="matrix(1,0,0,1,1232,953.5833333333333) translate(112.39149305555556 83.63715277777777)"/><use xlink:href="#H" transform="matrix(1,0,0,1,1232,953.5833333333333) translate(123.27473958333334 83.63715277777777)"/><path d="M1640 846c0-3.3 2.7-6 6-6h348c3.3 0 6 2.7 6 6v209c0 3.3-2.7 6-6 6h-348c-3.3 0-6-2.7-6-6z" stroke="#fff" stroke-width="3" fill-opacity="0"/><path d="M1640 882.04h360m-360 63.54h360" stroke="#fff" stroke-width="3" fill="none"/><use xlink:href="#I" transform="matrix(1,0,0,1,1648,848) translate(72.11393229166666 21.09548611111111)"/><g><use xlink:href="#f" transform="matrix(1,0,0,1,1652,953.5833333333333) translate(0 31.553819444444443)"/><use xlink:href="#F" transform="matrix(1,0,0,1,1652,953.5833333333333) translate(18.098958333333332 31.553819444444443)"/><use xlink:href="#d" transform="matrix(1,0,0,1,1652,953.5833333333333) translate(120.59461805555553 31.553819444444443)"/><use xlink:href="#i" transform="matrix(1,0,0,1,1652,953.5833333333333) translate(131.47786458333331 31.553819444444443)"/><use xlink:href="#j" transform="matrix(1,0,0,1,1652,953.5833333333333) translate(0 57.59548611111111)"/><use xlink:href="#G" transform="matrix(1,0,0,1,1652,953.5833333333333) translate(18.098958333333332 57.59548611111111)"/><use xlink:href="#d" transform="matrix(1,0,0,1,1652,953.5833333333333) translate(81.22829861111111 57.59548611111111)"/><use xlink:href="#l" transform="matrix(1,0,0,1,1652,953.5833333333333) translate(92.11154513888889 57.59548611111111)"/><use xlink:href="#j" transform="matrix(1,0,0,1,1652,953.5833333333333) translate(0 83.63715277777777)"/><use xlink:href="#k" transform="matrix(1,0,0,1,1652,953.5833333333333) translate(18.098958333333332 83.63715277777777)"/><use xlink:href="#d" transform="matrix(1,0,0,1,1652,953.5833333333333) translate(112.39149305555556 83.63715277777777)"/><use xlink:href="#H" transform="matrix(1,0,0,1,1652,953.5833333333333) translate(123.27473958333334 83.63715277777777)"/></g><path d="M1820 1063.5v248c0 3.3-2.7 6-6 6H603.32" stroke="#fff" stroke-width="2" fill="none"/><path d="M1821 1063.53h-2v-1.03h2z" stroke="#fff" stroke-width=".05" fill="#fff"/><path d="M620.68 1307.32l-17.22 10.18 17.22 10.18" stroke="#fff" stroke-width="2" fill="none"/><g><use xlink:href="#J" transform="matrix(1,0,0,1,606.8835297978799,1331.6808283150074) translate(0 16.493055555555557)"/></g><path d="M990.5 466c0-3.3 2.7-6 6-6h248c3.3 0 6 2.7 6 6v128c0 3.3-2.7 6-6 6h-248c-3.3 0-6-2.7-6-6z" stroke="#fff" stroke-width="3" fill-opacity="0"/><path d="M990.5 502.04h260m-260 49.04h260" stroke="#fff" stroke-width="3" fill="none"/><g><use xlink:href="#K" transform="matrix(1,0,0,1,998.5,468) translate(93.29991319444444 21.09548611111111)"/></g><g><use xlink:href="#L" transform="matrix(1,0,0,1,1002.5,559.0833333333334) translate(0 24.59548611111111)"/><use xlink:href="#M" transform="matrix(1,0,0,1,1002.5,559.0833333333334) translate(18.098958333333332 24.59548611111111)"/><use xlink:href="#N" transform="matrix(1,0,0,1,1002.5,559.0833333333334) translate(123.74131944444444 24.59548611111111)"/><use xlink:href="#O" transform="matrix(1,0,0,1,1002.5,559.0833333333334) translate(134.62456597222223 24.59548611111111)"/></g><path d="M451 455c0-3.3 2.7-6 6-6h348c3.3 0 6 2.7 6 6v168c0 3.3-2.7 6-6 6H457c-3.3 0-6-2.7-6-6z" stroke="#fff" stroke-width="3" fill-opacity="0"/><path d="M451 508.2h360" stroke="#fff" stroke-width="3" fill="none"/><g><use xlink:href="#P" transform="matrix(1,0,0,1,459,457) translate(113.57499999999999 14.799999999999999)"/><use xlink:href="#Q" transform="matrix(1,0,0,1,459,457) translate(144.05 36.4)"/></g><g><use xlink:href="#f" transform="matrix(1,0,0,1,463,516.2) translate(0 34.55381944444444)"/><use xlink:href="#g" transform="matrix(1,0,0,1,463,516.2) translate(18.098958333333332 34.55381944444444)"/><use xlink:href="#d" transform="matrix(1,0,0,1,463,516.2) translate(120.45355902777777 34.55381944444444)"/><use xlink:href="#h" transform="matrix(1,0,0,1,463,516.2) translate(131.33680555555554 34.55381944444444)"/><use xlink:href="#d" transform="matrix(1,0,0,1,463,516.2) translate(208.2790798611111 34.55381944444444)"/><use xlink:href="#s" transform="matrix(1,0,0,1,463,516.2) translate(219.16232638888886 34.55381944444444)"/><use xlink:href="#f" transform="matrix(1,0,0,1,463,516.2) translate(0 60.59548611111111)"/><use xlink:href="#k" transform="matrix(1,0,0,1,463,516.2) translate(18.098958333333332 60.59548611111111)"/><use xlink:href="#d" transform="matrix(1,0,0,1,463,516.2) translate(112.39149305555556 60.59548611111111)"/><use xlink:href="#t" transform="matrix(1,0,0,1,463,516.2) translate(123.27473958333334 60.59548611111111)"/><use xlink:href="#f" transform="matrix(1,0,0,1,463,516.2) translate(0 86.63715277777777)"/><use xlink:href="#m" transform="matrix(1,0,0,1,463,516.2) translate(18.098958333333332 86.63715277777777)"/><use xlink:href="#d" transform="matrix(1,0,0,1,463,516.2) translate(109.75477430555554 86.63715277777777)"/><use xlink:href="#n" transform="matrix(1,0,0,1,463,516.2) translate(120.63802083333331 86.63715277777777)"/></g><path d="M1430 455c0-3.3 2.7-6 6-6h348c3.3 0 6 2.7 6 6v168c0 3.3-2.7 6-6 6h-348c-3.3 0-6-2.7-6-6z" stroke="#fff" stroke-width="3" fill-opacity="0"/><path d="M1430 508.2h360" stroke="#fff" stroke-width="3" fill="none"/><g><use xlink:href="#P" transform="matrix(1,0,0,1,1438,457) translate(113.57499999999999 14.799999999999999)"/><use xlink:href="#R" transform="matrix(1,0,0,1,1438,457) translate(113.125 36.4)"/></g><g><use xlink:href="#f" transform="matrix(1,0,0,1,1442,516.2) translate(0 34.55381944444444)"/><use xlink:href="#F" transform="matrix(1,0,0,1,1442,516.2) translate(18.098958333333332 34.55381944444444)"/><use xlink:href="#d" transform="matrix(1,0,0,1,1442,516.2) translate(120.59461805555553 34.55381944444444)"/><use xlink:href="#s" transform="matrix(1,0,0,1,1442,516.2) translate(131.47786458333331 34.55381944444444)"/><use xlink:href="#f" transform="matrix(1,0,0,1,1442,516.2) translate(0 60.59548611111111)"/><use xlink:href="#G" transform="matrix(1,0,0,1,1442,516.2) translate(18.098958333333332 60.59548611111111)"/><use xlink:href="#d" transform="matrix(1,0,0,1,1442,516.2) translate(81.22829861111111 60.59548611111111)"/><use xlink:href="#t" transform="matrix(1,0,0,1,1442,516.2) translate(92.11154513888889 60.59548611111111)"/><use xlink:href="#f" transform="matrix(1,0,0,1,1442,516.2) translate(0 86.63715277777777)"/><use xlink:href="#S" transform="matrix(1,0,0,1,1442,516.2) translate(18.098958333333332 86.63715277777777)"/><use xlink:href="#d" transform="matrix(1,0,0,1,1442,516.2) translate(104.79600694444444 86.63715277777777)"/><use xlink:href="#H" transform="matrix(1,0,0,1,1442,516.2) translate(115.67925347222223 86.63715277777777)"/></g><path d="M1400 837.5v-2.9m0-3.9v-5.8m0-3.9v-5.8m0-3.9v-5.8m0-3.9v-5.8m0-3.9v-5.8m0-3.9v-5.8m0-3.9v-5.8m0-3.9V757m0-3.9v-5.8m0-3.9v-2.9l.73-2.7m2.57-2.57l2.7-.73h2.93m3.9 0h5.88m3.92 0h5.87m3.9 0h5.87m3.9 0h5.87m3.92 0h5.86m3.9 0h5.88m3.9 0h5.88m3.9 0h5.88m3.9 0h5.87m3.9 0h5.88m3.92 0h5.87m3.9 0h2.93l2.7-.73m2.57-2.57l.73-2.7v-3.15m0-4.2v-6.3m0-4.2v-6.3m0-4.2v-6.3m0-4.2v-6.3m0-4.2v-6.3m0-4.2v-6.32m0-4.2v-3.15" stroke="#fff" stroke-width="2" fill="none"/><path d="M1401 838.5h-2v-1.03h2z" stroke="#fff" stroke-width=".05" fill="#fff"/><path d="M1529.33 632.46l12.73 21.52h-25.45z" stroke="#fff" stroke-width="2" fill="#fff"/><path d="M1820 837.5v-2.9m0-3.9v-5.8m0-3.9v-5.8m0-3.9v-5.8m0-3.9v-5.8m0-3.9v-5.8m0-3.9v-5.8m0-3.9v-5.8m0-3.9V757m0-3.9v-5.8m0-3.9v-2.9l-.73-2.7m-2.57-2.57l-2.7-.73h-3.03m-4.05 0h-6.06m-4.05 0h-6.06m-4.04 0h-6.07m-4.04 0h-6.08m-4.04 0h-6.07m-4.03 0h-6.07m-4.04 0h-6.07m-4.06 0h-6.06m-4.05 0h-6.06m-4.05 0h-6.06m-4.05 0h-6.06m-4.04 0h-3.03l-2.7-.73m-2.57-2.57l-.73-2.7v-3.15m0-4.2v-6.3m0-4.2v-6.3m0-4.2v-6.3m0-4.2v-6.3m0-4.2v-6.3m0-4.2v-6.32m0-4.2v-3.15" stroke="#fff" stroke-width="2" fill="none"/><path d="M1821 838.5h-2v-1.03h2z" stroke="#fff" stroke-width=".05" fill="#fff"/><path d="M1686.67 632.46l12.72 21.52h-25.46z" stroke="#fff" stroke-width="2" fill="#fff"/><path d="M840 837.5v-2.9m0-3.9v-5.8m0-3.9v-5.8m0-3.9v-5.8m0-3.9v-5.8m0-3.9v-5.8m0-3.9v-5.8m0-3.9v-5.8m0-3.9V757m0-3.9v-5.8m0-3.9v-2.9l-.73-2.7m-2.57-2.57l-2.7-.73h-3.04m-4.05 0h-6.07m-4.06 0h-6.08m-4.06 0h-6.08m-4.05 0h-6.07m-4.06 0h-6.08m-4.06 0h-6.08m-4.05 0h-6.07m-4.06 0h-6.08m-4.06 0h-6.08m-4.05 0h-3.03l-2.7-.73m-2.57-2.57l-.73-2.7v-3.15m0-4.2v-6.3m0-4.2v-6.3m0-4.2v-6.3m0-4.2v-6.3m0-4.2v-6.3m0-4.2v-6.32m0-4.2v-3.15" stroke="#fff" stroke-width="2" fill="none"/><path d="M841 838.5h-2v-1.03h2z" stroke="#fff" stroke-width=".05" fill="#fff"/><path d="M726.67 632.46l12.72 21.52h-25.46z" stroke="#fff" stroke-width="2" fill="#fff"/><path d="M420 837.5v-2.9m0-3.9v-5.8m0-3.9v-5.8m0-3.9v-5.8m0-3.9v-5.8m0-3.9v-5.8m0-3.9v-5.8m0-3.9v-5.8m0-3.9V757m0-3.9v-5.8m0-3.9v-2.9l.73-2.7m2.57-2.57l2.7-.73h3.1m4.1 0h6.2m4.12 0h6.18m4.12 0H460m4.12 0h6.18m4.12 0h6.2m4.1 0h6.2m4.1 0h6.2m4.1 0h6.2m4.12 0h6.18m4.12 0h6.18m4.12 0h3.1l2.7-.73m2.56-2.57l.73-2.7v-3.15m0-4.2v-6.3m0-4.2v-6.3m0-4.2v-6.3m0-4.2v-6.3m0-4.2v-6.3m0-4.2v-6.32m0-4.2v-3.15" stroke="#fff" stroke-width="2" fill="none"/><path d="M421 838.5h-2v-1.03h2z" stroke="#fff" stroke-width=".05" fill="#fff"/><path d="M545.33 632.46l12.73 21.52H532.6z" stroke="#fff" stroke-width="2" fill="#fff"/><path d="M1253 530h173.68" stroke="#fff" stroke-width="2" fill="none"/><path d="M1253.03 531H1252v-2h1.03z" stroke="#fff" stroke-width=".05" fill="#fff"/><path d="M1409.32 540.18l17.22-10.18-17.22-10.18M988 530H814.32" stroke="#fff" stroke-width="2" fill="none"/><path d="M989 531h-1.03v-2H989z" stroke="#fff" stroke-width=".05" fill="#fff"/><path d="M831.68 519.82L814.46 530l17.22 10.18M562.67 1063.5v3.02m0 4.02v6.04m0 4.03v6.04m0 4.03v6.04m0 4.03v6.04m0 4.02v6.03m0 4.03v6.03m0 4.02v6.04m0 4.02v3.02l.73 2.7m2.57 2.57l2.7.73h3m3.97 0h5.98m4 0h5.97m3.98 0h5.97m4 0h5.97m4 0h5.97m3.97 0h5.98m4 0h5.97m4 0h5.97m3.97 0h5.98m4 0h5.97m3.98 0h5.98m4 0h5.97m4 0h5.97m3.98 0h5.98m4 0h5.97m3.98 0h5.98m4 0h5.98m4 0h5.97m3.98 0H761m4 0h5.98m3.98 0h5.98m4 0h5.97m4 0h5.98m3.98 0h5.98m4 0h5.97m4 0h5.98m3.98 0h5.98m4 0h5.97m4 0h5.97m4 0h5.97m4 0h5.97m4 0h5.97m4 0h5.97m3.98 0h5.98m4 0h5.97m4 0h5.97m3.98 0h5.98m4 0h5.97m3.98 0h5.98m4 0h5.97m4 0h5.97m3.98 0h5.98m4 0h5.97m4 0h5.96m4 0h5.97m4 0h5.97m3.98 0h5.98m4 0h5.97m4 0h5.97m3.98 0h5.98m4 0h5.97m3.98 0h6m3.98 0h5.98m4 0h5.97m3.98 0h6m3.98 0h5.98m3.98 0h5.98m4 0h5.97m3.98 0h5.98m3.98 0h5.98m4 0h5.97m3.98 0h5.97m4 0h5.97m4 0h5.97m3.97 0h5.98m4 0h5.97m4 0h5.97m3.97 0h5.98m4 0h5.97m3.98 0h5.98m4 0h5.97m4 0h5.97m3.98 0h5.98m4 0h5.97m3.98 0h5.98m4 0h5.98m4 0h5.97m3.98 0h5.98m4 0h5.98m3.98 0h5.98m4 0h5.97m4 0h5.98m3.98 0h5.98m4 0h5.97m4 0h5.98m3.98 0h5.98m4 0h5.97m4 0h5.97m4 0h5.97m4 0h5.97m4 0h5.97m4 0h5.97m3.98 0h5.98m4 0h5.97m4 0h5.97m3.98 0h5.98m4 0h5.97m3.98 0h5.98m4 0h5.97m4 0h5.97m3.98 0h5.98m4 0h5.97m4 0h5.96m4 0h5.97m4 0h5.97m3.98 0h5.98m4 0h5.97m4 0h5.97m3.98 0h5.98m4 0h5.97m3.98 0h6m3.98 0h5.98m4 0h5.97m3.98 0h6m3.98 0h5.98m3.98 0h5.98m4 0h5.97m3.98 0h3l2.7-.73m2.56-2.57l.73-2.7v-3m0-3.97v-5.98m0-3.98v-5.98m0-4v-5.97m0-3.98v-5.98m0-3.98v-6m0-3.97v-5.98m0-3.98v-5.98m0-4v-2.98" stroke="#fff" stroke-width="2" fill="none"/><path d="M563.67 1063.53h-2v-1.03h2z" stroke="#fff" stroke-width=".05" fill="#fff"/><path d="M1760.85 1081.68l-10.18-17.22-10.18 17.22M1022.5 963.5h3.07m4.08 0h6.14m4.07 0h6.14m4.1 0h6.13m4.08 0h6.15m4.08 0h6.14m4.08 0h6.14m4.07 0h6.14m4.1 0h6.13m4.08 0h6.15m4.08 0h6.14m4.1 0h6.12m4.08 0h6.13m4.1 0h6.13m4.1 0h6.12m4.1 0h6.12m4.1 0h6.12m4.08 0h6.13m4.1 0h6.13m4.1 0h3.05" stroke="#fff" stroke-width="2" fill="none"/><path d="M1022.53 964.5h-1.03v-2h1.03z" stroke="#fff" stroke-width=".05" fill="#fff"/><path d="M1199.32 973.68l17.22-10.18-17.22-10.18" stroke="#fff" stroke-width="2" fill="none"/><path d="M160 780h240v60H160z" fill="none"/><g><use xlink:href="#a" transform="matrix(1,0,0,1,160,780) translate(35.371093750000014 36.8359375)"/></g><path d="M511 380h240v60H511z" fill="none"/><g><use xlink:href="#T" transform="matrix(1,0,0,1,511,380) translate(75.48828125 36.8359375)"/></g><path d="M1000 389h240v60h-240z" fill="none"/><g><use xlink:href="#U" transform="matrix(1,0,0,1,1000,389) translate(94.5556640625 36.8359375)"/></g><path d="M1490 380h240v60h-240z" fill="none"/><g><use xlink:href="#V" transform="matrix(1,0,0,1,1490,380) translate(87.83203125 36.8359375)"/></g><path d="M1840 780h240v60h-240z" fill="none"/><g><use xlink:href="#W" transform="matrix(1,0,0,1,1840,780) translate(47.714843750000014 36.8359375)"/></g><path d="M1140 780h240v60h-240z" fill="none"/><g><use xlink:href="#W" transform="matrix(1,0,0,1,1140,780) translate(47.714843750000014 36.8359375)"/></g><defs><path fill="#dfe3e8" d="M688-137c238 0 323-102 359-325h193c-32 297-228 482-552 482-361 0-569-299-569-680 0-197 8-360 73-497 88-186 257-317 513-319 316-2 509 195 535 488h-193c-31-212-118-330-342-330-272 0-397 224-393 523v141c-3 282 115 517 376 517" id="X"/><path fill="#dfe3e8" d="M584 20C278 26 81-227 91-551c10-320 175-545 491-551 308-5 503 247 494 573-9 322-175 543-492 549zm-2-970c-208 0-305 185-305 421 0 216 106 398 307 398 211 0 307-186 307-420 0-214-109-399-309-399" id="Y"/><path fill="#dfe3e8" d="M589-945c-131 0-219 81-264 174V0H140v-1082h175l6 136c83-104 191-156 324-156 229 0 346 129 346 387V0H806v-716c-2-153-65-229-217-229" id="Z"/><path fill="#dfe3e8" d="M277-555c0 244 77 420 297 424 127 2 249-93 255-210h175C980-127 805 20 574 20 258 20 81-222 92-562c11-319 164-533 481-540 237-5 426 165 431 392H829c-7-133-115-242-256-240-209 4-296 166-296 395" id="aa"/><path fill="#dfe3e8" d="M663-916c-163-27-288 18-338 148V0H140v-1082h180l3 125c61-97 147-145 258-145 36 0 63 5 82 14v172" id="ab"/><path fill="#dfe3e8" d="M599-131c141 0 220-65 285-146l113 88C906-50 770 20 589 20 281 21 93-214 93-545c0-223 93-397 233-485 74-48 154-72 240-72 300 2 449 218 445 537v77H278c0 197 129 357 321 357zm227-509c-3-180-88-310-260-310-170 0-264 140-282 310h542" id="ac"/><path fill="#dfe3e8" d="M456 20C285 20 205-92 206-268v-671H9v-143h197v-262h185v262h202v143H391v671c-9 125 92 149 207 118V0c-49 13-96 20-142 20" id="ad"/><path fill="#dfe3e8" d="M341 0H156v-1536h185V0" id="ae"/><path fill="#dfe3e8" d="M341 0H156v-1082h185V0zm-91-1264c-68 0-108-42-109-105 0-62 41-107 109-107s110 44 110 107-42 105-110 105" id="af"/><g id="a"><use transform="matrix(0.009765624999999998,0,0,0.009765624999999998,0,0)" xlink:href="#X"/><use transform="matrix(0.009765624999999998,0,0,0.009765624999999998,13.017578124999998,0)" xlink:href="#Y"/><use transform="matrix(0.009765624999999998,0,0,0.009765624999999998,24.423828124999996,0)" xlink:href="#Z"/><use transform="matrix(0.009765624999999998,0,0,0.009765624999999998,35.45898437499999,0)" xlink:href="#aa"/><use transform="matrix(0.009765624999999998,0,0,0.009765624999999998,45.92773437499999,0)" xlink:href="#ab"/><use transform="matrix(0.009765624999999998,0,0,0.009765624999999998,52.50976562499999,0)" xlink:href="#ac"/><use transform="matrix(0.009765624999999998,0,0,0.009765624999999998,63.105468749999986,0)" xlink:href="#ad"/><use transform="matrix(0.009765624999999998,0,0,0.009765624999999998,69.63867187499999,0)" xlink:href="#ac"/><use transform="matrix(0.009765624999999998,0,0,0.009765624999999998,80.23437499999999,0)" xlink:href="#X"/><use transform="matrix(0.009765624999999998,0,0,0.009765624999999998,93.25195312499999,0)" xlink:href="#Y"/><use transform="matrix(0.009765624999999998,0,0,0.009765624999999998,104.65820312499999,0)" xlink:href="#ae"/><use transform="matrix(0.009765624999999998,0,0,0.009765624999999998,109.51171874999999,0)" xlink:href="#ae"/><use transform="matrix(0.009765624999999998,0,0,0.009765624999999998,114.36523437499999,0)" xlink:href="#ac"/><use transform="matrix(0.009765624999999998,0,0,0.009765624999999998,124.96093749999997,0)" xlink:href="#aa"/><use transform="matrix(0.009765624999999998,0,0,0.009765624999999998,135.42968749999997,0)" xlink:href="#ad"/><use transform="matrix(0.009765624999999998,0,0,0.009765624999999998,141.96289062499997,0)" xlink:href="#af"/><use transform="matrix(0.009765624999999998,0,0,0.009765624999999998,146.81640624999997,0)" xlink:href="#Y"/><use transform="matrix(0.009765624999999998,0,0,0.009765624999999998,158.22265624999997,0)" xlink:href="#Z"/></g><path fill="#fff" d="M362-157h690V0H169v-1456h193v1299" id="ag"/><path fill="#fff" d="M341 0H156v-1082h185V0zm-91-1264c-68 0-108-42-109-105 0-62 41-107 109-107s110 44 110 107-42 105-110 105" id="ah"/><path fill="#fff" d="M589-945c-131 0-219 81-264 174V0H140v-1082h175l6 136c83-104 191-156 324-156 229 0 346 129 346 387V0H806v-716c-2-153-65-229-217-229" id="ai"/><path fill="#fff" d="M524 20C238 18 95-240 95-550c0-307 146-552 431-552 128 0 229 43 303 129l8-109h170V416H822v-516C747-20 648 20 524 20zm48-970c-208 0-292 182-292 421 0 219 92 398 290 398 110 0 194-49 252-146v-530c-59-95-142-143-250-143" id="aj"/><path fill="#fff" d="M491 20c-241-1-355-148-355-398v-704h185v699c0 164 67 246 200 246 141 0 235-53 282-158v-787h185V0H812l-4-107C736-22 630 20 491 20" id="ak"/><path fill="#fff" d="M599-131c141 0 220-65 285-146l113 88C906-50 770 20 589 20 281 21 93-214 93-545c0-223 93-397 233-485 74-48 154-72 240-72 300 2 449 218 445 537v77H278c0 197 129 357 321 357zm227-509c-3-180-88-310-260-310-170 0-264 140-282 310h542" id="al"/><path fill="#fff" d="M520 20C244 20 95-247 95-550c0-298 151-550 427-552 127 0 227 43 301 130v-564h185V0H838l-9-116C755-25 652 20 520 20zm48-965c-210 0-288 177-288 416 0 218 87 392 286 392 117 0 203-53 257-158v-497c-55-102-140-153-255-153" id="am"/><path fill="#fff" d="M1281-774c0 326-74 568-255 695l260 204-131 121L848 2C681 41 515 15 391-64 196-188 109-439 109-773c0-282 107-505 279-617 171-112 445-111 616-1 174 112 277 332 277 617zM696-143c312 0 393-279 393-632 0-307-114-536-395-536-268 0-393 232-393 523v107c-3 297 122 538 395 538" id="an"/><g id="b"><use transform="matrix(0.010850694444444444,0,0,0.010850694444444444,0,0)" xlink:href="#ag"/><use transform="matrix(0.010850694444444444,0,0,0.010850694444444444,11.957465277777777,0)" xlink:href="#ah"/><use transform="matrix(0.010850694444444444,0,0,0.010850694444444444,17.350260416666664,0)" xlink:href="#ai"/><use transform="matrix(0.010850694444444444,0,0,0.010850694444444444,29.61154513888889,0)" xlink:href="#aj"/><use transform="matrix(0.010850694444444444,0,0,0.010850694444444444,42.241753472222214,0)" xlink:href="#ak"/><use transform="matrix(0.010850694444444444,0,0,0.010850694444444444,54.492187499999986,0)" xlink:href="#al"/><use transform="matrix(0.010850694444444444,0,0,0.010850694444444444,66.26519097222221,0)" xlink:href="#am"/><use transform="matrix(0.010850694444444444,0,0,0.010850694444444444,78.79774305555554,0)" xlink:href="#an"/><use transform="matrix(0.010850694444444444,0,0,0.010850694444444444,94.07552083333331,0)" xlink:href="#ak"/><use transform="matrix(0.010850694444444444,0,0,0.010850694444444444,106.32595486111109,0)" xlink:href="#al"/><use transform="matrix(0.010850694444444444,0,0,0.010850694444444444,118.09895833333331,0)" xlink:href="#ak"/><use transform="matrix(0.010850694444444444,0,0,0.010850694444444444,130.3493923611111,0)" xlink:href="#al"/></g><path fill="#fff" d="M525-543H37v-151h488v151" id="ao"/><path fill="#fff" d="M1240-945c-141 0-250 95-250 227V0H804v-709c0-157-77-236-231-236-121 0-204 52-249 155V0H139v-1082h175l5 120c79-93 186-140 321-140 151 0 254 58 309 174 69-98 181-174 345-174 237 0 362 126 362 377V0h-185v-714c-2-159-67-231-231-231" id="ap"/><path fill="#fff" d="M992-673H361v516h733V0H169v-1456h915v158H361v468h631v157" id="aq"/><path fill="#fff" d="M341 0H156v-1536h185V0" id="ar"/><path fill="#fff" d="M456 20C285 20 205-92 206-268v-671H9v-143h197v-262h185v262h202v143H391v671c-9 125 92 149 207 118V0c-49 13-96 20-142 20" id="as"/><path fill="#fff" d="M538-131c121 0 232-49 232-156 0-50-20-88-56-117-73-60-334-92-420-143-92-55-162-110-162-238 0-190 192-317 400-317 223 0 414 129 413 338H759c0-108-110-186-227-186-119 0-215 53-215 159 0 45 18 78 53 101 76 52 331 90 416 139 98 57 169 115 169 251C955-92 760 20 538 20c-176 0-314-68-386-174-38-55-57-115-57-179h185c6 129 116 202 258 202" id="at"/><g id="c"><use transform="matrix(0.010850694444444444,0,0,0.010850694444444444,0,0)" xlink:href="#ao"/><use transform="matrix(0.010850694444444444,0,0,0.010850694444444444,11.631944444444445,0)" xlink:href="#ai"/><use transform="matrix(0.010850694444444444,0,0,0.010850694444444444,23.893229166666664,0)" xlink:href="#ak"/><use transform="matrix(0.010850694444444444,0,0,0.010850694444444444,36.14366319444444,0)" xlink:href="#ap"/><use transform="matrix(0.010850694444444444,0,0,0.010850694444444444,55.62065972222222,0)" xlink:href="#aq"/><use transform="matrix(0.010850694444444444,0,0,0.010850694444444444,68.25086805555556,0)" xlink:href="#ar"/><use transform="matrix(0.010850694444444444,0,0,0.010850694444444444,73.64366319444444,0)" xlink:href="#al"/><use transform="matrix(0.010850694444444444,0,0,0.010850694444444444,85.41666666666666,0)" xlink:href="#ap"/><use transform="matrix(0.010850694444444444,0,0,0.010850694444444444,104.89366319444441,0)" xlink:href="#al"/><use transform="matrix(0.010850694444444444,0,0,0.010850694444444444,116.66666666666666,0)" xlink:href="#ai"/><use transform="matrix(0.010850694444444444,0,0,0.010850694444444444,128.92795138888889,0)" xlink:href="#as"/><use transform="matrix(0.010850694444444444,0,0,0.010850694444444444,136.18706597222223,0)" xlink:href="#at"/></g><path fill="#fff" d="M248 11c-71 0-114-43-114-108 0-67 42-112 114-112s116 45 116 112c-1 65-45 108-116 108zm1-883c-71 0-114-43-114-108 0-67 42-112 114-112s116 45 116 112c-1 65-45 108-116 108" id="au"/><use transform="matrix(0.010850694444444444,0,0,0.010850694444444444,0,0)" xlink:href="#au" id="d"/><g id="e"><use transform="matrix(0.010850694444444444,0,0,0.010850694444444444,0,0)" xlink:href="#ah"/><use transform="matrix(0.010850694444444444,0,0,0.010850694444444444,5.392795138888888,0)" xlink:href="#ai"/><use transform="matrix(0.010850694444444444,0,0,0.010850694444444444,17.65407986111111,0)" xlink:href="#as"/></g><path fill="#fff" d="M670-781h406v175H670v460H484v-460H78v-175h406v-425h186v425" id="av"/><use transform="matrix(0.010850694444444444,0,0,0.010850694444444444,0,0)" xlink:href="#av" id="f"/><path fill="#fff" d="M561-1102c238-4 403 126 403 351v498c0 99 13 178 38 237V0H808c-11-21-19-59-26-114C696-25 593 20 474 20c-199 0-368-130-365-320 4-251 214-359 490-356h180v-85c-1-135-86-212-229-212-115 0-232 67-233 171H131c20-205 206-316 430-320zM294-326c0 117 90 185 207 185 122 0 239-75 278-162v-222H634c-227 0-340 66-340 199" id="aw"/><path fill="#fff" d="M319-664C304-226 428 158 661 357l-38 113c-89-49-172-133-254-248C142-97 71-578 194-1025c67-244 240-513 429-618l38 122c-201 153-330 502-342 857" id="ax"/><path fill="#fff" d="M497-251l268-831h189L566 0H425L33-1082h189" id="ay"/><g id="g"><use transform="matrix(0.010850694444444444,0,0,0.010850694444444444,0,0)" xlink:href="#aw"/><use transform="matrix(0.010850694444444444,0,0,0.010850694444444444,12.08767361111111,0)" xlink:href="#am"/><use transform="matrix(0.010850694444444444,0,0,0.010850694444444444,24.620225694444443,0)" xlink:href="#am"/><use transform="matrix(0.010850694444444444,0,0,0.010850694444444444,37.15277777777777,0)" xlink:href="#ax"/><use transform="matrix(0.010850694444444444,0,0,0.010850694444444444,44.748263888888886,0)" xlink:href="#ay"/><use transform="matrix(0.010850694444444444,0,0,0.010850694444444444,55.34939236111112,0)" xlink:href="#aw"/><use transform="matrix(0.010850694444444444,0,0,0.010850694444444444,67.43706597222223,0)" xlink:href="#ar"/><use transform="matrix(0.010850694444444444,0,0,0.010850694444444444,72.82986111111111,0)" xlink:href="#ak"/><use transform="matrix(0.010850694444444444,0,0,0.010850694444444444,85.08029513888889,0)" xlink:href="#al"/></g><path fill="#fff" d="M703-1476c426 0 599 333 586 795-11 408-187 701-584 701-422 0-587-333-587-793 0-282 106-507 280-617 89-56 190-86 305-86zm2 1333c312 0 393-279 393-632 0-308-116-536-395-536-269 0-394 232-394 523v107c-4 298 123 538 396 538" id="az"/><path fill="#fff" d="M634-1102c292 0 422 254 422 573 0 298-143 547-420 549-137 0-242-48-317-145L310 0H140v-1536h185v573c75-93 178-139 309-139zm-44 965c207 0 281-175 281-413 0-224-79-395-283-395-122 0-210 57-263 170v468c57 113 145 170 265 170" id="aA"/><path fill="#fff" d="M19 279c92 0 127-48 127-150v-1211h185V125c0 208-94 312-283 312-41 0-78-6-113-18V271c21 5 49 8 84 8zm216-1543c-68 0-107-42-108-105 0-61 42-107 108-107 68 0 110 44 110 107s-42 105-110 105" id="aB"/><path fill="#fff" d="M277-555c0 244 77 420 297 424 127 2 249-93 255-210h175C980-127 805 20 574 20 258 20 81-222 92-562c11-319 164-533 481-540 237-5 426 165 431 392H829c-7-133-115-242-256-240-209 4-296 166-296 395" id="aC"/><path fill="#fff" d="M38 357C331 141 457-487 337-984c-53-219-157-429-299-546l39-113c190 106 362 378 431 621 75 268 76 597 0 868C440 88 266 365 77 470" id="aD"/><g id="h"><use transform="matrix(0.010850694444444444,0,0,0.010850694444444444,0,0)" xlink:href="#az"/><use transform="matrix(0.010850694444444444,0,0,0.010850694444444444,15.277777777777777,0)" xlink:href="#aA"/><use transform="matrix(0.010850694444444444,0,0,0.010850694444444444,27.745225694444443,0)" xlink:href="#aB"/><use transform="matrix(0.010850694444444444,0,0,0.010850694444444444,33.05121527777778,0)" xlink:href="#al"/><use transform="matrix(0.010850694444444444,0,0,0.010850694444444444,44.82421875,0)" xlink:href="#aC"/><use transform="matrix(0.010850694444444444,0,0,0.010850694444444444,56.45616319444444,0)" xlink:href="#as"/><use transform="matrix(0.010850694444444444,0,0,0.010850694444444444,63.71527777777778,0)" xlink:href="#aD"/></g><path fill="#fff" d="M584 20C278 26 81-227 91-551c10-320 175-545 491-551 308-5 503 247 494 573-9 322-175 543-492 549zm-2-970c-208 0-305 185-305 421 0 216 106 398 307 398 211 0 307-186 307-420 0-214-109-399-309-399" id="aE"/><g id="i"><use transform="matrix(0.010850694444444444,0,0,0.010850694444444444,0,0)" xlink:href="#aA"/><use transform="matrix(0.010850694444444444,0,0,0.010850694444444444,12.467447916666666,0)" xlink:href="#aE"/><use transform="matrix(0.010850694444444444,0,0,0.010850694444444444,25.14105902777778,0)" xlink:href="#aE"/><use transform="matrix(0.010850694444444444,0,0,0.010850694444444444,37.814670138888886,0)" xlink:href="#ar"/><use transform="matrix(0.010850694444444444,0,0,0.010850694444444444,43.20746527777777,0)" xlink:href="#al"/><use transform="matrix(0.010850694444444444,0,0,0.010850694444444444,54.980468749999986,0)" xlink:href="#aw"/><use transform="matrix(0.010850694444444444,0,0,0.010850694444444444,67.0681423611111,0)" xlink:href="#ai"/></g><use transform="matrix(0.010850694444444444,0,0,0.010850694444444444,0,0)" xlink:href="#av" id="j"/><path fill="#fff" d="M663-916c-163-27-288 18-338 148V0H140v-1082h180l3 125c61-97 147-145 258-145 36 0 63 5 82 14v172" id="aF"/><g id="k"><use transform="matrix(0.010850694444444444,0,0,0.010850694444444444,0,0)" xlink:href="#aF"/><use transform="matrix(0.010850694444444444,0,0,0.010850694444444444,7.313368055555555,0)" xlink:href="#al"/><use transform="matrix(0.010850694444444444,0,0,0.010850694444444444,19.08637152777778,0)" xlink:href="#ap"/><use transform="matrix(0.010850694444444444,0,0,0.010850694444444444,38.56336805555556,0)" xlink:href="#aE"/><use transform="matrix(0.010850694444444444,0,0,0.010850694444444444,51.07421875,0)" xlink:href="#ay"/><use transform="matrix(0.010850694444444444,0,0,0.010850694444444444,61.69704861111112,0)" xlink:href="#al"/><use transform="matrix(0.010850694444444444,0,0,0.010850694444444444,73.47005208333334,0)" xlink:href="#ax"/><use transform="matrix(0.010850694444444444,0,0,0.010850694444444444,81.06553819444446,0)" xlink:href="#aD"/></g><g id="l"><use transform="matrix(0.010850694444444444,0,0,0.010850694444444444,0,0)" xlink:href="#az"/><use transform="matrix(0.010850694444444444,0,0,0.010850694444444444,15.277777777777777,0)" xlink:href="#aA"/><use transform="matrix(0.010850694444444444,0,0,0.010850694444444444,27.745225694444443,0)" xlink:href="#aB"/><use transform="matrix(0.010850694444444444,0,0,0.010850694444444444,33.05121527777778,0)" xlink:href="#al"/><use transform="matrix(0.010850694444444444,0,0,0.010850694444444444,44.82421875,0)" xlink:href="#aC"/><use transform="matrix(0.010850694444444444,0,0,0.010850694444444444,56.45616319444444,0)" xlink:href="#as"/></g><g id="m"><use transform="matrix(0.010850694444444444,0,0,0.010850694444444444,0,0)" xlink:href="#ah"/><use transform="matrix(0.010850694444444444,0,0,0.010850694444444444,5.392795138888888,0)" xlink:href="#as"/><use transform="matrix(0.010850694444444444,0,0,0.010850694444444444,12.651909722222221,0)" xlink:href="#al"/><use transform="matrix(0.010850694444444444,0,0,0.010850694444444444,24.424913194444443,0)" xlink:href="#aF"/><use transform="matrix(0.010850694444444444,0,0,0.010850694444444444,31.510416666666664,0)" xlink:href="#aw"/><use transform="matrix(0.010850694444444444,0,0,0.010850694444444444,43.59809027777777,0)" xlink:href="#as"/><use transform="matrix(0.010850694444444444,0,0,0.010850694444444444,50.64019097222222,0)" xlink:href="#aE"/><use transform="matrix(0.010850694444444444,0,0,0.010850694444444444,63.31380208333333,0)" xlink:href="#aF"/><use transform="matrix(0.010850694444444444,0,0,0.010850694444444444,70.83333333333333,0)" xlink:href="#ax"/><use transform="matrix(0.010850694444444444,0,0,0.010850694444444444,78.42881944444444,0)" xlink:href="#aD"/></g><path fill="#fff" d="M375 0H183v-1456h192V0" id="aG"/><g id="n"><use transform="matrix(0.010850694444444444,0,0,0.010850694444444444,0,0)" xlink:href="#aG"/><use transform="matrix(0.010850694444444444,0,0,0.010850694444444444,6.043836805555555,0)" xlink:href="#as"/><use transform="matrix(0.010850694444444444,0,0,0.010850694444444444,13.30295138888889,0)" xlink:href="#al"/><use transform="matrix(0.010850694444444444,0,0,0.010850694444444444,25.07595486111111,0)" xlink:href="#aF"/><use transform="matrix(0.010850694444444444,0,0,0.010850694444444444,32.16145833333333,0)" xlink:href="#aw"/><use transform="matrix(0.010850694444444444,0,0,0.010850694444444444,44.24913194444444,0)" xlink:href="#as"/><use transform="matrix(0.010850694444444444,0,0,0.010850694444444444,51.2912326388889,0)" xlink:href="#aE"/><use transform="matrix(0.010850694444444444,0,0,0.010850694444444444,63.96484375,0)" xlink:href="#aF"/></g><path fill="#fff" d="M973-380H363L226 0H28l556-1456h168L1309 0h-197zM421-538h495l-248-681" id="aH"/><path fill="#fff" d="M494-271l252-811h198L509 167C425 381 299 474 84 421V271c167 16 242-37 283-173l41-110L22-1082h202" id="aI"/><g id="o"><use transform="matrix(0.010850694444444444,0,0,0.010850694444444444,0,0)" xlink:href="#aH"/><use transform="matrix(0.010850694444444444,0,0,0.010850694444444444,14.496527777777777,0)" xlink:href="#aF"/><use transform="matrix(0.010850694444444444,0,0,0.010850694444444444,22.01605902777778,0)" xlink:href="#aF"/><use transform="matrix(0.010850694444444444,0,0,0.010850694444444444,29.1015625,0)" xlink:href="#aw"/><use transform="matrix(0.010850694444444444,0,0,0.010850694444444444,41.02647569444444,0)" xlink:href="#aI"/><use transform="matrix(0.010850694444444444,0,0,0.010850694444444444,51.54079861111111,0)" xlink:href="#an"/><use transform="matrix(0.010850694444444444,0,0,0.010850694444444444,66.81857638888889,0)" xlink:href="#ak"/><use transform="matrix(0.010850694444444444,0,0,0.010850694444444444,79.06901041666666,0)" xlink:href="#al"/><use transform="matrix(0.010850694444444444,0,0,0.010850694444444444,90.84201388888889,0)" xlink:href="#ak"/><use transform="matrix(0.010850694444444444,0,0,0.010850694444444444,103.09244791666666,0)" xlink:href="#al"/></g><g id="p"><use transform="matrix(0.010850694444444444,0,0,0.010850694444444444,0,0)" xlink:href="#ao"/><use transform="matrix(0.010850694444444444,0,0,0.010850694444444444,11.631944444444445,0)" xlink:href="#am"/><use transform="matrix(0.010850694444444444,0,0,0.010850694444444444,24.16449652777778,0)" xlink:href="#aw"/><use transform="matrix(0.010850694444444444,0,0,0.010850694444444444,36.252170138888886,0)" xlink:href="#as"/><use transform="matrix(0.010850694444444444,0,0,0.010850694444444444,43.51128472222222,0)" xlink:href="#aw"/></g><path fill="#fff" d="M523-1512H332V160h191v152H146v-1976h377v152" id="aJ"/><path fill="#fff" d="M330-983l-302-90 46-151 302 112-9-344h153l-10 349 297-110 46 152-307 91 198 271-124 94-186-288-180 281-125-91" id="aK"/><path fill="#fff" d="M9-1664h378V312H9V160h193v-1672H9v-152" id="aL"/><g id="q"><use transform="matrix(0.010850694444444444,0,0,0.010850694444444444,0,0)" xlink:href="#az"/><use transform="matrix(0.010850694444444444,0,0,0.010850694444444444,15.277777777777777,0)" xlink:href="#aA"/><use transform="matrix(0.010850694444444444,0,0,0.010850694444444444,27.745225694444443,0)" xlink:href="#aB"/><use transform="matrix(0.010850694444444444,0,0,0.010850694444444444,33.05121527777778,0)" xlink:href="#al"/><use transform="matrix(0.010850694444444444,0,0,0.010850694444444444,44.82421875,0)" xlink:href="#aC"/><use transform="matrix(0.010850694444444444,0,0,0.010850694444444444,56.45616319444444,0)" xlink:href="#as"/><use transform="matrix(0.010850694444444444,0,0,0.010850694444444444,63.71527777777778,0)" xlink:href="#aJ"/><use transform="matrix(0.010850694444444444,0,0,0.010850694444444444,69.60720486111111,0)" xlink:href="#aK"/><use transform="matrix(0.010850694444444444,0,0,0.010850694444444444,79.17751736111111,0)" xlink:href="#aL"/></g><g id="r"><use transform="matrix(0.010850694444444444,0,0,0.010850694444444444,0,0)" xlink:href="#ao"/><use transform="matrix(0.010850694444444444,0,0,0.010850694444444444,11.631944444444445,0)" xlink:href="#as"/><use transform="matrix(0.010850694444444444,0,0,0.010850694444444444,18.891059027777775,0)" xlink:href="#aw"/><use transform="matrix(0.010850694444444444,0,0,0.010850694444444444,30.97873263888889,0)" xlink:href="#ah"/><use transform="matrix(0.010850694444444444,0,0,0.010850694444444444,36.37152777777777,0)" xlink:href="#ar"/></g><g id="s"><use transform="matrix(0.010850694444444444,0,0,0.010850694444444444,0,0)" xlink:href="#aA"/><use transform="matrix(0.010850694444444444,0,0,0.010850694444444444,12.467447916666666,0)" xlink:href="#aE"/><use transform="matrix(0.010850694444444444,0,0,0.010850694444444444,25.14105902777778,0)" xlink:href="#aE"/><use transform="matrix(0.010850694444444444,0,0,0.010850694444444444,37.814670138888886,0)" xlink:href="#ar"/><use transform="matrix(0.010850694444444444,0,0,0.010850694444444444,43.20746527777777,0)" xlink:href="#al"/><use transform="matrix(0.010850694444444444,0,0,0.010850694444444444,54.980468749999986,0)" xlink:href="#aw"/><use transform="matrix(0.010850694444444444,0,0,0.010850694444444444,67.0681423611111,0)" xlink:href="#ai"/></g><g id="t"><use transform="matrix(0.010850694444444444,0,0,0.010850694444444444,0,0)" xlink:href="#az"/><use transform="matrix(0.010850694444444444,0,0,0.010850694444444444,15.277777777777777,0)" xlink:href="#aA"/><use transform="matrix(0.010850694444444444,0,0,0.010850694444444444,27.745225694444443,0)" xlink:href="#aB"/><use transform="matrix(0.010850694444444444,0,0,0.010850694444444444,33.05121527777778,0)" xlink:href="#al"/><use transform="matrix(0.010850694444444444,0,0,0.010850694444444444,44.82421875,0)" xlink:href="#aC"/><use transform="matrix(0.010850694444444444,0,0,0.010850694444444444,56.45616319444444,0)" xlink:href="#as"/></g><path fill="#fff" d="M1288 0h-193L362-1122V0H169v-1456h193l735 1127v-1127h191V0" id="aM"/><g id="u"><use transform="matrix(0.010850694444444444,0,0,0.010850694444444444,0,0)" xlink:href="#aM"/><use transform="matrix(0.010850694444444444,0,0,0.010850694444444444,15.842013888888888,0)" xlink:href="#aE"/><use transform="matrix(0.010850694444444444,0,0,0.010850694444444444,28.515625,0)" xlink:href="#am"/><use transform="matrix(0.010850694444444444,0,0,0.010850694444444444,41.04817708333333,0)" xlink:href="#al"/></g><use transform="matrix(0.010850694444444444,0,0,0.010850694444444444,0,0)" xlink:href="#ao" id="v"/><g id="w"><use transform="matrix(0.010850694444444444,0,0,0.010850694444444444,0,0)" xlink:href="#am"/><use transform="matrix(0.010850694444444444,0,0,0.010850694444444444,12.532552083333332,0)" xlink:href="#aw"/><use transform="matrix(0.010850694444444444,0,0,0.010850694444444444,24.620225694444443,0)" xlink:href="#as"/><use transform="matrix(0.010850694444444444,0,0,0.010850694444444444,31.879340277777775,0)" xlink:href="#aw"/></g><use transform="matrix(0.010850694444444444,0,0,0.010850694444444444,0,0)" xlink:href="#ao" id="x"/><path fill="#fff" d="M503-687l240-395h216L605-547 970 0H756L506-405 256 0H41l365-547-354-535h214" id="aN"/><g id="y"><use transform="matrix(0.010850694444444444,0,0,0.010850694444444444,0,0)" xlink:href="#ai"/><use transform="matrix(0.010850694444444444,0,0,0.010850694444444444,12.261284722222221,0)" xlink:href="#al"/><use transform="matrix(0.010850694444444444,0,0,0.010850694444444444,24.034288194444443,0)" xlink:href="#aN"/><use transform="matrix(0.010850694444444444,0,0,0.010850694444444444,35.04774305555556,0)" xlink:href="#as"/></g><g id="z"><use transform="matrix(0.010850694444444444,0,0,0.010850694444444444,0,0)" xlink:href="#aM"/><use transform="matrix(0.010850694444444444,0,0,0.010850694444444444,15.842013888888888,0)" xlink:href="#aE"/><use transform="matrix(0.010850694444444444,0,0,0.010850694444444444,28.515625,0)" xlink:href="#am"/><use transform="matrix(0.010850694444444444,0,0,0.010850694444444444,41.04817708333333,0)" xlink:href="#al"/></g><path fill="#fff" d="M673-507H110v-233h563v233" id="aO"/><path fill="#fff" d="M750-685c-1-124-48-182-173-182-85 0-146 33-184 98V0H104v-1536h289v572c77-92 173-138 289-138 235 0 357 136 357 409V0H750v-685" id="aP"/><path fill="#fff" d="M1031-175C952-60 797 20 609 20 287 20 60-206 72-543c12-330 180-559 505-559 309 0 482 214 477 537v118H365c15 134 115 234 263 234 111 0 198-40 261-121zM770-644c5-139-62-226-194-224-130 1-191 97-208 224h402" id="aQ"/><path fill="#fff" d="M552-1102c254-4 435 134 435 383v469c1 103 15 180 43 233V0H738c-13-26-23-58-29-97C639-19 548 20 436 20 238 20 64-113 68-304c5-258 212-357 496-357h133c11-137-29-227-160-227-90 0-156 45-156 131H92c15-231 213-342 460-345zM357-325c0 76 61 124 142 124 88 0 168-45 198-105v-186H589c-152 2-232 51-232 167" id="aR"/><path fill="#fff" d="M488 20C204 20 66-234 66-549c0-305 140-551 424-553 105 0 192 39 261 118v-552h290V0H780l-14-115C694-25 601 20 488 20zM355-528c0 176 51 314 207 314 89 0 152-38 189-113v-427c-36-75-98-113-187-113-139 0-209 113-209 339" id="aS"/><g id="A"><use transform="matrix(0.008680555555555556,0,0,0.008680555555555556,0,0)" xlink:href="#aO"/><use transform="matrix(0.008680555555555556,0,0,0.008680555555555556,11.319444444444446,0)" xlink:href="#aP"/><use transform="matrix(0.008680555555555556,0,0,0.008680555555555556,21.267361111111114,0)" xlink:href="#aQ"/><use transform="matrix(0.008680555555555556,0,0,0.008680555555555556,30.87673611111111,0)" xlink:href="#aR"/><use transform="matrix(0.008680555555555556,0,0,0.008680555555555556,40.407986111111114,0)" xlink:href="#aS"/></g><use transform="matrix(0.008680555555555556,0,0,0.008680555555555556,0,0)" xlink:href="#aO" id="B"/><path fill="#fff" d="M457-330c2 83 25 111 111 112 32 0 60-2 85-7V-6c-57 17-115 26-175 26-203 0-310-102-310-307v-583H10v-212h158v-266h289v266h185v212H457v540" id="aT"/><path fill="#fff" d="M416 0H126v-1082h290V0zM271-1212c-92 0-162-61-162-150s68-149 162-149c93 0 162 60 162 149s-70 150-162 150" id="aU"/><path fill="#fff" d="M416 0H126v-1536h290V0" id="aV"/><g id="C"><use transform="matrix(0.008680555555555556,0,0,0.008680555555555556,0,0)" xlink:href="#aT"/><use transform="matrix(0.008680555555555556,0,0,0.008680555555555556,6.006944444444445,0)" xlink:href="#aR"/><use transform="matrix(0.008680555555555556,0,0,0.008680555555555556,15.538194444444445,0)" xlink:href="#aU"/><use transform="matrix(0.008680555555555556,0,0,0.008680555555555556,20.25173611111111,0)" xlink:href="#aV"/></g><g id="D"><use transform="matrix(0.010850694444444444,0,0,0.010850694444444444,0,0)" xlink:href="#aH"/><use transform="matrix(0.010850694444444444,0,0,0.010850694444444444,14.496527777777777,0)" xlink:href="#aF"/><use transform="matrix(0.010850694444444444,0,0,0.010850694444444444,22.01605902777778,0)" xlink:href="#aF"/><use transform="matrix(0.010850694444444444,0,0,0.010850694444444444,29.1015625,0)" xlink:href="#aw"/><use transform="matrix(0.010850694444444444,0,0,0.010850694444444444,41.02647569444444,0)" xlink:href="#aI"/><use transform="matrix(0.010850694444444444,0,0,0.010850694444444444,51.54079861111111,0)" xlink:href="#an"/><use transform="matrix(0.010850694444444444,0,0,0.010850694444444444,66.81857638888889,0)" xlink:href="#ak"/><use transform="matrix(0.010850694444444444,0,0,0.010850694444444444,79.06901041666666,0)" xlink:href="#al"/><use transform="matrix(0.010850694444444444,0,0,0.010850694444444444,90.84201388888889,0)" xlink:href="#ak"/><use transform="matrix(0.010850694444444444,0,0,0.010850694444444444,103.09244791666666,0)" xlink:href="#al"/><use transform="matrix(0.010850694444444444,0,0,0.010850694444444444,114.86545138888889,0)" xlink:href="#aG"/><use transform="matrix(0.010850694444444444,0,0,0.010850694444444444,120.90928819444444,0)" xlink:href="#as"/><use transform="matrix(0.010850694444444444,0,0,0.010850694444444444,128.16840277777777,0)" xlink:href="#al"/><use transform="matrix(0.010850694444444444,0,0,0.010850694444444444,139.94140625,0)" xlink:href="#aF"/><use transform="matrix(0.010850694444444444,0,0,0.010850694444444444,147.02690972222223,0)" xlink:href="#aw"/><use transform="matrix(0.010850694444444444,0,0,0.010850694444444444,159.11458333333334,0)" xlink:href="#as"/><use transform="matrix(0.010850694444444444,0,0,0.010850694444444444,166.1566840277778,0)" xlink:href="#aE"/><use transform="matrix(0.010850694444444444,0,0,0.010850694444444444,178.8302951388889,0)" xlink:href="#aF"/></g><g id="E"><use transform="matrix(0.010850694444444444,0,0,0.010850694444444444,0,0)" xlink:href="#ao"/><use transform="matrix(0.010850694444444444,0,0,0.010850694444444444,11.631944444444445,0)" xlink:href="#aC"/><use transform="matrix(0.010850694444444444,0,0,0.010850694444444444,23.26388888888889,0)" xlink:href="#ak"/><use transform="matrix(0.010850694444444444,0,0,0.010850694444444444,35.514322916666664,0)" xlink:href="#aF"/><use transform="matrix(0.010850694444444444,0,0,0.010850694444444444,43.033854166666664,0)" xlink:href="#at"/><use transform="matrix(0.010850694444444444,0,0,0.010850694444444444,54.4921875,0)" xlink:href="#aE"/><use transform="matrix(0.010850694444444444,0,0,0.010850694444444444,67.16579861111111,0)" xlink:href="#aF"/></g><path fill="#fff" d="M589-945c-131 0-219 81-264 174V0H140v-1536h185v585c82-101 189-151 320-151 229 0 346 129 346 387V0H806v-716c-2-153-65-229-217-229" id="aW"/><g id="F"><use transform="matrix(0.010850694444444444,0,0,0.010850694444444444,0,0)" xlink:href="#aW"/><use transform="matrix(0.010850694444444444,0,0,0.010850694444444444,12.239583333333332,0)" xlink:href="#aw"/><use transform="matrix(0.010850694444444444,0,0,0.010850694444444444,24.327256944444443,0)" xlink:href="#at"/><use transform="matrix(0.010850694444444444,0,0,0.010850694444444444,35.78559027777777,0)" xlink:href="#aM"/><use transform="matrix(0.010850694444444444,0,0,0.010850694444444444,51.62760416666666,0)" xlink:href="#al"/><use transform="matrix(0.010850694444444444,0,0,0.010850694444444444,63.40060763888888,0)" xlink:href="#aN"/><use transform="matrix(0.010850694444444444,0,0,0.010850694444444444,74.41406249999999,0)" xlink:href="#as"/><use transform="matrix(0.010850694444444444,0,0,0.010850694444444444,81.67317708333331,0)" xlink:href="#ax"/><use transform="matrix(0.010850694444444444,0,0,0.010850694444444444,89.26866319444441,0)" xlink:href="#aD"/></g><g id="G"><use transform="matrix(0.010850694444444444,0,0,0.010850694444444444,0,0)" xlink:href="#ai"/><use transform="matrix(0.010850694444444444,0,0,0.010850694444444444,12.261284722222221,0)" xlink:href="#al"/><use transform="matrix(0.010850694444444444,0,0,0.010850694444444444,24.034288194444443,0)" xlink:href="#aN"/><use transform="matrix(0.010850694444444444,0,0,0.010850694444444444,35.04774305555556,0)" xlink:href="#as"/><use transform="matrix(0.010850694444444444,0,0,0.010850694444444444,42.30685763888889,0)" xlink:href="#ax"/><use transform="matrix(0.010850694444444444,0,0,0.010850694444444444,49.90234375,0)" xlink:href="#aD"/></g><g id="H"><use transform="matrix(0.010850694444444444,0,0,0.010850694444444444,0,0)" xlink:href="#az"/><use transform="matrix(0.010850694444444444,0,0,0.010850694444444444,15.277777777777777,0)" xlink:href="#aA"/><use transform="matrix(0.010850694444444444,0,0,0.010850694444444444,27.745225694444443,0)" xlink:href="#aB"/><use transform="matrix(0.010850694444444444,0,0,0.010850694444444444,33.05121527777778,0)" xlink:href="#al"/><use transform="matrix(0.010850694444444444,0,0,0.010850694444444444,44.82421875,0)" xlink:href="#aC"/><use transform="matrix(0.010850694444444444,0,0,0.010850694444444444,56.45616319444444,0)" xlink:href="#as"/></g><path fill="#fff" d="M442-501L326-380V0H141v-1536h185v929c135-169 291-317 436-475h225L566-630 1036 0H819" id="aX"/><g id="I"><use transform="matrix(0.010850694444444444,0,0,0.010850694444444444,0,0)" xlink:href="#ag"/><use transform="matrix(0.010850694444444444,0,0,0.010850694444444444,11.957465277777777,0)" xlink:href="#ah"/><use transform="matrix(0.010850694444444444,0,0,0.010850694444444444,17.350260416666664,0)" xlink:href="#ai"/><use transform="matrix(0.010850694444444444,0,0,0.010850694444444444,29.61154513888889,0)" xlink:href="#aX"/><use transform="matrix(0.010850694444444444,0,0,0.010850694444444444,40.65755208333333,0)" xlink:href="#al"/><use transform="matrix(0.010850694444444444,0,0,0.010850694444444444,52.43055555555556,0)" xlink:href="#am"/><use transform="matrix(0.010850694444444444,0,0,0.010850694444444444,64.96310763888889,0)" xlink:href="#an"/><use transform="matrix(0.010850694444444444,0,0,0.010850694444444444,80.24088541666666,0)" xlink:href="#ak"/><use transform="matrix(0.010850694444444444,0,0,0.010850694444444444,92.49131944444441,0)" xlink:href="#al"/><use transform="matrix(0.010850694444444444,0,0,0.010850694444444444,104.26432291666666,0)" xlink:href="#ak"/><use transform="matrix(0.010850694444444444,0,0,0.010850694444444444,116.51475694444441,0)" xlink:href="#al"/><use transform="matrix(0.010850694444444444,0,0,0.010850694444444444,128.28776041666666,0)" xlink:href="#aG"/><use transform="matrix(0.010850694444444444,0,0,0.010850694444444444,134.3315972222222,0)" xlink:href="#as"/><use transform="matrix(0.010850694444444444,0,0,0.010850694444444444,141.59071180555554,0)" xlink:href="#al"/><use transform="matrix(0.010850694444444444,0,0,0.010850694444444444,153.36371527777777,0)" xlink:href="#aF"/><use transform="matrix(0.010850694444444444,0,0,0.010850694444444444,160.44921875,0)" xlink:href="#aw"/><use transform="matrix(0.010850694444444444,0,0,0.010850694444444444,172.53689236111111,0)" xlink:href="#as"/><use transform="matrix(0.010850694444444444,0,0,0.010850694444444444,179.5789930555556,0)" xlink:href="#aE"/><use transform="matrix(0.010850694444444444,0,0,0.010850694444444444,192.25260416666669,0)" xlink:href="#aF"/></g><path fill="#fff" d="M355-556c-2 203 30 338 206 343 102 3 181-63 182-161h271C1001-128 821 17 566 20 242 24 66-212 66-554c0-320 184-548 498-548 262 0 451 167 450 423H743c-1-108-75-193-184-189-162 6-202 123-204 312" id="aY"/><path fill="#fff" d="M463 20c-241-1-359-147-359-393v-709h289v699c0 113 51 169 154 169 98 0 165-34 202-102v-766h290V0H767l-8-110C688-23 589 20 463 20" id="aZ"/><path fill="#fff" d="M719-811c-143-24-279 1-319 103V0H111v-1082h273l8 129c74-124 180-175 331-136" id="ba"/><path fill="#fff" d="M529-185c94 0 168-33 168-114 0-35-18-63-53-83s-91-39-168-55C219-491 90-600 90-765c0-208 203-337 432-337 246 0 451 124 453 349H686c-2-91-62-143-165-143-86 0-151 41-153 117 0 32 16 57 46 77 63 43 257 69 335 100 151 60 229 153 229 291C978-13 554 93 282-28 162-81 60-190 56-344h274c5 106 86 159 199 159" id="bb"/><path fill="#fff" d="M579 20C257 20 58-214 66-551c8-331 182-551 511-551 324 0 514 231 514 572 0 319-198 550-512 550zm-2-888c-169 0-222 141-222 338 0 181 61 317 224 317 170 0 223-137 223-338 0-178-64-317-225-317" id="bc"/><g id="J"><use transform="matrix(0.008680555555555556,0,0,0.008680555555555556,0,0)" xlink:href="#aO"/><use transform="matrix(0.008680555555555556,0,0,0.008680555555555556,11.319444444444446,0)" xlink:href="#aY"/><use transform="matrix(0.008680555555555556,0,0,0.008680555555555556,20.59027777777778,0)" xlink:href="#aZ"/><use transform="matrix(0.008680555555555556,0,0,0.008680555555555556,30.538194444444446,0)" xlink:href="#ba"/><use transform="matrix(0.008680555555555556,0,0,0.008680555555555556,37.02256944444444,0)" xlink:href="#bb"/><use transform="matrix(0.008680555555555556,0,0,0.008680555555555556,46.16319444444445,0)" xlink:href="#bc"/><use transform="matrix(0.008680555555555556,0,0,0.008680555555555556,56.21527777777778,0)" xlink:href="#ba"/></g><path fill="#fff" d="M1222-777c17 480-206 763-650 777H169v-1456h411c408 9 627 269 642 679zm-190 4c3-312-149-522-447-525H361v1141h202c308 0 473-209 469-531v-85" id="bd"/><g id="K"><use transform="matrix(0.010850694444444444,0,0,0.010850694444444444,0,0)" xlink:href="#bd"/><use transform="matrix(0.010850694444444444,0,0,0.010850694444444444,14.572482638888888,0)" xlink:href="#aF"/><use transform="matrix(0.010850694444444444,0,0,0.010850694444444444,22.092013888888886,0)" xlink:href="#ah"/><use transform="matrix(0.010850694444444444,0,0,0.010850694444444444,27.48480902777778,0)" xlink:href="#ay"/><use transform="matrix(0.010850694444444444,0,0,0.010850694444444444,38.107638888888886,0)" xlink:href="#al"/><use transform="matrix(0.010850694444444444,0,0,0.010850694444444444,49.88064236111111,0)" xlink:href="#aF"/></g><use transform="matrix(0.010850694444444444,0,0,0.010850694444444444,0,0)" xlink:href="#av" id="L"/><path fill="#fff" d="M521 20C240 20 96-239 96-550c0-303 147-552 427-552 132 0 235 47 309 140l9-120h169V-26c4 277-183 454-459 452-165-1-334-81-400-187l96-111c79 98 176 147 291 147 180 1 288-109 286-290v-93C750-23 649 20 521 20zm48-965c-209 0-287 178-287 416 0 217 86 392 285 392 117 0 202-53 257-159v-494c-57-103-142-155-255-155" id="be"/><g id="M"><use transform="matrix(0.010850694444444444,0,0,0.010850694444444444,0,0)" xlink:href="#ap"/><use transform="matrix(0.010850694444444444,0,0,0.010850694444444444,19.47699652777778,0)" xlink:href="#aw"/><use transform="matrix(0.010850694444444444,0,0,0.010850694444444444,31.56467013888889,0)" xlink:href="#ah"/><use transform="matrix(0.010850694444444444,0,0,0.010850694444444444,36.95746527777778,0)" xlink:href="#ai"/><use transform="matrix(0.010850694444444444,0,0,0.010850694444444444,49.21875,0)" xlink:href="#ax"/><use transform="matrix(0.010850694444444444,0,0,0.010850694444444444,56.81423611111112,0)" xlink:href="#aw"/><use transform="matrix(0.010850694444444444,0,0,0.010850694444444444,68.90190972222223,0)" xlink:href="#aF"/><use transform="matrix(0.010850694444444444,0,0,0.010850694444444444,76.21527777777779,0)" xlink:href="#be"/><use transform="matrix(0.010850694444444444,0,0,0.010850694444444444,88.68272569444446,0)" xlink:href="#at"/><path fill="#fff" d="M-1.1 1.1h107.85v1.08H-1.1z"/></g><g id="N"><use transform="matrix(0.010850694444444444,0,0,0.010850694444444444,0,0)" xlink:href="#au"/><path fill="#fff" d="M-1.1 1.1H12v1.08H-1.1z"/></g><path fill="#fff" d="M631-137c179 0 314-70 314-231 0-71-25-127-75-166s-141-77-272-115c-165-47-285-106-360-175s-112-154-112-255c0-245 231-397 495-397 206 0 369 89 449 218 43 68 65 142 65 223H942c0-184-129-283-321-283-172 0-299 76-301 236 0 59 26 109 76 150s135 78 256 113c205 59 345 116 436 256 35 53 50 119 50 193-2 256-231 398-507 390C333 12 90-129 80-422h193c0 187 160 285 358 285" id="bf"/><g id="O"><use transform="matrix(0.010850694444444444,0,0,0.010850694444444444,0,0)" xlink:href="#bf"/><use transform="matrix(0.010850694444444444,0,0,0.010850694444444444,13.18359375,0)" xlink:href="#as"/><use transform="matrix(0.010850694444444444,0,0,0.010850694444444444,20.442708333333332,0)" xlink:href="#aF"/><use transform="matrix(0.010850694444444444,0,0,0.010850694444444444,27.962239583333332,0)" xlink:href="#ah"/><use transform="matrix(0.010850694444444444,0,0,0.010850694444444444,33.35503472222222,0)" xlink:href="#ai"/><use transform="matrix(0.010850694444444444,0,0,0.010850694444444444,45.61631944444444,0)" xlink:href="#be"/><use transform="matrix(0.010850694444444444,0,0,0.010850694444444444,58.08376736111111,0)" xlink:href="#aJ"/><use transform="matrix(0.010850694444444444,0,0,0.010850694444444444,63.97569444444444,0)" xlink:href="#aL"/><use transform="matrix(0.010850694444444444,0,0,0.010850694444444444,69.86762152777777,0)" xlink:href="#aD"/><path fill="#fff" d="M-1.1 1.1h79.8v1.08H-1.1z"/></g><path fill="#fff" d="M15-91v-56l181-69v40L49-119l147 57v40" id="bg"/><path fill="#fff" d="M25-224v-37h50v37H25zM25 0v-190h50V0H25" id="bh"/><path fill="#fff" d="M135-194c87-1 58 113 63 194h-50c-7-57 23-157-34-157-59 0-34 97-39 157H25l-1-190h47c2 12-1 28 3 38 12-26 28-41 61-42" id="bi"/><path fill="#fff" d="M115-3C79 11 28 4 28-45v-112H4v-33h27l15-45h31v45h36v33H77v99c-1 23 16 31 38 25v30" id="bj"/><path fill="#fff" d="M185-48c-13 30-37 53-82 52C43 2 14-33 14-96s30-98 90-98c62 0 83 45 84 108H66c0 31 8 55 39 56 18 0 30-7 34-22zm-45-69c5-46-57-63-70-21-2 6-4 13-4 21h74" id="bk"/><path fill="#fff" d="M135-150c-39-12-60 13-60 57V0H25l-1-190h47c2 13-1 29 3 40 6-28 27-53 61-41v41" id="bl"/><path fill="#fff" d="M121-226c-27-7-43 5-38 36h38v33H83V0H34v-157H6v-33h28c-9-59 32-81 87-68v32" id="bm"/><path fill="#fff" d="M133-34C117-15 103 5 69 4 32 3 11-16 11-54c-1-60 55-63 116-61 1-26-3-47-28-47-18 1-26 9-28 27l-52-2c7-38 36-58 82-57s74 22 75 68l1 82c-1 14 12 18 25 15v27c-30 8-71 5-69-32zm-48 3c29 0 43-24 42-57-32 0-66-3-65 30 0 17 8 27 23 27" id="bn"/><path fill="#fff" d="M190-63c-7 42-38 67-86 67-59 0-84-38-90-98-12-110 154-137 174-36l-49 2c-2-19-15-32-35-32-30 0-35 28-38 64-6 74 65 87 74 30" id="bo"/><path fill="#fff" d="M15-22v-40l146-57-146-57v-40l181 69v56" id="bp"/><g id="P"><use transform="matrix(0.05,0,0,0.05,0,0)" xlink:href="#bg"/><use transform="matrix(0.05,0,0,0.05,10.5,0)" xlink:href="#bg"/><use transform="matrix(0.05,0,0,0.05,21,0)" xlink:href="#bh"/><use transform="matrix(0.05,0,0,0.05,26,0)" xlink:href="#bi"/><use transform="matrix(0.05,0,0,0.05,36.95,0)" xlink:href="#bj"/><use transform="matrix(0.05,0,0,0.05,42.900000000000006,0)" xlink:href="#bk"/><use transform="matrix(0.05,0,0,0.05,52.900000000000006,0)" xlink:href="#bl"/><use transform="matrix(0.05,0,0,0.05,59.900000000000006,0)" xlink:href="#bm"/><use transform="matrix(0.05,0,0,0.05,65.85000000000001,0)" xlink:href="#bn"/><use transform="matrix(0.05,0,0,0.05,75.85000000000001,0)" xlink:href="#bo"/><use transform="matrix(0.05,0,0,0.05,85.85000000000001,0)" xlink:href="#bk"/><use transform="matrix(0.05,0,0,0.05,95.85000000000001,0)" xlink:href="#bp"/><use transform="matrix(0.05,0,0,0.05,106.35000000000001,0)" xlink:href="#bp"/></g><path fill="#fff" d="M140-251c80 0 125 45 125 126 0 70-33 111-92 124 6 28 34 38 68 31l-1 36C177 83 129 55 120 2 51-6 15-50 15-125c0-81 44-126 125-126zm-1 214c52 0 73-35 73-88 0-50-21-86-72-86-52 0-73 35-73 86s22 88 72 88" id="bq"/><path fill="#fff" d="M85 4C-2 5 27-109 22-190h50c7 57-23 150 33 157 60-5 35-97 40-157h50l1 190h-47c-2-12 1-28-3-38-12 25-28 42-61 42" id="br"/><g id="Q"><use transform="matrix(0.05,0,0,0.05,0,0)" xlink:href="#bq"/><use transform="matrix(0.05,0,0,0.05,14,0)" xlink:href="#br"/><use transform="matrix(0.05,0,0,0.05,24.950000000000003,0)" xlink:href="#bk"/><use transform="matrix(0.05,0,0,0.05,34.95,0)" xlink:href="#br"/><use transform="matrix(0.05,0,0,0.05,45.900000000000006,0)" xlink:href="#bk"/></g><path fill="#fff" d="M24 0v-248h52V0H24" id="bs"/><path fill="#fff" d="M110-194c64 0 96 36 96 99 0 64-35 99-97 99-61 0-95-36-95-99 0-62 34-99 96-99zm-1 164c35 0 45-28 45-65 0-40-10-65-43-65-34 0-45 26-45 65 0 36 10 65 43 65" id="bt"/><g id="R"><use transform="matrix(0.05,0,0,0.05,0,0)" xlink:href="#bq"/><use transform="matrix(0.05,0,0,0.05,14,0)" xlink:href="#br"/><use transform="matrix(0.05,0,0,0.05,24.950000000000003,0)" xlink:href="#bk"/><use transform="matrix(0.05,0,0,0.05,34.95,0)" xlink:href="#br"/><use transform="matrix(0.05,0,0,0.05,45.900000000000006,0)" xlink:href="#bk"/><use transform="matrix(0.05,0,0,0.05,55.900000000000006,0)" xlink:href="#bs"/><use transform="matrix(0.05,0,0,0.05,60.900000000000006,0)" xlink:href="#bj"/><use transform="matrix(0.05,0,0,0.05,66.85000000000001,0)" xlink:href="#bk"/><use transform="matrix(0.05,0,0,0.05,76.85000000000001,0)" xlink:href="#bl"/><use transform="matrix(0.05,0,0,0.05,83.85000000000001,0)" xlink:href="#bn"/><use transform="matrix(0.05,0,0,0.05,93.85000000000001,0)" xlink:href="#bj"/><use transform="matrix(0.05,0,0,0.05,99.80000000000001,0)" xlink:href="#bt"/><use transform="matrix(0.05,0,0,0.05,110.75,0)" xlink:href="#bl"/></g><g id="S"><use transform="matrix(0.010850694444444444,0,0,0.010850694444444444,0,0)" xlink:href="#aF"/><use transform="matrix(0.010850694444444444,0,0,0.010850694444444444,7.313368055555555,0)" xlink:href="#al"/><use transform="matrix(0.010850694444444444,0,0,0.010850694444444444,19.08637152777778,0)" xlink:href="#ap"/><use transform="matrix(0.010850694444444444,0,0,0.010850694444444444,38.56336805555556,0)" xlink:href="#aE"/><use transform="matrix(0.010850694444444444,0,0,0.010850694444444444,51.07421875,0)" xlink:href="#ay"/><use transform="matrix(0.010850694444444444,0,0,0.010850694444444444,61.69704861111112,0)" xlink:href="#al"/><use transform="matrix(0.010850694444444444,0,0,0.010850694444444444,73.47005208333334,0)" xlink:href="#aD"/></g><g id="T"><use transform="matrix(0.009765624999999998,0,0,0.009765624999999998,0,0)" xlink:href="#X"/><use transform="matrix(0.009765624999999998,0,0,0.009765624999999998,13.017578124999998,0)" xlink:href="#Y"/><use transform="matrix(0.009765624999999998,0,0,0.009765624999999998,24.423828124999996,0)" xlink:href="#ae"/><use transform="matrix(0.009765624999999998,0,0,0.009765624999999998,29.277343749999996,0)" xlink:href="#ae"/><use transform="matrix(0.009765624999999998,0,0,0.009765624999999998,34.13085937499999,0)" xlink:href="#ac"/><use transform="matrix(0.009765624999999998,0,0,0.009765624999999998,44.72656249999999,0)" xlink:href="#aa"/><use transform="matrix(0.009765624999999998,0,0,0.009765624999999998,55.19531249999999,0)" xlink:href="#ad"/><use transform="matrix(0.009765624999999998,0,0,0.009765624999999998,61.728515624999986,0)" xlink:href="#af"/><use transform="matrix(0.009765624999999998,0,0,0.009765624999999998,66.58203124999999,0)" xlink:href="#Y"/><use transform="matrix(0.009765624999999998,0,0,0.009765624999999998,77.98828124999999,0)" xlink:href="#Z"/></g><g id="U"><use transform="matrix(0.009765624999999998,0,0,0.009765624999999998,0,0)" xlink:href="#X"/><use transform="matrix(0.009765624999999998,0,0,0.009765624999999998,13.017578124999998,0)" xlink:href="#ae"/><use transform="matrix(0.009765624999999998,0,0,0.009765624999999998,17.871093749999996,0)" xlink:href="#af"/><use transform="matrix(0.009765624999999998,0,0,0.009765624999999998,22.724609374999996,0)" xlink:href="#ac"/><use transform="matrix(0.009765624999999998,0,0,0.009765624999999998,33.32031249999999,0)" xlink:href="#Z"/><use transform="matrix(0.009765624999999998,0,0,0.009765624999999998,44.35546874999999,0)" xlink:href="#ad"/></g><path fill="#dfe3e8" d="M375 0H183v-1456h192V0" id="bu"/><path fill="#dfe3e8" d="M561-1102c238-4 403 126 403 351v498c0 99 13 178 38 237V0H808c-11-21-19-59-26-114C696-25 593 20 474 20c-199 0-368-130-365-320 4-251 214-359 490-356h180v-85c-1-135-86-212-229-212-115 0-232 67-233 171H131c20-205 206-316 430-320zM294-326c0 117 90 185 207 185 122 0 239-75 278-162v-222H634c-227 0-340 66-340 199" id="bv"/><g id="V"><use transform="matrix(0.009765624999999998,0,0,0.009765624999999998,0,0)" xlink:href="#bu"/><use transform="matrix(0.009765624999999998,0,0,0.009765624999999998,5.439453124999999,0)" xlink:href="#ad"/><use transform="matrix(0.009765624999999998,0,0,0.009765624999999998,11.972656249999998,0)" xlink:href="#ac"/><use transform="matrix(0.009765624999999998,0,0,0.009765624999999998,22.568359374999996,0)" xlink:href="#ab"/><use transform="matrix(0.009765624999999998,0,0,0.009765624999999998,28.945312499999996,0)" xlink:href="#bv"/><use transform="matrix(0.009765624999999998,0,0,0.009765624999999998,39.82421874999999,0)" xlink:href="#ad"/><use transform="matrix(0.009765624999999998,0,0,0.009765624999999998,46.16210937499999,0)" xlink:href="#Y"/><use transform="matrix(0.009765624999999998,0,0,0.009765624999999998,57.56835937499999,0)" xlink:href="#ab"/></g><g id="W"><use transform="matrix(0.009765624999999998,0,0,0.009765624999999998,0,0)" xlink:href="#X"/><use transform="matrix(0.009765624999999998,0,0,0.009765624999999998,13.017578124999998,0)" xlink:href="#Y"/><use transform="matrix(0.009765624999999998,0,0,0.009765624999999998,24.423828124999996,0)" xlink:href="#Z"/><use transform="matrix(0.009765624999999998,0,0,0.009765624999999998,35.45898437499999,0)" xlink:href="#aa"/><use transform="matrix(0.009765624999999998,0,0,0.009765624999999998,45.92773437499999,0)" xlink:href="#ab"/><use transform="matrix(0.009765624999999998,0,0,0.009765624999999998,52.50976562499999,0)" xlink:href="#ac"/><use transform="matrix(0.009765624999999998,0,0,0.009765624999999998,63.105468749999986,0)" xlink:href="#ad"/><use transform="matrix(0.009765624999999998,0,0,0.009765624999999998,69.63867187499999,0)" xlink:href="#ac"/><use transform="matrix(0.009765624999999998,0,0,0.009765624999999998,80.23437499999999,0)" xlink:href="#bu"/><use transform="matrix(0.009765624999999998,0,0,0.009765624999999998,85.67382812499999,0)" xlink:href="#ad"/><use transform="matrix(0.009765624999999998,0,0,0.009765624999999998,92.20703124999999,0)" xlink:href="#ac"/><use transform="matrix(0.009765624999999998,0,0,0.009765624999999998,102.80273437499999,0)" xlink:href="#ab"/><use transform="matrix(0.009765624999999998,0,0,0.009765624999999998,109.17968749999999,0)" xlink:href="#bv"/><use transform="matrix(0.009765624999999998,0,0,0.009765624999999998,120.05859374999997,0)" xlink:href="#ad"/><use transform="matrix(0.009765624999999998,0,0,0.009765624999999998,126.39648437499997,0)" xlink:href="#Y"/><use transform="matrix(0.009765624999999998,0,0,0.009765624999999998,137.80273437499997,0)" xlink:href="#ab"/></g></defs></g></svg>