<svg xmlns="http://www.w3.org/2000/svg" xmlns:xlink="http://www.w3.org/1999/xlink" xmlns:lucid="lucid" width="1260" height="686.5"><g transform="translate(-40 -100)" lucid:page-tab-id="P_hluDl1mSPL"><path d="M119.75 239.75c0 10.9-8.84 19.75-19.75 19.75-10.9 0-19.75-8.84-19.75-19.75 0-10.9 8.84-19.75 19.75-19.75 10.9 0 19.75 8.84 19.75 19.75z" stroke="#fff" stroke-width="3" fill-opacity="0"/><path d="M100 259.5v49.3c0 3.3 1.44 8.27 3.2 11.07L140 378m-40-63.2L60 378m0-98.75h80" stroke="#fff" stroke-width="3" fill="none"/><path d="M60 226c0-3.3 2.7-6 6-6h68c3.3 0 6 2.7 6 6v168c0 3.3-2.7 6-6 6H66c-3.3 0-6-2.7-6-6z" fill="none"/><use xlink:href="#a" transform="matrix(1,0,0,1,-20,378) translate(94.10493827160494 17.77777777777778)"/><path d="M300 126c0-3.3 2.7-6 6-6h148c3.3 0 6 2.7 6 6v88c0 3.3-2.7 6-6 6H306c-3.3 0-6-2.7-6-6z" stroke="#fff" stroke-width="3" fill-opacity="0"/><use xlink:href="#b" transform="matrix(1,0,0,1,300,120) translate(34.60499999999999 55.025)"/><path d="M560 126c0-3.3 2.7-6 6-6h148c3.3 0 6 2.7 6 6v88c0 3.3-2.7 6-6 6H566c-3.3 0-6-2.7-6-6z" stroke="#fff" stroke-width="3" fill-opacity="0"/><use xlink:href="#c" transform="matrix(1,0,0,1,560,120) translate(49.029999999999994 55.025)"/><path d="M920 126c0-3.3 2.7-6 6-6h148c3.3 0 6 2.7 6 6v88c0 3.3-2.7 6-6 6H926c-3.3 0-6-2.7-6-6z" stroke="#fff" stroke-width="3" fill-opacity="0"/><use xlink:href="#d" transform="matrix(1,0,0,1,920,120) translate(11.604999999999999 55.025)"/><path d="M380 222.5v3m0 4.03v6.02m0 4v6.03m0 4.02v6.02m0 4v6.04m0 4v6.03m0 4v6.03m0 4v6.04m0 4v6.03m0 4.02v6.02m0 4v6.03m0 4.02v6m0 4.03v6.02m0 4V356m0 4.02v6.02m0 4v6.04m0 4v6.03m0 4v6.03m0 4v6.04m0 4v6.03m0 4.02v6.02m0 4v6.03m0 4.02v6m0 4.03v6.02m0 4v6.03m0 4.02v6.02m0 4v6.04m0 4v6.03m0 4v6.03m0 4v6.04m0 4v6.03m0 4.02v6.02m0 4v6.03m0 4.02v6m0 4.03v6.02m0 4v6.03m0 4.02v6.02m0 4v6.04m0 4v6.03m0 4v6.03m0 4v6.04m0 4V637m0 4.02v6.02m0 4v6.03m0 4.02v6m0 4.03v6.02m0 4v6.03m0 4.02v6.02m0 4v6.04m0 4v6.03m0 4v6.03m0 4v6.04m0 4v6.03m0 4.02v6.02m0 4v6.03m0 4.02v3" stroke="#fff" stroke-width="2" fill="none"/><path d="M381 222.53h-2v-1.03h2z" stroke="#fff" stroke-width=".05" fill="#fff"/><path d="M380 774.47v1.03M640 222.5v3m0 4.03v6.02m0 4v6.03m0 4.02v6.02m0 4v6.04m0 4v6.03m0 4v6.03m0 4v6.04m0 4v6.03m0 4.02v6.02m0 4v6.03m0 4.02v6m0 4.03v6.02m0 4V356m0 4.02v6.02m0 4v6.04m0 4v6.03m0 4v6.03m0 4v6.04m0 4v6.03m0 4.02v6.02m0 4v6.03m0 4.02v6m0 4.03v6.02m0 4v6.03m0 4.02v6.02m0 4v6.04m0 4v6.03m0 4v6.03m0 4v6.04m0 4v6.03m0 4.02v6.02m0 4v6.03m0 4.02v6m0 4.03v6.02m0 4v6.03m0 4.02v6.02m0 4v6.04m0 4v6.03m0 4v6.03m0 4v6.04m0 4V637m0 4.02v6.02m0 4v6.03m0 4.02v6m0 4.03v6.02m0 4v6.03m0 4.02v6.02m0 4v6.04m0 4v6.03m0 4v6.03m0 4v6.04m0 4v6.03m0 4.02v6.02m0 4v6.03m0 4.02v3" stroke="#fff" stroke-width="2" fill="none"/><path d="M641 222.53h-2v-1.03h2z" stroke="#fff" stroke-width=".05" fill="#fff"/><path d="M640 774.47v1.03M1000 222.5v3m0 4.03v6.02m0 4v6.03m0 4.02v6.02m0 4v6.04m0 4v6.03m0 4v6.03m0 4v6.04m0 4v6.03m0 4.02v6.02m0 4v6.03m0 4.02v6m0 4.03v6.02m0 4V356m0 4.02v6.02m0 4v6.04m0 4v6.03m0 4v6.03m0 4v6.04m0 4v6.03m0 4.02v6.02m0 4v6.03m0 4.02v6m0 4.03v6.02m0 4v6.03m0 4.02v6.02m0 4v6.04m0 4v6.03m0 4v6.03m0 4v6.04m0 4v6.03m0 4.02v6.02m0 4v6.03m0 4.02v6m0 4.03v6.02m0 4v6.03m0 4.02v6.02m0 4v6.04m0 4v6.03m0 4v6.03m0 4v6.04m0 4V637m0 4.02v6.02m0 4v6.03m0 4.02v6m0 4.03v6.02m0 4v6.03m0 4.02v6.02m0 4v6.04m0 4v6.03m0 4v6.03m0 4v6.04m0 4v6.03m0 4.02v6.02m0 4v6.03m0 4.02v3" stroke="#fff" stroke-width="2" fill="none"/><path d="M1001 222.53h-2v-1.03h2z" stroke="#fff" stroke-width=".05" fill="#fff"/><path d="M1000 774.47v1.03" stroke="#fff" stroke-width="2" fill="none"/><path d="M360 256c0-3.3 2.7-6 6-6h28c3.3 0 6 2.7 6 6v498c0 3.3-2.7 6-6 6h-28c-3.3 0-6-2.7-6-6z" stroke="#fff" stroke-width="3" fill="#282c33"/><path d="M1120 126c0-3.3 2.7-6 6-6h148c3.3 0 6 2.7 6 6v88c0 3.3-2.7 6-6 6h-148c-3.3 0-6-2.7-6-6z" stroke="#fff" stroke-width="3" fill-opacity="0"/><use xlink:href="#e" transform="matrix(1,0,0,1,1120,120) translate(26.054999999999993 55.025)"/><path d="M1200 222.5v3m0 4.03v6.02m0 4v6.03m0 4.02v6.02m0 4v6.04m0 4v6.03m0 4v6.03m0 4v6.04m0 4v6.03m0 4.02v6.02m0 4v6.03m0 4.02v6m0 4.03v6.02m0 4V356m0 4.02v6.02m0 4v6.04m0 4v6.03m0 4v6.03m0 4v6.04m0 4v6.03m0 4.02v6.02m0 4v6.03m0 4.02v6m0 4.03v6.02m0 4v6.03m0 4.02v6.02m0 4v6.04m0 4v6.03m0 4v6.03m0 4v6.04m0 4v6.03m0 4.02v6.02m0 4v6.03m0 4.02v6m0 4.03v6.02m0 4v6.03m0 4.02v6.02m0 4v6.04m0 4v6.03m0 4v6.03m0 4v6.04m0 4V637m0 4.02v6.02m0 4v6.03m0 4.02v6m0 4.03v6.02m0 4v6.03m0 4.02v6.02m0 4v6.04m0 4v6.03m0 4v6.03m0 4v6.04m0 4v6.03m0 4.02v6.02m0 4v6.03m0 4.02v3" stroke="#fff" stroke-width="2" fill="none"/><path d="M1201 222.53h-2v-1.03h2z" stroke="#fff" stroke-width=".05" fill="#fff"/><path d="M1200 774.47v1.03M141 278.67h199" stroke="#fff" stroke-width="2" fill="none"/><path d="M141.03 279.67H140v-1.92h-3v-.08h4.03z" stroke="#fff" stroke-width=".05" fill="#fff"/><path d="M355.26 278.67L341 283.3v-9.27z" stroke="#fff" stroke-width="2" fill="#fff"/><use xlink:href="#f" transform="matrix(1,0,0,1,189.66975308641975,253.33333333333334) translate(0 14.222222222222223)"/><use xlink:href="#g" transform="matrix(1,0,0,1,189.66975308641975,253.33333333333334) translate(49.23456790123457 14.222222222222223)"/><path d="M620 286c0-3.3 2.7-6 6-6h28c3.3 0 6 2.7 6 6v448c0 3.3-2.7 6-6 6h-28c-3.3 0-6-2.7-6-6z" stroke="#fff" stroke-width="3" fill="#282c33"/><path d="M402.5 298.67H600" stroke="#fff" stroke-width="2" fill="none"/><path d="M402.53 299.67h-1.03v-2h1.03z" stroke="#fff" stroke-width=".05" fill="#fff"/><path d="M615.26 298.67L601 303.3v-9.27z" stroke="#fff" stroke-width="2" fill="#fff"/><use xlink:href="#h" transform="matrix(1,0,0,1,422.7901234567901,273.33333333333326) translate(0 14.222222222222223)"/><path d="M980 326c0-3.3 2.7-6 6-6h28c3.3 0 6 2.7 6 6v368c0 3.3-2.7 6-6 6h-28c-3.3 0-6-2.7-6-6z" stroke="#fff" stroke-width="3" fill="#282c33"/><path d="M662.5 326.67H960" stroke="#fff" stroke-width="2" fill="none"/><path d="M662.53 327.67h-1.03v-2h1.03z" stroke="#fff" stroke-width=".05" fill="#fff"/><path d="M975.26 326.67L961 331.3v-9.27z" stroke="#fff" stroke-width="2" fill="#fff"/><use xlink:href="#h" transform="matrix(1,0,0,1,732.79012345679,301.3333333333333) translate(0 14.222222222222223)"/><path d="M640 386c0-3.3 2.7-6 6-6h28c3.3 0 6 2.7 6 6v288c0 3.3-2.7 6-6 6h-28c-3.3 0-6-2.7-6-6z" stroke="#fff" stroke-width="3" fill="#282c33"/><path d="M977.5 388H700" stroke="#fff" stroke-width="2" fill="none"/><path d="M978.5 389h-1.03v-2h1.03z" stroke="#fff" stroke-width=".05" fill="#fff"/><path d="M684.74 388l14.26-4.64v9.28z" stroke="#fff" stroke-width="2" fill="#fff"/><use xlink:href="#i" transform="matrix(1,0,0,1,714.2962962962963,392) translate(0 14.222222222222223)"/><path d="M682.5 528H1160" stroke="#fff" stroke-width="2" fill="none"/><path d="M682.53 529h-1.03v-2h1.03z" stroke="#fff" stroke-width=".05" fill="#fff"/><path d="M1175.26 528l-14.26 4.64v-9.28z" stroke="#fff" stroke-width="2" fill="#fff"/><use xlink:href="#j" transform="matrix(1,0,0,1,909.8518518518518,502.6666666666667) translate(0 14.222222222222223)"/><path d="M1180 526c0-3.3 2.7-6 6-6h28c3.3 0 6 2.7 6 6v148c0 3.3-2.7 6-6 6h-28c-3.3 0-6-2.7-6-6z" stroke="#fff" stroke-width="3" fill="#282c33"/><path d="M1177.5 600H440" stroke="#fff" stroke-width="2" fill="none"/><path d="M1178.5 601h-1.03v-2h1.03z" stroke="#fff" stroke-width=".05" fill="#fff"/><path d="M424.74 600l14.26-4.64v9.28z" stroke="#fff" stroke-width="2" fill="#fff"/><use xlink:href="#k" transform="matrix(1,0,0,1,733.5308641975308,604) translate(0 14.222222222222223)"/><path d="M380 596c0-3.3 2.7-6 6-6h28c3.3 0 6 2.7 6 6v58c0 3.3-2.7 6-6 6h-28c-3.3 0-6-2.7-6-6z" stroke="#fff" stroke-width="3" fill="#282c33"/><defs><path fill="#fff" d="M205 0l-28-72H64L36 0H1l101-248h38L239 0h-34zm-38-99l-47-123c-12 45-31 82-46 123h93" id="l"/><path fill="#fff" d="M96-169c-40 0-48 33-48 73s9 75 48 75c24 0 41-14 43-38l32 2c-6 37-31 61-74 61-59 0-76-41-82-99-10-93 101-131 147-64 4 7 5 14 7 22l-32 3c-4-21-16-35-41-35" id="m"/><path fill="#fff" d="M59-47c-2 24 18 29 38 22v24C64 9 27 4 27-40v-127H5v-23h24l9-43h21v43h35v23H59v120" id="n"/><path fill="#fff" d="M100-194c62-1 85 37 85 99 1 63-27 99-86 99S16-35 15-95c0-66 28-99 85-99zM99-20c44 1 53-31 53-75 0-43-8-75-51-75s-53 32-53 75 10 74 51 75" id="o"/><path fill="#fff" d="M114-163C36-179 61-72 57 0H25l-1-190h30c1 12-1 29 2 39 6-27 23-49 58-41v29" id="p"/><g id="a"><use transform="matrix(0.06172839506172839,0,0,0.06172839506172839,0,0)" xlink:href="#l"/><use transform="matrix(0.06172839506172839,0,0,0.06172839506172839,14.814814814814813,0)" xlink:href="#m"/><use transform="matrix(0.06172839506172839,0,0,0.06172839506172839,25.925925925925924,0)" xlink:href="#n"/><use transform="matrix(0.06172839506172839,0,0,0.06172839506172839,32.098765432098766,0)" xlink:href="#o"/><use transform="matrix(0.06172839506172839,0,0,0.06172839506172839,44.44444444444444,0)" xlink:href="#p"/></g><path fill="#fff" d="M143 4C61 4 22-44 18-125c-5-107 100-154 193-111 17 8 29 25 37 43l-32 9c-13-25-37-40-76-40-61 0-88 39-88 99 0 61 29 100 91 101 35 0 62-11 79-27v-45h-74v-28h105v86C228-13 192 4 143 4" id="q"/><path fill="#fff" d="M232-93c-1 65-40 97-104 97C67 4 28-28 28-90v-158h33c8 89-33 224 67 224 102 0 64-133 71-224h33v155" id="r"/><path fill="#fff" d="M33 0v-248h34V0H33" id="s"/><path fill="#fff" d="M30-248c118-7 216 8 213 122C240-48 200 0 122 0H30v-248zM63-27c89 8 146-16 146-99s-60-101-146-95v194" id="t"/><path fill="#fff" d="M24-231v-30h32v30H24zM24 0v-190h32V0H24" id="u"/><path fill="#fff" d="M135-143c-3-34-86-38-87 0 15 53 115 12 119 90S17 21 10-45l28-5c4 36 97 45 98 0-10-56-113-15-118-90-4-57 82-63 122-42 12 7 21 19 24 35" id="v"/><path fill="#fff" d="M115-194c55 1 70 41 70 98S169 2 115 4C84 4 66-9 55-30l1 105H24l-1-265h31l2 30c10-21 28-34 59-34zm-8 174c40 0 45-34 45-75s-6-73-45-74c-42 0-51 32-51 76 0 43 10 73 51 73" id="w"/><path fill="#fff" d="M24 0v-261h32V0H24" id="x"/><path fill="#fff" d="M141-36C126-15 110 5 73 4 37 3 15-17 15-53c-1-64 63-63 125-63 3-35-9-54-41-54-24 1-41 7-42 31l-33-3c5-37 33-52 76-52 45 0 72 20 72 64v82c-1 20 7 32 28 27v20c-31 9-61-2-59-35zM48-53c0 20 12 33 32 33 41-3 63-29 60-74-43 2-92-5-92 41" id="y"/><path fill="#fff" d="M179-190L93 31C79 59 56 82 12 73V49c39 6 53-20 64-50L1-190h34L92-34l54-156h33" id="z"/><g id="b"><use transform="matrix(0.05,0,0,0.05,0,0)" xlink:href="#q"/><use transform="matrix(0.05,0,0,0.05,14,0)" xlink:href="#r"/><use transform="matrix(0.05,0,0,0.05,26.950000000000003,0)" xlink:href="#s"/><use transform="matrix(0.05,0,0,0.05,31.950000000000003,0)" xlink:href="#t"/><use transform="matrix(0.05,0,0,0.05,44.900000000000006,0)" xlink:href="#u"/><use transform="matrix(0.05,0,0,0.05,48.85000000000001,0)" xlink:href="#v"/><use transform="matrix(0.05,0,0,0.05,57.85,0)" xlink:href="#w"/><use transform="matrix(0.05,0,0,0.05,67.85000000000001,0)" xlink:href="#x"/><use transform="matrix(0.05,0,0,0.05,71.80000000000001,0)" xlink:href="#y"/><use transform="matrix(0.05,0,0,0.05,81.80000000000001,0)" xlink:href="#z"/><path fill="#fff" d="M-.9 1.25h92.6v1.32H-.9z"/></g><path fill="#fff" d="M212-179c-10-28-35-45-73-45-59 0-87 40-87 99 0 60 29 101 89 101 43 0 62-24 78-52l27 14C228-24 195 4 139 4 59 4 22-46 18-125c-6-104 99-153 187-111 19 9 31 26 39 46" id="A"/><path fill="#fff" d="M117-194c89-4 53 116 60 194h-32v-121c0-31-8-49-39-48C34-167 62-67 57 0H25l-1-190h30c1 10-1 24 2 32 11-22 29-35 61-36" id="B"/><path fill="#fff" d="M100-194c63 0 86 42 84 106H49c0 40 14 67 53 68 26 1 43-12 49-29l28 8c-11 28-37 45-77 45C44 4 14-33 15-96c1-61 26-98 85-98zm52 81c6-60-76-77-97-28-3 7-6 17-6 28h103" id="C"/><path fill="#fff" d="M141 0L90-78 38 0H4l68-98-65-92h35l48 74 47-74h35l-64 92 68 98h-35" id="D"/><g id="c"><use transform="matrix(0.05,0,0,0.05,0,0)" xlink:href="#A"/><use transform="matrix(0.05,0,0,0.05,12.950000000000001,0)" xlink:href="#o"/><use transform="matrix(0.05,0,0,0.05,22.950000000000003,0)" xlink:href="#B"/><use transform="matrix(0.05,0,0,0.05,32.95,0)" xlink:href="#n"/><use transform="matrix(0.05,0,0,0.05,37.95,0)" xlink:href="#C"/><use transform="matrix(0.05,0,0,0.05,47.95,0)" xlink:href="#D"/><use transform="matrix(0.05,0,0,0.05,56.95,0)" xlink:href="#n"/><path fill="#fff" d="M-.9 1.25h63.75v1.32H-.9z"/></g><path fill="#fff" d="M85-194c31 0 48 13 60 33l-1-100h32l1 261h-30c-2-10 0-23-3-31C134-8 116 4 85 4 32 4 16-35 15-94c0-66 23-100 70-100zm9 24c-40 0-46 34-46 75 0 40 6 74 45 74 42 0 51-32 51-76 0-42-9-74-50-73" id="E"/><path fill="#fff" d="M185-189c-5-48-123-54-124 2 14 75 158 14 163 119 3 78-121 87-175 55-17-10-28-26-33-46l33-7c5 56 141 63 141-1 0-78-155-14-162-118-5-82 145-84 179-34 5 7 8 16 11 25" id="F"/><g id="d"><use transform="matrix(0.05,0,0,0.05,0,0)" xlink:href="#t"/><use transform="matrix(0.05,0,0,0.05,12.950000000000001,0)" xlink:href="#o"/><use transform="matrix(0.05,0,0,0.05,22.950000000000003,0)" xlink:href="#o"/><use transform="matrix(0.05,0,0,0.05,32.95,0)" xlink:href="#p"/><use transform="matrix(0.05,0,0,0.05,38.900000000000006,0)" xlink:href="#A"/><use transform="matrix(0.05,0,0,0.05,51.85,0)" xlink:href="#x"/><use transform="matrix(0.05,0,0,0.05,55.80000000000001,0)" xlink:href="#o"/><use transform="matrix(0.05,0,0,0.05,65.80000000000001,0)" xlink:href="#v"/><use transform="matrix(0.05,0,0,0.05,74.80000000000001,0)" xlink:href="#C"/><use transform="matrix(0.05,0,0,0.05,84.80000000000001,0)" xlink:href="#E"/><use transform="matrix(0.05,0,0,0.05,94.80000000000001,0)" xlink:href="#F"/><use transform="matrix(0.05,0,0,0.05,106.80000000000001,0)" xlink:href="#n"/><use transform="matrix(0.05,0,0,0.05,111.80000000000001,0)" xlink:href="#y"/><use transform="matrix(0.05,0,0,0.05,121.80000000000001,0)" xlink:href="#n"/><use transform="matrix(0.05,0,0,0.05,126.80000000000001,0)" xlink:href="#C"/><path fill="#fff" d="M-.9 1.25h138.6v1.32H-.9z"/></g><path fill="#fff" d="M143 0L79-87 56-68V0H24v-261h32v163l83-92h37l-77 82L181 0h-38" id="G"/><path fill="#fff" d="M177-190C167-65 218 103 67 71c-23-6-38-20-44-43l32-5c15 47 100 32 89-28v-30C133-14 115 1 83 1 29 1 15-40 15-95c0-56 16-97 71-98 29-1 48 16 59 35 1-10 0-23 2-32h30zM94-22c36 0 50-32 50-73 0-42-14-75-50-75-39 0-46 34-46 75s6 73 46 73" id="H"/><g id="e"><use transform="matrix(0.05,0,0,0.05,0,0)" xlink:href="#A"/><use transform="matrix(0.05,0,0,0.05,12.950000000000001,0)" xlink:href="#o"/><use transform="matrix(0.05,0,0,0.05,22.950000000000003,0)" xlink:href="#o"/><use transform="matrix(0.05,0,0,0.05,32.95,0)" xlink:href="#G"/><use transform="matrix(0.05,0,0,0.05,41.95,0)" xlink:href="#u"/><use transform="matrix(0.05,0,0,0.05,45.900000000000006,0)" xlink:href="#B"/><use transform="matrix(0.05,0,0,0.05,55.900000000000006,0)" xlink:href="#H"/><use transform="matrix(0.05,0,0,0.05,65.9,0)" xlink:href="#F"/><use transform="matrix(0.05,0,0,0.05,77.9,0)" xlink:href="#n"/><use transform="matrix(0.05,0,0,0.05,82.9,0)" xlink:href="#y"/><use transform="matrix(0.05,0,0,0.05,92.9,0)" xlink:href="#n"/><use transform="matrix(0.05,0,0,0.05,97.9,0)" xlink:href="#C"/><path fill="#fff" d="M-.9 1.25h109.7v1.32H-.9z"/></g><path fill="#fff" d="M67-125c0 53 21 87 73 88 37 1 54-22 65-47l45 17C233-25 199 4 140 4 58 4 20-42 15-125 8-235 124-281 211-232c18 10 29 29 36 50l-46 12c-8-25-30-41-62-41-52 0-71 34-72 86" id="I"/><path fill="#fff" d="M110-194c64 0 96 36 96 99 0 64-35 99-97 99-61 0-95-36-95-99 0-62 34-99 96-99zm-1 164c35 0 45-28 45-65 0-40-10-65-43-65-34 0-45 26-45 65 0 36 10 65 43 65" id="J"/><path fill="#fff" d="M147 0L96-86 75-71V0H25v-261h50v150l67-79h53l-66 74L201 0h-54" id="K"/><g id="f"><use transform="matrix(0.04938271604938272,0,0,0.04938271604938272,0,0)" xlink:href="#I"/><use transform="matrix(0.04938271604938272,0,0,0.04938271604938272,12.790123456790125,0)" xlink:href="#J"/><use transform="matrix(0.04938271604938272,0,0,0.04938271604938272,23.60493827160494,0)" xlink:href="#J"/><use transform="matrix(0.04938271604938272,0,0,0.04938271604938272,34.41975308641975,0)" xlink:href="#K"/></g><path fill="#fff" d="M240-174c0 40-23 61-54 70L253 0h-59l-57-94H76V0H24v-248c93 4 217-23 216 74zM76-134c48-2 112 12 112-38 0-48-66-32-112-35v73" id="L"/><path fill="#fff" d="M185-48c-13 30-37 53-82 52C43 2 14-33 14-96s30-98 90-98c62 0 83 45 84 108H66c0 31 8 55 39 56 18 0 30-7 34-22zm-45-69c5-46-57-63-70-21-2 6-4 13-4 21h74" id="M"/><path fill="#fff" d="M84 4C32 4 15-41 15-95c0-55 18-99 73-99 29 0 47 12 58 34l2-30h48l-1 265h-49V-32C136-9 114 4 84 4zm21-34c32 0 41-29 41-66 0-36-9-64-40-64-33 0-39 30-40 65 0 43 13 65 39 65" id="N"/><path fill="#fff" d="M85 4C-2 5 27-109 22-190h50c7 57-23 150 33 157 60-5 35-97 40-157h50l1 190h-47c-2-12 1-28-3-38-12 25-28 42-61 42" id="O"/><path fill="#fff" d="M137-138c1-29-70-34-71-4 15 46 118 7 119 86 1 83-164 76-172 9l43-7c4 19 20 25 44 25 33 8 57-30 24-41C81-84 22-81 20-136c-2-80 154-74 161-7" id="P"/><path fill="#fff" d="M115-3C79 11 28 4 28-45v-112H4v-33h27l15-45h31v45h36v33H77v99c-1 23 16 31 38 25v30" id="Q"/><g id="g"><use transform="matrix(0.04938271604938272,0,0,0.04938271604938272,0,0)" xlink:href="#L"/><use transform="matrix(0.04938271604938272,0,0,0.04938271604938272,12.790123456790125,0)" xlink:href="#M"/><use transform="matrix(0.04938271604938272,0,0,0.04938271604938272,22.66666666666667,0)" xlink:href="#N"/><use transform="matrix(0.04938271604938272,0,0,0.04938271604938272,33.48148148148149,0)" xlink:href="#O"/><use transform="matrix(0.04938271604938272,0,0,0.04938271604938272,44.296296296296305,0)" xlink:href="#M"/><use transform="matrix(0.04938271604938272,0,0,0.04938271604938272,54.17283950617284,0)" xlink:href="#P"/><use transform="matrix(0.04938271604938272,0,0,0.04938271604938272,64.0493827160494,0)" xlink:href="#Q"/></g><path fill="#fff" d="M135-194c53 0 70 44 70 98 0 56-19 98-73 100-31 1-45-17-59-34 3 33 2 69 2 105H25l-1-265h48c2 10 0 23 3 31 11-24 29-35 60-35zM114-30c33 0 39-31 40-66 0-38-9-64-40-64-56 0-55 130 0 130" id="R"/><path fill="#fff" d="M135-150c-39-12-60 13-60 57V0H25l-1-190h47c2 13-1 29 3 40 6-28 27-53 61-41v41" id="S"/><path fill="#fff" d="M190-63c-7 42-38 67-86 67-59 0-84-38-90-98-12-110 154-137 174-36l-49 2c-2-19-15-32-35-32-30 0-35 28-38 64-6 74 65 87 74 30" id="T"/><path fill="#fff" d="M24 0v-248h195v40H76v63h132v40H76v65h150V0H24" id="U"/><path fill="#fff" d="M128 0H69L1-190h53L99-40l48-150h52" id="V"/><path fill="#fff" d="M135-194c87-1 58 113 63 194h-50c-7-57 23-157-34-157-59 0-34 97-39 157H25l-1-190h47c2 12-1 28 3 38 12-26 28-41 61-42" id="W"/><path fill="#fff" d="M67-93c0 74 22 123 53 168H70C40 30 18-18 18-93s22-123 52-168h50c-32 44-53 94-53 168" id="X"/><path fill="#fff" d="M102-93c0 74-22 123-52 168H0C30 29 54-18 53-93c0-74-22-123-53-168h50c30 45 52 94 52 168" id="Y"/><g id="h"><use transform="matrix(0.04938271604938272,0,0,0.04938271604938272,0,0)" xlink:href="#R"/><use transform="matrix(0.04938271604938272,0,0,0.04938271604938272,10.814814814814815,0)" xlink:href="#S"/><use transform="matrix(0.04938271604938272,0,0,0.04938271604938272,17.728395061728396,0)" xlink:href="#J"/><use transform="matrix(0.04938271604938272,0,0,0.04938271604938272,28.543209876543205,0)" xlink:href="#T"/><use transform="matrix(0.04938271604938272,0,0,0.04938271604938272,38.41975308641975,0)" xlink:href="#M"/><use transform="matrix(0.04938271604938272,0,0,0.04938271604938272,48.2962962962963,0)" xlink:href="#P"/><use transform="matrix(0.04938271604938272,0,0,0.04938271604938272,58.17283950617284,0)" xlink:href="#P"/><use transform="matrix(0.04938271604938272,0,0,0.04938271604938272,68.0493827160494,0)" xlink:href="#U"/><use transform="matrix(0.04938271604938272,0,0,0.04938271604938272,79.90123456790124,0)" xlink:href="#V"/><use transform="matrix(0.04938271604938272,0,0,0.04938271604938272,89.77777777777779,0)" xlink:href="#M"/><use transform="matrix(0.04938271604938272,0,0,0.04938271604938272,99.65432098765433,0)" xlink:href="#W"/><use transform="matrix(0.04938271604938272,0,0,0.04938271604938272,110.46913580246914,0)" xlink:href="#Q"/><use transform="matrix(0.04938271604938272,0,0,0.04938271604938272,116.34567901234568,0)" xlink:href="#X"/><use transform="matrix(0.04938271604938272,0,0,0.04938271604938272,122.22222222222223,0)" xlink:href="#M"/><use transform="matrix(0.04938271604938272,0,0,0.04938271604938272,132.0987654320988,0)" xlink:href="#V"/><use transform="matrix(0.04938271604938272,0,0,0.04938271604938272,141.97530864197535,0)" xlink:href="#M"/><use transform="matrix(0.04938271604938272,0,0,0.04938271604938272,151.8518518518519,0)" xlink:href="#W"/><use transform="matrix(0.04938271604938272,0,0,0.04938271604938272,162.6666666666667,0)" xlink:href="#Q"/><use transform="matrix(0.04938271604938272,0,0,0.04938271604938272,168.54320987654324,0)" xlink:href="#Y"/></g><path fill="#fff" d="M114-157C55-157 80-60 75 0H25v-261h50l-1 109c12-26 28-41 61-42 86-1 58 113 63 194h-50c-7-57 23-157-34-157" id="Z"/><path fill="#fff" d="M133-34C117-15 103 5 69 4 32 3 11-16 11-54c-1-60 55-63 116-61 1-26-3-47-28-47-18 1-26 9-28 27l-52-2c7-38 36-58 82-57s74 22 75 68l1 82c-1 14 12 18 25 15v27c-30 8-71 5-69-32zm-48 3c29 0 43-24 42-57-32 0-66-3-65 30 0 17 8 27 23 27" id="aa"/><path fill="#fff" d="M195-6C206 82 75 100 31 46c-4-6-6-13-8-21l49-6c3 16 16 24 34 25 40 0 42-37 40-79-11 22-30 35-61 35-53 0-70-43-70-97 0-56 18-96 73-97 30 0 46 14 59 34l2-30h47zm-90-29c32 0 41-27 41-63 0-35-9-62-40-62-32 0-39 29-40 63 0 36 9 62 39 62" id="ab"/><path fill="#fff" d="M169-182c-1-43-94-46-97-3 18 66 151 10 154 114 3 95-165 93-204 36-6-8-10-19-12-30l50-8c3 46 112 56 116 5-17-69-150-10-154-114-4-87 153-88 188-35 5 8 8 18 10 28" id="ac"/><path fill="#fff" d="M25-224v-37h50v37H25zM25 0v-190h50V0H25" id="ad"/><g id="i"><use transform="matrix(0.04938271604938272,0,0,0.04938271604938272,0,0)" xlink:href="#T"/><use transform="matrix(0.04938271604938272,0,0,0.04938271604938272,9.876543209876544,0)" xlink:href="#Z"/><use transform="matrix(0.04938271604938272,0,0,0.04938271604938272,20.69135802469136,0)" xlink:href="#aa"/><use transform="matrix(0.04938271604938272,0,0,0.04938271604938272,30.567901234567906,0)" xlink:href="#W"/><use transform="matrix(0.04938271604938272,0,0,0.04938271604938272,41.38271604938272,0)" xlink:href="#ab"/><use transform="matrix(0.04938271604938272,0,0,0.04938271604938272,52.19753086419754,0)" xlink:href="#M"/><use transform="matrix(0.04938271604938272,0,0,0.04938271604938272,62.074074074074076,0)" xlink:href="#ac"/><use transform="matrix(0.04938271604938272,0,0,0.04938271604938272,73.92592592592594,0)" xlink:href="#Q"/><use transform="matrix(0.04938271604938272,0,0,0.04938271604938272,79.80246913580248,0)" xlink:href="#aa"/><use transform="matrix(0.04938271604938272,0,0,0.04938271604938272,89.67901234567903,0)" xlink:href="#Q"/><use transform="matrix(0.04938271604938272,0,0,0.04938271604938272,95.55555555555557,0)" xlink:href="#M"/><use transform="matrix(0.04938271604938272,0,0,0.04938271604938272,105.4320987654321,0)" xlink:href="#X"/><use transform="matrix(0.04938271604938272,0,0,0.04938271604938272,111.30864197530865,0)" xlink:href="#I"/><use transform="matrix(0.04938271604938272,0,0,0.04938271604938272,124.09876543209877,0)" xlink:href="#J"/><use transform="matrix(0.04938271604938272,0,0,0.04938271604938272,134.9135802469136,0)" xlink:href="#J"/><use transform="matrix(0.04938271604938272,0,0,0.04938271604938272,145.7283950617284,0)" xlink:href="#K"/><use transform="matrix(0.04938271604938272,0,0,0.04938271604938272,155.60493827160496,0)" xlink:href="#ad"/><use transform="matrix(0.04938271604938272,0,0,0.04938271604938272,160.54320987654324,0)" xlink:href="#W"/><use transform="matrix(0.04938271604938272,0,0,0.04938271604938272,171.35802469135805,0)" xlink:href="#ab"/><use transform="matrix(0.04938271604938272,0,0,0.04938271604938272,182.17283950617286,0)" xlink:href="#ac"/><use transform="matrix(0.04938271604938272,0,0,0.04938271604938272,194.0246913580247,0)" xlink:href="#Q"/><use transform="matrix(0.04938271604938272,0,0,0.04938271604938272,199.90123456790124,0)" xlink:href="#aa"/><use transform="matrix(0.04938271604938272,0,0,0.04938271604938272,209.77777777777774,0)" xlink:href="#Q"/><use transform="matrix(0.04938271604938272,0,0,0.04938271604938272,215.6543209876543,0)" xlink:href="#M"/><use transform="matrix(0.04938271604938272,0,0,0.04938271604938272,225.53086419753083,0)" xlink:href="#Y"/></g><g id="j"><use transform="matrix(0.04938271604938272,0,0,0.04938271604938272,0,0)" xlink:href="#S"/><use transform="matrix(0.04938271604938272,0,0,0.04938271604938272,6.913580246913581,0)" xlink:href="#O"/><use transform="matrix(0.04938271604938272,0,0,0.04938271604938272,17.728395061728396,0)" xlink:href="#W"/><use transform="matrix(0.04938271604938272,0,0,0.04938271604938272,28.543209876543205,0)" xlink:href="#X"/><use transform="matrix(0.04938271604938272,0,0,0.04938271604938272,34.41975308641975,0)" xlink:href="#Y"/></g><path fill="#fff" d="M88-194c31-1 46 15 58 34l-1-101h50l1 261h-48c-2-10 0-23-3-31C134-8 116 4 84 4 32 4 16-41 15-95c0-56 19-97 73-99zm17 164c33 0 40-30 41-66 1-37-9-64-41-64s-38 30-39 65c0 43 13 65 39 65" id="ae"/><path fill="#fff" d="M24-248c120-7 223 5 221 122C244-46 201 0 124 0H24v-248zM76-40c74 7 117-18 117-86 0-67-45-88-117-82v168" id="af"/><path fill="#fff" d="M25 0v-261h50V0H25" id="ag"/><path fill="#fff" d="M123 10C108 53 80 86 19 72V37c35 8 53-11 59-39L3-190h52l48 148c12-52 28-100 44-148h51" id="ah"/><g id="k"><use transform="matrix(0.04938271604938272,0,0,0.04938271604938272,0,0)" xlink:href="#O"/><use transform="matrix(0.04938271604938272,0,0,0.04938271604938272,10.814814814814815,0)" xlink:href="#R"/><use transform="matrix(0.04938271604938272,0,0,0.04938271604938272,21.62962962962963,0)" xlink:href="#ae"/><use transform="matrix(0.04938271604938272,0,0,0.04938271604938272,32.44444444444444,0)" xlink:href="#aa"/><use transform="matrix(0.04938271604938272,0,0,0.04938271604938272,42.32098765432099,0)" xlink:href="#Q"/><use transform="matrix(0.04938271604938272,0,0,0.04938271604938272,48.19753086419753,0)" xlink:href="#M"/><use transform="matrix(0.04938271604938272,0,0,0.04938271604938272,58.074074074074076,0)" xlink:href="#af"/><use transform="matrix(0.04938271604938272,0,0,0.04938271604938272,70.8641975308642,0)" xlink:href="#ad"/><use transform="matrix(0.04938271604938272,0,0,0.04938271604938272,75.80246913580248,0)" xlink:href="#P"/><use transform="matrix(0.04938271604938272,0,0,0.04938271604938272,85.67901234567903,0)" xlink:href="#R"/><use transform="matrix(0.04938271604938272,0,0,0.04938271604938272,96.49382716049384,0)" xlink:href="#ag"/><use transform="matrix(0.04938271604938272,0,0,0.04938271604938272,101.4320987654321,0)" xlink:href="#aa"/><use transform="matrix(0.04938271604938272,0,0,0.04938271604938272,111.30864197530865,0)" xlink:href="#ah"/><use transform="matrix(0.04938271604938272,0,0,0.04938271604938272,121.18518518518519,0)" xlink:href="#X"/><use transform="matrix(0.04938271604938272,0,0,0.04938271604938272,127.06172839506173,0)" xlink:href="#Y"/></g></defs></g></svg>