<svg version="1.1" xmlns="http://www.w3.org/2000/svg" xmlns:xlink="http://www.w3.org/1999/xlink" width="740" height="556"><defs/><g><g transform="translate(10,10) scale(1,1)"><path fill="none" stroke="#000000" d="M 0 0 L 720 0 L 720 536 L 0 536 L 0 0" stroke-miterlimit="10"/></g><g transform="translate(10,10) scale(1,1)"><path fill="#ffffff" stroke="none" d="M 0 0 L 0 22 L 190.88427734375 22 L 201.88427734375 11 L 201.88427734375 0 L 0 0"/></g><g transform="translate(10,10) scale(1,1)"><path fill="none" stroke="#000000" d="M 0 0 L 0 22 L 190.88427734375 22 L 201.88427734375 11 L 201.88427734375 0 L 0 0 L 0 0" stroke-miterlimit="10"/></g><g transform="translate(10,10) scale(1,1)"><g><path fill="none" stroke="none"/><text fill="#000000" stroke="none" font-family="Arial" font-size="13px" font-style="normal" font-weight="normal" text-decoration="none" x="70.97900390625" y="17.5">SequenceDiagram1</text></g></g><g transform="translate(10,10) scale(1,1)"><g><path fill="none" stroke="none"/><text fill="#000000" stroke="none" font-family="Arial" font-size="13px" font-style="normal" font-weight="bold" text-decoration="none" x="5" y="17.5">interaction</text></g></g><g transform="translate(10,10) scale(1,1)"><rect fill="#ffffff" stroke="none" x="224" y="40" width="107.6005859375" height="39"/></g><g transform="translate(10,10) scale(1,1)"><path fill="none" stroke="#000000" d="M 224 40 L 331.6005859375 40 L 331.6005859375 79 L 224 79 L 224 40 Z Z" stroke-miterlimit="10"/></g><g transform="translate(10,10) scale(1,1)"><g><path fill="none" stroke="none"/><text fill="#000000" stroke="none" font-family="Arial" font-size="13px" font-style="normal" font-weight="bold" text-decoration="none" x="235.89306640625" y="59.5">MixTapeModel</text></g></g><g transform="translate(10,10) scale(1,1)"><path fill="none" stroke="#000000" d="M 278.5 80 L 278.5 528" stroke-miterlimit="10" stroke-dasharray="3"/></g><g transform="translate(10,10) scale(1,1)"><path fill="#000000" stroke="none" d="M 120 122.5 C 120 118.6340064 123.1340064 115.5 127 115.5 C 130.8659936 115.5 134 118.6340064 134 122.5 C 134 126.3659936 130.8659936 129.5 127 129.5 C 123.1340064 129.5 120 126.3659936 120 122.5 Z"/></g><g transform="translate(10,10) scale(1,1)"><rect fill="#ffffff" stroke="none" x="400" y="40" width="79.658203125" height="39"/></g><g transform="translate(10,10) scale(1,1)"><path fill="none" stroke="#000000" d="M 400 40 L 479.658203125 40 L 479.658203125 79 L 400 79 L 400 40 Z Z" stroke-miterlimit="10"/></g><g transform="translate(10,10) scale(1,1)"><g><path fill="none" stroke="none"/><text fill="#000000" stroke="none" font-family="Arial" font-size="13px" font-style="normal" font-weight="bold" text-decoration="none" x="411.63916015625" y="59.5">SongPool</text></g></g><g transform="translate(10,10) scale(1,1)"><path fill="none" stroke="#000000" d="M 440.5 80 L 440.5 528" stroke-miterlimit="10" stroke-dasharray="3"/></g><g transform="translate(10,10) scale(1,1)"><rect fill="#ffffff" stroke="none" x="504" y="40" width="71.736328125" height="39"/></g><g transform="translate(10,10) scale(1,1)"><path fill="none" stroke="#000000" d="M 504 40 L 575.736328125 40 L 575.736328125 79 L 504 79 L 504 40 Z Z" stroke-miterlimit="10"/></g><g transform="translate(10,10) scale(1,1)"><g><path fill="none" stroke="none"/><text fill="#000000" stroke="none" font-family="Arial" font-size="13px" font-style="normal" font-weight="bold" text-decoration="none" x="517.108642578125" y="59.5">PlayList</text></g></g><g transform="translate(10,10) scale(1,1)"><path fill="none" stroke="#000000" d="M 540.5 80 L 540.5 528" stroke-miterlimit="10" stroke-dasharray="3"/></g><g transform="translate(10,10) scale(1,1)"><path fill="none" stroke="#000000" d="M 16 320 L 584 320 L 584 512 L 16 512 L 16 320" stroke-miterlimit="10"/></g><g transform="translate(10,10) scale(1,1)"><path fill="#ffffff" stroke="none" d="M 16 320 L 16 342 L 45.72998046875 342 L 56.72998046875 331 L 56.72998046875 320 L 16 320"/></g><g transform="translate(10,10) scale(1,1)"><path fill="none" stroke="#000000" d="M 16 320 L 16 342 L 45.72998046875 342 L 56.72998046875 331 L 56.72998046875 320 L 16 320 L 16 320" stroke-miterlimit="10"/></g><g transform="translate(10,10) scale(1,1)"><g><path fill="none" stroke="none"/><text fill="#000000" stroke="none" font-family="Arial" font-size="13px" font-style="normal" font-weight="bold" text-decoration="none" x="21" y="337.5">alt</text></g></g><g transform="translate(10,10) scale(1,1)"><g><path fill="none" stroke="none"/><text fill="#000000" stroke="none" font-family="Arial" font-size="13px" font-style="normal" font-weight="normal" text-decoration="none" x="35.5" y="370.5">[time &gt; song.getDuration().getDuration()]</text></g></g><g transform="translate(10,10) scale(1,1)"><path fill="none" stroke="#000000" d="M 16 433 L 584 433" stroke-miterlimit="10" stroke-dasharray="10,3"/></g><g transform="translate(10,10) scale(1,1)"><g><path fill="none" stroke="none"/><text fill="#000000" stroke="none" font-family="Arial" font-size="13px" font-style="normal" font-weight="normal" text-decoration="none" x="35.5" y="460.5">[else]</text></g></g><g transform="translate(10,10) scale(1,1)"><path fill="#000000" stroke="none" d="M 120 471.5 C 120 467.6340064 123.1340064 464.5 127 464.5 C 130.8659936 464.5 134 467.6340064 134 471.5 C 134 475.3659936 130.8659936 478.5 127 478.5 C 123.1340064 478.5 120 475.3659936 120 471.5 Z"/></g><g transform="translate(10,10) scale(1,1)"><path fill="#000000" stroke="none" d="M 120 415.5 C 120 411.6340064 123.1340064 408.5 127 408.5 C 130.8659936 408.5 134 411.6340064 134 415.5 C 134 419.3659936 130.8659936 422.5 127 422.5 C 123.1340064 422.5 120 419.3659936 120 415.5 Z"/></g><g transform="translate(10,10) scale(1,1)"><path fill="none" stroke="#000000" d="M 134 123 L 271 123" stroke-miterlimit="10"/></g><g transform="translate(10,10) scale(1,1)"><path fill="#000000" stroke="none" d="M 260.83732514237585 127.20951775601598 L 271 123 L 260.83732514237585 118.79048224398402"/></g><g transform="translate(10,10) scale(1,1)"><path fill="none" stroke="#000000" d="M 260.83732514237585 127.20951775601598 L 271 123 L 260.83732514237585 118.79048224398402 L 260.83732514237585 127.20951775601598" stroke-miterlimit="10"/></g><g transform="translate(10,10) scale(1,1)"><g><path fill="none" stroke="none"/><text fill="#000000" stroke="none" font-family="Arial" font-size="13px" font-style="normal" font-weight="normal" text-decoration="none" x="138.5" y="119.5">1 : addToMix(position)</text></g></g><g transform="translate(10,10) scale(1,1)"><rect fill="#ffffff" stroke="none" x="271" y="123" width="13" height="357"/></g><g transform="translate(10,10) scale(1,1)"><path fill="none" stroke="#000000" d="M 271 123 L 284 123 L 284 480 L 271 480 L 271 123 Z Z" stroke-miterlimit="10"/></g><g transform="translate(10,10) scale(1,1)"><path fill="none" stroke="#000000" d="M 284 152 L 433 152" stroke-miterlimit="10"/></g><g transform="translate(10,10) scale(1,1)"><path fill="#000000" stroke="none" d="M 422.83732514237585 156.209517756016 L 433 152 L 422.83732514237585 147.790482243984"/></g><g transform="translate(10,10) scale(1,1)"><path fill="none" stroke="#000000" d="M 422.83732514237585 156.209517756016 L 433 152 L 422.83732514237585 147.790482243984 L 422.83732514237585 156.209517756016" stroke-miterlimit="10"/></g><g transform="translate(10,10) scale(1,1)"><g><path fill="none" stroke="none"/><text fill="#000000" stroke="none" font-family="Arial" font-size="13px" font-style="normal" font-weight="normal" text-decoration="none" x="298.5" y="148.5">2 : getSong(position)</text></g></g><g transform="translate(10,10) scale(1,1)"><rect fill="#ffffff" stroke="none" x="433" y="152" width="13" height="28"/></g><g transform="translate(10,10) scale(1,1)"><path fill="none" stroke="#000000" d="M 433 152 L 446 152 L 446 180 L 433 180 L 433 152 Z Z" stroke-miterlimit="10"/></g><g transform="translate(10,10) scale(1,1)"><path fill="none" stroke="#000000" d="M 433 172 L 284 172" stroke-miterlimit="10" stroke-dasharray="3"/></g><g transform="translate(10,10) scale(1,1)"><path fill="none" stroke="#000000" d="M 294.16267485762415 167.790482243984 L 284 172 L 294.16267485762415 176.209517756016" stroke-miterlimit="10"/></g><g transform="translate(10,10) scale(1,1)"><g><path fill="none" stroke="none"/><text fill="#000000" stroke="none" font-family="Arial" font-size="13px" font-style="normal" font-weight="normal" text-decoration="none" x="333.39453125" y="188.5">3 : song</text></g></g><g transform="translate(10,10) scale(1,1)"><path fill="none" stroke="#000000" d="M 284 240 L 533 240" stroke-miterlimit="10"/></g><g transform="translate(10,10) scale(1,1)"><path fill="#000000" stroke="none" d="M 522.8373251423759 244.209517756016 L 533 240 L 522.8373251423758 235.790482243984"/></g><g transform="translate(10,10) scale(1,1)"><path fill="none" stroke="#000000" d="M 522.8373251423759 244.209517756016 L 533 240 L 522.8373251423758 235.790482243984 L 522.8373251423759 244.209517756016" stroke-miterlimit="10"/></g><g transform="translate(10,10) scale(1,1)"><g><path fill="none" stroke="none"/><text fill="#000000" stroke="none" font-family="Arial" font-size="13px" font-style="normal" font-weight="normal" text-decoration="none" x="352.5" y="236.5">4 : hasRoom(song)</text></g></g><g transform="translate(10,10) scale(1,1)"><rect fill="#ffffff" stroke="none" x="533" y="240" width="13" height="224"/></g><g transform="translate(10,10) scale(1,1)"><path fill="none" stroke="#000000" d="M 533 240 L 546 240 L 546 464 L 533 464 L 533 240 Z Z" stroke-miterlimit="10"/></g><g transform="translate(10,10) scale(1,1)"><path fill="none" stroke="#000000" d="M 546 248 L 576 248 L 576 268 L 553 268" stroke-miterlimit="10"/></g><g transform="translate(10,10) scale(1,1)"><path fill="#000000" stroke="none" d="M 563.1626748576241 263.790482243984 L 553 268 L 563.1626748576241 272.209517756016"/></g><g transform="translate(10,10) scale(1,1)"><path fill="none" stroke="#000000" d="M 563.1626748576241 263.790482243984 L 553 268 L 563.1626748576241 272.209517756016 L 563.1626748576241 263.790482243984" stroke-miterlimit="10"/></g><g transform="translate(10,10) scale(1,1)"><g><path fill="none" stroke="none"/><text fill="#000000" stroke="none" font-family="Arial" font-size="13px" font-style="normal" font-weight="normal" text-decoration="none" x="582.5" y="263.5">5 : getRemainingTime</text></g></g><g transform="translate(10,10) scale(1,1)"><rect fill="#ffffff" stroke="none" x="540" y="268" width="13" height="28"/></g><g transform="translate(10,10) scale(1,1)"><path fill="none" stroke="#000000" d="M 540 268 L 553 268 L 553 296 L 540 296 L 540 268 Z Z" stroke-miterlimit="10"/></g><g transform="translate(10,10) scale(1,1)"><path fill="none" stroke="#000000" d="M 553 288 L 583 288 L 583 308 L 546 308" stroke-miterlimit="10" stroke-dasharray="3"/></g><g transform="translate(10,10) scale(1,1)"><path fill="none" stroke="#000000" d="M 556.1626748576241 303.790482243984 L 546 308 L 556.1626748576241 312.209517756016" stroke-miterlimit="10"/></g><g transform="translate(10,10) scale(1,1)"><g><path fill="none" stroke="none"/><text fill="#000000" stroke="none" font-family="Arial" font-size="13px" font-style="normal" font-weight="normal" text-decoration="none" x="608.2099609375" y="303.5">6 : time</text></g></g><g transform="translate(10,10) scale(1,1)"><path fill="none" stroke="#000000" d="M 533 336 L 284 336" stroke-miterlimit="10" stroke-dasharray="3"/></g><g transform="translate(10,10) scale(1,1)"><path fill="none" stroke="#000000" d="M 294.16267485762415 331.790482243984 L 284 336 L 294.16267485762415 340.209517756016" stroke-miterlimit="10"/></g><g transform="translate(10,10) scale(1,1)"><g><path fill="none" stroke="none"/><text fill="#000000" stroke="none" font-family="Arial" font-size="13px" font-style="normal" font-weight="normal" text-decoration="none" x="386.2890625" y="352.5">7 : true</text></g></g><g transform="translate(10,10) scale(1,1)"><path fill="none" stroke="#000000" d="M 284 384 L 540 384" stroke-miterlimit="10"/></g><g transform="translate(10,10) scale(1,1)"><path fill="#000000" stroke="none" d="M 529.8373251423759 388.209517756016 L 540 384 L 529.8373251423758 379.790482243984"/></g><g transform="translate(10,10) scale(1,1)"><path fill="none" stroke="#000000" d="M 529.8373251423759 388.209517756016 L 540 384 L 529.8373251423758 379.790482243984 L 529.8373251423759 388.209517756016" stroke-miterlimit="10"/></g><g transform="translate(10,10) scale(1,1)"><g><path fill="none" stroke="none"/><text fill="#000000" stroke="none" font-family="Arial" font-size="13px" font-style="normal" font-weight="normal" text-decoration="none" x="373.220458984375" y="380.5">8 : add(song)</text></g></g><g transform="translate(10,10) scale(1,1)"><rect fill="#ffffff" stroke="none" x="540" y="384" width="13" height="28"/></g><g transform="translate(10,10) scale(1,1)"><path fill="none" stroke="#000000" d="M 540 384 L 553 384 L 553 412 L 540 412 L 540 384 Z Z" stroke-miterlimit="10"/></g><g transform="translate(10,10) scale(1,1)"><path fill="none" stroke="#000000" d="M 271 416 L 134 416" stroke-miterlimit="10" stroke-dasharray="3"/></g><g transform="translate(10,10) scale(1,1)"><path fill="none" stroke="#000000" d="M 144.16267485762415 411.790482243984 L 134 416 L 144.16267485762415 420.209517756016" stroke-miterlimit="10"/></g><g transform="translate(10,10) scale(1,1)"><g><path fill="none" stroke="none"/><text fill="#000000" stroke="none" font-family="Arial" font-size="13px" font-style="normal" font-weight="normal" text-decoration="none" x="180.5" y="432.5">9 : true</text></g></g><g transform="translate(10,10) scale(1,1)"><path fill="none" stroke="#000000" d="M 533 456 L 284 456" stroke-miterlimit="10" stroke-dasharray="3"/></g><g transform="translate(10,10) scale(1,1)"><path fill="none" stroke="#000000" d="M 294.16267485762415 451.790482243984 L 284 456 L 294.16267485762415 460.209517756016" stroke-miterlimit="10"/></g><g transform="translate(10,10) scale(1,1)"><g><path fill="none" stroke="none"/><text fill="#000000" stroke="none" font-family="Arial" font-size="13px" font-style="normal" font-weight="normal" text-decoration="none" x="380.5" y="472.5">10 : false</text></g></g><g transform="translate(10,10) scale(1,1)"><path fill="none" stroke="#000000" d="M 271 472 L 134 472" stroke-miterlimit="10" stroke-dasharray="3"/></g><g transform="translate(10,10) scale(1,1)"><path fill="none" stroke="#000000" d="M 144.16267485762415 467.790482243984 L 134 472 L 144.16267485762415 476.209517756016" stroke-miterlimit="10"/></g><g transform="translate(10,10) scale(1,1)"><g><path fill="none" stroke="none"/><text fill="#000000" stroke="none" font-family="Arial" font-size="13px" font-style="normal" font-weight="normal" text-decoration="none" x="174.982421875" y="488.5">11 : false</text></g></g></g></svg>