<svg version="1.1" xmlns="http://www.w3.org/2000/svg" xmlns:xlink="http://www.w3.org/1999/xlink" width="236.68994140625" height="64"><defs/><g><g transform="translate(-214,-166) scale(1,1)"><rect fill="#C0C0C0" stroke="none" x="231" y="183" width="56.68994140625" height="44" opacity="0.2"/></g><g transform="translate(-214,-166) scale(1,1)"><rect fill="#ffffff" stroke="none" x="224" y="176" width="56.68994140625" height="44"/></g><g transform="translate(-214,-166) scale(1,1)"><path fill="none" stroke="#000000" d="M 224 176 L 280.68994140625 176 L 280.68994140625 220 L 224 220 L 224 176 Z Z" stroke-miterlimit="10"/></g><g transform="translate(-214,-166) scale(1,1)"><path fill="none" stroke="#000000" d="M 224 201 L 280.68994140625 201" stroke-miterlimit="10"/></g><g transform="translate(-214,-166) scale(1,1)"><path fill="none" stroke="#000000" d="M 224 211 L 280.68994140625 211" stroke-miterlimit="10"/></g><g transform="translate(-214,-166) scale(1,1)"><g><path fill="none" stroke="none"/><text fill="#000000" stroke="none" font-family="Arial" font-size="13px" font-style="normal" font-weight="bold" text-decoration="none" x="229.950439453125" y="195.5">Class A</text></g></g><g transform="translate(-214,-166) scale(1,1)"><rect fill="#C0C0C0" stroke="none" x="391" y="183" width="56.68994140625" height="44" opacity="0.2"/></g><g transform="translate(-214,-166) scale(1,1)"><rect fill="#ffffff" stroke="none" x="384" y="176" width="56.68994140625" height="44"/></g><g transform="translate(-214,-166) scale(1,1)"><path fill="none" stroke="#000000" d="M 384 176 L 440.68994140625 176 L 440.68994140625 220 L 384 220 L 384 176 Z Z" stroke-miterlimit="10"/></g><g transform="translate(-214,-166) scale(1,1)"><path fill="none" stroke="#000000" d="M 384 201 L 440.68994140625 201" stroke-miterlimit="10"/></g><g transform="translate(-214,-166) scale(1,1)"><path fill="none" stroke="#000000" d="M 384 211 L 440.68994140625 211" stroke-miterlimit="10"/></g><g transform="translate(-214,-166) scale(1,1)"><g><path fill="none" stroke="none"/><text fill="#000000" stroke="none" font-family="Arial" font-size="13px" font-style="normal" font-weight="bold" text-decoration="none" x="389.950439453125" y="195.5">Class B</text></g></g><g transform="translate(-214,-166) scale(1,1)"><path fill="none" stroke="#000000" d="M 383 198 L 282 198" stroke-miterlimit="10"/></g><g transform="translate(-214,-166) scale(1,1)"><path fill="#FFFFFF" stroke="none" d="M 292.16267485762415 193.790482243984 L 282 198 L 292.16267485762415 202.209517756016 L 304 198"/></g><g transform="translate(-214,-166) scale(1,1)"><path fill="none" stroke="#000000" d="M 292.16267485762415 193.790482243984 L 282 198 L 292.16267485762415 202.209517756016 L 304 198 L 292.16267485762415 193.790482243984" stroke-miterlimit="10"/></g><g transform="translate(-214,-166) scale(1,1)"><g><path fill="none" stroke="none"/><text fill="#000000" stroke="none" font-family="Arial" font-size="13px" font-style="normal" font-weight="normal" text-decoration="none" x="302.5" y="219.5">+contains</text></g></g><g transform="translate(-214,-166) scale(1,1)"><g><path fill="none" stroke="none"/><text fill="#000000" stroke="none" font-family="Arial" font-size="13px" font-style="normal" font-weight="normal" text-decoration="none" x="357.5" y="191.5">k</text></g></g><g transform="translate(-214,-166) scale(1,1)"><g><path fill="none" stroke="none"/><text fill="#000000" stroke="none" font-family="Arial" font-size="13px" font-style="normal" font-weight="normal" text-decoration="none" x="293.5" y="191.5">1..*</text></g></g></g></svg>