<svg version="1.1" xmlns="http://www.w3.org/2000/svg" xmlns:xlink="http://www.w3.org/1999/xlink" width="278.919921875" height="64"><defs/><g><g transform="translate(-118,-206) scale(1,1)"><rect fill="#C0C0C0" stroke="none" x="135" y="223" width="53.05908203125" height="44" opacity="0.2"/></g><g transform="translate(-118,-206) scale(1,1)"><rect fill="#ffffff" stroke="none" x="128" y="216" width="53.05908203125" height="44"/></g><g transform="translate(-118,-206) scale(1,1)"><path fill="none" stroke="#000000" d="M 128 216 L 181.05908203125 216 L 181.05908203125 260 L 128 260 L 128 216 Z Z" stroke-miterlimit="10"/></g><g transform="translate(-118,-206) scale(1,1)"><path fill="none" stroke="#000000" d="M 128 241 L 181.05908203125 241" stroke-miterlimit="10"/></g><g transform="translate(-118,-206) scale(1,1)"><path fill="none" stroke="#000000" d="M 128 251 L 181.05908203125 251" stroke-miterlimit="10"/></g><g transform="translate(-118,-206) scale(1,1)"><g><path fill="none" stroke="none"/><text fill="#000000" stroke="none" font-family="Arial" font-size="13px" font-style="normal" font-weight="bold" text-decoration="none" x="134.658203125" y="235.5">Lottery</text></g></g><g transform="translate(-118,-206) scale(1,1)"><rect fill="#C0C0C0" stroke="none" x="343" y="223" width="50.919921875" height="44" opacity="0.2"/></g><g transform="translate(-118,-206) scale(1,1)"><rect fill="#ffffff" stroke="none" x="336" y="216" width="50.919921875" height="44"/></g><g transform="translate(-118,-206) scale(1,1)"><path fill="none" stroke="#000000" d="M 336 216 L 386.919921875 216 L 386.919921875 260 L 336 260 L 336 216 Z Z" stroke-miterlimit="10"/></g><g transform="translate(-118,-206) scale(1,1)"><path fill="none" stroke="#000000" d="M 336 241 L 386.919921875 241" stroke-miterlimit="10"/></g><g transform="translate(-118,-206) scale(1,1)"><path fill="none" stroke="#000000" d="M 336 251 L 386.919921875 251" stroke-miterlimit="10"/></g><g transform="translate(-118,-206) scale(1,1)"><g><path fill="none" stroke="none"/><text fill="#000000" stroke="none" font-family="Arial" font-size="13px" font-style="normal" font-weight="bold" text-decoration="none" x="347.015869140625" y="235.5">RNG</text></g></g><g transform="translate(-118,-206) scale(1,1)"><path fill="none" stroke="#000000" d="M 182 238 L 335 238" stroke-miterlimit="10" stroke-dasharray="3"/></g><g transform="translate(-118,-206) scale(1,1)"><path fill="none" stroke="#000000" d="M 324.83732514237585 242.209517756016 L 335 238 L 324.83732514237585 233.790482243984" stroke-miterlimit="10"/></g></g></svg>