<svg version="1.1" xmlns="http://www.w3.org/2000/svg" xmlns:xlink="http://www.w3.org/1999/xlink" width="240.33544921875" height="160"><defs/><g><g transform="translate(-142,-142) scale(1,1)"><rect fill="#C0C0C0" stroke="none" x="159" y="159" width="50.919921875" height="44" opacity="0.2"/></g><g transform="translate(-142,-142) scale(1,1)"><rect fill="#ffffff" stroke="none" x="152" y="152" width="50.919921875" height="44"/></g><g transform="translate(-142,-142) scale(1,1)"><path fill="none" stroke="#000000" d="M 152 152 L 202.919921875 152 L 202.919921875 196 L 152 196 L 152 152 Z Z" stroke-miterlimit="10"/></g><g transform="translate(-142,-142) scale(1,1)"><path fill="none" stroke="#000000" d="M 152 177 L 202.919921875 177" stroke-miterlimit="10"/></g><g transform="translate(-142,-142) scale(1,1)"><path fill="none" stroke="#000000" d="M 152 187 L 202.919921875 187" stroke-miterlimit="10"/></g><g transform="translate(-142,-142) scale(1,1)"><g><path fill="none" stroke="none"/><text fill="#000000" stroke="none" font-family="Arial" font-size="13px" font-style="normal" font-weight="bold" text-decoration="none" x="166.986328125" y="171.5">Car</text></g></g><g transform="translate(-142,-142) scale(1,1)"><rect fill="#C0C0C0" stroke="none" x="327" y="159" width="52.33544921875" height="44" opacity="0.2"/></g><g transform="translate(-142,-142) scale(1,1)"><rect fill="#ffffff" stroke="none" x="320" y="152" width="52.33544921875" height="44"/></g><g transform="translate(-142,-142) scale(1,1)"><path fill="none" stroke="#000000" d="M 320 152 L 372.33544921875 152 L 372.33544921875 196 L 320 196 L 320 152 Z Z" stroke-miterlimit="10"/></g><g transform="translate(-142,-142) scale(1,1)"><path fill="none" stroke="#000000" d="M 320 177 L 372.33544921875 177" stroke-miterlimit="10"/></g><g transform="translate(-142,-142) scale(1,1)"><path fill="none" stroke="#000000" d="M 320 187 L 372.33544921875 187" stroke-miterlimit="10"/></g><g transform="translate(-142,-142) scale(1,1)"><g><path fill="none" stroke="none"/><text fill="#000000" stroke="none" font-family="Arial" font-size="13px" font-style="normal" font-weight="bold" text-decoration="none" x="325.92822265625" y="171.5">Engine</text></g></g><g transform="translate(-142,-142) scale(1,1)"><rect fill="#C0C0C0" stroke="none" x="159" y="255" width="50.919921875" height="44" opacity="0.2"/></g><g transform="translate(-142,-142) scale(1,1)"><rect fill="#ffffff" stroke="none" x="152" y="248" width="50.919921875" height="44"/></g><g transform="translate(-142,-142) scale(1,1)"><path fill="none" stroke="#000000" d="M 152 248 L 202.919921875 248 L 202.919921875 292 L 152 292 L 152 248 Z Z" stroke-miterlimit="10"/></g><g transform="translate(-142,-142) scale(1,1)"><path fill="none" stroke="#000000" d="M 152 273 L 202.919921875 273" stroke-miterlimit="10"/></g><g transform="translate(-142,-142) scale(1,1)"><path fill="none" stroke="#000000" d="M 152 283 L 202.919921875 283" stroke-miterlimit="10"/></g><g transform="translate(-142,-142) scale(1,1)"><g><path fill="none" stroke="none"/><text fill="#000000" stroke="none" font-family="Arial" font-size="13px" font-style="normal" font-weight="bold" text-decoration="none" x="162.64453125" y="267.5">Book</text></g></g><g transform="translate(-142,-142) scale(1,1)"><rect fill="#C0C0C0" stroke="none" x="327" y="255" width="50.919921875" height="44" opacity="0.2"/></g><g transform="translate(-142,-142) scale(1,1)"><rect fill="#ffffff" stroke="none" x="320" y="248" width="50.919921875" height="44"/></g><g transform="translate(-142,-142) scale(1,1)"><path fill="none" stroke="#000000" d="M 320 248 L 370.919921875 248 L 370.919921875 292 L 320 292 L 320 248 Z Z" stroke-miterlimit="10"/></g><g transform="translate(-142,-142) scale(1,1)"><path fill="none" stroke="#000000" d="M 320 273 L 370.919921875 273" stroke-miterlimit="10"/></g><g transform="translate(-142,-142) scale(1,1)"><path fill="none" stroke="#000000" d="M 320 283 L 370.919921875 283" stroke-miterlimit="10"/></g><g transform="translate(-142,-142) scale(1,1)"><g><path fill="none" stroke="none"/><text fill="#000000" stroke="none" font-family="Arial" font-size="13px" font-style="normal" font-weight="bold" text-decoration="none" x="330.279541015625" y="267.5">Page</text></g></g><g transform="translate(-142,-142) scale(1,1)"><path fill="none" stroke="#000000" d="M 319 270 L 204 270" stroke-miterlimit="10"/></g><g transform="translate(-142,-142) scale(1,1)"><path fill="#000000" stroke="none" d="M 214.16267485762415 265.790482243984 L 204 270 L 214.16267485762415 274.209517756016 L 226 270"/></g><g transform="translate(-142,-142) scale(1,1)"><path fill="none" stroke="#000000" d="M 214.16267485762415 265.790482243984 L 204 270 L 214.16267485762415 274.209517756016 L 226 270 L 214.16267485762415 265.790482243984" stroke-miterlimit="10"/></g><g transform="translate(-142,-142) scale(1,1)"><g><path fill="none" stroke="none"/><text fill="#000000" stroke="none" font-family="Arial" font-size="13px" font-style="normal" font-weight="normal" text-decoration="none" x="294.5" y="263.5">*</text></g></g><g transform="translate(-142,-142) scale(1,1)"><g><path fill="none" stroke="none"/><text fill="#000000" stroke="none" font-family="Arial" font-size="13px" font-style="normal" font-weight="normal" text-decoration="none" x="221.5" y="263.5">1</text></g></g><g transform="translate(-142,-142) scale(1,1)"><path fill="none" stroke="#000000" d="M 319 174 L 204 174" stroke-miterlimit="10"/></g><g transform="translate(-142,-142) scale(1,1)"><path fill="#FFFFFF" stroke="none" d="M 214.16267485762415 169.790482243984 L 204 174 L 214.16267485762415 178.209517756016 L 226 174"/></g><g transform="translate(-142,-142) scale(1,1)"><path fill="none" stroke="#000000" d="M 214.16267485762415 169.790482243984 L 204 174 L 214.16267485762415 178.209517756016 L 226 174 L 214.16267485762415 169.790482243984" stroke-miterlimit="10"/></g><g transform="translate(-142,-142) scale(1,1)"><g><path fill="none" stroke="none"/><text fill="#000000" stroke="none" font-family="Arial" font-size="13px" font-style="normal" font-weight="normal" text-decoration="none" x="293.5" y="167.5">1</text></g></g><g transform="translate(-142,-142) scale(1,1)"><g><path fill="none" stroke="none"/><text fill="#000000" stroke="none" font-family="Arial" font-size="13px" font-style="normal" font-weight="normal" text-decoration="none" x="221.5" y="167.5">1</text></g></g></g></svg>