<svg version="1.1" xmlns="http://www.w3.org/2000/svg" xmlns:xlink="http://www.w3.org/1999/xlink" width="356" height="84"><defs/><g><g transform="translate(-190,-166) scale(1,1)"><rect fill="#C0C0C0" stroke="none" x="207" y="191" width="73.32080078125" height="48" opacity="0.2"/></g><g transform="translate(-190,-166) scale(1,1)"><rect fill="#ffffff" stroke="none" x="200" y="184" width="73.32080078125" height="48"/></g><g transform="translate(-190,-166) scale(1,1)"><path fill="none" stroke="#000000" d="M 200 184 L 273.32080078125 184 L 273.32080078125 232 L 200 232 L 200 184 Z Z" stroke-miterlimit="10"/></g><g transform="translate(-190,-166) scale(1,1)"><g><path fill="none" stroke="none"/><text fill="#000000" stroke="none" font-family="Arial" font-size="13px" font-style="normal" font-weight="normal" text-decoration="none" x="204.5" y="201.5">«interface»</text></g></g><g transform="translate(-190,-166) scale(1,1)"><g><path fill="none" stroke="none"/><text fill="#000000" stroke="none" font-family="Arial" font-size="13px" font-style="normal" font-weight="bold" text-decoration="none" x="207.38818359375" y="216.5">Cloneable</text></g></g><g transform="translate(-190,-166) scale(1,1)"><path fill="#ffffff" stroke="none" d="M 352 176 L 525 176 L 535 186 L 535 239 L 352 239 L 352 176"/></g><g transform="translate(-190,-166) scale(1,1)"><path fill="none" stroke="#000000" d="M 352 176 L 525 176 L 535 186 L 535 239 L 352 239 L 352 176 L 352 176" stroke-miterlimit="10"/></g><g transform="translate(-190,-166) scale(1,1)"><path fill="none" stroke="#000000" d="M 525 176 L 525 186 L 535 186 L 525 176" stroke-miterlimit="10"/></g><g transform="translate(-190,-166) scale(1,1)"><g><path fill="none" stroke="none"/><text fill="#000000" stroke="none" font-family="Arial" font-size="13px" font-style="normal" font-weight="normal" text-decoration="none" x="357" y="194">Cloneable is a tagging</text><text fill="#000000" stroke="none" font-family="Arial" font-size="13px" font-style="normal" font-weight="normal" text-decoration="none" x="357" y="207">interface with no methods.</text><text fill="#000000" stroke="none" font-family="Arial" font-size="13px" font-style="normal" font-weight="normal" text-decoration="none" x="357" y="220">The clone() method is defined</text><text fill="#000000" stroke="none" font-family="Arial" font-size="13px" font-style="normal" font-weight="normal" text-decoration="none" x="357" y="233">in the Object class</text></g></g><g transform="translate(-190,-166) scale(1,1)"><path fill="none" stroke="#000000" d="M 351 208 L 274 208" stroke-miterlimit="10" stroke-dasharray="3"/></g></g></svg>