<svg version="1.1" xmlns="http://www.w3.org/2000/svg" xmlns:xlink="http://www.w3.org/1999/xlink" width="511.54345703125" height="296"><defs/><g><g transform="translate(-30,-158) scale(1,1)"><rect fill="#C0C0C0" stroke="none" x="159" y="183" width="151.7080078125" height="100" opacity="0.2"/></g><g transform="translate(-30,-158) scale(1,1)"><rect fill="#ffffff" stroke="none" x="152" y="176" width="151.7080078125" height="100"/></g><g transform="translate(-30,-158) scale(1,1)"><path fill="none" stroke="#000000" d="M 152 176 L 303.7080078125 176 L 303.7080078125 276 L 152 276 L 152 176 Z Z" stroke-miterlimit="10"/></g><g transform="translate(-30,-158) scale(1,1)"><path fill="none" stroke="#000000" d="M 152 201 L 303.7080078125 201" stroke-miterlimit="10"/></g><g transform="translate(-30,-158) scale(1,1)"><path fill="none" stroke="#000000" d="M 152 254 L 303.7080078125 254" stroke-miterlimit="10"/></g><g transform="translate(-30,-158) scale(1,1)"><g><path fill="none" stroke="none"/><text fill="#000000" stroke="none" font-family="Arial" font-size="13px" font-style="italic" font-weight="bold" text-decoration="none" x="209.439453125" y="195.5">Person</text></g></g><g transform="translate(-30,-158) scale(1,1)"><g><path fill="none" stroke="none"/><text fill="#000000" stroke="none" font-family="Arial" font-size="13px" font-style="normal" font-weight="normal" text-decoration="none" x="157" y="218.5">-name: String</text></g></g><g transform="translate(-30,-158) scale(1,1)"><g><path fill="none" stroke="none"/><text fill="#000000" stroke="none" font-family="Arial" font-size="13px" font-style="normal" font-weight="normal" text-decoration="none" x="157" y="233.5">-phoneNumber: String</text></g></g><g transform="translate(-30,-158) scale(1,1)"><g><path fill="none" stroke="none"/><text fill="#000000" stroke="none" font-family="Arial" font-size="13px" font-style="normal" font-weight="normal" text-decoration="none" x="157" y="248.5">-email: String</text></g></g><g transform="translate(-30,-158) scale(1,1)"><g><path fill="none" stroke="none"/><text fill="#000000" stroke="none" font-family="Arial" font-size="13px" font-style="normal" font-weight="normal" text-decoration="none" x="157" y="271.5">+purchaseParkingPass()</text></g></g><g transform="translate(-30,-158) scale(1,1)"><rect fill="#C0C0C0" stroke="none" x="415" y="175" width="123.54345703125" height="145" opacity="0.2"/></g><g transform="translate(-30,-158) scale(1,1)"><rect fill="#ffffff" stroke="none" x="408" y="168" width="123.54345703125" height="145"/></g><g transform="translate(-30,-158) scale(1,1)"><path fill="none" stroke="#000000" d="M 408 168 L 531.54345703125 168 L 531.54345703125 313 L 408 313 L 408 168 Z Z" stroke-miterlimit="10"/></g><g transform="translate(-30,-158) scale(1,1)"><path fill="none" stroke="#000000" d="M 408 193 L 531.54345703125 193" stroke-miterlimit="10"/></g><g transform="translate(-30,-158) scale(1,1)"><path fill="none" stroke="#000000" d="M 408 276 L 531.54345703125 276" stroke-miterlimit="10"/></g><g transform="translate(-30,-158) scale(1,1)"><g><path fill="none" stroke="none"/><text fill="#000000" stroke="none" font-family="Arial" font-size="13px" font-style="normal" font-weight="bold" text-decoration="none" x="445.9267578125" y="187.5">Address</text></g></g><g transform="translate(-30,-158) scale(1,1)"><g><path fill="none" stroke="none"/><text fill="#000000" stroke="none" font-family="Arial" font-size="13px" font-style="normal" font-weight="normal" text-decoration="none" x="413" y="210.5">-street: String</text></g></g><g transform="translate(-30,-158) scale(1,1)"><g><path fill="none" stroke="none"/><text fill="#000000" stroke="none" font-family="Arial" font-size="13px" font-style="normal" font-weight="normal" text-decoration="none" x="413" y="225.5">-city: String</text></g></g><g transform="translate(-30,-158) scale(1,1)"><g><path fill="none" stroke="none"/><text fill="#000000" stroke="none" font-family="Arial" font-size="13px" font-style="normal" font-weight="normal" text-decoration="none" x="413" y="240.5">-state: String</text></g></g><g transform="translate(-30,-158) scale(1,1)"><g><path fill="none" stroke="none"/><text fill="#000000" stroke="none" font-family="Arial" font-size="13px" font-style="normal" font-weight="normal" text-decoration="none" x="413" y="255.5">-postalCode: String</text></g></g><g transform="translate(-30,-158) scale(1,1)"><g><path fill="none" stroke="none"/><text fill="#000000" stroke="none" font-family="Arial" font-size="13px" font-style="normal" font-weight="normal" text-decoration="none" x="413" y="270.5">-country: String</text></g></g><g transform="translate(-30,-158) scale(1,1)"><g><path fill="none" stroke="none"/><text fill="#000000" stroke="none" font-family="Arial" font-size="13px" font-style="normal" font-weight="normal" text-decoration="none" x="413" y="293.5">+validate()</text></g></g><g transform="translate(-30,-158) scale(1,1)"><g><path fill="none" stroke="none"/><text fill="#000000" stroke="none" font-family="Arial" font-size="13px" font-style="normal" font-weight="normal" text-decoration="none" x="413" y="308.5">+createLabel()</text></g></g><g transform="translate(-30,-158) scale(1,1)"><path fill="none" stroke="#000000" d="M 304 236 L 408 236" stroke-miterlimit="10"/></g><g transform="translate(-30,-158) scale(1,1)"><g><path fill="none" stroke="none"/><text fill="#000000" stroke="none" font-family="Arial" font-size="13px" font-style="normal" font-weight="normal" text-decoration="none" x="333.5" y="227.5">+livesAt</text></g></g><g transform="translate(-30,-158) scale(1,1)"><g><path fill="none" stroke="none"/><text fill="#000000" stroke="none" font-family="Arial" font-size="13px" font-style="normal" font-weight="normal" text-decoration="none" x="314.5" y="254.5">0..1</text></g></g><g transform="translate(-30,-158) scale(1,1)"><g><path fill="none" stroke="none"/><text fill="#000000" stroke="none" font-family="Arial" font-size="13px" font-style="normal" font-weight="normal" text-decoration="none" x="382.5" y="254.5">1</text></g></g><g transform="translate(-30,-158) scale(1,1)"><rect fill="#C0C0C0" stroke="none" x="47" y="351" width="180.58984375" height="100" opacity="0.2"/></g><g transform="translate(-30,-158) scale(1,1)"><rect fill="#ffffff" stroke="none" x="40" y="344" width="180.58984375" height="100"/></g><g transform="translate(-30,-158) scale(1,1)"><path fill="none" stroke="#000000" d="M 40 344 L 220.58984375 344 L 220.58984375 444 L 40 444 L 40 344 Z Z" stroke-miterlimit="10"/></g><g transform="translate(-30,-158) scale(1,1)"><path fill="none" stroke="#000000" d="M 40 369 L 220.58984375 369" stroke-miterlimit="10"/></g><g transform="translate(-30,-158) scale(1,1)"><path fill="none" stroke="#000000" d="M 40 407 L 220.58984375 407" stroke-miterlimit="10"/></g><g transform="translate(-30,-158) scale(1,1)"><g><path fill="none" stroke="none"/><text fill="#000000" stroke="none" font-family="Arial" font-size="13px" font-style="normal" font-weight="bold" text-decoration="none" x="107.8876953125" y="363.5">Student</text></g></g><g transform="translate(-30,-158) scale(1,1)"><g><path fill="none" stroke="none"/><text fill="#000000" stroke="none" font-family="Arial" font-size="13px" font-style="normal" font-weight="normal" text-decoration="none" x="45" y="386.5">+idNumber: String</text></g></g><g transform="translate(-30,-158) scale(1,1)"><g><path fill="none" stroke="none"/><text fill="#000000" stroke="none" font-family="Arial" font-size="13px" font-style="normal" font-weight="normal" text-decoration="none" x="45" y="401.5">+gpa: double</text></g></g><g transform="translate(-30,-158) scale(1,1)"><g><path fill="none" stroke="none"/><text fill="#000000" stroke="none" font-family="Arial" font-size="13px" font-style="normal" font-weight="normal" text-decoration="none" x="45" y="424.5">+canEnroll(): boolean</text></g></g><g transform="translate(-30,-158) scale(1,1)"><g><path fill="none" stroke="none"/><text fill="#000000" stroke="none" font-family="Arial" font-size="13px" font-style="normal" font-weight="normal" text-decoration="none" x="45" y="439.5">+seminarsTaken(): Seminar[*]</text></g></g><g transform="translate(-30,-158) scale(1,1)"><rect fill="#C0C0C0" stroke="none" x="247" y="351" width="97.53076171875" height="57" opacity="0.2"/></g><g transform="translate(-30,-158) scale(1,1)"><rect fill="#ffffff" stroke="none" x="240" y="344" width="97.53076171875" height="57"/></g><g transform="translate(-30,-158) scale(1,1)"><path fill="none" stroke="#000000" d="M 240 344 L 337.53076171875 344 L 337.53076171875 401 L 240 401 L 240 344 Z Z" stroke-miterlimit="10"/></g><g transform="translate(-30,-158) scale(1,1)"><path fill="none" stroke="#000000" d="M 240 369 L 337.53076171875 369" stroke-miterlimit="10"/></g><g transform="translate(-30,-158) scale(1,1)"><path fill="none" stroke="#000000" d="M 240 392 L 337.53076171875 392" stroke-miterlimit="10"/></g><g transform="translate(-30,-158) scale(1,1)"><g><path fill="none" stroke="none"/><text fill="#000000" stroke="none" font-family="Arial" font-size="13px" font-style="normal" font-weight="bold" text-decoration="none" x="260.949951171875" y="363.5">Professor</text></g></g><g transform="translate(-30,-158) scale(1,1)"><g><path fill="none" stroke="none"/><text fill="#000000" stroke="none" font-family="Arial" font-size="13px" font-style="normal" font-weight="normal" text-decoration="none" x="245" y="386.5">+salary: double</text></g></g><g transform="translate(-30,-158) scale(1,1)"><path fill="none" stroke="#000000" d="M 150 344 L 150 318 L 228 318 L 228 276" stroke-miterlimit="10"/></g><g transform="translate(-30,-158) scale(1,1)"><path fill="#FFFFFF" stroke="none" d="M 236.41903551203197 296.3253497152483 L 228 276 L 219.58096448796803 296.3253497152483"/></g><g transform="translate(-30,-158) scale(1,1)"><path fill="none" stroke="#000000" d="M 236.41903551203197 296.3253497152483 L 228 276 L 219.58096448796803 296.3253497152483 L 236.41903551203197 296.3253497152483" stroke-miterlimit="10"/></g><g transform="translate(-30,-158) scale(1,1)"><path fill="none" stroke="#000000" d="M 288 344 L 288 318 L 228 318 L 228 276" stroke-miterlimit="10"/></g><g transform="translate(-30,-158) scale(1,1)"><path fill="#FFFFFF" stroke="none" d="M 236.41903551203197 296.3253497152483 L 228 276 L 219.58096448796803 296.3253497152483"/></g><g transform="translate(-30,-158) scale(1,1)"><path fill="none" stroke="#000000" d="M 236.41903551203197 296.3253497152483 L 228 276 L 219.58096448796803 296.3253497152483 L 236.41903551203197 296.3253497152483" stroke-miterlimit="10"/></g></g></svg>