<svg version="1.1" xmlns="http://www.w3.org/2000/svg" xmlns:xlink="http://www.w3.org/1999/xlink" width="210.0224609375" height="279"><defs/><g><g transform="translate(-198,-118) scale(1,1)"><rect fill="#C0C0C0" stroke="none" x="215" y="135" width="190.0224609375" height="115" opacity="0.2"/></g><g transform="translate(-198,-118) scale(1,1)"><rect fill="#ffffff" stroke="none" x="208" y="128" width="190.0224609375" height="115"/></g><g transform="translate(-198,-118) scale(1,1)"><path fill="none" stroke="#000000" d="M 208 128 L 398.0224609375 128 L 398.0224609375 243 L 208 243 L 208 128 Z Z" stroke-miterlimit="10"/></g><g transform="translate(-198,-118) scale(1,1)"><path fill="none" stroke="#000000" d="M 208 153 L 398.0224609375 153" stroke-miterlimit="10"/></g><g transform="translate(-198,-118) scale(1,1)"><path fill="none" stroke="#000000" d="M 208 206 L 398.0224609375 206" stroke-miterlimit="10"/></g><g transform="translate(-198,-118) scale(1,1)"><g><path fill="none" stroke="none"/><text fill="#000000" stroke="none" font-family="Arial" font-size="13px" font-style="normal" font-weight="bold" text-decoration="none" x="273.7421875" y="147.5">Rectangle</text></g></g><g transform="translate(-198,-118) scale(1,1)"><g><path fill="none" stroke="none"/><text fill="#000000" stroke="none" font-family="Arial" font-size="13px" font-style="normal" font-weight="normal" text-decoration="none" x="213" y="170.5">-width: int</text></g></g><g transform="translate(-198,-118) scale(1,1)"><g><path fill="none" stroke="none"/><text fill="#000000" stroke="none" font-family="Arial" font-size="13px" font-style="normal" font-weight="normal" text-decoration="none" x="213" y="185.5">-height: int</text></g></g><g transform="translate(-198,-118) scale(1,1)"><g><path fill="none" stroke="none"/><text fill="#000000" stroke="none" font-family="Arial" font-size="13px" font-style="normal" font-weight="normal" text-decoration="none" x="213" y="200.5">+/area: double</text></g></g><g transform="translate(-198,-118) scale(1,1)"><g><path fill="none" stroke="none"/><text fill="#000000" stroke="none" font-family="Arial" font-size="13px" font-style="normal" font-weight="normal" text-decoration="none" x="213" y="223.5">+Rectangle(w: int, h: int)</text></g></g><g transform="translate(-198,-118) scale(1,1)"><g><path fill="none" stroke="none"/><text fill="#000000" stroke="none" font-family="Arial" font-size="13px" font-style="normal" font-weight="normal" text-decoration="none" x="213" y="238.5">+distance(r: Rectangle): double</text></g></g><g transform="translate(-198,-118) scale(1,1)"><rect fill="#C0C0C0" stroke="none" x="255" y="279" width="117.01171875" height="115" opacity="0.2"/></g><g transform="translate(-198,-118) scale(1,1)"><rect fill="#ffffff" stroke="none" x="248" y="272" width="117.01171875" height="115"/></g><g transform="translate(-198,-118) scale(1,1)"><path fill="none" stroke="#000000" d="M 248 272 L 365.01171875 272 L 365.01171875 387 L 248 387 L 248 272 Z Z" stroke-miterlimit="10"/></g><g transform="translate(-198,-118) scale(1,1)"><path fill="none" stroke="#000000" d="M 248 297 L 365.01171875 297" stroke-miterlimit="10"/></g><g transform="translate(-198,-118) scale(1,1)"><path fill="none" stroke="#000000" d="M 248 350 L 365.01171875 350" stroke-miterlimit="10"/></g><g transform="translate(-198,-118) scale(1,1)"><g><path fill="none" stroke="none"/><text fill="#000000" stroke="none" font-family="Arial" font-size="13px" font-style="normal" font-weight="bold" text-decoration="none" x="284.0986328125" y="291.5">Student</text></g></g><g transform="translate(-198,-118) scale(1,1)"><g><path fill="none" stroke="none"/><text fill="#000000" stroke="none" font-family="Arial" font-size="13px" font-style="normal" font-weight="normal" text-decoration="none" x="253" y="314.5">-name: String</text></g></g><g transform="translate(-198,-118) scale(1,1)"><g><path fill="none" stroke="none"/><text fill="#000000" stroke="none" font-family="Arial" font-size="13px" font-style="normal" font-weight="normal" text-decoration="none" x="253" y="329.5">-id: int</text></g></g><g transform="translate(-198,-118) scale(1,1)"><g><path fill="none" stroke="none"/><text fill="#000000" stroke="none" font-family="Arial" font-size="13px" font-style="normal" font-weight="normal" text-decoration="none" x="253" y="344.5">-totalStudents: int</text><path fill="none" stroke="#000000" d="M 253 344.5 L 354.1689453125 344.5" stroke-miterlimit="10"/></g></g><g transform="translate(-198,-118) scale(1,1)"><g><path fill="none" stroke="none"/><text fill="#000000" stroke="none" font-family="Arial" font-size="13px" font-style="normal" font-weight="normal" text-decoration="none" x="253" y="367.5">#getID(): int</text></g></g><g transform="translate(-198,-118) scale(1,1)"><g><path fill="none" stroke="none"/><text fill="#000000" stroke="none" font-family="Arial" font-size="13px" font-style="normal" font-weight="normal" text-decoration="none" x="253" y="382.5">~getEmail(): String</text></g></g></g></svg>