<svg version="1.1" xmlns="http://www.w3.org/2000/svg" xmlns:xlink="http://www.w3.org/1999/xlink" width="502.919921875" height="368"><defs/><g><g transform="translate(-46,-86) scale(1,1)"><rect fill="#C0C0C0" stroke="none" x="159" y="103" width="223.2333984375" height="75" opacity="0.2"/></g><g transform="translate(-46,-86) scale(1,1)"><rect fill="#ffffff" stroke="none" x="152" y="96" width="223.2333984375" height="75"/></g><g transform="translate(-46,-86) scale(1,1)"><path fill="none" stroke="#000000" d="M 152 96 L 375.2333984375 96 L 375.2333984375 171 L 152 171 L 152 96 Z Z" stroke-miterlimit="10"/></g><g transform="translate(-46,-86) scale(1,1)"><path fill="none" stroke="#000000" d="M 152 134 L 375.2333984375 134" stroke-miterlimit="10"/></g><g transform="translate(-46,-86) scale(1,1)"><g><path fill="none" stroke="none"/><text fill="#000000" stroke="none" font-family="Arial" font-size="13px" font-style="normal" font-weight="normal" text-decoration="none" x="231.456298828125" y="113.5">«interface»</text></g></g><g transform="translate(-46,-86) scale(1,1)"><g><path fill="none" stroke="none"/><text fill="#000000" stroke="none" font-family="Arial" font-size="13px" font-style="normal" font-weight="bold" text-decoration="none" x="218.10400390625" y="128.5">AbstractFactory</text></g></g><g transform="translate(-46,-86) scale(1,1)"><g><path fill="none" stroke="none"/><text fill="#000000" stroke="none" font-family="Arial" font-size="13px" font-style="normal" font-weight="normal" text-decoration="none" x="157" y="151.5">+createProductA(): AbstractProductA</text></g></g><g transform="translate(-46,-86) scale(1,1)"><g><path fill="none" stroke="none"/><text fill="#000000" stroke="none" font-family="Arial" font-size="13px" font-style="normal" font-weight="normal" text-decoration="none" x="157" y="166.5">+createProductB(): AbstractProductB</text></g></g><g transform="translate(-46,-86) scale(1,1)"><rect fill="#C0C0C0" stroke="none" x="495" y="103" width="50.919921875" height="44" opacity="0.2"/></g><g transform="translate(-46,-86) scale(1,1)"><rect fill="#ffffff" stroke="none" x="488" y="96" width="50.919921875" height="44"/></g><g transform="translate(-46,-86) scale(1,1)"><path fill="none" stroke="#000000" d="M 488 96 L 538.919921875 96 L 538.919921875 140 L 488 140 L 488 96 Z Z" stroke-miterlimit="10"/></g><g transform="translate(-46,-86) scale(1,1)"><path fill="none" stroke="#000000" d="M 488 121 L 538.919921875 121" stroke-miterlimit="10"/></g><g transform="translate(-46,-86) scale(1,1)"><path fill="none" stroke="#000000" d="M 488 131 L 538.919921875 131" stroke-miterlimit="10"/></g><g transform="translate(-46,-86) scale(1,1)"><g><path fill="none" stroke="none"/><text fill="#000000" stroke="none" font-family="Arial" font-size="13px" font-style="normal" font-weight="bold" text-decoration="none" x="496.841796875" y="115.5">Client</text></g></g><g transform="translate(-46,-86) scale(1,1)"><path fill="none" stroke="#000000" d="M 375 126 L 488 126" stroke-miterlimit="10"/></g><g transform="translate(-46,-86) scale(1,1)"><g><path fill="none" stroke="none"/><text fill="#000000" stroke="none" font-family="Arial" font-size="13px" font-style="normal" font-weight="normal" text-decoration="none" x="378.13134765625" y="117.5">-factory</text></g></g><g transform="translate(-46,-86) scale(1,1)"><rect fill="#C0C0C0" stroke="none" x="63" y="231" width="182.77978515625" height="72" opacity="0.2"/></g><g transform="translate(-46,-86) scale(1,1)"><rect fill="#ffffff" stroke="none" x="56" y="224" width="182.77978515625" height="72"/></g><g transform="translate(-46,-86) scale(1,1)"><path fill="none" stroke="#000000" d="M 56 224 L 238.77978515625 224 L 238.77978515625 296 L 56 296 L 56 224 Z Z" stroke-miterlimit="10"/></g><g transform="translate(-46,-86) scale(1,1)"><path fill="none" stroke="#000000" d="M 56 249 L 238.77978515625 249" stroke-miterlimit="10"/></g><g transform="translate(-46,-86) scale(1,1)"><path fill="none" stroke="#000000" d="M 56 259 L 238.77978515625 259" stroke-miterlimit="10"/></g><g transform="translate(-46,-86) scale(1,1)"><g><path fill="none" stroke="none"/><text fill="#000000" stroke="none" font-family="Arial" font-size="13px" font-style="normal" font-weight="bold" text-decoration="none" x="98.6240234375" y="243.5">ConcretFactoryA</text></g></g><g transform="translate(-46,-86) scale(1,1)"><g><path fill="none" stroke="none"/><text fill="#000000" stroke="none" font-family="Arial" font-size="13px" font-style="normal" font-weight="normal" text-decoration="none" x="61" y="276.5">+createProductA(): ProductA1</text></g></g><g transform="translate(-46,-86) scale(1,1)"><g><path fill="none" stroke="none"/><text fill="#000000" stroke="none" font-family="Arial" font-size="13px" font-style="normal" font-weight="normal" text-decoration="none" x="61" y="291.5">+createProductB(): ProductB1</text></g></g><g transform="translate(-46,-86) scale(1,1)"><rect fill="#C0C0C0" stroke="none" x="279" y="231" width="182.77978515625" height="72" opacity="0.2"/></g><g transform="translate(-46,-86) scale(1,1)"><rect fill="#ffffff" stroke="none" x="272" y="224" width="182.77978515625" height="72"/></g><g transform="translate(-46,-86) scale(1,1)"><path fill="none" stroke="#000000" d="M 272 224 L 454.77978515625 224 L 454.77978515625 296 L 272 296 L 272 224 Z Z" stroke-miterlimit="10"/></g><g transform="translate(-46,-86) scale(1,1)"><path fill="none" stroke="#000000" d="M 272 249 L 454.77978515625 249" stroke-miterlimit="10"/></g><g transform="translate(-46,-86) scale(1,1)"><path fill="none" stroke="#000000" d="M 272 259 L 454.77978515625 259" stroke-miterlimit="10"/></g><g transform="translate(-46,-86) scale(1,1)"><g><path fill="none" stroke="none"/><text fill="#000000" stroke="none" font-family="Arial" font-size="13px" font-style="normal" font-weight="bold" text-decoration="none" x="311.009033203125" y="243.5">ConcreteFactoryB</text></g></g><g transform="translate(-46,-86) scale(1,1)"><g><path fill="none" stroke="none"/><text fill="#000000" stroke="none" font-family="Arial" font-size="13px" font-style="normal" font-weight="normal" text-decoration="none" x="277" y="276.5">+createProductA(): ProductA2</text></g></g><g transform="translate(-46,-86) scale(1,1)"><g><path fill="none" stroke="none"/><text fill="#000000" stroke="none" font-family="Arial" font-size="13px" font-style="normal" font-weight="normal" text-decoration="none" x="277" y="291.5">+createProductB(): ProductB2</text></g></g><g transform="translate(-46,-86) scale(1,1)"><path fill="none" stroke="#000000" d="M 181 223 L 227 172" stroke-miterlimit="10" stroke-dasharray="3"/></g><g transform="translate(-46,-86) scale(1,1)"><path fill="#FFFFFF" stroke="none" d="M 219.6384363886401 192.73179638130526 L 227 172 L 207.13499464287162 181.45418225767094"/></g><g transform="translate(-46,-86) scale(1,1)"><path fill="none" stroke="#000000" d="M 219.6384363886401 192.73179638130526 L 227 172 L 207.13499464287162 181.45418225767094 L 219.6384363886401 192.73179638130526" stroke-miterlimit="10"/></g><g transform="translate(-46,-86) scale(1,1)"><path fill="none" stroke="#000000" d="M 334 223 L 294 172" stroke-miterlimit="10" stroke-dasharray="3"/></g><g transform="translate(-46,-86) scale(1,1)"><path fill="#FFFFFF" stroke="none" d="M 313.16813186928465 182.7973478522142 L 294 172 L 299.91903814231847 193.1887939125798"/></g><g transform="translate(-46,-86) scale(1,1)"><path fill="none" stroke="#000000" d="M 313.16813186928465 182.7973478522142 L 294 172 L 299.91903814231847 193.1887939125798 L 313.16813186928465 182.7973478522142" stroke-miterlimit="10"/></g><g transform="translate(-46,-86) scale(1,1)"><rect fill="#C0C0C0" stroke="none" x="119" y="327" width="120.236328125" height="37" opacity="0.2"/></g><g transform="translate(-46,-86) scale(1,1)"><rect fill="#ffffff" stroke="none" x="112" y="320" width="120.236328125" height="37"/></g><g transform="translate(-46,-86) scale(1,1)"><path fill="none" stroke="#000000" d="M 112 320 L 232.236328125 320 L 232.236328125 357 L 112 357 L 112 320 Z Z" stroke-miterlimit="10"/></g><g transform="translate(-46,-86) scale(1,1)"><g><path fill="none" stroke="none"/><text fill="#000000" stroke="none" font-family="Arial" font-size="13px" font-style="normal" font-weight="normal" text-decoration="none" x="139.957763671875" y="337.5">«interface»</text></g></g><g transform="translate(-46,-86) scale(1,1)"><g><path fill="none" stroke="none"/><text fill="#000000" stroke="none" font-family="Arial" font-size="13px" font-style="normal" font-weight="bold" text-decoration="none" x="121.5400390625" y="352.5">AbstractProductA</text></g></g><g transform="translate(-46,-86) scale(1,1)"><rect fill="#C0C0C0" stroke="none" x="383" y="327" width="120.236328125" height="37" opacity="0.2"/></g><g transform="translate(-46,-86) scale(1,1)"><rect fill="#ffffff" stroke="none" x="376" y="320" width="120.236328125" height="37"/></g><g transform="translate(-46,-86) scale(1,1)"><path fill="none" stroke="#000000" d="M 376 320 L 496.236328125 320 L 496.236328125 357 L 376 357 L 376 320 Z Z" stroke-miterlimit="10"/></g><g transform="translate(-46,-86) scale(1,1)"><g><path fill="none" stroke="none"/><text fill="#000000" stroke="none" font-family="Arial" font-size="13px" font-style="normal" font-weight="normal" text-decoration="none" x="403.957763671875" y="337.5">«interface»</text></g></g><g transform="translate(-46,-86) scale(1,1)"><g><path fill="none" stroke="none"/><text fill="#000000" stroke="none" font-family="Arial" font-size="13px" font-style="normal" font-weight="bold" text-decoration="none" x="385.5400390625" y="352.5">AbstractProductB</text></g></g><g transform="translate(-46,-86) scale(1,1)"><rect fill="#C0C0C0" stroke="none" x="87" y="407" width="74.72998046875" height="44" opacity="0.2"/></g><g transform="translate(-46,-86) scale(1,1)"><rect fill="#ffffff" stroke="none" x="80" y="400" width="74.72998046875" height="44"/></g><g transform="translate(-46,-86) scale(1,1)"><path fill="none" stroke="#000000" d="M 80 400 L 154.72998046875 400 L 154.72998046875 444 L 80 444 L 80 400 Z Z" stroke-miterlimit="10"/></g><g transform="translate(-46,-86) scale(1,1)"><path fill="none" stroke="#000000" d="M 80 425 L 154.72998046875 425" stroke-miterlimit="10"/></g><g transform="translate(-46,-86) scale(1,1)"><path fill="none" stroke="#000000" d="M 80 435 L 154.72998046875 435" stroke-miterlimit="10"/></g><g transform="translate(-46,-86) scale(1,1)"><g><path fill="none" stroke="none"/><text fill="#000000" stroke="none" font-family="Arial" font-size="13px" font-style="normal" font-weight="bold" text-decoration="none" x="87.013671875" y="419.5">ProductA1</text></g></g><g transform="translate(-46,-86) scale(1,1)"><rect fill="#C0C0C0" stroke="none" x="199" y="407" width="74.72998046875" height="44" opacity="0.2"/></g><g transform="translate(-46,-86) scale(1,1)"><rect fill="#ffffff" stroke="none" x="192" y="400" width="74.72998046875" height="44"/></g><g transform="translate(-46,-86) scale(1,1)"><path fill="none" stroke="#000000" d="M 192 400 L 266.72998046875 400 L 266.72998046875 444 L 192 444 L 192 400 Z Z" stroke-miterlimit="10"/></g><g transform="translate(-46,-86) scale(1,1)"><path fill="none" stroke="#000000" d="M 192 425 L 266.72998046875 425" stroke-miterlimit="10"/></g><g transform="translate(-46,-86) scale(1,1)"><path fill="none" stroke="#000000" d="M 192 435 L 266.72998046875 435" stroke-miterlimit="10"/></g><g transform="translate(-46,-86) scale(1,1)"><g><path fill="none" stroke="none"/><text fill="#000000" stroke="none" font-family="Arial" font-size="13px" font-style="normal" font-weight="bold" text-decoration="none" x="199.013671875" y="419.5">ProductA2</text></g></g><g transform="translate(-46,-86) scale(1,1)"><path fill="none" stroke="#000000" d="M 132 399 L 159 358" stroke-miterlimit="10" stroke-dasharray="3"/></g><g transform="translate(-46,-86) scale(1,1)"><path fill="#FFFFFF" stroke="none" d="M 154.8525825040413 379.6055300354843 L 159 358 L 140.78991616497527 370.3447497634165"/></g><g transform="translate(-46,-86) scale(1,1)"><path fill="none" stroke="#000000" d="M 154.8525825040413 379.6055300354843 L 159 358 L 140.78991616497527 370.3447497634165 L 154.8525825040413 379.6055300354843" stroke-miterlimit="10"/></g><g transform="translate(-46,-86) scale(1,1)"><path fill="none" stroke="#000000" d="M 213 399 L 186 358" stroke-miterlimit="10" stroke-dasharray="3"/></g><g transform="translate(-46,-86) scale(1,1)"><path fill="#FFFFFF" stroke="none" d="M 204.21008383502473 370.3447497634165 L 186 358 L 190.1474174959587 379.6055300354843"/></g><g transform="translate(-46,-86) scale(1,1)"><path fill="none" stroke="#000000" d="M 204.21008383502473 370.3447497634165 L 186 358 L 190.1474174959587 379.6055300354843 L 204.21008383502473 370.3447497634165" stroke-miterlimit="10"/></g><g transform="translate(-46,-86) scale(1,1)"><rect fill="#C0C0C0" stroke="none" x="351" y="407" width="74.72998046875" height="44" opacity="0.2"/></g><g transform="translate(-46,-86) scale(1,1)"><rect fill="#ffffff" stroke="none" x="344" y="400" width="74.72998046875" height="44"/></g><g transform="translate(-46,-86) scale(1,1)"><path fill="none" stroke="#000000" d="M 344 400 L 418.72998046875 400 L 418.72998046875 444 L 344 444 L 344 400 Z Z" stroke-miterlimit="10"/></g><g transform="translate(-46,-86) scale(1,1)"><path fill="none" stroke="#000000" d="M 344 425 L 418.72998046875 425" stroke-miterlimit="10"/></g><g transform="translate(-46,-86) scale(1,1)"><path fill="none" stroke="#000000" d="M 344 435 L 418.72998046875 435" stroke-miterlimit="10"/></g><g transform="translate(-46,-86) scale(1,1)"><g><path fill="none" stroke="none"/><text fill="#000000" stroke="none" font-family="Arial" font-size="13px" font-style="normal" font-weight="bold" text-decoration="none" x="351.013671875" y="419.5">ProductB1</text></g></g><g transform="translate(-46,-86) scale(1,1)"><rect fill="#C0C0C0" stroke="none" x="463" y="407" width="74.72998046875" height="44" opacity="0.2"/></g><g transform="translate(-46,-86) scale(1,1)"><rect fill="#ffffff" stroke="none" x="456" y="400" width="74.72998046875" height="44"/></g><g transform="translate(-46,-86) scale(1,1)"><path fill="none" stroke="#000000" d="M 456 400 L 530.72998046875 400 L 530.72998046875 444 L 456 444 L 456 400 Z Z" stroke-miterlimit="10"/></g><g transform="translate(-46,-86) scale(1,1)"><path fill="none" stroke="#000000" d="M 456 425 L 530.72998046875 425" stroke-miterlimit="10"/></g><g transform="translate(-46,-86) scale(1,1)"><path fill="none" stroke="#000000" d="M 456 435 L 530.72998046875 435" stroke-miterlimit="10"/></g><g transform="translate(-46,-86) scale(1,1)"><g><path fill="none" stroke="none"/><text fill="#000000" stroke="none" font-family="Arial" font-size="13px" font-style="normal" font-weight="bold" text-decoration="none" x="463.013671875" y="419.5">ProductB2</text></g></g><g transform="translate(-46,-86) scale(1,1)"><path fill="none" stroke="#000000" d="M 396 399 L 423 358" stroke-miterlimit="10" stroke-dasharray="3"/></g><g transform="translate(-46,-86) scale(1,1)"><path fill="#FFFFFF" stroke="none" d="M 418.85258250404127 379.6055300354843 L 423 358 L 404.78991616497524 370.3447497634165"/></g><g transform="translate(-46,-86) scale(1,1)"><path fill="none" stroke="#000000" d="M 418.85258250404127 379.6055300354843 L 423 358 L 404.78991616497524 370.3447497634165 L 418.85258250404127 379.6055300354843" stroke-miterlimit="10"/></g><g transform="translate(-46,-86) scale(1,1)"><path fill="none" stroke="#000000" d="M 477 399 L 450 358" stroke-miterlimit="10" stroke-dasharray="3"/></g><g transform="translate(-46,-86) scale(1,1)"><path fill="#FFFFFF" stroke="none" d="M 468.21008383502476 370.3447497634165 L 450 358 L 454.14741749595873 379.6055300354843"/></g><g transform="translate(-46,-86) scale(1,1)"><path fill="none" stroke="#000000" d="M 468.21008383502476 370.3447497634165 L 450 358 L 454.14741749595873 379.6055300354843 L 468.21008383502476 370.3447497634165" stroke-miterlimit="10"/></g></g></svg>