<svg version="1.1" xmlns="http://www.w3.org/2000/svg" xmlns:xlink="http://www.w3.org/1999/xlink" width="368.1826171875" height="304"><defs/><g><g transform="translate(-206,-190) scale(1,1)"><rect fill="#C0C0C0" stroke="none" x="223" y="207" width="126.39990234375" height="57" opacity="0.2"/></g><g transform="translate(-206,-190) scale(1,1)"><rect fill="#ffffff" stroke="none" x="216" y="200" width="126.39990234375" height="57"/></g><g transform="translate(-206,-190) scale(1,1)"><path fill="none" stroke="#000000" d="M 216 200 L 342.39990234375 200 L 342.39990234375 257 L 216 257 L 216 200 Z Z" stroke-miterlimit="10"/></g><g transform="translate(-206,-190) scale(1,1)"><path fill="none" stroke="#000000" d="M 216 225 L 342.39990234375 225" stroke-miterlimit="10"/></g><g transform="translate(-206,-190) scale(1,1)"><path fill="none" stroke="#000000" d="M 216 235 L 342.39990234375 235" stroke-miterlimit="10"/></g><g transform="translate(-206,-190) scale(1,1)"><g><path fill="none" stroke="none"/><text fill="#000000" stroke="none" font-family="Arial" font-size="13px" font-style="normal" font-weight="bold" text-decoration="none" x="247.76953125" y="219.5">PizzaStore</text></g></g><g transform="translate(-206,-190) scale(1,1)"><g><path fill="none" stroke="none"/><text fill="#000000" stroke="none" font-family="Arial" font-size="13px" font-style="normal" font-weight="normal" text-decoration="none" x="221" y="252.5">+orderPizza(): Pizza</text></g></g><g transform="translate(-206,-190) scale(1,1)"><rect fill="#C0C0C0" stroke="none" x="439" y="207" width="132.1826171875" height="57" opacity="0.2"/></g><g transform="translate(-206,-190) scale(1,1)"><rect fill="#ffffff" stroke="none" x="432" y="200" width="132.1826171875" height="57"/></g><g transform="translate(-206,-190) scale(1,1)"><path fill="none" stroke="#000000" d="M 432 200 L 564.1826171875 200 L 564.1826171875 257 L 432 257 L 432 200 Z Z" stroke-miterlimit="10"/></g><g transform="translate(-206,-190) scale(1,1)"><path fill="none" stroke="#000000" d="M 432 225 L 564.1826171875 225" stroke-miterlimit="10"/></g><g transform="translate(-206,-190) scale(1,1)"><path fill="none" stroke="#000000" d="M 432 235 L 564.1826171875 235" stroke-miterlimit="10"/></g><g transform="translate(-206,-190) scale(1,1)"><g><path fill="none" stroke="none"/><text fill="#000000" stroke="none" font-family="Arial" font-size="13px" font-style="normal" font-weight="bold" text-decoration="none" x="440.65771484375" y="219.5">SimplePizzaFactory</text></g></g><g transform="translate(-206,-190) scale(1,1)"><g><path fill="none" stroke="none"/><text fill="#000000" stroke="none" font-family="Arial" font-size="13px" font-style="normal" font-weight="normal" text-decoration="none" x="437" y="252.5">+createPizza(): Pizza</text></g></g><g transform="translate(-206,-190) scale(1,1)"><rect fill="#C0C0C0" stroke="none" x="351" y="287" width="89.57080078125" height="102" opacity="0.2"/></g><g transform="translate(-206,-190) scale(1,1)"><rect fill="#ffffff" stroke="none" x="344" y="280" width="89.57080078125" height="102"/></g><g transform="translate(-206,-190) scale(1,1)"><path fill="none" stroke="#000000" d="M 344 280 L 433.57080078125 280 L 433.57080078125 382 L 344 382 L 344 280 Z Z" stroke-miterlimit="10"/></g><g transform="translate(-206,-190) scale(1,1)"><path fill="none" stroke="#000000" d="M 344 305 L 433.57080078125 305" stroke-miterlimit="10"/></g><g transform="translate(-206,-190) scale(1,1)"><path fill="none" stroke="#000000" d="M 344 315 L 433.57080078125 315" stroke-miterlimit="10"/></g><g transform="translate(-206,-190) scale(1,1)"><g><path fill="none" stroke="none"/><text fill="#000000" stroke="none" font-family="Arial" font-size="13px" font-style="normal" font-weight="bold" text-decoration="none" x="372.890869140625" y="299.5">Pizza</text></g></g><g transform="translate(-206,-190) scale(1,1)"><g><path fill="none" stroke="none"/><text fill="#000000" stroke="none" font-family="Arial" font-size="13px" font-style="normal" font-weight="normal" text-decoration="none" x="349" y="332.5">+prepare()</text></g></g><g transform="translate(-206,-190) scale(1,1)"><g><path fill="none" stroke="none"/><text fill="#000000" stroke="none" font-family="Arial" font-size="13px" font-style="normal" font-weight="normal" text-decoration="none" x="349" y="347.5">+bake()</text></g></g><g transform="translate(-206,-190) scale(1,1)"><g><path fill="none" stroke="none"/><text fill="#000000" stroke="none" font-family="Arial" font-size="13px" font-style="normal" font-weight="normal" text-decoration="none" x="349" y="362.5">+cut()</text></g></g><g transform="translate(-206,-190) scale(1,1)"><g><path fill="none" stroke="none"/><text fill="#000000" stroke="none" font-family="Arial" font-size="13px" font-style="normal" font-weight="normal" text-decoration="none" x="349" y="377.5">+box()</text></g></g><g transform="translate(-206,-190) scale(1,1)"><rect fill="#C0C0C0" stroke="none" x="239" y="447" width="87.76171875" height="44" opacity="0.2"/></g><g transform="translate(-206,-190) scale(1,1)"><rect fill="#ffffff" stroke="none" x="232" y="440" width="87.76171875" height="44"/></g><g transform="translate(-206,-190) scale(1,1)"><path fill="none" stroke="#000000" d="M 232 440 L 319.76171875 440 L 319.76171875 484 L 232 484 L 232 440 Z Z" stroke-miterlimit="10"/></g><g transform="translate(-206,-190) scale(1,1)"><path fill="none" stroke="#000000" d="M 232 465 L 319.76171875 465" stroke-miterlimit="10"/></g><g transform="translate(-206,-190) scale(1,1)"><path fill="none" stroke="#000000" d="M 232 475 L 319.76171875 475" stroke-miterlimit="10"/></g><g transform="translate(-206,-190) scale(1,1)"><g><path fill="none" stroke="none"/><text fill="#000000" stroke="none" font-family="Arial" font-size="13px" font-style="normal" font-weight="bold" text-decoration="none" x="237.582275390625" y="459.5">CheesePizza</text></g></g><g transform="translate(-206,-190) scale(1,1)"><rect fill="#C0C0C0" stroke="none" x="351" y="447" width="83.419921875" height="44" opacity="0.2"/></g><g transform="translate(-206,-190) scale(1,1)"><rect fill="#ffffff" stroke="none" x="344" y="440" width="83.419921875" height="44"/></g><g transform="translate(-206,-190) scale(1,1)"><path fill="none" stroke="#000000" d="M 344 440 L 427.419921875 440 L 427.419921875 484 L 344 484 L 344 440 Z Z" stroke-miterlimit="10"/></g><g transform="translate(-206,-190) scale(1,1)"><path fill="none" stroke="#000000" d="M 344 465 L 427.419921875 465" stroke-miterlimit="10"/></g><g transform="translate(-206,-190) scale(1,1)"><path fill="none" stroke="#000000" d="M 344 475 L 427.419921875 475" stroke-miterlimit="10"/></g><g transform="translate(-206,-190) scale(1,1)"><g><path fill="none" stroke="none"/><text fill="#000000" stroke="none" font-family="Arial" font-size="13px" font-style="normal" font-weight="bold" text-decoration="none" x="349.9345703125" y="459.5">VeggiePizza</text></g></g><g transform="translate(-206,-190) scale(1,1)"><rect fill="#C0C0C0" stroke="none" x="455" y="447" width="105.078125" height="44" opacity="0.2"/></g><g transform="translate(-206,-190) scale(1,1)"><rect fill="#ffffff" stroke="none" x="448" y="440" width="105.078125" height="44"/></g><g transform="translate(-206,-190) scale(1,1)"><path fill="none" stroke="#000000" d="M 448 440 L 553.078125 440 L 553.078125 484 L 448 484 L 448 440 Z Z" stroke-miterlimit="10"/></g><g transform="translate(-206,-190) scale(1,1)"><path fill="none" stroke="#000000" d="M 448 465 L 553.078125 465" stroke-miterlimit="10"/></g><g transform="translate(-206,-190) scale(1,1)"><path fill="none" stroke="#000000" d="M 448 475 L 553.078125 475" stroke-miterlimit="10"/></g><g transform="translate(-206,-190) scale(1,1)"><g><path fill="none" stroke="none"/><text fill="#000000" stroke="none" font-family="Arial" font-size="13px" font-style="normal" font-weight="bold" text-decoration="none" x="455.010498046875" y="459.5">PepperoniPizza</text></g></g><g transform="translate(-206,-190) scale(1,1)"><path fill="none" stroke="#000000" d="M 275 440 L 275 419 L 389 419 L 389 382" stroke-miterlimit="10"/></g><g transform="translate(-206,-190) scale(1,1)"><path fill="#FFFFFF" stroke="none" d="M 397.419035512032 402.3253497152483 L 389 382 L 380.580964487968 402.3253497152483"/></g><g transform="translate(-206,-190) scale(1,1)"><path fill="none" stroke="#000000" d="M 397.419035512032 402.3253497152483 L 389 382 L 380.580964487968 402.3253497152483 L 397.419035512032 402.3253497152483" stroke-miterlimit="10"/></g><g transform="translate(-206,-190) scale(1,1)"><path fill="none" stroke="#000000" d="M 385 440 L 385 419 L 389 419 L 389 382" stroke-miterlimit="10"/></g><g transform="translate(-206,-190) scale(1,1)"><path fill="#FFFFFF" stroke="none" d="M 397.419035512032 402.3253497152483 L 389 382 L 380.580964487968 402.3253497152483"/></g><g transform="translate(-206,-190) scale(1,1)"><path fill="none" stroke="#000000" d="M 397.419035512032 402.3253497152483 L 389 382 L 380.580964487968 402.3253497152483 L 397.419035512032 402.3253497152483" stroke-miterlimit="10"/></g><g transform="translate(-206,-190) scale(1,1)"><path fill="none" stroke="#000000" d="M 500 440 L 500 419 L 389 419 L 389 382" stroke-miterlimit="10"/></g><g transform="translate(-206,-190) scale(1,1)"><path fill="#FFFFFF" stroke="none" d="M 397.419035512032 402.3253497152483 L 389 382 L 380.580964487968 402.3253497152483"/></g><g transform="translate(-206,-190) scale(1,1)"><path fill="none" stroke="#000000" d="M 397.419035512032 402.3253497152483 L 389 382 L 380.580964487968 402.3253497152483 L 397.419035512032 402.3253497152483" stroke-miterlimit="10"/></g><g transform="translate(-206,-190) scale(1,1)"><path fill="none" stroke="#000000" d="M 343 228 L 431 228" stroke-miterlimit="10"/></g><g transform="translate(-206,-190) scale(1,1)"><g><path fill="none" stroke="none"/><text fill="#000000" stroke="none" font-family="Arial" font-size="13px" font-style="normal" font-weight="normal" text-decoration="none" x="383.13134765625" y="219.5">-factory</text></g></g></g></svg>